<svg width="265" height="102" viewBox="0 0 265 102" fill="none" xmlns="http://www.w3.org/2000/svg">
<g filter="url(#filter0_d_66_644)">
<rect x="9" y="9" width="247" height="84.5707" rx="2.68478" fill="white"/>
</g>
<path d="M9 11.6848C9 10.202 10.202 9 11.6848 9H14.3696V93.5707H11.6848C10.202 93.5707 9 92.3686 9 90.8859V11.6848Z" fill="#9CBFFF"/>
<circle cx="242.577" cy="22.4243" r="4.36277" stroke="#BCC5D0" stroke-width="2.01359"/>
<path d="M23.3071 26.0537V19.476H24.3126L28.4377 24.5408H27.9397V19.476H29.1519V26.0537H28.1464L24.0213 20.9889H24.5193V26.0537H23.3071ZM33.0569 26.1195C32.5432 26.1195 32.0859 26.0099 31.685 25.7906C31.284 25.5651 30.9677 25.2581 30.7359 24.8697C30.5041 24.4813 30.3882 24.0397 30.3882 23.5448C30.3882 23.0436 30.5041 22.602 30.7359 22.2198C30.9677 21.8314 31.284 21.5276 31.685 21.3084C32.0859 21.0891 32.5432 20.9795 33.0569 20.9795C33.5769 20.9795 34.0373 21.0891 34.4382 21.3084C34.8454 21.5276 35.1618 21.8283 35.3873 22.2104C35.6191 22.5926 35.735 23.0374 35.735 23.5448C35.735 24.0397 35.6191 24.4813 35.3873 24.8697C35.1618 25.2581 34.8454 25.5651 34.4382 25.7906C34.0373 26.0099 33.5769 26.1195 33.0569 26.1195ZM33.0569 25.114C33.3451 25.114 33.6019 25.0514 33.8274 24.9261C34.053 24.8008 34.2284 24.6191 34.3537 24.3811C34.4852 24.143 34.551 23.8643 34.551 23.5448C34.551 23.219 34.4852 22.9403 34.3537 22.7085C34.2284 22.4704 34.053 22.2888 33.8274 22.1635C33.6019 22.0382 33.3482 21.9755 33.0663 21.9755C32.7781 21.9755 32.5213 22.0382 32.2958 22.1635C32.0765 22.2888 31.9011 22.4704 31.7695 22.7085C31.638 22.9403 31.5722 23.219 31.5722 23.5448C31.5722 23.8643 31.638 24.143 31.7695 24.3811C31.9011 24.6191 32.0765 24.8008 32.2958 24.9261C32.5213 25.0514 32.775 25.114 33.0569 25.114ZM38.7469 26.1195C38.1956 26.1195 37.7697 25.9785 37.469 25.6966C37.1683 25.4085 37.0179 24.9856 37.0179 24.4281V19.927H38.1925V24.3999C38.1925 24.6379 38.252 24.8227 38.3711 24.9543C38.4963 25.0858 38.6686 25.1516 38.8879 25.1516C39.151 25.1516 39.3702 25.0827 39.5456 24.9449L39.8745 25.7812C39.7367 25.894 39.5676 25.9785 39.3671 26.0349C39.1666 26.0913 38.9599 26.1195 38.7469 26.1195ZM36.191 22.0131V21.0734H39.5362V22.0131H36.191ZM40.8408 26.0537V21.0359H42.0154V26.0537H40.8408ZM41.4328 20.2089C41.2135 20.2089 41.0318 20.14 40.8878 20.0022C40.7499 19.8644 40.681 19.6984 40.681 19.5042C40.681 19.3037 40.7499 19.1377 40.8878 19.0062C41.0318 18.8683 41.2135 18.7994 41.4328 18.7994C41.652 18.7994 41.8306 18.8652 41.9684 18.9968C42.1125 19.122 42.1845 19.2818 42.1845 19.476C42.1845 19.6827 42.1156 19.8581 41.9778 20.0022C41.84 20.14 41.6583 20.2089 41.4328 20.2089ZM43.7168 26.0537V20.7539C43.7168 20.2277 43.8702 19.808 44.1772 19.4948C44.4904 19.1753 44.9352 19.0156 45.5115 19.0156C45.7183 19.0156 45.9125 19.0375 46.0941 19.0813C46.2821 19.1252 46.4387 19.1941 46.564 19.2881L46.2445 20.1714C46.1568 20.1024 46.0566 20.0523 45.9438 20.021C45.831 19.9834 45.7151 19.9646 45.5961 19.9646C45.3518 19.9646 45.167 20.0335 45.0417 20.1714C44.9164 20.3029 44.8538 20.5034 44.8538 20.7727V21.3365L44.8914 21.8628V26.0537H43.7168ZM42.8899 22.0131V21.0734H46.2351V22.0131H42.8899ZM47.062 26.0537V21.0359H48.2366V26.0537H47.062ZM47.654 20.2089C47.4347 20.2089 47.2531 20.14 47.109 20.0022C46.9712 19.8644 46.9023 19.6984 46.9023 19.5042C46.9023 19.3037 46.9712 19.1377 47.109 19.0062C47.2531 18.8683 47.4347 18.7994 47.654 18.7994C47.8733 18.7994 48.0518 18.8652 48.1896 18.9968C48.3337 19.122 48.4057 19.2818 48.4057 19.476C48.4057 19.6827 48.3368 19.8581 48.199 20.0022C48.0612 20.14 47.8795 20.2089 47.654 20.2089ZM52.0809 26.1195C51.5547 26.1195 51.0848 26.0099 50.6714 25.7906C50.2642 25.5651 49.9447 25.2581 49.7129 24.8697C49.4811 24.4813 49.3652 24.0397 49.3652 23.5448C49.3652 23.0436 49.4811 22.602 49.7129 22.2198C49.9447 21.8314 50.2642 21.5276 50.6714 21.3084C51.0848 21.0891 51.5547 20.9795 52.0809 20.9795C52.5695 20.9795 52.9986 21.0797 53.3682 21.2802C53.7441 21.4744 54.0292 21.7625 54.2234 22.1447L53.3213 22.6709C53.1709 22.4328 52.9861 22.2574 52.7669 22.1447C52.5539 22.0319 52.3221 21.9755 52.0715 21.9755C51.7833 21.9755 51.5234 22.0382 51.2916 22.1635C51.0598 22.2888 50.8781 22.4704 50.7466 22.7085C50.615 22.9403 50.5492 23.219 50.5492 23.5448C50.5492 23.8705 50.615 24.1524 50.7466 24.3905C50.8781 24.6223 51.0598 24.8008 51.2916 24.9261C51.5234 25.0514 51.7833 25.114 52.0715 25.114C52.3221 25.114 52.5539 25.0577 52.7669 24.9449C52.9861 24.8321 53.1709 24.6567 53.3213 24.4187L54.2234 24.9449C54.0292 25.3208 53.7441 25.6121 53.3682 25.8188C52.9986 26.0193 52.5695 26.1195 52.0809 26.1195ZM58.3302 26.0537V25.0389L58.2645 24.8227V23.0468C58.2645 22.7022 58.1611 22.436 57.9544 22.248C57.7476 22.0538 57.4344 21.9567 57.0147 21.9567C56.7328 21.9567 56.454 22.0006 56.1784 22.0883C55.909 22.176 55.6804 22.2981 55.4924 22.4548L55.032 21.5997C55.3014 21.3929 55.6208 21.2394 55.9904 21.1392C56.3663 21.0327 56.7547 20.9795 57.1556 20.9795C57.8823 20.9795 58.443 21.1549 58.8377 21.5057C59.2386 21.8502 59.4391 22.3858 59.4391 23.1125V26.0537H58.3302ZM56.7516 26.1195C56.3757 26.1195 56.0468 26.0568 55.7649 25.9316C55.483 25.8 55.2638 25.6215 55.1072 25.3959C54.9568 25.1642 54.8816 24.9042 54.8816 24.616C54.8816 24.3341 54.9474 24.0804 55.079 23.8549C55.2168 23.6294 55.4392 23.4508 55.7461 23.3193C56.0531 23.1877 56.4603 23.1219 56.9677 23.1219H58.4242V23.9019H57.0523C56.6514 23.9019 56.382 23.9676 56.2442 24.0992C56.1063 24.2245 56.0374 24.3811 56.0374 24.569C56.0374 24.782 56.122 24.9512 56.2911 25.0764C56.4603 25.2017 56.6952 25.2644 56.9959 25.2644C57.2841 25.2644 57.5409 25.1986 57.7664 25.0671C57.9982 24.9355 58.1642 24.7413 58.2645 24.4845L58.4618 25.1892C58.349 25.4836 58.1454 25.7123 57.851 25.8752C57.5628 26.038 57.1964 26.1195 56.7516 26.1195ZM62.8352 26.1195C62.284 26.1195 61.858 25.9785 61.5573 25.6966C61.2566 25.4085 61.1062 24.9856 61.1062 24.4281V19.927H62.2808V24.3999C62.2808 24.6379 62.3403 24.8227 62.4594 24.9543C62.5847 25.0858 62.7569 25.1516 62.9762 25.1516C63.2393 25.1516 63.4586 25.0827 63.634 24.9449L63.9629 25.7812C63.825 25.894 63.6559 25.9785 63.4554 26.0349C63.255 26.0913 63.0482 26.1195 62.8352 26.1195ZM60.2793 22.0131V21.0734H63.6246V22.0131H60.2793ZM64.9291 26.0537V21.0359H66.1037V26.0537H64.9291ZM65.5211 20.2089C65.3018 20.2089 65.1202 20.14 64.9761 20.0022C64.8383 19.8644 64.7694 19.6984 64.7694 19.5042C64.7694 19.3037 64.8383 19.1377 64.9761 19.0062C65.1202 18.8683 65.3018 18.7994 65.5211 18.7994C65.7404 18.7994 65.9189 18.8652 66.0567 18.9968C66.2008 19.122 66.2728 19.2818 66.2728 19.476C66.2728 19.6827 66.2039 19.8581 66.0661 20.0022C65.9283 20.14 65.7466 20.2089 65.5211 20.2089ZM69.9006 26.1195C69.3869 26.1195 68.9296 26.0099 68.5286 25.7906C68.1277 25.5651 67.8114 25.2581 67.5796 24.8697C67.3478 24.4813 67.2319 24.0397 67.2319 23.5448C67.2319 23.0436 67.3478 22.602 67.5796 22.2198C67.8114 21.8314 68.1277 21.5276 68.5286 21.3084C68.9296 21.0891 69.3869 20.9795 69.9006 20.9795C70.4205 20.9795 70.881 21.0891 71.2819 21.3084C71.6891 21.5276 72.0054 21.8283 72.231 22.2104C72.4627 22.5926 72.5786 23.0374 72.5786 23.5448C72.5786 24.0397 72.4627 24.4813 72.231 24.8697C72.0054 25.2581 71.6891 25.5651 71.2819 25.7906C70.881 26.0099 70.4205 26.1195 69.9006 26.1195ZM69.9006 25.114C70.1887 25.114 70.4456 25.0514 70.6711 24.9261C70.8966 24.8008 71.072 24.6191 71.1973 24.3811C71.3289 24.143 71.3946 23.8643 71.3946 23.5448C71.3946 23.219 71.3289 22.9403 71.1973 22.7085C71.072 22.4704 70.8966 22.2888 70.6711 22.1635C70.4456 22.0382 70.1919 21.9755 69.91 21.9755C69.6218 21.9755 69.3649 22.0382 69.1394 22.1635C68.9202 22.2888 68.7448 22.4704 68.6132 22.7085C68.4817 22.9403 68.4159 23.219 68.4159 23.5448C68.4159 23.8643 68.4817 24.143 68.6132 24.3811C68.7448 24.6191 68.9202 24.8008 69.1394 24.9261C69.3649 25.0514 69.6187 25.114 69.9006 25.114ZM76.5491 20.9795C76.95 20.9795 77.3071 21.0578 77.6203 21.2144C77.9398 21.371 78.1903 21.6122 78.372 21.9379C78.5537 22.2574 78.6445 22.6709 78.6445 23.1783V26.0537H77.4699V23.3287C77.4699 22.8839 77.3634 22.5519 77.1504 22.3326C76.9437 22.1133 76.6524 22.0037 76.2765 22.0037C76.0009 22.0037 75.7566 22.0601 75.5436 22.1729C75.3306 22.2856 75.1646 22.4548 75.0456 22.6803C74.9328 22.8995 74.8764 23.1783 74.8764 23.5166V26.0537H73.7018V21.0359H74.82V22.389L74.6227 21.9755C74.7981 21.656 75.0518 21.4117 75.3839 21.2426C75.7221 21.0672 76.1105 20.9795 76.5491 20.9795Z" fill="#82878E"/>
<path d="M23.1809 38.4785V32.8405H24.0428L26.5074 36.9562H26.0563L28.4807 32.8405H29.3425L29.3506 38.4785H28.3599L28.3518 34.395H28.5612L26.4993 37.8342H26.0322L23.938 34.395H24.1797V38.4785H23.1809ZM32.7985 38.5349C32.3206 38.5349 31.9017 38.4409 31.542 38.253C31.1876 38.0597 30.9111 37.7966 30.7124 37.4637C30.5191 37.1308 30.4224 36.7522 30.4224 36.328C30.4224 35.8984 30.5164 35.5199 30.7043 35.1923C30.8976 34.8594 31.1607 34.599 31.4937 34.4111C31.8319 34.2231 32.2159 34.1292 32.6454 34.1292C33.0643 34.1292 33.4374 34.2205 33.765 34.403C34.0925 34.5856 34.3503 34.8433 34.5382 35.1762C34.7261 35.5091 34.8201 35.9011 34.8201 36.3522C34.8201 36.3951 34.8174 36.4435 34.812 36.4971C34.812 36.5508 34.8094 36.6019 34.804 36.6502H31.2198V35.9817H34.2724L33.8777 36.1911C33.8831 35.9441 33.8321 35.7266 33.7247 35.5387C33.6173 35.3507 33.4697 35.2031 33.2817 35.0957C33.0992 34.9883 32.8871 34.9346 32.6454 34.9346C32.3984 34.9346 32.181 34.9883 31.993 35.0957C31.8105 35.2031 31.6655 35.3534 31.5581 35.5467C31.4561 35.7347 31.4051 35.9575 31.4051 36.2152V36.3763C31.4051 36.6341 31.4641 36.8623 31.5823 37.061C31.7004 37.2596 31.8668 37.4127 32.0816 37.52C32.2964 37.6274 32.5434 37.6811 32.8226 37.6811C33.0643 37.6811 33.2817 37.6435 33.475 37.5684C33.6683 37.4932 33.8402 37.3751 33.9905 37.214L34.5301 37.8342C34.3368 38.0597 34.0925 38.2342 33.7972 38.3577C33.5072 38.4758 33.1743 38.5349 32.7985 38.5349ZM35.7872 38.4785V34.1775H36.7457V35.3615L36.6329 35.0151C36.7618 34.7252 36.9631 34.505 37.237 34.3547C37.5162 34.2043 37.8625 34.1292 38.276 34.1292V35.0876C38.233 35.0769 38.1928 35.0715 38.1552 35.0715C38.1176 35.0662 38.08 35.0635 38.0424 35.0635C37.6612 35.0635 37.3578 35.1762 37.1323 35.4018C36.9067 35.6219 36.794 35.9521 36.794 36.3924V38.4785H35.7872ZM41.064 38.5349C40.613 38.5349 40.2103 38.4409 39.8559 38.253C39.5069 38.0597 39.233 37.7966 39.0343 37.4637C38.8357 37.1308 38.7363 36.7522 38.7363 36.328C38.7363 35.8984 38.8357 35.5199 39.0343 35.1923C39.233 34.8594 39.5069 34.599 39.8559 34.4111C40.2103 34.2231 40.613 34.1292 41.064 34.1292C41.4829 34.1292 41.8507 34.2151 42.1675 34.3869C42.4897 34.5534 42.734 34.8004 42.9004 35.1279L42.1272 35.579C41.9983 35.3749 41.8399 35.2246 41.652 35.1279C41.4694 35.0313 41.2708 34.9829 41.056 34.9829C40.809 34.9829 40.5862 35.0366 40.3875 35.144C40.1888 35.2514 40.0331 35.4071 39.9203 35.6112C39.8076 35.8098 39.7512 36.0488 39.7512 36.328C39.7512 36.6072 39.8076 36.8489 39.9203 37.0529C40.0331 37.2516 40.1888 37.4046 40.3875 37.512C40.5862 37.6194 40.809 37.6731 41.056 37.6731C41.2708 37.6731 41.4694 37.6248 41.652 37.5281C41.8399 37.4315 41.9983 37.2811 42.1272 37.0771L42.9004 37.5281C42.734 37.8503 42.4897 38.1 42.1675 38.2772C41.8507 38.449 41.4829 38.5349 41.064 38.5349ZM46.1719 34.1292C46.5155 34.1292 46.8216 34.1963 47.0901 34.3305C47.3639 34.4648 47.5787 34.6715 47.7344 34.9507C47.8901 35.2246 47.968 35.579 47.968 36.0139V38.4785H46.9612V36.1428C46.9612 35.7615 46.8699 35.4769 46.6874 35.289C46.5102 35.1011 46.2605 35.0071 45.9383 35.0071C45.702 35.0071 45.4926 35.0554 45.3101 35.1521C45.1275 35.2487 44.9852 35.3937 44.8832 35.587C44.7865 35.7749 44.7382 36.0139 44.7382 36.3038V38.4785H43.7314V32.5022H44.7382V35.3373L44.5207 34.9829C44.6711 34.7091 44.8886 34.4997 45.1731 34.3547C45.4631 34.2043 45.796 34.1292 46.1719 34.1292ZM51.8951 38.4785V37.6086L51.8387 37.4234V35.9011C51.8387 35.6058 51.7501 35.3776 51.5729 35.2165C51.3957 35.05 51.1272 34.9668 50.7675 34.9668C50.5258 34.9668 50.2869 35.0044 50.0506 35.0796C49.8197 35.1548 49.6237 35.2595 49.4627 35.3937L49.068 34.6608C49.2989 34.4836 49.5727 34.352 49.8895 34.2661C50.2117 34.1748 50.5446 34.1292 50.8883 34.1292C51.5111 34.1292 51.9917 34.2795 52.33 34.5802C52.6737 34.8755 52.8455 35.3346 52.8455 35.9575V38.4785H51.8951ZM50.5419 38.5349C50.2198 38.5349 49.9379 38.4812 49.6962 38.3738C49.4546 38.261 49.2667 38.108 49.1324 37.9147C49.0036 37.716 48.9391 37.4932 48.9391 37.2462C48.9391 37.0046 48.9955 36.7871 49.1083 36.5938C49.2264 36.4005 49.417 36.2475 49.6801 36.1347C49.9432 36.0219 50.2923 35.9656 50.7272 35.9656H51.9756V36.6341H50.7997C50.456 36.6341 50.2251 36.6905 50.107 36.8032C49.9889 36.9106 49.9298 37.0448 49.9298 37.2059C49.9298 37.3885 50.0023 37.5335 50.1473 37.6409C50.2923 37.7483 50.4936 37.802 50.7513 37.802C50.9983 37.802 51.2185 37.7456 51.4118 37.6328C51.6105 37.52 51.7528 37.3536 51.8387 37.1334L52.0078 37.7375C51.9112 37.9899 51.7367 38.1859 51.4843 38.3255C51.2373 38.4651 50.9232 38.5349 50.5419 38.5349ZM56.578 34.1292C56.9217 34.1292 57.2278 34.1963 57.4962 34.3305C57.7701 34.4648 57.9849 34.6715 58.1406 34.9507C58.2963 35.2246 58.3742 35.579 58.3742 36.0139V38.4785H57.3674V36.1428C57.3674 35.7615 57.2761 35.4769 57.0935 35.289C56.9163 35.1011 56.6666 35.0071 56.3445 35.0071C56.1082 35.0071 55.8988 35.0554 55.7162 35.1521C55.5337 35.2487 55.3914 35.3937 55.2893 35.587C55.1927 35.7749 55.1444 36.0139 55.1444 36.3038V38.4785H54.1376V34.1775H55.096V35.3373L54.9269 34.9829C55.0772 34.7091 55.2947 34.4997 55.5793 34.3547C55.8693 34.2043 56.2022 34.1292 56.578 34.1292ZM61.2703 38.5349C60.7977 38.5349 60.4326 38.4141 60.1749 38.1725C59.9171 37.9255 59.7883 37.563 59.7883 37.0851V33.2271H60.7951V37.061C60.7951 37.265 60.8461 37.4234 60.9481 37.5362C61.0555 37.6489 61.2031 37.7053 61.3911 37.7053C61.6166 37.7053 61.8045 37.6462 61.9549 37.5281L62.2368 38.2449C62.1187 38.3416 61.9737 38.4141 61.8019 38.4624C61.63 38.5107 61.4528 38.5349 61.2703 38.5349ZM59.0795 35.0151V34.2097H61.9468V35.0151H59.0795ZM65.3876 38.4785V32.8405H66.2494L69.7853 37.1818H69.3584V32.8405H70.3974V38.4785H69.5356L65.9997 34.1372H66.4266V38.4785H65.3876ZM74.4614 38.4785V37.6086L74.405 37.4234V35.9011C74.405 35.6058 74.3164 35.3776 74.1392 35.2165C73.962 35.05 73.6936 34.9668 73.3338 34.9668C73.0922 34.9668 72.8532 35.0044 72.617 35.0796C72.3861 35.1548 72.1901 35.2595 72.029 35.3937L71.6343 34.6608C71.8652 34.4836 72.1391 34.352 72.4559 34.2661C72.778 34.1748 73.111 34.1292 73.4546 34.1292C74.0775 34.1292 74.5581 34.2795 74.8963 34.5802C75.24 34.8755 75.4118 35.3346 75.4118 35.9575V38.4785H74.4614ZM73.1083 38.5349C72.7861 38.5349 72.5042 38.4812 72.2626 38.3738C72.0209 38.261 71.833 38.108 71.6988 37.9147C71.5699 37.716 71.5055 37.4932 71.5055 37.2462C71.5055 37.0046 71.5618 36.7871 71.6746 36.5938C71.7927 36.4005 71.9833 36.2475 72.2465 36.1347C72.5096 36.0219 72.8586 35.9656 73.2935 35.9656H74.5419V36.6341H73.366C73.0224 36.6341 72.7915 36.6905 72.6733 36.8032C72.5552 36.9106 72.4961 37.0448 72.4961 37.2059C72.4961 37.3885 72.5686 37.5335 72.7136 37.6409C72.8586 37.7483 73.0599 37.802 73.3177 37.802C73.5647 37.802 73.7848 37.7456 73.9781 37.6328C74.1768 37.52 74.3191 37.3536 74.405 37.1334L74.5742 37.7375C74.4775 37.9899 74.303 38.1859 74.0506 38.3255C73.8036 38.4651 73.4895 38.5349 73.1083 38.5349ZM82.1325 34.1292C82.4762 34.1292 82.7796 34.1963 83.0427 34.3305C83.3112 34.4648 83.5206 34.6715 83.6709 34.9507C83.8213 35.2246 83.8964 35.579 83.8964 36.0139V38.4785H82.8896V36.1428C82.8896 35.7615 82.8064 35.4769 82.64 35.289C82.4735 35.1011 82.2346 35.0071 81.9231 35.0071C81.703 35.0071 81.507 35.0554 81.3352 35.1521C81.1687 35.2487 81.0371 35.391 80.9405 35.579C80.8492 35.7669 80.8036 36.0058 80.8036 36.2958V38.4785H79.7968V36.1428C79.7968 35.7615 79.7135 35.4769 79.5471 35.289C79.3806 35.1011 79.1417 35.0071 78.8303 35.0071C78.6101 35.0071 78.4141 35.0554 78.2423 35.1521C78.0758 35.2487 77.9443 35.391 77.8476 35.579C77.7563 35.7669 77.7107 36.0058 77.7107 36.2958V38.4785H76.7039V34.1775H77.6624V35.3212L77.4932 34.9829C77.6382 34.7037 77.8476 34.4916 78.1215 34.3466C78.4007 34.2017 78.7175 34.1292 79.0719 34.1292C79.4746 34.1292 79.8236 34.2285 80.1189 34.4272C80.4196 34.6259 80.6183 34.9265 80.715 35.3293L80.3203 35.1923C80.4599 34.8702 80.6908 34.6124 81.013 34.4191C81.3352 34.2258 81.7083 34.1292 82.1325 34.1292ZM87.2125 38.5349C86.7346 38.5349 86.3158 38.4409 85.956 38.253C85.6016 38.0597 85.3251 37.7966 85.1264 37.4637C84.9331 37.1308 84.8365 36.7522 84.8365 36.328C84.8365 35.8984 84.9304 35.5199 85.1184 35.1923C85.3117 34.8594 85.5748 34.599 85.9077 34.4111C86.246 34.2231 86.6299 34.1292 87.0595 34.1292C87.4783 34.1292 87.8515 34.2205 88.179 34.403C88.5066 34.5856 88.7643 34.8433 88.9522 35.1762C89.1402 35.5091 89.2341 35.9011 89.2341 36.3522C89.2341 36.3951 89.2315 36.4435 89.2261 36.4971C89.2261 36.5508 89.2234 36.6019 89.218 36.6502H85.6338V35.9817H88.6864L88.2918 36.1911C88.2972 35.9441 88.2461 35.7266 88.1388 35.5387C88.0314 35.3507 87.8837 35.2031 87.6958 35.0957C87.5132 34.9883 87.3011 34.9346 87.0595 34.9346C86.8125 34.9346 86.595 34.9883 86.4071 35.0957C86.2245 35.2031 86.0795 35.3534 85.9721 35.5467C85.8701 35.7347 85.8191 35.9575 85.8191 36.2152V36.3763C85.8191 36.6341 85.8782 36.8623 85.9963 37.061C86.1144 37.2596 86.2809 37.4127 86.4957 37.52C86.7104 37.6274 86.9574 37.6811 87.2367 37.6811C87.4783 37.6811 87.6958 37.6435 87.8891 37.5684C88.0824 37.4932 88.2542 37.3751 88.4045 37.214L88.9442 37.8342C88.7509 38.0597 88.5066 38.2342 88.2112 38.3577C87.9213 38.4758 87.5884 38.5349 87.2125 38.5349Z" fill="#525252"/>
<path d="M99.2354 38.4785V32.8405H100.282V38.4785H99.2354ZM101.807 38.4785V32.8405H104.272C104.884 32.8405 105.421 32.9586 105.883 33.1949C106.345 33.4311 106.704 33.7587 106.962 34.1775C107.22 34.5963 107.349 35.0903 107.349 35.6595C107.349 36.2233 107.22 36.7173 106.962 37.1415C106.704 37.5603 106.345 37.8879 105.883 38.1241C105.421 38.3604 104.884 38.4785 104.272 38.4785H101.807ZM102.854 37.5925H104.224C104.648 37.5925 105.013 37.512 105.319 37.3509C105.631 37.1898 105.869 36.9643 106.036 36.6743C106.208 36.3844 106.294 36.0461 106.294 35.6595C106.294 35.2675 106.208 34.9292 106.036 34.6446C105.869 34.3547 105.631 34.1292 105.319 33.9681C105.013 33.807 104.648 33.7265 104.224 33.7265H102.854V37.5925ZM112.057 38.5591C111.66 38.5591 111.27 38.5027 110.889 38.3899C110.513 38.2718 110.196 38.1107 109.939 37.9067L110.39 37.0932C110.594 37.2596 110.841 37.3939 111.131 37.4959C111.421 37.5979 111.724 37.6489 112.041 37.6489C112.417 37.6489 112.709 37.5737 112.919 37.4234C113.128 37.2677 113.233 37.0583 113.233 36.7952C113.233 36.5374 113.136 36.3334 112.943 36.183C112.75 36.0327 112.438 35.9575 112.009 35.9575H111.493V35.2407L113.104 33.3237L113.241 33.7184H110.212V32.8405H114.054V33.5412L112.444 35.4581L111.896 35.136H112.21C112.903 35.136 113.421 35.2917 113.764 35.6031C114.113 35.9092 114.288 36.3038 114.288 36.7871C114.288 37.1039 114.207 37.3965 114.046 37.665C113.885 37.9335 113.638 38.151 113.305 38.3174C112.978 38.4785 112.562 38.5591 112.057 38.5591ZM114.892 37.1979V36.473L117.671 32.8405H118.791L116.052 36.473L115.529 36.3119H119.999V37.1979H114.892ZM117.985 38.4785V37.1979L118.017 36.3119V35.1762H119V38.4785H117.985ZM125.017 38.5591C124.572 38.5591 124.169 38.4463 123.809 38.2208C123.455 37.9953 123.175 37.6677 122.971 37.2381C122.767 36.8032 122.665 36.277 122.665 35.6595C122.665 35.042 122.767 34.5185 122.971 34.0889C123.175 33.654 123.455 33.3237 123.809 33.0982C124.169 32.8727 124.572 32.7599 125.017 32.7599C125.468 32.7599 125.871 32.8727 126.225 33.0982C126.58 33.3237 126.859 33.654 127.063 34.0889C127.272 34.5185 127.377 35.042 127.377 35.6595C127.377 36.277 127.272 36.8032 127.063 37.2381C126.859 37.6677 126.58 37.9953 126.225 38.2208C125.871 38.4463 125.468 38.5591 125.017 38.5591ZM125.017 37.6489C125.28 37.6489 125.509 37.5791 125.702 37.4395C125.895 37.2945 126.045 37.0744 126.153 36.779C126.266 36.4837 126.322 36.1105 126.322 35.6595C126.322 35.2031 126.266 34.8299 126.153 34.5399C126.045 34.2446 125.895 34.0271 125.702 33.8875C125.509 33.7426 125.28 33.6701 125.017 33.6701C124.765 33.6701 124.539 33.7426 124.341 33.8875C124.147 34.0271 123.994 34.2446 123.882 34.5399C123.774 34.8299 123.72 35.2031 123.72 35.6595C123.72 36.1105 123.774 36.4837 123.882 36.779C123.994 37.0744 124.147 37.2945 124.341 37.4395C124.539 37.5791 124.765 37.6489 125.017 37.6489ZM130.437 38.5591C129.991 38.5591 129.588 38.4463 129.228 38.2208C128.874 37.9953 128.595 37.6677 128.391 37.2381C128.187 36.8032 128.085 36.277 128.085 35.6595C128.085 35.042 128.187 34.5185 128.391 34.0889C128.595 33.654 128.874 33.3237 129.228 33.0982C129.588 32.8727 129.991 32.7599 130.437 32.7599C130.888 32.7599 131.29 32.8727 131.645 33.0982C131.999 33.3237 132.278 33.654 132.482 34.0889C132.692 34.5185 132.797 35.042 132.797 35.6595C132.797 36.277 132.692 36.8032 132.482 37.2381C132.278 37.6677 131.999 37.9953 131.645 38.2208C131.29 38.4463 130.888 38.5591 130.437 38.5591ZM130.437 37.6489C130.7 37.6489 130.928 37.5791 131.121 37.4395C131.315 37.2945 131.465 37.0744 131.572 36.779C131.685 36.4837 131.741 36.1105 131.741 35.6595C131.741 35.2031 131.685 34.8299 131.572 34.5399C131.465 34.2446 131.315 34.0271 131.121 33.8875C130.928 33.7426 130.7 33.6701 130.437 33.6701C130.184 33.6701 129.959 33.7426 129.76 33.8875C129.567 34.0271 129.414 34.2446 129.301 34.5399C129.194 34.8299 129.14 35.2031 129.14 35.6595C129.14 36.1105 129.194 36.4837 129.301 36.779C129.414 37.0744 129.567 37.2945 129.76 37.4395C129.959 37.5791 130.184 37.6489 130.437 37.6489Z" fill="#82878E"/>
<path d="M22.7218 82.7773V82.2296L25.0173 80.0147C25.2214 79.8214 25.3717 79.6523 25.4684 79.5073C25.5704 79.3569 25.6375 79.22 25.6697 79.0965C25.7073 78.9676 25.7261 78.8441 25.7261 78.726C25.7261 78.436 25.6241 78.2078 25.42 78.0414C25.216 77.8749 24.918 77.7917 24.526 77.7917C24.2253 77.7917 23.9542 77.8427 23.7125 77.9447C23.4709 78.0414 23.2615 78.1944 23.0843 78.4038L22.5366 77.9286C22.7514 77.6548 23.0386 77.4454 23.3984 77.3004C23.7635 77.15 24.1636 77.0749 24.5985 77.0749C24.9905 77.0749 25.3314 77.1393 25.6214 77.2682C25.9114 77.3917 26.1342 77.5715 26.2899 77.8078C26.451 78.0441 26.5315 78.3233 26.5315 78.6455C26.5315 78.828 26.5074 79.0079 26.4591 79.1851C26.4107 79.3623 26.3194 79.5502 26.1852 79.7489C26.051 79.9476 25.8577 80.1704 25.6053 80.4174L23.5595 82.3907L23.3662 82.0766H26.7732V82.7773H22.7218ZM31.7087 82.8257C31.2952 82.8257 30.9247 82.7344 30.5972 82.5518C30.275 82.3693 30.0199 82.1142 29.832 81.7867C29.6441 81.4591 29.5501 81.0779 29.5501 80.6429C29.5501 80.208 29.6441 79.8295 29.832 79.5073C30.0199 79.1797 30.275 78.9247 30.5972 78.7421C30.9247 78.5595 31.2952 78.4683 31.7087 78.4683C32.0684 78.4683 32.3933 78.5488 32.6832 78.7099C32.9732 78.871 33.2041 79.1126 33.3759 79.4348C33.5531 79.757 33.6417 80.1597 33.6417 80.6429C33.6417 81.1262 33.5558 81.5289 33.384 81.8511C33.2175 82.1733 32.9893 82.4176 32.6994 82.584C32.4094 82.7451 32.0792 82.8257 31.7087 82.8257ZM31.7731 82.1491C32.0416 82.1491 32.2832 82.0874 32.498 81.9639C32.7181 81.8404 32.89 81.6658 33.0135 81.4403C33.1423 81.2094 33.2068 80.9436 33.2068 80.6429C33.2068 80.3369 33.1423 80.0738 33.0135 79.8536C32.89 79.6281 32.7181 79.4536 32.498 79.3301C32.2832 79.2066 32.0416 79.1448 31.7731 79.1448C31.4993 79.1448 31.2549 79.2066 31.0402 79.3301C30.8254 79.4536 30.6535 79.6281 30.5247 79.8536C30.3958 80.0738 30.3314 80.3369 30.3314 80.6429C30.3314 80.9436 30.3958 81.2094 30.5247 81.4403C30.6535 81.6658 30.8254 81.8404 31.0402 81.9639C31.2549 82.0874 31.4993 82.1491 31.7731 82.1491ZM33.2309 82.7773V81.6256L33.2793 80.6349L33.1987 79.6442V76.801H33.9719V82.7773H33.2309ZM35.6202 84.3882C35.4161 84.3882 35.2175 84.3533 35.0242 84.2835C34.8309 84.2191 34.6644 84.1224 34.5248 83.9936L34.855 83.4136C34.9624 83.5157 35.0805 83.5935 35.2094 83.6472C35.3383 83.7009 35.4752 83.7278 35.6202 83.7278C35.8081 83.7278 35.9638 83.6794 36.0873 83.5828C36.2108 83.4861 36.3263 83.3143 36.4337 83.0673L36.6995 82.4793L36.78 82.3827L38.4553 78.5085H39.2124L37.1425 83.2042C37.019 83.5049 36.8793 83.7412 36.7236 83.913C36.5733 84.0848 36.4068 84.2056 36.2243 84.2755C36.0417 84.3506 35.8403 84.3882 35.6202 84.3882ZM36.635 82.9143L34.6859 78.5085H35.4913L37.1505 82.3102L36.635 82.9143ZM42.4502 82.7773V81.8753L42.4099 81.7061V80.1677C42.4099 79.8402 42.3133 79.5878 42.12 79.4106C41.932 79.2281 41.6475 79.1368 41.2662 79.1368C41.0139 79.1368 40.7669 79.1797 40.5252 79.2656C40.2836 79.3462 40.0795 79.4563 39.9131 79.5959L39.5909 79.016C39.8111 78.8388 40.0742 78.7045 40.3802 78.6132C40.6917 78.5166 41.0165 78.4683 41.3548 78.4683C41.9401 78.4683 42.3911 78.6106 42.7079 78.8951C43.0248 79.1797 43.1832 79.6147 43.1832 80.2V82.7773H42.4502ZM41.0488 82.8257C40.7319 82.8257 40.4527 82.772 40.2111 82.6646C39.9748 82.5572 39.7923 82.4095 39.6634 82.2216C39.5345 82.0283 39.4701 81.8108 39.4701 81.5692C39.4701 81.3383 39.5238 81.1289 39.6312 80.941C39.7439 80.753 39.9238 80.6027 40.1708 80.4899C40.4232 80.3771 40.7615 80.3208 41.1857 80.3208H42.5388V80.8765H41.2179C40.8313 80.8765 40.5709 80.941 40.4366 81.0698C40.3024 81.1987 40.2353 81.3544 40.2353 81.537C40.2353 81.7464 40.3185 81.9155 40.4849 82.0444C40.6514 82.1679 40.8823 82.2296 41.1776 82.2296C41.4676 82.2296 41.7199 82.1652 41.9347 82.0363C42.1549 81.9075 42.3133 81.7195 42.4099 81.4725L42.563 82.0041C42.4609 82.2565 42.2811 82.4579 42.0233 82.6082C41.7656 82.7532 41.4407 82.8257 41.0488 82.8257ZM45.8383 82.8257C45.4839 82.8257 45.1456 82.7773 44.8235 82.6807C44.5067 82.584 44.257 82.4659 44.0744 82.3263L44.3966 81.7142C44.5792 81.8377 44.8047 81.9424 45.0732 82.0283C45.3416 82.1142 45.6155 82.1572 45.8947 82.1572C46.2545 82.1572 46.5122 82.1061 46.6679 82.0041C46.829 81.9021 46.9095 81.7598 46.9095 81.5772C46.9095 81.443 46.8612 81.3383 46.7646 81.2631C46.6679 81.188 46.539 81.1316 46.378 81.094C46.2222 81.0564 46.0477 81.0242 45.8544 80.9973C45.6611 80.9651 45.4678 80.9275 45.2745 80.8846C45.0812 80.8362 44.904 80.7718 44.7429 80.6913C44.5818 80.6054 44.453 80.4899 44.3563 80.3449C44.2597 80.1946 44.2113 79.9959 44.2113 79.7489C44.2113 79.4912 44.2838 79.2656 44.4288 79.0723C44.5738 78.879 44.7778 78.7314 45.0409 78.6294C45.3094 78.522 45.6262 78.4683 45.9914 78.4683C46.2706 78.4683 46.5525 78.5032 46.8371 78.573C47.127 78.6374 47.3633 78.7314 47.5458 78.8549L47.2156 79.467C47.0223 79.3381 46.821 79.2495 46.6115 79.2012C46.4021 79.1529 46.1927 79.1287 45.9833 79.1287C45.645 79.1287 45.3926 79.1851 45.2262 79.2979C45.0597 79.4053 44.9765 79.5449 44.9765 79.7167C44.9765 79.8617 45.0248 79.9744 45.1215 80.055C45.2235 80.1301 45.3524 80.1892 45.5081 80.2322C45.6692 80.2751 45.8464 80.3127 46.0397 80.3449C46.233 80.3718 46.4263 80.4094 46.6196 80.4577C46.8129 80.5006 46.9874 80.5624 47.1431 80.6429C47.3042 80.7235 47.4331 80.8362 47.5297 80.9812C47.6318 81.1262 47.6828 81.3195 47.6828 81.5611C47.6828 81.8189 47.6076 82.0417 47.4572 82.2296C47.3069 82.4176 47.0948 82.5652 46.821 82.6726C46.5471 82.7747 46.2196 82.8257 45.8383 82.8257ZM53.462 82.7773V81.8753L53.4217 81.7061V80.1677C53.4217 79.8402 53.3251 79.5878 53.1318 79.4106C52.9439 79.2281 52.6593 79.1368 52.278 79.1368C52.0257 79.1368 51.7787 79.1797 51.537 79.2656C51.2954 79.3462 51.0914 79.4563 50.9249 79.5959L50.6027 79.016C50.8229 78.8388 51.086 78.7045 51.392 78.6132C51.7035 78.5166 52.0283 78.4683 52.3666 78.4683C52.9519 78.4683 53.4029 78.6106 53.7198 78.8951C54.0366 79.1797 54.195 79.6147 54.195 80.2V82.7773H53.462ZM52.0606 82.8257C51.7438 82.8257 51.4645 82.772 51.2229 82.6646C50.9866 82.5572 50.8041 82.4095 50.6752 82.2216C50.5463 82.0283 50.4819 81.8108 50.4819 81.5692C50.4819 81.3383 50.5356 81.1289 50.643 80.941C50.7558 80.753 50.9356 80.6027 51.1826 80.4899C51.435 80.3771 51.7733 80.3208 52.1975 80.3208H53.5506V80.8765H52.2297C51.8431 80.8765 51.5827 80.941 51.4484 81.0698C51.3142 81.1987 51.2471 81.3544 51.2471 81.537C51.2471 81.7464 51.3303 81.9155 51.4968 82.0444C51.6632 82.1679 51.8941 82.2296 52.1894 82.2296C52.4794 82.2296 52.7318 82.1652 52.9465 82.0363C53.1667 81.9075 53.3251 81.7195 53.4217 81.4725L53.5748 82.0041C53.4728 82.2565 53.2929 82.4579 53.0351 82.6082C52.7774 82.7532 52.4525 82.8257 52.0606 82.8257ZM57.4945 84.3882C57.1025 84.3882 56.7213 84.3318 56.3508 84.2191C55.9856 84.1117 55.6876 83.956 55.4567 83.7519L55.8272 83.1559C56.0259 83.3277 56.2702 83.462 56.5602 83.5586C56.8501 83.6606 57.1535 83.7116 57.4703 83.7116C57.975 83.7116 58.3455 83.5935 58.5818 83.3573C58.8181 83.121 58.9362 82.7612 58.9362 82.278V81.3759L59.0167 80.5302L58.9765 79.6764V78.5085H59.7094V82.1974C59.7094 82.9492 59.5215 83.5022 59.1456 83.8566C58.7697 84.211 58.2194 84.3882 57.4945 84.3882ZM57.3978 82.6001C56.9844 82.6001 56.6139 82.5142 56.2863 82.3424C55.9641 82.1652 55.7064 81.9209 55.5131 81.6095C55.3252 81.298 55.2312 80.9383 55.2312 80.5302C55.2312 80.1167 55.3252 79.757 55.5131 79.4509C55.7064 79.1395 55.9641 78.8978 56.2863 78.726C56.6139 78.5542 56.9844 78.4683 57.3978 78.4683C57.763 78.4683 58.0959 78.5434 58.3966 78.6938C58.6973 78.8388 58.9362 79.0643 59.1134 79.3704C59.296 79.6764 59.3872 80.063 59.3872 80.5302C59.3872 80.992 59.296 81.3759 59.1134 81.682C58.9362 81.988 58.6973 82.2189 58.3966 82.3746C58.0959 82.525 57.763 82.6001 57.3978 82.6001ZM57.4864 81.9236C57.771 81.9236 58.0234 81.8645 58.2435 81.7464C58.4637 81.6283 58.6355 81.4645 58.759 81.2551C58.8879 81.0457 58.9523 80.804 58.9523 80.5302C58.9523 80.2563 58.8879 80.0147 58.759 79.8053C58.6355 79.5959 58.4637 79.4348 58.2435 79.322C58.0234 79.2039 57.771 79.1448 57.4864 79.1448C57.2018 79.1448 56.9468 79.2039 56.7213 79.322C56.5011 79.4348 56.3266 79.5959 56.1977 79.8053C56.0742 80.0147 56.0125 80.2563 56.0125 80.5302C56.0125 80.804 56.0742 81.0457 56.1977 81.2551C56.3266 81.4645 56.5011 81.6283 56.7213 81.7464C56.9468 81.8645 57.2018 81.9236 57.4864 81.9236ZM63.0152 82.8257C62.5856 82.8257 62.2044 82.7317 61.8714 82.5438C61.5385 82.3558 61.2754 82.0981 61.0821 81.7706C60.8888 81.4376 60.7922 81.0618 60.7922 80.6429C60.7922 80.2187 60.8888 79.8429 61.0821 79.5153C61.2754 79.1878 61.5385 78.9327 61.8714 78.7502C62.2044 78.5622 62.5856 78.4683 63.0152 78.4683C63.4394 78.4683 63.8179 78.5622 64.1508 78.7502C64.4891 78.9327 64.7522 79.1878 64.9402 79.5153C65.1335 79.8375 65.2301 80.2134 65.2301 80.6429C65.2301 81.0671 65.1335 81.443 64.9402 81.7706C64.7522 82.0981 64.4891 82.3558 64.1508 82.5438C63.8179 82.7317 63.4394 82.8257 63.0152 82.8257ZM63.0152 82.1491C63.289 82.1491 63.5333 82.0874 63.7481 81.9639C63.9683 81.8404 64.1401 81.6658 64.2636 81.4403C64.3871 81.2094 64.4488 80.9436 64.4488 80.6429C64.4488 80.3369 64.3871 80.0738 64.2636 79.8536C64.1401 79.6281 63.9683 79.4536 63.7481 79.3301C63.5333 79.2066 63.289 79.1448 63.0152 79.1448C62.7413 79.1448 62.497 79.2066 62.2822 79.3301C62.0674 79.4536 61.8956 79.6281 61.7667 79.8536C61.6379 80.0738 61.5734 80.3369 61.5734 80.6429C61.5734 80.9436 61.6379 81.2094 61.7667 81.4403C61.8956 81.6658 62.0674 81.8404 62.2822 81.9639C62.497 82.0874 62.7413 82.1491 63.0152 82.1491Z" fill="#BCC5D0"/>
<path d="M207.025 82.7773L205.156 78.5085H205.962L207.621 82.3746H207.235L208.926 78.5085H209.683L207.814 82.7773H207.025ZM210.405 82.7773V78.5085H211.178V82.7773H210.405ZM210.791 77.687C210.641 77.687 210.515 77.6387 210.413 77.542C210.316 77.4454 210.268 77.3272 210.268 77.1876C210.268 77.0426 210.316 76.9218 210.413 76.8252C210.515 76.7285 210.641 76.6802 210.791 76.6802C210.942 76.6802 211.065 76.7285 211.162 76.8252C211.264 76.9165 211.315 77.0319 211.315 77.1715C211.315 77.3165 211.266 77.44 211.17 77.542C211.073 77.6387 210.947 77.687 210.791 77.687ZM214.555 82.8257C214.099 82.8257 213.696 82.7317 213.347 82.5438C213.003 82.3558 212.735 82.0981 212.541 81.7706C212.354 81.443 212.26 81.0671 212.26 80.6429C212.26 80.2187 212.351 79.8429 212.533 79.5153C212.721 79.1878 212.976 78.9327 213.299 78.7502C213.626 78.5622 213.994 78.4683 214.402 78.4683C214.815 78.4683 215.181 78.5595 215.497 78.7421C215.814 78.9247 216.061 79.1824 216.238 79.5153C216.421 79.8429 216.512 80.2268 216.512 80.6671C216.512 80.6993 216.51 80.7369 216.504 80.7799C216.504 80.8228 216.501 80.8631 216.496 80.9007H212.864V80.3449H216.093L215.779 80.5382C215.785 80.2644 215.728 80.0201 215.61 79.8053C215.492 79.5905 215.328 79.4241 215.119 79.3059C214.915 79.1824 214.676 79.1207 214.402 79.1207C214.134 79.1207 213.895 79.1824 213.685 79.3059C213.476 79.4241 213.312 79.5932 213.194 79.8133C213.076 80.0281 213.017 80.2751 213.017 80.5543V80.6832C213.017 80.9678 213.081 81.2229 213.21 81.4484C213.344 81.6685 213.529 81.8404 213.766 81.9639C214.002 82.0874 214.273 82.1491 214.579 82.1491C214.832 82.1491 215.06 82.1061 215.264 82.0202C215.473 81.9343 215.656 81.8055 215.812 81.6336L216.238 82.133C216.045 82.3585 215.803 82.5303 215.513 82.6485C215.229 82.7666 214.909 82.8257 214.555 82.8257ZM218.409 82.7773L216.823 78.5085H217.556L218.965 82.3746H218.619L220.085 78.5085H220.737L222.171 82.3746H221.832L223.274 78.5085H223.967L222.372 82.7773H221.631L220.286 79.2495H220.512L219.15 82.7773H218.409ZM232.255 78.4683C232.598 78.4683 232.902 78.5354 233.165 78.6696C233.428 78.8039 233.632 79.0079 233.777 79.2818C233.927 79.5556 234.002 79.9019 234.002 80.3208V82.7773H233.229V80.4094C233.229 79.9959 233.132 79.6845 232.939 79.4751C232.746 79.2656 232.475 79.1609 232.126 79.1609C231.868 79.1609 231.642 79.2146 231.449 79.322C231.256 79.4294 231.105 79.5878 230.998 79.7972C230.896 80.0066 230.845 80.2671 230.845 80.5785V82.7773H230.072V80.4094C230.072 79.9959 229.975 79.6845 229.782 79.4751C229.594 79.2656 229.323 79.1609 228.968 79.1609C228.716 79.1609 228.493 79.2146 228.3 79.322C228.107 79.4294 227.956 79.5878 227.849 79.7972C227.741 80.0066 227.688 80.2671 227.688 80.5785V82.7773H226.914V78.5085H227.655V79.6442L227.535 79.3542C227.669 79.075 227.876 78.8576 228.155 78.7018C228.434 78.5461 228.759 78.4683 229.129 78.4683C229.538 78.4683 229.889 78.5703 230.185 78.7743C230.48 78.973 230.673 79.2764 230.764 79.6845L230.45 79.5556C230.579 79.2281 230.805 78.965 231.127 78.7663C231.449 78.5676 231.825 78.4683 232.255 78.4683ZM237.253 82.8257C236.824 82.8257 236.443 82.7317 236.11 82.5438C235.777 82.3558 235.514 82.0981 235.32 81.7706C235.127 81.4376 235.03 81.0618 235.03 80.6429C235.03 80.2187 235.127 79.8429 235.32 79.5153C235.514 79.1878 235.777 78.9327 236.11 78.7502C236.443 78.5622 236.824 78.4683 237.253 78.4683C237.678 78.4683 238.056 78.5622 238.389 78.7502C238.727 78.9327 238.99 79.1878 239.178 79.5153C239.372 79.8375 239.468 80.2134 239.468 80.6429C239.468 81.0671 239.372 81.443 239.178 81.7706C238.99 82.0981 238.727 82.3558 238.389 82.5438C238.056 82.7317 237.678 82.8257 237.253 82.8257ZM237.253 82.1491C237.527 82.1491 237.772 82.0874 237.986 81.9639C238.206 81.8404 238.378 81.6658 238.502 81.4403C238.625 81.2094 238.687 80.9436 238.687 80.6429C238.687 80.3369 238.625 80.0738 238.502 79.8536C238.378 79.6281 238.206 79.4536 237.986 79.3301C237.772 79.2066 237.527 79.1448 237.253 79.1448C236.98 79.1448 236.735 79.2066 236.52 79.3301C236.306 79.4536 236.134 79.6281 236.005 79.8536C235.876 80.0738 235.812 80.3369 235.812 80.6429C235.812 80.9436 235.876 81.2094 236.005 81.4403C236.134 81.6658 236.306 81.8404 236.52 81.9639C236.735 82.0874 236.98 82.1491 237.253 82.1491ZM240.538 82.7773V78.5085H241.279V79.6684L241.206 79.3784C241.324 79.0831 241.523 78.8576 241.802 78.7018C242.081 78.5461 242.425 78.4683 242.833 78.4683V79.2173C242.801 79.212 242.769 79.2093 242.737 79.2093C242.71 79.2093 242.683 79.2093 242.656 79.2093C242.243 79.2093 241.915 79.3328 241.673 79.5798C241.432 79.8268 241.311 80.1838 241.311 80.651V82.7773H240.538ZM245.648 82.8257C245.191 82.8257 244.789 82.7317 244.439 82.5438C244.096 82.3558 243.827 82.0981 243.634 81.7706C243.446 81.443 243.352 81.0671 243.352 80.6429C243.352 80.2187 243.443 79.8429 243.626 79.5153C243.814 79.1878 244.069 78.9327 244.391 78.7502C244.719 78.5622 245.087 78.4683 245.495 78.4683C245.908 78.4683 246.273 78.5595 246.59 78.7421C246.907 78.9247 247.154 79.1824 247.331 79.5153C247.514 79.8429 247.605 80.2268 247.605 80.6671C247.605 80.6993 247.602 80.7369 247.597 80.7799C247.597 80.8228 247.594 80.8631 247.589 80.9007H243.956V80.3449H247.186L246.872 80.5382C246.877 80.2644 246.821 80.0201 246.703 79.8053C246.585 79.5905 246.421 79.4241 246.211 79.3059C246.007 79.1824 245.768 79.1207 245.495 79.1207C245.226 79.1207 244.987 79.1824 244.778 79.3059C244.568 79.4241 244.405 79.5932 244.286 79.8133C244.168 80.0281 244.109 80.2751 244.109 80.5543V80.6832C244.109 80.9678 244.174 81.2229 244.303 81.4484C244.437 81.6685 244.622 81.8404 244.858 81.9639C245.095 82.0874 245.366 82.1491 245.672 82.1491C245.924 82.1491 246.152 82.1061 246.356 82.0202C246.566 81.9343 246.748 81.8055 246.904 81.6336L247.331 82.133C247.138 82.3585 246.896 82.5303 246.606 82.6485C246.322 82.7666 246.002 82.8257 245.648 82.8257Z" fill="#397FFF"/>
<path d="M24.4374 56.9287V51.8061H22.456V51.2907H27.0148V51.8061H25.0334V56.9287H24.4374ZM30.2601 56.9287V55.9944L30.2359 55.8414V54.2788C30.2359 53.9191 30.1339 53.6425 29.9299 53.4492C29.7312 53.2559 29.4332 53.1593 29.0358 53.1593C28.762 53.1593 28.5015 53.2049 28.2545 53.2962C28.0075 53.3875 27.7981 53.5083 27.6263 53.6586L27.3686 53.2318C27.5834 53.0492 27.8411 52.9096 28.1418 52.8129C28.4425 52.7109 28.7593 52.6599 29.0922 52.6599C29.6399 52.6599 30.0614 52.7968 30.3567 53.0707C30.6574 53.3392 30.8078 53.7499 30.8078 54.303V56.9287H30.2601ZM28.8022 56.969C28.4854 56.969 28.2089 56.918 27.9726 56.816C27.7418 56.7086 27.5646 56.5636 27.4411 56.381C27.3176 56.1931 27.2558 55.9783 27.2558 55.7367C27.2558 55.5165 27.3068 55.3178 27.4088 55.1406C27.5162 54.9581 27.6881 54.8131 27.9243 54.7057C28.1659 54.5929 28.4881 54.5366 28.8908 54.5366H30.3487V54.9634H28.9069C28.4989 54.9634 28.2143 55.0359 28.0532 55.1809C27.8975 55.3259 27.8196 55.5058 27.8196 55.7206C27.8196 55.9622 27.9136 56.1555 28.1015 56.3005C28.2894 56.4455 28.5526 56.5179 28.8908 56.5179C29.213 56.5179 29.4895 56.4455 29.7204 56.3005C29.9567 56.1501 30.1285 55.9353 30.2359 55.6561L30.3648 56.0508C30.2574 56.33 30.0695 56.5528 29.801 56.7193C29.5379 56.8858 29.205 56.969 28.8022 56.969ZM33.4967 56.969C33.1476 56.969 32.8174 56.9207 32.506 56.824C32.1945 56.722 31.9502 56.5958 31.773 56.4455L32.0308 55.9944C32.2026 56.1233 32.4228 56.236 32.6912 56.3327C32.9597 56.424 33.2416 56.4696 33.5369 56.4696C33.9397 56.4696 34.2296 56.4079 34.4068 56.2844C34.584 56.1555 34.6726 55.9864 34.6726 55.7769C34.6726 55.6212 34.6216 55.5004 34.5196 55.4145C34.4229 55.3232 34.294 55.2561 34.133 55.2131C33.9719 55.1648 33.792 55.1245 33.5933 55.0923C33.3946 55.0601 33.196 55.0225 32.9973 54.9796C32.804 54.9366 32.6268 54.8749 32.4657 54.7943C32.3046 54.7084 32.1731 54.5929 32.071 54.448C31.9744 54.303 31.9261 54.1097 31.9261 53.8681C31.9261 53.6372 31.9905 53.4304 32.1194 53.2479C32.2482 53.0653 32.4362 52.923 32.6832 52.821C32.9355 52.7136 33.2416 52.6599 33.6014 52.6599C33.8752 52.6599 34.1491 52.6975 34.4229 52.7727C34.6968 52.8425 34.9223 52.9364 35.0995 53.0546L34.8498 53.5137C34.6619 53.3848 34.4605 53.2935 34.2457 53.2398C34.0309 53.1808 33.8162 53.1512 33.6014 53.1512C33.2201 53.1512 32.9382 53.2183 32.7557 53.3526C32.5785 53.4814 32.4899 53.6479 32.4899 53.8519C32.4899 54.013 32.5382 54.1392 32.6349 54.2305C32.7369 54.3218 32.8684 54.3943 33.0295 54.448C33.196 54.4963 33.3759 54.5366 33.5692 54.5688C33.7678 54.601 33.9638 54.6413 34.1571 54.6896C34.3558 54.7326 34.5357 54.7943 34.6968 54.8749C34.8632 54.95 34.9948 55.0601 35.0914 55.2051C35.1935 55.3447 35.2445 55.5299 35.2445 55.7608C35.2445 56.0078 35.1747 56.2226 35.035 56.4052C34.9008 56.5824 34.7021 56.722 34.439 56.824C34.1813 56.9207 33.8672 56.969 33.4967 56.969ZM36.7448 55.8333L36.7609 55.1004L39.3947 52.7002H40.0954L38.2349 54.4802L37.9127 54.754L36.7448 55.8333ZM36.2938 56.9287V50.9524H36.8657V56.9287H36.2938ZM39.5719 56.9287L37.808 54.7299L38.1785 54.2869L40.2726 56.9287H39.5719ZM43.0377 53.417L42.9975 51.2907H43.5049L43.4646 53.417H43.0377ZM44.415 53.417L44.3748 51.2907H44.8822L44.8419 53.417H44.415ZM47.4993 56.9287V51.8061H45.5179V51.2907H50.0767V51.8061H48.0953V56.9287H47.4993ZM53.3219 56.9287V55.9944L53.2978 55.8414V54.2788C53.2978 53.9191 53.1958 53.6425 52.9917 53.4492C52.793 53.2559 52.495 53.1593 52.0977 53.1593C51.8238 53.1593 51.5634 53.2049 51.3164 53.2962C51.0694 53.3875 50.86 53.5083 50.6882 53.6586L50.4304 53.2318C50.6452 53.0492 50.903 52.9096 51.2036 52.8129C51.5043 52.7109 51.8211 52.6599 52.1541 52.6599C52.7018 52.6599 53.1233 52.7968 53.4186 53.0707C53.7193 53.3392 53.8696 53.7499 53.8696 54.303V56.9287H53.3219ZM51.8641 56.969C51.5473 56.969 51.2708 56.918 51.0345 56.816C50.8036 56.7086 50.6264 56.5636 50.5029 56.381C50.3794 56.1931 50.3177 55.9783 50.3177 55.7367C50.3177 55.5165 50.3687 55.3178 50.4707 55.1406C50.5781 54.9581 50.7499 54.8131 50.9862 54.7057C51.2278 54.5929 51.55 54.5366 51.9527 54.5366H53.4105V54.9634H51.9688C51.5607 54.9634 51.2761 55.0359 51.1151 55.1809C50.9593 55.3259 50.8815 55.5058 50.8815 55.7206C50.8815 55.9622 50.9754 56.1555 51.1634 56.3005C51.3513 56.4455 51.6144 56.5179 51.9527 56.5179C52.2749 56.5179 52.5514 56.4455 52.7823 56.3005C53.0186 56.1501 53.1904 55.9353 53.2978 55.6561L53.4266 56.0508C53.3193 56.33 53.1313 56.5528 52.8628 56.7193C52.5997 56.8858 52.2668 56.969 51.8641 56.969ZM56.5585 56.969C56.2095 56.969 55.8793 56.9207 55.5678 56.824C55.2564 56.722 55.0121 56.5958 54.8349 56.4455L55.0926 55.9944C55.2645 56.1233 55.4846 56.236 55.7531 56.3327C56.0216 56.424 56.3035 56.4696 56.5988 56.4696C57.0015 56.4696 57.2915 56.4079 57.4687 56.2844C57.6459 56.1555 57.7345 55.9864 57.7345 55.7769C57.7345 55.6212 57.6835 55.5004 57.5814 55.4145C57.4848 55.3232 57.3559 55.2561 57.1948 55.2131C57.0337 55.1648 56.8539 55.1245 56.6552 55.0923C56.4565 55.0601 56.2578 55.0225 56.0592 54.9796C55.8659 54.9366 55.6887 54.8749 55.5276 54.7943C55.3665 54.7084 55.2349 54.5929 55.1329 54.448C55.0363 54.303 54.9879 54.1097 54.9879 53.8681C54.9879 53.6372 55.0524 53.4304 55.1812 53.2479C55.3101 53.0653 55.498 52.923 55.745 52.821C55.9974 52.7136 56.3035 52.6599 56.6632 52.6599C56.9371 52.6599 57.2109 52.6975 57.4848 52.7727C57.7586 52.8425 57.9842 52.9364 58.1613 53.0546L57.9117 53.5137C57.7237 53.3848 57.5224 53.2935 57.3076 53.2398C57.0928 53.1808 56.878 53.1512 56.6632 53.1512C56.282 53.1512 56.0001 53.2183 55.8175 53.3526C55.6403 53.4814 55.5517 53.6479 55.5517 53.8519C55.5517 54.013 55.6001 54.1392 55.6967 54.2305C55.7987 54.3218 55.9303 54.3943 56.0914 54.448C56.2578 54.4963 56.4377 54.5366 56.631 54.5688C56.8297 54.601 57.0257 54.6413 57.219 54.6896C57.4177 54.7326 57.5975 54.7943 57.7586 54.8749C57.9251 54.95 58.0566 55.0601 58.1533 55.2051C58.2553 55.3447 58.3063 55.5299 58.3063 55.7608C58.3063 56.0078 58.2365 56.2226 58.0969 56.4052C57.9627 56.5824 57.764 56.722 57.5009 56.824C57.2432 56.9207 56.929 56.969 56.5585 56.969ZM59.8067 55.8333L59.8228 55.1004L62.4566 52.7002H63.1573L61.2968 54.4802L60.9746 54.754L59.8067 55.8333ZM59.3557 56.9287V50.9524H59.9275V56.9287H59.3557ZM62.6338 56.9287L60.8699 54.7299L61.2404 54.2869L63.3345 56.9287H62.6338ZM66.4218 56.9287V51.2907H66.9131L70.8033 56.1877H70.5456V51.2907H71.1336V56.9287H70.6423L66.7601 52.0317H67.0178V56.9287H66.4218ZM75.5029 56.9287V55.9944L75.4787 55.8414V54.2788C75.4787 53.9191 75.3767 53.6425 75.1726 53.4492C74.974 53.2559 74.676 53.1593 74.2786 53.1593C74.0048 53.1593 73.7443 53.2049 73.4973 53.2962C73.2503 53.3875 73.0409 53.5083 72.8691 53.6586L72.6114 53.2318C72.8261 53.0492 73.0839 52.9096 73.3846 52.8129C73.6853 52.7109 74.0021 52.6599 74.335 52.6599C74.8827 52.6599 75.3042 52.7968 75.5995 53.0707C75.9002 53.3392 76.0506 53.7499 76.0506 54.303V56.9287H75.5029ZM74.045 56.969C73.7282 56.969 73.4517 56.918 73.2154 56.816C72.9845 56.7086 72.8073 56.5636 72.6838 56.381C72.5603 56.1931 72.4986 55.9783 72.4986 55.7367C72.4986 55.5165 72.5496 55.3178 72.6516 55.1406C72.759 54.9581 72.9308 54.8131 73.1671 54.7057C73.4087 54.5929 73.7309 54.5366 74.1336 54.5366H75.5915V54.9634H74.1497C73.7416 54.9634 73.4571 55.0359 73.296 55.1809C73.1403 55.3259 73.0624 55.5058 73.0624 55.7206C73.0624 55.9622 73.1564 56.1555 73.3443 56.3005C73.5322 56.4455 73.7953 56.5179 74.1336 56.5179C74.4558 56.5179 74.7323 56.4455 74.9632 56.3005C75.1995 56.1501 75.3713 55.9353 75.4787 55.6561L75.6076 56.0508C75.5002 56.33 75.3122 56.5528 75.0438 56.7193C74.7807 56.8858 74.4477 56.969 74.045 56.969ZM82.8874 52.6599C83.2311 52.6599 83.5291 52.727 83.7815 52.8613C84.0392 52.9901 84.2379 53.1888 84.3775 53.4573C84.5225 53.7258 84.595 54.064 84.595 54.4721V56.9287H84.0231V54.5285C84.0231 54.0828 83.9157 53.7472 83.7009 53.5217C83.4915 53.2908 83.1935 53.1754 82.8069 53.1754C82.5169 53.1754 82.2646 53.2371 82.0498 53.3606C81.8404 53.4788 81.6766 53.6533 81.5585 53.8842C81.4457 54.1097 81.3893 54.3835 81.3893 54.7057V56.9287H80.8175V54.5285C80.8175 54.0828 80.7101 53.7472 80.4953 53.5217C80.2805 53.2908 79.9798 53.1754 79.5932 53.1754C79.3086 53.1754 79.0589 53.2371 78.8442 53.3606C78.6294 53.4788 78.4629 53.6533 78.3448 53.8842C78.232 54.1097 78.1756 54.3835 78.1756 54.7057V56.9287H77.6038V52.7002H78.1515V53.8439L78.0629 53.6425C78.1918 53.3365 78.3985 53.0975 78.6831 52.9257C78.973 52.7485 79.314 52.6599 79.706 52.6599C80.1194 52.6599 80.4711 52.7646 80.7611 52.974C81.051 53.1781 81.239 53.4868 81.3249 53.9003L81.0994 53.8117C81.2229 53.468 81.4403 53.1915 81.7518 52.9821C82.0686 52.7673 82.4471 52.6599 82.8874 52.6599ZM87.9419 56.969C87.5016 56.969 87.115 56.8777 86.7821 56.6951C86.4492 56.5072 86.1888 56.2521 86.0008 55.93C85.8129 55.6024 85.7189 55.2292 85.7189 54.8104C85.7189 54.3916 85.8075 54.0211 85.9847 53.6989C86.1673 53.3767 86.4143 53.1244 86.7257 52.9418C87.0425 52.7539 87.3969 52.6599 87.7889 52.6599C88.1862 52.6599 88.5379 52.7512 88.844 52.9338C89.1554 53.1109 89.3998 53.3633 89.577 53.6909C89.7541 54.013 89.8427 54.3862 89.8427 54.8104C89.8427 54.8373 89.8401 54.8668 89.8347 54.899C89.8347 54.9259 89.8347 54.9554 89.8347 54.9876H86.1539V54.5607H89.5286L89.3031 54.7299C89.3031 54.4238 89.236 54.1526 89.1017 53.9164C88.9729 53.6748 88.7957 53.4868 88.5702 53.3526C88.3446 53.2183 88.0842 53.1512 87.7889 53.1512C87.4989 53.1512 87.2385 53.2183 87.0076 53.3526C86.7767 53.4868 86.5968 53.6748 86.468 53.9164C86.3391 54.158 86.2747 54.4345 86.2747 54.746V54.8346C86.2747 55.1568 86.3445 55.4413 86.4841 55.6883C86.6291 55.93 86.8277 56.1206 87.0801 56.2602C87.3378 56.3944 87.6305 56.4616 87.958 56.4616C88.2158 56.4616 88.4547 56.4159 88.6749 56.3246C88.9004 56.2334 89.0937 56.0937 89.2548 55.9058L89.577 56.2763C89.389 56.5018 89.1528 56.6737 88.8682 56.7918C88.589 56.9099 88.2802 56.969 87.9419 56.969ZM90.6009 53.417L90.5606 51.2907H91.068L91.0277 53.417H90.6009ZM91.9782 53.417L91.9379 51.2907H92.4453L92.405 53.417H91.9782ZM96.7767 56.9287L95.1819 52.7002H95.7296L97.1794 56.6226H96.9297L98.4197 52.7002H98.9111L100.385 56.6226H100.135L101.609 52.7002H102.133L100.53 56.9287H99.9903L98.5728 53.2398H98.7419L97.3163 56.9287H96.7767ZM105.518 56.9287V55.9944L105.494 55.8414V54.2788C105.494 53.9191 105.392 53.6425 105.188 53.4492C104.989 53.2559 104.691 53.1593 104.294 53.1593C104.02 53.1593 103.759 53.2049 103.512 53.2962C103.265 53.3875 103.056 53.5083 102.884 53.6586L102.626 53.2318C102.841 53.0492 103.099 52.9096 103.4 52.8129C103.7 52.7109 104.017 52.6599 104.35 52.6599C104.898 52.6599 105.319 52.7968 105.615 53.0707C105.915 53.3392 106.066 53.7499 106.066 54.303V56.9287H105.518ZM104.06 56.969C103.743 56.969 103.467 56.918 103.23 56.816C103 56.7086 102.822 56.5636 102.699 56.381C102.575 56.1931 102.514 55.9783 102.514 55.7367C102.514 55.5165 102.565 55.3178 102.667 55.1406C102.774 54.9581 102.946 54.8131 103.182 54.7057C103.424 54.5929 103.746 54.5366 104.149 54.5366H105.606V54.9634H104.165C103.757 54.9634 103.472 55.0359 103.311 55.1809C103.155 55.3259 103.077 55.5058 103.077 55.7206C103.077 55.9622 103.171 56.1555 103.359 56.3005C103.547 56.4455 103.81 56.5179 104.149 56.5179C104.471 56.5179 104.747 56.4455 104.978 56.3005C105.215 56.1501 105.386 55.9353 105.494 55.6561L105.623 56.0508C105.515 56.33 105.327 56.5528 105.059 56.7193C104.796 56.8858 104.463 56.969 104.06 56.969ZM108.754 56.969C108.405 56.969 108.075 56.9207 107.764 56.824C107.452 56.722 107.208 56.5958 107.031 56.4455L107.289 55.9944C107.46 56.1233 107.681 56.236 107.949 56.3327C108.218 56.424 108.499 56.4696 108.795 56.4696C109.197 56.4696 109.487 56.4079 109.665 56.2844C109.842 56.1555 109.93 55.9864 109.93 55.7769C109.93 55.6212 109.879 55.5004 109.777 55.4145C109.681 55.3232 109.552 55.2561 109.391 55.2131C109.23 55.1648 109.05 55.1245 108.851 55.0923C108.652 55.0601 108.454 55.0225 108.255 54.9796C108.062 54.9366 107.885 54.8749 107.724 54.7943C107.562 54.7084 107.431 54.5929 107.329 54.448C107.232 54.303 107.184 54.1097 107.184 53.8681C107.184 53.6372 107.248 53.4304 107.377 53.2479C107.506 53.0653 107.694 52.923 107.941 52.821C108.193 52.7136 108.499 52.6599 108.859 52.6599C109.133 52.6599 109.407 52.6975 109.681 52.7727C109.955 52.8425 110.18 52.9364 110.357 53.0546L110.108 53.5137C109.92 53.3848 109.718 53.2935 109.504 53.2398C109.289 53.1808 109.074 53.1512 108.859 53.1512C108.478 53.1512 108.196 53.2183 108.013 53.3526C107.836 53.4814 107.748 53.6479 107.748 53.8519C107.748 54.013 107.796 54.1392 107.893 54.2305C107.995 54.3218 108.126 54.3943 108.287 54.448C108.454 54.4963 108.634 54.5366 108.827 54.5688C109.026 54.601 109.222 54.6413 109.415 54.6896C109.614 54.7326 109.793 54.7943 109.955 54.8749C110.121 54.95 110.253 55.0601 110.349 55.2051C110.451 55.3447 110.502 55.5299 110.502 55.7608C110.502 56.0078 110.432 56.2226 110.293 56.4052C110.159 56.5824 109.96 56.722 109.697 56.824C109.439 56.9207 109.125 56.969 108.754 56.969ZM118.943 52.6599C119.287 52.6599 119.585 52.727 119.837 52.8613C120.095 52.9901 120.294 53.1888 120.433 53.4573C120.578 53.7258 120.651 54.064 120.651 54.4721V56.9287H120.079V54.5285C120.079 54.0828 119.972 53.7472 119.757 53.5217C119.547 53.2908 119.249 53.1754 118.863 53.1754C118.573 53.1754 118.32 53.2371 118.106 53.3606C117.896 53.4788 117.732 53.6533 117.614 53.8842C117.502 54.1097 117.445 54.3835 117.445 54.7057V56.9287H116.873V54.5285C116.873 54.0828 116.766 53.7472 116.551 53.5217C116.336 53.2908 116.036 53.1754 115.649 53.1754C115.364 53.1754 115.115 53.2371 114.9 53.3606C114.685 53.4788 114.519 53.6533 114.401 53.8842C114.288 54.1097 114.231 54.3835 114.231 54.7057V56.9287H113.66V52.7002H114.207V53.8439L114.119 53.6425C114.248 53.3365 114.454 53.0975 114.739 52.9257C115.029 52.7485 115.37 52.6599 115.762 52.6599C116.175 52.6599 116.527 52.7646 116.817 52.974C117.107 53.1781 117.295 53.4868 117.381 53.9003L117.155 53.8117C117.279 53.468 117.496 53.1915 117.808 52.9821C118.124 52.7673 118.503 52.6599 118.943 52.6599ZM124.851 56.9287V55.9944L124.827 55.8414V54.2788C124.827 53.9191 124.725 53.6425 124.521 53.4492C124.323 53.2559 124.025 53.1593 123.627 53.1593C123.353 53.1593 123.093 53.2049 122.846 53.2962C122.599 53.3875 122.39 53.5083 122.218 53.6586L121.96 53.2318C122.175 53.0492 122.432 52.9096 122.733 52.8129C123.034 52.7109 123.351 52.6599 123.684 52.6599C124.231 52.6599 124.653 52.7968 124.948 53.0707C125.249 53.3392 125.399 53.7499 125.399 54.303V56.9287H124.851ZM123.394 56.969C123.077 56.969 122.8 56.918 122.564 56.816C122.333 56.7086 122.156 56.5636 122.032 56.381C121.909 56.1931 121.847 55.9783 121.847 55.7367C121.847 55.5165 121.898 55.3178 122 55.1406C122.108 54.9581 122.279 54.8131 122.516 54.7057C122.757 54.5929 123.08 54.5366 123.482 54.5366H124.94V54.9634H123.498C123.09 54.9634 122.806 55.0359 122.645 55.1809C122.489 55.3259 122.411 55.5058 122.411 55.7206C122.411 55.9622 122.505 56.1555 122.693 56.3005C122.881 56.4455 123.144 56.5179 123.482 56.5179C123.804 56.5179 124.081 56.4455 124.312 56.3005C124.548 56.1501 124.72 55.9353 124.827 55.6561L124.956 56.0508C124.849 56.33 124.661 56.5528 124.392 56.7193C124.129 56.8858 123.796 56.969 123.394 56.969ZM126.952 56.9287V52.7002H127.5V53.8519L127.444 53.6506C127.562 53.3284 127.761 53.0841 128.04 52.9176C128.319 52.7458 128.665 52.6599 129.079 52.6599V53.2157C129.057 53.2157 129.036 53.2157 129.014 53.2157C128.993 53.2103 128.971 53.2076 128.95 53.2076C128.504 53.2076 128.155 53.3445 127.903 53.6184C127.65 53.8869 127.524 54.2708 127.524 54.7701V56.9287H126.952ZM130.573 55.8333L130.589 55.1004L133.223 52.7002H133.924L132.063 54.4802L131.741 54.754L130.573 55.8333ZM130.122 56.9287V50.9524H130.694V56.9287H130.122ZM133.4 56.9287L131.636 54.7299L132.007 54.2869L134.101 56.9287H133.4ZM136.59 56.969C136.15 56.969 135.764 56.8777 135.431 56.6951C135.098 56.5072 134.837 56.2521 134.649 55.93C134.461 55.6024 134.367 55.2292 134.367 54.8104C134.367 54.3916 134.456 54.0211 134.633 53.6989C134.816 53.3767 135.063 53.1244 135.374 52.9418C135.691 52.7539 136.045 52.6599 136.437 52.6599C136.835 52.6599 137.187 52.7512 137.493 52.9338C137.804 53.1109 138.048 53.3633 138.226 53.6909C138.403 54.013 138.491 54.3862 138.491 54.8104C138.491 54.8373 138.489 54.8668 138.483 54.899C138.483 54.9259 138.483 54.9554 138.483 54.9876H134.802V54.5607H138.177L137.952 54.7299C137.952 54.4238 137.885 54.1526 137.75 53.9164C137.621 53.6748 137.444 53.4868 137.219 53.3526C136.993 53.2183 136.733 53.1512 136.437 53.1512C136.148 53.1512 135.887 53.2183 135.656 53.3526C135.425 53.4868 135.245 53.6748 135.117 53.9164C134.988 54.158 134.923 54.4345 134.923 54.746V54.8346C134.923 55.1568 134.993 55.4413 135.133 55.6883C135.278 55.93 135.476 56.1206 135.729 56.2602C135.986 56.3944 136.279 56.4616 136.607 56.4616C136.864 56.4616 137.103 56.4159 137.323 56.3246C137.549 56.2334 137.742 56.0937 137.903 55.9058L138.226 56.2763C138.038 56.5018 137.801 56.6737 137.517 56.7918C137.238 56.9099 136.929 56.969 136.59 56.969ZM141.339 56.969C140.936 56.969 140.574 56.8777 140.251 56.6951C139.935 56.5126 139.685 56.2602 139.502 55.938C139.32 55.6105 139.228 55.2346 139.228 54.8104C139.228 54.3809 139.32 54.005 139.502 53.6828C139.685 53.3606 139.935 53.1109 140.251 52.9338C140.574 52.7512 140.936 52.6599 141.339 52.6599C141.709 52.6599 142.039 52.7431 142.329 52.9096C142.625 53.076 142.858 53.3204 143.03 53.6425C143.207 53.9593 143.296 54.3486 143.296 54.8104C143.296 55.2668 143.21 55.6561 143.038 55.9783C142.866 56.3005 142.633 56.5475 142.337 56.7193C142.047 56.8858 141.715 56.969 141.339 56.969ZM141.379 56.4616C141.68 56.4616 141.948 56.3944 142.184 56.2602C142.426 56.1206 142.614 55.9273 142.748 55.6803C142.888 55.4279 142.958 55.138 142.958 54.8104C142.958 54.4775 142.888 54.1875 142.748 53.9405C142.614 53.6935 142.426 53.5029 142.184 53.3687C141.948 53.2291 141.68 53.1593 141.379 53.1593C141.084 53.1593 140.818 53.2291 140.582 53.3687C140.345 53.5029 140.157 53.6935 140.018 53.9405C139.878 54.1875 139.808 54.4775 139.808 54.8104C139.808 55.138 139.878 55.4279 140.018 55.6803C140.157 55.9273 140.345 56.1206 140.582 56.2602C140.818 56.3944 141.084 56.4616 141.379 56.4616ZM142.974 56.9287V55.6561L143.03 54.8024L142.95 53.9486V50.9524H143.521V56.9287H142.974ZM149.872 56.9287V55.9944L149.848 55.8414V54.2788C149.848 53.9191 149.746 53.6425 149.542 53.4492C149.343 53.2559 149.045 53.1593 148.648 53.1593C148.374 53.1593 148.113 53.2049 147.866 53.2962C147.619 53.3875 147.41 53.5083 147.238 53.6586L146.98 53.2318C147.195 53.0492 147.453 52.9096 147.754 52.8129C148.054 52.7109 148.371 52.6599 148.704 52.6599C149.252 52.6599 149.673 52.7968 149.969 53.0707C150.269 53.3392 150.42 53.7499 150.42 54.303V56.9287H149.872ZM148.414 56.969C148.097 56.969 147.821 56.918 147.584 56.816C147.354 56.7086 147.176 56.5636 147.053 56.381C146.929 56.1931 146.868 55.9783 146.868 55.7367C146.868 55.5165 146.919 55.3178 147.021 55.1406C147.128 54.9581 147.3 54.8131 147.536 54.7057C147.778 54.5929 148.1 54.5366 148.503 54.5366H149.96V54.9634H148.519C148.111 54.9634 147.826 55.0359 147.665 55.1809C147.509 55.3259 147.431 55.5058 147.431 55.7206C147.431 55.9622 147.525 56.1555 147.713 56.3005C147.901 56.4455 148.164 56.5179 148.503 56.5179C148.825 56.5179 149.101 56.4455 149.332 56.3005C149.568 56.1501 149.74 55.9353 149.848 55.6561L149.977 56.0508C149.869 56.33 149.681 56.5528 149.413 56.7193C149.15 56.8858 148.817 56.969 148.414 56.969ZM153.108 56.969C152.759 56.969 152.429 56.9207 152.118 56.824C151.806 56.722 151.562 56.5958 151.385 56.4455L151.643 55.9944C151.814 56.1233 152.035 56.236 152.303 56.3327C152.572 56.424 152.853 56.4696 153.149 56.4696C153.551 56.4696 153.841 56.4079 154.019 56.2844C154.196 56.1555 154.284 55.9864 154.284 55.7769C154.284 55.6212 154.233 55.5004 154.131 55.4145C154.035 55.3232 153.906 55.2561 153.745 55.2131C153.584 55.1648 153.404 55.1245 153.205 55.0923C153.006 55.0601 152.808 55.0225 152.609 54.9796C152.416 54.9366 152.239 54.8749 152.078 54.7943C151.916 54.7084 151.785 54.5929 151.683 54.448C151.586 54.303 151.538 54.1097 151.538 53.8681C151.538 53.6372 151.602 53.4304 151.731 53.2479C151.86 53.0653 152.048 52.923 152.295 52.821C152.547 52.7136 152.853 52.6599 153.213 52.6599C153.487 52.6599 153.761 52.6975 154.035 52.7727C154.309 52.8425 154.534 52.9364 154.711 53.0546L154.462 53.5137C154.274 53.3848 154.072 53.2935 153.858 53.2398C153.643 53.1808 153.428 53.1512 153.213 53.1512C152.832 53.1512 152.55 53.2183 152.367 53.3526C152.19 53.4814 152.102 53.6479 152.102 53.8519C152.102 54.013 152.15 54.1392 152.247 54.2305C152.349 54.3218 152.48 54.3943 152.641 54.448C152.808 54.4963 152.988 54.5366 153.181 54.5688C153.38 54.601 153.576 54.6413 153.769 54.6896C153.968 54.7326 154.147 54.7943 154.309 54.8749C154.475 54.95 154.607 55.0601 154.703 55.2051C154.805 55.3447 154.856 55.5299 154.856 55.7608C154.856 56.0078 154.786 56.2226 154.647 56.4052C154.513 56.5824 154.314 56.722 154.051 56.824C153.793 56.9207 153.479 56.969 153.108 56.969ZM159.697 56.969C159.294 56.969 158.932 56.8777 158.61 56.6951C158.293 56.5126 158.043 56.2602 157.861 55.938C157.678 55.6105 157.587 55.2346 157.587 54.8104C157.587 54.3809 157.678 54.005 157.861 53.6828C158.043 53.3606 158.293 53.1109 158.61 52.9338C158.932 52.7512 159.294 52.6599 159.697 52.6599C160.067 52.6599 160.398 52.7431 160.688 52.9096C160.983 53.076 161.216 53.3204 161.388 53.6425C161.566 53.9593 161.654 54.3486 161.654 54.8104C161.654 55.2668 161.568 55.6561 161.396 55.9783C161.225 56.3005 160.991 56.5475 160.696 56.7193C160.406 56.8858 160.073 56.969 159.697 56.969ZM159.737 56.4616C160.038 56.4616 160.306 56.3944 160.543 56.2602C160.784 56.1206 160.972 55.9273 161.106 55.6803C161.246 55.4279 161.316 55.138 161.316 54.8104C161.316 54.4775 161.246 54.1875 161.106 53.9405C160.972 53.6935 160.784 53.5029 160.543 53.3687C160.306 53.2291 160.038 53.1593 159.737 53.1593C159.442 53.1593 159.176 53.2291 158.94 53.3687C158.704 53.5029 158.516 53.6935 158.376 53.9405C158.236 54.1875 158.167 54.4775 158.167 54.8104C158.167 55.138 158.236 55.4279 158.376 55.6803C158.516 55.9273 158.704 56.1206 158.94 56.2602C159.176 56.3944 159.442 56.4616 159.737 56.4616ZM161.332 56.9287V55.6561L161.388 54.8024L161.308 53.9486V50.9524H161.88V56.9287H161.332ZM165.196 56.969C164.788 56.969 164.42 56.8777 164.092 56.6951C163.77 56.5072 163.515 56.2521 163.327 55.93C163.139 55.6024 163.045 55.2292 163.045 54.8104C163.045 54.3862 163.139 54.013 163.327 53.6909C163.515 53.3687 163.77 53.1163 164.092 52.9338C164.415 52.7512 164.782 52.6599 165.196 52.6599C165.615 52.6599 165.985 52.7512 166.307 52.9338C166.635 53.1163 166.89 53.3687 167.073 53.6909C167.26 54.013 167.354 54.3862 167.354 54.8104C167.354 55.2292 167.26 55.6024 167.073 55.93C166.89 56.2521 166.635 56.5072 166.307 56.6951C165.98 56.8777 165.609 56.969 165.196 56.969ZM165.196 56.4616C165.502 56.4616 165.773 56.3944 166.009 56.2602C166.246 56.1206 166.431 55.9273 166.565 55.6803C166.705 55.4279 166.775 55.138 166.775 54.8104C166.775 54.4775 166.705 54.1875 166.565 53.9405C166.431 53.6935 166.246 53.5029 166.009 53.3687C165.773 53.2291 165.505 53.1593 165.204 53.1593C164.903 53.1593 164.635 53.2291 164.399 53.3687C164.162 53.5029 163.974 53.6935 163.835 53.9405C163.695 54.1875 163.625 54.4775 163.625 54.8104C163.625 55.138 163.695 55.4279 163.835 55.6803C163.974 55.9273 164.162 56.1206 164.399 56.2602C164.635 56.3944 164.901 56.4616 165.196 56.4616ZM170.681 52.6599C171.024 52.6599 171.325 52.727 171.583 52.8613C171.846 52.9901 172.05 53.1888 172.195 53.4573C172.345 53.7258 172.42 54.064 172.42 54.4721V56.9287H171.848V54.5285C171.848 54.0828 171.736 53.7472 171.51 53.5217C171.29 53.2908 170.979 53.1754 170.576 53.1754C170.275 53.1754 170.012 53.2371 169.786 53.3606C169.566 53.4788 169.395 53.6533 169.271 53.8842C169.153 54.1097 169.094 54.3835 169.094 54.7057V56.9287H168.522V52.7002H169.07V53.86L168.981 53.6425C169.115 53.3365 169.33 53.0975 169.625 52.9257C169.921 52.7485 170.272 52.6599 170.681 52.6599ZM175.761 56.969C175.321 56.969 174.934 56.8777 174.601 56.6951C174.268 56.5072 174.008 56.2521 173.82 55.93C173.632 55.6024 173.538 55.2292 173.538 54.8104C173.538 54.3916 173.627 54.0211 173.804 53.6989C173.986 53.3767 174.233 53.1244 174.545 52.9418C174.862 52.7539 175.216 52.6599 175.608 52.6599C176.005 52.6599 176.357 52.7512 176.663 52.9338C176.975 53.1109 177.219 53.3633 177.396 53.6909C177.573 54.013 177.662 54.3862 177.662 54.8104C177.662 54.8373 177.659 54.8668 177.654 54.899C177.654 54.9259 177.654 54.9554 177.654 54.9876H173.973V54.5607H177.348L177.122 54.7299C177.122 54.4238 177.055 54.1526 176.921 53.9164C176.792 53.6748 176.615 53.4868 176.389 53.3526C176.164 53.2183 175.903 53.1512 175.608 53.1512C175.318 53.1512 175.058 53.2183 174.827 53.3526C174.596 53.4868 174.416 53.6748 174.287 53.9164C174.158 54.158 174.094 54.4345 174.094 54.746V54.8346C174.094 55.1568 174.164 55.4413 174.303 55.6883C174.448 55.93 174.647 56.1206 174.899 56.2602C175.157 56.3944 175.45 56.4616 175.777 56.4616C176.035 56.4616 176.274 56.4159 176.494 56.3246C176.72 56.2334 176.913 56.0937 177.074 55.9058L177.396 56.2763C177.208 56.5018 176.972 56.6737 176.687 56.7918C176.408 56.9099 176.099 56.969 175.761 56.969ZM183.117 56.969C182.746 56.969 182.413 56.8858 182.118 56.7193C181.823 56.5475 181.589 56.3005 181.417 55.9783C181.245 55.6561 181.159 55.2668 181.159 54.8104C181.159 54.3486 181.245 53.9593 181.417 53.6425C181.594 53.3204 181.831 53.076 182.126 52.9096C182.421 52.7431 182.751 52.6599 183.117 52.6599C183.519 52.6599 183.879 52.7512 184.196 52.9338C184.518 53.1109 184.77 53.3606 184.953 53.6828C185.136 54.005 185.227 54.3809 185.227 54.8104C185.227 55.2346 185.136 55.6105 184.953 55.938C184.77 56.2602 184.518 56.5126 184.196 56.6951C183.879 56.8777 183.519 56.969 183.117 56.969ZM180.934 56.9287V50.9524H181.506V53.9486L181.425 54.8024L181.482 55.6561V56.9287H180.934ZM183.076 56.4616C183.377 56.4616 183.645 56.3944 183.882 56.2602C184.118 56.1206 184.306 55.9273 184.446 55.6803C184.585 55.4279 184.655 55.138 184.655 54.8104C184.655 54.4775 184.585 54.1875 184.446 53.9405C184.306 53.6935 184.118 53.5029 183.882 53.3687C183.645 53.2291 183.377 53.1593 183.076 53.1593C182.776 53.1593 182.504 53.2291 182.263 53.3687C182.027 53.5029 181.839 53.6935 181.699 53.9405C181.565 54.1875 181.498 54.4775 181.498 54.8104C181.498 55.138 181.565 55.4279 181.699 55.6803C181.839 55.9273 182.027 56.1206 182.263 56.2602C182.504 56.3944 182.776 56.4616 183.076 56.4616ZM186.307 58.5315C186.108 58.5315 185.917 58.4993 185.735 58.4349C185.558 58.3704 185.405 58.2738 185.276 58.1449L185.542 57.718C185.649 57.8201 185.764 57.8979 185.888 57.9516C186.017 58.0107 186.159 58.0402 186.315 58.0402C186.503 58.0402 186.664 57.9865 186.798 57.8791C186.938 57.7771 187.069 57.5945 187.193 57.3314L187.467 56.7112L187.531 56.6226L189.271 52.7002H189.835L187.716 57.4361C187.598 57.71 187.467 57.9275 187.322 58.0885C187.182 58.2496 187.029 58.3624 186.863 58.4268C186.696 58.4966 186.511 58.5315 186.307 58.5315ZM187.434 57.0495L185.485 52.7002H186.081L187.805 56.5824L187.434 57.0495ZM192.547 53.417L192.506 51.2907H193.014L192.973 53.417H192.547ZM193.924 53.417L193.884 51.2907H194.391L194.351 53.417H193.924ZM198.402 56.9287V55.9944L198.378 55.8414V54.2788C198.378 53.9191 198.276 53.6425 198.072 53.4492C197.874 53.2559 197.576 53.1593 197.178 53.1593C196.904 53.1593 196.644 53.2049 196.397 53.2962C196.15 53.3875 195.941 53.5083 195.769 53.6586L195.511 53.2318C195.726 53.0492 195.983 52.9096 196.284 52.8129C196.585 52.7109 196.902 52.6599 197.235 52.6599C197.782 52.6599 198.204 52.7968 198.499 53.0707C198.8 53.3392 198.95 53.7499 198.95 54.303V56.9287H198.402ZM196.945 56.969C196.628 56.969 196.351 56.918 196.115 56.816C195.884 56.7086 195.707 56.5636 195.583 56.381C195.46 56.1931 195.398 55.9783 195.398 55.7367C195.398 55.5165 195.449 55.3178 195.551 55.1406C195.659 54.9581 195.83 54.8131 196.067 54.7057C196.308 54.5929 196.631 54.5366 197.033 54.5366H198.491V54.9634H197.049C196.641 54.9634 196.357 55.0359 196.196 55.1809C196.04 55.3259 195.962 55.5058 195.962 55.7206C195.962 55.9622 196.056 56.1555 196.244 56.3005C196.432 56.4455 196.695 56.5179 197.033 56.5179C197.355 56.5179 197.632 56.4455 197.863 56.3005C198.099 56.1501 198.271 55.9353 198.378 55.6561L198.507 56.0508C198.4 56.33 198.212 56.5528 197.943 56.7193C197.68 56.8858 197.347 56.969 196.945 56.969ZM201.639 56.969C201.29 56.969 200.96 56.9207 200.648 56.824C200.337 56.722 200.093 56.5958 199.915 56.4455L200.173 55.9944C200.345 56.1233 200.565 56.236 200.834 56.3327C201.102 56.424 201.384 56.4696 201.679 56.4696C202.082 56.4696 202.372 56.4079 202.549 56.2844C202.726 56.1555 202.815 55.9864 202.815 55.7769C202.815 55.6212 202.764 55.5004 202.662 55.4145C202.565 55.3232 202.436 55.2561 202.275 55.2131C202.114 55.1648 201.934 55.1245 201.736 55.0923C201.537 55.0601 201.338 55.0225 201.14 54.9796C200.946 54.9366 200.769 54.8749 200.608 54.7943C200.447 54.7084 200.315 54.5929 200.213 54.448C200.117 54.303 200.068 54.1097 200.068 53.8681C200.068 53.6372 200.133 53.4304 200.262 53.2479C200.391 53.0653 200.579 52.923 200.826 52.821C201.078 52.7136 201.384 52.6599 201.744 52.6599C202.018 52.6599 202.291 52.6975 202.565 52.7727C202.839 52.8425 203.065 52.9364 203.242 53.0546L202.992 53.5137C202.804 53.3848 202.603 53.2935 202.388 53.2398C202.173 53.1808 201.959 53.1512 201.744 53.1512C201.363 53.1512 201.081 53.2183 200.898 53.3526C200.721 53.4814 200.632 53.6479 200.632 53.8519C200.632 54.013 200.681 54.1392 200.777 54.2305C200.879 54.3218 201.011 54.3943 201.172 54.448C201.338 54.4963 201.518 54.5366 201.712 54.5688C201.91 54.601 202.106 54.6413 202.3 54.6896C202.498 54.7326 202.678 54.7943 202.839 54.8749C203.006 54.95 203.137 55.0601 203.234 55.2051C203.336 55.3447 203.387 55.5299 203.387 55.7608C203.387 56.0078 203.317 56.2226 203.177 56.4052C203.043 56.5824 202.845 56.722 202.581 56.824C202.324 56.9207 202.01 56.969 201.639 56.969ZM205.572 56.969C205.223 56.969 204.893 56.9207 204.581 56.824C204.27 56.722 204.025 56.5958 203.848 56.4455L204.106 55.9944C204.278 56.1233 204.498 56.236 204.766 56.3327C205.035 56.424 205.317 56.4696 205.612 56.4696C206.015 56.4696 206.305 56.4079 206.482 56.2844C206.659 56.1555 206.748 55.9864 206.748 55.7769C206.748 55.6212 206.697 55.5004 206.595 55.4145C206.498 55.3232 206.369 55.2561 206.208 55.2131C206.047 55.1648 205.867 55.1245 205.668 55.0923C205.47 55.0601 205.271 55.0225 205.072 54.9796C204.879 54.9366 204.702 54.8749 204.541 54.7943C204.38 54.7084 204.248 54.5929 204.146 54.448C204.05 54.303 204.001 54.1097 204.001 53.8681C204.001 53.6372 204.066 53.4304 204.195 53.2479C204.323 53.0653 204.511 52.923 204.758 52.821C205.011 52.7136 205.317 52.6599 205.677 52.6599C205.95 52.6599 206.224 52.6975 206.498 52.7727C206.772 52.8425 206.997 52.9364 207.175 53.0546L206.925 53.5137C206.737 53.3848 206.536 53.2935 206.321 53.2398C206.106 53.1808 205.891 53.1512 205.677 53.1512C205.295 53.1512 205.013 53.2183 204.831 53.3526C204.654 53.4814 204.565 53.6479 204.565 53.8519C204.565 54.013 204.613 54.1392 204.71 54.2305C204.812 54.3218 204.944 54.3943 205.105 54.448C205.271 54.4963 205.451 54.5366 205.644 54.5688C205.843 54.601 206.039 54.6413 206.232 54.6896C206.431 54.7326 206.611 54.7943 206.772 54.8749C206.938 54.95 207.07 55.0601 207.167 55.2051C207.269 55.3447 207.32 55.5299 207.32 55.7608C207.32 56.0078 207.25 56.2226 207.11 56.4052C206.976 56.5824 206.777 56.722 206.514 56.824C206.256 56.9207 205.942 56.969 205.572 56.969ZM208.369 56.9287V52.7002H208.941V56.9287H208.369ZM208.659 51.7659C208.541 51.7659 208.441 51.7256 208.361 51.6451C208.28 51.5645 208.24 51.4679 208.24 51.3551C208.24 51.2423 208.28 51.1484 208.361 51.0732C208.441 50.9927 208.541 50.9524 208.659 50.9524C208.777 50.9524 208.876 50.99 208.957 51.0651C209.037 51.1403 209.078 51.2343 209.078 51.347C209.078 51.4652 209.037 51.5645 208.957 51.6451C208.882 51.7256 208.782 51.7659 208.659 51.7659ZM212.336 58.5315C211.95 58.5315 211.579 58.4751 211.225 58.3624C210.87 58.2496 210.583 58.0885 210.363 57.8791L210.653 57.4442C210.851 57.6214 211.096 57.761 211.386 57.863C211.681 57.9704 211.993 58.0241 212.32 58.0241C212.857 58.0241 213.252 57.8979 213.504 57.6455C213.756 57.3985 213.883 57.0119 213.883 56.4857V55.4306L213.963 54.7057L213.907 53.9808V52.7002H214.454V56.4132C214.454 57.1435 214.275 57.6778 213.915 58.016C213.56 58.3597 213.034 58.5315 212.336 58.5315ZM212.231 56.7676C211.829 56.7676 211.466 56.6817 211.144 56.5099C210.822 56.3327 210.567 56.0884 210.379 55.7769C210.196 55.4655 210.105 55.1084 210.105 54.7057C210.105 54.303 210.196 53.9486 210.379 53.6425C210.567 53.3311 210.822 53.0895 211.144 52.9176C211.466 52.7458 211.829 52.6599 212.231 52.6599C212.607 52.6599 212.946 52.7378 213.246 52.8935C213.547 53.0492 213.786 53.2801 213.963 53.5862C214.14 53.8922 214.229 54.2654 214.229 54.7057C214.229 55.146 214.14 55.5192 213.963 55.8253C213.786 56.1313 213.547 56.3649 213.246 56.526C212.946 56.6871 212.607 56.7676 212.231 56.7676ZM212.288 56.2602C212.599 56.2602 212.876 56.1958 213.117 56.0669C213.359 55.9327 213.55 55.7501 213.689 55.5192C213.829 55.2829 213.899 55.0118 213.899 54.7057C213.899 54.3996 213.829 54.1312 213.689 53.9003C213.55 53.6694 213.359 53.4895 213.117 53.3606C212.876 53.2264 212.599 53.1593 212.288 53.1593C211.982 53.1593 211.705 53.2264 211.458 53.3606C211.217 53.4895 211.026 53.6694 210.886 53.9003C210.752 54.1312 210.685 54.3996 210.685 54.7057C210.685 55.0118 210.752 55.2829 210.886 55.5192C211.026 55.7501 211.217 55.9327 211.458 56.0669C211.705 56.1958 211.982 56.2602 212.288 56.2602ZM218.204 52.6599C218.548 52.6599 218.849 52.727 219.106 52.8613C219.37 52.9901 219.574 53.1888 219.719 53.4573C219.869 53.7258 219.944 54.064 219.944 54.4721V56.9287H219.372V54.5285C219.372 54.0828 219.259 53.7472 219.034 53.5217C218.814 53.2908 218.502 53.1754 218.1 53.1754C217.799 53.1754 217.536 53.2371 217.31 53.3606C217.09 53.4788 216.918 53.6533 216.795 53.8842C216.677 54.1097 216.618 54.3835 216.618 54.7057V56.9287H216.046V52.7002H216.593V53.86L216.505 53.6425C216.639 53.3365 216.854 53.0975 217.149 52.9257C217.445 52.7485 217.796 52.6599 218.204 52.6599ZM223.285 56.969C222.845 56.969 222.458 56.8777 222.125 56.6951C221.792 56.5072 221.532 56.2521 221.344 55.93C221.156 55.6024 221.062 55.2292 221.062 54.8104C221.062 54.3916 221.15 54.0211 221.328 53.6989C221.51 53.3767 221.757 53.1244 222.069 52.9418C222.385 52.7539 222.74 52.6599 223.132 52.6599C223.529 52.6599 223.881 52.7512 224.187 52.9338C224.498 53.1109 224.743 53.3633 224.92 53.6909C225.097 54.013 225.186 54.3862 225.186 54.8104C225.186 54.8373 225.183 54.8668 225.178 54.899C225.178 54.9259 225.178 54.9554 225.178 54.9876H221.497V54.5607H224.872L224.646 54.7299C224.646 54.4238 224.579 54.1526 224.445 53.9164C224.316 53.6748 224.139 53.4868 223.913 53.3526C223.688 53.2183 223.427 53.1512 223.132 53.1512C222.842 53.1512 222.581 53.2183 222.351 53.3526C222.12 53.4868 221.94 53.6748 221.811 53.9164C221.682 54.158 221.618 54.4345 221.618 54.746V54.8346C221.618 55.1568 221.687 55.4413 221.827 55.6883C221.972 55.93 222.171 56.1206 222.423 56.2602C222.681 56.3944 222.973 56.4616 223.301 56.4616C223.559 56.4616 223.798 56.4159 224.018 56.3246C224.243 56.2334 224.437 56.0937 224.598 55.9058L224.92 56.2763C224.732 56.5018 224.496 56.6737 224.211 56.7918C223.932 56.9099 223.623 56.969 223.285 56.969ZM228.146 56.969C227.705 56.969 227.319 56.8777 226.986 56.6951C226.653 56.5072 226.393 56.2521 226.205 55.93C226.017 55.6024 225.923 55.2292 225.923 54.8104C225.923 54.3916 226.011 54.0211 226.189 53.6989C226.371 53.3767 226.618 53.1244 226.93 52.9418C227.246 52.7539 227.601 52.6599 227.993 52.6599C228.39 52.6599 228.742 52.7512 229.048 52.9338C229.359 53.1109 229.604 53.3633 229.781 53.6909C229.958 54.013 230.047 54.3862 230.047 54.8104C230.047 54.8373 230.044 54.8668 230.039 54.899C230.039 54.9259 230.039 54.9554 230.039 54.9876H226.358V54.5607H229.732L229.507 54.7299C229.507 54.4238 229.44 54.1526 229.306 53.9164C229.177 53.6748 229 53.4868 228.774 53.3526C228.548 53.2183 228.288 53.1512 227.993 53.1512C227.703 53.1512 227.442 53.2183 227.211 53.3526C226.981 53.4868 226.801 53.6748 226.672 53.9164C226.543 54.158 226.479 54.4345 226.479 54.746V54.8346C226.479 55.1568 226.548 55.4413 226.688 55.6883C226.833 55.93 227.032 56.1206 227.284 56.2602C227.542 56.3944 227.834 56.4616 228.162 56.4616C228.42 56.4616 228.659 56.4159 228.879 56.3246C229.104 56.2334 229.298 56.0937 229.459 55.9058L229.781 56.2763C229.593 56.5018 229.357 56.6737 229.072 56.7918C228.793 56.9099 228.484 56.969 228.146 56.969ZM232.346 56.969C231.997 56.969 231.667 56.9207 231.356 56.824C231.044 56.722 230.8 56.5958 230.623 56.4455L230.88 55.9944C231.052 56.1233 231.272 56.236 231.541 56.3327C231.809 56.424 232.091 56.4696 232.387 56.4696C232.789 56.4696 233.079 56.4079 233.256 56.2844C233.434 56.1555 233.522 55.9864 233.522 55.7769C233.522 55.6212 233.471 55.5004 233.369 55.4145C233.273 55.3232 233.144 55.2561 232.983 55.2131C232.821 55.1648 232.642 55.1245 232.443 55.0923C232.244 55.0601 232.046 55.0225 231.847 54.9796C231.654 54.9366 231.476 54.8749 231.315 54.7943C231.154 54.7084 231.023 54.5929 230.921 54.448C230.824 54.303 230.776 54.1097 230.776 53.8681C230.776 53.6372 230.84 53.4304 230.969 53.2479C231.098 53.0653 231.286 52.923 231.533 52.821C231.785 52.7136 232.091 52.6599 232.451 52.6599C232.725 52.6599 232.999 52.6975 233.273 52.7727C233.546 52.8425 233.772 52.9364 233.949 53.0546L233.699 53.5137C233.511 53.3848 233.31 53.2935 233.095 53.2398C232.881 53.1808 232.666 53.1512 232.451 53.1512C232.07 53.1512 231.788 53.2183 231.605 53.3526C231.428 53.4814 231.339 53.6479 231.339 53.8519C231.339 54.013 231.388 54.1392 231.484 54.2305C231.586 54.3218 231.718 54.3943 231.879 54.448C232.046 54.4963 232.225 54.5366 232.419 54.5688C232.617 54.601 232.813 54.6413 233.007 54.6896C233.205 54.7326 233.385 54.7943 233.546 54.8749C233.713 54.95 233.844 55.0601 233.941 55.2051C234.043 55.3447 234.094 55.5299 234.094 55.7608C234.094 56.0078 234.024 56.2226 233.885 56.4052C233.75 56.5824 233.552 56.722 233.289 56.824C233.031 56.9207 232.717 56.969 232.346 56.969ZM234.797 52.9176L235.151 51.4356L235.216 51.7739C235.092 51.7739 234.988 51.7363 234.902 51.6612C234.821 51.5806 234.781 51.4759 234.781 51.347C234.781 51.2182 234.821 51.1135 234.902 51.0329C234.988 50.9524 235.09 50.9121 235.208 50.9121C235.331 50.9121 235.431 50.9551 235.506 51.041C235.586 51.1215 235.627 51.2235 235.627 51.347C235.627 51.39 235.624 51.433 235.619 51.4759C235.613 51.5189 235.602 51.5672 235.586 51.6209C235.576 51.6692 235.557 51.731 235.53 51.8061L235.184 52.9176H234.797ZM25.3798 62.6599C25.7234 62.6599 26.0241 62.727 26.2819 62.8613C26.545 62.9901 26.749 63.1888 26.894 63.4573C27.0443 63.7258 27.1195 64.064 27.1195 64.4721V66.9287H26.5477V64.5285C26.5477 64.0828 26.4349 63.7472 26.2094 63.5217C25.9892 63.2908 25.6778 63.1754 25.2751 63.1754C24.9744 63.1754 24.7113 63.2371 24.4857 63.3606C24.2656 63.4788 24.0938 63.6533 23.9703 63.8842C23.8521 64.1097 23.7931 64.3835 23.7931 64.7057V66.9287H23.2212V62.7002H23.7689V63.86L23.6803 63.6425C23.8145 63.3365 24.0293 63.0975 24.3247 62.9257C24.62 62.7485 24.9717 62.6599 25.3798 62.6599ZM31.3141 66.9287V65.9944L31.2899 65.8414V64.2788C31.2899 63.9191 31.1879 63.6425 30.9838 63.4492C30.7852 63.2559 30.4872 63.1593 30.0898 63.1593C29.816 63.1593 29.5555 63.2049 29.3085 63.2962C29.0615 63.3875 28.8521 63.5083 28.6803 63.6586L28.4226 63.2318C28.6373 63.0492 28.8951 62.9096 29.1958 62.8129C29.4965 62.7109 29.8133 62.6599 30.1462 62.6599C30.6939 62.6599 31.1154 62.7968 31.4107 63.0707C31.7114 63.3392 31.8618 63.7499 31.8618 64.303V66.9287H31.3141ZM29.8562 66.969C29.5394 66.969 29.2629 66.918 29.0266 66.816C28.7957 66.7086 28.6185 66.5636 28.495 66.381C28.3715 66.1931 28.3098 65.9783 28.3098 65.7367C28.3098 65.5165 28.3608 65.3178 28.4628 65.1406C28.5702 64.9581 28.742 64.8131 28.9783 64.7057C29.2199 64.5929 29.5421 64.5366 29.9448 64.5366H31.4027V64.9634H29.9609C29.5528 64.9634 29.2683 65.0359 29.1072 65.1809C28.9515 65.3259 28.8736 65.5058 28.8736 65.7206C28.8736 65.9622 28.9676 66.1555 29.1555 66.3005C29.3434 66.4455 29.6065 66.5179 29.9448 66.5179C30.267 66.5179 30.5435 66.4455 30.7744 66.3005C31.0107 66.1501 31.1825 65.9353 31.2899 65.6561L31.4188 66.0508C31.3114 66.33 31.1234 66.5528 30.855 66.7193C30.5919 66.8858 30.2589 66.969 29.8562 66.969ZM38.6986 62.6599C39.0423 62.6599 39.3403 62.727 39.5927 62.8613C39.8504 62.9901 40.0491 63.1888 40.1887 63.4573C40.3337 63.7258 40.4062 64.064 40.4062 64.4721V66.9287H39.8343V64.5285C39.8343 64.0828 39.7269 63.7472 39.5121 63.5217C39.3027 63.2908 39.0047 63.1754 38.6181 63.1754C38.3281 63.1754 38.0758 63.2371 37.861 63.3606C37.6516 63.4788 37.4878 63.6533 37.3697 63.8842C37.2569 64.1097 37.2005 64.3835 37.2005 64.7057V66.9287H36.6287V64.5285C36.6287 64.0828 36.5213 63.7472 36.3065 63.5217C36.0917 63.2908 35.791 63.1754 35.4044 63.1754C35.1198 63.1754 34.8701 63.2371 34.6554 63.3606C34.4406 63.4788 34.2741 63.6533 34.156 63.8842C34.0432 64.1097 33.9869 64.3835 33.9869 64.7057V66.9287H33.415V62.7002H33.9627V63.8439L33.8741 63.6425C34.003 63.3365 34.2097 63.0975 34.4943 62.9257C34.7842 62.7485 35.1252 62.6599 35.5172 62.6599C35.9306 62.6599 36.2823 62.7646 36.5723 62.974C36.8623 63.1781 37.0502 63.4868 37.1361 63.9003L36.9106 63.8117C37.0341 63.468 37.2515 63.1915 37.563 62.9821C37.8798 62.7673 38.2583 62.6599 38.6986 62.6599ZM43.7531 66.969C43.3128 66.969 42.9262 66.8777 42.5933 66.6951C42.2604 66.5072 42 66.2521 41.812 65.93C41.6241 65.6024 41.5301 65.2292 41.5301 64.8104C41.5301 64.3916 41.6187 64.0211 41.7959 63.6989C41.9785 63.3767 42.2255 63.1244 42.5369 62.9418C42.8537 62.7539 43.2081 62.6599 43.6001 62.6599C43.9974 62.6599 44.3491 62.7512 44.6552 62.9338C44.9666 63.1109 45.211 63.3633 45.3882 63.6909C45.5654 64.013 45.654 64.3862 45.654 64.8104C45.654 64.8373 45.6513 64.8668 45.6459 64.899C45.6459 64.9259 45.6459 64.9554 45.6459 64.9876H41.9651V64.5607H45.3398L45.1143 64.7299C45.1143 64.4238 45.0472 64.1526 44.913 63.9164C44.7841 63.6748 44.6069 63.4868 44.3814 63.3526C44.1558 63.2183 43.8954 63.1512 43.6001 63.1512C43.3101 63.1512 43.0497 63.2183 42.8188 63.3526C42.5879 63.4868 42.408 63.6748 42.2792 63.9164C42.1503 64.158 42.0859 64.4345 42.0859 64.746V64.8346C42.0859 65.1568 42.1557 65.4413 42.2953 65.6883C42.4403 65.93 42.6389 66.1206 42.8913 66.2602C43.1491 66.3944 43.4417 66.4616 43.7692 66.4616C44.027 66.4616 44.2659 66.4159 44.4861 66.3246C44.7116 66.2334 44.9049 66.0937 45.066 65.9058L45.3882 66.2763C45.2002 66.5018 44.964 66.6737 44.6794 66.7918C44.4002 66.9099 44.0914 66.969 43.7531 66.969ZM46.4121 63.417L46.3718 61.2907H46.8792L46.8389 63.417H46.4121ZM47.7894 63.417L47.7491 61.2907H48.2565L48.2162 63.417H47.7894ZM54.3759 66.9287V65.9944L54.3518 65.8414V64.2788C54.3518 63.9191 54.2497 63.6425 54.0457 63.4492C53.847 63.2559 53.549 63.1593 53.1517 63.1593C52.8778 63.1593 52.6174 63.2049 52.3704 63.2962C52.1234 63.3875 51.914 63.5083 51.7422 63.6586L51.4844 63.2318C51.6992 63.0492 51.9569 62.9096 52.2576 62.8129C52.5583 62.7109 52.8751 62.6599 53.208 62.6599C53.7557 62.6599 54.1773 62.7968 54.4726 63.0707C54.7733 63.3392 54.9236 63.7499 54.9236 64.303V66.9287H54.3759ZM52.9181 66.969C52.6013 66.969 52.3248 66.918 52.0885 66.816C51.8576 66.7086 51.6804 66.5636 51.5569 66.381C51.4334 66.1931 51.3717 65.9783 51.3717 65.7367C51.3717 65.5165 51.4227 65.3178 51.5247 65.1406C51.6321 64.9581 51.8039 64.8131 52.0402 64.7057C52.2818 64.5929 52.604 64.5366 53.0067 64.5366H54.4645V64.9634H53.0228C52.6147 64.9634 52.3301 65.0359 52.169 65.1809C52.0133 65.3259 51.9355 65.5058 51.9355 65.7206C51.9355 65.9622 52.0294 66.1555 52.2174 66.3005C52.4053 66.4455 52.6684 66.5179 53.0067 66.5179C53.3289 66.5179 53.6054 66.4455 53.8363 66.3005C54.0725 66.1501 54.2444 65.9353 54.3518 65.6561L54.4806 66.0508C54.3732 66.33 54.1853 66.5528 53.9168 66.7193C53.6537 66.8858 53.3208 66.969 52.9181 66.969ZM58.6354 62.6599C58.9791 62.6599 59.2798 62.727 59.5375 62.8613C59.8006 62.9901 60.0047 63.1888 60.1496 63.4573C60.3 63.7258 60.3752 64.064 60.3752 64.4721V66.9287H59.8033V64.5285C59.8033 64.0828 59.6905 63.7472 59.465 63.5217C59.2449 63.2908 58.9334 63.1754 58.5307 63.1754C58.23 63.1754 57.9669 63.2371 57.7414 63.3606C57.5212 63.4788 57.3494 63.6533 57.2259 63.8842C57.1078 64.1097 57.0487 64.3835 57.0487 64.7057V66.9287H56.4769V62.7002H57.0246V63.86L56.936 63.6425C57.0702 63.3365 57.285 63.0975 57.5803 62.9257C57.8756 62.7485 58.2273 62.6599 58.6354 62.6599ZM63.6032 66.969C63.2005 66.969 62.838 66.8777 62.5159 66.6951C62.199 66.5126 61.9494 66.2602 61.7668 65.938C61.5842 65.6105 61.493 65.2346 61.493 64.8104C61.493 64.3809 61.5842 64.005 61.7668 63.6828C61.9494 63.3606 62.199 63.1109 62.5159 62.9338C62.838 62.7512 63.2005 62.6599 63.6032 62.6599C63.9737 62.6599 64.3039 62.7431 64.5939 62.9096C64.8892 63.076 65.1228 63.3204 65.2946 63.6425C65.4718 63.9593 65.5604 64.3486 65.5604 64.8104C65.5604 65.2668 65.4745 65.6561 65.3027 65.9783C65.1308 66.3005 64.8973 66.5475 64.6019 66.7193C64.312 66.8858 63.9791 66.969 63.6032 66.969ZM63.6435 66.4616C63.9442 66.4616 64.2126 66.3944 64.4489 66.2602C64.6905 66.1206 64.8785 65.9273 65.0127 65.6803C65.1523 65.4279 65.2221 65.138 65.2221 64.8104C65.2221 64.4775 65.1523 64.1875 65.0127 63.9405C64.8785 63.6935 64.6905 63.5029 64.4489 63.3687C64.2126 63.2291 63.9442 63.1593 63.6435 63.1593C63.3481 63.1593 63.0823 63.2291 62.8461 63.3687C62.6098 63.5029 62.4219 63.6935 62.2823 63.9405C62.1427 64.1875 62.0729 64.4775 62.0729 64.8104C62.0729 65.138 62.1427 65.4279 62.2823 65.6803C62.4219 65.9273 62.6098 66.1206 62.8461 66.2602C63.0823 66.3944 63.3481 66.4616 63.6435 66.4616ZM65.2382 66.9287V65.6561L65.2946 64.8024L65.2141 63.9486V60.9524H65.7859V66.9287H65.2382ZM69.4865 66.9287V62.7002H70.0342V63.8519L69.9778 63.6506C70.096 63.3284 70.2946 63.0841 70.5739 62.9176C70.8531 62.7458 71.1994 62.6599 71.6129 62.6599V63.2157C71.5914 63.2157 71.5699 63.2157 71.5484 63.2157C71.527 63.2103 71.5055 63.2076 71.484 63.2076C71.0383 63.2076 70.6893 63.3445 70.4369 63.6184C70.1846 63.8869 70.0584 64.2708 70.0584 64.7701V66.9287H69.4865ZM74.4131 66.969C73.9728 66.969 73.5862 66.8777 73.2533 66.6951C72.9204 66.5072 72.66 66.2521 72.472 65.93C72.2841 65.6024 72.1901 65.2292 72.1901 64.8104C72.1901 64.3916 72.2787 64.0211 72.4559 63.6989C72.6385 63.3767 72.8855 63.1244 73.1969 62.9418C73.5137 62.7539 73.8681 62.6599 74.2601 62.6599C74.6574 62.6599 75.0092 62.7512 75.3152 62.9338C75.6267 63.1109 75.871 63.3633 76.0482 63.6909C76.2254 64.013 76.314 64.3862 76.314 64.8104C76.314 64.8373 76.3113 64.8668 76.3059 64.899C76.3059 64.9259 76.3059 64.9554 76.3059 64.9876H72.6251V64.5607H75.9998L75.7743 64.7299C75.7743 64.4238 75.7072 64.1526 75.573 63.9164C75.4441 63.6748 75.2669 63.4868 75.0414 63.3526C74.8159 63.2183 74.5554 63.1512 74.2601 63.1512C73.9701 63.1512 73.7097 63.2183 73.4788 63.3526C73.2479 63.4868 73.0681 63.6748 72.9392 63.9164C72.8103 64.158 72.7459 64.4345 72.7459 64.746V64.8346C72.7459 65.1568 72.8157 65.4413 72.9553 65.6883C73.1003 65.93 73.2989 66.1206 73.5513 66.2602C73.8091 66.3944 74.1017 66.4616 74.4292 66.4616C74.687 66.4616 74.9259 66.4159 75.1461 66.3246C75.3716 66.2334 75.5649 66.0937 75.726 65.9058L76.0482 66.2763C75.8602 66.5018 75.624 66.6737 75.3394 66.7918C75.0602 66.9099 74.7514 66.969 74.4131 66.969ZM79.1613 66.969C78.7586 66.969 78.3961 66.8777 78.074 66.6951C77.7572 66.5126 77.5075 66.2602 77.3249 65.938C77.1423 65.6159 77.0511 65.24 77.0511 64.8104C77.0511 64.3862 77.1423 64.013 77.3249 63.6909C77.5075 63.3633 77.7572 63.1109 78.074 62.9338C78.3961 62.7512 78.7586 62.6599 79.1613 62.6599C79.5372 62.6599 79.8701 62.7431 80.16 62.9096C80.4554 63.076 80.6889 63.3204 80.8608 63.6425C81.0326 63.9593 81.1185 64.3486 81.1185 64.8104C81.1185 65.2722 81.0299 65.6642 80.8527 65.9864C80.6809 66.3032 80.4473 66.5475 80.152 66.7193C79.862 66.8858 79.5318 66.969 79.1613 66.969ZM79.2016 66.4616C79.5023 66.4616 79.7707 66.3944 80.007 66.2602C80.2486 66.1206 80.4366 65.9273 80.5708 65.6803C80.7104 65.4279 80.7802 65.138 80.7802 64.8104C80.7802 64.4829 80.7104 64.1956 80.5708 63.9486C80.4366 63.7016 80.2486 63.5083 80.007 63.3687C79.7707 63.2291 79.5023 63.1593 79.2016 63.1593C78.9062 63.1593 78.6404 63.2291 78.4042 63.3687C78.1679 63.5083 77.98 63.7016 77.8404 63.9486C77.7008 64.1956 77.631 64.4829 77.631 64.8104C77.631 65.138 77.7008 65.4279 77.8404 65.6803C77.98 65.9273 78.1679 66.1206 78.4042 66.2602C78.6404 66.3944 78.9062 66.4616 79.2016 66.4616ZM80.7722 68.4913V65.6722L80.8527 64.8185L80.7963 63.9728V62.7002H81.344V68.4913H80.7722ZM84.6844 66.969C84.3247 66.969 84.0106 66.9019 83.7421 66.7676C83.4736 66.6334 83.2642 66.432 83.1138 66.1635C82.9689 65.8951 82.8964 65.5595 82.8964 65.1568V62.7002H83.4682V65.0923C83.4682 65.5434 83.5783 65.8843 83.7985 66.1152C84.024 66.3407 84.3381 66.4535 84.7408 66.4535C85.0361 66.4535 85.2912 66.3944 85.506 66.2763C85.7261 66.1528 85.8926 65.9756 86.0054 65.7447C86.1235 65.5138 86.1825 65.2373 86.1825 64.9151V62.7002H86.7544V66.9287H86.2067V65.7689L86.2953 65.9783C86.1611 66.2897 85.9517 66.534 85.6671 66.7112C85.3879 66.8831 85.0603 66.969 84.6844 66.969ZM88.3482 66.9287V62.7002H88.92V66.9287H88.3482ZM88.6381 61.7659C88.52 61.7659 88.4207 61.7256 88.3401 61.6451C88.2596 61.5645 88.2193 61.4679 88.2193 61.3551C88.2193 61.2423 88.2596 61.1484 88.3401 61.0732C88.4207 60.9927 88.52 60.9524 88.6381 60.9524C88.7562 60.9524 88.8556 60.99 88.9361 61.0651C89.0167 61.1403 89.0569 61.2343 89.0569 61.347C89.0569 61.4652 89.0167 61.5645 88.9361 61.6451C88.861 61.7256 88.7616 61.7659 88.6381 61.7659ZM90.5112 66.9287V62.7002H91.0589V63.8519L91.0025 63.6506C91.1206 63.3284 91.3193 63.0841 91.5985 62.9176C91.8777 62.7458 92.2241 62.6599 92.6375 62.6599V63.2157C92.6161 63.2157 92.5946 63.2157 92.5731 63.2157C92.5516 63.2103 92.5302 63.2076 92.5087 63.2076C92.063 63.2076 91.714 63.3445 91.4616 63.6184C91.2092 63.8869 91.0831 64.2708 91.0831 64.7701V66.9287H90.5112ZM95.4378 66.969C94.9975 66.969 94.6109 66.8777 94.278 66.6951C93.9451 66.5072 93.6847 66.2521 93.4967 65.93C93.3088 65.6024 93.2148 65.2292 93.2148 64.8104C93.2148 64.3916 93.3034 64.0211 93.4806 63.6989C93.6632 63.3767 93.9102 63.1244 94.2216 62.9418C94.5384 62.7539 94.8928 62.6599 95.2848 62.6599C95.6821 62.6599 96.0338 62.7512 96.3399 62.9338C96.6513 63.1109 96.8957 63.3633 97.0728 63.6909C97.25 64.013 97.3386 64.3862 97.3386 64.8104C97.3386 64.8373 97.336 64.8668 97.3306 64.899C97.3306 64.9259 97.3306 64.9554 97.3306 64.9876H93.6497V64.5607H97.0245L96.799 64.7299C96.799 64.4238 96.7319 64.1526 96.5976 63.9164C96.4688 63.6748 96.2916 63.4868 96.0661 63.3526C95.8405 63.2183 95.5801 63.1512 95.2848 63.1512C94.9948 63.1512 94.7344 63.2183 94.5035 63.3526C94.2726 63.4868 94.0927 63.6748 93.9639 63.9164C93.835 64.158 93.7706 64.4345 93.7706 64.746V64.8346C93.7706 65.1568 93.8404 65.4413 93.98 65.6883C94.125 65.93 94.3236 66.1206 94.576 66.2602C94.8337 66.3944 95.1264 66.4616 95.4539 66.4616C95.7117 66.4616 95.9506 66.4159 96.1708 66.3246C96.3963 66.2334 96.5896 66.0937 96.7507 65.9058L97.0728 66.2763C96.8849 66.5018 96.6487 66.6737 96.3641 66.7918C96.0848 66.9099 95.7761 66.969 95.4378 66.969ZM99.6383 66.969C99.2893 66.969 98.959 66.9207 98.6476 66.824C98.3362 66.722 98.0918 66.5958 97.9147 66.4455L98.1724 65.9944C98.3442 66.1233 98.5644 66.236 98.8328 66.3327C99.1013 66.424 99.3832 66.4696 99.6786 66.4696C100.081 66.4696 100.371 66.4079 100.548 66.2844C100.726 66.1555 100.814 65.9864 100.814 65.7769C100.814 65.6212 100.763 65.5004 100.661 65.4145C100.565 65.3232 100.436 65.2561 100.275 65.2131C100.113 65.1648 99.9336 65.1245 99.7349 65.0923C99.5363 65.0601 99.3376 65.0225 99.1389 64.9796C98.9456 64.9366 98.7684 64.8749 98.6073 64.7943C98.4462 64.7084 98.3147 64.5929 98.2127 64.448C98.116 64.303 98.0677 64.1097 98.0677 63.8681C98.0677 63.6372 98.1321 63.4304 98.261 63.2479C98.3899 63.0653 98.5778 62.923 98.8248 62.821C99.0772 62.7136 99.3832 62.6599 99.743 62.6599C100.017 62.6599 100.291 62.6975 100.565 62.7727C100.838 62.8425 101.064 62.9364 101.241 63.0546L100.991 63.5137C100.803 63.3848 100.602 63.2935 100.387 63.2398C100.173 63.1808 99.9578 63.1512 99.743 63.1512C99.3617 63.1512 99.0798 63.2183 98.8973 63.3526C98.7201 63.4814 98.6315 63.6479 98.6315 63.8519C98.6315 64.013 98.6798 64.1392 98.7765 64.2305C98.8785 64.3218 99.01 64.3943 99.1711 64.448C99.3376 64.4963 99.5175 64.5366 99.7108 64.5688C99.9094 64.601 100.105 64.6413 100.299 64.6896C100.497 64.7326 100.677 64.7943 100.838 64.8749C101.005 64.95 101.136 65.0601 101.233 65.2051C101.335 65.3447 101.386 65.5299 101.386 65.7608C101.386 66.0078 101.316 66.2226 101.177 66.4052C101.042 66.5824 100.844 66.722 100.581 66.824C100.323 66.9207 100.009 66.969 99.6383 66.969ZM105.631 66.9287L103.754 62.7002H104.35L106.074 66.6226H105.792L107.54 62.7002H108.103L106.219 66.9287H105.631ZM110.587 66.969C110.147 66.969 109.76 66.8777 109.427 66.6951C109.094 66.5072 108.834 66.2521 108.646 65.93C108.458 65.6024 108.364 65.2292 108.364 64.8104C108.364 64.3916 108.453 64.0211 108.63 63.6989C108.812 63.3767 109.059 63.1244 109.371 62.9418C109.688 62.7539 110.042 62.6599 110.434 62.6599C110.831 62.6599 111.183 62.7512 111.489 62.9338C111.8 63.1109 112.045 63.3633 112.222 63.6909C112.399 64.013 112.488 64.3862 112.488 64.8104C112.488 64.8373 112.485 64.8668 112.48 64.899C112.48 64.9259 112.48 64.9554 112.48 64.9876H108.799V64.5607H112.174L111.948 64.7299C111.948 64.4238 111.881 64.1526 111.747 63.9164C111.618 63.6748 111.441 63.4868 111.215 63.3526C110.99 63.2183 110.729 63.1512 110.434 63.1512C110.144 63.1512 109.883 63.2183 109.653 63.3526C109.422 63.4868 109.242 63.6748 109.113 63.9164C108.984 64.158 108.92 64.4345 108.92 64.746V64.8346C108.92 65.1568 108.989 65.4413 109.129 65.6883C109.274 65.93 109.473 66.1206 109.725 66.2602C109.983 66.3944 110.275 66.4616 110.603 66.4616C110.861 66.4616 111.1 66.4159 111.32 66.3246C111.545 66.2334 111.739 66.0937 111.9 65.9058L112.222 66.2763C112.034 66.5018 111.798 66.6737 111.513 66.7918C111.234 66.9099 110.925 66.969 110.587 66.969ZM113.652 66.9287V62.7002H114.199V63.8519L114.143 63.6506C114.261 63.3284 114.46 63.0841 114.739 62.9176C115.018 62.7458 115.365 62.6599 115.778 62.6599V63.2157C115.757 63.2157 115.735 63.2157 115.714 63.2157C115.692 63.2103 115.671 63.2076 115.649 63.2076C115.204 63.2076 114.854 63.3445 114.602 63.6184C114.35 63.8869 114.224 64.2708 114.224 64.7701V66.9287H113.652ZM116.822 66.9287V62.7002H117.393V66.9287H116.822ZM117.111 61.7659C116.993 61.7659 116.894 61.7256 116.813 61.6451C116.733 61.5645 116.693 61.4679 116.693 61.3551C116.693 61.2423 116.733 61.1484 116.813 61.0732C116.894 60.9927 116.993 60.9524 117.111 60.9524C117.23 60.9524 117.329 60.99 117.41 61.0651C117.49 61.1403 117.53 61.2343 117.53 61.347C117.53 61.4652 117.49 61.5645 117.41 61.6451C117.334 61.7256 117.235 61.7659 117.111 61.7659ZM119.081 66.9287V62.1686C119.081 61.7927 119.191 61.4893 119.411 61.2584C119.632 61.0276 119.948 60.9121 120.362 60.9121C120.523 60.9121 120.679 60.9336 120.829 60.9765C120.979 61.0195 121.106 61.0866 121.208 61.1779L121.014 61.6048C120.934 61.535 120.84 61.484 120.732 61.4518C120.625 61.4142 120.51 61.3954 120.386 61.3954C120.144 61.3954 119.959 61.4625 119.83 61.5967C119.701 61.731 119.637 61.9296 119.637 62.1928V62.8371L119.653 63.1029V66.9287H119.081ZM118.324 63.1754V62.7002H120.942V63.1754H118.324ZM121.715 66.9287V62.7002H122.287V66.9287H121.715ZM122.005 61.7659C121.887 61.7659 121.787 61.7256 121.707 61.6451C121.626 61.5645 121.586 61.4679 121.586 61.3551C121.586 61.2423 121.626 61.1484 121.707 61.0732C121.787 60.9927 121.887 60.9524 122.005 60.9524C122.123 60.9524 122.222 60.99 122.303 61.0651C122.384 61.1403 122.424 61.2343 122.424 61.347C122.424 61.4652 122.384 61.5645 122.303 61.6451C122.228 61.7256 122.128 61.7659 122.005 61.7659ZM125.649 66.969C125.23 66.969 124.854 66.8777 124.521 66.6951C124.193 66.5072 123.936 66.2521 123.748 65.93C123.56 65.6024 123.466 65.2292 123.466 64.8104C123.466 64.3862 123.56 64.013 123.748 63.6909C123.936 63.3687 124.193 63.1163 124.521 62.9338C124.854 62.7512 125.23 62.6599 125.649 62.6599C126.008 62.6599 126.333 62.7297 126.623 62.8693C126.913 63.0089 127.141 63.2183 127.308 63.4976L126.881 63.7875C126.736 63.5727 126.556 63.4143 126.341 63.3123C126.126 63.2103 125.893 63.1593 125.64 63.1593C125.34 63.1593 125.069 63.2291 124.827 63.3687C124.585 63.5029 124.395 63.6935 124.255 63.9405C124.116 64.1875 124.046 64.4775 124.046 64.8104C124.046 65.1433 124.116 65.4333 124.255 65.6803C124.395 65.9273 124.585 66.1206 124.827 66.2602C125.069 66.3944 125.34 66.4616 125.64 66.4616C125.893 66.4616 126.126 66.4105 126.341 66.3085C126.556 66.2065 126.736 66.0508 126.881 65.8414L127.308 66.1313C127.141 66.4052 126.913 66.6146 126.623 66.7596C126.333 66.8992 126.008 66.969 125.649 66.969ZM131.081 66.9287V65.9944L131.057 65.8414V64.2788C131.057 63.9191 130.955 63.6425 130.751 63.4492C130.552 63.2559 130.254 63.1593 129.857 63.1593C129.583 63.1593 129.322 63.2049 129.075 63.2962C128.828 63.3875 128.619 63.5083 128.447 63.6586L128.19 63.2318C128.404 63.0492 128.662 62.9096 128.963 62.8129C129.263 62.7109 129.58 62.6599 129.913 62.6599C130.461 62.6599 130.882 62.7968 131.178 63.0707C131.478 63.3392 131.629 63.7499 131.629 64.303V66.9287H131.081ZM129.623 66.969C129.306 66.969 129.03 66.918 128.794 66.816C128.563 66.7086 128.385 66.5636 128.262 66.381C128.138 66.1931 128.077 65.9783 128.077 65.7367C128.077 65.5165 128.128 65.3178 128.23 65.1406C128.337 64.9581 128.509 64.8131 128.745 64.7057C128.987 64.5929 129.309 64.5366 129.712 64.5366H131.17V64.9634H129.728C129.32 64.9634 129.035 65.0359 128.874 65.1809C128.718 65.3259 128.641 65.5058 128.641 65.7206C128.641 65.9622 128.735 66.1555 128.922 66.3005C129.11 66.4455 129.373 66.5179 129.712 66.5179C130.034 66.5179 130.31 66.4455 130.541 66.3005C130.778 66.1501 130.949 65.9353 131.057 65.6561L131.186 66.0508C131.078 66.33 130.89 66.5528 130.622 66.7193C130.359 66.8858 130.026 66.969 129.623 66.969ZM134.519 66.969C134.122 66.969 133.816 66.8616 133.601 66.6468C133.386 66.432 133.279 66.1286 133.279 65.7367V61.7659H133.85V65.7044C133.85 65.9514 133.912 66.1421 134.036 66.2763C134.165 66.4105 134.347 66.4777 134.583 66.4777C134.836 66.4777 135.045 66.4052 135.212 66.2602L135.413 66.671C135.3 66.773 135.163 66.8482 135.002 66.8965C134.846 66.9448 134.685 66.969 134.519 66.969ZM132.521 63.1754V62.7002H135.139V63.1754H132.521ZM136.454 66.9287V62.7002H137.026V66.9287H136.454ZM136.744 61.7659C136.626 61.7659 136.527 61.7256 136.446 61.6451C136.365 61.5645 136.325 61.4679 136.325 61.3551C136.325 61.2423 136.365 61.1484 136.446 61.0732C136.527 60.9927 136.626 60.9524 136.744 60.9524C136.862 60.9524 136.961 60.99 137.042 61.0651C137.123 61.1403 137.163 61.2343 137.163 61.347C137.163 61.4652 137.123 61.5645 137.042 61.6451C136.967 61.7256 136.867 61.7659 136.744 61.7659ZM140.341 66.969C139.933 66.969 139.565 66.8777 139.237 66.6951C138.915 66.5072 138.66 66.2521 138.472 65.93C138.284 65.6024 138.19 65.2292 138.19 64.8104C138.19 64.3862 138.284 64.013 138.472 63.6909C138.66 63.3687 138.915 63.1163 139.237 62.9338C139.559 62.7512 139.927 62.6599 140.341 62.6599C140.76 62.6599 141.13 62.7512 141.452 62.9338C141.78 63.1163 142.035 63.3687 142.217 63.6909C142.405 64.013 142.499 64.3862 142.499 64.8104C142.499 65.2292 142.405 65.6024 142.217 65.93C142.035 66.2521 141.78 66.5072 141.452 66.6951C141.125 66.8777 140.754 66.969 140.341 66.969ZM140.341 66.4616C140.647 66.4616 140.918 66.3944 141.154 66.2602C141.39 66.1206 141.576 65.9273 141.71 65.6803C141.85 65.4279 141.919 65.138 141.919 64.8104C141.919 64.4775 141.85 64.1875 141.71 63.9405C141.576 63.6935 141.39 63.5029 141.154 63.3687C140.918 63.2291 140.649 63.1593 140.349 63.1593C140.048 63.1593 139.78 63.2291 139.543 63.3687C139.307 63.5029 139.119 63.6935 138.979 63.9405C138.84 64.1875 138.77 64.4775 138.77 64.8104C138.77 65.138 138.84 65.4279 138.979 65.6803C139.119 65.9273 139.307 66.1206 139.543 66.2602C139.78 66.3944 140.045 66.4616 140.341 66.4616ZM145.825 62.6599C146.169 62.6599 146.47 62.727 146.727 62.8613C146.991 62.9901 147.195 63.1888 147.34 63.4573C147.49 63.7258 147.565 64.064 147.565 64.4721V66.9287H146.993V64.5285C146.993 64.0828 146.88 63.7472 146.655 63.5217C146.435 63.2908 146.123 63.1754 145.721 63.1754C145.42 63.1754 145.157 63.2371 144.931 63.3606C144.711 63.4788 144.539 63.6533 144.416 63.8842C144.298 64.1097 144.239 64.3835 144.239 64.7057V66.9287H143.667V62.7002H144.214V63.86L144.126 63.6425C144.26 63.3365 144.475 63.0975 144.77 62.9257C145.066 62.7485 145.417 62.6599 145.825 62.6599ZM149.166 66.969C149.048 66.969 148.946 66.926 148.86 66.8401C148.779 66.7542 148.739 66.6495 148.739 66.526C148.739 66.3971 148.779 66.2924 148.86 66.2119C148.946 66.1313 149.048 66.0911 149.166 66.0911C149.284 66.0911 149.384 66.1313 149.464 66.2119C149.55 66.2924 149.593 66.3971 149.593 66.526C149.593 66.6495 149.55 66.7542 149.464 66.8401C149.384 66.926 149.284 66.969 149.166 66.969ZM150.873 66.969C150.755 66.969 150.653 66.926 150.567 66.8401C150.486 66.7542 150.446 66.6495 150.446 66.526C150.446 66.3971 150.486 66.2924 150.567 66.2119C150.653 66.1313 150.755 66.0911 150.873 66.0911C150.991 66.0911 151.09 66.1313 151.171 66.2119C151.257 66.2924 151.3 66.3971 151.3 66.526C151.3 66.6495 151.257 66.7542 151.171 66.8401C151.09 66.926 150.991 66.969 150.873 66.969ZM152.58 66.969C152.462 66.969 152.36 66.926 152.274 66.8401C152.193 66.7542 152.153 66.6495 152.153 66.526C152.153 66.3971 152.193 66.2924 152.274 66.2119C152.36 66.1313 152.462 66.0911 152.58 66.0911C152.698 66.0911 152.797 66.1313 152.878 66.2119C152.964 66.2924 153.007 66.3971 153.007 66.526C153.007 66.6495 152.964 66.7542 152.878 66.8401C152.797 66.926 152.698 66.969 152.58 66.969Z" fill="#525252"/>
<defs>
<filter id="filter0_d_66_644" x="0.945652" y="0.945652" width="263.109" height="100.679" filterUnits="userSpaceOnUse" color-interpolation-filters="sRGB">
<feFlood flood-opacity="0" result="BackgroundImageFix"/>
<feColorMatrix in="SourceAlpha" type="matrix" values="0 0 0 0 0 0 0 0 0 0 0 0 0 0 0 0 0 0 127 0" result="hardAlpha"/>
<feOffset/>
<feGaussianBlur stdDeviation="4.02717"/>
<feColorMatrix type="matrix" values="0 0 0 0 0 0 0 0 0 0 0 0 0 0 0 0 0 0 0.08 0"/>
<feBlend mode="normal" in2="BackgroundImageFix" result="effect1_dropShadow_66_644"/>
<feBlend mode="normal" in="SourceGraphic" in2="effect1_dropShadow_66_644" result="shape"/>
</filter>
</defs>
</svg>
