<svg width="100" height="80" viewBox="0 0 100 80" fill="none" xmlns="http://www.w3.org/2000/svg">
<g filter="url(#filter0_d_12_14413)">
<rect x="16" y="16" width="68" height="48" rx="8" fill="white"/>
</g>
<path opacity="0.5" fill-rule="evenodd" clip-rule="evenodd" d="M42 40C42 43.3137 44.6863 46 48 46H62C65.3137 46 68 43.3137 68 40C68 36.6863 65.3137 34 62 34H48C44.6863 34 42 36.6863 42 40Z" fill="#D1D1D1"/>
<g filter="url(#filter1_d_12_14413)">
<path fill-rule="evenodd" clip-rule="evenodd" d="M42 50C36.4772 50 32 45.5228 32 40C32 34.4772 36.4772 30 42 30C47.5228 30 52 34.4772 52 40C52 45.5228 47.5228 50 42 50Z" fill="#999999"/>
</g>
<defs>
<filter id="filter0_d_12_14413" x="0" y="0" width="100" height="80" filterUnits="userSpaceOnUse" color-interpolation-filters="sRGB">
<feFlood flood-opacity="0" result="BackgroundImageFix"/>
<feColorMatrix in="SourceAlpha" type="matrix" values="0 0 0 0 0 0 0 0 0 0 0 0 0 0 0 0 0 0 127 0" result="hardAlpha"/>
<feOffset/>
<feGaussianBlur stdDeviation="8"/>
<feColorMatrix type="matrix" values="0 0 0 0 0 0 0 0 0 0 0 0 0 0 0 0 0 0 0.06 0"/>
<feBlend mode="normal" in2="BackgroundImageFix" result="effect1_dropShadow_12_14413"/>
<feBlend mode="normal" in="SourceGraphic" in2="effect1_dropShadow_12_14413" result="shape"/>
</filter>
<filter id="filter1_d_12_14413" x="28" y="26" width="28" height="28" filterUnits="userSpaceOnUse" color-interpolation-filters="sRGB">
<feFlood flood-opacity="0" result="BackgroundImageFix"/>
<feColorMatrix in="SourceAlpha" type="matrix" values="0 0 0 0 0 0 0 0 0 0 0 0 0 0 0 0 0 0 127 0" result="hardAlpha"/>
<feOffset/>
<feGaussianBlur stdDeviation="2"/>
<feColorMatrix type="matrix" values="0 0 0 0 0 0 0 0 0 0 0 0 0 0 0 0 0 0 0.2 0"/>
<feBlend mode="normal" in2="BackgroundImageFix" result="effect1_dropShadow_12_14413"/>
<feBlend mode="normal" in="SourceGraphic" in2="effect1_dropShadow_12_14413" result="shape"/>
</filter>
</defs>
</svg>
