<svg width="100" height="80" viewBox="0 0 100 80" fill="none" xmlns="http://www.w3.org/2000/svg">
<g filter="url(#filter0_d_66_656)">
<rect x="16" y="16" width="68" height="48" rx="8" fill="white"/>
</g>
<path opacity="0.5" fill-rule="evenodd" clip-rule="evenodd" d="M32 40C32 43.3137 34.6863 46 38 46H52C55.3137 46 58 43.3137 58 40V40C58 36.6863 55.3137 34 52 34H38C34.6863 34 32 36.6863 32 40V40Z" fill="#397FFF"/>
<g filter="url(#filter1_d_66_656)">
<path fill-rule="evenodd" clip-rule="evenodd" d="M58 50C52.4772 50 48 45.5228 48 40C48 34.4772 52.4772 30 58 30C63.5228 30 68 34.4772 68 40C68 45.5228 63.5228 50 58 50Z" fill="#397FFF"/>
</g>
<defs>
<filter id="filter0_d_66_656" x="0" y="0" width="100" height="80" filterUnits="userSpaceOnUse" color-interpolation-filters="sRGB">
<feFlood flood-opacity="0" result="BackgroundImageFix"/>
<feColorMatrix in="SourceAlpha" type="matrix" values="0 0 0 0 0 0 0 0 0 0 0 0 0 0 0 0 0 0 127 0" result="hardAlpha"/>
<feOffset/>
<feGaussianBlur stdDeviation="8"/>
<feColorMatrix type="matrix" values="0 0 0 0 0 0 0 0 0 0 0 0 0 0 0 0 0 0 0.06 0"/>
<feBlend mode="normal" in2="BackgroundImageFix" result="effect1_dropShadow_66_656"/>
<feBlend mode="normal" in="SourceGraphic" in2="effect1_dropShadow_66_656" result="shape"/>
</filter>
<filter id="filter1_d_66_656" x="44" y="26" width="28" height="28" filterUnits="userSpaceOnUse" color-interpolation-filters="sRGB">
<feFlood flood-opacity="0" result="BackgroundImageFix"/>
<feColorMatrix in="SourceAlpha" type="matrix" values="0 0 0 0 0 0 0 0 0 0 0 0 0 0 0 0 0 0 127 0" result="hardAlpha"/>
<feOffset/>
<feGaussianBlur stdDeviation="2"/>
<feColorMatrix type="matrix" values="0 0 0 0 0 0 0 0 0 0 0 0 0 0 0 0 0 0 0.2 0"/>
<feBlend mode="normal" in2="BackgroundImageFix" result="effect1_dropShadow_66_656"/>
<feBlend mode="normal" in="SourceGraphic" in2="effect1_dropShadow_66_656" result="shape"/>
</filter>
</defs>
</svg>
