<svg width="193" height="282" viewBox="0 0 193 282" fill="none" xmlns="http://www.w3.org/2000/svg">
<g filter="url(#filter0_d_12_7065)">
<rect x="14" y="14" width="164.848" height="254" rx="6.72848" fill="white"/>
</g>
<path d="M35.6085 48.1855V37.5882H37.2284L43.8744 45.7482H43.0721V37.5882H45.025V48.1855H43.4051L36.7591 40.0256H37.5614V48.1855H35.6085ZM51.3164 48.2915C50.4887 48.2915 49.752 48.1149 49.106 47.7617C48.4601 47.3983 47.9504 46.9038 47.577 46.278C47.2036 45.6523 47.0169 44.9407 47.0169 44.1434C47.0169 43.336 47.2036 42.6245 47.577 42.0088C47.9504 41.3831 48.4601 40.8936 49.106 40.5403C49.752 40.1871 50.4887 40.0104 51.3164 40.0104C52.154 40.0104 52.8959 40.1871 53.5418 40.5403C54.1978 40.8936 54.7075 41.378 55.0708 41.9937C55.4443 42.6093 55.631 43.3259 55.631 44.1434C55.631 44.9407 55.4443 45.6523 55.0708 46.278C54.7075 46.9038 54.1978 47.3983 53.5418 47.7617C52.8959 48.1149 52.154 48.2915 51.3164 48.2915ZM51.3164 46.6716C51.7806 46.6716 52.1944 46.5707 52.5578 46.3689C52.9211 46.167 53.2037 45.8743 53.4055 45.4908C53.6175 45.1073 53.7235 44.6581 53.7235 44.1434C53.7235 43.6186 53.6175 43.1695 53.4055 42.796C53.2037 42.4125 52.9211 42.1198 52.5578 41.918C52.1944 41.7161 51.7857 41.6152 51.3315 41.6152C50.8672 41.6152 50.4534 41.7161 50.0901 41.918C49.7368 42.1198 49.4542 42.4125 49.2423 42.796C49.0304 43.1695 48.9244 43.6186 48.9244 44.1434C48.9244 44.6581 49.0304 45.1073 49.2423 45.4908C49.4542 45.8743 49.7368 46.167 50.0901 46.3689C50.4534 46.5707 50.8622 46.6716 51.3164 46.6716ZM61.8062 48.1855V37.5882H66.4387C67.5893 37.5882 68.5986 37.8102 69.4666 38.2543C70.3345 38.6984 71.0107 39.314 71.4952 40.1013C71.9796 40.8885 72.2219 41.817 72.2219 42.8869C72.2219 43.9466 71.9796 44.8751 71.4952 45.6725C71.0107 46.4597 70.3345 47.0753 69.4666 47.5194C68.5986 47.9635 67.5893 48.1855 66.4387 48.1855H61.8062ZM63.7743 46.5202H66.3479C67.1452 46.5202 67.8315 46.3689 68.4068 46.0661C68.9922 45.7633 69.4413 45.3394 69.7542 44.7944C70.0772 44.2494 70.2387 43.6135 70.2387 42.8869C70.2387 42.1501 70.0772 41.5143 69.7542 40.9793C69.4413 40.4343 68.9922 40.0104 68.4068 39.7077C67.8315 39.4049 67.1452 39.2535 66.3479 39.2535H63.7743V46.5202ZM77.9319 48.2915C77.0337 48.2915 76.2464 48.1149 75.5702 47.7617C74.9041 47.3983 74.3843 46.9038 74.0109 46.278C73.6475 45.6523 73.4659 44.9407 73.4659 44.1434C73.4659 43.336 73.6425 42.6245 73.9957 42.0088C74.3591 41.3831 74.8536 40.8936 75.4794 40.5403C76.1152 40.1871 76.8368 40.0104 77.6443 40.0104C78.4315 40.0104 79.1329 40.182 79.7486 40.5252C80.3643 40.8683 80.8487 41.3528 81.2019 41.9785C81.5552 42.6043 81.7318 43.341 81.7318 44.1888C81.7318 44.2696 81.7268 44.3604 81.7167 44.4613C81.7167 44.5623 81.7116 44.6581 81.7015 44.749H74.9646V43.4924H80.7024L79.9605 43.886C79.9706 43.4218 79.8748 43.013 79.6729 42.6598C79.471 42.3065 79.1935 42.029 78.8403 41.8271C78.4971 41.6253 78.0984 41.5244 77.6443 41.5244C77.18 41.5244 76.7712 41.6253 76.418 41.8271C76.0748 42.029 75.8023 42.3116 75.6005 42.6749C75.4087 43.0282 75.3128 43.447 75.3128 43.9315V44.2342C75.3128 44.7187 75.4239 45.1476 75.6459 45.5211C75.8679 45.8945 76.1808 46.1821 76.5845 46.384C76.9882 46.5859 77.4525 46.6868 77.9773 46.6868C78.4315 46.6868 78.8403 46.6161 79.2036 46.4748C79.5669 46.3335 79.8899 46.1115 80.1725 45.8087L81.1868 46.9744C80.8235 47.3983 80.3643 47.7263 79.8092 47.9585C79.2641 48.1805 78.6384 48.2915 77.9319 48.2915ZM88.3086 48.1855V46.5505L88.2026 46.2023V43.341C88.2026 42.7859 88.0361 42.357 87.703 42.0542C87.3699 41.7413 86.8653 41.5849 86.1891 41.5849C85.7349 41.5849 85.2858 41.6556 84.8417 41.7969C84.4077 41.9382 84.0393 42.135 83.7366 42.3873L82.9947 41.0096C83.4287 40.6766 83.9435 40.4293 84.5389 40.2678C85.1445 40.0962 85.7702 40.0104 86.4162 40.0104C87.5869 40.0104 88.4902 40.293 89.1261 40.8582C89.772 41.4133 90.095 42.2763 90.095 43.447V48.1855H88.3086ZM85.7652 48.2915C85.1596 48.2915 84.6298 48.1906 84.1756 47.9887C83.7214 47.7768 83.3682 47.4891 83.1159 47.1258C82.8736 46.7524 82.7525 46.3335 82.7525 45.8693C82.7525 45.4151 82.8585 45.0063 83.0704 44.643C83.2925 44.2797 83.6508 43.992 84.1453 43.7801C84.6399 43.5681 85.2959 43.4622 86.1134 43.4622H88.4599V44.7187H86.2496C85.6037 44.7187 85.1697 44.8247 84.9477 45.0366C84.7256 45.2385 84.6146 45.4908 84.6146 45.7936C84.6146 46.1367 84.7509 46.4092 85.0234 46.6111C85.2959 46.8129 85.6744 46.9139 86.1588 46.9139C86.6231 46.9139 87.0369 46.8079 87.4002 46.5959C87.7736 46.384 88.0411 46.0711 88.2026 45.6573L88.5205 46.7928C88.3388 47.2671 88.0108 47.6355 87.5365 47.8979C87.0722 48.1603 86.4818 48.2915 85.7652 48.2915ZM92.5236 48.1855V36.9524H94.416V48.1855H92.5236ZM99.3977 48.2915C98.7215 48.2915 98.0705 48.2057 97.4448 48.0342C96.8291 47.8525 96.3396 47.6355 95.9763 47.3832L96.7029 45.945C97.0663 46.1771 97.5003 46.3689 98.0049 46.5202C98.5095 46.6716 99.0142 46.7473 99.5188 46.7473C100.114 46.7473 100.543 46.6666 100.806 46.5051C101.078 46.3436 101.214 46.1266 101.214 45.8541C101.214 45.6321 101.124 45.4656 100.942 45.3545C100.76 45.2334 100.523 45.1426 100.23 45.082C99.9377 45.0215 99.6096 44.966 99.2463 44.9155C98.8931 44.865 98.5348 44.7994 98.1714 44.7187C97.8182 44.6279 97.4952 44.5017 97.2025 44.3402C96.9098 44.1686 96.6727 43.9416 96.491 43.659C96.3093 43.3764 96.2185 43.0029 96.2185 42.5387C96.2185 42.0239 96.3648 41.5799 96.6575 41.2064C96.9502 40.8229 97.359 40.5302 97.8838 40.3284C98.4187 40.1164 99.0495 40.0104 99.7762 40.0104C100.321 40.0104 100.871 40.071 101.426 40.1921C101.981 40.3132 102.441 40.4848 102.804 40.7068L102.077 42.1451C101.694 41.9129 101.305 41.7565 100.912 41.6757C100.528 41.5849 100.145 41.5395 99.761 41.5395C99.1857 41.5395 98.7568 41.6253 98.4742 41.7969C98.2017 41.9684 98.0655 42.1854 98.0655 42.4478C98.0655 42.6901 98.1563 42.8717 98.338 42.9928C98.5196 43.114 98.7568 43.2098 99.0495 43.2805C99.3422 43.3511 99.6651 43.4117 100.018 43.4622C100.382 43.5025 100.74 43.5681 101.093 43.659C101.447 43.7498 101.769 43.876 102.062 44.0374C102.365 44.1888 102.607 44.4058 102.789 44.6884C102.971 44.971 103.061 45.3394 103.061 45.7936C103.061 46.2982 102.91 46.7372 102.607 47.1107C102.314 47.4841 101.896 47.7768 101.351 47.9887C100.806 48.1906 100.155 48.2915 99.3977 48.2915Z" fill="#525252"/>
<path d="M111.512 48.0732V42.1858H112.412L114.986 46.4836H114.515L117.047 42.1858H117.947L117.955 48.0732H116.92L116.912 43.8091H117.131L114.978 47.4004H114.49L112.303 43.8091H112.555V48.0732H111.512ZM121.463 48.1321C121.003 48.1321 120.594 48.034 120.235 47.8377C119.876 47.6359 119.593 47.3611 119.385 47.0135C119.178 46.6659 119.074 46.2706 119.074 45.8276C119.074 45.379 119.178 44.9837 119.385 44.6417C119.593 44.2941 119.876 44.0221 120.235 43.8259C120.594 43.6296 121.003 43.5315 121.463 43.5315C121.928 43.5315 122.34 43.6296 122.699 43.8259C123.064 44.0221 123.347 44.2913 123.549 44.6333C123.756 44.9753 123.86 45.3734 123.86 45.8276C123.86 46.2706 123.756 46.6659 123.549 47.0135C123.347 47.3611 123.064 47.6359 122.699 47.8377C122.34 48.034 121.928 48.1321 121.463 48.1321ZM121.463 47.2322C121.721 47.2322 121.951 47.1761 122.153 47.064C122.354 46.9518 122.511 46.7892 122.624 46.5762C122.741 46.3631 122.8 46.1136 122.8 45.8276C122.8 45.536 122.741 45.2865 122.624 45.0791C122.511 44.866 122.354 44.7034 122.153 44.5913C121.951 44.4791 121.724 44.423 121.471 44.423C121.213 44.423 120.983 44.4791 120.782 44.5913C120.585 44.7034 120.428 44.866 120.311 45.0791C120.193 45.2865 120.134 45.536 120.134 45.8276C120.134 46.1136 120.193 46.3631 120.311 46.5762C120.428 46.7892 120.585 46.9518 120.782 47.064C120.983 47.1761 121.211 47.2322 121.463 47.2322ZM127.414 43.5315C127.772 43.5315 128.092 43.6016 128.372 43.7418C128.658 43.882 128.883 44.0978 129.045 44.3894C129.208 44.6754 129.289 45.0454 129.289 45.4996V48.0732H128.238V45.6342C128.238 45.2361 128.143 44.9389 127.952 44.7426C127.767 44.5464 127.506 44.4483 127.17 44.4483C126.923 44.4483 126.704 44.4987 126.514 44.5997C126.323 44.7006 126.174 44.852 126.068 45.0538C125.967 45.2501 125.917 45.4996 125.917 45.8024V48.0732H124.865V43.582H125.866V44.7931L125.689 44.423C125.846 44.1371 126.074 43.9184 126.371 43.767C126.673 43.61 127.021 43.5315 127.414 43.5315ZM132.313 48.1321C131.82 48.1321 131.439 48.006 131.17 47.7536C130.9 47.4957 130.766 47.1172 130.766 46.6182V42.5895H131.817V46.593C131.817 46.806 131.87 46.9715 131.977 47.0892C132.089 47.207 132.243 47.2658 132.44 47.2658C132.675 47.2658 132.871 47.2041 133.028 47.0808L133.323 47.8293C133.199 47.9303 133.048 48.006 132.868 48.0564C132.689 48.1069 132.504 48.1321 132.313 48.1321ZM130.026 44.4567V43.6156H133.02V44.4567H130.026ZM136.736 43.5315C137.095 43.5315 137.414 43.6016 137.695 43.7418C137.981 43.882 138.205 44.0978 138.368 44.3894C138.53 44.6754 138.611 45.0454 138.611 45.4996V48.0732H137.56V45.6342C137.56 45.2361 137.465 44.9389 137.274 44.7426C137.089 44.5464 136.828 44.4483 136.492 44.4483C136.245 44.4483 136.027 44.4987 135.836 44.5997C135.645 44.7006 135.497 44.852 135.39 45.0538C135.289 45.2501 135.239 45.4996 135.239 45.8024V48.0732H134.187V41.8326H135.239V44.7931L135.012 44.423C135.169 44.1371 135.396 43.9184 135.693 43.767C135.996 43.61 136.343 43.5315 136.736 43.5315ZM139.945 48.0732V41.8326H140.996V48.0732H139.945ZM142.746 49.7638C142.528 49.7638 142.309 49.7273 142.09 49.6544C141.872 49.5815 141.689 49.4806 141.544 49.3517L141.964 48.5779C142.071 48.6732 142.191 48.7489 142.326 48.805C142.46 48.861 142.598 48.8891 142.738 48.8891C142.929 48.8891 143.083 48.8414 143.201 48.7461C143.318 48.6508 143.428 48.491 143.529 48.2667L143.789 47.6779L143.873 47.5518L145.572 43.582H146.582L144.479 48.4349C144.339 48.7713 144.182 49.0377 144.008 49.2339C143.84 49.4302 143.649 49.5675 143.436 49.646C143.229 49.7245 142.999 49.7638 142.746 49.7638ZM143.672 48.233L141.645 43.582H142.738L144.386 47.4593L143.672 48.233Z" fill="#82878E"/>
<defs>
<filter id="filter0_d_12_7065" x="0.543046" y="0.543046" width="191.762" height="280.914" filterUnits="userSpaceOnUse" color-interpolation-filters="sRGB">
<feFlood flood-opacity="0" result="BackgroundImageFix"/>
<feColorMatrix in="SourceAlpha" type="matrix" values="0 0 0 0 0 0 0 0 0 0 0 0 0 0 0 0 0 0 127 0" result="hardAlpha"/>
<feOffset/>
<feGaussianBlur stdDeviation="6.72848"/>
<feColorMatrix type="matrix" values="0 0 0 0 0 0 0 0 0 0 0 0 0 0 0 0 0 0 0.06 0"/>
<feBlend mode="normal" in2="BackgroundImageFix" result="effect1_dropShadow_12_7065"/>
<feBlend mode="normal" in="SourceGraphic" in2="effect1_dropShadow_12_7065" result="shape"/>
</filter>
</defs>
</svg>
