<svg width="125" height="125" viewBox="0 0 125 125" fill="none" xmlns="http://www.w3.org/2000/svg">
<path d="M119.498 62.2384C122.248 62.2384 124.498 64.4712 124.278 67.2123C123.628 75.3128 121.397 83.2247 117.693 90.4941C113.234 99.2454 106.767 106.817 98.8212 112.59C90.8752 118.363 81.6756 122.174 71.9746 123.711C62.2737 125.247 52.3468 124.466 43.0057 121.431C33.6645 118.396 25.1743 113.193 18.2292 106.248C11.2841 99.3025 6.08129 90.8123 3.04616 81.4711C0.0110395 72.13 -0.770221 62.2031 0.766259 52.5022C2.04255 44.444 4.88797 36.7317 9.12395 29.7965C10.5573 27.4498 13.6899 26.9659 15.9146 28.5822C18.1393 30.1985 18.6097 33.3019 17.2122 35.6702C13.88 41.3174 11.6322 47.5545 10.6018 54.06C9.31116 62.2088 9.96742 70.5473 12.5169 78.3939C15.0664 86.2405 19.4368 93.3722 25.2707 99.2061C31.1046 105.04 38.2364 109.41 46.0829 111.96C53.9295 114.509 62.2681 115.166 70.4168 113.875C78.5656 112.584 86.2933 109.383 92.968 104.534C99.6427 99.6846 105.075 93.3243 108.82 85.9732C111.811 80.1045 113.658 73.7373 114.282 67.2101C114.543 64.4726 116.748 62.2384 119.498 62.2384Z" fill="#FABF00"/>
<path d="M119.498 62.2384C122.248 62.2384 124.498 64.4712 124.278 67.2123C123.628 75.3128 121.397 83.2247 117.693 90.4941C113.234 99.2454 106.767 106.817 98.8212 112.59C90.8752 118.363 81.6756 122.174 71.9746 123.711C62.2737 125.247 52.3468 124.466 43.0057 121.431C33.6645 118.396 25.1743 113.193 18.2292 106.248C11.2841 99.3025 6.08129 90.8123 3.04616 81.4711C0.0110395 72.13 -0.770221 62.2031 0.766259 52.5022C2.04255 44.444 4.88797 36.7317 9.12395 29.7965C10.5573 27.4498 13.6899 26.9659 15.9146 28.5822C18.1393 30.1985 18.6097 33.3019 17.2122 35.6702C13.88 41.3174 11.6322 47.5545 10.6018 54.06C9.31116 62.2088 9.96742 70.5473 12.5169 78.3939C15.0664 86.2405 19.4368 93.3722 25.2707 99.2061C31.1046 105.04 38.2364 109.41 46.0829 111.96C53.9295 114.509 62.2681 115.166 70.4168 113.875C78.5656 112.584 86.2933 109.383 92.968 104.534C99.6427 99.6846 105.075 93.3243 108.82 85.9732C111.811 80.1045 113.658 73.7373 114.282 67.2101C114.543 64.4726 116.748 62.2384 119.498 62.2384Z" fill="white" fill-opacity="0.6"/>
<path d="M21.7499 21.7499C19.8055 19.8055 19.7934 16.6357 21.8871 14.8529C29.3237 8.5201 38.1661 4.01074 47.7091 1.71965C58.8702 -0.95987 70.5548 -0.50078 81.4711 3.04616C92.3875 6.59311 102.11 13.0897 109.565 21.8178C115.939 29.2806 120.442 38.1262 122.736 47.6206C123.382 50.2936 121.509 52.8509 118.793 53.2811C116.077 53.7113 113.55 51.8493 112.863 49.1866C110.883 41.5042 107.173 34.3509 101.993 28.2851C95.7309 20.9535 87.5637 15.4964 78.3939 12.5169C69.2242 9.53749 59.4091 9.15186 50.0338 11.4027C42.2772 13.2649 35.0716 16.8717 28.9537 21.9227C26.8332 23.6734 23.6944 23.6944 21.7499 21.7499Z" fill="#FABF00"/>
</svg>
