<svg width="171" height="68" viewBox="0 0 171 68" fill="none" xmlns="http://www.w3.org/2000/svg">
<g filter="url(#filter0_d_12_10704)">
<rect x="14" y="14" width="142.98" height="40.3709" rx="6.72848" fill="white"/>
</g>
<path d="M45.4288 37.457V30.3921H46.0444L50.9192 36.5285H50.5962V30.3921H51.333V37.457H50.7174L45.8527 31.3207H46.1756V37.457H45.4288ZM55.7382 37.5075C55.1865 37.5075 54.7021 37.3931 54.2849 37.1643C53.8677 36.9288 53.5414 36.6092 53.3059 36.2055C53.0704 35.7951 52.9527 35.3275 52.9527 34.8026C52.9527 34.2778 53.0637 33.8136 53.2857 33.4099C53.5145 33.0061 53.824 32.6899 54.2142 32.4611C54.6112 32.2256 55.0553 32.1079 55.5465 32.1079C56.0444 32.1079 56.4851 32.2223 56.8686 32.451C57.2589 32.6731 57.565 32.9893 57.7871 33.3998C58.0091 33.8035 58.1201 34.2711 58.1201 34.8026C58.1201 34.8363 58.1168 34.8733 58.11 34.9137C58.11 34.9473 58.11 34.9843 58.11 35.0247H53.4977V34.4898H57.7265L57.4439 34.7017C57.4439 34.3182 57.3598 33.9784 57.1916 33.6824C57.0301 33.3796 56.8081 33.1441 56.5255 32.9759C56.2429 32.8077 55.9165 32.7235 55.5465 32.7235C55.1831 32.7235 54.8568 32.8077 54.5675 32.9759C54.2782 33.1441 54.0528 33.3796 53.8913 33.6824C53.7298 33.9851 53.649 34.3317 53.649 34.7219V34.8329C53.649 35.2366 53.7365 35.5932 53.9115 35.9028C54.0931 36.2055 54.3421 36.4444 54.6583 36.6193C54.9813 36.7875 55.348 36.8717 55.7584 36.8717C56.0814 36.8717 56.3808 36.8145 56.6567 36.7001C56.9393 36.5857 57.1815 36.4108 57.3834 36.1753L57.7871 36.6395C57.5516 36.9221 57.2555 37.1374 56.8989 37.2855C56.549 37.4335 56.1621 37.5075 55.7382 37.5075ZM60.56 37.457L58.5617 32.1584H59.248L61.0647 37.0735H60.7518L62.6189 32.1584H63.2346L65.0816 37.0735H64.7687L66.6157 32.1584H67.2717L65.2632 37.457H64.587L62.8107 32.8346H63.0227L61.2362 37.457H60.56Z" fill="#525252"/>
<circle cx="32.5034" cy="34.186" r="5.04636" fill="#FABF00"/>
<path d="M100.939 37.457V30.3921H103.583C104.182 30.3921 104.696 30.4897 105.127 30.6848C105.558 30.8732 105.887 31.1491 106.116 31.5124C106.352 31.869 106.469 32.303 106.469 32.8144C106.469 33.3123 106.352 33.7429 106.116 34.1062C105.887 34.4629 105.558 34.7387 105.127 34.9339C104.696 35.1222 104.182 35.2164 103.583 35.2164H101.352L101.685 34.8733V37.457H100.939ZM105.763 37.457L103.946 34.8935H104.754L106.58 37.457H105.763ZM101.685 34.9339L101.352 34.5806H103.563C104.269 34.5806 104.804 34.4259 105.167 34.1163C105.537 33.8068 105.722 33.3728 105.722 32.8144C105.722 32.2492 105.537 31.8118 105.167 31.5023C104.804 31.1928 104.269 31.0381 103.563 31.0381H101.352L101.685 30.6848V34.9339ZM110.331 37.5075C109.78 37.5075 109.295 37.3931 108.878 37.1643C108.461 36.9288 108.135 36.6092 107.899 36.2055C107.664 35.7951 107.546 35.3275 107.546 34.8026C107.546 34.2778 107.657 33.8136 107.879 33.4099C108.108 33.0061 108.417 32.6899 108.807 32.4611C109.204 32.2256 109.648 32.1079 110.14 32.1079C110.638 32.1079 111.078 32.2223 111.462 32.451C111.852 32.6731 112.158 32.9893 112.38 33.3998C112.602 33.8035 112.713 34.2711 112.713 34.8026C112.713 34.8363 112.71 34.8733 112.703 34.9137C112.703 34.9473 112.703 34.9843 112.703 35.0247H108.091V34.4898H112.32L112.037 34.7017C112.037 34.3182 111.953 33.9784 111.785 33.6824C111.623 33.3796 111.401 33.1441 111.119 32.9759C110.836 32.8077 110.51 32.7235 110.14 32.7235C109.776 32.7235 109.45 32.8077 109.161 32.9759C108.871 33.1441 108.646 33.3796 108.484 33.6824C108.323 33.9851 108.242 34.3317 108.242 34.7219V34.8329C108.242 35.2366 108.33 35.5932 108.505 35.9028C108.686 36.2055 108.935 36.4444 109.251 36.6193C109.574 36.7875 109.941 36.8717 110.352 36.8717C110.675 36.8717 110.974 36.8145 111.25 36.7001C111.532 36.5857 111.775 36.4108 111.976 36.1753L112.38 36.6395C112.145 36.9221 111.849 37.1374 111.492 37.2855C111.142 37.4335 110.755 37.5075 110.331 37.5075ZM116.877 32.1079C117.307 32.1079 117.684 32.192 118.007 32.3602C118.337 32.5217 118.592 32.7706 118.774 33.1071C118.962 33.4435 119.057 33.8674 119.057 34.3788V37.457H118.34V34.4494C118.34 33.8909 118.199 33.4704 117.916 33.1878C117.64 32.8985 117.25 32.7538 116.745 32.7538C116.369 32.7538 116.039 32.8312 115.756 32.986C115.481 33.134 115.265 33.3527 115.11 33.642C114.962 33.9246 114.888 34.2677 114.888 34.6714V37.457H114.172V32.1584H114.858V33.6117L114.747 33.3392C114.915 32.9557 115.184 32.6563 115.555 32.441C115.925 32.2189 116.365 32.1079 116.877 32.1079ZM123.243 37.5075C122.691 37.5075 122.207 37.3931 121.79 37.1643C121.372 36.9288 121.046 36.6092 120.811 36.2055C120.575 35.7951 120.457 35.3275 120.457 34.8026C120.457 34.2778 120.568 33.8136 120.79 33.4099C121.019 33.0061 121.329 32.6899 121.719 32.4611C122.116 32.2256 122.56 32.1079 123.051 32.1079C123.549 32.1079 123.99 32.2223 124.373 32.451C124.764 32.6731 125.07 32.9893 125.292 33.3998C125.514 33.8035 125.625 34.2711 125.625 34.8026C125.625 34.8363 125.621 34.8733 125.615 34.9137C125.615 34.9473 125.615 34.9843 125.615 35.0247H121.002V34.4898H125.231L124.949 34.7017C124.949 34.3182 124.865 33.9784 124.696 33.6824C124.535 33.3796 124.313 33.1441 124.03 32.9759C123.748 32.8077 123.421 32.7235 123.051 32.7235C122.688 32.7235 122.362 32.8077 122.072 32.9759C121.783 33.1441 121.557 33.3796 121.396 33.6824C121.235 33.9851 121.154 34.3317 121.154 34.7219V34.8329C121.154 35.2366 121.241 35.5932 121.416 35.9028C121.598 36.2055 121.847 36.4444 122.163 36.6193C122.486 36.7875 122.853 36.8717 123.263 36.8717C123.586 36.8717 123.886 36.8145 124.161 36.7001C124.444 36.5857 124.686 36.4108 124.888 36.1753L125.292 36.6395C125.056 36.9221 124.76 37.1374 124.404 37.2855C124.054 37.4335 123.667 37.5075 123.243 37.5075ZM128.065 37.457L126.066 32.1584H126.753L128.569 37.0735H128.257L130.124 32.1584H130.739L132.586 37.0735H132.273L134.12 32.1584H134.776L132.768 37.457H132.092L130.315 32.8346H130.527L128.741 37.457H128.065ZM139.018 37.457V36.2863L138.988 36.0945V34.1365C138.988 33.6857 138.86 33.3392 138.604 33.097C138.355 32.8548 137.982 32.7336 137.484 32.7336C137.141 32.7336 136.815 32.7908 136.505 32.9052C136.196 33.0196 135.933 33.171 135.718 33.3594L135.395 32.8245C135.664 32.5957 135.987 32.4208 136.364 32.2997C136.741 32.1718 137.138 32.1079 137.555 32.1079C138.241 32.1079 138.769 32.2795 139.139 32.6226C139.516 32.959 139.704 33.4738 139.704 34.1668V37.457H139.018ZM137.191 37.5075C136.794 37.5075 136.448 37.4436 136.152 37.3157C135.863 37.1812 135.64 36.9995 135.486 36.7707C135.331 36.5352 135.254 36.2661 135.254 35.9633C135.254 35.6874 135.318 35.4385 135.445 35.2164C135.58 34.9877 135.795 34.806 136.091 34.6714C136.394 34.5301 136.798 34.4595 137.302 34.4595H139.129V34.9944H137.323C136.811 34.9944 136.455 35.0852 136.253 35.2669C136.058 35.4486 135.96 35.674 135.96 35.9431C135.96 36.2459 136.078 36.4881 136.313 36.6698C136.549 36.8515 136.879 36.9423 137.302 36.9423C137.706 36.9423 138.053 36.8515 138.342 36.6698C138.638 36.4814 138.853 36.2123 138.988 35.8624L139.149 36.3569C139.015 36.7068 138.779 36.986 138.443 37.1946C138.113 37.4032 137.696 37.5075 137.191 37.5075ZM141.651 37.457V29.9682H142.367V37.457H141.651Z" fill="#525252"/>
<circle cx="88.013" cy="34.186" r="5.04636" fill="#FDE599"/>
<defs>
<filter id="filter0_d_12_10704" x="0.543046" y="0.543046" width="169.894" height="67.285" filterUnits="userSpaceOnUse" color-interpolation-filters="sRGB">
<feFlood flood-opacity="0" result="BackgroundImageFix"/>
<feColorMatrix in="SourceAlpha" type="matrix" values="0 0 0 0 0 0 0 0 0 0 0 0 0 0 0 0 0 0 127 0" result="hardAlpha"/>
<feOffset/>
<feGaussianBlur stdDeviation="6.72848"/>
<feColorMatrix type="matrix" values="0 0 0 0 0 0 0 0 0 0 0 0 0 0 0 0 0 0 0.06 0"/>
<feBlend mode="normal" in2="BackgroundImageFix" result="effect1_dropShadow_12_10704"/>
<feBlend mode="normal" in="SourceGraphic" in2="effect1_dropShadow_12_10704" result="shape"/>
</filter>
</defs>
</svg>
