<svg width="187" height="232" viewBox="0 0 187 232" fill="none" xmlns="http://www.w3.org/2000/svg">
<g filter="url(#filter0_d_64_663)">
<rect x="19" y="19" width="148.859" height="194" rx="4.56284" fill="white" fill-opacity="0.6"/>
<rect x="38.7925" y="60.832" width="34.8069" height="123.872" fill="white" fill-opacity="0.9"/>
<rect x="108.406" y="60.832" width="34.8069" height="123.872" fill="white" fill-opacity="0.9"/>
<path d="M73.6006 60.832H108.407V184.704H73.6006V60.832Z" fill="white" fill-opacity="0.9"/>
<path d="M43.4653 177.413V173.113H44.2638V176.737H46.512V177.413H43.4653ZM48.5804 177.456C48.216 177.456 47.8965 177.384 47.6222 177.241C47.3519 177.094 47.141 176.893 46.9895 176.639C46.8421 176.385 46.7684 176.097 46.7684 175.773C46.7684 175.445 46.8401 175.157 46.9834 174.907C47.1308 174.653 47.3314 174.455 47.5853 174.311C47.8433 174.168 48.1361 174.096 48.4637 174.096C48.7831 174.096 49.0677 174.166 49.3175 174.305C49.5673 174.444 49.7638 174.641 49.9072 174.895C50.0505 175.149 50.1221 175.448 50.1221 175.791C50.1221 175.824 50.1201 175.861 50.116 175.902C50.116 175.943 50.114 175.982 50.1099 176.019H47.3765V175.509H49.7045L49.4035 175.669C49.4076 175.48 49.3687 175.314 49.2868 175.171C49.2049 175.028 49.0923 174.915 48.9489 174.833C48.8097 174.751 48.648 174.71 48.4637 174.71C48.2753 174.71 48.1095 174.751 47.9662 174.833C47.8269 174.915 47.7164 175.03 47.6345 175.177C47.5567 175.321 47.5178 175.491 47.5178 175.687V175.81C47.5178 176.006 47.5628 176.181 47.6529 176.332C47.743 176.484 47.8699 176.6 48.0337 176.682C48.1975 176.764 48.3859 176.805 48.5988 176.805C48.7831 176.805 48.9489 176.776 49.0964 176.719C49.2438 176.662 49.3748 176.572 49.4895 176.449L49.901 176.922C49.7536 177.094 49.5673 177.227 49.3421 177.321C49.1209 177.411 48.867 177.456 48.5804 177.456ZM52.4014 177.456C52.037 177.456 51.7175 177.384 51.4432 177.241C51.1729 177.094 50.962 176.893 50.8105 176.639C50.6631 176.385 50.5894 176.097 50.5894 175.773C50.5894 175.445 50.6611 175.157 50.8044 174.907C50.9518 174.653 51.1524 174.455 51.4063 174.311C51.6643 174.168 51.9571 174.096 52.2847 174.096C52.6041 174.096 52.8887 174.166 53.1385 174.305C53.3883 174.444 53.5848 174.641 53.7282 174.895C53.8715 175.149 53.9431 175.448 53.9431 175.791C53.9431 175.824 53.9411 175.861 53.937 175.902C53.937 175.943 53.935 175.982 53.9309 176.019H51.1975V175.509H53.5255L53.2245 175.669C53.2286 175.48 53.1897 175.314 53.1078 175.171C53.0259 175.028 52.9133 174.915 52.7699 174.833C52.6307 174.751 52.469 174.71 52.2847 174.71C52.0963 174.71 51.9305 174.751 51.7872 174.833C51.6479 174.915 51.5374 175.03 51.4555 175.177C51.3777 175.321 51.3388 175.491 51.3388 175.687V175.81C51.3388 176.006 51.3838 176.181 51.4739 176.332C51.564 176.484 51.6909 176.6 51.8547 176.682C52.0185 176.764 52.2069 176.805 52.4198 176.805C52.6041 176.805 52.7699 176.776 52.9174 176.719C53.0648 176.662 53.1958 176.572 53.3105 176.449L53.722 176.922C53.5746 177.094 53.3883 177.227 53.1631 177.321C52.9419 177.411 52.688 177.456 52.4014 177.456ZM56.0688 177.456C55.7535 177.456 55.4689 177.386 55.215 177.247C54.9653 177.104 54.7687 176.907 54.6254 176.658C54.4821 176.408 54.4104 176.113 54.4104 175.773C54.4104 175.433 54.4821 175.138 54.6254 174.889C54.7687 174.639 54.9653 174.444 55.215 174.305C55.4689 174.166 55.7535 174.096 56.0688 174.096C56.3432 174.096 56.5889 174.158 56.8059 174.28C57.023 174.399 57.1949 174.581 57.3219 174.827C57.4488 175.073 57.5123 175.388 57.5123 175.773C57.5123 176.154 57.4509 176.469 57.328 176.719C57.2052 176.965 57.0352 177.149 56.8182 177.272C56.6012 177.395 56.3514 177.456 56.0688 177.456ZM56.161 176.799C56.3452 176.799 56.509 176.758 56.6524 176.676C56.7998 176.594 56.9165 176.475 57.0025 176.32C57.0926 176.164 57.1376 175.982 57.1376 175.773C57.1376 175.56 57.0926 175.378 57.0025 175.226C56.9165 175.071 56.7998 174.952 56.6524 174.87C56.509 174.788 56.3452 174.747 56.161 174.747C55.9767 174.747 55.8109 174.788 55.6634 174.87C55.5201 174.952 55.4034 175.071 55.3133 175.226C55.2273 175.378 55.1843 175.56 55.1843 175.773C55.1843 175.982 55.2273 176.164 55.3133 176.32C55.4034 176.475 55.5201 176.594 55.6634 176.676C55.8109 176.758 55.9767 176.799 56.161 176.799ZM57.156 177.413V176.639L57.1868 175.767L57.1253 174.895V172.855H57.887V177.413H57.156ZM59.9111 177.456C59.6367 177.456 59.3726 177.421 59.1187 177.352C58.8689 177.278 58.6703 177.19 58.5229 177.088L58.8177 176.504C58.9651 176.598 59.1412 176.676 59.346 176.737C59.5507 176.799 59.7554 176.83 59.9602 176.83C60.2018 176.83 60.3758 176.797 60.4823 176.731C60.5929 176.666 60.6481 176.578 60.6481 176.467C60.6481 176.377 60.6113 176.31 60.5376 176.264C60.4639 176.215 60.3676 176.178 60.2489 176.154C60.1301 176.129 59.997 176.107 59.8496 176.086C59.7063 176.066 59.5609 176.039 59.4135 176.006C59.2702 175.97 59.1392 175.918 59.0204 175.853C58.9017 175.783 58.8054 175.691 58.7317 175.577C58.658 175.462 58.6212 175.31 58.6212 175.122C58.6212 174.913 58.6805 174.733 58.7993 174.581C58.918 174.426 59.0839 174.307 59.2968 174.225C59.5138 174.139 59.7698 174.096 60.0646 174.096C60.2857 174.096 60.5089 174.121 60.7341 174.17C60.9594 174.219 61.1457 174.289 61.2931 174.379L60.9983 174.962C60.8426 174.868 60.685 174.805 60.5253 174.772C60.3697 174.735 60.2141 174.717 60.0585 174.717C59.8251 174.717 59.651 174.751 59.5364 174.821C59.4258 174.891 59.3705 174.979 59.3705 175.085C59.3705 175.183 59.4074 175.257 59.4811 175.306C59.5548 175.355 59.651 175.394 59.7698 175.423C59.8885 175.452 60.0196 175.476 60.1629 175.497C60.3103 175.513 60.4557 175.54 60.599 175.577C60.7423 175.613 60.8734 175.665 60.9921 175.73C61.115 175.791 61.2132 175.88 61.2869 175.994C61.3607 176.109 61.3975 176.258 61.3975 176.443C61.3975 176.647 61.3361 176.825 61.2132 176.977C61.0945 177.128 60.9245 177.247 60.7034 177.333C60.4823 177.415 60.2182 177.456 59.9111 177.456Z" fill="#525252"/>
<path d="M113.809 175.091H115.953V175.767H113.809V175.091ZM113.876 177.413H113.078V173.113H116.217V173.783H113.876V177.413ZM118.213 177.456C117.935 177.456 117.689 177.405 117.476 177.303C117.263 177.196 117.097 177.036 116.979 176.823C116.86 176.606 116.801 176.334 116.801 176.006V174.133H117.568V175.902C117.568 176.197 117.634 176.418 117.765 176.565C117.9 176.709 118.09 176.78 118.336 176.78C118.516 176.78 118.672 176.744 118.803 176.67C118.938 176.596 119.043 176.486 119.116 176.338C119.194 176.191 119.233 176.009 119.233 175.791V174.133H120.001V177.413H119.27V176.529L119.399 176.799C119.288 177.012 119.127 177.176 118.914 177.29C118.701 177.401 118.467 177.456 118.213 177.456ZM122.867 174.096C123.129 174.096 123.363 174.147 123.567 174.25C123.776 174.352 123.94 174.51 124.059 174.723C124.178 174.932 124.237 175.202 124.237 175.534V177.413H123.469V175.632C123.469 175.341 123.4 175.124 123.26 174.981C123.125 174.837 122.935 174.766 122.689 174.766C122.509 174.766 122.349 174.803 122.21 174.876C122.071 174.95 121.962 175.061 121.884 175.208C121.811 175.351 121.774 175.534 121.774 175.755V177.413H121.006V174.133H121.737V175.018L121.608 174.747C121.723 174.538 121.889 174.379 122.106 174.268C122.327 174.154 122.581 174.096 122.867 174.096ZM126.605 177.456C126.29 177.456 126.005 177.386 125.751 177.247C125.502 177.104 125.305 176.907 125.162 176.658C125.018 176.408 124.947 176.113 124.947 175.773C124.947 175.433 125.018 175.138 125.162 174.889C125.305 174.639 125.502 174.444 125.751 174.305C126.005 174.166 126.29 174.096 126.605 174.096C126.88 174.096 127.125 174.158 127.342 174.28C127.559 174.399 127.731 174.581 127.858 174.827C127.985 175.073 128.049 175.388 128.049 175.773C128.049 176.154 127.987 176.469 127.864 176.719C127.741 176.965 127.572 177.149 127.355 177.272C127.137 177.395 126.888 177.456 126.605 177.456ZM126.697 176.799C126.882 176.799 127.045 176.758 127.189 176.676C127.336 176.594 127.453 176.475 127.539 176.32C127.629 176.164 127.674 175.982 127.674 175.773C127.674 175.56 127.629 175.378 127.539 175.226C127.453 175.071 127.336 174.952 127.189 174.87C127.045 174.788 126.882 174.747 126.697 174.747C126.513 174.747 126.347 174.788 126.2 174.87C126.056 174.952 125.94 175.071 125.85 175.226C125.764 175.378 125.721 175.56 125.721 175.773C125.721 175.982 125.764 176.164 125.85 176.32C125.94 176.475 126.056 176.594 126.2 176.676C126.347 176.758 126.513 176.799 126.697 176.799ZM127.692 177.413V176.639L127.723 175.767L127.662 174.895V172.855H128.423V177.413H127.692ZM130.447 177.456C130.173 177.456 129.909 177.421 129.655 177.352C129.405 177.278 129.207 177.19 129.059 177.088L129.354 176.504C129.501 176.598 129.678 176.676 129.882 176.737C130.087 176.799 130.292 176.83 130.496 176.83C130.738 176.83 130.912 176.797 131.019 176.731C131.129 176.666 131.184 176.578 131.184 176.467C131.184 176.377 131.148 176.31 131.074 176.264C131 176.215 130.904 176.178 130.785 176.154C130.666 176.129 130.533 176.107 130.386 176.086C130.243 176.066 130.097 176.039 129.95 176.006C129.807 175.97 129.675 175.918 129.557 175.853C129.438 175.783 129.342 175.691 129.268 175.577C129.194 175.462 129.157 175.31 129.157 175.122C129.157 174.913 129.217 174.733 129.336 174.581C129.454 174.426 129.62 174.307 129.833 174.225C130.05 174.139 130.306 174.096 130.601 174.096C130.822 174.096 131.045 174.121 131.27 174.17C131.496 174.219 131.682 174.289 131.829 174.379L131.535 174.962C131.379 174.868 131.221 174.805 131.062 174.772C130.906 174.735 130.75 174.717 130.595 174.717C130.361 174.717 130.187 174.751 130.073 174.821C129.962 174.891 129.907 174.979 129.907 175.085C129.907 175.183 129.944 175.257 130.017 175.306C130.091 175.355 130.187 175.394 130.306 175.423C130.425 175.452 130.556 175.476 130.699 175.497C130.847 175.513 130.992 175.54 131.135 175.577C131.279 175.613 131.41 175.665 131.528 175.73C131.651 175.791 131.75 175.88 131.823 175.994C131.897 176.109 131.934 176.258 131.934 176.443C131.934 176.647 131.872 176.825 131.75 176.977C131.631 177.128 131.461 177.247 131.24 177.333C131.019 177.415 130.754 177.456 130.447 177.456Z" fill="#525252"/>
<path d="M79.6058 177.454C79.2701 177.454 78.9486 177.407 78.6415 177.313C78.3344 177.214 78.0907 177.09 77.9105 176.938L78.1869 176.318C78.3589 176.453 78.5719 176.565 78.8258 176.655C79.0796 176.746 79.3397 176.791 79.6058 176.791C79.8311 176.791 80.0133 176.766 80.1525 176.717C80.2917 176.668 80.3941 176.602 80.4596 176.52C80.5252 176.434 80.5579 176.338 80.5579 176.232C80.5579 176.101 80.5108 175.996 80.4166 175.918C80.3225 175.837 80.1996 175.773 80.0481 175.728C79.9007 175.679 79.7348 175.634 79.5506 175.593C79.3704 175.552 79.1882 175.505 79.0039 175.452C78.8237 175.394 78.6579 175.323 78.5064 175.237C78.3589 175.147 78.2381 175.028 78.144 174.88C78.0498 174.733 78.0027 174.545 78.0027 174.315C78.0027 174.082 78.0641 173.869 78.1869 173.676C78.3139 173.48 78.5043 173.324 78.7582 173.21C79.0162 173.091 79.3417 173.031 79.7348 173.031C79.9928 173.031 80.2487 173.064 80.5026 173.13C80.7565 173.195 80.9776 173.289 81.166 173.412L80.9142 174.033C80.7217 173.918 80.5231 173.834 80.3184 173.781C80.1136 173.724 79.9171 173.695 79.7287 173.695C79.5076 173.695 79.3274 173.721 79.1882 173.775C79.053 173.828 78.9527 173.898 78.8872 173.984C78.8258 174.07 78.795 174.168 78.795 174.278C78.795 174.409 78.8401 174.516 78.9302 174.598C79.0244 174.676 79.1452 174.737 79.2926 174.782C79.4441 174.827 79.612 174.872 79.7963 174.917C79.9805 174.958 80.1628 175.005 80.3429 175.058C80.5272 175.112 80.693 175.181 80.8405 175.267C80.992 175.353 81.1128 175.47 81.2029 175.617C81.297 175.765 81.3441 175.951 81.3441 176.176C81.3441 176.406 81.2807 176.619 81.1537 176.815C81.0309 177.008 80.8405 177.163 80.5825 177.282C80.3245 177.397 79.999 177.454 79.6058 177.454ZM83.4504 177.436C83.1719 177.436 82.9263 177.384 82.7133 177.282C82.5004 177.176 82.3345 177.016 82.2158 176.803C82.097 176.586 82.0377 176.314 82.0377 175.986V174.113H82.8055V175.882C82.8055 176.176 82.871 176.398 83.002 176.545C83.1371 176.688 83.3276 176.76 83.5733 176.76C83.7534 176.76 83.909 176.723 84.0401 176.649C84.1752 176.576 84.2796 176.465 84.3533 176.318C84.4311 176.17 84.47 175.988 84.47 175.771V174.113H85.2378V177.393H84.5069V176.508L84.6359 176.778C84.5253 176.991 84.3636 177.155 84.1506 177.27C83.9377 177.38 83.7043 177.436 83.4504 177.436ZM88.0613 177.436C87.7828 177.436 87.5351 177.374 87.318 177.251C87.101 177.128 86.929 176.944 86.8021 176.698C86.6792 176.449 86.6178 176.133 86.6178 175.753C86.6178 175.368 86.6813 175.052 86.8082 174.807C86.9393 174.561 87.1133 174.379 87.3303 174.26C87.5515 174.137 87.7951 174.076 88.0613 174.076C88.3848 174.076 88.6694 174.145 88.9151 174.285C89.1649 174.424 89.3614 174.618 89.5047 174.868C89.6522 175.118 89.7259 175.413 89.7259 175.753C89.7259 176.092 89.6522 176.387 89.5047 176.637C89.3614 176.887 89.1649 177.083 88.9151 177.227C88.6694 177.366 88.3848 177.436 88.0613 177.436ZM86.2431 177.393V172.835H87.0109V174.874L86.9495 175.746L86.9741 176.619V177.393H86.2431ZM87.9753 176.778C88.1596 176.778 88.3234 176.737 88.4667 176.655C88.6141 176.574 88.7308 176.455 88.8168 176.299C88.9028 176.144 88.9458 175.961 88.9458 175.753C88.9458 175.54 88.9028 175.357 88.8168 175.206C88.7308 175.05 88.6141 174.932 88.4667 174.85C88.3234 174.768 88.1596 174.727 87.9753 174.727C87.791 174.727 87.6252 174.768 87.4777 174.85C87.3303 174.932 87.2136 175.05 87.1276 175.206C87.0416 175.357 86.9986 175.54 86.9986 175.753C86.9986 175.961 87.0416 176.144 87.1276 176.299C87.2136 176.455 87.3303 176.574 87.4777 176.655C87.6252 176.737 87.791 176.778 87.9753 176.778ZM91.4675 177.436C91.1932 177.436 90.929 177.401 90.6752 177.331C90.4254 177.257 90.2268 177.169 90.0793 177.067L90.3742 176.484C90.5216 176.578 90.6977 176.655 90.9024 176.717C91.1072 176.778 91.3119 176.809 91.5167 176.809C91.7583 176.809 91.9323 176.776 92.0388 176.711C92.1493 176.645 92.2046 176.557 92.2046 176.447C92.2046 176.357 92.1678 176.289 92.094 176.244C92.0203 176.195 91.9241 176.158 91.8054 176.133C91.6866 176.109 91.5535 176.086 91.4061 176.066C91.2628 176.045 91.1174 176.019 90.97 175.986C90.8267 175.949 90.6956 175.898 90.5769 175.832C90.4581 175.763 90.3619 175.671 90.2882 175.556C90.2145 175.441 90.1776 175.29 90.1776 175.101C90.1776 174.893 90.237 174.712 90.3557 174.561C90.4745 174.405 90.6403 174.287 90.8533 174.205C91.0703 174.119 91.3262 174.076 91.6211 174.076C91.8422 174.076 92.0654 174.1 92.2906 174.149C92.5158 174.199 92.7021 174.268 92.8496 174.358L92.5547 174.942C92.3991 174.848 92.2415 174.784 92.0818 174.751C91.9262 174.714 91.7705 174.696 91.6149 174.696C91.3815 174.696 91.2075 174.731 91.0928 174.8C90.9823 174.87 90.927 174.958 90.927 175.065C90.927 175.163 90.9638 175.237 91.0376 175.286C91.1113 175.335 91.2075 175.374 91.3262 175.402C91.445 175.431 91.576 175.456 91.7194 175.476C91.8668 175.493 92.0121 175.519 92.1555 175.556C92.2988 175.593 92.4298 175.644 92.5486 175.71C92.6714 175.771 92.7697 175.859 92.8434 175.974C92.9171 176.088 92.954 176.238 92.954 176.422C92.954 176.627 92.8926 176.805 92.7697 176.956C92.651 177.108 92.481 177.227 92.2599 177.313C92.0388 177.395 91.7746 177.436 91.4675 177.436Z" fill="#525252"/>
</g>
<defs>
<filter id="filter0_d_64_663" x="0.748623" y="0.748623" width="185.361" height="230.503" filterUnits="userSpaceOnUse" color-interpolation-filters="sRGB">
<feFlood flood-opacity="0" result="BackgroundImageFix"/>
<feColorMatrix in="SourceAlpha" type="matrix" values="0 0 0 0 0 0 0 0 0 0 0 0 0 0 0 0 0 0 127 0" result="hardAlpha"/>
<feOffset/>
<feGaussianBlur stdDeviation="9.12569"/>
<feComposite in2="hardAlpha" operator="out"/>
<feColorMatrix type="matrix" values="0 0 0 0 0 0 0 0 0 0 0 0 0 0 0 0 0 0 0.08 0"/>
<feBlend mode="normal" in2="BackgroundImageFix" result="effect1_dropShadow_64_663"/>
<feBlend mode="normal" in="SourceGraphic" in2="effect1_dropShadow_64_663" result="shape"/>
</filter>
</defs>
</svg>
