<svg width="322" height="238" viewBox="0 0 322 238" fill="none" xmlns="http://www.w3.org/2000/svg">
<g opacity="0.8">
<path d="M50.2838 165.548L51.0523 167.857L51.8608 167.046L54.391 167.692L54.1635 168.769L56.4259 169.861L58.0511 169.56L61.1918 171.348L64.1744 171.997L65.3552 172.673L67.4784 171.994L69.8372 173.47L71.5562 174.144L71.4785 191.098L71.3688 215.698L73.3768 215.819L75.3849 216.955L76.8629 218.757L78.796 221.435L80.7345 219.025L82.7426 217.566L83.9662 219.655L85.4843 221.26L87.5513 222.977L89.1256 225.813L91.7683 230.26L95.7925 232.426L96.1459 234.962L95.107 237.048L93.704 235.674L91.5969 234.589L90.6437 231.117L87.5486 228.067L86.1054 224.28L84.0411 224.154L80.6488 224.236L78.1159 223.141L73.6981 218.913L71.7141 218.127L68.1344 216.588L65.2856 216.862L61.3631 214.74L59.0766 212.788L56.7766 213.5L56.9614 216.446L55.8074 216.616L53.3522 217.256L51.3923 218.461L48.996 219.066V216.588L50.3936 212.612L52.6614 211.566L52.2277 210.449L49.4163 212.484L47.6894 215.08L44.3319 217.599L45.5662 219.822L43.1645 222.473L40.6236 223.812L38.2862 224.68L37.4481 226.375L33.697 227.809L32.6475 229.548L29.7371 230.712L28.2939 230.074L25.9993 230.706L23.4504 231.506L21.2924 232.352L17.1986 232.445L17.0272 231.695L19.9162 230.531L22.366 229.882L25.2068 228.305L28.0074 228.491L29.4292 227.1L32.9018 225.342L33.5364 224.636L35.3785 223.524L36.3102 220.52L37.8042 218.313L35.1857 219.088L34.6529 218.253L33.2365 219.499L32.3074 217.15L31.4453 218.483L31.1079 216.29L28.6982 217.437L27.4371 217.13L27.8254 214.68L28.5402 213.281L27.5924 211.512L24.8052 211.619L23.6271 209.261L22.5454 207.911L23.1639 205.605L22.1679 203.44L23.5602 201.301L25.7155 199.434L26.9418 197.484L28.5135 197.583L29.6139 198.585L31.5925 196.936L32.8456 197.626L34.5404 196.643L34.6314 194.625L33.7934 193.62L35.4936 192.284L34.3851 192.076L32.2726 192.542L31.4988 193.341L30.3181 192.04L27.6727 191.83L25.3568 190.066L25.1104 188.147L23.6592 185.009L26.583 183.971L30.9366 182.955L32.3262 183.33L31.5443 185.43L35.2098 186.183L34.4601 183.144L32.8081 180.945L32.2003 178.437L31.1427 176.123L29.3328 174.083L30.8803 172.027L33.7104 172.676L36.2111 171.154L37.1242 169.037L39.2072 167.249L40.8056 167.074L44.1016 165.639L45.4216 166.236L48.182 164.16L50.2838 165.548ZM14.7996 190.715L15.6269 191.89L16.8799 191.86L17.9723 193.442L19.5895 194.587L19.3004 194.987L17.6484 195.397L16.5586 194.037L16.1195 193.056L14.4568 192.73L14.1543 192.216L14.7996 190.715ZM21.4343 210.195L20.0447 210.466L18.963 209.327L18.0928 207.87L20.2241 207.769L21.6753 208.59L21.4343 210.195ZM45.194 227.056L42.8137 228.286L41.8606 227.07L41.815 225.118L43.9677 223.971L45.1886 223.513L46.5622 223.984L47.3065 225.372L45.194 227.056Z" fill="#8CA3DD" stroke="white" stroke-width="0.650375"/>
<path d="M230.168 127.805L232.917 137.271L235.341 144.828L236.56 147.154L237.295 148.478L236.384 149.98L236.313 152.51L236.841 153.936V155.339L236.814 156.642L237.349 157.589L237.786 158.471L224.266 160.036L220.511 160.853L220.46 161.459L222.153 163.224L221.947 164.805L221.561 165.929L215.537 165.594L214.345 153.626L214.454 141.024L214.731 130.806L214.152 129.335L222.075 128.587L230.168 127.805Z" fill="#1245C7" stroke="white" stroke-width="0.650375"/>
<path d="M204.162 122.092L204.142 122.743L203.583 123.887L202.537 124.721L202.381 126.031L201.453 127.123L201.673 129.391L201 130.166L200.918 130.793L199.825 131.448L199.869 132.582L199.144 134.725L198.433 135.214L197.366 136.345L196.777 137.995L195.524 140.804L195.474 142.668L196.324 144.684L196.093 146.242L190.598 146.249L183.515 146.786L177.24 146.942L177.522 142.482H176.028L174.779 142.61L174.43 142.103L174.501 135.245L174.508 127.63L173.137 119.383L180.674 119.328L187.527 119.107L194.065 118.801L201.145 118.859L201.724 119.79L201.077 120.675L200.434 121.565L200.099 122.364L204.162 122.092Z" fill="#4971D6" stroke="white" stroke-width="0.650375"/>
<path d="M84.5609 110.003L78.3342 153.916L65.3356 151.897L51.4601 143.73L42.4941 137.992L43.3846 136.641L44.2311 136.831L45.2469 135.442L44.3395 134.146L44.3496 132.947L44.2988 131.524L45.8902 130.021L47.1024 126.613L49.3202 125.431L48.4331 123.712L47.9184 122.099L47.678 120.648L47.5493 119.538L47.5629 118.825L48.2502 117.402L48.2536 115.837L48.4297 114.324L48.7683 112.677L48.4364 111.512L49.0493 110.658L50.3326 110.927L51.3958 111.716L52.1677 112.191L52.8043 111.106L53.1192 110.906L54.2941 104.73L64.0727 106.519L75.7338 108.573L84.5609 110.003Z" fill="#A0BCEF" stroke="white" stroke-width="0.650375"/>
<path d="M28.5328 58.4333L22.516 81.0568L30.9503 94.1864L39.3508 106.844L47.5617 118.822L47.5482 119.536L47.6768 120.645L47.9172 122.096L48.4319 123.709L49.319 125.429L47.1012 126.611L45.8891 130.019L44.2977 131.521L44.3485 132.944L44.3383 134.144L45.2457 135.439L44.23 136.828L43.3835 136.639L35.1218 135.663L27.7506 134.557L27.6355 131.559L25.8985 126.959L20.349 120.721L17.9213 119.784L15.8491 116.679L11.1325 114.76L9.89662 113.098L10.2826 108.756L6.54794 99.4968L4.64843 87.594L5.36625 85.9227L3.53446 82.6592L0.98486 75.002L2.08529 68.675L0.365234 63.6334L3.53785 57.8578L5.35609 51.4102L28.5328 58.4333Z" fill="#315DCF" stroke="white" stroke-width="0.650375"/>
<path d="M301.807 57.9727L302.958 62.0873L302.914 63.2865L300.544 64.3445L297.382 65.5919L293.434 68.5211L293.004 67.6458L294.047 66.5913L293.444 66.0606L292.316 60.1781L296.603 59.2029L301.807 57.9727Z" fill="#8CA3DD" stroke="white" stroke-width="0.650375"/>
<path d="M277.73 89.8265L277.665 89.3716L277.039 88.8202L277.439 88.3516L278.349 88.9822L277.73 89.8265Z" fill="#F0F0F0" stroke="white" stroke-width="0.650375"/>
<path d="M285.586 80.0096L284.909 81.0056L285.39 82.4357L287.53 86.2539L290.012 89.769L286.091 90.6856L283.504 81.071L283.812 80.368L284.256 79.9062L285.586 80.0096Z" fill="#315DCF" stroke="white" stroke-width="0.650375"/>
<path d="M261.319 157.161L263.086 162.703L266.669 168.675L270.681 174.006L271.199 177.056L275.56 184.551L277.074 191.515L276.799 198.604L274.07 200.517L270.43 200.151L268.758 196.871L265.799 195.489L261.062 189.289L256.822 184.055L255.651 180.367L256.128 175.412L253.934 171.256L248.903 167.19L244.687 164.739L237.543 168.995L235.742 166.983L229.027 164.167L221.561 165.925L221.947 164.801L222.154 163.22L220.461 161.455L220.512 160.849L224.267 160.032L237.787 158.468L239.046 160.449L245.767 159.932L256.694 159.529L257.391 160.814L258.143 159.98L257.747 157.272L258.502 156.879L259.9 157.244L261.319 157.161Z" fill="#315DCF" stroke="white" stroke-width="0.650375"/>
<path d="M246.178 125.754L245.579 126.498L244.776 128.111L246.655 129.155L247.817 129.465L249.344 131.743L250.299 133.004L252.784 134.504L253.366 135.399L255.07 136.423L256.099 138.149L258.391 139.383L259.129 141.079L259.647 141.875L259.515 142.481L260.853 143.129L261.726 144.476L261.953 145.955L262.596 146.141L263.775 146.351L261.862 152.516L261.317 157.162L259.898 157.244L258.499 156.879L257.744 157.272L258.141 159.98L257.389 160.814L256.691 159.529L245.765 159.932L239.044 160.449L237.784 158.468L237.348 157.585L236.813 156.638L236.84 155.335V153.933L236.311 152.506L236.383 149.976L237.293 148.474L236.559 147.151L235.34 144.825L232.915 137.267L230.166 127.801L235.021 127.284L238.363 126.774L246.178 125.754Z" fill="#A3B6E6" stroke="white" stroke-width="0.650375"/>
<path d="M101.548 199.667L100.518 199.701L99.9258 198.881L99.6211 197.382L100.38 197.113L101.49 197.292L102.611 198.282L102.553 198.843L101.548 199.667ZM107.483 209.416L107.26 210.615L106.247 210.143L106.037 209.306L105.685 209.14L105.523 209.106L104.873 208.544L105.228 206.373L106.061 206.924L107.331 207.041L106.992 208.882L107.483 209.416ZM111.357 215.34L110.158 215.278L108.174 213.155L108.899 212.669L111.357 215.34ZM111.489 216.549L111.617 217.745L112.735 218.3L113.398 220.278L113.09 220.736L112.295 220.747L110.541 219.713L111.022 218.307L110.405 217.624L110.534 216.563L111.076 216.308L111.489 216.549ZM108.665 231.915L107.548 232.37L106.64 230.678L107.95 228.852L108.712 226.088L111.072 225.537L111.353 224.358L111.851 223.91L112.146 223.996L114.292 228.231L114.384 229.379L113.944 230.196L114.286 230.609L114.106 231.264L114.387 232.57L112.163 232.722L110.531 231.995L108.665 231.915Z" fill="#F0F0F0" stroke="white" stroke-width="0.650375"/>
<path d="M191.394 64.293L191.495 64.7168L192.291 65.9195L191.821 66.5398L191.925 68.1836L192.193 68.8694L192.623 70.0927L194.516 70.7371L195.135 71.8985L195.501 72.474L196.199 72.8324L196.52 73.6594L197.455 74.228L198.088 74.8656L197.912 76.9849L196.957 78.8217L196.605 79.4075L195.315 79.9382L193.354 80.4379L192.907 81.8094L193.659 82.378L193.971 83.5738L193.283 84.9695L192.958 86.1756L191.519 87.4162L191.472 88.8463L190.639 88.2364L189.461 87.0233L183.071 87.4575L176.337 87.7125L171.088 87.8159L165.83 87.8504L165.441 86.4341L165.603 85.0349L165.475 83.6875L164.875 81.4303L164.493 80.4965L164.076 80.2414L164.036 78.4323L163.677 77.1365L162.637 75.6582L162.654 75.0103L162.295 73.718L162.045 72.9357L162.055 72.219L161.141 71.3437L161.604 70.0617L161.906 68.8073L162.045 67.9562L161.33 66.912L161.351 64.9994H162.095L168.227 65.0063L175.849 64.7892L184.036 64.4894L191.394 64.293Z" fill="#315DCF" stroke="white" stroke-width="0.650375"/>
<path d="M81.6731 50.0954L81.8458 50.2677L78.6834 69.5003L61.835 66.4126L45.0645 62.6288L48.3149 48.941L49.2901 46.8837L49.0836 45.7809L48.1931 45.0228L48.491 43.8029L49.649 42.2487L51.1524 41.0116L52.4796 38.7165L53.6444 36.9107L54.4062 36.0354L54.3859 34.8052L53.641 33.9747L52.737 32.2034L53.0959 30.8491L52.886 29.5637L55.2155 18.8119L57.4739 8.94922L62.4038 10.0933L61.0223 18.3191L61.923 20.6762L61.6183 22.0685L62.309 23.5158L63.3451 24.5117L63.958 25.8971L64.906 28.5988L66.0234 30.0082L67.5843 30.4114L66.6633 32.0035L65.7423 33.9299L65.783 36.0079L65.0651 36.3766L64.7198 38.365L65.5155 39.3264L66.7513 38.6269L67.5098 37.6516L68.1125 37.9962L68.5425 39.1851L68.6813 41.749L69.4465 42.9035L69.4025 44.9883L69.6226 45.6155L70.6858 46.0222L71.1429 47.2731L71.732 49.4648L72.9307 48.5826L74.6609 49.1995L74.9419 48.4654L77.9249 49.5062L79.215 49.4786L80.251 48.076L80.803 48.3896L81.1517 49.5682L81.6731 50.0954Z" fill="#A0BCEF" stroke="white" stroke-width="0.650375"/>
<path d="M211.255 70.7422V70.7629L211.479 72.7892L213.392 76.7418L214.214 85.7637L215.034 94.7752L214.556 97.0048L215.098 97.5286L215.535 98.8278L215.586 99.8788L215.125 100.399L214.807 101.729L213.71 103.542L213.046 105.71L212.989 107.302L213.08 107.877L212.484 109.021L213.067 109.71L212.044 110.372L210.717 111.144L211.093 112.826L210.341 113.536L208.804 112.936L207.141 112.643L206.782 113.432L207.107 114.594L205.929 113.467L205.282 113.718L204.361 111.861L204.504 110.675L203.918 108.821L203.288 108.635L201.582 107.033L200.891 107.05L199.621 106.03L198.693 104.914L198.998 103.518L199.486 102.346L199.736 100.885L198.517 99.7031L197.413 100.279L196.713 99.9925L196.54 98.6934L195.958 97.2391L195.389 96.9152L193.96 95.9434L192.758 94.6787L191.695 93.1245L191.055 90.8156L191.471 88.8479L191.519 87.4178L192.958 86.1772L193.283 84.9711L193.97 83.5754L193.658 82.3796L192.907 81.811L193.354 80.4395L195.314 79.9398L196.604 79.4091L196.956 78.8233L197.911 76.9865L198.087 74.8671L197.454 74.2296L196.52 73.661L196.198 72.834L195.5 72.4756L195.135 71.9001L200.935 71.521L206.864 71.0765L211.238 70.7629L211.235 70.7422H211.255Z" fill="#8CA3DD" stroke="white" stroke-width="0.650375"/>
<path d="M229.001 75.255L229.834 82.2815L230.707 89.8388L231.324 95.2181L231.029 95.6282L231.703 97.1514L231.517 97.7579L230.514 97.8957L229.661 98.6952L228.215 98.5849L228.259 100.091L227.481 100.759L226.841 102.186L226.014 102.527L224.941 104.988L223.644 104.457L223.167 103.547L222.276 105.208L221.694 106.146L220.302 105.367L218.982 106.249L218.596 107.052L216.619 106.049L215.396 107.024L213.781 106.566L213.795 107.431L212.992 107.3L213.05 105.708L213.713 103.54L214.81 101.728L215.129 100.398L215.589 99.8772L215.538 98.8262L215.102 97.527L214.56 97.0032L215.037 94.7736L214.218 85.7621L213.395 76.7402L213.971 77.2158L215.918 76.9814L217.38 75.9683L223.546 75.3342L228.923 74.6484L229.001 75.255Z" fill="#4971D6" stroke="white" stroke-width="0.650375"/>
<path d="M173.124 115.794L167.72 115.859L156.634 115.821L145.546 115.563L139.39 115.325L133.241 115.015L127.451 114.664L128.206 103.216L128.934 91.1992H128.944L139.251 91.7954L146.924 92.109L160.508 92.3881H168.641L170.053 93.4185L170.822 93.3944L171.004 94.5247L170.185 95.9824L170.645 96.7198L171.401 98.3533L172.982 99.0701L173.043 107.441L173.124 115.794Z" fill="#1245C7" stroke="white" stroke-width="0.650375"/>
<path d="M245.35 98.728L245.57 99.4448L245.74 101.054L246.634 102.153L247.098 103.28L248.127 104.149L248.872 104.99L250.07 104.948L247.991 107.626L246.227 108.818L246.17 109.466L245.642 110.379L244.101 111.547L243.657 112.378L242.462 113.04L240.752 113.725L236.628 114.542L231.17 114.894L229.413 115.2L225.858 115.386L222.248 115.714L218.927 116.01L215.09 116.596L214.86 116.258L213.638 116.386L213.763 117.609L204.926 118.254L206.253 117.33L207.184 116.606L206.974 115.39L207.11 114.594L206.785 113.432L207.144 112.643L208.806 112.936L210.343 113.536L211.095 112.826L210.719 111.144L212.046 110.372L213.069 109.711L212.487 109.021L213.082 107.877L212.991 107.302L213.794 107.433L213.78 106.568L215.395 107.026L216.617 106.051L218.595 107.054L218.981 106.251L220.301 105.369L221.693 106.147L222.275 105.21L223.166 103.549L223.643 104.459L224.94 104.99L226.013 102.529L226.84 102.188L227.479 100.761L228.258 100.093L228.214 98.5867L229.66 98.697L230.513 97.8975L231.515 97.7597L231.702 97.1531L231.028 95.63L231.322 95.2199L233.378 95.1406L234.522 95.7506L236.33 97.291L237.664 97.6666L238.667 98.1663L240.058 97.7528L241.169 98.0491L242.388 97.4392L243.498 97.1394L244.128 98.1525L245.35 98.728Z" fill="#A3B6E6" stroke="white" stroke-width="0.650375"/>
<path d="M196.093 146.246L196.581 146.67L196.049 147.835L197.078 149.396L196.862 150.381L197.779 151.684L196.912 152.539L196.689 154.038L195.48 155.33L194.969 157.008L194.461 158.935L193.692 159.855L194.055 161.805L199.939 161.736L206.214 161.347L206.112 162.667L205.757 163.987L206.247 164.951L207.189 165.803L207.517 167.088L207.697 167.86L207.145 171.196L209.589 175.776L200.237 176.709L194.37 175.407L190.378 173.959L185.184 173.132L179.306 173.067L178.723 172.037L179.384 170.861L180.369 169.793L180.349 168.218L179.844 167.705L180.382 165.806L180.789 164.941L181.358 162.043L180.738 160.985L179.925 159.214L179.316 157.405L178.92 156.198L177.819 155.337L177.24 146.946L183.514 146.791L190.598 146.253L196.093 146.246Z" fill="#C9D5F4" stroke="white" stroke-width="0.650375"/>
<path d="M305.464 50.0078L306.528 54.0191L309.47 57.4789L311.813 56.9896L310.448 54.4188L312.582 55.5939L312.758 57.8718L309.365 60.1944L306.653 60.8182L306.182 59.712L305.072 59.0951L304.12 57.2342L301.811 57.9717L296.607 59.202L292.32 60.1772L292.205 54.6393L296.769 53.5642L303.402 51.7998L303.765 50.8935L304.78 50.0526L305.464 50.0078Z" fill="#C2D0EA" stroke="white" stroke-width="0.650375"/>
<path d="M283.504 81.0625L286.091 90.6771L290.012 89.7604L290.499 90.3704L288.823 93.5166L287.475 93.9543L287.127 94.5849L283.314 91.6282L281.818 85.9594L281.435 88.861L282.938 95.4499L278.906 93.9577L278.337 92.9584L277.443 93.496L276.573 93.2444L276.894 91.3973L277.751 90.4634L277.727 89.8224L278.347 88.9782L277.436 88.3475L277.037 88.8162L275.77 88.1959L274.44 87.996L274.7 87.0828L273.81 86.6693L272.899 86.59L272.246 85.7078L271.318 84.7602L269.398 84.5189L268.389 85.3219L267.861 86.018L266.08 86.049L265.45 87.0036L264.346 87.5308L263.503 88.606L262.728 89.4641L262.074 85.5527L267.482 84.5224L269.324 84.1398L273.441 83.2611L278.408 82.2307L283.504 81.0625Z" fill="#A0BCEF" stroke="white" stroke-width="0.650375"/>
<path d="M305.909 48.0442L305.357 48.2854L304.812 47.3068L303.501 46.4762L303.498 45.6733L298.998 32.113L300.796 30.1694L301.67 26.1857L301.551 19.8242L303.752 12.9286L306.027 14.3966L309.02 12.043L311.942 13.4903L315.166 23.7355L319.903 26.8473L321 30.0005L316.646 34.0566L312.044 37.4509L307.307 43.8159L305.909 48.0442Z" fill="#315DCF" stroke="white" stroke-width="0.650375"/>
<path d="M225.782 37.1863L227.583 37.1966L227.008 38.0616L230.065 40.8219L225.44 42.1487L225.257 42.1349L220.943 41.8247L216.924 43.8648L213.332 44.9538L210.62 50.2539L210.474 50.2125L210.471 50.2263L209.662 49.3682L209.949 48.069L208.747 48.1104L208.883 46.8147L209.157 46.153L208.581 45.0951L207.264 44.7126L206.858 43.4478L205.802 43.4375L204.281 43.5547L201.075 42.3864L196.287 41.3113L195.766 39.9225L194.912 39.7192L194.906 39.6951L194.584 39.8777L194.533 39.8398L194.581 39.8742L198.562 37.5929L202.626 34.7155L207.058 31.707L205.72 36.0112L208.812 36.7452L212.838 39.3746L217.381 37.1243L222.515 35.8285L223.889 37.8859L225.552 37.9961L225.782 37.1863ZM241.205 63.1525L241.08 63.2766L239.055 67.9357L238.195 70.8304L236.658 74.1008L234.514 74.4695L231.914 74.8175L228.995 75.2517L228.917 74.6452L223.54 75.331L217.375 75.9651L218.424 74.7659L220.341 70.7236L219.951 65.5683L217.591 60.9471L217.527 57.6078L218.563 53.6207L219.647 50.8431L221.617 48.7204L222.423 51.2808L222.938 47.3109L224.038 46.3701L224.438 43.3066L229.205 44.2783L233.607 46.7664L234.538 50.2401L234.528 53.8585L231.917 57.3941L232.459 59.3136L233.57 59.2275L236.525 55.3196L238.676 55.7952L240.331 60.1441L241.08 63.2801L241.205 63.1525Z" fill="#C2D0EA" stroke="white" stroke-width="0.650375"/>
<path d="M198.06 28.2816L198.056 28.285L192.889 31.2452L189.324 34.6155L185.884 38.1202L185.918 39.278L184.529 39.7777L184.763 44.1956H184.594L183.293 45.1191L182.169 45.9186L181.448 47.3936L182.64 48.8271L182.295 50.819L182.366 52.9521L182.257 54.6855L183.92 56.1363L184.58 56.1811L186.412 57.2218L187.055 57.7249L187.482 58.552L188.941 59.8339L190.878 60.8988L191.091 61.5363L191.203 63.4213L191.396 64.2966L184.038 64.493L175.851 64.7928L168.229 65.0099L162.098 65.003L162.209 57.6698L161.583 50.1401L160.635 49.5198L160.107 48.2999L160.408 47.235L161.627 46.3632L161.729 45.2191L161.739 43.7855L161.41 42.5863L160.97 41.3043L160.723 39.6985L160.672 37.8996L160.496 37.4654L160.3 35.1462L160.289 34.0813L160.195 33.1337L159.948 31.5278L159.328 29.8944L158.739 28.4367L158.668 26.9962L158.62 25.442L158.81 24.4289L158.854 23.5053L158.387 22.3543L158.322 21.5721L168.964 21.6031L168.947 18.5464L170.678 18.4844L171.646 22.8402L173.275 24.1601L176.897 24.5667L182.224 25.6591L187.367 27.8991L191.525 26.6413L198.056 28.2816H198.06Z" fill="#C2D0EA" stroke="white" stroke-width="0.650375"/>
<path d="M191.472 88.8464L191.055 90.8141L191.695 93.123L192.758 94.6772L193.96 95.9419L195.389 96.9137L195.958 97.2376L196.54 98.6919L196.713 99.991L197.414 100.277L198.518 99.7016L199.737 100.884L199.486 102.345L198.999 103.516L198.694 104.912L199.622 106.029L200.891 107.049L201.582 107.031L203.289 108.634L203.918 108.82L204.504 110.674L204.362 111.859L205.283 113.717L205.93 113.465L207.108 114.592L206.973 115.388L207.182 116.605L206.251 117.328L204.924 118.252L204.816 119.017L204.514 120.158L204.162 122.094L200.099 122.366L200.434 121.567L201.078 120.678L201.724 119.792L201.145 118.862L194.065 118.803L187.527 119.11L180.674 119.33L173.137 119.386L173.15 115.795H173.12L173.039 107.441L172.978 99.0709L171.397 98.3542L170.641 96.7207L170.181 95.9833L171 94.5256L170.818 93.3952L170.049 93.4194L168.637 92.389L167.858 90.7245L166.941 89.7286L165.949 88.4949L165.83 87.8505L171.088 87.816L176.337 87.7127L183.071 87.4576L189.46 87.0234L190.639 88.2365L191.472 88.8464Z" fill="#8CA6E8" stroke="white" stroke-width="0.650375"/>
<path d="M214.151 129.332L214.73 130.804L214.452 141.021L214.344 153.623L215.536 165.592L211.568 167.697L207.698 167.859L207.518 167.087L207.19 165.802L206.248 164.951L205.757 163.986L206.113 162.666L206.215 161.346L199.94 161.736L194.056 161.804L193.693 159.854L194.462 158.934L194.97 157.008L195.481 155.329L196.69 154.037L196.913 152.538L197.78 151.683L196.863 150.381L197.079 149.395L196.05 147.834L196.582 146.669L196.094 146.245L196.324 144.688L195.474 142.672L195.525 140.807L196.778 137.999L197.367 136.348L198.434 135.218L199.145 134.729L199.869 132.585L199.825 131.451L200.919 130.797L201 130.169L207.217 129.728L214.151 129.332Z" fill="#8CA3DD" stroke="white" stroke-width="0.650375"/>
<path d="M121.343 43.7585L120.435 50.9195L111.351 49.927L101.549 48.7933L93.1144 47.5355L82.4487 45.8951L81.8257 49.8374L81.6801 50.0959L81.1587 49.5686L80.8099 48.3901L80.258 48.0765L79.2219 49.479L77.9319 49.5066L74.9489 48.4659L74.6678 49.1999L72.9376 48.5831L71.739 49.4653L71.1498 47.2735L70.6927 46.0226L69.6296 45.616L69.4095 44.9888L69.4535 42.9039L68.6883 41.7495L68.5495 39.1856L68.1194 37.9967L67.5167 37.6521L66.7583 38.6273L65.5224 39.3269L64.7267 38.3654L65.0721 36.377L65.7899 36.0083L65.7493 33.9303L66.6703 32.004L67.5912 30.4119L66.0303 30.0087L64.913 28.5992L63.9649 25.8975L63.3521 24.5122L62.316 23.5162L61.6252 22.0689L61.93 20.6767L61.0293 18.3196L62.4108 10.0938L77.4544 13.2538L92.5963 15.9073L107.816 18.0542L123.097 19.6911L121.905 34.1819L121.343 43.7585Z" fill="#DCE5FC" stroke="white" stroke-width="0.650375"/>
<path d="M288.391 105.355L290.944 112.789L288.266 119.347L282.784 123.623L278.189 128.599L276.046 129.499L267.679 123.558L260.725 124.719L260.593 123.816L259.401 122.675L258.856 123.292L258.697 122.62L255.72 122.748L249.954 123.596L246.771 125.429L246.179 125.749L238.364 126.769L238.293 125.108L239.556 124.443L239.878 123.554L240.639 122.493L241.875 122.114L243.291 121.552L244.618 120.68L245.136 119.908L246.23 119.116L246.118 118.561L247.523 117.279L248.122 117.885L250.184 116.076L251.271 116.062L252.02 114.615L253.218 114.081L252.981 112.989L252.985 111.993L263.349 110.563L275.491 108.261L281.904 106.844L288.391 105.355Z" fill="#DCE5FC" stroke="white" stroke-width="0.650375"/>
<path d="M162.043 72.9346L162.293 73.7169L162.652 75.0091L162.635 75.657L163.675 77.1354L164.034 78.4311L164.074 80.2403L164.491 80.4953L164.874 81.4292L165.473 83.6864L165.602 85.0338L165.439 86.4329L165.828 87.8492L165.947 88.4937L166.939 89.7274L167.857 90.7233L168.635 92.3877H160.502L146.918 92.1086L139.245 91.795L128.939 91.1988H128.929L128.942 90.9473L129.453 83.3728L117.863 82.4561L119.177 66.8867L130.181 67.7586L138.646 68.2686L149.972 68.7235L151.408 69.7539L153.476 70.4293L153.971 70.0812L155.318 70.1364L157.343 70.0916L158.796 71.1185L160.347 71.787L160.6 72.4418L161.088 72.8209L162.043 72.9346Z" fill="#A0BCEF" stroke="white" stroke-width="0.650375"/>
<path d="M305.911 48.0406L305.465 50.0014L304.781 50.0462L303.765 50.8871L303.402 51.7934L296.769 53.5578L296.126 52.8893L296.302 51.79L295.916 49.7671L295.96 49.2468L295.676 47.4065L295.872 45.7317L296.14 44.9495L296.306 42.9783L296.106 41.7239L296.089 40.9382L297.023 40.2869L297.982 39.0739L297.938 38.0745L297.25 37.0993L297.311 34.8628L297.301 34.8594L297.318 32.8434L299.001 32.1094L303.501 45.6697L303.504 46.4727L304.814 47.3032L305.36 48.2818L305.911 48.0406Z" fill="#A0BCEF" stroke="white" stroke-width="0.650375"/>
<path d="M121.538 114.208L121.254 118.074L119.703 138.513L118.585 153.235L112.497 152.725L100.701 151.553L94.8128 150.877L94.806 151.553L95.3986 152.887L84.1132 151.443L83.602 154.647L78.3301 153.913L84.5568 110L94.1085 111.32L103.772 112.505L114.19 113.57L121.538 114.208Z" fill="#DCE5FC" stroke="white" stroke-width="0.650375"/>
<path d="M61.8418 66.4108L54.2945 104.724L53.1196 110.9L52.8047 111.1L52.1682 112.185L51.3962 111.71L50.333 110.92L49.0497 110.652L48.4369 111.506L48.7687 112.671L48.4301 114.318L48.254 115.831L48.2506 117.396L47.5633 118.819L39.3524 106.84L30.9519 94.1828L22.5176 81.0532L28.5344 58.4297L45.0645 62.6477L45.0712 62.627L61.8418 66.4108Z" fill="#6889DE" stroke="white" stroke-width="0.650375"/>
<path d="M292.204 54.6348L292.32 60.1727L293.447 66.0552L294.05 66.5859L293.007 67.6404L293.437 68.5157L301.15 65.3935L303.192 66.3688L295.871 70.7522L292.259 71.693L292.035 69.0705L286.993 67.1372L285.957 66.8202L284.877 66.5204L284.258 65.5003L284.214 64.625L283.387 64.0943L281.898 63.1846L274.289 64.8973L266.106 66.6238L257.316 68.3192L256.943 66.2309L260.915 60.7344L260.671 60.0176L260.668 59.997L259.496 57.919L262.195 56.3889L266.583 55.7962L271.225 55.4757L274.801 52.0365L273.829 49.128L272.952 48.0735L272.928 48.0666L272.932 48.0632L272.955 48.0735L277.374 41.5673L279.463 39.5824L287.539 37.5078L287.816 39.0792L287.847 40.1165L288.541 42.3427L289.127 43.4282L288.978 45.1409L289.97 47.0018L289.899 48.1941L290.071 48.456L290.864 48.3113L292.204 54.6348Z" fill="#A3B6E6" stroke="white" stroke-width="0.650375"/>
<path d="M254.795 79.5701L254.061 80.0939L254.47 81.0312L254.497 82.8542L254.233 84.9632L253.942 86.7242L253.976 87.534L252.669 89.5637L252.049 90.0531L251.291 90.4011L250.553 90.346L249.446 91.8864L249.422 93.3165L249.354 94.0988L248.873 94.4882L248.667 93.6405L247.837 93.5784L247.255 95.3842L247.418 97.1107L246.801 98.303L245.349 98.7269L244.126 98.1514L243.497 97.1382L242.386 97.438L241.167 98.048L240.057 97.7516L238.665 98.1652L237.663 97.6655L236.329 97.2899L234.52 95.7495L233.376 95.1395L231.321 95.2188L230.705 89.8394L229.831 82.2822L228.998 75.2556L231.917 74.8214L234.517 74.4733L236.66 74.1012V74.1046L240.409 75.197L243.317 75.1626L247.296 73.4774L250.323 70.7826L253.065 69.2422L254.795 79.5701Z" fill="#315DCF" stroke="white" stroke-width="0.650375"/>
<path d="M173.137 119.383L174.508 127.629L174.501 135.245L174.43 142.103L171.64 140.607L169.832 139.794L168.376 140.335L166.117 140.262L164.78 140.276L163.68 140.914L162.603 141.238L161.662 140.848L159.512 141.258L158.55 139.942L157.534 141.062L155.787 140.531L154.009 139.284L152.066 140.028L151.267 138.122L148.28 138.229L146.388 137.75L144.261 137.12L143.371 135.462L141.674 135.92L140.662 135.238L139.179 134.332L139.504 126.867L139.833 119.214L133.636 118.9L127.44 118.521L121.254 118.07L121.538 114.203L127.447 114.661L133.237 115.013L139.386 115.323L145.541 115.561L156.63 115.819L167.716 115.857L173.12 115.792H173.15L173.137 119.383Z" fill="#315DCF" stroke="white" stroke-width="0.650375"/>
<path d="M52.7443 32.2042L53.6484 33.9755L54.3933 34.806L54.4136 36.0362L53.6518 36.9115L52.487 38.7173L51.1597 41.0124L49.6564 42.2495L48.4984 43.8037L48.2004 45.0236L49.0909 45.7817L49.2975 46.8845L48.3223 48.9418L45.0718 62.6296L45.0651 62.6503L28.535 58.4323L5.35827 51.4092L4.93164 46.6536L9.10311 39.1928L12.1267 30.8843L16.5996 19.8672L17.6932 20.105L19.2473 20.6426L20.2868 21.7212L21.6514 22.6206L22.1796 24.3574L21.9392 25.6635L22.0103 26.8386L23.1276 27.4934L24.4143 27.8587L26.6591 27.6622L27.9086 27.7691L29.6794 28.6375L30.3904 29.2715L31.5586 29.3163L32.9163 29.0407L35.2459 29.8022L37.4095 29.4955L38.5912 29.1544L39.8372 29.847L41.9162 29.5472L52.7443 32.2042Z" fill="#315DCF" stroke="white" stroke-width="0.650375"/>
<path d="M286.991 67.1363L286.382 67.6394L285.789 69.5795L285.038 70.4652L285.569 71.3853L285.119 72.4742L285.373 73.7045L286.047 73.7941L286.331 74.5763L288.59 76.1133L288.044 77.1196L286.914 78.4532L286.609 79.0252L285.586 80.0005L284.256 79.8971L283.812 80.3589L283.504 81.0619L278.408 82.2301L273.441 83.2605L269.324 84.1392L267.482 84.5217L262.074 85.5521L255.993 86.6549L254.795 79.5663L253.064 69.2384L256.931 66.2437L256.941 66.2299L257.314 68.3183L266.104 66.6228L274.287 64.8963L281.896 63.1836L283.385 64.0934L284.212 64.6241L284.256 65.4994L284.875 66.5194L285.955 66.8192L286.991 67.1363Z" fill="#A0BCEF" stroke="white" stroke-width="0.650375"/>
<path d="M306.652 60.8183L302.918 63.2857L302.962 62.0865L301.811 57.9718L304.12 57.2344L305.071 59.0953L306.182 59.7121L306.652 60.8183Z" fill="#315DCF" stroke="white" stroke-width="0.650375"/>
<path d="M276.048 129.499L274.575 135.396L269.859 141.226L263.778 146.347L262.599 146.137L261.956 145.951L261.729 144.473L260.856 143.125L259.518 142.477L259.65 141.871L259.132 141.075L258.394 139.379L256.102 138.146L255.073 136.419L253.369 135.396L252.787 134.5L250.302 133.001L249.347 131.739L247.82 129.462L246.658 129.151L244.779 128.107L245.582 126.494L246.181 125.75L246.774 125.43L249.956 123.596L255.723 122.749L258.699 122.621L258.858 123.293L259.403 122.676L260.595 123.817L260.727 124.72L267.682 123.558L276.048 129.499Z" fill="#8CA3DD" stroke="white" stroke-width="0.650375"/>
<path d="M162.098 64.9995H161.353L161.333 66.9121L162.048 67.9562L161.909 68.8074L161.607 70.0618L161.143 71.3437L162.058 72.219L162.048 72.9358L161.093 72.8221L160.605 72.443L160.351 71.7883L158.8 71.1197L157.348 70.0928L155.323 70.1376L153.975 70.0824L153.481 70.4305L151.412 69.7551L149.977 68.7247L138.651 68.2698L130.186 67.7598L119.182 66.8879L120.434 50.9188L121.342 43.7578L131.628 44.5401L142.683 45.1362L151.453 45.474L161.729 45.2155L161.628 46.3596L160.409 47.2315L160.107 48.2963L160.636 49.5162L161.584 50.1365L162.21 57.6662L162.098 64.9995Z" fill="#8CA3DD" stroke="white" stroke-width="0.650375"/>
<path d="M240.751 113.723L249.903 112.641L252.984 111.996L252.981 112.992L253.218 114.084L252.019 114.619L251.271 116.066L250.184 116.08L248.122 117.889L247.523 117.282L246.118 118.564L246.229 119.119L245.136 119.912L244.618 120.684L243.29 121.556L241.875 122.117L240.639 122.496L239.877 123.558L239.556 124.447L238.293 125.112L238.364 126.773L235.022 127.283L230.166 127.8L222.074 128.582L214.151 129.33L207.217 129.726L201 130.167L201.674 129.392L201.454 127.124L202.381 126.032L202.537 124.722L203.583 123.889L204.142 122.744L204.162 122.093L204.515 120.156L204.816 119.016L204.924 118.251L213.762 117.606L213.636 116.383L214.859 116.255L215.089 116.593L218.925 116.007L222.247 115.711L225.856 115.384L229.411 115.198L231.169 114.891L236.627 114.539L240.751 113.723Z" fill="#1245C7" stroke="white" stroke-width="0.650375"/>
<path d="M174.43 142.107L174.779 142.614L176.028 142.486H177.521L177.24 146.946L177.819 155.337L178.92 156.198L179.316 157.404L179.925 159.214L180.738 160.985L181.358 162.043L180.789 164.941L180.383 165.806L179.844 167.705L180.349 168.218L180.369 169.793L179.384 170.861L178.723 172.036L179.306 173.067L173.543 174.838L167.381 180.765L160.538 184.177L156.725 187.93L155.076 191.483L154.927 196.976L155.222 200.811L156.532 203.551L153.756 203.747L148.751 201.883L143.303 199.243L141.458 195.428L140.127 189.801L136.22 185.101L134.056 180.345L130.911 174.749L126.313 171.32L120.777 171.096L116.04 177.002L110.585 174.159L107.294 171.457L106.021 166.971L104.196 162.649L100.597 158.786L97.4849 155.94L95.3992 152.887L94.8066 151.553L94.8134 150.877L100.702 151.553L112.498 152.725L118.586 153.235L119.703 138.513L121.254 118.074L127.44 118.526L133.636 118.905L139.833 119.218L139.504 126.872L139.179 134.336L140.662 135.243L141.675 135.925L143.371 135.467L144.261 137.124L146.388 137.755L148.281 138.234L151.267 138.127L152.066 140.033L154.01 139.288L155.787 140.536L157.534 141.066L158.55 139.947L159.512 141.263L161.662 140.853L162.603 141.242L163.68 140.918L164.78 140.281L166.118 140.267L168.376 140.339L169.832 139.798L171.64 140.612L174.43 142.107Z" fill="#8CA6E8" stroke="white" stroke-width="0.650375"/>
<path d="M272.897 86.5938L273.805 86.6765L274.699 87.0865L274.435 87.9997L275.765 88.1996L277.035 88.8199L277.658 89.3713L277.722 89.8262L277.746 90.4671L276.893 91.401L276.571 93.2481L277.441 93.4963L278.335 92.9587L278.904 93.9615L283.553 97.4144L285.496 100.805L285.615 101.012L288.391 105.358L281.904 106.846L275.494 108.263L263.349 110.565L252.985 111.998L249.904 112.643L240.748 113.725L242.461 113.036L243.657 112.374L244.097 111.54L245.637 110.375L246.169 109.462L246.226 108.814L247.991 107.622L250.066 104.941L250.537 106.209L251.326 106.798L252.345 107.27L254.109 106.026L254.925 106.447L257.078 105.42L257.095 104.706L257.823 104.861L258.477 104.169L259.337 104.131L260.193 103.366L260.204 102.639L259.943 101.767L260.525 100.288L261.507 99.0755L261.602 97.8866L262.381 96.3324L262.652 94.5542L263.546 95.0022L264.527 95.3847L265.327 94.9264L265.482 94.1717L265.889 93.1068L266.342 91.8904L266.83 92.1282L267.517 90.9668L268.479 89.7366L269.061 88.8303L269.129 86.6971L272.525 88.1652L272.897 86.5938ZM286.221 100.202L286.834 100.382L288.825 93.5204L287.474 93.958L287.125 94.5852L286.221 100.202Z" fill="#315DCF" stroke="white" stroke-width="0.650375"/>
<path d="M296.767 53.5617L292.203 54.6369L290.862 48.3133L290.07 48.4581L289.897 48.1962L289.968 47.0038L288.976 45.1429L289.125 43.4302L288.539 42.3447L287.845 40.1186L287.815 39.0813L287.537 37.5099L297.299 34.8633L297.309 34.8667L297.248 37.1032L297.935 38.0785L297.979 39.0778L297.021 40.2909L296.087 40.9422L296.104 41.7279L296.303 42.9823L296.137 44.9534L295.87 45.7357L295.673 47.4105L295.958 49.2507L295.914 49.771L296.3 51.7939L296.124 52.8932L296.767 53.5617Z" fill="#315DCF" stroke="white" stroke-width="0.650375"/>
<path d="M57.4755 8.94939L55.2171 18.8121L52.8875 29.5639L53.0975 30.8492L52.7385 32.2036L41.9104 29.5466L39.8314 29.8464L38.5854 29.1538L37.4037 29.4949L35.2401 29.8016L32.9105 29.0401L31.5528 29.3157L30.3846 29.2709L29.6736 28.6369L27.9028 27.7684L26.6533 27.6616L24.4085 27.858L23.1218 27.4928L22.0045 26.838L21.9334 25.6629L22.1738 24.3568L21.6456 22.62L20.281 21.7206L19.2415 20.6419L17.6874 20.1044L16.5938 19.8666L17.1694 13.1639L18.6355 5.64459L25.1601 9.24575L25.6173 15.8691L27.4592 14.2495L28.4851 7.78117L28.0043 0.789062L42.6722 5.12424L57.4755 8.94939Z" fill="#6889DE" stroke="white" stroke-width="0.650375"/>
<path d="M194.535 39.8406L194.586 39.8785L194.904 39.6924L194.911 39.7165L195.768 39.9233L196.289 41.312L201.074 42.3838L204.283 43.552L205.8 43.4383L206.857 43.4486L207.263 44.7133L208.584 45.0958L209.159 46.1538L208.885 46.8154L208.749 48.1112L209.951 48.0698L209.664 49.369L210.473 50.2271L210.476 50.2133L210.622 50.2546L210.578 50.3339L208.685 53.3561L209.511 54.2142L213.06 48.7866L213.876 48.6763L211.611 54.9792L210.859 60.5446L210.192 65.0624L211.235 68.8221L211.255 70.7381H211.235L211.238 70.7588L206.863 71.0724L200.935 71.517L195.135 71.896L194.515 70.7347L192.622 70.0903L192.192 68.8669L191.925 68.1812L191.82 66.5374L192.29 65.9171L191.495 64.7144L191.393 64.2905L191.2 63.4152L191.088 61.5302L190.875 60.8927L188.938 59.8278L187.479 58.5459L187.052 57.7188L186.409 57.2157L184.577 56.175L183.917 56.1302L182.255 54.6794L182.363 52.946L182.292 50.8129L182.637 48.821L181.445 47.3875L182.167 45.9126L183.291 45.1131L184.591 44.1895H184.76L184.527 39.7716L185.915 39.272L191.166 37.3594L194.535 39.8406Z" fill="#DCE5FC" stroke="white" stroke-width="0.650375"/>
<path d="M262.074 85.5562L262.728 89.4675L263.503 88.6094L264.346 87.5342L265.45 87.007L266.08 86.0524L267.861 86.0214L268.389 85.3253L269.398 84.5223L271.318 84.7636L272.245 85.7112L272.899 86.5934L272.53 88.1683L269.134 86.7003L269.066 88.8334L268.484 89.7397L267.522 90.97L266.835 92.1313L266.347 91.8935L265.89 93.1065L265.484 94.1748L265.328 94.9261L264.532 95.3844L263.547 95.0019L262.653 94.5539L262.382 96.3321L261.603 97.8862L261.509 99.0751L260.53 100.288L259.944 101.767L260.198 102.652L260.188 103.379L259.335 104.144L258.475 104.182L257.821 104.875L257.093 104.716L257.077 105.43L254.923 106.457L254.107 106.033L252.343 107.277L251.327 106.805L250.535 106.215L250.068 104.947L248.869 104.989L248.124 104.148L247.095 103.279L246.631 102.152L245.737 101.053L245.568 99.4439L245.348 98.7271L246.8 98.3032L247.416 97.1109L247.254 95.3844L247.836 93.5786L248.666 93.6407L248.872 94.4884L249.353 94.099L249.421 93.3167L249.445 91.8866L250.552 90.3462L251.29 90.4013L252.048 90.0533L252.668 89.564L253.975 87.5342L253.941 86.7244L254.232 84.9634L254.496 82.8544L254.469 81.0314L254.06 80.0941L254.794 79.5703L255.993 86.6589L262.074 85.5562Z" fill="#315DCF" stroke="white" stroke-width="0.650375"/>
<path d="M120.432 50.915L119.18 66.8842L117.866 82.4536L112.059 81.8988L100.469 80.5961L94.6858 79.8449L88.906 79.0316L77.4277 77.0053L78.6873 69.4963L81.8498 50.2637L81.6771 50.0914L81.8227 49.8329L82.4457 45.8906L93.1114 47.531L101.546 48.7888L111.348 49.9225L120.432 50.915Z" fill="#C9D5F4" stroke="white" stroke-width="0.650375"/>
<path d="M291.7 68.9931C291.761 69.0168 291.795 69.0822 291.779 69.1457L290.809 73.0451C290.789 73.128 290.852 73.2079 290.938 73.2065L292.124 73.1873C292.194 73.1861 292.252 73.2402 292.256 73.3098L292.577 78.8609C292.578 78.8802 292.575 78.8994 292.567 78.9173L289.902 85.4826C289.859 85.5876 289.712 85.5917 289.664 85.4892L288.951 83.98C288.931 83.9373 288.889 83.9088 288.842 83.9057L287.62 83.8244C287.591 83.8224 287.563 83.8105 287.541 83.7905L285.823 82.2167C285.785 82.1824 285.731 82.1731 285.685 82.1927L285.409 82.3088C285.339 82.3382 285.259 82.3018 285.235 82.2298L284.827 80.9966C284.814 80.9585 284.82 80.9167 284.842 80.8834L285.464 79.9539C285.469 79.9463 285.475 79.9392 285.482 79.9328L286.462 78.9838C286.472 78.9742 286.48 78.963 286.486 78.9508L286.77 78.4107C286.774 78.4025 286.779 78.3948 286.785 78.3878L287.879 77.0779C287.884 77.0711 287.889 77.0636 287.894 77.0558L288.368 76.1658C288.4 76.1075 288.382 76.0351 288.328 75.9976L286.238 74.5536C286.216 74.5381 286.199 74.516 286.19 74.4904L285.951 73.8237C285.935 73.7779 285.894 73.7451 285.846 73.7386L285.354 73.6722C285.299 73.6647 285.255 73.6234 285.244 73.5692L285.021 72.4707C285.016 72.4455 285.018 72.4195 285.028 72.3957L285.432 71.404C285.447 71.367 285.444 71.3253 285.424 71.2906L284.978 70.5058C284.951 70.4586 284.956 70.3997 284.991 70.3581L285.655 69.564C285.666 69.5505 285.674 69.5349 285.679 69.518L286.243 67.6448C286.25 67.6205 286.264 67.5988 286.284 67.5825L286.794 67.1549C286.83 67.1244 286.88 67.1162 286.924 67.1334L291.7 68.9931Z" fill="#4971D6" stroke="white" stroke-width="0.650375"/>
<path d="M128.853 91.41L128.13 103.642L127.381 115.295L121.517 114.828L114.226 114.18L103.886 113.096L94.2958 111.889L84.8164 110.545L89.131 79.0273L94.867 79.8552L100.606 80.6199L112.109 81.9459L117.872 82.5106L129.374 83.4437L128.866 91.154L128.853 91.41Z" fill="#8CA3DD" stroke="white" stroke-width="0.650375"/>
<path d="M158.984 21.4377L159.051 22.2708L159.536 23.4966L159.491 24.4802L159.294 25.5593L159.343 27.2145L159.417 28.7486L160.029 30.301L160.673 32.0407L160.929 33.7509L161.028 34.7602L161.038 35.8943L161.242 38.3643L161.425 38.8267L161.478 40.7425L161.735 42.4528L162.192 43.8181L162.533 45.0953L162.523 46.622L151.847 46.8973L142.737 46.5376L131.252 45.9027L120.566 45.0696L121.15 34.8703L122.388 19.4375L140.831 20.8101L158.984 21.4377Z" fill="#A0BCEF" stroke="white" stroke-width="0.650375"/>
</g>
</svg>
