<svg width="672" height="438" viewBox="0 0 672 438" fill="none" xmlns="http://www.w3.org/2000/svg">
<path d="M648.431 99.7291L625.825 114.611L607.712 98.8481L630.318 83.9663L648.431 99.7291Z" fill="#FABF00"/>
<path d="M648.431 99.7291L625.825 114.611L607.712 98.8481L630.318 83.9663L648.431 99.7291Z" fill="black" fill-opacity="0.2"/>
<path d="M607.714 98.8444L605.09 79.4527L627.695 64.5712L630.32 83.9626L607.714 98.8444Z" fill="#FABF00"/>
<path d="M630.32 83.965L627.695 64.5737L645.808 80.3365L648.433 99.7279L630.32 83.965Z" fill="#FABF00"/>
<path d="M630.32 83.965L627.695 64.5737L645.808 80.3365L648.433 99.7279L630.32 83.965Z" fill="black" fill-opacity="0.1"/>
<path d="M298.839 422.555L294.429 425.458L290.894 422.383L295.305 419.479L298.839 422.555Z" fill="#FABF00"/>
<path d="M298.839 422.555L294.429 425.458L290.894 422.383L295.305 419.479L298.839 422.555Z" fill="black" fill-opacity="0.2"/>
<path d="M290.895 422.383L290.383 418.599L294.794 415.696L295.306 419.479L290.895 422.383Z" fill="#FABF00"/>
<path d="M295.305 419.481L294.793 415.697L298.328 418.773L298.84 422.557L295.305 419.481Z" fill="#FABF00"/>
<path d="M295.305 419.481L294.793 415.697L298.328 418.773L298.84 422.557L295.305 419.481Z" fill="black" fill-opacity="0.1"/>
<path d="M380.879 422.618L363.004 434.386L348.681 421.922L366.556 410.154L380.879 422.618Z" fill="#FABF00"/>
<path d="M380.879 422.618L363.004 434.386L348.681 421.922L366.556 410.154L380.879 422.618Z" fill="black" fill-opacity="0.2"/>
<path d="M348.68 421.923L346.605 406.589L364.479 394.822L366.555 410.156L348.68 421.923Z" fill="#FABF00"/>
<path d="M366.555 410.162L364.48 394.828L378.802 407.293L380.878 422.626L366.555 410.162Z" fill="#FABF00"/>
<path d="M366.555 410.162L364.48 394.828L378.802 407.293L380.878 422.626L366.555 410.162Z" fill="black" fill-opacity="0.1"/>
<path d="M401.723 76.3608L387.503 85.7217L376.11 75.8067L390.33 66.4458L401.723 76.3608Z" fill="#FABF00"/>
<path d="M401.723 76.3608L387.503 85.7217L376.11 75.8067L390.33 66.4458L401.723 76.3608Z" fill="black" fill-opacity="0.2"/>
<path d="M376.111 75.8051L374.46 63.6074L388.679 54.2468L390.33 66.4442L376.111 75.8051Z" fill="#FABF00"/>
<path d="M390.331 66.4437L388.68 54.2463L400.073 64.1613L401.724 76.3588L390.331 66.4437Z" fill="#FABF00"/>
<path d="M390.331 66.4437L388.68 54.2463L400.073 64.1613L401.724 76.3588L390.331 66.4437Z" fill="black" fill-opacity="0.1"/>
<path d="M445.512 31.6082L439.904 35.3005L435.41 31.3897L441.019 27.6974L445.512 31.6082Z" fill="#FABF00"/>
<path d="M445.512 31.6082L439.904 35.3005L435.41 31.3897L441.019 27.6974L445.512 31.6082Z" fill="black" fill-opacity="0.2"/>
<path d="M435.41 31.388L434.759 26.5769L440.367 22.8847L441.018 27.6958L435.41 31.388Z" fill="#FABF00"/>
<path d="M441.017 27.6976L440.366 22.8866L444.86 26.7974L445.511 31.6084L441.017 27.6976Z" fill="#FABF00"/>
<path d="M441.017 27.6976L440.366 22.8866L444.86 26.7974L445.511 31.6084L441.017 27.6976Z" fill="black" fill-opacity="0.1"/>
</svg>
