<svg width="680" height="438" viewBox="0 0 680 438" fill="none" xmlns="http://www.w3.org/2000/svg">
<g filter="url(#filter0_bd_1312_4613)">
<rect x="359" y="194" width="286.886" height="141" rx="4.88614" fill="white" fill-opacity="0.79" shape-rendering="crispEdges"/>
</g>
<path d="M379.691 217.796C379.337 217.796 379.002 217.74 378.686 217.628C378.374 217.512 378.123 217.358 377.932 217.168L378.176 216.77C378.335 216.933 378.546 217.068 378.812 217.175C379.081 217.282 379.375 217.335 379.691 217.335C380.096 217.335 380.405 217.247 380.619 217.07C380.838 216.893 380.947 216.656 380.947 216.358C380.947 216.06 380.84 215.823 380.626 215.646C380.417 215.469 380.084 215.381 379.628 215.381H379.279V215.011L380.787 213.119L380.857 213.314H378.134V212.868H381.276V213.224L379.768 215.115L379.523 214.955H379.712C380.298 214.955 380.736 215.085 381.024 215.346C381.317 215.606 381.464 215.941 381.464 216.351C381.464 216.625 381.399 216.872 381.269 217.091C381.138 217.31 380.94 217.482 380.675 217.607C380.415 217.733 380.087 217.796 379.691 217.796ZM382.088 216.47V216.107L384.678 212.868H385.236L382.668 216.107L382.396 216.023H386.325V216.47H382.088ZM384.846 217.754V216.47L384.86 216.023V214.892H385.348V217.754H384.846ZM387.232 217.754L390.568 212.868H390.98L387.644 217.754H387.232ZM387.609 215.485C387.39 215.485 387.197 215.432 387.029 215.325C386.862 215.213 386.732 215.057 386.638 214.857C386.55 214.657 386.506 214.424 386.506 214.159C386.506 213.894 386.55 213.661 386.638 213.461C386.732 213.261 386.862 213.107 387.029 213C387.197 212.889 387.39 212.833 387.609 212.833C387.827 212.833 388.018 212.889 388.181 213C388.349 213.107 388.479 213.261 388.572 213.461C388.665 213.661 388.712 213.894 388.712 214.159C388.712 214.424 388.665 214.657 388.572 214.857C388.479 215.057 388.349 215.213 388.181 215.325C388.018 215.432 387.827 215.485 387.609 215.485ZM387.609 215.171C387.837 215.171 388.018 215.083 388.153 214.906C388.293 214.724 388.363 214.476 388.363 214.159C388.363 213.843 388.293 213.596 388.153 213.419C388.018 213.238 387.837 213.147 387.609 213.147C387.376 213.147 387.192 213.238 387.057 213.419C386.922 213.596 386.855 213.843 386.855 214.159C386.855 214.476 386.922 214.724 387.057 214.906C387.192 215.083 387.376 215.171 387.609 215.171ZM390.603 217.789C390.389 217.789 390.198 217.735 390.031 217.628C389.863 217.517 389.733 217.361 389.64 217.161C389.547 216.96 389.5 216.728 389.5 216.463C389.5 216.197 389.547 215.965 389.64 215.765C389.733 215.564 389.863 215.411 390.031 215.304C390.198 215.192 390.389 215.136 390.603 215.136C390.827 215.136 391.02 215.192 391.183 215.304C391.35 215.411 391.478 215.564 391.567 215.765C391.66 215.965 391.706 216.197 391.706 216.463C391.706 216.728 391.66 216.96 391.567 217.161C391.478 217.361 391.35 217.517 391.183 217.628C391.02 217.735 390.827 217.789 390.603 217.789ZM390.603 217.475C390.831 217.475 391.013 217.386 391.148 217.209C391.287 217.028 391.357 216.779 391.357 216.463C391.357 216.146 391.287 215.9 391.148 215.723C391.013 215.541 390.831 215.45 390.603 215.45C390.375 215.45 390.191 215.541 390.052 215.723C389.917 215.9 389.849 216.146 389.849 216.463C389.849 216.779 389.917 217.028 390.052 217.209C390.191 217.386 390.375 217.475 390.603 217.475Z" fill="#82878E"/>
<g filter="url(#filter1_b_1312_4613)">
<path d="M396.336 212.145H624.588C626.13 212.145 627.38 213.395 627.38 214.937C627.38 216.479 626.13 217.729 624.588 217.729H396.336V212.145Z" fill="#BCC5D0" fill-opacity="0.17"/>
</g>
<path d="M396.336 212.145H481.494C483.036 212.145 484.286 213.395 484.286 214.937C484.286 216.479 483.036 217.729 481.494 217.729H396.336V212.145Z" fill="#88B2FF"/>
<path d="M378.271 234.504V234.148L380.302 232.159C380.488 231.977 380.628 231.819 380.721 231.684C380.814 231.544 380.877 231.414 380.909 231.293C380.942 231.172 380.958 231.058 380.958 230.951C380.958 230.667 380.861 230.444 380.665 230.281C380.474 230.118 380.19 230.037 379.814 230.037C379.525 230.037 379.269 230.081 379.046 230.169C378.827 230.258 378.639 230.395 378.48 230.581L378.124 230.274C378.315 230.051 378.559 229.878 378.857 229.757C379.155 229.636 379.488 229.576 379.855 229.576C380.186 229.576 380.472 229.629 380.714 229.736C380.956 229.839 381.142 229.99 381.272 230.19C381.407 230.39 381.475 230.625 381.475 230.895C381.475 231.053 381.452 231.209 381.405 231.363C381.363 231.516 381.284 231.679 381.168 231.851C381.056 232.019 380.891 232.21 380.672 232.424L378.808 234.253L378.669 234.057H381.698V234.504H378.271ZM382.088 233.22V232.857L384.678 229.618H385.236L382.668 232.857L382.396 232.773H386.325V233.22H382.088ZM384.846 234.504V233.22L384.86 232.773V231.642H385.348V234.504H384.846ZM387.232 234.504L390.568 229.618H390.98L387.644 234.504H387.232ZM387.609 232.235C387.39 232.235 387.197 232.182 387.029 232.075C386.862 231.963 386.732 231.807 386.638 231.607C386.55 231.407 386.506 231.174 386.506 230.909C386.506 230.644 386.55 230.411 386.638 230.211C386.732 230.011 386.862 229.857 387.029 229.75C387.197 229.639 387.39 229.583 387.609 229.583C387.827 229.583 388.018 229.639 388.181 229.75C388.349 229.857 388.479 230.011 388.572 230.211C388.665 230.411 388.712 230.644 388.712 230.909C388.712 231.174 388.665 231.407 388.572 231.607C388.479 231.807 388.349 231.963 388.181 232.075C388.018 232.182 387.827 232.235 387.609 232.235ZM387.609 231.921C387.837 231.921 388.018 231.833 388.153 231.656C388.293 231.474 388.363 231.226 388.363 230.909C388.363 230.593 388.293 230.346 388.153 230.169C388.018 229.988 387.837 229.897 387.609 229.897C387.376 229.897 387.192 229.988 387.057 230.169C386.922 230.346 386.855 230.593 386.855 230.909C386.855 231.226 386.922 231.474 387.057 231.656C387.192 231.833 387.376 231.921 387.609 231.921ZM390.603 234.539C390.389 234.539 390.198 234.485 390.031 234.378C389.863 234.267 389.733 234.111 389.64 233.911C389.547 233.71 389.5 233.478 389.5 233.213C389.5 232.947 389.547 232.715 389.64 232.515C389.733 232.314 389.863 232.161 390.031 232.054C390.198 231.942 390.389 231.886 390.603 231.886C390.827 231.886 391.02 231.942 391.183 232.054C391.35 232.161 391.478 232.314 391.567 232.515C391.66 232.715 391.706 232.947 391.706 233.213C391.706 233.478 391.66 233.71 391.567 233.911C391.478 234.111 391.35 234.267 391.183 234.378C391.02 234.485 390.827 234.539 390.603 234.539ZM390.603 234.225C390.831 234.225 391.013 234.136 391.148 233.959C391.287 233.778 391.357 233.529 391.357 233.213C391.357 232.896 391.287 232.65 391.148 232.473C391.013 232.291 390.831 232.2 390.603 232.2C390.375 232.2 390.191 232.291 390.052 232.473C389.917 232.65 389.849 232.896 389.849 233.213C389.849 233.529 389.917 233.778 390.052 233.959C390.191 234.136 390.375 234.225 390.603 234.225Z" fill="#82878E"/>
<g filter="url(#filter2_b_1312_4613)">
<path d="M396.336 228.898H624.588C626.13 228.898 627.38 230.148 627.38 231.691C627.38 233.233 626.13 234.483 624.588 234.483H396.336V228.898Z" fill="#BCC5D0" fill-opacity="0.17"/>
</g>
<path d="M396.336 228.898H462.648C464.19 228.898 465.44 230.148 465.44 231.691C465.44 233.233 464.19 234.483 462.648 234.483H396.336V228.898Z" fill="#3BBDC4"/>
<path d="M379.996 251.262V250.906L382.027 248.916C382.213 248.735 382.353 248.577 382.446 248.442C382.539 248.302 382.601 248.172 382.634 248.051C382.667 247.93 382.683 247.816 382.683 247.709C382.683 247.425 382.585 247.202 382.39 247.039C382.199 246.876 381.915 246.794 381.538 246.794C381.25 246.794 380.994 246.839 380.77 246.927C380.552 247.015 380.363 247.153 380.205 247.339L379.849 247.032C380.04 246.808 380.284 246.636 380.582 246.515C380.88 246.394 381.212 246.334 381.58 246.334C381.91 246.334 382.197 246.387 382.439 246.494C382.681 246.597 382.867 246.748 382.997 246.948C383.132 247.148 383.199 247.383 383.199 247.653C383.199 247.811 383.176 247.967 383.13 248.121C383.088 248.274 383.009 248.437 382.892 248.609C382.781 248.777 382.615 248.968 382.397 249.182L380.533 251.01L380.393 250.815H383.423V251.262H379.996ZM384.905 251.262V246.585L385.128 246.822H383.753V246.376H385.408V251.262H384.905ZM387.232 251.262L390.568 246.376H390.98L387.644 251.262H387.232ZM387.609 248.993C387.39 248.993 387.197 248.94 387.029 248.833C386.862 248.721 386.732 248.565 386.638 248.365C386.55 248.165 386.506 247.932 386.506 247.667C386.506 247.402 386.55 247.169 386.638 246.969C386.732 246.769 386.862 246.615 387.029 246.508C387.197 246.397 387.39 246.341 387.609 246.341C387.827 246.341 388.018 246.397 388.181 246.508C388.349 246.615 388.479 246.769 388.572 246.969C388.665 247.169 388.712 247.402 388.712 247.667C388.712 247.932 388.665 248.165 388.572 248.365C388.479 248.565 388.349 248.721 388.181 248.833C388.018 248.94 387.827 248.993 387.609 248.993ZM387.609 248.679C387.837 248.679 388.018 248.591 388.153 248.414C388.293 248.232 388.363 247.983 388.363 247.667C388.363 247.35 388.293 247.104 388.153 246.927C388.018 246.746 387.837 246.655 387.609 246.655C387.376 246.655 387.192 246.746 387.057 246.927C386.922 247.104 386.855 247.35 386.855 247.667C386.855 247.983 386.922 248.232 387.057 248.414C387.192 248.591 387.376 248.679 387.609 248.679ZM390.603 251.297C390.389 251.297 390.198 251.243 390.031 251.136C389.863 251.024 389.733 250.869 389.64 250.668C389.547 250.468 389.5 250.236 389.5 249.97C389.5 249.705 389.547 249.472 389.64 249.272C389.733 249.072 389.863 248.919 390.031 248.812C390.198 248.7 390.389 248.644 390.603 248.644C390.827 248.644 391.02 248.7 391.183 248.812C391.35 248.919 391.478 249.072 391.567 249.272C391.66 249.472 391.706 249.705 391.706 249.97C391.706 250.236 391.66 250.468 391.567 250.668C391.478 250.869 391.35 251.024 391.183 251.136C391.02 251.243 390.827 251.297 390.603 251.297ZM390.603 250.983C390.831 250.983 391.013 250.894 391.148 250.717C391.287 250.536 391.357 250.287 391.357 249.97C391.357 249.654 391.287 249.407 391.148 249.23C391.013 249.049 390.831 248.958 390.603 248.958C390.375 248.958 390.191 249.049 390.052 249.23C389.917 249.407 389.849 249.654 389.849 249.97C389.849 250.287 389.917 250.536 390.052 250.717C390.191 250.894 390.375 250.983 390.603 250.983Z" fill="#82878E"/>
<g filter="url(#filter3_b_1312_4613)">
<path d="M396.336 245.652H624.588C626.13 245.652 627.38 246.902 627.38 248.444C627.38 249.986 626.13 251.237 624.588 251.237H396.336V245.652Z" fill="#BCC5D0" fill-opacity="0.17"/>
</g>
<path d="M396.336 245.652H451.48C453.022 245.652 454.272 246.902 454.272 248.444C454.272 249.986 453.022 251.237 451.48 251.237H396.336V245.652Z" fill="#88B2FF"/>
<path d="M380.75 285V280.323L380.973 280.561H379.598V280.114H381.252V285H380.75ZM382.336 283.716V283.353L384.926 280.114H385.485L382.916 283.353L382.644 283.269H386.573V283.716H382.336ZM385.094 285V283.716L385.108 283.269V282.138H385.596V285H385.094ZM387.48 285L390.816 280.114H391.228L387.892 285H387.48ZM387.857 282.731C387.638 282.731 387.445 282.678 387.277 282.571C387.11 282.459 386.98 282.303 386.887 282.103C386.798 281.903 386.754 281.67 386.754 281.405C386.754 281.14 386.798 280.907 386.887 280.707C386.98 280.507 387.11 280.354 387.277 280.246C387.445 280.135 387.638 280.079 387.857 280.079C388.076 280.079 388.266 280.135 388.429 280.246C388.597 280.354 388.727 280.507 388.82 280.707C388.913 280.907 388.96 281.14 388.96 281.405C388.96 281.67 388.913 281.903 388.82 282.103C388.727 282.303 388.597 282.459 388.429 282.571C388.266 282.678 388.076 282.731 387.857 282.731ZM387.857 282.417C388.085 282.417 388.266 282.329 388.401 282.152C388.541 281.971 388.611 281.722 388.611 281.405C388.611 281.089 388.541 280.842 388.401 280.665C388.266 280.484 388.085 280.393 387.857 280.393C387.624 280.393 387.44 280.484 387.305 280.665C387.17 280.842 387.103 281.089 387.103 281.405C387.103 281.722 387.17 281.971 387.305 282.152C387.44 282.329 387.624 282.417 387.857 282.417ZM390.851 285.035C390.637 285.035 390.446 284.981 390.279 284.874C390.111 284.763 389.981 284.607 389.888 284.407C389.795 284.207 389.748 283.974 389.748 283.709C389.748 283.443 389.795 283.211 389.888 283.011C389.981 282.811 390.111 282.657 390.279 282.55C390.446 282.438 390.637 282.382 390.851 282.382C391.075 282.382 391.268 282.438 391.431 282.55C391.598 282.657 391.726 282.811 391.815 283.011C391.908 283.211 391.954 283.443 391.954 283.709C391.954 283.974 391.908 284.207 391.815 284.407C391.726 284.607 391.598 284.763 391.431 284.874C391.268 284.981 391.075 285.035 390.851 285.035ZM390.851 284.721C391.079 284.721 391.261 284.632 391.396 284.456C391.535 284.274 391.605 284.025 391.605 283.709C391.605 283.392 391.535 283.146 391.396 282.969C391.261 282.787 391.079 282.697 390.851 282.697C390.623 282.697 390.439 282.787 390.3 282.969C390.165 283.146 390.097 283.392 390.097 283.709C390.097 284.025 390.165 284.274 390.3 284.456C390.439 284.632 390.623 284.721 390.851 284.721Z" fill="#82878E"/>
<g filter="url(#filter4_b_1312_4613)">
<path d="M396.584 279.387H624.836C626.378 279.387 627.629 280.637 627.629 282.179C627.629 283.721 626.378 284.971 624.836 284.971H396.584V279.387Z" fill="#BCC5D0" fill-opacity="0.17"/>
</g>
<path d="M396.584 279.387H430.787C432.329 279.387 433.579 280.637 433.579 282.179C433.579 283.721 432.329 284.971 430.787 284.971H396.584V279.387Z" fill="#88B2FF"/>
<path d="M384.163 318.315C383.809 318.315 383.474 318.259 383.158 318.148C382.846 318.031 382.594 317.878 382.404 317.687L382.648 317.289C382.806 317.452 383.018 317.587 383.283 317.694C383.553 317.801 383.846 317.855 384.163 317.855C384.568 317.855 384.877 317.766 385.091 317.589C385.31 317.413 385.419 317.175 385.419 316.877C385.419 316.58 385.312 316.342 385.098 316.165C384.889 315.989 384.556 315.9 384.1 315.9H383.751V315.53L385.259 313.639L385.328 313.834H382.606V313.387H385.747V313.743L384.239 315.635L383.995 315.474H384.184C384.77 315.474 385.207 315.605 385.496 315.865C385.789 316.126 385.936 316.461 385.936 316.87C385.936 317.145 385.871 317.392 385.74 317.61C385.61 317.829 385.412 318.001 385.147 318.127C384.886 318.252 384.558 318.315 384.163 318.315ZM387.232 318.273L390.568 313.387H390.98L387.644 318.273H387.232ZM387.609 316.005C387.39 316.005 387.197 315.951 387.029 315.844C386.862 315.733 386.732 315.577 386.638 315.377C386.55 315.177 386.506 314.944 386.506 314.679C386.506 314.413 386.55 314.181 386.638 313.981C386.732 313.781 386.862 313.627 387.029 313.52C387.197 313.408 387.39 313.352 387.609 313.352C387.827 313.352 388.018 313.408 388.181 313.52C388.349 313.627 388.479 313.781 388.572 313.981C388.665 314.181 388.712 314.413 388.712 314.679C388.712 314.944 388.665 315.177 388.572 315.377C388.479 315.577 388.349 315.733 388.181 315.844C388.018 315.951 387.827 316.005 387.609 316.005ZM387.609 315.691C387.837 315.691 388.018 315.602 388.153 315.426C388.293 315.244 388.363 314.995 388.363 314.679C388.363 314.362 388.293 314.116 388.153 313.939C388.018 313.757 387.837 313.667 387.609 313.667C387.376 313.667 387.192 313.757 387.057 313.939C386.922 314.116 386.855 314.362 386.855 314.679C386.855 314.995 386.922 315.244 387.057 315.426C387.192 315.602 387.376 315.691 387.609 315.691ZM390.603 318.308C390.389 318.308 390.198 318.255 390.031 318.148C389.863 318.036 389.733 317.88 389.64 317.68C389.547 317.48 389.5 317.247 389.5 316.982C389.5 316.717 389.547 316.484 389.64 316.284C389.733 316.084 389.863 315.93 390.031 315.823C390.198 315.712 390.389 315.656 390.603 315.656C390.827 315.656 391.02 315.712 391.183 315.823C391.35 315.93 391.478 316.084 391.567 316.284C391.66 316.484 391.706 316.717 391.706 316.982C391.706 317.247 391.66 317.48 391.567 317.68C391.478 317.88 391.35 318.036 391.183 318.148C391.02 318.255 390.827 318.308 390.603 318.308ZM390.603 317.994C390.831 317.994 391.013 317.906 391.148 317.729C391.287 317.547 391.357 317.299 391.357 316.982C391.357 316.666 391.287 316.419 391.148 316.242C391.013 316.061 390.831 315.97 390.603 315.97C390.375 315.97 390.191 316.061 390.052 316.242C389.917 316.419 389.849 316.666 389.849 316.982C389.849 317.299 389.917 317.547 390.052 317.729C390.191 317.906 390.375 317.994 390.603 317.994Z" fill="#82878E"/>
<g filter="url(#filter5_b_1312_4613)">
<path d="M396.336 312.664H624.588C626.13 312.664 627.38 313.914 627.38 315.456C627.38 316.998 626.13 318.248 624.588 318.248H396.336V312.664Z" fill="#BCC5D0" fill-opacity="0.17"/>
</g>
<path d="M396.336 312.664H401.222C402.764 312.664 404.014 313.914 404.014 315.456C404.014 316.998 402.764 318.248 401.222 318.248H396.336V312.664Z" fill="#88B2FF"/>
<path d="M384.163 301.558C383.809 301.558 383.474 301.502 383.158 301.39C382.846 301.274 382.594 301.12 382.404 300.929L382.648 300.531C382.806 300.694 383.018 300.829 383.283 300.936C383.553 301.043 383.846 301.097 384.163 301.097C384.568 301.097 384.877 301.008 385.091 300.832C385.31 300.655 385.419 300.417 385.419 300.12C385.419 299.822 385.312 299.584 385.098 299.408C384.889 299.231 384.556 299.142 384.1 299.142H383.751V298.772L385.259 296.881L385.328 297.076H382.606V296.629H385.747V296.985L384.239 298.877L383.995 298.717H384.184C384.77 298.717 385.207 298.847 385.496 299.107C385.789 299.368 385.936 299.703 385.936 300.113C385.936 300.387 385.871 300.634 385.74 300.853C385.61 301.071 385.412 301.243 385.147 301.369C384.886 301.495 384.558 301.558 384.163 301.558ZM387.232 301.516L390.568 296.629H390.98L387.644 301.516H387.232ZM387.609 299.247C387.39 299.247 387.197 299.194 387.029 299.087C386.862 298.975 386.732 298.819 386.638 298.619C386.55 298.419 386.506 298.186 386.506 297.921C386.506 297.656 386.55 297.423 386.638 297.223C386.732 297.023 386.862 296.869 387.029 296.762C387.197 296.65 387.39 296.595 387.609 296.595C387.827 296.595 388.018 296.65 388.181 296.762C388.349 296.869 388.479 297.023 388.572 297.223C388.665 297.423 388.712 297.656 388.712 297.921C388.712 298.186 388.665 298.419 388.572 298.619C388.479 298.819 388.349 298.975 388.181 299.087C388.018 299.194 387.827 299.247 387.609 299.247ZM387.609 298.933C387.837 298.933 388.018 298.845 388.153 298.668C388.293 298.486 388.363 298.237 388.363 297.921C388.363 297.604 388.293 297.358 388.153 297.181C388.018 296.999 387.837 296.909 387.609 296.909C387.376 296.909 387.192 296.999 387.057 297.181C386.922 297.358 386.855 297.604 386.855 297.921C386.855 298.237 386.922 298.486 387.057 298.668C387.192 298.845 387.376 298.933 387.609 298.933ZM390.603 301.551C390.389 301.551 390.198 301.497 390.031 301.39C389.863 301.278 389.733 301.122 389.64 300.922C389.547 300.722 389.5 300.49 389.5 300.224C389.5 299.959 389.547 299.726 389.64 299.526C389.733 299.326 389.863 299.173 390.031 299.066C390.198 298.954 390.389 298.898 390.603 298.898C390.827 298.898 391.02 298.954 391.183 299.066C391.35 299.173 391.478 299.326 391.567 299.526C391.66 299.726 391.706 299.959 391.706 300.224C391.706 300.49 391.66 300.722 391.567 300.922C391.478 301.122 391.35 301.278 391.183 301.39C391.02 301.497 390.827 301.551 390.603 301.551ZM390.603 301.236C390.831 301.236 391.013 301.148 391.148 300.971C391.287 300.79 391.357 300.541 391.357 300.224C391.357 299.908 391.287 299.661 391.148 299.484C391.013 299.303 390.831 299.212 390.603 299.212C390.375 299.212 390.191 299.303 390.052 299.484C389.917 299.661 389.849 299.908 389.849 300.224C389.849 300.541 389.917 300.79 390.052 300.971C390.191 301.148 390.375 301.236 390.603 301.236Z" fill="#82878E"/>
<g filter="url(#filter6_b_1312_4613)">
<path d="M396.336 295.906H624.588C626.13 295.906 627.38 297.156 627.38 298.698C627.38 300.24 626.13 301.49 624.588 301.49H396.336V295.906Z" fill="#BCC5D0" fill-opacity="0.17"/>
</g>
<path d="M396.336 295.906H401.222C402.764 295.906 404.014 297.156 404.014 298.698C404.014 300.24 402.764 301.49 401.222 301.49H396.336V295.906Z" fill="#3BBDC4"/>
<g filter="url(#filter7_b_1312_4613)">
<rect x="359" y="194" width="286.886" height="141" rx="4.88614" fill="white" fill-opacity="0.01"/>
</g>
<g filter="url(#filter8_d_1312_4613)">
<rect x="339" y="251" width="327" height="27" rx="4" fill="white"/>
</g>
<path d="M350.378 267.562V262.42L350.624 262.681H349.112V262.189H350.931V267.562H350.378ZM354.257 267.609C353.827 267.609 353.456 267.547 353.144 267.424C352.837 267.302 352.599 267.125 352.43 266.895C352.266 266.659 352.185 266.383 352.185 266.066C352.185 265.759 352.264 265.498 352.422 265.283C352.586 265.063 352.822 264.894 353.129 264.776C353.441 264.658 353.817 264.6 354.257 264.6C354.692 264.6 355.066 264.658 355.378 264.776C355.69 264.894 355.928 265.063 356.092 265.283C356.26 265.498 356.345 265.759 356.345 266.066C356.345 266.383 356.26 266.659 356.092 266.895C355.923 267.125 355.682 267.302 355.37 267.424C355.058 267.547 354.687 267.609 354.257 267.609ZM354.257 267.14C354.733 267.14 355.104 267.043 355.37 266.849C355.641 266.654 355.777 266.391 355.777 266.058C355.777 265.725 355.641 265.464 355.37 265.275C355.104 265.081 354.733 264.983 354.257 264.983C353.781 264.983 353.41 265.081 353.144 265.275C352.878 265.464 352.745 265.725 352.745 266.058C352.745 266.391 352.878 266.654 353.144 266.849C353.41 267.043 353.781 267.14 354.257 267.14ZM354.257 264.914C353.858 264.914 353.518 264.861 353.236 264.753C352.96 264.646 352.747 264.492 352.599 264.293C352.451 264.088 352.376 263.845 352.376 263.563C352.376 263.267 352.453 263.013 352.607 262.803C352.765 262.589 352.985 262.425 353.267 262.312C353.548 262.2 353.878 262.143 354.257 262.143C354.636 262.143 354.966 262.2 355.247 262.312C355.534 262.425 355.756 262.589 355.915 262.803C356.074 263.013 356.153 263.267 356.153 263.563C356.153 263.845 356.079 264.088 355.93 264.293C355.782 264.492 355.564 264.646 355.278 264.753C354.996 264.861 354.656 264.914 354.257 264.914ZM354.257 264.546C354.677 264.546 355.004 264.459 355.24 264.285C355.475 264.111 355.593 263.878 355.593 263.586C355.593 263.279 355.47 263.041 355.224 262.873C354.984 262.699 354.661 262.612 354.257 262.612C353.853 262.612 353.53 262.699 353.29 262.873C353.049 263.041 352.929 263.277 352.929 263.579C352.929 263.876 353.044 264.111 353.275 264.285C353.51 264.459 353.837 264.546 354.257 264.546ZM357.757 267.562L361.426 262.189H361.879L358.21 267.562H357.757ZM358.171 265.068C357.931 265.068 357.718 265.009 357.534 264.891C357.35 264.769 357.207 264.597 357.104 264.377C357.007 264.157 356.958 263.901 356.958 263.609C356.958 263.318 357.007 263.062 357.104 262.842C357.207 262.622 357.35 262.453 357.534 262.335C357.718 262.212 357.931 262.151 358.171 262.151C358.412 262.151 358.621 262.212 358.801 262.335C358.985 262.453 359.128 262.622 359.23 262.842C359.333 263.062 359.384 263.318 359.384 263.609C359.384 263.901 359.333 264.157 359.23 264.377C359.128 264.597 358.985 264.769 358.801 264.891C358.621 265.009 358.412 265.068 358.171 265.068ZM358.171 264.722C358.422 264.722 358.621 264.625 358.77 264.431C358.923 264.231 359 263.957 359 263.609C359 263.261 358.923 262.99 358.77 262.796C358.621 262.596 358.422 262.496 358.171 262.496C357.915 262.496 357.713 262.596 357.565 262.796C357.416 262.99 357.342 263.261 357.342 263.609C357.342 263.957 357.416 264.231 357.565 264.431C357.713 264.625 357.915 264.722 358.171 264.722ZM361.464 267.601C361.229 267.601 361.019 267.542 360.835 267.424C360.65 267.302 360.507 267.13 360.405 266.91C360.302 266.69 360.251 266.434 360.251 266.142C360.251 265.851 360.302 265.595 360.405 265.375C360.507 265.155 360.65 264.986 360.835 264.868C361.019 264.745 361.229 264.684 361.464 264.684C361.71 264.684 361.922 264.745 362.101 264.868C362.285 264.986 362.426 265.155 362.523 265.375C362.626 265.595 362.677 265.851 362.677 266.142C362.677 266.434 362.626 266.69 362.523 266.91C362.426 267.13 362.285 267.302 362.101 267.424C361.922 267.542 361.71 267.601 361.464 267.601ZM361.464 267.255C361.715 267.255 361.914 267.158 362.063 266.964C362.216 266.764 362.293 266.49 362.293 266.142C362.293 265.795 362.216 265.523 362.063 265.329C361.914 265.129 361.715 265.029 361.464 265.029C361.213 265.029 361.011 265.129 360.858 265.329C360.709 265.523 360.635 265.795 360.635 266.142C360.635 266.49 360.709 266.764 360.858 266.964C361.011 267.158 361.213 267.255 361.464 267.255Z" fill="#82878E"/>
<path d="M632.386 268V262.627H632.854L635.31 266.818H635.065L637.498 262.627H637.966V268H637.421V263.479H637.552L635.31 267.317H635.042L632.785 263.479H632.931V268H632.386ZM641.313 268.038C640.894 268.038 640.525 267.951 640.208 267.777C639.891 267.598 639.643 267.355 639.464 267.048C639.285 266.736 639.195 266.38 639.195 265.981C639.195 265.582 639.279 265.229 639.448 264.922C639.622 264.615 639.858 264.374 640.154 264.2C640.456 264.021 640.794 263.932 641.168 263.932C641.546 263.932 641.881 264.019 642.173 264.193C642.47 264.362 642.703 264.602 642.872 264.914C643.041 265.221 643.125 265.577 643.125 265.981C643.125 266.007 643.122 266.035 643.117 266.066C643.117 266.091 643.117 266.119 643.117 266.15H639.609V265.743H642.826L642.611 265.905C642.611 265.613 642.547 265.354 642.419 265.129C642.296 264.899 642.127 264.72 641.912 264.592C641.697 264.464 641.449 264.4 641.168 264.4C640.891 264.4 640.643 264.464 640.423 264.592C640.203 264.72 640.032 264.899 639.909 265.129C639.786 265.36 639.725 265.623 639.725 265.92V266.004C639.725 266.311 639.791 266.583 639.924 266.818C640.062 267.048 640.252 267.23 640.492 267.363C640.738 267.491 641.017 267.555 641.329 267.555C641.574 267.555 641.802 267.511 642.012 267.424C642.227 267.337 642.411 267.204 642.565 267.025L642.872 267.378C642.693 267.593 642.467 267.757 642.196 267.87C641.93 267.982 641.636 268.038 641.313 268.038ZM645.508 268.038C645.13 268.038 644.838 267.936 644.633 267.731C644.429 267.527 644.326 267.238 644.326 266.864V263.08H644.871V266.833C644.871 267.069 644.93 267.25 645.048 267.378C645.171 267.506 645.345 267.57 645.57 267.57C645.81 267.57 646.01 267.501 646.169 267.363L646.36 267.754C646.253 267.852 646.122 267.923 645.969 267.969C645.821 268.015 645.667 268.038 645.508 268.038ZM643.605 264.423V263.97H646.099V264.423H643.605ZM647.353 268V263.97H647.874V265.068L647.821 264.876C647.933 264.569 648.123 264.336 648.389 264.177C648.655 264.014 648.985 263.932 649.379 263.932V264.461C649.358 264.461 649.338 264.461 649.318 264.461C649.297 264.456 649.277 264.454 649.256 264.454C648.831 264.454 648.499 264.584 648.258 264.845C648.018 265.101 647.898 265.467 647.898 265.943V268H647.353ZM650.373 268V263.97H650.918V268H650.373ZM650.65 263.08C650.537 263.08 650.442 263.041 650.366 262.965C650.289 262.888 650.251 262.796 650.251 262.688C650.251 262.581 650.289 262.491 650.366 262.42C650.442 262.343 650.537 262.305 650.65 262.305C650.762 262.305 650.857 262.34 650.934 262.412C651.01 262.484 651.049 262.573 651.049 262.681C651.049 262.793 651.01 262.888 650.934 262.965C650.862 263.041 650.767 263.08 650.65 263.08ZM654.108 268.038C653.709 268.038 653.351 267.951 653.033 267.777C652.721 267.598 652.476 267.355 652.297 267.048C652.117 266.736 652.028 266.38 652.028 265.981C652.028 265.577 652.117 265.221 652.297 264.914C652.476 264.607 652.721 264.367 653.033 264.193C653.351 264.019 653.709 263.932 654.108 263.932C654.451 263.932 654.761 263.998 655.037 264.131C655.313 264.264 655.531 264.464 655.689 264.73L655.282 265.006C655.144 264.802 654.973 264.651 654.768 264.554C654.564 264.456 654.341 264.408 654.1 264.408C653.814 264.408 653.555 264.474 653.325 264.607C653.095 264.735 652.913 264.917 652.78 265.152C652.647 265.388 652.581 265.664 652.581 265.981C652.581 266.299 652.647 266.575 652.78 266.81C652.913 267.046 653.095 267.23 653.325 267.363C653.555 267.491 653.814 267.555 654.1 267.555C654.341 267.555 654.564 267.506 654.768 267.409C654.973 267.312 655.144 267.163 655.282 266.964L655.689 267.24C655.531 267.501 655.313 267.701 655.037 267.839C654.761 267.972 654.451 268.038 654.108 268.038Z" fill="#82878E"/>
<g filter="url(#filter9_b_1312_4613)">
<path d="M368.064 262.086H619.063C620.759 262.086 622.134 263.461 622.134 265.156C622.134 266.852 620.759 268.227 619.063 268.227H368.064V262.086Z" fill="#BCC5D0" fill-opacity="0.17"/>
</g>
<path d="M368.064 262.086H424.098C425.794 262.086 427.168 263.461 427.168 265.156C427.168 266.852 425.794 268.227 424.098 268.227H368.064V262.086Z" fill="#3BBDC4"/>
<defs>
<filter id="filter0_bd_1312_4613" x="-85" y="-250" width="1174.89" height="1029" filterUnits="userSpaceOnUse" color-interpolation-filters="sRGB">
<feFlood flood-opacity="0" result="BackgroundImageFix"/>
<feGaussianBlur in="BackgroundImageFix" stdDeviation="222"/>
<feComposite in2="SourceAlpha" operator="in" result="effect1_backgroundBlur_1312_4613"/>
<feColorMatrix in="SourceAlpha" type="matrix" values="0 0 0 0 0 0 0 0 0 0 0 0 0 0 0 0 0 0 127 0" result="hardAlpha"/>
<feOffset/>
<feGaussianBlur stdDeviation="17"/>
<feComposite in2="hardAlpha" operator="out"/>
<feColorMatrix type="matrix" values="0 0 0 0 0 0 0 0 0 0 0 0 0 0 0 0 0 0 0.05 0"/>
<feBlend mode="normal" in2="effect1_backgroundBlur_1312_4613" result="effect2_dropShadow_1312_4613"/>
<feBlend mode="normal" in="SourceGraphic" in2="effect2_dropShadow_1312_4613" result="shape"/>
</filter>
<filter id="filter1_b_1312_4613" x="393.544" y="209.352" width="236.629" height="11.1701" filterUnits="userSpaceOnUse" color-interpolation-filters="sRGB">
<feFlood flood-opacity="0" result="BackgroundImageFix"/>
<feGaussianBlur in="BackgroundImageFix" stdDeviation="1.39604"/>
<feComposite in2="SourceAlpha" operator="in" result="effect1_backgroundBlur_1312_4613"/>
<feBlend mode="normal" in="SourceGraphic" in2="effect1_backgroundBlur_1312_4613" result="shape"/>
</filter>
<filter id="filter2_b_1312_4613" x="393.544" y="226.106" width="236.629" height="11.1701" filterUnits="userSpaceOnUse" color-interpolation-filters="sRGB">
<feFlood flood-opacity="0" result="BackgroundImageFix"/>
<feGaussianBlur in="BackgroundImageFix" stdDeviation="1.39604"/>
<feComposite in2="SourceAlpha" operator="in" result="effect1_backgroundBlur_1312_4613"/>
<feBlend mode="normal" in="SourceGraphic" in2="effect1_backgroundBlur_1312_4613" result="shape"/>
</filter>
<filter id="filter3_b_1312_4613" x="393.544" y="242.86" width="236.629" height="11.1701" filterUnits="userSpaceOnUse" color-interpolation-filters="sRGB">
<feFlood flood-opacity="0" result="BackgroundImageFix"/>
<feGaussianBlur in="BackgroundImageFix" stdDeviation="1.39604"/>
<feComposite in2="SourceAlpha" operator="in" result="effect1_backgroundBlur_1312_4613"/>
<feBlend mode="normal" in="SourceGraphic" in2="effect1_backgroundBlur_1312_4613" result="shape"/>
</filter>
<filter id="filter4_b_1312_4613" x="393.792" y="276.595" width="236.629" height="11.1701" filterUnits="userSpaceOnUse" color-interpolation-filters="sRGB">
<feFlood flood-opacity="0" result="BackgroundImageFix"/>
<feGaussianBlur in="BackgroundImageFix" stdDeviation="1.39604"/>
<feComposite in2="SourceAlpha" operator="in" result="effect1_backgroundBlur_1312_4613"/>
<feBlend mode="normal" in="SourceGraphic" in2="effect1_backgroundBlur_1312_4613" result="shape"/>
</filter>
<filter id="filter5_b_1312_4613" x="393.544" y="309.872" width="236.629" height="11.1701" filterUnits="userSpaceOnUse" color-interpolation-filters="sRGB">
<feFlood flood-opacity="0" result="BackgroundImageFix"/>
<feGaussianBlur in="BackgroundImageFix" stdDeviation="1.39604"/>
<feComposite in2="SourceAlpha" operator="in" result="effect1_backgroundBlur_1312_4613"/>
<feBlend mode="normal" in="SourceGraphic" in2="effect1_backgroundBlur_1312_4613" result="shape"/>
</filter>
<filter id="filter6_b_1312_4613" x="393.544" y="293.114" width="236.629" height="11.1701" filterUnits="userSpaceOnUse" color-interpolation-filters="sRGB">
<feFlood flood-opacity="0" result="BackgroundImageFix"/>
<feGaussianBlur in="BackgroundImageFix" stdDeviation="1.39604"/>
<feComposite in2="SourceAlpha" operator="in" result="effect1_backgroundBlur_1312_4613"/>
<feBlend mode="normal" in="SourceGraphic" in2="effect1_backgroundBlur_1312_4613" result="shape"/>
</filter>
<filter id="filter7_b_1312_4613" x="357" y="192" width="290.887" height="145" filterUnits="userSpaceOnUse" color-interpolation-filters="sRGB">
<feFlood flood-opacity="0" result="BackgroundImageFix"/>
<feGaussianBlur in="BackgroundImageFix" stdDeviation="1"/>
<feComposite in2="SourceAlpha" operator="in" result="effect1_backgroundBlur_1312_4613"/>
<feBlend mode="normal" in="SourceGraphic" in2="effect1_backgroundBlur_1312_4613" result="shape"/>
</filter>
<filter id="filter8_d_1312_4613" x="325" y="237" width="355" height="55" filterUnits="userSpaceOnUse" color-interpolation-filters="sRGB">
<feFlood flood-opacity="0" result="BackgroundImageFix"/>
<feColorMatrix in="SourceAlpha" type="matrix" values="0 0 0 0 0 0 0 0 0 0 0 0 0 0 0 0 0 0 127 0" result="hardAlpha"/>
<feOffset/>
<feGaussianBlur stdDeviation="7"/>
<feComposite in2="hardAlpha" operator="out"/>
<feColorMatrix type="matrix" values="0 0 0 0 0 0 0 0 0 0 0 0 0 0 0 0 0 0 0.1 0"/>
<feBlend mode="normal" in2="BackgroundImageFix" result="effect1_dropShadow_1312_4613"/>
<feBlend mode="normal" in="SourceGraphic" in2="effect1_dropShadow_1312_4613" result="shape"/>
</filter>
<filter id="filter9_b_1312_4613" x="364.994" y="259.016" width="260.209" height="12.2813" filterUnits="userSpaceOnUse" color-interpolation-filters="sRGB">
<feFlood flood-opacity="0" result="BackgroundImageFix"/>
<feGaussianBlur in="BackgroundImageFix" stdDeviation="1.53516"/>
<feComposite in2="SourceAlpha" operator="in" result="effect1_backgroundBlur_1312_4613"/>
<feBlend mode="normal" in="SourceGraphic" in2="effect1_backgroundBlur_1312_4613" result="shape"/>
</filter>
</defs>
</svg>
