<svg width="672" height="438" viewBox="0 0 672 438" fill="none" xmlns="http://www.w3.org/2000/svg">
<circle cx="599.42" cy="352.42" r="1.42018" fill="#D9D9D9"/>
<circle cx="613.621" cy="352.42" r="1.42018" fill="#D9D9D9"/>
<circle cx="627.824" cy="352.42" r="1.42018" fill="#D9D9D9"/>
<circle cx="642.026" cy="352.42" r="1.42018" fill="#D9D9D9"/>
<circle cx="656.227" cy="352.42" r="1.42018" fill="#D9D9D9"/>
<circle cx="670.43" cy="352.42" r="1.42018" fill="#D9D9D9"/>
<circle cx="599.42" cy="366.623" r="1.42018" fill="#D9D9D9"/>
<circle cx="613.621" cy="366.623" r="1.42018" fill="#D9D9D9"/>
<circle cx="627.824" cy="366.623" r="1.42018" fill="#D9D9D9"/>
<circle cx="642.026" cy="366.623" r="1.42018" fill="#1245C7"/>
<circle cx="656.227" cy="366.623" r="1.42018" fill="#D9D9D9"/>
<circle cx="670.43" cy="366.623" r="1.42018" fill="#D9D9D9"/>
<circle cx="599.42" cy="380.823" r="1.42018" fill="#D9D9D9"/>
<circle cx="613.621" cy="380.823" r="1.42018" fill="#D9D9D9"/>
<circle cx="627.824" cy="380.823" r="1.42018" fill="#D9D9D9"/>
<circle cx="642.026" cy="380.823" r="1.42018" fill="#D9D9D9"/>
<circle cx="656.227" cy="380.823" r="1.42018" fill="#D9D9D9"/>
<circle cx="670.43" cy="380.823" r="1.42018" fill="#D9D9D9"/>
<circle cx="599.42" cy="395.026" r="1.42018" fill="#D9D9D9"/>
<circle cx="613.621" cy="395.026" r="1.42018" fill="#1245C7"/>
<circle cx="627.824" cy="395.026" r="1.42018" fill="#D9D9D9"/>
<circle cx="642.026" cy="395.026" r="1.42018" fill="#D9D9D9"/>
<circle cx="656.227" cy="395.026" r="1.42018" fill="#D9D9D9"/>
<circle cx="670.43" cy="395.026" r="1.42018" fill="#D9D9D9"/>
<circle cx="599.42" cy="409.229" r="1.42018" fill="#D9D9D9"/>
<circle cx="613.621" cy="409.229" r="1.42018" fill="#D9D9D9"/>
<circle cx="627.824" cy="409.229" r="1.42018" fill="#D9D9D9"/>
<circle cx="642.026" cy="409.229" r="1.42018" fill="#D9D9D9"/>
<circle cx="656.227" cy="409.229" r="1.42018" fill="#D9D9D9"/>
<circle cx="670.43" cy="409.229" r="1.42018" fill="#D9D9D9"/>
<circle cx="599.42" cy="423.428" r="1.42018" fill="#D9D9D9"/>
<circle cx="613.621" cy="423.428" r="1.42018" fill="#D9D9D9"/>
<circle cx="627.824" cy="423.428" r="1.42018" fill="#D9D9D9"/>
<circle cx="642.026" cy="423.428" r="1.42018" fill="#D9D9D9"/>
<circle cx="656.227" cy="423.428" r="1.42018" fill="#1245C7"/>
<circle cx="670.43" cy="423.428" r="1.42018" fill="#D9D9D9"/>
<circle cx="96.9579" cy="388.958" r="1.04205" transform="rotate(-180 96.9579 388.958)" fill="#D9D9D9"/>
<circle cx="86.538" cy="388.958" r="1.04205" transform="rotate(-180 86.538 388.958)" fill="#D9D9D9"/>
<circle cx="76.1161" cy="388.958" r="1.04205" transform="rotate(-180 76.1161 388.958)" fill="#D9D9D9"/>
<circle cx="65.6962" cy="388.958" r="1.04205" transform="rotate(-180 65.6962 388.958)" fill="#D9D9D9"/>
<circle cx="55.2763" cy="388.958" r="1.04205" transform="rotate(-180 55.2763 388.958)" fill="#D9D9D9"/>
<circle cx="44.8544" cy="388.958" r="1.04205" transform="rotate(-180 44.8544 388.958)" fill="#D9D9D9"/>
<circle cx="96.9579" cy="378.536" r="1.04205" transform="rotate(-180 96.9579 378.536)" fill="#D9D9D9"/>
<circle cx="86.538" cy="378.536" r="1.04205" transform="rotate(-180 86.538 378.536)" fill="#D9D9D9"/>
<circle cx="76.1161" cy="378.536" r="1.04205" transform="rotate(-180 76.1161 378.536)" fill="#D9D9D9"/>
<circle cx="65.6962" cy="378.536" r="1.04205" transform="rotate(-180 65.6962 378.536)" fill="#1245C7"/>
<circle cx="55.2763" cy="378.536" r="1.04205" transform="rotate(-180 55.2763 378.536)" fill="#D9D9D9"/>
<circle cx="44.8544" cy="378.536" r="1.04205" transform="rotate(-180 44.8544 378.536)" fill="#D9D9D9"/>
<circle cx="96.9579" cy="368.118" r="1.04205" transform="rotate(-180 96.9579 368.118)" fill="#D9D9D9"/>
<circle cx="86.538" cy="368.118" r="1.04205" transform="rotate(-180 86.538 368.118)" fill="#D9D9D9"/>
<circle cx="76.1161" cy="368.118" r="1.04205" transform="rotate(-180 76.1161 368.118)" fill="#D9D9D9"/>
<circle cx="65.6962" cy="368.118" r="1.04205" transform="rotate(-180 65.6962 368.118)" fill="#D9D9D9"/>
<circle cx="55.2763" cy="368.118" r="1.04205" transform="rotate(-180 55.2763 368.118)" fill="#D9D9D9"/>
<circle cx="44.8544" cy="368.118" r="1.04205" transform="rotate(-180 44.8544 368.118)" fill="#D9D9D9"/>
<circle cx="96.9579" cy="357.696" r="1.04205" transform="rotate(-180 96.9579 357.696)" fill="#D9D9D9"/>
<circle cx="86.538" cy="357.696" r="1.04205" transform="rotate(-180 86.538 357.696)" fill="#1245C7"/>
<circle cx="76.1161" cy="357.696" r="1.04205" transform="rotate(-180 76.1161 357.696)" fill="#D9D9D9"/>
<circle cx="65.6962" cy="357.696" r="1.04205" transform="rotate(-180 65.6962 357.696)" fill="#D9D9D9"/>
<circle cx="55.2763" cy="357.696" r="1.04205" transform="rotate(-180 55.2763 357.696)" fill="#D9D9D9"/>
<circle cx="44.8544" cy="357.696" r="1.04205" transform="rotate(-180 44.8544 357.696)" fill="#D9D9D9"/>
<circle cx="96.9579" cy="347.274" r="1.04205" transform="rotate(-180 96.9579 347.274)" fill="#D9D9D9"/>
<circle cx="86.538" cy="347.274" r="1.04205" transform="rotate(-180 86.538 347.274)" fill="#D9D9D9"/>
<circle cx="76.1161" cy="347.274" r="1.04205" transform="rotate(-180 76.1161 347.274)" fill="#D9D9D9"/>
<circle cx="65.6962" cy="347.274" r="1.04205" transform="rotate(-180 65.6962 347.274)" fill="#D9D9D9"/>
<circle cx="55.2763" cy="347.274" r="1.04205" transform="rotate(-180 55.2763 347.274)" fill="#D9D9D9"/>
<circle cx="44.8544" cy="347.274" r="1.04205" transform="rotate(-180 44.8544 347.274)" fill="#D9D9D9"/>
<circle cx="96.9579" cy="336.856" r="1.04205" transform="rotate(-180 96.9579 336.856)" fill="#D9D9D9"/>
<circle cx="86.538" cy="336.856" r="1.04205" transform="rotate(-180 86.538 336.856)" fill="#D9D9D9"/>
<circle cx="76.1161" cy="336.856" r="1.04205" transform="rotate(-180 76.1161 336.856)" fill="#D9D9D9"/>
<circle cx="65.6962" cy="336.856" r="1.04205" transform="rotate(-180 65.6962 336.856)" fill="#D9D9D9"/>
<circle cx="55.2763" cy="336.856" r="1.04205" transform="rotate(-180 55.2763 336.856)" fill="#1245C7"/>
<circle cx="44.8544" cy="336.856" r="1.04205" transform="rotate(-180 44.8544 336.856)" fill="#D9D9D9"/>
<circle cx="612.958" cy="53.9579" r="1.04205" transform="rotate(-180 612.958 53.9579)" fill="#D9D9D9"/>
<circle cx="602.538" cy="53.9579" r="1.04205" transform="rotate(-180 602.538 53.9579)" fill="#D9D9D9"/>
<circle cx="592.116" cy="53.9579" r="1.04205" transform="rotate(-180 592.116 53.9579)" fill="#D9D9D9"/>
<circle cx="581.696" cy="53.9579" r="1.04205" transform="rotate(-180 581.696 53.9579)" fill="#D9D9D9"/>
<circle cx="571.276" cy="53.9579" r="1.04205" transform="rotate(-180 571.276 53.9579)" fill="#D9D9D9"/>
<circle cx="560.854" cy="53.9579" r="1.04205" transform="rotate(-180 560.854 53.9579)" fill="#D9D9D9"/>
<circle cx="612.958" cy="43.5361" r="1.04205" transform="rotate(-180 612.958 43.5361)" fill="#D9D9D9"/>
<circle cx="602.538" cy="43.5361" r="1.04205" transform="rotate(-180 602.538 43.5361)" fill="#D9D9D9"/>
<circle cx="592.116" cy="43.5361" r="1.04205" transform="rotate(-180 592.116 43.5361)" fill="#D9D9D9"/>
<circle cx="581.696" cy="43.5361" r="1.04205" transform="rotate(-180 581.696 43.5361)" fill="#1245C7"/>
<circle cx="571.276" cy="43.5361" r="1.04205" transform="rotate(-180 571.276 43.5361)" fill="#D9D9D9"/>
<circle cx="560.854" cy="43.5361" r="1.04205" transform="rotate(-180 560.854 43.5361)" fill="#D9D9D9"/>
<circle cx="612.958" cy="33.1181" r="1.04205" transform="rotate(-180 612.958 33.1181)" fill="#D9D9D9"/>
<circle cx="602.538" cy="33.1181" r="1.04205" transform="rotate(-180 602.538 33.1181)" fill="#D9D9D9"/>
<circle cx="592.116" cy="33.1181" r="1.04205" transform="rotate(-180 592.116 33.1181)" fill="#D9D9D9"/>
<circle cx="581.696" cy="33.1181" r="1.04205" transform="rotate(-180 581.696 33.1181)" fill="#D9D9D9"/>
<circle cx="571.276" cy="33.1181" r="1.04205" transform="rotate(-180 571.276 33.1181)" fill="#D9D9D9"/>
<circle cx="560.854" cy="33.1181" r="1.04205" transform="rotate(-180 560.854 33.1181)" fill="#D9D9D9"/>
<circle cx="612.958" cy="22.6962" r="1.04205" transform="rotate(-180 612.958 22.6962)" fill="#D9D9D9"/>
<circle cx="602.538" cy="22.6962" r="1.04205" transform="rotate(-180 602.538 22.6962)" fill="#1245C7"/>
<circle cx="592.116" cy="22.6962" r="1.04205" transform="rotate(-180 592.116 22.6962)" fill="#D9D9D9"/>
<circle cx="581.696" cy="22.6962" r="1.04205" transform="rotate(-180 581.696 22.6962)" fill="#D9D9D9"/>
<circle cx="571.276" cy="22.6962" r="1.04205" transform="rotate(-180 571.276 22.6962)" fill="#D9D9D9"/>
<circle cx="560.854" cy="22.6962" r="1.04205" transform="rotate(-180 560.854 22.6962)" fill="#D9D9D9"/>
<circle cx="612.958" cy="12.2744" r="1.04205" transform="rotate(-180 612.958 12.2744)" fill="#D9D9D9"/>
<circle cx="602.538" cy="12.2744" r="1.04205" transform="rotate(-180 602.538 12.2744)" fill="#D9D9D9"/>
<circle cx="592.116" cy="12.2744" r="1.04205" transform="rotate(-180 592.116 12.2744)" fill="#D9D9D9"/>
<circle cx="581.696" cy="12.2744" r="1.04205" transform="rotate(-180 581.696 12.2744)" fill="#D9D9D9"/>
<circle cx="571.276" cy="12.2744" r="1.04205" transform="rotate(-180 571.276 12.2744)" fill="#D9D9D9"/>
<circle cx="560.854" cy="12.2744" r="1.04205" transform="rotate(-180 560.854 12.2744)" fill="#D9D9D9"/>
<circle cx="612.958" cy="1.85638" r="1.04205" transform="rotate(-180 612.958 1.85638)" fill="#D9D9D9"/>
<circle cx="602.538" cy="1.85638" r="1.04205" transform="rotate(-180 602.538 1.85638)" fill="#D9D9D9"/>
<circle cx="592.116" cy="1.85638" r="1.04205" transform="rotate(-180 592.116 1.85638)" fill="#D9D9D9"/>
<circle cx="581.696" cy="1.85638" r="1.04205" transform="rotate(-180 581.696 1.85638)" fill="#D9D9D9"/>
<circle cx="571.276" cy="1.85638" r="1.04205" transform="rotate(-180 571.276 1.85638)" fill="#1245C7"/>
<circle cx="560.854" cy="1.85638" r="1.04205" transform="rotate(-180 560.854 1.85638)" fill="#D9D9D9"/>
</svg>
