<svg width="672" height="438" viewBox="0 0 672 438" fill="none" xmlns="http://www.w3.org/2000/svg">
<g filter="url(#filter0_d_1312_7445)">
<path d="M577.174 9H484.826C482.161 9 480 11.1606 480 13.8259V45.1484C480 47.8137 482.161 49.9744 484.826 49.9744H525.281C526.574 49.9744 527.813 50.4934 528.72 51.4152L532.876 55.6379C533.072 55.8369 533.393 55.8369 533.589 55.6379L537.745 51.4152C538.652 50.4934 539.891 49.9744 541.184 49.9744H577.174C579.839 49.9744 582 47.8137 582 45.1484V13.8259C582 11.1606 579.839 9 577.174 9Z" fill="white"/>
</g>
<path d="M505.529 38.3902L503.348 36.2088L502.16 37.3963L505.529 40.7652L512.267 34.0274L511.079 32.8398L505.529 38.3902Z" fill="#FAC20B"/>
<path d="M500.475 31.1541C501.406 31.1541 502.16 30.3999 502.16 29.4696C502.16 28.5393 501.406 27.7852 500.475 27.7852C499.545 27.7852 498.791 28.5393 498.791 29.4696C498.791 30.3999 499.545 31.1541 500.475 31.1541Z" fill="#FAC20B"/>
<path d="M500.475 34.5287C499.476 34.5287 498.499 34.2323 497.668 33.677C496.837 33.1217 496.189 32.3325 495.807 31.4091C495.424 30.4857 495.324 29.4697 495.519 28.4894C495.714 27.5091 496.195 26.6087 496.902 25.902C497.609 25.1953 498.509 24.714 499.489 24.519C500.47 24.324 501.486 24.4241 502.409 24.8065C503.333 25.189 504.122 25.8367 504.677 26.6678C505.232 27.4988 505.529 28.4758 505.529 29.4753C505.527 30.815 504.994 32.0995 504.047 33.0468C503.099 33.9942 501.815 34.5271 500.475 34.5287ZM500.475 26.1063C499.809 26.1063 499.158 26.3039 498.604 26.6741C498.05 27.0443 497.618 27.5704 497.363 28.186C497.108 28.8016 497.041 29.479 497.171 30.1325C497.301 30.786 497.622 31.3863 498.093 31.8575C498.564 32.3286 499.165 32.6495 499.818 32.7795C500.472 32.9095 501.149 32.8427 501.765 32.5878C502.38 32.3328 502.906 31.901 503.276 31.3469C503.647 30.7929 503.844 30.1416 503.844 29.4753C503.843 28.5821 503.488 27.7259 502.856 27.0943C502.225 26.4628 501.368 26.1075 500.475 26.1063Z" fill="#FAC20B"/>
<path d="M510.583 29.4701C510.583 27.4711 509.99 25.5171 508.879 23.855C507.769 22.193 506.19 20.8976 504.344 20.1326C502.497 19.3677 500.465 19.1675 498.504 19.5575C496.544 19.9475 494.743 20.91 493.329 22.3235C491.916 23.737 490.953 25.5378 490.563 27.4983C490.173 29.4589 490.374 31.491 491.138 33.3378C491.903 35.1845 493.199 36.763 494.861 37.8736C496.523 38.9841 498.477 39.5769 500.476 39.5769V37.8924C498.81 37.8924 497.182 37.3984 495.797 36.473C494.412 35.5475 493.332 34.2321 492.695 32.6932C492.057 31.1542 491.89 29.4607 492.215 27.827C492.54 26.1932 493.343 24.6925 494.52 23.5146C495.698 22.3367 497.199 21.5346 498.833 21.2096C500.467 20.8846 502.16 21.0514 503.699 21.6889C505.238 22.3263 506.553 23.4058 507.479 24.7909C508.404 26.1759 508.898 27.8043 508.898 29.4701H510.583Z" fill="#FAC20B"/>
<path d="M524.377 37.68V24.52H525.525V37.68H524.377ZM524.811 36.14C524.046 36.14 523.313 36.0327 522.613 35.818C521.913 35.594 521.358 35.3093 520.947 34.964L521.577 33.55C521.969 33.858 522.454 34.1147 523.033 34.32C523.612 34.5253 524.204 34.628 524.811 34.628C525.324 34.628 525.74 34.572 526.057 34.46C526.374 34.348 526.608 34.1987 526.757 34.012C526.906 33.816 526.981 33.5967 526.981 33.354C526.981 33.0553 526.874 32.8173 526.659 32.64C526.444 32.4533 526.164 32.3087 525.819 32.206C525.483 32.094 525.105 31.9913 524.685 31.898C524.274 31.8047 523.859 31.6973 523.439 31.576C523.028 31.4453 522.65 31.282 522.305 31.086C521.969 30.8807 521.694 30.61 521.479 30.274C521.264 29.938 521.157 29.5087 521.157 28.986C521.157 28.454 521.297 27.9687 521.577 27.53C521.866 27.082 522.3 26.7273 522.879 26.466C523.467 26.1953 524.209 26.06 525.105 26.06C525.693 26.06 526.276 26.1347 526.855 26.284C527.434 26.4333 527.938 26.648 528.367 26.928L527.793 28.342C527.354 28.0807 526.902 27.8893 526.435 27.768C525.968 27.6373 525.52 27.572 525.091 27.572C524.587 27.572 524.176 27.6327 523.859 27.754C523.551 27.8753 523.322 28.034 523.173 28.23C523.033 28.426 522.963 28.65 522.963 28.902C522.963 29.2007 523.066 29.4433 523.271 29.63C523.486 29.8073 523.761 29.9473 524.097 30.05C524.442 30.1527 524.825 30.2553 525.245 30.358C525.665 30.4513 526.08 30.5587 526.491 30.68C526.911 30.8013 527.289 30.96 527.625 31.156C527.97 31.352 528.246 31.618 528.451 31.954C528.666 32.29 528.773 32.7147 528.773 33.228C528.773 33.7507 528.628 34.236 528.339 34.684C528.059 35.1227 527.625 35.4773 527.037 35.748C526.449 36.0093 525.707 36.14 524.811 36.14ZM533.126 36.14C532.435 36.14 531.758 36.042 531.096 35.846C530.442 35.6407 529.892 35.3607 529.444 35.006L530.214 33.592C530.568 33.8813 530.998 34.1147 531.502 34.292C532.015 34.4693 532.547 34.558 533.098 34.558C533.742 34.558 534.246 34.4227 534.61 34.152C534.983 33.8813 535.17 33.5173 535.17 33.06C535.17 32.752 535.09 32.4813 534.932 32.248C534.782 32.0147 534.512 31.8373 534.12 31.716C533.737 31.5947 533.21 31.534 532.538 31.534H530.172L530.676 26.2H536.43V27.726H531.348L532.3 26.858L531.922 30.848L530.97 29.994H532.944C533.914 29.994 534.694 30.1247 535.282 30.386C535.879 30.638 536.313 30.9927 536.584 31.45C536.864 31.898 537.004 32.4113 537.004 32.99C537.004 33.5593 536.864 34.082 536.584 34.558C536.304 35.034 535.874 35.4167 535.296 35.706C534.726 35.9953 534.003 36.14 533.126 36.14ZM539.146 36.098C538.828 36.098 538.558 35.9907 538.334 35.776C538.11 35.552 537.998 35.272 537.998 34.936C537.998 34.5813 538.11 34.3013 538.334 34.096C538.558 33.8813 538.828 33.774 539.146 33.774C539.463 33.774 539.734 33.8813 539.958 34.096C540.182 34.3013 540.294 34.5813 540.294 34.936C540.294 35.272 540.182 35.552 539.958 35.776C539.734 35.9907 539.463 36.098 539.146 36.098ZM544.688 36.14C543.998 36.14 543.321 36.042 542.658 35.846C542.005 35.6407 541.454 35.3607 541.006 35.006L541.79 33.592C542.145 33.8813 542.574 34.1147 543.078 34.292C543.582 34.4693 544.11 34.558 544.66 34.558C545.314 34.558 545.822 34.4273 546.186 34.166C546.55 33.8953 546.732 33.5313 546.732 33.074C546.732 32.626 546.564 32.2713 546.228 32.01C545.892 31.7487 545.351 31.618 544.604 31.618H543.708V30.372L546.508 27.04L546.746 27.726H541.482V26.2H548.16V27.418L545.36 30.75L544.408 30.19H544.954C546.158 30.19 547.059 30.4607 547.656 31.002C548.263 31.534 548.566 32.22 548.566 33.06C548.566 33.6107 548.426 34.1193 548.146 34.586C547.866 35.0527 547.437 35.4307 546.858 35.72C546.289 36 545.566 36.14 544.688 36.14ZM549.617 33.774V32.514L554.447 26.2H556.393L551.633 32.514L550.723 32.234H558.493V33.774H549.617ZM554.993 36V33.774L555.049 32.234V30.26H556.757V36H554.993ZM561.219 34.334L561.261 32.136L565.167 28.524H567.267L563.949 31.856L563.025 32.626L561.219 34.334ZM559.791 36V25.612H561.541V36H559.791ZM565.433 36L562.703 32.626L563.809 31.226L567.561 36H565.433Z" fill="#525252"/>
<defs>
<filter id="filter0_d_1312_7445" x="472.761" y="1.76113" width="116.478" height="61.2668" filterUnits="userSpaceOnUse" color-interpolation-filters="sRGB">
<feFlood flood-opacity="0" result="BackgroundImageFix"/>
<feColorMatrix in="SourceAlpha" type="matrix" values="0 0 0 0 0 0 0 0 0 0 0 0 0 0 0 0 0 0 127 0" result="hardAlpha"/>
<feOffset/>
<feGaussianBlur stdDeviation="3.61943"/>
<feComposite in2="hardAlpha" operator="out"/>
<feColorMatrix type="matrix" values="0 0 0 0 0 0 0 0 0 0 0 0 0 0 0 0 0 0 0.09 0"/>
<feBlend mode="normal" in2="BackgroundImageFix" result="effect1_dropShadow_1312_7445"/>
<feBlend mode="normal" in="SourceGraphic" in2="effect1_dropShadow_1312_7445" result="shape"/>
</filter>
</defs>
</svg>
