<svg width="680" height="438" viewBox="0 0 680 438" fill="none" xmlns="http://www.w3.org/2000/svg">
<path fill-rule="evenodd" clip-rule="evenodd" d="M307.482 108.72C307.955 112.903 304.677 116.475 300.472 116.669L298.53 116.759C294.325 116.953 290.789 113.695 290.266 109.517C288.955 99.0311 285.944 88.8109 281.336 79.2632C276.727 69.7155 270.599 60.9997 263.205 53.4494C260.259 50.4416 259.908 45.646 262.676 42.4742L263.955 41.0098C266.723 37.838 271.559 37.4935 274.539 40.4666C281.88 47.7885 288.193 56.073 293.306 65.0929C295.639 67.8126 298.462 69.9969 302.429 69.6116C299.577 72.6746 299.198 75.4084 299.759 78.4164C303.706 88.1177 306.305 98.3142 307.482 108.72Z" fill="#FFEAA1"/>
<path fill-rule="evenodd" clip-rule="evenodd" d="M307.675 132.628C308.132 127.903 304.334 123.967 299.588 123.865C294.843 123.764 290.952 127.537 290.433 132.255C288.541 149.437 282.104 165.862 271.713 179.804C259.604 196.051 242.731 208.117 223.442 214.322C204.154 220.528 183.41 220.564 164.099 214.426C147.528 209.158 132.721 199.568 121.166 186.712C117.993 183.182 112.632 182.385 108.836 185.235C105.04 188.085 104.249 193.497 107.375 197.069C121.111 212.764 138.912 224.456 158.892 230.807C181.61 238.029 206.014 237.987 228.707 230.686C237.547 227.842 245.955 223.952 253.77 219.132C253.819 219.106 253.869 219.078 253.921 219.05C255.721 218.062 257.288 217.003 258.738 216.024C263.192 213.017 266.536 210.758 272.102 213.59C270.515 209.57 272.205 206.01 274.446 202.824C278.42 198.869 282.116 194.611 285.496 190.076C298.024 173.266 305.668 153.387 307.675 132.628Z" fill="#FA9801"/>
<path fill-rule="evenodd" clip-rule="evenodd" d="M79.8137 108.089C79.2542 112.802 82.9659 116.82 87.7083 117.025C92.4507 117.23 96.4221 113.542 97.044 108.836C98.9942 94.0784 104.307 79.9236 112.619 67.4829C122.527 52.6535 136.317 40.829 152.484 33.2985C168.651 25.7681 186.575 22.8208 204.302 24.7781C219.174 26.42 233.428 31.4608 245.98 39.4636C249.982 42.0155 255.36 41.3482 258.255 37.5861C261.15 33.8241 260.463 28.3978 256.494 25.7931C241.422 15.8999 224.19 9.67967 206.189 7.69221C185.333 5.38959 164.246 8.85697 145.226 17.7163C126.779 26.3085 110.964 39.6524 99.3933 56.3645C97.1748 58.5696 94.6764 59.8247 90.475 59.1407C92.8944 62.1009 92.763 65.498 91.8941 68.815C85.5394 81.0613 81.4427 94.3663 79.8137 108.089Z" fill="#FABF00"/>
<path fill-rule="evenodd" clip-rule="evenodd" d="M93.1433 176.726C95.4268 180.887 100.782 182 104.761 179.411C108.739 176.822 109.829 171.514 107.6 167.322C101.887 156.575 98.2374 144.851 96.8425 132.759C96.2985 128.044 92.3886 124.291 87.6435 124.417C82.8984 124.543 79.1207 128.499 79.6022 133.221C80.0051 137.172 80.6123 141.092 81.4191 144.965C81.6806 148.696 81.1186 151.759 77.1953 154.631C82.8038 155.151 85.204 160.281 87.2855 164.73C87.6798 165.573 88.0627 166.391 88.4538 167.149C89.865 170.407 91.4293 173.603 93.1433 176.726Z" fill="#FDD657"/>
<ellipse opacity="0.5" cx="210.131" cy="16.5681" rx="4.13113" ry="4.13113" transform="rotate(180 210.131 16.5681)" fill="white"/>
<ellipse cx="210.131" cy="16.5682" rx="2.47868" ry="2.47868" transform="rotate(180 210.131 16.5682)" fill="white"/>
<ellipse opacity="0.5" cx="283.666" cy="176.857" rx="4.13113" ry="4.13113" transform="rotate(180 283.666 176.857)" fill="white"/>
<ellipse cx="283.664" cy="176.857" rx="2.47868" ry="2.47868" transform="rotate(180 283.664 176.857)" fill="white"/>
<g filter="url(#filter0_f_1312_5557)">
<path fill-rule="evenodd" clip-rule="evenodd" d="M23.2891 35C21.0799 35 19.2891 36.7909 19.2891 39V79C19.2891 81.2091 21.0799 83 23.2891 83H81.1495C83.3587 83 85.1495 81.2091 85.1495 79V57.4346C87.0209 56.3081 89.2941 55.3062 90.5654 55.3062C89.2941 55.3062 87.021 54.3043 85.1495 53.1778V39C85.1495 36.7909 83.3587 35 81.1495 35H23.2891Z" fill="white"/>
</g>
<path d="M44.378 53.2402C43.9406 53.2402 43.538 53.1682 43.17 53.0242C42.802 52.8802 42.482 52.6802 42.21 52.4242C41.938 52.1628 41.7273 51.8588 41.578 51.5122C41.4286 51.1602 41.354 50.7762 41.354 50.3602C41.354 49.9442 41.4286 49.5628 41.578 49.2162C41.7273 48.8642 41.938 48.5602 42.21 48.3042C42.482 48.0428 42.802 47.8402 43.17 47.6962C43.538 47.5522 43.938 47.4802 44.37 47.4802C44.8073 47.4802 45.2073 47.5522 45.57 47.6962C45.938 47.8402 46.258 48.0428 46.53 48.3042C46.802 48.5602 47.0126 48.8642 47.162 49.2162C47.3113 49.5628 47.386 49.9442 47.386 50.3602C47.386 50.7762 47.3113 51.1602 47.162 51.5122C47.0126 51.8642 46.802 52.1682 46.53 52.4242C46.258 52.6802 45.938 52.8802 45.57 53.0242C45.2073 53.1682 44.81 53.2402 44.378 53.2402ZM44.37 52.3282C44.6526 52.3282 44.914 52.2802 45.154 52.1842C45.394 52.0882 45.602 51.9522 45.778 51.7762C45.954 51.5948 46.09 51.3868 46.186 51.1522C46.2873 50.9122 46.338 50.6482 46.338 50.3602C46.338 50.0722 46.2873 49.8108 46.186 49.5762C46.09 49.3362 45.954 49.1282 45.778 48.9522C45.602 48.7708 45.394 48.6322 45.154 48.5362C44.914 48.4402 44.6526 48.3922 44.37 48.3922C44.0873 48.3922 43.826 48.4402 43.586 48.5362C43.3513 48.6322 43.1433 48.7708 42.962 48.9522C42.786 49.1282 42.6473 49.3362 42.546 49.5762C42.45 49.8108 42.402 50.0722 42.402 50.3602C42.402 50.6428 42.45 50.9042 42.546 51.1442C42.6473 51.3842 42.786 51.5948 42.962 51.7762C43.138 51.9522 43.346 52.0882 43.586 52.1842C43.826 52.2802 44.0873 52.3282 44.37 52.3282ZM48.5283 53.1602L48.5283 48.6482C48.5283 48.2002 48.659 47.8428 48.9203 47.5762C49.187 47.3042 49.5657 47.1682 50.0563 47.1682C50.2323 47.1682 50.3977 47.1868 50.5523 47.2242C50.7123 47.2615 50.8457 47.3202 50.9523 47.4002L50.6803 48.1522C50.6057 48.0935 50.5203 48.0508 50.4243 48.0242C50.3283 47.9922 50.2297 47.9762 50.1283 47.9762C49.9203 47.9762 49.763 48.0348 49.6563 48.1522C49.5497 48.2642 49.4963 48.4348 49.4963 48.6642L49.4963 49.1442L49.5283 49.5922L49.5283 53.1602L48.5283 53.1602ZM47.8243 49.7202L47.8243 48.9202L50.6723 48.9202L50.6723 49.7202L47.8243 49.7202ZM51.5049 53.1602L51.5049 48.6482C51.5049 48.2002 51.6356 47.8428 51.8969 47.5762C52.1636 47.3042 52.5422 47.1682 53.0329 47.1682C53.2089 47.1682 53.3742 47.1868 53.5289 47.2242C53.6889 47.2615 53.8222 47.3202 53.9289 47.4002L53.6569 48.1522C53.5822 48.0935 53.4969 48.0508 53.4009 48.0242C53.3049 47.9922 53.2062 47.9762 53.1049 47.9762C52.8969 47.9762 52.7396 48.0348 52.6329 48.1522C52.5262 48.2642 52.4729 48.4348 52.4729 48.6642L52.4729 49.1442L52.5049 49.5922L52.5049 53.1602L51.5049 53.1602ZM50.8009 49.7202L50.8009 48.9202L53.6489 48.9202L53.6489 49.7202L50.8009 49.7202ZM56.2675 53.2162C55.7928 53.2162 55.3768 53.1228 55.0195 52.9362C54.6675 52.7442 54.3928 52.4828 54.1955 52.1522C54.0035 51.8215 53.9075 51.4455 53.9075 51.0242C53.9075 50.5975 54.0008 50.2215 54.1875 49.8962C54.3795 49.5655 54.6408 49.3068 54.9715 49.1202C55.3075 48.9335 55.6888 48.8402 56.1155 48.8402C56.5315 48.8402 56.9022 48.9308 57.2275 49.1122C57.5528 49.2935 57.8088 49.5495 57.9955 49.8802C58.1822 50.2108 58.2755 50.6002 58.2755 51.0482C58.2755 51.0908 58.2728 51.1388 58.2675 51.1922C58.2675 51.2455 58.2648 51.2962 58.2595 51.3442L54.6995 51.3442L54.6995 50.6802L57.7315 50.6802L57.3395 50.8882C57.3448 50.6428 57.2942 50.4268 57.1875 50.2402C57.0808 50.0535 56.9342 49.9068 56.7475 49.8002C56.5662 49.6935 56.3555 49.6402 56.1155 49.6402C55.8702 49.6402 55.6542 49.6935 55.4675 49.8002C55.2862 49.9068 55.1422 50.0562 55.0355 50.2482C54.9342 50.4348 54.8835 50.6562 54.8835 50.9122L54.8835 51.0722C54.8835 51.3282 54.9422 51.5548 55.0595 51.7522C55.1768 51.9495 55.3422 52.1015 55.5555 52.2082C55.7688 52.3148 56.0142 52.3682 56.2915 52.3682C56.5315 52.3682 56.7475 52.3308 56.9395 52.2562C57.1315 52.1815 57.3022 52.0642 57.4515 51.9042L57.9875 52.5202C57.7955 52.7442 57.5528 52.9175 57.2595 53.0402C56.9715 53.1575 56.6408 53.2162 56.2675 53.2162ZM59.2361 53.1602L59.2361 48.8882L60.1881 48.8882L60.1881 50.0642L60.0761 49.7202C60.2041 49.4322 60.4041 49.2135 60.6761 49.0642C60.9534 48.9148 61.2974 48.8402 61.7081 48.8402L61.7081 49.7922C61.6654 49.7815 61.6254 49.7762 61.5881 49.7762C61.5507 49.7708 61.5134 49.7682 61.4761 49.7682C61.0974 49.7682 60.7961 49.8802 60.5721 50.1042C60.3481 50.3228 60.2361 50.6508 60.2361 51.0882L60.2361 53.1602L59.2361 53.1602ZM63.9155 53.2162C63.5581 53.2162 63.2141 53.1708 62.8835 53.0802C62.5581 52.9842 62.2995 52.8695 62.1075 52.7362L62.4915 51.9762C62.6835 52.0988 62.9128 52.2002 63.1795 52.2802C63.4461 52.3602 63.7128 52.4002 63.9795 52.4002C64.2941 52.4002 64.5208 52.3575 64.6595 52.2722C64.8035 52.1868 64.8755 52.0722 64.8755 51.9282C64.8755 51.8108 64.8275 51.7228 64.7315 51.6642C64.6355 51.6002 64.5101 51.5522 64.3555 51.5202C64.2008 51.4882 64.0275 51.4588 63.8355 51.4322C63.6488 51.4055 63.4595 51.3708 63.2675 51.3282C63.0808 51.2802 62.9101 51.2135 62.7555 51.1282C62.6008 51.0375 62.4755 50.9175 62.3795 50.7682C62.2835 50.6188 62.2355 50.4215 62.2355 50.1762C62.2355 49.9042 62.3128 49.6695 62.4675 49.4722C62.6221 49.2695 62.8381 49.1148 63.1155 49.0082C63.3981 48.8962 63.7315 48.8402 64.1155 48.8402C64.4035 48.8402 64.6941 48.8722 64.9875 48.9362C65.2808 49.0002 65.5235 49.0908 65.7155 49.2082L65.3315 49.9682C65.1288 49.8455 64.9235 49.7628 64.7155 49.7202C64.5128 49.6722 64.3101 49.6482 64.1075 49.6482C63.8035 49.6482 63.5768 49.6935 63.4275 49.7842C63.2835 49.8748 63.2115 49.9895 63.2115 50.1282C63.2115 50.2562 63.2595 50.3522 63.3555 50.4162C63.4515 50.4802 63.5768 50.5308 63.7315 50.5682C63.8861 50.6055 64.0568 50.6375 64.2435 50.6642C64.4355 50.6855 64.6248 50.7202 64.8115 50.7682C64.9981 50.8162 65.1688 50.8828 65.3235 50.9682C65.4835 51.0482 65.6115 51.1628 65.7075 51.3122C65.8035 51.4615 65.8515 51.6562 65.8515 51.8962C65.8515 52.1628 65.7715 52.3948 65.6115 52.5922C65.4568 52.7895 65.2355 52.9442 64.9475 53.0562C64.6595 53.1628 64.3155 53.2162 63.9155 53.2162Z" fill="#8A8A8A"/>
<path d="M43.558 71.08L43.558 62.62L44.134 62.62L44.134 71.08L43.558 71.08ZM43.783 70.072C43.303 70.072 42.844 70 42.406 69.856C41.968 69.706 41.623 69.514 41.371 69.28L41.704 68.578C41.944 68.788 42.25 68.962 42.622 69.1C42.994 69.238 43.381 69.307 43.783 69.307C44.149 69.307 44.446 69.265 44.674 69.181C44.902 69.097 45.07 68.983 45.178 68.839C45.286 68.689 45.34 68.521 45.34 68.335C45.34 68.119 45.268 67.945 45.124 67.813C44.986 67.681 44.803 67.576 44.575 67.498C44.353 67.414 44.107 67.342 43.837 67.282C43.567 67.222 43.294 67.153 43.018 67.075C42.748 66.991 42.499 66.886 42.271 66.76C42.049 66.634 41.869 66.466 41.731 66.256C41.593 66.04 41.524 65.764 41.524 65.428C41.524 65.104 41.608 64.807 41.776 64.537C41.95 64.261 42.214 64.042 42.568 63.88C42.928 63.712 43.384 63.628 43.936 63.628C44.302 63.628 44.665 63.676 45.025 63.772C45.385 63.868 45.697 64.006 45.961 64.186L45.664 64.906C45.394 64.726 45.109 64.597 44.809 64.519C44.509 64.435 44.218 64.393 43.936 64.393C43.582 64.393 43.291 64.438 43.063 64.528C42.835 64.618 42.667 64.738 42.559 64.888C42.457 65.038 42.406 65.206 42.406 65.392C42.406 65.614 42.475 65.791 42.613 65.923C42.757 66.055 42.94 66.16 43.162 66.238C43.39 66.316 43.639 66.388 43.909 66.454C44.179 66.514 44.449 66.583 44.719 66.661C44.995 66.739 45.244 66.841 45.466 66.967C45.694 67.093 45.877 67.261 46.015 67.471C46.153 67.681 46.222 67.951 46.222 68.281C46.222 68.599 46.135 68.896 45.961 69.172C45.787 69.442 45.517 69.661 45.151 69.829C44.791 69.991 44.335 70.072 43.783 70.072ZM47.9979 70L47.9979 64.06L48.3849 64.483L46.5759 64.483L46.5759 63.7L48.8889 63.7L48.8889 70L47.9979 70ZM51.356 70L54.029 64.078L54.263 64.483L50.519 64.483L50.969 64.042L50.969 65.608L50.105 65.608L50.105 63.7L54.857 63.7L54.857 64.312L52.31 70L51.356 70ZM57.5217 70.072C57.0777 70.072 56.6457 70.003 56.2257 69.865C55.8117 69.727 55.4727 69.541 55.2087 69.307L55.6227 68.596C55.8327 68.794 56.1057 68.956 56.4417 69.082C56.7777 69.208 57.1347 69.271 57.5127 69.271C57.9927 69.271 58.3617 69.169 58.6197 68.965C58.8777 68.761 59.0067 68.488 59.0067 68.146C59.0067 67.912 58.9497 67.708 58.8357 67.534C58.7217 67.36 58.5237 67.228 58.2417 67.138C57.9657 67.042 57.5847 66.994 57.0987 66.994L55.6677 66.994L56.0007 63.7L59.5557 63.7L59.5557 64.483L56.3337 64.483L56.8017 64.042L56.5407 66.643L56.0727 66.211L57.2877 66.211C57.9177 66.211 58.4247 66.292 58.8087 66.454C59.1927 66.616 59.4717 66.841 59.6457 67.129C59.8197 67.411 59.9067 67.738 59.9067 68.11C59.9067 68.47 59.8197 68.8 59.6457 69.1C59.4717 69.394 59.2077 69.631 58.8537 69.811C58.5057 69.985 58.0617 70.072 57.5217 70.072ZM61.7446 68.848L61.7626 67.741L64.5076 65.23L65.5516 65.23L63.4456 67.3L62.9776 67.696L61.7446 68.848ZM61.0426 70L61.0426 63.322L61.9066 63.322L61.9066 70L61.0426 70ZM64.6876 70L62.8156 67.678L63.3736 66.985L65.7496 70L64.6876 70Z" fill="#8B8B8B"/>
<rect x="39" y="58" width="47" height="0.5" fill="#FABF00"/>
<path d="M319.837 61.1362L322.629 61.1362L322.629 62.0162L319.837 62.0162L319.837 61.1362ZM319.925 64.1602L318.885 64.1602L318.885 58.5602L322.973 58.5602L322.973 59.4322L319.925 59.4322L319.925 64.1602ZM325.573 64.2162C325.211 64.2162 324.891 64.1495 324.613 64.0162C324.336 63.8775 324.12 63.6695 323.965 63.3922C323.811 63.1095 323.733 62.7548 323.733 62.3282L323.733 59.8882L324.733 59.8882L324.733 62.1922C324.733 62.5762 324.819 62.8642 324.989 63.0562C325.165 63.2428 325.413 63.3362 325.733 63.3362C325.968 63.3362 326.171 63.2882 326.341 63.1922C326.517 63.0962 326.653 62.9522 326.749 62.7602C326.851 62.5682 326.901 62.3308 326.901 62.0482L326.901 59.8882L327.901 59.8882L327.901 64.1602L326.949 64.1602L326.949 63.0082L327.117 63.3602C326.973 63.6375 326.763 63.8508 326.485 64.0002C326.208 64.1442 325.904 64.2162 325.573 64.2162ZM331.635 59.8402C331.976 59.8402 332.28 59.9068 332.547 60.0402C332.819 60.1735 333.032 60.3788 333.187 60.6562C333.341 60.9282 333.419 61.2802 333.419 61.7122L333.419 64.1602L332.419 64.1602L332.419 61.8402C332.419 61.4615 332.328 61.1788 332.147 60.9922C331.971 60.8055 331.723 60.7122 331.403 60.7122C331.168 60.7122 330.96 60.7602 330.779 60.8562C330.597 60.9522 330.456 61.0962 330.355 61.2882C330.259 61.4748 330.211 61.7122 330.211 62.0002L330.211 64.1602L329.211 64.1602L329.211 59.8882L330.163 59.8882L330.163 61.0402L329.995 60.6882C330.144 60.4162 330.36 60.2082 330.643 60.0642C330.931 59.9148 331.261 59.8402 331.635 59.8402ZM336.503 64.2162C336.092 64.2162 335.722 64.1255 335.391 63.9442C335.066 63.7575 334.81 63.5015 334.623 63.1762C334.436 62.8508 334.343 62.4668 334.343 62.0242C334.343 61.5815 334.436 61.1975 334.623 60.8722C334.81 60.5468 335.066 60.2935 335.391 60.1122C335.722 59.9308 336.092 59.8402 336.503 59.8402C336.86 59.8402 337.18 59.9202 337.463 60.0802C337.746 60.2348 337.97 60.4722 338.135 60.7922C338.3 61.1122 338.383 61.5228 338.383 62.0242C338.383 62.5202 338.303 62.9308 338.143 63.2562C337.983 63.5762 337.762 63.8162 337.479 63.9762C337.196 64.1362 336.871 64.2162 336.503 64.2162ZM336.623 63.3602C336.863 63.3602 337.076 63.3068 337.263 63.2002C337.455 63.0935 337.607 62.9388 337.719 62.7362C337.836 62.5335 337.895 62.2962 337.895 62.0242C337.895 61.7468 337.836 61.5095 337.719 61.3122C337.607 61.1095 337.455 60.9548 337.263 60.8482C337.076 60.7415 336.863 60.6882 336.623 60.6882C336.383 60.6882 336.167 60.7415 335.975 60.8482C335.788 60.9548 335.636 61.1095 335.519 61.3122C335.407 61.5095 335.351 61.7468 335.351 62.0242C335.351 62.2962 335.407 62.5335 335.519 62.7362C335.636 62.9388 335.788 63.0935 335.975 63.2002C336.167 63.3068 336.383 63.3602 336.623 63.3602ZM337.919 64.1602L337.919 63.1522L337.959 62.0162L337.879 60.8802L337.879 58.2242L338.871 58.2242L338.871 64.1602L337.919 64.1602ZM342.195 64.2162C341.721 64.2162 341.305 64.1228 340.947 63.9362C340.595 63.7442 340.321 63.4828 340.123 63.1522C339.931 62.8215 339.835 62.4455 339.835 62.0242C339.835 61.5975 339.929 61.2215 340.115 60.8962C340.307 60.5655 340.569 60.3068 340.899 60.1202C341.235 59.9335 341.617 59.8402 342.043 59.8402C342.459 59.8402 342.83 59.9308 343.155 60.1122C343.481 60.2935 343.737 60.5495 343.923 60.8802C344.11 61.2108 344.203 61.6002 344.203 62.0482C344.203 62.0908 344.201 62.1388 344.195 62.1922C344.195 62.2455 344.193 62.2962 344.187 62.3442L340.627 62.3442L340.627 61.6802L343.659 61.6802L343.267 61.8882C343.273 61.6428 343.222 61.4268 343.115 61.2402C343.009 61.0535 342.862 60.9068 342.675 60.8002C342.494 60.6935 342.283 60.6402 342.043 60.6402C341.798 60.6402 341.582 60.6935 341.395 60.8002C341.214 60.9068 341.07 61.0562 340.963 61.2482C340.862 61.4348 340.811 61.6562 340.811 61.9122L340.811 62.0722C340.811 62.3282 340.87 62.5548 340.987 62.7522C341.105 62.9495 341.27 63.1015 341.483 63.2082C341.697 63.3148 341.942 63.3682 342.219 63.3682C342.459 63.3682 342.675 63.3308 342.867 63.2562C343.059 63.1815 343.23 63.0642 343.379 62.9042L343.915 63.5202C343.723 63.7442 343.481 63.9175 343.187 64.0402C342.899 64.1575 342.569 64.2162 342.195 64.2162ZM346.972 64.2162C346.561 64.2162 346.19 64.1255 345.86 63.9442C345.534 63.7575 345.278 63.5015 345.092 63.1762C344.905 62.8508 344.812 62.4668 344.812 62.0242C344.812 61.5815 344.905 61.1975 345.092 60.8722C345.278 60.5468 345.534 60.2935 345.86 60.1122C346.19 59.9308 346.561 59.8402 346.972 59.8402C347.329 59.8402 347.649 59.9202 347.932 60.0802C348.214 60.2348 348.438 60.4722 348.604 60.7922C348.769 61.1122 348.852 61.5228 348.852 62.0242C348.852 62.5202 348.772 62.9308 348.612 63.2562C348.452 63.5762 348.23 63.8162 347.948 63.9762C347.665 64.1362 347.34 64.2162 346.972 64.2162ZM347.092 63.3602C347.332 63.3602 347.545 63.3068 347.732 63.2002C347.924 63.0935 348.076 62.9388 348.188 62.7362C348.305 62.5335 348.364 62.2962 348.364 62.0242C348.364 61.7468 348.305 61.5095 348.188 61.3122C348.076 61.1095 347.924 60.9548 347.732 60.8482C347.545 60.7415 347.332 60.6882 347.092 60.6882C346.852 60.6882 346.636 60.7415 346.444 60.8482C346.257 60.9548 346.105 61.1095 345.988 61.3122C345.876 61.5095 345.82 61.7468 345.82 62.0242C345.82 62.2962 345.876 62.5335 345.988 62.7362C346.105 62.9388 346.257 63.0935 346.444 63.2002C346.636 63.3068 346.852 63.3602 347.092 63.3602ZM348.388 64.1602L348.388 63.1522L348.428 62.0162L348.348 60.8802L348.348 58.2242L349.34 58.2242L349.34 64.1602L348.388 64.1602Z" fill="#8A8A8A"/>
<path d="M327.788 82.08L327.788 73.62L328.364 73.62L328.364 82.08L327.788 82.08ZM328.013 81.072C327.533 81.072 327.074 81 326.636 80.856C326.198 80.706 325.853 80.514 325.601 80.28L325.934 79.578C326.174 79.788 326.48 79.962 326.852 80.1C327.224 80.238 327.611 80.307 328.013 80.307C328.379 80.307 328.676 80.265 328.904 80.181C329.132 80.097 329.3 79.983 329.408 79.839C329.516 79.689 329.57 79.521 329.57 79.335C329.57 79.119 329.498 78.945 329.354 78.813C329.216 78.681 329.033 78.576 328.805 78.498C328.583 78.414 328.337 78.342 328.067 78.282C327.797 78.222 327.524 78.153 327.248 78.075C326.978 77.991 326.729 77.886 326.501 77.76C326.279 77.634 326.099 77.466 325.961 77.256C325.823 77.04 325.754 76.764 325.754 76.428C325.754 76.104 325.838 75.807 326.006 75.537C326.18 75.261 326.444 75.042 326.798 74.88C327.158 74.712 327.614 74.628 328.166 74.628C328.532 74.628 328.895 74.676 329.255 74.772C329.615 74.868 329.927 75.006 330.191 75.186L329.894 75.906C329.624 75.726 329.339 75.597 329.039 75.519C328.739 75.435 328.448 75.393 328.166 75.393C327.812 75.393 327.521 75.438 327.293 75.528C327.065 75.618 326.897 75.738 326.789 75.888C326.687 76.038 326.636 76.206 326.636 76.392C326.636 76.614 326.705 76.791 326.843 76.923C326.987 77.055 327.17 77.16 327.392 77.238C327.62 77.316 327.869 77.388 328.139 77.454C328.409 77.514 328.679 77.583 328.949 77.661C329.225 77.739 329.474 77.841 329.696 77.967C329.924 78.093 330.107 78.261 330.245 78.471C330.383 78.681 330.452 78.951 330.452 79.281C330.452 79.599 330.365 79.896 330.191 80.172C330.017 80.442 329.747 80.661 329.381 80.829C329.021 80.991 328.565 81.072 328.013 81.072ZM332.228 81L332.228 75.06L332.615 75.483L330.806 75.483L330.806 74.7L333.119 74.7L333.119 81L332.228 81ZM335.586 81L338.259 75.078L338.493 75.483L334.749 75.483L335.199 75.042L335.199 76.608L334.335 76.608L334.335 74.7L339.087 74.7L339.087 75.312L336.54 81L335.586 81ZM341.752 81.072C341.308 81.072 340.876 81.003 340.456 80.865C340.042 80.727 339.703 80.541 339.439 80.307L339.853 79.596C340.063 79.794 340.336 79.956 340.672 80.082C341.008 80.208 341.365 80.271 341.743 80.271C342.223 80.271 342.592 80.169 342.85 79.965C343.108 79.761 343.237 79.488 343.237 79.146C343.237 78.912 343.18 78.708 343.066 78.534C342.952 78.36 342.754 78.228 342.472 78.138C342.196 78.042 341.815 77.994 341.329 77.994L339.898 77.994L340.231 74.7L343.786 74.7L343.786 75.483L340.564 75.483L341.032 75.042L340.771 77.643L340.303 77.211L341.518 77.211C342.148 77.211 342.655 77.292 343.039 77.454C343.423 77.616 343.702 77.841 343.876 78.129C344.05 78.411 344.137 78.738 344.137 79.11C344.137 79.47 344.05 79.8 343.876 80.1C343.702 80.394 343.438 80.631 343.084 80.811C342.736 80.985 342.292 81.072 341.752 81.072ZM345.975 79.848L345.993 78.741L348.738 76.23L349.782 76.23L347.676 78.3L347.208 78.696L345.975 79.848ZM345.273 81L345.273 74.322L346.137 74.322L346.137 81L345.273 81ZM348.918 81L347.046 78.678L347.604 77.985L349.98 81L348.918 81Z" fill="#8B8B8B"/>
<rect x="305.711" y="69" width="47" height="0.5" fill="#FEE9A1"/>
<g filter="url(#filter1_f_1312_5557)">
<path fill-rule="evenodd" clip-rule="evenodd" d="M12 132C9.79086 132 8 133.791 8 136V176C8 178.209 9.79086 180 12 180H69.8605C72.0696 180 73.8605 178.209 73.8605 176V154.435C75.7318 153.308 78.005 152.306 79.2764 152.306C78.0051 152.306 75.7319 151.304 73.8605 150.178V136C73.8605 133.791 72.0696 132 69.8605 132H12Z" fill="white"/>
</g>
<path d="M20.1989 149.24C19.7616 149.24 19.3429 149.179 18.9429 149.056C18.5429 148.928 18.2256 148.765 17.9909 148.568L18.3509 147.76C18.5749 147.936 18.8523 148.083 19.1829 148.2C19.5136 148.317 19.8523 148.376 20.1989 148.376C20.4923 148.376 20.7296 148.344 20.9109 148.28C21.0923 148.216 21.2256 148.131 21.3109 148.024C21.3963 147.912 21.4389 147.787 21.4389 147.648C21.4389 147.477 21.3776 147.341 21.2549 147.24C21.1323 147.133 20.9723 147.051 20.7749 146.992C20.5829 146.928 20.3669 146.869 20.1269 146.816C19.8923 146.763 19.6549 146.701 19.4149 146.632C19.1803 146.557 18.9643 146.464 18.7669 146.352C18.5749 146.235 18.4176 146.08 18.2949 145.888C18.1723 145.696 18.1109 145.451 18.1109 145.152C18.1109 144.848 18.1909 144.571 18.3509 144.32C18.5163 144.064 18.7643 143.861 19.0949 143.712C19.4309 143.557 19.8549 143.48 20.3669 143.48C20.7029 143.48 21.0363 143.523 21.3669 143.608C21.6976 143.693 21.9856 143.816 22.2309 143.976L21.9029 144.784C21.6523 144.635 21.3936 144.525 21.1269 144.456C20.8603 144.381 20.6043 144.344 20.3589 144.344C20.0709 144.344 19.8363 144.379 19.6549 144.448C19.4789 144.517 19.3483 144.608 19.2629 144.72C19.1829 144.832 19.1429 144.96 19.1429 145.104C19.1429 145.275 19.2016 145.413 19.3189 145.52C19.4416 145.621 19.5989 145.701 19.7909 145.76C19.9883 145.819 20.2069 145.877 20.4469 145.936C20.6869 145.989 20.9243 146.051 21.1589 146.12C21.3989 146.189 21.6149 146.28 21.8069 146.392C22.0043 146.504 22.1616 146.656 22.2789 146.848C22.4016 147.04 22.4629 147.283 22.4629 147.576C22.4629 147.875 22.3803 148.152 22.2149 148.408C22.0549 148.659 21.8069 148.861 21.4709 149.016C21.1349 149.165 20.7109 149.24 20.1989 149.24ZM25.2062 149.216C24.8435 149.216 24.5235 149.149 24.2462 149.016C23.9689 148.877 23.7529 148.669 23.5982 148.392C23.4435 148.109 23.3662 147.755 23.3662 147.328L23.3662 144.888L24.3662 144.888L24.3662 147.192C24.3662 147.576 24.4515 147.864 24.6222 148.056C24.7982 148.243 25.0462 148.336 25.3662 148.336C25.6009 148.336 25.8035 148.288 25.9742 148.192C26.1502 148.096 26.2862 147.952 26.3822 147.76C26.4835 147.568 26.5342 147.331 26.5342 147.048L26.5342 144.888L27.5342 144.888L27.5342 149.16L26.5822 149.16L26.5822 148.008L26.7502 148.36C26.6062 148.637 26.3955 148.851 26.1182 149C25.8409 149.144 25.5369 149.216 25.2062 149.216ZM31.2115 149.216C30.8488 149.216 30.5262 149.136 30.2435 148.976C29.9608 148.816 29.7368 148.576 29.5715 148.256C29.4115 147.931 29.3315 147.52 29.3315 147.024C29.3315 146.523 29.4142 146.112 29.5795 145.792C29.7502 145.472 29.9768 145.235 30.2595 145.08C30.5475 144.92 30.8648 144.84 31.2115 144.84C31.6328 144.84 32.0035 144.931 32.3235 145.112C32.6488 145.293 32.9048 145.547 33.0915 145.872C33.2835 146.197 33.3795 146.581 33.3795 147.024C33.3795 147.467 33.2835 147.851 33.0915 148.176C32.9048 148.501 32.6488 148.757 32.3235 148.944C32.0035 149.125 31.6328 149.216 31.2115 149.216ZM28.8435 149.16L28.8435 143.224L29.8435 143.224L29.8435 145.88L29.7635 147.016L29.7955 148.152L29.7955 149.16L28.8435 149.16ZM31.0995 148.36C31.3395 148.36 31.5528 148.307 31.7395 148.2C31.9315 148.093 32.0835 147.939 32.1955 147.736C32.3075 147.533 32.3635 147.296 32.3635 147.024C32.3635 146.747 32.3075 146.509 32.1955 146.312C32.0835 146.109 31.9315 145.955 31.7395 145.848C31.5528 145.741 31.3395 145.688 31.0995 145.688C30.8595 145.688 30.6435 145.741 30.4515 145.848C30.2595 145.955 30.1075 146.109 29.9955 146.312C29.8835 146.509 29.8275 146.747 29.8275 147.024C29.8275 147.296 29.8835 147.533 29.9955 147.736C30.1075 147.939 30.2595 148.093 30.4515 148.2C30.6435 148.307 30.8595 148.36 31.0995 148.36ZM39.7199 144.84C40.0612 144.84 40.3625 144.907 40.6239 145.04C40.8905 145.173 41.0985 145.379 41.2479 145.656C41.3972 145.928 41.4719 146.28 41.4719 146.712L41.4719 149.16L40.4719 149.16L40.4719 146.84C40.4719 146.461 40.3892 146.179 40.2239 145.992C40.0585 145.805 39.8212 145.712 39.5119 145.712C39.2932 145.712 39.0985 145.76 38.9279 145.856C38.7625 145.952 38.6319 146.093 38.5359 146.28C38.4452 146.467 38.3999 146.704 38.3999 146.992L38.3999 149.16L37.3999 149.16L37.3999 146.84C37.3999 146.461 37.3172 146.179 37.1519 145.992C36.9865 145.805 36.7492 145.712 36.4399 145.712C36.2212 145.712 36.0265 145.76 35.8559 145.856C35.6905 145.952 35.5599 146.093 35.4639 146.28C35.3732 146.467 35.3279 146.704 35.3279 146.992L35.3279 149.16L34.3279 149.16L34.3279 144.888L35.2799 144.888L35.2799 146.024L35.1119 145.688C35.2559 145.411 35.4639 145.2 35.7359 145.056C36.0132 144.912 36.3279 144.84 36.6799 144.84C37.0799 144.84 37.4265 144.939 37.7199 145.136C38.0185 145.333 38.2159 145.632 38.3119 146.032L37.9199 145.896C38.0585 145.576 38.2879 145.32 38.6079 145.128C38.9279 144.936 39.2985 144.84 39.7199 144.84ZM42.7497 149.16L42.7497 144.888L43.7497 144.888L43.7497 149.16L42.7497 149.16ZM43.2537 144.184C43.0671 144.184 42.9124 144.125 42.7897 144.008C42.6724 143.891 42.6137 143.749 42.6137 143.584C42.6137 143.413 42.6724 143.272 42.7897 143.16C42.9124 143.043 43.0671 142.984 43.2537 142.984C43.4404 142.984 43.5924 143.04 43.7097 143.152C43.8324 143.259 43.8937 143.395 43.8937 143.56C43.8937 143.736 43.8351 143.885 43.7177 144.008C43.6004 144.125 43.4457 144.184 43.2537 144.184ZM46.6702 149.216C46.2009 149.216 45.8382 149.096 45.5822 148.856C45.3262 148.611 45.1982 148.251 45.1982 147.776L45.1982 143.944L46.1982 143.944L46.1982 147.752C46.1982 147.955 46.2489 148.112 46.3502 148.224C46.4569 148.336 46.6036 148.392 46.7902 148.392C47.0142 148.392 47.2009 148.333 47.3502 148.216L47.6302 148.928C47.5129 149.024 47.3689 149.096 47.1982 149.144C47.0276 149.192 46.8516 149.216 46.6702 149.216ZM44.4942 145.72L44.4942 144.92L47.3422 144.92L47.3422 145.72L44.4942 145.72ZM48.4529 149.16L48.4529 144.888L49.4529 144.888L49.4529 149.16L48.4529 149.16ZM48.9569 144.184C48.7702 144.184 48.6155 144.125 48.4929 144.008C48.3755 143.891 48.3169 143.749 48.3169 143.584C48.3169 143.413 48.3755 143.272 48.4929 143.16C48.6155 143.043 48.7702 142.984 48.9569 142.984C49.1435 142.984 49.2955 143.04 49.4129 143.152C49.5355 143.259 49.5969 143.395 49.5969 143.56C49.5969 143.736 49.5382 143.885 49.4209 144.008C49.3035 144.125 49.1489 144.184 48.9569 144.184ZM52.6854 149.216C52.248 149.216 51.8587 149.123 51.5174 148.936C51.176 148.744 50.9067 148.483 50.7094 148.152C50.512 147.821 50.4134 147.445 50.4134 147.024C50.4134 146.597 50.512 146.221 50.7094 145.896C50.9067 145.565 51.176 145.307 51.5174 145.12C51.8587 144.933 52.248 144.84 52.6854 144.84C53.128 144.84 53.52 144.933 53.8614 145.12C54.208 145.307 54.4774 145.563 54.6694 145.888C54.8667 146.213 54.9654 146.592 54.9654 147.024C54.9654 147.445 54.8667 147.821 54.6694 148.152C54.4774 148.483 54.208 148.744 53.8614 148.936C53.52 149.123 53.128 149.216 52.6854 149.216ZM52.6854 148.36C52.9307 148.36 53.1494 148.307 53.3414 148.2C53.5334 148.093 53.6827 147.939 53.7894 147.736C53.9014 147.533 53.9574 147.296 53.9574 147.024C53.9574 146.747 53.9014 146.509 53.7894 146.312C53.6827 146.109 53.5334 145.955 53.3414 145.848C53.1494 145.741 52.9334 145.688 52.6934 145.688C52.448 145.688 52.2294 145.741 52.0374 145.848C51.8507 145.955 51.7014 146.109 51.5894 146.312C51.4774 146.509 51.4214 146.747 51.4214 147.024C51.4214 147.296 51.4774 147.533 51.5894 147.736C51.7014 147.939 51.8507 148.093 52.0374 148.2C52.2294 148.307 52.4454 148.36 52.6854 148.36ZM58.3456 144.84C58.687 144.84 58.991 144.907 59.2576 145.04C59.5296 145.173 59.743 145.379 59.8976 145.656C60.0523 145.928 60.1296 146.28 60.1296 146.712L60.1296 149.16L59.1296 149.16L59.1296 146.84C59.1296 146.461 59.039 146.179 58.8576 145.992C58.6816 145.805 58.4336 145.712 58.1136 145.712C57.879 145.712 57.671 145.76 57.4896 145.856C57.3083 145.952 57.167 146.096 57.0656 146.288C56.9696 146.475 56.9216 146.712 56.9216 147L56.9216 149.16L55.9216 149.16L55.9216 144.888L56.8736 144.888L56.8736 146.04L56.7056 145.688C56.855 145.416 57.071 145.208 57.3536 145.064C57.6416 144.915 57.9723 144.84 58.3456 144.84ZM62.7182 149.216C62.3609 149.216 62.0169 149.171 61.6862 149.08C61.3609 148.984 61.1022 148.869 60.9102 148.736L61.2942 147.976C61.4862 148.099 61.7155 148.2 61.9822 148.28C62.2489 148.36 62.5155 148.4 62.7822 148.4C63.0969 148.4 63.3235 148.357 63.4622 148.272C63.6062 148.187 63.6782 148.072 63.6782 147.928C63.6782 147.811 63.6302 147.723 63.5342 147.664C63.4382 147.6 63.3129 147.552 63.1582 147.52C63.0035 147.488 62.8302 147.459 62.6382 147.432C62.4515 147.405 62.2622 147.371 62.0702 147.328C61.8835 147.28 61.7129 147.213 61.5582 147.128C61.4035 147.037 61.2782 146.917 61.1822 146.768C61.0862 146.619 61.0382 146.421 61.0382 146.176C61.0382 145.904 61.1155 145.669 61.2702 145.472C61.4249 145.269 61.6409 145.115 61.9182 145.008C62.2009 144.896 62.5342 144.84 62.9182 144.84C63.2062 144.84 63.4969 144.872 63.7902 144.936C64.0835 145 64.3262 145.091 64.5182 145.208L64.1342 145.968C63.9315 145.845 63.7262 145.763 63.5182 145.72C63.3155 145.672 63.1129 145.648 62.9102 145.648C62.6062 145.648 62.3795 145.693 62.2302 145.784C62.0862 145.875 62.0142 145.989 62.0142 146.128C62.0142 146.256 62.0622 146.352 62.1582 146.416C62.2542 146.48 62.3795 146.531 62.5342 146.568C62.6889 146.605 62.8595 146.637 63.0462 146.664C63.2382 146.685 63.4275 146.72 63.6142 146.768C63.8009 146.816 63.9715 146.883 64.1262 146.968C64.2862 147.048 64.4142 147.163 64.5102 147.312C64.6062 147.461 64.6542 147.656 64.6542 147.896C64.6542 148.163 64.5742 148.395 64.4142 148.592C64.2595 148.789 64.0382 148.944 63.7502 149.056C63.4622 149.163 63.1182 149.216 62.7182 149.216Z" fill="#8A8A8A"/>
<path d="M20.2669 167.08L20.2669 158.62L20.8429 158.62L20.8429 167.08L20.2669 167.08ZM20.4919 166.072C20.0119 166.072 19.5529 166 19.1149 165.856C18.6769 165.706 18.3319 165.514 18.0799 165.28L18.4129 164.578C18.6529 164.788 18.9589 164.962 19.3309 165.1C19.7029 165.238 20.0899 165.307 20.4919 165.307C20.8579 165.307 21.1549 165.265 21.3829 165.181C21.6109 165.097 21.7789 164.983 21.8869 164.839C21.9949 164.689 22.0489 164.521 22.0489 164.335C22.0489 164.119 21.9769 163.945 21.8329 163.813C21.6949 163.681 21.5119 163.576 21.2839 163.498C21.0619 163.414 20.8159 163.342 20.5459 163.282C20.2759 163.222 20.0029 163.153 19.7269 163.075C19.4569 162.991 19.2079 162.886 18.9799 162.76C18.7579 162.634 18.5779 162.466 18.4399 162.256C18.3019 162.04 18.2329 161.764 18.2329 161.428C18.2329 161.104 18.3169 160.807 18.4849 160.537C18.6589 160.261 18.9229 160.042 19.2769 159.88C19.6369 159.712 20.0929 159.628 20.6449 159.628C21.0109 159.628 21.3739 159.676 21.7339 159.772C22.0939 159.868 22.4059 160.006 22.6699 160.186L22.3729 160.906C22.1029 160.726 21.8179 160.597 21.5179 160.519C21.2179 160.435 20.9269 160.393 20.6449 160.393C20.2909 160.393 19.9999 160.438 19.7719 160.528C19.5439 160.618 19.3759 160.738 19.2679 160.888C19.1659 161.038 19.1149 161.206 19.1149 161.392C19.1149 161.614 19.1839 161.791 19.3219 161.923C19.4659 162.055 19.6489 162.16 19.8709 162.238C20.0989 162.316 20.3479 162.388 20.6179 162.454C20.8879 162.514 21.1579 162.583 21.4279 162.661C21.7039 162.739 21.9529 162.841 22.1749 162.967C22.4029 163.093 22.5859 163.261 22.7239 163.471C22.8619 163.681 22.9309 163.951 22.9309 164.281C22.9309 164.599 22.8439 164.896 22.6699 165.172C22.4959 165.442 22.2259 165.661 21.8599 165.829C21.4999 165.991 21.0439 166.072 20.4919 166.072ZM24.7069 166L24.7069 160.06L25.0939 160.483L23.2849 160.483L23.2849 159.7L25.5979 159.7L25.5979 166L24.7069 166ZM28.0649 166L30.7379 160.078L30.9719 160.483L27.2279 160.483L27.6779 160.042L27.6779 161.608L26.8139 161.608L26.8139 159.7L31.5659 159.7L31.5659 160.312L29.0189 166L28.0649 166ZM34.2306 166.072C33.7866 166.072 33.3546 166.003 32.9346 165.865C32.5206 165.727 32.1816 165.541 31.9176 165.307L32.3316 164.596C32.5416 164.794 32.8146 164.956 33.1506 165.082C33.4866 165.208 33.8436 165.271 34.2216 165.271C34.7016 165.271 35.0706 165.169 35.3286 164.965C35.5866 164.761 35.7156 164.488 35.7156 164.146C35.7156 163.912 35.6586 163.708 35.5446 163.534C35.4306 163.36 35.2326 163.228 34.9506 163.138C34.6746 163.042 34.2936 162.994 33.8076 162.994L32.3766 162.994L32.7096 159.7L36.2646 159.7L36.2646 160.483L33.0426 160.483L33.5106 160.042L33.2496 162.643L32.7816 162.211L33.9966 162.211C34.6266 162.211 35.1336 162.292 35.5176 162.454C35.9016 162.616 36.1806 162.841 36.3546 163.129C36.5286 163.411 36.6156 163.738 36.6156 164.11C36.6156 164.47 36.5286 164.8 36.3546 165.1C36.1806 165.394 35.9166 165.631 35.5626 165.811C35.2146 165.985 34.7706 166.072 34.2306 166.072ZM38.4536 164.848L38.4716 163.741L41.2166 161.23L42.2606 161.23L40.1546 163.3L39.6866 163.696L38.4536 164.848ZM37.7516 166L37.7516 159.322L38.6156 159.322L38.6156 166L37.7516 166ZM41.3966 166L39.5246 163.678L40.0826 162.985L42.4586 166L41.3966 166Z" fill="#8B8B8B"/>
<rect x="16" y="154" width="58" height="0.5" fill="#FDD657"/>
<path d="M316.666 211.16L316.666 205.56L317.706 205.56L317.706 210.28L320.634 210.28L320.634 211.16L316.666 211.16ZM323.328 211.216C322.853 211.216 322.437 211.123 322.08 210.936C321.728 210.744 321.453 210.483 321.256 210.152C321.064 209.821 320.968 209.445 320.968 209.024C320.968 208.597 321.061 208.221 321.248 207.896C321.44 207.565 321.701 207.307 322.032 207.12C322.368 206.933 322.749 206.84 323.176 206.84C323.592 206.84 323.963 206.931 324.288 207.112C324.613 207.293 324.869 207.549 325.056 207.88C325.243 208.211 325.336 208.6 325.336 209.048C325.336 209.091 325.333 209.139 325.328 209.192C325.328 209.245 325.325 209.296 325.32 209.344L321.76 209.344L321.76 208.68L324.792 208.68L324.4 208.888C324.405 208.643 324.355 208.427 324.248 208.24C324.141 208.053 323.995 207.907 323.808 207.8C323.627 207.693 323.416 207.64 323.176 207.64C322.931 207.64 322.715 207.693 322.528 207.8C322.347 207.907 322.203 208.056 322.096 208.248C321.995 208.435 321.944 208.656 321.944 208.912L321.944 209.072C321.944 209.328 322.003 209.555 322.12 209.752C322.237 209.949 322.403 210.101 322.616 210.208C322.829 210.315 323.075 210.368 323.352 210.368C323.592 210.368 323.808 210.331 324 210.256C324.192 210.181 324.363 210.064 324.512 209.904L325.048 210.52C324.856 210.744 324.613 210.917 324.32 211.04C324.032 211.157 323.701 211.216 323.328 211.216ZM328.811 211.16L328.811 210.296L328.755 210.112L328.755 208.6C328.755 208.307 328.667 208.08 328.491 207.92C328.315 207.755 328.049 207.672 327.691 207.672C327.451 207.672 327.214 207.709 326.979 207.784C326.75 207.859 326.555 207.963 326.395 208.096L326.003 207.368C326.233 207.192 326.505 207.061 326.819 206.976C327.139 206.885 327.47 206.84 327.811 206.84C328.43 206.84 328.907 206.989 329.243 207.288C329.585 207.581 329.755 208.037 329.755 208.656L329.755 211.16L328.811 211.16ZM327.467 211.216C327.147 211.216 326.867 211.163 326.627 211.056C326.387 210.944 326.201 210.792 326.067 210.6C325.939 210.403 325.875 210.181 325.875 209.936C325.875 209.696 325.931 209.48 326.043 209.288C326.161 209.096 326.35 208.944 326.611 208.832C326.873 208.72 327.219 208.664 327.651 208.664L328.891 208.664L328.891 209.328L327.723 209.328C327.382 209.328 327.153 209.384 327.035 209.496C326.918 209.603 326.859 209.736 326.859 209.896C326.859 210.077 326.931 210.221 327.075 210.328C327.219 210.435 327.419 210.488 327.675 210.488C327.921 210.488 328.139 210.432 328.331 210.32C328.529 210.208 328.67 210.043 328.755 209.824L328.923 210.424C328.827 210.675 328.654 210.869 328.403 211.008C328.158 211.147 327.846 211.216 327.467 211.216ZM332.855 211.216C332.444 211.216 332.073 211.125 331.743 210.944C331.417 210.757 331.161 210.501 330.975 210.176C330.788 209.851 330.695 209.467 330.695 209.024C330.695 208.581 330.788 208.197 330.975 207.872C331.161 207.547 331.417 207.293 331.743 207.112C332.073 206.931 332.444 206.84 332.855 206.84C333.212 206.84 333.532 206.92 333.815 207.08C334.097 207.235 334.321 207.472 334.487 207.792C334.652 208.112 334.735 208.523 334.735 209.024C334.735 209.52 334.655 209.931 334.495 210.256C334.335 210.576 334.113 210.816 333.831 210.976C333.548 211.136 333.223 211.216 332.855 211.216ZM332.975 210.36C333.215 210.36 333.428 210.307 333.615 210.2C333.807 210.093 333.959 209.939 334.071 209.736C334.188 209.533 334.247 209.296 334.247 209.024C334.247 208.747 334.188 208.509 334.071 208.312C333.959 208.109 333.807 207.955 333.615 207.848C333.428 207.741 333.215 207.688 332.975 207.688C332.735 207.688 332.519 207.741 332.327 207.848C332.14 207.955 331.988 208.109 331.871 208.312C331.759 208.509 331.703 208.747 331.703 209.024C331.703 209.296 331.759 209.533 331.871 209.736C331.988 209.939 332.14 210.093 332.327 210.2C332.519 210.307 332.735 210.36 332.975 210.36ZM334.271 211.16L334.271 210.152L334.311 209.016L334.231 207.88L334.231 205.224L335.223 205.224L335.223 211.16L334.271 211.16ZM337.859 211.216C337.501 211.216 337.157 211.171 336.827 211.08C336.501 210.984 336.243 210.869 336.051 210.736L336.435 209.976C336.627 210.099 336.856 210.2 337.123 210.28C337.389 210.36 337.656 210.4 337.923 210.4C338.237 210.4 338.464 210.357 338.603 210.272C338.747 210.187 338.819 210.072 338.819 209.928C338.819 209.811 338.771 209.723 338.675 209.664C338.579 209.6 338.453 209.552 338.299 209.52C338.144 209.488 337.971 209.459 337.779 209.432C337.592 209.405 337.403 209.371 337.211 209.328C337.024 209.28 336.853 209.213 336.699 209.128C336.544 209.037 336.419 208.917 336.323 208.768C336.227 208.619 336.179 208.421 336.179 208.176C336.179 207.904 336.256 207.669 336.411 207.472C336.565 207.269 336.781 207.115 337.059 207.008C337.341 206.896 337.675 206.84 338.059 206.84C338.347 206.84 338.637 206.872 338.931 206.936C339.224 207 339.467 207.091 339.659 207.208L339.275 207.968C339.072 207.845 338.867 207.763 338.659 207.72C338.456 207.672 338.253 207.648 338.051 207.648C337.747 207.648 337.52 207.693 337.371 207.784C337.227 207.875 337.155 207.989 337.155 208.128C337.155 208.256 337.203 208.352 337.299 208.416C337.395 208.48 337.52 208.531 337.675 208.568C337.829 208.605 338 208.637 338.187 208.664C338.379 208.685 338.568 208.72 338.755 208.768C338.941 208.816 339.112 208.883 339.267 208.968C339.427 209.048 339.555 209.163 339.651 209.312C339.747 209.461 339.795 209.656 339.795 209.896C339.795 210.163 339.715 210.395 339.555 210.592C339.4 210.789 339.179 210.944 338.891 211.056C338.603 211.163 338.259 211.216 337.859 211.216Z" fill="#8A8A8A"/>
<path d="M317.788 229.08L317.788 220.62L318.364 220.62L318.364 229.08L317.788 229.08ZM318.013 228.072C317.533 228.072 317.074 228 316.636 227.856C316.198 227.706 315.853 227.514 315.601 227.28L315.934 226.578C316.174 226.788 316.48 226.962 316.852 227.1C317.224 227.238 317.611 227.307 318.013 227.307C318.379 227.307 318.676 227.265 318.904 227.181C319.132 227.097 319.3 226.983 319.408 226.839C319.516 226.689 319.57 226.521 319.57 226.335C319.57 226.119 319.498 225.945 319.354 225.813C319.216 225.681 319.033 225.576 318.805 225.498C318.583 225.414 318.337 225.342 318.067 225.282C317.797 225.222 317.524 225.153 317.248 225.075C316.978 224.991 316.729 224.886 316.501 224.76C316.279 224.634 316.099 224.466 315.961 224.256C315.823 224.04 315.754 223.764 315.754 223.428C315.754 223.104 315.838 222.807 316.006 222.537C316.18 222.261 316.444 222.042 316.798 221.88C317.158 221.712 317.614 221.628 318.166 221.628C318.532 221.628 318.895 221.676 319.255 221.772C319.615 221.868 319.927 222.006 320.191 222.186L319.894 222.906C319.624 222.726 319.339 222.597 319.039 222.519C318.739 222.435 318.448 222.393 318.166 222.393C317.812 222.393 317.521 222.438 317.293 222.528C317.065 222.618 316.897 222.738 316.789 222.888C316.687 223.038 316.636 223.206 316.636 223.392C316.636 223.614 316.705 223.791 316.843 223.923C316.987 224.055 317.17 224.16 317.392 224.238C317.62 224.316 317.869 224.388 318.139 224.454C318.409 224.514 318.679 224.583 318.949 224.661C319.225 224.739 319.474 224.841 319.696 224.967C319.924 225.093 320.107 225.261 320.245 225.471C320.383 225.681 320.452 225.951 320.452 226.281C320.452 226.599 320.365 226.896 320.191 227.172C320.017 227.442 319.747 227.661 319.381 227.829C319.021 227.991 318.565 228.072 318.013 228.072ZM322.228 228L322.228 222.06L322.615 222.483L320.806 222.483L320.806 221.7L323.119 221.7L323.119 228L322.228 228ZM325.586 228L328.259 222.078L328.493 222.483L324.749 222.483L325.199 222.042L325.199 223.608L324.335 223.608L324.335 221.7L329.087 221.7L329.087 222.312L326.54 228L325.586 228ZM331.752 228.072C331.308 228.072 330.876 228.003 330.456 227.865C330.042 227.727 329.703 227.541 329.439 227.307L329.853 226.596C330.063 226.794 330.336 226.956 330.672 227.082C331.008 227.208 331.365 227.271 331.743 227.271C332.223 227.271 332.592 227.169 332.85 226.965C333.108 226.761 333.237 226.488 333.237 226.146C333.237 225.912 333.18 225.708 333.066 225.534C332.952 225.36 332.754 225.228 332.472 225.138C332.196 225.042 331.815 224.994 331.329 224.994L329.898 224.994L330.231 221.7L333.786 221.7L333.786 222.483L330.564 222.483L331.032 222.042L330.771 224.643L330.303 224.211L331.518 224.211C332.148 224.211 332.655 224.292 333.039 224.454C333.423 224.616 333.702 224.841 333.876 225.129C334.05 225.411 334.137 225.738 334.137 226.11C334.137 226.47 334.05 226.8 333.876 227.1C333.702 227.394 333.438 227.631 333.084 227.811C332.736 227.985 332.292 228.072 331.752 228.072ZM335.975 226.848L335.993 225.741L338.738 223.23L339.782 223.23L337.676 225.3L337.208 225.696L335.975 226.848ZM335.273 228L335.273 221.322L336.137 221.322L336.137 228L335.273 228ZM338.918 228L337.046 225.678L337.604 224.985L339.98 228L338.918 228Z" fill="#8B8B8B"/>
<rect x="275" y="216" width="68" height="0.5" fill="#FA9801"/>
<defs>
<filter id="filter0_f_1312_5557" x="11.2891" y="27" width="87.2773" height="64" filterUnits="userSpaceOnUse" color-interpolation-filters="sRGB">
<feFlood flood-opacity="0" result="BackgroundImageFix"/>
<feBlend mode="normal" in="SourceGraphic" in2="BackgroundImageFix" result="shape"/>
<feGaussianBlur stdDeviation="4" result="effect1_foregroundBlur_1312_5557"/>
</filter>
<filter id="filter1_f_1312_5557" x="0" y="124" width="87.2773" height="64" filterUnits="userSpaceOnUse" color-interpolation-filters="sRGB">
<feFlood flood-opacity="0" result="BackgroundImageFix"/>
<feBlend mode="normal" in="SourceGraphic" in2="BackgroundImageFix" result="shape"/>
<feGaussianBlur stdDeviation="4" result="effect1_foregroundBlur_1312_5557"/>
</filter>
</defs>
</svg>
