<svg width="672" height="438" viewBox="0 0 672 438" fill="none" xmlns="http://www.w3.org/2000/svg">
<g filter="url(#filter0_d_1312_5085)">
<path d="M85.8259 425H263.174C265.839 425 268 422.839 268 420.174V362.698C268 360.032 265.839 357.872 263.174 357.872H215.372C213.553 357.872 211.889 356.849 211.067 355.226L207.857 348.889C207.671 348.522 207.147 348.524 206.963 348.892L203.831 355.194C203.016 356.834 201.342 357.872 199.51 357.872H85.8259C83.1606 357.872 81 360.032 81 362.698V420.174C81 422.839 83.1606 425 85.8259 425Z" fill="white"/>
</g>
<path d="M94.8277 408.727V402.233H97.6514C98.3831 402.233 99.0157 402.366 99.5492 402.633C100.09 402.9 100.506 403.277 100.795 403.765C101.093 404.253 101.241 404.824 101.241 405.48C101.241 406.135 101.093 406.707 100.795 407.195C100.506 407.682 100.09 408.06 99.5492 408.326C99.0157 408.593 98.3831 408.727 97.6514 408.727H94.8277ZM95.9366 407.801H97.6057C98.1392 407.801 98.5927 407.709 98.9661 407.526C99.3396 407.336 99.6254 407.065 99.8235 406.714C100.022 406.364 100.121 405.952 100.121 405.48C100.121 405 100.022 404.588 99.8235 404.245C99.6254 403.895 99.3396 403.624 98.9661 403.433C98.5927 403.243 98.1392 403.148 97.6057 403.148H95.9366V407.801ZM103.781 404.977H107.199V405.88H103.781V404.977ZM103.964 407.801H107.725V408.727H102.855V402.233H107.599V403.148H103.964V407.801ZM108.254 408.727L111.227 402.233H112.324L115.308 408.727H114.188L111.593 402.816H111.97L109.34 408.727H108.254ZM109.615 407.183L109.912 406.303H113.479L113.776 407.183H109.615ZM116.408 408.727V402.233H117.517V407.801H121.004V408.727H116.408ZM126.663 406.875C126.663 407.271 126.556 407.614 126.343 407.903C126.137 408.193 125.836 408.418 125.44 408.578C125.051 408.738 124.578 408.818 124.022 408.818C123.519 408.818 123.027 408.749 122.547 408.612C122.075 408.467 121.705 408.277 121.438 408.041L121.873 407.172C122.132 407.378 122.456 407.549 122.844 407.686C123.233 407.816 123.641 407.881 124.068 407.881C124.616 407.881 125.001 407.793 125.222 407.618C125.443 407.435 125.554 407.221 125.554 406.977C125.554 406.764 125.482 406.596 125.337 406.474C125.2 406.345 125.013 406.246 124.777 406.177C124.54 406.101 124.281 406.032 123.999 405.971C123.725 405.91 123.447 405.842 123.165 405.766C122.89 405.689 122.635 405.587 122.399 405.457C122.17 405.327 121.983 405.152 121.838 404.931C121.694 404.702 121.621 404.417 121.621 404.074C121.621 403.685 121.728 403.346 121.941 403.056C122.155 402.767 122.456 402.542 122.844 402.382C123.233 402.222 123.698 402.142 124.239 402.142C124.636 402.142 125.028 402.187 125.417 402.279C125.805 402.363 126.141 402.504 126.423 402.702L126.023 403.594C125.748 403.403 125.451 403.27 125.131 403.193C124.818 403.117 124.51 403.079 124.205 403.079C123.687 403.079 123.309 403.171 123.073 403.353C122.844 403.529 122.73 403.746 122.73 404.005C122.73 404.218 122.803 404.39 122.947 404.52C123.092 404.641 123.279 404.741 123.508 404.817C123.744 404.885 124.003 404.95 124.285 405.011C124.567 405.072 124.845 405.141 125.119 405.217C125.394 405.293 125.649 405.396 125.885 405.526C126.122 405.655 126.308 405.83 126.446 406.051C126.59 406.265 126.663 406.539 126.663 406.875ZM131.268 408.727V402.233H132.377V408.727H131.268ZM134.584 408.727V402.233H135.498L139.671 407.355H139.248V402.233H140.357V408.727H139.442L135.258 403.605H135.692V408.727H134.584ZM145.647 408.727V402.233H148.3C148.871 402.233 149.363 402.325 149.774 402.507C150.186 402.683 150.506 402.942 150.735 403.285C150.963 403.62 151.078 404.032 151.078 404.52C151.078 405 150.963 405.411 150.735 405.754C150.506 406.097 150.186 406.36 149.774 406.543C149.363 406.726 148.871 406.817 148.3 406.817H146.265L146.756 406.292V408.727H145.647ZM146.756 406.417L146.333 405.891H148.231C148.795 405.891 149.222 405.773 149.511 405.537C149.809 405.301 149.957 404.962 149.957 404.52C149.957 404.077 149.809 403.738 149.511 403.502C149.222 403.266 148.795 403.148 148.231 403.148H146.333L146.756 402.622V406.417ZM152.77 408.727V402.233H155.422C155.994 402.233 156.486 402.325 156.897 402.507C157.309 402.683 157.629 402.942 157.857 403.285C158.086 403.62 158.2 404.032 158.2 404.52C158.2 404.992 158.086 405.4 157.857 405.743C157.629 406.086 157.309 406.349 156.897 406.532C156.486 406.707 155.994 406.795 155.422 406.795H153.387L153.879 406.292V408.727H152.77ZM157.114 408.727L155.422 406.372H156.623L158.315 408.727H157.114ZM153.879 406.417L153.456 405.891H155.354C155.918 405.891 156.345 405.773 156.634 405.537C156.931 405.301 157.08 404.962 157.08 404.52C157.08 404.077 156.931 403.738 156.634 403.502C156.345 403.266 155.918 403.148 155.354 403.148H153.456L153.879 402.622V406.417ZM162.898 408.818C162.227 408.818 161.625 408.673 161.091 408.384C160.558 408.094 160.135 407.698 159.822 407.195C159.518 406.684 159.365 406.109 159.365 405.468C159.365 404.836 159.518 404.268 159.822 403.765C160.135 403.262 160.558 402.866 161.091 402.576C161.625 402.286 162.227 402.142 162.898 402.142C163.576 402.142 164.178 402.286 164.704 402.576C165.237 402.866 165.657 403.262 165.962 403.765C166.274 404.268 166.43 404.836 166.43 405.468C166.43 406.109 166.274 406.684 165.962 407.195C165.657 407.698 165.237 408.094 164.704 408.384C164.178 408.673 163.576 408.818 162.898 408.818ZM162.898 407.858C163.363 407.858 163.774 407.755 164.132 407.549C164.498 407.343 164.784 407.061 164.99 406.703C165.203 406.337 165.31 405.929 165.31 405.48C165.31 405.015 165.203 404.607 164.99 404.257C164.784 403.898 164.498 403.616 164.132 403.411C163.774 403.205 163.363 403.102 162.898 403.102C162.44 403.102 162.029 403.205 161.663 403.411C161.297 403.609 161.008 403.887 160.794 404.245C160.588 404.603 160.485 405.015 160.485 405.48C160.485 405.929 160.588 406.337 160.794 406.703C161.008 407.061 161.297 407.343 161.663 407.549C162.029 407.755 162.44 407.858 162.898 407.858ZM173.519 407.983C173.305 408.159 173.065 408.311 172.799 408.441C172.532 408.563 172.246 408.658 171.941 408.727C171.636 408.788 171.328 408.818 171.015 408.818C170.329 408.818 169.716 408.673 169.175 408.384C168.633 408.094 168.207 407.698 167.894 407.195C167.589 406.684 167.437 406.112 167.437 405.48C167.437 404.832 167.589 404.26 167.894 403.765C168.207 403.262 168.626 402.866 169.152 402.576C169.685 402.286 170.291 402.142 170.969 402.142C171.533 402.142 172.036 402.225 172.478 402.393C172.921 402.561 173.29 402.816 173.587 403.159L172.879 403.879C172.627 403.613 172.341 403.418 172.021 403.296C171.709 403.167 171.366 403.102 170.992 403.102C170.527 403.102 170.108 403.205 169.735 403.411C169.369 403.609 169.079 403.887 168.866 404.245C168.66 404.603 168.557 405.015 168.557 405.48C168.557 405.929 168.664 406.337 168.877 406.703C169.091 407.061 169.384 407.343 169.758 407.549C170.131 407.755 170.554 407.858 171.027 407.858C171.392 407.858 171.728 407.804 172.033 407.698C172.337 407.583 172.619 407.408 172.879 407.172L173.519 407.983ZM172.444 407.995V405.446H173.519V407.983L172.444 407.995ZM175.523 408.727V402.233H178.175C178.747 402.233 179.238 402.325 179.65 402.507C180.061 402.683 180.382 402.942 180.61 403.285C180.839 403.62 180.953 404.032 180.953 404.52C180.953 404.992 180.839 405.4 180.61 405.743C180.382 406.086 180.061 406.349 179.65 406.532C179.238 406.707 178.747 406.795 178.175 406.795H176.14L176.632 406.292V408.727H175.523ZM179.867 408.727L178.175 406.372H179.375L181.067 408.727H179.867ZM176.632 406.417L176.209 405.891H178.107C178.671 405.891 179.097 405.773 179.387 405.537C179.684 405.301 179.833 404.962 179.833 404.52C179.833 404.077 179.684 403.738 179.387 403.502C179.097 403.266 178.671 403.148 178.107 403.148H176.209L176.632 402.622V406.417ZM183.65 404.977H187.068V405.88H183.65V404.977ZM183.833 407.801H187.594V408.727H182.724V402.233H187.468V403.148H183.833V407.801ZM193.782 406.875C193.782 407.271 193.676 407.614 193.462 407.903C193.256 408.193 192.955 408.418 192.559 408.578C192.17 408.738 191.698 408.818 191.141 408.818C190.638 408.818 190.147 408.749 189.667 408.612C189.194 408.467 188.825 408.277 188.558 408.041L188.992 407.172C189.251 407.378 189.575 407.549 189.964 407.686C190.353 407.816 190.76 407.881 191.187 407.881C191.736 407.881 192.121 407.793 192.342 407.618C192.563 407.435 192.673 407.221 192.673 406.977C192.673 406.764 192.601 406.596 192.456 406.474C192.319 406.345 192.132 406.246 191.896 406.177C191.66 406.101 191.401 406.032 191.119 405.971C190.844 405.91 190.566 405.842 190.284 405.766C190.01 405.689 189.754 405.587 189.518 405.457C189.289 405.327 189.103 405.152 188.958 404.931C188.813 404.702 188.741 404.417 188.741 404.074C188.741 403.685 188.847 403.346 189.061 403.056C189.274 402.767 189.575 402.542 189.964 402.382C190.353 402.222 190.818 402.142 191.359 402.142C191.755 402.142 192.147 402.187 192.536 402.279C192.925 402.363 193.26 402.504 193.542 402.702L193.142 403.594C192.868 403.403 192.57 403.27 192.25 403.193C191.938 403.117 191.629 403.079 191.324 403.079C190.806 403.079 190.429 403.171 190.193 403.353C189.964 403.529 189.85 403.746 189.85 404.005C189.85 404.218 189.922 404.39 190.067 404.52C190.212 404.641 190.398 404.741 190.627 404.817C190.863 404.885 191.122 404.95 191.404 405.011C191.686 405.072 191.965 405.141 192.239 405.217C192.513 405.293 192.769 405.396 193.005 405.526C193.241 405.655 193.428 405.83 193.565 406.051C193.71 406.265 193.782 406.539 193.782 406.875ZM199.856 406.875C199.856 407.271 199.749 407.614 199.536 407.903C199.33 408.193 199.029 408.418 198.632 408.578C198.244 408.738 197.771 408.818 197.215 408.818C196.712 408.818 196.22 408.749 195.74 408.612C195.268 408.467 194.898 408.277 194.631 408.041L195.066 407.172C195.325 407.378 195.649 407.549 196.037 407.686C196.426 407.816 196.834 407.881 197.261 407.881C197.809 407.881 198.194 407.793 198.415 407.618C198.636 407.435 198.747 407.221 198.747 406.977C198.747 406.764 198.674 406.596 198.529 406.474C198.392 406.345 198.206 406.246 197.969 406.177C197.733 406.101 197.474 406.032 197.192 405.971C196.918 405.91 196.639 405.842 196.357 405.766C196.083 405.689 195.828 405.587 195.591 405.457C195.363 405.327 195.176 405.152 195.031 404.931C194.886 404.702 194.814 404.417 194.814 404.074C194.814 403.685 194.921 403.346 195.134 403.056C195.348 402.767 195.649 402.542 196.037 402.382C196.426 402.222 196.891 402.142 197.432 402.142C197.828 402.142 198.221 402.187 198.61 402.279C198.998 402.363 199.334 402.504 199.616 402.702L199.215 403.594C198.941 403.403 198.644 403.27 198.324 403.193C198.011 403.117 197.703 403.079 197.398 403.079C196.879 403.079 196.502 403.171 196.266 403.353C196.037 403.529 195.923 403.746 195.923 404.005C195.923 404.218 195.995 404.39 196.14 404.52C196.285 404.641 196.472 404.741 196.7 404.817C196.937 404.885 197.196 404.95 197.478 405.011C197.76 405.072 198.038 405.141 198.312 405.217C198.587 405.293 198.842 405.396 199.078 405.526C199.314 405.655 199.501 405.83 199.638 406.051C199.783 406.265 199.856 406.539 199.856 406.875Z" fill="#525252"/>
<path d="M100.286 386.932C99.2145 386.932 98.1646 386.78 97.1365 386.476C96.1228 386.157 95.2685 385.723 94.5734 385.173L95.7681 382.979C96.3183 383.428 96.9844 383.79 97.7664 384.065C98.5628 384.34 99.3882 384.478 100.243 384.478C101.242 384.478 102.024 384.268 102.588 383.848C103.168 383.428 103.457 382.863 103.457 382.153C103.457 381.676 103.334 381.256 103.088 380.894C102.856 380.532 102.436 380.256 101.828 380.068C101.235 379.88 100.416 379.786 99.3738 379.786H95.7029L96.4849 371.51H105.412V373.878H97.5275L99.0045 372.531L98.418 378.721L96.941 377.396H100.004C101.51 377.396 102.719 377.599 103.631 378.005C104.558 378.396 105.231 378.946 105.651 379.655C106.086 380.351 106.303 381.147 106.303 382.045C106.303 382.928 106.086 383.739 105.651 384.478C105.217 385.216 104.551 385.81 103.653 386.259C102.77 386.708 101.647 386.932 100.286 386.932ZM114.008 386.932C112.936 386.932 111.887 386.78 110.858 386.476C109.845 386.157 108.99 385.723 108.295 385.173L109.49 382.979C110.04 383.428 110.706 383.79 111.488 384.065C112.285 384.34 113.11 384.478 113.965 384.478C114.964 384.478 115.746 384.268 116.31 383.848C116.89 383.428 117.179 382.863 117.179 382.153C117.179 381.676 117.056 381.256 116.81 380.894C116.578 380.532 116.158 380.256 115.55 380.068C114.957 379.88 114.138 379.786 113.096 379.786H109.425L110.207 371.51H119.134V373.878H111.249L112.726 372.531L112.14 378.721L110.663 377.396H113.726C115.232 377.396 116.441 377.599 117.353 378.005C118.28 378.396 118.953 378.946 119.373 379.655C119.808 380.351 120.025 381.147 120.025 382.045C120.025 382.928 119.808 383.739 119.373 384.478C118.939 385.216 118.273 385.81 117.375 386.259C116.491 386.708 115.369 386.932 114.008 386.932Z" fill="#525252"/>
<g filter="url(#filter1_d_1312_5085)">
<path d="M239.806 390.396L208.953 406.579L253.636 348.32L239.806 390.396Z" fill="#397FFF"/>
<path d="M239.806 390.396L208.953 406.579L253.636 348.32L239.806 390.396Z" fill="url(#paint0_linear_1312_5085)" fill-opacity="0.2"/>
<path d="M239.733 390.402L208.953 406.336L232.038 415.631L255.764 424.926L239.733 390.402Z" fill="#3BBDC4"/>
<path d="M239.733 390.402L208.953 406.336L232.038 415.631L255.764 424.926L239.733 390.402Z" fill="url(#paint1_linear_1312_5085)" fill-opacity="0.2"/>
<path d="M283.386 405.506L239.768 390.402L255.79 424.926L269.89 415.631L283.386 405.506Z" fill="#B1E5E7"/>
<path d="M283.386 405.506L239.768 390.402L255.79 424.926L269.89 415.631L283.386 405.506Z" fill="url(#paint2_linear_1312_5085)" fill-opacity="0.2"/>
<path d="M283.426 405.5L239.807 390.396L253.637 348.32L267.999 375.831L283.426 405.5Z" fill="#88B2FF"/>
<path d="M283.426 405.5L239.807 390.396L253.637 348.32L267.999 375.831L283.426 405.5Z" fill="url(#paint3_linear_1312_5085)" fill-opacity="0.2"/>
</g>
<defs>
<filter id="filter0_d_1312_5085" x="73.7611" y="341.374" width="201.478" height="90.8645" filterUnits="userSpaceOnUse" color-interpolation-filters="sRGB">
<feFlood flood-opacity="0" result="BackgroundImageFix"/>
<feColorMatrix in="SourceAlpha" type="matrix" values="0 0 0 0 0 0 0 0 0 0 0 0 0 0 0 0 0 0 127 0" result="hardAlpha"/>
<feOffset/>
<feGaussianBlur stdDeviation="3.61943"/>
<feComposite in2="hardAlpha" operator="out"/>
<feColorMatrix type="matrix" values="0 0 0 0 0 0 0 0 0 0 0 0 0 0 0 0 0 0 0.09 0"/>
<feBlend mode="normal" in2="BackgroundImageFix" result="effect1_dropShadow_1312_5085"/>
<feBlend mode="normal" in="SourceGraphic" in2="effect1_dropShadow_1312_5085" result="shape"/>
</filter>
<filter id="filter1_d_1312_5085" x="204.698" y="348.32" width="82.9837" height="85.1165" filterUnits="userSpaceOnUse" color-interpolation-filters="sRGB">
<feFlood flood-opacity="0" result="BackgroundImageFix"/>
<feColorMatrix in="SourceAlpha" type="matrix" values="0 0 0 0 0 0 0 0 0 0 0 0 0 0 0 0 0 0 127 0" result="hardAlpha"/>
<feOffset dy="4.2555"/>
<feGaussianBlur stdDeviation="2.12775"/>
<feComposite in2="hardAlpha" operator="out"/>
<feColorMatrix type="matrix" values="0 0 0 0 0 0 0 0 0 0 0 0 0 0 0 0 0 0 0.15 0"/>
<feBlend mode="normal" in2="BackgroundImageFix" result="effect1_dropShadow_1312_5085"/>
<feBlend mode="normal" in="SourceGraphic" in2="effect1_dropShadow_1312_5085" result="shape"/>
</filter>
<linearGradient id="paint0_linear_1312_5085" x1="240.158" y1="359.93" x2="239.467" y2="390.532" gradientUnits="userSpaceOnUse">
<stop/>
<stop offset="1" stop-opacity="0"/>
</linearGradient>
<linearGradient id="paint1_linear_1312_5085" x1="234.456" y1="429.906" x2="240.094" y2="390.672" gradientUnits="userSpaceOnUse">
<stop/>
<stop offset="1" stop-opacity="0"/>
</linearGradient>
<linearGradient id="paint2_linear_1312_5085" x1="284.942" y1="432.119" x2="238.383" y2="391.709" gradientUnits="userSpaceOnUse">
<stop/>
<stop offset="1" stop-opacity="0"/>
</linearGradient>
<linearGradient id="paint3_linear_1312_5085" x1="255.656" y1="344.025" x2="239.869" y2="389.653" gradientUnits="userSpaceOnUse">
<stop/>
<stop offset="1" stop-opacity="0"/>
</linearGradient>
</defs>
</svg>
