<svg width="672" height="438" viewBox="0 0 672 438" fill="none" xmlns="http://www.w3.org/2000/svg">
<g filter="url(#filter0_b_1312_6029)">
<path d="M105 30.4995C43 37.4999 42.3314 195.68 19 195.312L10 249.684C33.3314 250.052 32.5859 89.4981 90 89.5C153.5 89.502 156 332 206.5 332C242.5 332 241 263.5 274.5 263.5C308 263.5 333 374.5 369 370C405 365.5 454 197.5 508 197.5C562 197.5 589 281.999 641.5 272.5L622 177C599 136.501 581 64.0009 531.5 63.9996C482 63.9983 446 177 385.5 177C359.977 177 322.5 102.014 295 106.498C267.5 110.982 254.5 153.498 209.5 153.498C164.5 153.498 167 23.499 105 30.4995Z" fill="white" fill-opacity="0.01"/>
</g>
<path d="M19 195.312C42.3314 195.68 43 37.4999 105 30.4995C167 23.499 164.5 153.498 209.5 153.498C254.5 153.498 267.5 110.982 295 106.498C322.5 102.014 359.977 177 385.5 177C446 177 482 63.9983 531.5 63.9996C581 64.0009 599 136.501 622 177" stroke="url(#paint0_linear_1312_6029)" stroke-opacity="0.6" stroke-width="2.22481" stroke-linecap="round"/>
<path fill-rule="evenodd" clip-rule="evenodd" d="M533.45 68.8992C535.907 68.8992 537.899 66.9071 537.899 64.4496C537.899 61.9922 535.907 60 533.45 60C530.992 60 529 61.9922 529 64.4496C529 66.9071 530.992 68.8992 533.45 68.8992Z" fill="#D1D8D9"/>
<path fill-rule="evenodd" clip-rule="evenodd" d="M533.449 66.6762C534.678 66.6762 535.674 65.6801 535.674 64.4514C535.674 63.2226 534.678 62.2266 533.449 62.2266C532.221 62.2266 531.225 63.2226 531.225 64.4514C531.225 65.6801 532.221 66.6762 533.449 66.6762Z" fill="white"/>
<path fill-rule="evenodd" clip-rule="evenodd" d="M385.45 180.899C387.907 180.899 389.899 178.907 389.899 176.45C389.899 173.992 387.907 172 385.45 172C382.992 172 381 173.992 381 176.45C381 178.907 382.992 180.899 385.45 180.899Z" fill="#D1D8D9"/>
<path fill-rule="evenodd" clip-rule="evenodd" d="M385.449 178.676C386.678 178.676 387.674 177.68 387.674 176.451C387.674 175.223 386.678 174.227 385.449 174.227C384.221 174.227 383.225 175.223 383.225 176.451C383.225 177.68 384.221 178.676 385.449 178.676Z" fill="white"/>
<path fill-rule="evenodd" clip-rule="evenodd" d="M203.45 156.899C205.907 156.899 207.899 154.907 207.899 152.45C207.899 149.992 205.907 148 203.45 148C200.992 148 199 149.992 199 152.45C199 154.907 200.992 156.899 203.45 156.899Z" fill="#D1D8D9"/>
<path fill-rule="evenodd" clip-rule="evenodd" d="M203.449 154.676C204.678 154.676 205.674 153.68 205.674 152.451C205.674 151.223 204.678 150.227 203.449 150.227C202.221 150.227 201.225 151.223 201.225 152.451C201.225 153.68 202.221 154.676 203.449 154.676Z" fill="white"/>
<path d="M10 249.684C33.3314 250.052 32.5859 89.4981 90 89.5C153.5 89.502 156 332 206.5 332C242.5 332 241 263.5 274.5 263.5C308 263.5 333 374.5 369 370C405 365.5 454 197.5 508 197.5C562 197.5 589 281.999 641.5 272.5" stroke="url(#paint1_linear_1312_6029)" stroke-opacity="0.6" stroke-width="2.22481" stroke-linecap="round"/>
<path fill-rule="evenodd" clip-rule="evenodd" d="M207.45 336.899C209.907 336.899 211.899 334.907 211.899 332.45C211.899 329.992 209.907 328 207.45 328C204.992 328 203 329.992 203 332.45C203 334.907 204.992 336.899 207.45 336.899Z" fill="#D1D8D9"/>
<path fill-rule="evenodd" clip-rule="evenodd" d="M207.449 334.676C208.678 334.676 209.674 333.68 209.674 332.451C209.674 331.223 208.678 330.227 207.449 330.227C206.221 330.227 205.225 331.223 205.225 332.451C205.225 333.68 206.221 334.676 207.449 334.676Z" fill="white"/>
<path fill-rule="evenodd" clip-rule="evenodd" d="M367.45 374.899C369.907 374.899 371.899 372.907 371.899 370.45C371.899 367.992 369.907 366 367.45 366C364.992 366 363 367.992 363 370.45C363 372.907 364.992 374.899 367.45 374.899Z" fill="#D1D8D9"/>
<path fill-rule="evenodd" clip-rule="evenodd" d="M367.449 372.676C368.678 372.676 369.674 371.68 369.674 370.451C369.674 369.223 368.678 368.227 367.449 368.227C366.221 368.227 365.225 369.223 365.225 370.451C365.225 371.68 366.221 372.676 367.449 372.676Z" fill="white"/>
<path fill-rule="evenodd" clip-rule="evenodd" d="M274.45 268.899C276.907 268.899 278.899 266.907 278.899 264.45C278.899 261.992 276.907 260 274.45 260C271.992 260 270 261.992 270 264.45C270 266.907 271.992 268.899 274.45 268.899Z" fill="#D1D8D9"/>
<path fill-rule="evenodd" clip-rule="evenodd" d="M274.449 266.676C275.678 266.676 276.674 265.68 276.674 264.451C276.674 263.223 275.678 262.227 274.449 262.227C273.221 262.227 272.225 263.223 272.225 264.451C272.225 265.68 273.221 266.676 274.449 266.676Z" fill="white"/>
<defs>
<filter id="filter0_b_1312_6029" x="6" y="26.2266" width="639.5" height="347.906" filterUnits="userSpaceOnUse" color-interpolation-filters="sRGB">
<feFlood flood-opacity="0" result="BackgroundImageFix"/>
<feGaussianBlur in="BackgroundImageFix" stdDeviation="2"/>
<feComposite in2="SourceAlpha" operator="in" result="effect1_backgroundBlur_1312_6029"/>
<feBlend mode="normal" in="SourceGraphic" in2="effect1_backgroundBlur_1312_6029" result="shape"/>
</filter>
<linearGradient id="paint0_linear_1312_6029" x1="613" y1="175.976" x2="31" y2="201.476" gradientUnits="userSpaceOnUse">
<stop stop-color="#D1D8D9" stop-opacity="0"/>
<stop offset="0.135099" stop-color="#D1D8D9"/>
<stop offset="0.819189" stop-color="#D1D8D9"/>
<stop offset="0.958699" stop-color="#D1D8D9" stop-opacity="0"/>
</linearGradient>
<linearGradient id="paint1_linear_1312_6029" x1="632.074" y1="221.968" x2="22.5925" y2="248.961" gradientUnits="userSpaceOnUse">
<stop stop-color="#D1D8D9" stop-opacity="0"/>
<stop offset="0.135099" stop-color="#D1D8D9"/>
<stop offset="0.819189" stop-color="#D1D8D9"/>
<stop offset="0.958699" stop-color="#D1D8D9" stop-opacity="0"/>
</linearGradient>
</defs>
</svg>
