<svg width="634" height="462" viewBox="0 0 634 462" fill="none" xmlns="http://www.w3.org/2000/svg">
<circle cx="281.13" cy="281.211" r="1.61756" transform="rotate(-180 281.13 281.211)" fill="#D9D9D9"/>
<circle cx="264.955" cy="281.211" r="1.61756" transform="rotate(-180 264.955 281.211)" fill="#D9D9D9"/>
<circle cx="248.779" cy="281.211" r="1.61756" transform="rotate(-180 248.779 281.211)" fill="#D9D9D9"/>
<circle cx="232.603" cy="281.211" r="1.61756" transform="rotate(-180 232.603 281.211)" fill="#D9D9D9"/>
<circle cx="216.427" cy="281.211" r="1.61756" transform="rotate(-180 216.427 281.211)" fill="#D9D9D9"/>
<circle cx="200.252" cy="281.211" r="1.61756" transform="rotate(-180 200.252 281.211)" fill="#D9D9D9"/>
<circle cx="281.13" cy="265.035" r="1.61756" transform="rotate(-180 281.13 265.035)" fill="#D9D9D9"/>
<circle cx="264.955" cy="265.035" r="1.61756" transform="rotate(-180 264.955 265.035)" fill="#D9D9D9"/>
<circle cx="248.779" cy="265.035" r="1.61756" transform="rotate(-180 248.779 265.035)" fill="#D9D9D9"/>
<circle cx="232.603" cy="265.035" r="1.61756" transform="rotate(-180 232.603 265.035)" fill="#1245C7"/>
<circle cx="216.427" cy="265.035" r="1.61756" transform="rotate(-180 216.427 265.035)" fill="#D9D9D9"/>
<circle cx="200.252" cy="265.035" r="1.61756" transform="rotate(-180 200.252 265.035)" fill="#D9D9D9"/>
<circle cx="281.13" cy="248.859" r="1.61756" transform="rotate(-180 281.13 248.859)" fill="#D9D9D9"/>
<circle cx="264.955" cy="248.859" r="1.61756" transform="rotate(-180 264.955 248.859)" fill="#D9D9D9"/>
<circle cx="248.779" cy="248.859" r="1.61756" transform="rotate(-180 248.779 248.859)" fill="#D9D9D9"/>
<circle cx="232.603" cy="248.859" r="1.61756" transform="rotate(-180 232.603 248.859)" fill="#D9D9D9"/>
<circle cx="216.427" cy="248.859" r="1.61756" transform="rotate(-180 216.427 248.859)" fill="#D9D9D9"/>
<circle cx="200.252" cy="248.859" r="1.61756" transform="rotate(-180 200.252 248.859)" fill="#D9D9D9"/>
<circle cx="281.13" cy="232.683" r="1.61756" transform="rotate(-180 281.13 232.683)" fill="#D9D9D9"/>
<circle cx="264.955" cy="232.683" r="1.61756" transform="rotate(-180 264.955 232.683)" fill="#1245C7"/>
<circle cx="248.779" cy="232.683" r="1.61756" transform="rotate(-180 248.779 232.683)" fill="#D9D9D9"/>
<circle cx="232.603" cy="232.683" r="1.61756" transform="rotate(-180 232.603 232.683)" fill="#D9D9D9"/>
<circle cx="216.427" cy="232.683" r="1.61756" transform="rotate(-180 216.427 232.683)" fill="#D9D9D9"/>
<circle cx="200.252" cy="232.683" r="1.61756" transform="rotate(-180 200.252 232.683)" fill="#D9D9D9"/>
<circle cx="281.13" cy="216.507" r="1.61756" transform="rotate(-180 281.13 216.507)" fill="#D9D9D9"/>
<circle cx="264.955" cy="216.507" r="1.61756" transform="rotate(-180 264.955 216.507)" fill="#D9D9D9"/>
<circle cx="248.779" cy="216.507" r="1.61756" transform="rotate(-180 248.779 216.507)" fill="#D9D9D9"/>
<circle cx="232.603" cy="216.507" r="1.61756" transform="rotate(-180 232.603 216.507)" fill="#D9D9D9"/>
<circle cx="216.427" cy="216.507" r="1.61756" transform="rotate(-180 216.427 216.507)" fill="#D9D9D9"/>
<circle cx="200.252" cy="216.507" r="1.61756" transform="rotate(-180 200.252 216.507)" fill="#D9D9D9"/>
<circle cx="281.13" cy="200.332" r="1.61756" transform="rotate(-180 281.13 200.332)" fill="#D9D9D9"/>
<circle cx="264.955" cy="200.332" r="1.61756" transform="rotate(-180 264.955 200.332)" fill="#D9D9D9"/>
<circle cx="248.779" cy="200.332" r="1.61756" transform="rotate(-180 248.779 200.332)" fill="#D9D9D9"/>
<circle cx="232.603" cy="200.332" r="1.61756" transform="rotate(-180 232.603 200.332)" fill="#D9D9D9"/>
<circle cx="216.427" cy="200.332" r="1.61756" transform="rotate(-180 216.427 200.332)" fill="#1245C7"/>
<circle cx="200.252" cy="200.332" r="1.61756" transform="rotate(-180 200.252 200.332)" fill="#D9D9D9"/>
<circle cx="494.533" cy="428.537" r="1.4666" transform="rotate(-180 494.533 428.537)" fill="#D9D9D9"/>
<circle cx="479.867" cy="428.537" r="1.4666" transform="rotate(-180 479.867 428.537)" fill="#D9D9D9"/>
<circle cx="465.201" cy="428.537" r="1.4666" transform="rotate(-180 465.201 428.537)" fill="#D9D9D9"/>
<circle cx="450.535" cy="428.537" r="1.4666" transform="rotate(-180 450.535 428.537)" fill="#D9D9D9"/>
<circle cx="435.869" cy="428.537" r="1.4666" transform="rotate(-180 435.869 428.537)" fill="#D9D9D9"/>
<circle cx="421.203" cy="428.537" r="1.4666" transform="rotate(-180 421.203 428.537)" fill="#D9D9D9"/>
<circle cx="494.533" cy="413.873" r="1.4666" transform="rotate(-180 494.533 413.873)" fill="#D9D9D9"/>
<circle cx="479.867" cy="413.873" r="1.4666" transform="rotate(-180 479.867 413.873)" fill="#D9D9D9"/>
<circle cx="465.201" cy="413.873" r="1.4666" transform="rotate(-180 465.201 413.873)" fill="#D9D9D9"/>
<circle cx="450.535" cy="413.873" r="1.4666" transform="rotate(-180 450.535 413.873)" fill="#1245C7"/>
<circle cx="435.869" cy="413.873" r="1.4666" transform="rotate(-180 435.869 413.873)" fill="#D9D9D9"/>
<circle cx="421.203" cy="413.873" r="1.4666" transform="rotate(-180 421.203 413.873)" fill="#D9D9D9"/>
<circle cx="494.533" cy="399.205" r="1.4666" transform="rotate(-180 494.533 399.205)" fill="#D9D9D9"/>
<circle cx="479.867" cy="399.205" r="1.4666" transform="rotate(-180 479.867 399.205)" fill="#D9D9D9"/>
<circle cx="465.201" cy="399.205" r="1.4666" transform="rotate(-180 465.201 399.205)" fill="#D9D9D9"/>
<circle cx="450.535" cy="399.205" r="1.4666" transform="rotate(-180 450.535 399.205)" fill="#D9D9D9"/>
<circle cx="435.869" cy="399.205" r="1.4666" transform="rotate(-180 435.869 399.205)" fill="#D9D9D9"/>
<circle cx="421.203" cy="399.205" r="1.4666" transform="rotate(-180 421.203 399.205)" fill="#D9D9D9"/>
<circle cx="494.533" cy="384.541" r="1.4666" transform="rotate(-180 494.533 384.541)" fill="#D9D9D9"/>
<circle cx="479.867" cy="384.541" r="1.4666" transform="rotate(-180 479.867 384.541)" fill="#1245C7"/>
<circle cx="465.201" cy="384.541" r="1.4666" transform="rotate(-180 465.201 384.541)" fill="#D9D9D9"/>
<circle cx="450.535" cy="384.541" r="1.4666" transform="rotate(-180 450.535 384.541)" fill="#D9D9D9"/>
<circle cx="435.869" cy="384.541" r="1.4666" transform="rotate(-180 435.869 384.541)" fill="#D9D9D9"/>
<circle cx="421.203" cy="384.541" r="1.4666" transform="rotate(-180 421.203 384.541)" fill="#D9D9D9"/>
<circle cx="494.533" cy="369.873" r="1.4666" transform="rotate(-180 494.533 369.873)" fill="#D9D9D9"/>
<circle cx="479.867" cy="369.873" r="1.4666" transform="rotate(-180 479.867 369.873)" fill="#D9D9D9"/>
<circle cx="465.201" cy="369.873" r="1.4666" transform="rotate(-180 465.201 369.873)" fill="#D9D9D9"/>
<circle cx="450.535" cy="369.873" r="1.4666" transform="rotate(-180 450.535 369.873)" fill="#D9D9D9"/>
<circle cx="435.869" cy="369.873" r="1.4666" transform="rotate(-180 435.869 369.873)" fill="#D9D9D9"/>
<circle cx="421.203" cy="369.873" r="1.4666" transform="rotate(-180 421.203 369.873)" fill="#D9D9D9"/>
<circle cx="494.533" cy="355.209" r="1.4666" transform="rotate(-180 494.533 355.209)" fill="#D9D9D9"/>
<circle cx="479.867" cy="355.209" r="1.4666" transform="rotate(-180 479.867 355.209)" fill="#D9D9D9"/>
<circle cx="465.201" cy="355.209" r="1.4666" transform="rotate(-180 465.201 355.209)" fill="#D9D9D9"/>
<circle cx="450.535" cy="355.209" r="1.4666" transform="rotate(-180 450.535 355.209)" fill="#D9D9D9"/>
<circle cx="435.869" cy="355.209" r="1.4666" transform="rotate(-180 435.869 355.209)" fill="#1245C7"/>
<circle cx="421.203" cy="355.209" r="1.4666" transform="rotate(-180 421.203 355.209)" fill="#D9D9D9"/>
<circle cx="204.088" cy="54.0923" r="1.08835" fill="#D9D9D9"/>
<circle cx="214.971" cy="54.0923" r="1.08835" fill="#D9D9D9"/>
<circle cx="225.856" cy="54.0923" r="1.08835" fill="#D9D9D9"/>
<circle cx="236.739" cy="54.0923" r="1.08835" fill="#D9D9D9"/>
<circle cx="247.622" cy="54.0923" r="1.08835" fill="#D9D9D9"/>
<circle cx="258.506" cy="54.0923" r="1.08835" fill="#D9D9D9"/>
<circle cx="204.088" cy="64.9751" r="1.08835" fill="#D9D9D9"/>
<circle cx="214.971" cy="64.9751" r="1.08835" fill="#D9D9D9"/>
<circle cx="225.856" cy="64.9751" r="1.08835" fill="#D9D9D9"/>
<circle cx="236.739" cy="64.9751" r="1.08835" fill="#1245C7"/>
<circle cx="247.622" cy="64.9751" r="1.08835" fill="#D9D9D9"/>
<circle cx="258.506" cy="64.9751" r="1.08835" fill="#D9D9D9"/>
<circle cx="204.088" cy="75.8579" r="1.08835" fill="#D9D9D9"/>
<circle cx="214.971" cy="75.8579" r="1.08835" fill="#D9D9D9"/>
<circle cx="225.856" cy="75.8579" r="1.08835" fill="#D9D9D9"/>
<circle cx="236.739" cy="75.8579" r="1.08835" fill="#D9D9D9"/>
<circle cx="247.622" cy="75.8579" r="1.08835" fill="#D9D9D9"/>
<circle cx="258.506" cy="75.8579" r="1.08835" fill="#D9D9D9"/>
<circle cx="204.088" cy="86.7407" r="1.08835" fill="#D9D9D9"/>
<circle cx="214.971" cy="86.7407" r="1.08835" fill="#1245C7"/>
<circle cx="225.856" cy="86.7407" r="1.08835" fill="#D9D9D9"/>
<circle cx="236.739" cy="86.7407" r="1.08835" fill="#D9D9D9"/>
<circle cx="247.622" cy="86.7407" r="1.08835" fill="#D9D9D9"/>
<circle cx="258.506" cy="86.7407" r="1.08835" fill="#D9D9D9"/>
<circle cx="204.088" cy="97.6274" r="1.08835" fill="#D9D9D9"/>
<circle cx="214.971" cy="97.6274" r="1.08835" fill="#D9D9D9"/>
<circle cx="225.856" cy="97.6274" r="1.08835" fill="#D9D9D9"/>
<circle cx="236.739" cy="97.6274" r="1.08835" fill="#D9D9D9"/>
<circle cx="247.622" cy="97.6274" r="1.08835" fill="#D9D9D9"/>
<circle cx="258.506" cy="97.6274" r="1.08835" fill="#D9D9D9"/>
<circle cx="204.088" cy="108.51" r="1.08835" fill="#D9D9D9"/>
<circle cx="214.971" cy="108.51" r="1.08835" fill="#D9D9D9"/>
<circle cx="225.856" cy="108.51" r="1.08835" fill="#D9D9D9"/>
<circle cx="236.739" cy="108.51" r="1.08835" fill="#D9D9D9"/>
<circle cx="247.622" cy="108.51" r="1.08835" fill="#1245C7"/>
<circle cx="258.506" cy="108.51" r="1.08835" fill="#D9D9D9"/>
</svg>
