<svg width="634" height="462" viewBox="0 0 634 462" fill="none" xmlns="http://www.w3.org/2000/svg">
<path d="M119.723 25.3647L105.503 34.7256L94.1103 24.8106L108.33 15.4497L119.723 25.3647Z" fill="#FABF00"/>
<path d="M119.723 25.3647L105.503 34.7256L94.1103 24.8106L108.33 15.4497L119.723 25.3647Z" fill="black" fill-opacity="0.2"/>
<path d="M94.1109 24.809L92.4603 12.6113L106.679 3.25066L108.33 15.4481L94.1109 24.809Z" fill="#FABF00"/>
<path d="M108.331 15.4476L106.68 3.2502L118.073 13.1652L119.724 25.3627L108.331 15.4476Z" fill="#FABF00"/>
<path d="M108.331 15.4476L106.68 3.2502L118.073 13.1652L119.724 25.3627L108.331 15.4476Z" fill="black" fill-opacity="0.1"/>
<path d="M12.5124 418.608L6.90384 422.3L2.40998 418.39L8.01854 414.697L12.5124 418.608Z" fill="#FABF00"/>
<path d="M12.5124 418.608L6.90384 422.3L2.40998 418.39L8.01854 414.697L12.5124 418.608Z" fill="black" fill-opacity="0.2"/>
<path d="M2.40955 418.392L1.75853 413.581L7.36688 409.889L8.01811 414.7L2.40955 418.392Z" fill="#FABF00"/>
<path d="M8.01715 414.702L7.36592 409.89L11.8598 413.801L12.511 418.612L8.01715 414.702Z" fill="#FABF00"/>
<path d="M8.01715 414.702L7.36592 409.89L11.8598 413.801L12.511 418.612L8.01715 414.702Z" fill="black" fill-opacity="0.1"/>
<path d="M168.512 34.6082L162.904 38.3005L158.41 34.3897L164.019 30.6974L168.512 34.6082Z" fill="#FABF00"/>
<path d="M168.512 34.6082L162.904 38.3005L158.41 34.3897L164.019 30.6974L168.512 34.6082Z" fill="black" fill-opacity="0.2"/>
<path d="M158.41 34.3919L157.759 29.5808L163.367 25.8887L164.018 30.6997L158.41 34.3919Z" fill="#FABF00"/>
<path d="M164.017 30.7015L163.366 25.8905L167.86 29.8013L168.511 34.6123L164.017 30.7015Z" fill="#FABF00"/>
<path d="M164.017 30.7015L163.366 25.8905L167.86 29.8013L168.511 34.6123L164.017 30.7015Z" fill="black" fill-opacity="0.1"/>
<path d="M624.431 423.729L601.825 438.611L583.712 422.848L606.318 407.966L624.431 423.729Z" fill="#FABF00"/>
<path d="M624.431 423.729L601.825 438.611L583.712 422.848L606.318 407.966L624.431 423.729Z" fill="black" fill-opacity="0.2"/>
<path d="M583.714 422.844L581.09 403.453L603.695 388.571L606.32 407.963L583.714 422.844Z" fill="#FABF00"/>
<path d="M606.32 407.961L603.695 388.57L621.808 404.333L624.433 423.724L606.32 407.961Z" fill="#FABF00"/>
<path d="M606.32 407.961L603.695 388.57L621.808 404.333L624.433 423.724L606.32 407.961Z" fill="black" fill-opacity="0.1"/>
<path d="M207.958 452.631L197.667 459.405L189.422 452.23L199.712 445.456L207.958 452.631Z" fill="#FABF00"/>
<path d="M207.958 452.631L197.667 459.405L189.422 452.23L199.712 445.456L207.958 452.631Z" fill="black" fill-opacity="0.2"/>
<path d="M189.423 452.23L188.228 443.403L198.518 436.629L199.713 445.456L189.423 452.23Z" fill="#FABF00"/>
<path d="M199.712 445.457L198.517 436.63L206.762 443.806L207.957 452.633L199.712 445.457Z" fill="#FABF00"/>
<path d="M199.712 445.457L198.517 436.63L206.762 443.806L207.957 452.633L199.712 445.457Z" fill="black" fill-opacity="0.1"/>
</svg>
