<svg width="328" height="136" viewBox="0 0 328 136" fill="none" xmlns="http://www.w3.org/2000/svg">
<g filter="url(#filter0_d_68_662)">
<path d="M31 32.373C31 29.4056 32.5692 27 34.5049 27H293.87C295.806 27 297.375 29.4056 297.375 32.373V96.8492C297.375 99.8166 295.806 102.222 293.87 102.222H34.5049C32.5692 102.222 31 99.8166 31 96.8492V32.373Z" fill="white"/>
<path d="M42.9254 46.5664V37.8937H46.4935C47.2617 37.8937 47.9183 38.0176 48.4635 38.2654C49.0169 38.5132 49.4423 38.8684 49.7396 39.3309C50.037 39.7935 50.1856 40.3427 50.1856 40.9787C50.1856 41.6147 50.037 42.164 49.7396 42.6265C49.4423 43.0891 49.0169 43.4442 48.4635 43.692C47.9183 43.9398 47.2617 44.0637 46.4935 44.0637H43.8174L44.536 43.308V46.5664H42.9254ZM44.536 43.4814L43.8174 42.7009H46.4192C47.1295 42.7009 47.6623 42.5522 48.0175 42.2548C48.3809 41.9492 48.5626 41.5239 48.5626 40.9787C48.5626 40.4253 48.3809 40 48.0175 39.7026C47.6623 39.4053 47.1295 39.2566 46.4192 39.2566H43.8174L44.536 38.4636V43.4814ZM54.7309 46.6531C53.9958 46.6531 53.3516 46.5086 52.7982 46.2195C52.253 45.9222 51.8277 45.5174 51.5221 45.0053C51.2247 44.4932 51.076 43.9109 51.076 43.2584C51.076 42.5976 51.2206 42.0153 51.5097 41.5115C51.807 40.9994 52.2117 40.5988 52.7238 40.3097C53.2442 40.0206 53.8348 39.8761 54.4955 39.8761C55.1398 39.8761 55.7138 40.0165 56.2177 40.2973C56.7215 40.5781 57.118 40.9746 57.4071 41.4867C57.6962 41.9988 57.8407 42.6018 57.8407 43.2956C57.8407 43.3616 57.8366 43.436 57.8283 43.5186C57.8283 43.6012 57.8242 43.6796 57.8159 43.754H52.3026V42.7256H56.9982L56.3911 43.0478C56.3994 42.6678 56.3209 42.3333 56.1557 42.0442C55.9905 41.7551 55.7634 41.528 55.4743 41.3628C55.1935 41.1976 54.8672 41.115 54.4955 41.115C54.1156 41.115 53.7811 41.1976 53.492 41.3628C53.2112 41.528 52.9881 41.7593 52.823 42.0566C52.666 42.3457 52.5876 42.6885 52.5876 43.0849V43.3327C52.5876 43.7292 52.6784 44.0802 52.8601 44.3858C53.0418 44.6915 53.2979 44.9269 53.6283 45.0921C53.9587 45.2572 54.3386 45.3398 54.7681 45.3398C55.1398 45.3398 55.4743 45.282 55.7717 45.1664C56.069 45.0508 56.3333 44.869 56.5646 44.6212L57.3947 45.5752C57.0973 45.9222 56.7215 46.1906 56.2672 46.3806C55.8212 46.5623 55.3091 46.6531 54.7309 46.6531ZM59.3283 46.5664V39.9504H60.8027V41.7717L60.6292 41.2389C60.8275 40.7929 61.1372 40.4542 61.5585 40.223C61.988 39.9917 62.5207 39.8761 63.1567 39.8761V41.3504C63.0906 41.3339 63.0287 41.3256 62.9709 41.3256C62.913 41.3174 62.8552 41.3132 62.7974 41.3132C62.211 41.3132 61.7443 41.4867 61.3974 41.8336C61.0505 42.1722 60.877 42.6802 60.877 43.3575V46.5664H59.3283ZM67.4454 46.6531C66.7516 46.6531 66.1321 46.5086 65.587 46.2195C65.0501 45.9222 64.6289 45.5174 64.3233 45.0053C64.0176 44.4932 63.8648 43.9109 63.8648 43.2584C63.8648 42.5976 64.0176 42.0153 64.3233 41.5115C64.6289 40.9994 65.0501 40.5988 65.587 40.3097C66.1321 40.0206 66.7516 39.8761 67.4454 39.8761C68.0897 39.8761 68.6555 40.0082 69.1428 40.2725C69.6384 40.5286 70.0142 40.9085 70.2702 41.4124L69.0808 42.1062C68.8826 41.7923 68.6389 41.561 68.3499 41.4124C68.069 41.2637 67.7634 41.1893 67.433 41.1893C67.0531 41.1893 66.7103 41.2719 66.4047 41.4371C66.0991 41.6023 65.8596 41.8419 65.6861 42.1557C65.5127 42.4613 65.4259 42.8289 65.4259 43.2584C65.4259 43.6879 65.5127 44.0596 65.6861 44.3735C65.8596 44.6791 66.0991 44.9145 66.4047 45.0797C66.7103 45.2449 67.0531 45.3275 67.433 45.3275C67.7634 45.3275 68.069 45.2531 68.3499 45.1044C68.6389 44.9558 68.8826 44.7245 69.0808 44.4106L70.2702 45.1044C70.0142 45.6 69.6384 45.9841 69.1428 46.2567C68.6555 46.521 68.0897 46.6531 67.4454 46.6531ZM75.3025 39.8761C75.8311 39.8761 76.3019 39.9793 76.7149 40.1858C77.1362 40.3923 77.4666 40.7103 77.7061 41.1398C77.9456 41.561 78.0654 42.1062 78.0654 42.7752V46.5664H76.5167V42.9734C76.5167 42.387 76.3763 41.9492 76.0954 41.6601C75.8229 41.3711 75.4388 41.2265 74.9432 41.2265C74.5798 41.2265 74.2577 41.3009 73.9768 41.4495C73.696 41.5982 73.4771 41.8212 73.3202 42.1186C73.1715 42.4077 73.0972 42.7752 73.0972 43.2212V46.5664H71.5485V37.3734H73.0972V41.7345L72.7627 41.1893C72.9939 40.7681 73.3284 40.446 73.7662 40.223C74.2122 39.9917 74.7243 39.8761 75.3025 39.8761ZM84.1062 46.5664V45.2283L84.0194 44.9434V42.6018C84.0194 42.1475 83.8831 41.7964 83.6106 41.5486C83.338 41.2926 82.925 41.1646 82.3716 41.1646C81.9999 41.1646 81.6324 41.2224 81.2689 41.338C80.9138 41.4537 80.6123 41.6147 80.3645 41.8212L79.7574 40.6938C80.1126 40.4212 80.5338 40.2188 81.0212 40.0867C81.5167 39.9463 82.0288 39.8761 82.5575 39.8761C83.5156 39.8761 84.2548 40.1073 84.7752 40.5699C85.3038 41.0242 85.5681 41.7304 85.5681 42.6885V46.5664H84.1062ZM82.0247 46.6531C81.5291 46.6531 81.0955 46.5705 80.7238 46.4053C80.3521 46.2319 80.063 45.9965 79.8565 45.6991C79.6583 45.3935 79.5592 45.0508 79.5592 44.6708C79.5592 44.2991 79.6459 43.9646 79.8194 43.6673C80.0011 43.3699 80.2943 43.1345 80.699 42.9611C81.1038 42.7876 81.6406 42.7009 82.3097 42.7009H84.23V43.7292H82.4212C81.8926 43.7292 81.5374 43.8159 81.3557 43.9894C81.174 44.1546 81.0831 44.3611 81.0831 44.6089C81.0831 44.8897 81.1946 45.1127 81.4176 45.2779C81.6406 45.4431 81.9504 45.5257 82.3468 45.5257C82.7268 45.5257 83.0654 45.439 83.3628 45.2655C83.6684 45.0921 83.8873 44.836 84.0194 44.4974L84.2796 45.4266C84.1309 45.8148 83.8625 46.1163 83.4743 46.331C83.0943 46.5458 82.6111 46.6531 82.0247 46.6531ZM89.5999 46.6531C89.0465 46.6531 88.5138 46.5829 88.0017 46.4425C87.4979 46.2938 87.0973 46.1163 86.7999 45.9098L87.3946 44.7328C87.692 44.9227 88.0471 45.0797 88.4601 45.2036C88.8731 45.3275 89.2861 45.3894 89.6991 45.3894C90.1864 45.3894 90.5374 45.3233 90.7522 45.1912C90.9752 45.059 91.0867 44.8814 91.0867 44.6584C91.0867 44.4767 91.0124 44.3404 90.8637 44.2496C90.715 44.1504 90.5209 44.0761 90.2814 44.0266C90.0418 43.977 89.7734 43.9316 89.4761 43.8903C89.187 43.849 88.8937 43.7953 88.5964 43.7292C88.3073 43.6549 88.043 43.5516 87.8035 43.4195C87.5639 43.279 87.3698 43.0932 87.2212 42.8619C87.0725 42.6307 86.9981 42.3251 86.9981 41.9451C86.9981 41.5239 87.1179 41.1604 87.3574 40.8548C87.597 40.541 87.9315 40.3014 88.361 40.1362C88.7988 39.9628 89.315 39.8761 89.9097 39.8761C90.3557 39.8761 90.8059 39.9256 91.2601 40.0247C91.7144 40.1238 92.0902 40.2643 92.3876 40.446L91.7929 41.623C91.479 41.433 91.161 41.305 90.8389 41.2389C90.525 41.1646 90.2112 41.1274 89.8973 41.1274C89.4265 41.1274 89.0755 41.1976 88.8442 41.338C88.6212 41.4784 88.5097 41.656 88.5097 41.8708C88.5097 42.069 88.584 42.2177 88.7327 42.3168C88.8814 42.4159 89.0755 42.4944 89.315 42.5522C89.5545 42.61 89.8188 42.6596 90.1079 42.7009C90.4053 42.7339 90.6985 42.7876 90.9876 42.8619C91.2767 42.9363 91.541 43.0395 91.7805 43.1717C92.0283 43.2956 92.2265 43.4732 92.3752 43.7044C92.5239 43.9357 92.5982 44.2372 92.5982 44.6089C92.5982 45.0218 92.4743 45.3811 92.2265 45.6867C91.987 45.9924 91.6442 46.2319 91.1982 46.4053C90.7522 46.5705 90.2194 46.6531 89.5999 46.6531ZM97.0417 46.6531C96.3066 46.6531 95.6623 46.5086 95.1089 46.2195C94.5638 45.9222 94.1384 45.5174 93.8328 45.0053C93.5355 44.4932 93.3868 43.9109 93.3868 43.2584C93.3868 42.5976 93.5313 42.0153 93.8204 41.5115C94.1178 40.9994 94.5225 40.5988 95.0346 40.3097C95.555 40.0206 96.1455 39.8761 96.8063 39.8761C97.4506 39.8761 98.0246 40.0165 98.5284 40.2973C99.0323 40.5781 99.4288 40.9746 99.7178 41.4867C100.007 41.9988 100.151 42.6018 100.151 43.2956C100.151 43.3616 100.147 43.436 100.139 43.5186C100.139 43.6012 100.135 43.6796 100.127 43.754H94.6134V42.7256H99.309L98.7019 43.0478C98.7102 42.6678 98.6317 42.3333 98.4665 42.0442C98.3013 41.7551 98.0742 41.528 97.7851 41.3628C97.5042 41.1976 97.178 41.115 96.8063 41.115C96.4264 41.115 96.0918 41.1976 95.8027 41.3628C95.5219 41.528 95.2989 41.7593 95.1337 42.0566C94.9768 42.3457 94.8983 42.6885 94.8983 43.0849V43.3327C94.8983 43.7292 94.9892 44.0802 95.1709 44.3858C95.3526 44.6915 95.6086 44.9269 95.939 45.0921C96.2694 45.2572 96.6494 45.3398 97.0789 45.3398C97.4506 45.3398 97.7851 45.282 98.0824 45.1664C98.3798 45.0508 98.6441 44.869 98.8754 44.6212L99.7055 45.5752C99.4081 45.9222 99.0323 46.1906 98.578 46.3806C98.132 46.5623 97.6199 46.6531 97.0417 46.6531ZM105.212 46.5664V37.8937H108.78C109.548 37.8937 110.205 38.0176 110.75 38.2654C111.303 38.5132 111.729 38.8684 112.026 39.3309C112.323 39.7935 112.472 40.3427 112.472 40.9787C112.472 41.6147 112.323 42.164 112.026 42.6265C111.729 43.0891 111.303 43.4442 110.75 43.692C110.205 43.9398 109.548 44.0637 108.78 44.0637H106.104L106.822 43.308V46.5664H105.212ZM106.822 43.4814L106.104 42.7009H108.706C109.416 42.7009 109.949 42.5522 110.304 42.2548C110.667 41.9492 110.849 41.5239 110.849 40.9787C110.849 40.4253 110.667 40 110.304 39.7026C109.949 39.4053 109.416 39.2566 108.706 39.2566H106.104L106.822 38.4636V43.4814ZM113.871 46.5664V39.9504H115.346V41.7717L115.172 41.2389C115.37 40.7929 115.68 40.4542 116.101 40.223C116.531 39.9917 117.064 39.8761 117.7 39.8761V41.3504C117.634 41.3339 117.572 41.3256 117.514 41.3256C117.456 41.3174 117.398 41.3132 117.34 41.3132C116.754 41.3132 116.287 41.4867 115.94 41.8336C115.593 42.1722 115.42 42.6802 115.42 43.3575V46.5664H113.871ZM119.013 46.5664V39.9504H120.562V46.5664H119.013ZM119.794 38.8601C119.505 38.8601 119.265 38.7693 119.075 38.5875C118.894 38.4058 118.803 38.1869 118.803 37.9309C118.803 37.6666 118.894 37.4477 119.075 37.2743C119.265 37.0925 119.505 37.0017 119.794 37.0017C120.083 37.0017 120.319 37.0884 120.5 37.2619C120.69 37.4271 120.785 37.6377 120.785 37.8937C120.785 38.1663 120.694 38.3976 120.513 38.5875C120.331 38.7693 120.091 38.8601 119.794 38.8601ZM124.639 46.6531C124.086 46.6531 123.553 46.5829 123.041 46.4425C122.537 46.2938 122.136 46.1163 121.839 45.9098L122.434 44.7328C122.731 44.9227 123.086 45.0797 123.499 45.2036C123.912 45.3275 124.325 45.3894 124.738 45.3894C125.226 45.3894 125.577 45.3233 125.791 45.1912C126.014 45.059 126.126 44.8814 126.126 44.6584C126.126 44.4767 126.052 44.3404 125.903 44.2496C125.754 44.1504 125.56 44.0761 125.321 44.0266C125.081 43.977 124.813 43.9316 124.515 43.8903C124.226 43.849 123.933 43.7953 123.636 43.7292C123.346 43.6549 123.082 43.5516 122.843 43.4195C122.603 43.279 122.409 43.0932 122.26 42.8619C122.112 42.6307 122.037 42.3251 122.037 41.9451C122.037 41.5239 122.157 41.1604 122.397 40.8548C122.636 40.541 122.971 40.3014 123.4 40.1362C123.838 39.9628 124.354 39.8761 124.949 39.8761C125.395 39.8761 125.845 39.9256 126.299 40.0247C126.754 40.1238 127.129 40.2643 127.427 40.446L126.832 41.623C126.518 41.433 126.2 41.305 125.878 41.2389C125.564 41.1646 125.25 41.1274 124.936 41.1274C124.466 41.1274 124.115 41.1976 123.883 41.338C123.66 41.4784 123.549 41.656 123.549 41.8708C123.549 42.069 123.623 42.2177 123.772 42.3168C123.921 42.4159 124.115 42.4944 124.354 42.5522C124.594 42.61 124.858 42.6596 125.147 42.7009C125.444 42.7339 125.738 42.7876 126.027 42.8619C126.316 42.9363 126.58 43.0395 126.82 43.1717C127.067 43.2956 127.266 43.4732 127.414 43.7044C127.563 43.9357 127.637 44.2372 127.637 44.6089C127.637 45.0218 127.513 45.3811 127.266 45.6867C127.026 45.9924 126.683 46.2319 126.237 46.4053C125.791 46.5705 125.259 46.6531 124.639 46.6531ZM132.081 46.6531C131.346 46.6531 130.702 46.5086 130.148 46.2195C129.603 45.9222 129.178 45.5174 128.872 45.0053C128.575 44.4932 128.426 43.9109 128.426 43.2584C128.426 42.5976 128.571 42.0153 128.86 41.5115C129.157 40.9994 129.562 40.5988 130.074 40.3097C130.594 40.0206 131.185 39.8761 131.845 39.8761C132.49 39.8761 133.064 40.0165 133.568 40.2973C134.071 40.5781 134.468 40.9746 134.757 41.4867C135.046 41.9988 135.191 42.6018 135.191 43.2956C135.191 43.3616 135.187 43.436 135.178 43.5186C135.178 43.6012 135.174 43.6796 135.166 43.754H129.653V42.7256H134.348L133.741 43.0478C133.749 42.6678 133.671 42.3333 133.506 42.0442C133.34 41.7551 133.113 41.528 132.824 41.3628C132.543 41.1976 132.217 41.115 131.845 41.115C131.466 41.115 131.131 41.1976 130.842 41.3628C130.561 41.528 130.338 41.7593 130.173 42.0566C130.016 42.3457 129.937 42.6885 129.937 43.0849V43.3327C129.937 43.7292 130.028 44.0802 130.21 44.3858C130.392 44.6915 130.648 44.9269 130.978 45.0921C131.309 45.2572 131.689 45.3398 132.118 45.3398C132.49 45.3398 132.824 45.282 133.122 45.1664C133.419 45.0508 133.683 44.869 133.915 44.6212L134.745 45.5752C134.447 45.9222 134.071 46.1906 133.617 46.3806C133.171 46.5623 132.659 46.6531 132.081 46.6531Z" fill="#525252"/>
<path d="M213.879 48.0532V36.407H215.118V48.0532H213.879ZM214.325 46.7151C213.631 46.7151 212.966 46.6242 212.33 46.4425C211.694 46.2525 211.182 46.0089 210.794 45.7115L211.476 44.2C211.847 44.4643 212.285 44.6832 212.789 44.8566C213.301 45.0218 213.817 45.1044 214.338 45.1044C214.734 45.1044 215.052 45.0673 215.292 44.9929C215.539 44.9103 215.721 44.7988 215.837 44.6584C215.952 44.518 216.01 44.3569 216.01 44.1752C216.01 43.944 215.919 43.7622 215.738 43.6301C215.556 43.4897 215.316 43.3782 215.019 43.2956C214.722 43.2047 214.391 43.1221 214.028 43.0478C213.673 42.9652 213.313 42.8661 212.95 42.7504C212.595 42.6348 212.268 42.4861 211.971 42.3044C211.674 42.1227 211.43 41.8832 211.24 41.5858C211.058 41.2885 210.968 40.9085 210.968 40.446C210.968 39.9504 211.1 39.5002 211.364 39.0955C211.637 38.6825 212.041 38.3563 212.578 38.1167C213.123 37.8689 213.805 37.7451 214.622 37.7451C215.168 37.7451 215.705 37.8111 216.233 37.9433C216.762 38.0672 217.228 38.2572 217.633 38.5132L217.014 40.0371C216.609 39.8058 216.204 39.6365 215.8 39.5291C215.395 39.4135 214.998 39.3557 214.61 39.3557C214.222 39.3557 213.904 39.4011 213.656 39.492C213.408 39.5828 213.231 39.7026 213.123 39.8513C213.016 39.9917 212.962 40.1569 212.962 40.3469C212.962 40.5699 213.053 40.7516 213.235 40.892C213.417 41.0242 213.656 41.1315 213.953 41.2141C214.251 41.2967 214.577 41.3793 214.932 41.4619C215.296 41.5445 215.655 41.6395 216.01 41.7469C216.374 41.8543 216.704 41.9988 217.001 42.1805C217.299 42.3622 217.538 42.6018 217.72 42.8991C217.91 43.1965 218.005 43.5723 218.005 44.0266C218.005 44.5139 217.869 44.9599 217.596 45.3646C217.323 45.7693 216.915 46.0956 216.369 46.3434C215.833 46.5912 215.151 46.7151 214.325 46.7151ZM222.266 46.5664V45.2655L225.611 42.1062C225.875 41.8666 226.069 41.6519 226.193 41.4619C226.317 41.2719 226.4 41.0985 226.441 40.9416C226.49 40.7846 226.515 40.6401 226.515 40.5079C226.515 40.161 226.395 39.8967 226.156 39.715C225.925 39.525 225.582 39.43 225.128 39.43C224.764 39.43 224.425 39.5002 224.112 39.6407C223.806 39.7811 223.546 40 223.331 40.2973L221.869 39.3557C222.199 38.8601 222.662 38.4678 223.257 38.1787C223.851 37.8896 224.537 37.7451 225.313 37.7451C225.958 37.7451 226.519 37.8524 226.998 38.0672C227.486 38.2737 227.862 38.5669 228.126 38.9468C228.398 39.3268 228.535 39.7811 228.535 40.3097C228.535 40.5905 228.498 40.8713 228.423 41.1522C228.357 41.4247 228.217 41.7138 228.002 42.0194C227.795 42.3251 227.49 42.6678 227.085 43.0478L224.31 45.662L223.926 44.931H228.82V46.5664H222.266ZM232.46 46.7151C231.857 46.7151 231.258 46.6366 230.664 46.4797C230.069 46.3145 229.565 46.0832 229.152 45.7859L229.933 44.2496C230.263 44.4891 230.647 44.6791 231.085 44.8195C231.523 44.9599 231.965 45.0301 232.411 45.0301C232.915 45.0301 233.311 44.931 233.6 44.7328C233.889 44.5345 234.034 44.262 234.034 43.915C234.034 43.5847 233.906 43.3245 233.65 43.1345C233.394 42.9445 232.981 42.8495 232.411 42.8495H231.494V41.5239L233.91 38.7858L234.133 39.5044H229.586V37.8937H235.657V39.1946L233.253 41.9327L232.237 41.3504H232.82C233.885 41.3504 234.69 41.5899 235.235 42.069C235.781 42.5481 236.053 43.1634 236.053 43.915C236.053 44.4024 235.925 44.8608 235.669 45.2903C235.413 45.7115 235.021 46.0543 234.492 46.3186C233.963 46.5829 233.286 46.7151 232.46 46.7151ZM237.054 48.4744L237.872 45.5009L238.145 46.616C237.789 46.616 237.496 46.5127 237.265 46.3062C237.042 46.0997 236.93 45.8148 236.93 45.4513C236.93 45.0879 237.046 44.7988 237.277 44.5841C237.509 44.3693 237.793 44.262 238.132 44.262C238.479 44.262 238.764 44.3735 238.987 44.5965C239.21 44.8112 239.322 45.0962 239.322 45.4513C239.322 45.5587 239.313 45.6661 239.297 45.7735C239.28 45.8726 239.247 45.9965 239.198 46.1452C239.156 46.2856 239.086 46.4673 238.987 46.6903L238.281 48.4744H237.054ZM243.156 46.7151C242.553 46.7151 241.954 46.6366 241.359 46.4797C240.765 46.3145 240.261 46.0832 239.848 45.7859L240.628 44.2496C240.959 44.4891 241.343 44.6791 241.781 44.8195C242.218 44.9599 242.66 45.0301 243.106 45.0301C243.61 45.0301 244.007 44.931 244.296 44.7328C244.585 44.5345 244.729 44.262 244.729 43.915C244.729 43.5847 244.601 43.3245 244.345 43.1345C244.089 42.9445 243.676 42.8495 243.106 42.8495H242.19V41.5239L244.605 38.7858L244.828 39.5044H240.282V37.8937H246.352V39.1946L243.949 41.9327L242.933 41.3504H243.515C244.581 41.3504 245.386 41.5899 245.931 42.069C246.476 42.5481 246.749 43.1634 246.749 43.915C246.749 44.4024 246.621 44.8608 246.365 45.2903C246.109 45.7115 245.716 46.0543 245.188 46.3186C244.659 46.5829 243.982 46.7151 243.156 46.7151ZM247.576 44.7451V43.3947L251.665 37.8937H253.771L249.769 43.3947L248.791 43.1097H255.617V44.7451H247.576ZM252.247 46.5664V44.7451L252.309 43.1097V41.4867H254.205V46.5664H252.247ZM256.118 44.7451V43.3947L260.207 37.8937H262.313L258.311 43.3947L257.333 43.1097H264.159V44.7451H256.118ZM260.789 46.5664V44.7451L260.851 43.1097V41.4867H262.747V46.5664H260.789ZM266.141 46.6655C265.811 46.6655 265.526 46.554 265.287 46.331C265.055 46.0997 264.94 45.8065 264.94 45.4513C264.94 45.0962 265.055 44.8112 265.287 44.5965C265.526 44.3735 265.811 44.262 266.141 44.262C266.48 44.262 266.765 44.3735 266.996 44.5965C267.228 44.8112 267.343 45.0962 267.343 45.4513C267.343 45.8065 267.228 46.0997 266.996 46.331C266.765 46.554 266.48 46.6655 266.141 46.6655ZM271.804 46.7151C271.093 46.7151 270.457 46.5416 269.896 46.1947C269.334 45.8396 268.892 45.3275 268.57 44.6584C268.248 43.9894 268.087 43.1799 268.087 42.2301C268.087 41.2802 268.248 40.4708 268.57 39.8017C268.892 39.1327 269.334 38.6247 269.896 38.2778C270.457 37.9226 271.093 37.7451 271.804 37.7451C272.522 37.7451 273.158 37.9226 273.712 38.2778C274.273 38.6247 274.715 39.1327 275.037 39.8017C275.359 40.4708 275.521 41.2802 275.521 42.2301C275.521 43.1799 275.359 43.9894 275.037 44.6584C274.715 45.3275 274.273 45.8396 273.712 46.1947C273.158 46.5416 272.522 46.7151 271.804 46.7151ZM271.804 45.0177C272.142 45.0177 272.436 44.9227 272.683 44.7328C272.939 44.5428 273.138 44.2413 273.278 43.8283C273.427 43.4153 273.501 42.8826 273.501 42.2301C273.501 41.5776 273.427 41.0448 273.278 40.6318C273.138 40.2188 272.939 39.9174 272.683 39.7274C272.436 39.5374 272.142 39.4424 271.804 39.4424C271.473 39.4424 271.18 39.5374 270.924 39.7274C270.676 39.9174 270.478 40.2188 270.329 40.6318C270.189 41.0448 270.119 41.5776 270.119 42.2301C270.119 42.8826 270.189 43.4153 270.329 43.8283C270.478 44.2413 270.676 44.5428 270.924 44.7328C271.18 44.9227 271.473 45.0177 271.804 45.0177ZM280.213 46.7151C279.502 46.7151 278.866 46.5416 278.305 46.1947C277.743 45.8396 277.301 45.3275 276.979 44.6584C276.657 43.9894 276.496 43.1799 276.496 42.2301C276.496 41.2802 276.657 40.4708 276.979 39.8017C277.301 39.1327 277.743 38.6247 278.305 38.2778C278.866 37.9226 279.502 37.7451 280.213 37.7451C280.931 37.7451 281.567 37.9226 282.121 38.2778C282.682 38.6247 283.124 39.1327 283.446 39.8017C283.768 40.4708 283.929 41.2802 283.929 42.2301C283.929 43.1799 283.768 43.9894 283.446 44.6584C283.124 45.3275 282.682 45.8396 282.121 46.1947C281.567 46.5416 280.931 46.7151 280.213 46.7151ZM280.213 45.0177C280.551 45.0177 280.844 44.9227 281.092 44.7328C281.348 44.5428 281.547 44.2413 281.687 43.8283C281.836 43.4153 281.91 42.8826 281.91 42.2301C281.91 41.5776 281.836 41.0448 281.687 40.6318C281.547 40.2188 281.348 39.9174 281.092 39.7274C280.844 39.5374 280.551 39.4424 280.213 39.4424C279.882 39.4424 279.589 39.5374 279.333 39.7274C279.085 39.9174 278.887 40.2188 278.738 40.6318C278.598 41.0448 278.528 41.5776 278.528 42.2301C278.528 42.8826 278.598 43.4153 278.738 43.8283C278.887 44.2413 279.085 44.5428 279.333 44.7328C279.589 44.9227 279.882 45.0177 280.213 45.0177Z" fill="#9CBFFF"/>
<path d="M44.3998 64.883H48.7239V66.2459H44.3998V64.883ZM44.5361 69.5664H42.9254V60.8934H49.2567V62.2439H44.5361V69.5664ZM53.5941 69.6531C52.8589 69.6531 52.2146 69.5086 51.6612 69.2195C51.1161 68.9221 50.6907 68.5174 50.3851 68.0053C50.0877 67.4931 49.939 66.9108 49.939 66.2583C49.939 65.5975 50.0836 65.0151 50.3727 64.5113C50.67 63.9992 51.0748 63.5986 51.5869 63.3095C52.1073 63.0204 52.6979 62.8758 53.3587 62.8758C54.0029 62.8758 54.577 63.0162 55.0809 63.2971C55.5847 63.5779 55.9812 63.9744 56.2703 64.4865C56.5594 64.9986 56.704 65.6016 56.704 66.2954C56.704 66.3615 56.6998 66.4359 56.6916 66.5185C56.6916 66.6011 56.6874 66.6795 56.6792 66.7539H51.1656V65.7255H55.8614L55.2543 66.0476C55.2626 65.6677 55.1841 65.3332 55.0189 65.0441C54.8537 64.755 54.6266 64.5278 54.3375 64.3626C54.0566 64.1974 53.7304 64.1148 53.3587 64.1148C52.9787 64.1148 52.6442 64.1974 52.3551 64.3626C52.0742 64.5278 51.8512 64.7591 51.686 65.0564C51.5291 65.3455 51.4506 65.6883 51.4506 66.0848V66.3326C51.4506 66.7291 51.5415 67.0801 51.7232 67.3858C51.9049 67.6914 52.161 67.9268 52.4914 68.092C52.8218 68.2572 53.2017 68.3398 53.6312 68.3398C54.0029 68.3398 54.3375 68.282 54.6348 68.1663C54.9322 68.0507 55.1965 67.869 55.4278 67.6212L56.2579 68.5752C55.9606 68.9221 55.5847 69.1906 55.1304 69.3806C54.6844 69.5623 54.1723 69.6531 53.5941 69.6531ZM61.3015 69.6531C60.5664 69.6531 59.9221 69.5086 59.3687 69.2195C58.8235 68.9221 58.3981 68.5174 58.0925 68.0053C57.7951 67.4931 57.6465 66.9108 57.6465 66.2583C57.6465 65.5975 57.791 65.0151 58.0801 64.5113C58.3775 63.9992 58.7822 63.5986 59.2943 63.3095C59.8147 63.0204 60.4053 62.8758 61.0661 62.8758C61.7104 62.8758 62.2845 63.0162 62.7883 63.2971C63.2922 63.5779 63.6887 63.9744 63.9778 64.4865C64.2669 64.9986 64.4114 65.6016 64.4114 66.2954C64.4114 66.3615 64.4073 66.4359 64.399 66.5185C64.399 66.6011 64.3949 66.6795 64.3866 66.7539H58.8731V65.7255H63.5689L62.9618 66.0476C62.97 65.6677 62.8916 65.3332 62.7264 65.0441C62.5612 64.755 62.334 64.5278 62.0449 64.3626C61.7641 64.1974 61.4378 64.1148 61.0661 64.1148C60.6861 64.1148 60.3516 64.1974 60.0625 64.3626C59.7817 64.5278 59.5587 64.7591 59.3935 65.0564C59.2365 65.3455 59.158 65.6883 59.158 66.0848V66.3326C59.158 66.7291 59.2489 67.0801 59.4306 67.3858C59.6123 67.6914 59.8684 67.9268 60.1988 68.092C60.5292 68.2572 60.9092 68.3398 61.3387 68.3398C61.7104 68.3398 62.0449 68.282 62.3423 68.1663C62.6396 68.0507 62.904 67.869 63.1352 67.6212L63.9654 68.5752C63.668 68.9221 63.2922 69.1906 62.8379 69.3806C62.3918 69.5623 61.8797 69.6531 61.3015 69.6531ZM67.9434 69.6531C67.39 69.6531 66.8572 69.5829 66.3451 69.4425C65.8413 69.2938 65.4406 69.1162 65.1433 68.9097L65.738 67.7327C66.0354 67.9227 66.3905 68.0796 66.8035 68.2035C67.2165 68.3274 67.6295 68.3894 68.0425 68.3894C68.5299 68.3894 68.8809 68.3233 69.0957 68.1911C69.3187 68.059 69.4302 67.8814 69.4302 67.6583C69.4302 67.4766 69.3559 67.3403 69.2072 67.2495C69.0585 67.1504 68.8644 67.076 68.6249 67.0265C68.3853 66.9769 68.1169 66.9315 67.8195 66.8902C67.5304 66.8489 67.2372 66.7952 66.9398 66.7291C66.6507 66.6548 66.3864 66.5515 66.1469 66.4193C65.9073 66.2789 65.7132 66.0931 65.5645 65.8618C65.4159 65.6305 65.3415 65.3249 65.3415 64.9449C65.3415 64.5237 65.4613 64.1602 65.7008 63.8546C65.9404 63.5407 66.2749 63.3012 66.7044 63.136C67.1422 62.9625 67.6585 62.8758 68.2532 62.8758C68.6992 62.8758 69.1494 62.9254 69.6037 63.0245C70.058 63.1236 70.4338 63.264 70.7312 63.4457L70.1365 64.6228C69.8226 64.4328 69.5046 64.3048 69.1824 64.2387C68.8685 64.1644 68.5547 64.1272 68.2408 64.1272C67.77 64.1272 67.4189 64.1974 67.1876 64.3378C66.9646 64.4782 66.8531 64.6558 66.8531 64.8706C66.8531 65.0688 66.9274 65.2175 67.0761 65.3166C67.2248 65.4158 67.4189 65.4942 67.6585 65.552C67.898 65.6099 68.1623 65.6594 68.4514 65.7007C68.7488 65.7338 69.042 65.7875 69.3311 65.8618C69.6202 65.9361 69.8845 66.0394 70.1241 66.1715C70.3719 66.2954 70.5701 66.473 70.7188 66.7043C70.8675 66.9356 70.9418 67.2371 70.9418 67.6088C70.9418 68.0218 70.8179 68.3811 70.5701 68.6867C70.3306 68.9923 69.9878 69.2319 69.5417 69.4053C69.0957 69.5705 68.5629 69.6531 67.9434 69.6531Z" fill="#525252"/>
<path d="M222.101 71.0532V59.4066H223.34V71.0532H222.101ZM222.547 69.7151C221.853 69.7151 221.188 69.6242 220.552 69.4425C219.916 69.2525 219.404 69.0089 219.016 68.7115L219.698 67.1999C220.069 67.4642 220.507 67.6831 221.011 67.8566C221.523 68.0218 222.039 68.1044 222.56 68.1044C222.956 68.1044 223.274 68.0672 223.514 67.9929C223.761 67.9103 223.943 67.7988 224.059 67.6583C224.174 67.5179 224.232 67.3569 224.232 67.1751C224.232 66.9439 224.141 66.7621 223.96 66.63C223.778 66.4896 223.538 66.378 223.241 66.2954C222.944 66.2046 222.613 66.122 222.25 66.0476C221.895 65.965 221.535 65.8659 221.172 65.7503C220.817 65.6346 220.49 65.486 220.193 65.3042C219.896 65.1225 219.652 64.883 219.462 64.5856C219.28 64.2883 219.19 63.9083 219.19 63.4457C219.19 62.9501 219.322 62.5 219.586 62.0952C219.859 61.6822 220.263 61.356 220.8 61.1164C221.345 60.8686 222.027 60.7447 222.845 60.7447C223.39 60.7447 223.927 60.8108 224.455 60.943C224.984 61.0669 225.451 61.2568 225.855 61.5129L225.236 63.0369C224.831 62.8056 224.426 62.6363 224.022 62.5289C223.617 62.4132 223.22 62.3554 222.832 62.3554C222.444 62.3554 222.126 62.4009 221.878 62.4917C221.63 62.5826 221.453 62.7023 221.345 62.851C221.238 62.9914 221.184 63.1566 221.184 63.3466C221.184 63.5696 221.275 63.7514 221.457 63.8918C221.639 64.0239 221.878 64.1313 222.176 64.2139C222.473 64.2965 222.799 64.3791 223.154 64.4617C223.518 64.5443 223.877 64.6393 224.232 64.7467C224.596 64.8541 224.926 64.9986 225.223 65.1803C225.521 65.3621 225.76 65.6016 225.942 65.899C226.132 66.1963 226.227 66.5722 226.227 67.0265C226.227 67.5138 226.091 67.9598 225.818 68.3646C225.546 68.7693 225.137 69.0956 224.592 69.3434C224.055 69.5912 223.373 69.7151 222.547 69.7151ZM233.375 69.7151C232.772 69.7151 232.173 69.6366 231.578 69.4797C230.984 69.3145 230.48 69.0832 230.067 68.7858L230.847 67.2495C231.178 67.489 231.562 67.679 232 67.8194C232.437 67.9598 232.879 68.03 233.325 68.03C233.829 68.03 234.226 67.9309 234.515 67.7327C234.804 67.5344 234.948 67.2619 234.948 66.9149C234.948 66.5845 234.82 66.3244 234.564 66.1344C234.308 65.9444 233.895 65.8494 233.325 65.8494H232.408V64.5237L234.824 61.7855L235.047 62.5041H230.5V60.8934H236.571V62.1944L234.168 64.9325L233.152 64.3502H233.734C234.8 64.3502 235.605 64.5898 236.15 65.0688C236.695 65.5479 236.968 66.1633 236.968 66.9149C236.968 67.4023 236.84 67.8607 236.584 68.2902C236.328 68.7115 235.935 69.0543 235.407 69.3186C234.878 69.5829 234.201 69.7151 233.375 69.7151ZM237.969 71.4745L238.787 68.5009L239.059 69.616C238.704 69.616 238.411 69.5127 238.18 69.3062C237.957 69.0997 237.845 68.8147 237.845 68.4513C237.845 68.0879 237.961 67.7988 238.192 67.584C238.423 67.3692 238.708 67.2619 239.047 67.2619C239.394 67.2619 239.679 67.3734 239.902 67.5964C240.125 67.8112 240.236 68.0961 240.236 68.4513C240.236 68.5587 240.228 68.6661 240.212 68.7734C240.195 68.8726 240.162 68.9965 240.112 69.1451C240.071 69.2856 240.001 69.4673 239.902 69.6903L239.196 71.4745H237.969ZM244.071 69.7151C243.468 69.7151 242.869 69.6366 242.274 69.4797C241.68 69.3145 241.176 69.0832 240.763 68.7858L241.543 67.2495C241.874 67.489 242.258 67.679 242.696 67.8194C243.133 67.9598 243.575 68.03 244.021 68.03C244.525 68.03 244.922 67.9309 245.211 67.7327C245.5 67.5344 245.644 67.2619 245.644 66.9149C245.644 66.5845 245.516 66.3244 245.26 66.1344C245.004 65.9444 244.591 65.8494 244.021 65.8494H243.104V64.5237L245.521 61.7855L245.744 62.5041H241.196V60.8934H247.267V62.1944L244.864 64.9325L243.848 64.3502H244.43C245.496 64.3502 246.301 64.5898 246.846 65.0688C247.391 65.5479 247.664 66.1633 247.664 66.9149C247.664 67.4023 247.536 67.8607 247.28 68.2902C247.024 68.7115 246.631 69.0543 246.103 69.3186C245.574 69.5829 244.897 69.7151 244.071 69.7151ZM248.492 67.7451V66.3946L252.58 60.8934H254.687L250.685 66.3946L249.706 66.1096H256.533V67.7451H248.492ZM253.163 69.5664V67.7451L253.225 66.1096V64.4865H255.12V69.5664H253.163ZM257.034 67.7451V66.3946L261.123 60.8934H263.229L259.227 66.3946L258.248 66.1096H265.075V67.7451H257.034ZM261.705 69.5664V67.7451L261.767 66.1096V64.4865H263.663V69.5664H261.705ZM267.057 69.6655C266.727 69.6655 266.442 69.554 266.202 69.331C265.971 69.0997 265.855 68.8065 265.855 68.4513C265.855 68.0961 265.971 67.8112 266.202 67.5964C266.442 67.3734 266.727 67.2619 267.057 67.2619C267.396 67.2619 267.681 67.3734 267.912 67.5964C268.143 67.8112 268.259 68.0961 268.259 68.4513C268.259 68.8065 268.143 69.0997 267.912 69.331C267.681 69.554 267.396 69.6655 267.057 69.6655ZM272.72 69.7151C272.009 69.7151 271.373 69.5416 270.812 69.1947C270.25 68.8395 269.808 68.3274 269.486 67.6583C269.164 66.9893 269.003 66.1798 269.003 65.2299C269.003 64.28 269.164 63.4705 269.486 62.8015C269.808 62.1324 270.25 61.6244 270.812 61.2775C271.373 60.9223 272.009 60.7447 272.72 60.7447C273.438 60.7447 274.074 60.9223 274.628 61.2775C275.189 61.6244 275.631 62.1324 275.954 62.8015C276.276 63.4705 276.437 64.28 276.437 65.2299C276.437 66.1798 276.276 66.9893 275.954 67.6583C275.631 68.3274 275.189 68.8395 274.628 69.1947C274.074 69.5416 273.438 69.7151 272.72 69.7151ZM272.72 68.0177C273.058 68.0177 273.352 67.9227 273.599 67.7327C273.855 67.5427 274.054 67.2412 274.194 66.8282C274.343 66.4152 274.417 65.8824 274.417 65.2299C274.417 64.5774 274.343 64.0446 274.194 63.6316C274.054 63.2186 273.855 62.9171 273.599 62.7271C273.352 62.5371 273.058 62.4422 272.72 62.4422C272.389 62.4422 272.096 62.5371 271.84 62.7271C271.592 62.9171 271.394 63.2186 271.245 63.6316C271.105 64.0446 271.035 64.5774 271.035 65.2299C271.035 65.8824 271.105 66.4152 271.245 66.8282C271.394 67.2412 271.592 67.5427 271.84 67.7327C272.096 67.9227 272.389 68.0177 272.72 68.0177ZM281.129 69.7151C280.419 69.7151 279.783 69.5416 279.221 69.1947C278.659 68.8395 278.217 68.3274 277.895 67.6583C277.573 66.9893 277.412 66.1798 277.412 65.2299C277.412 64.28 277.573 63.4705 277.895 62.8015C278.217 62.1324 278.659 61.6244 279.221 61.2775C279.783 60.9223 280.419 60.7447 281.129 60.7447C281.848 60.7447 282.484 60.9223 283.037 61.2775C283.599 61.6244 284.041 62.1324 284.363 62.8015C284.685 63.4705 284.846 64.28 284.846 65.2299C284.846 66.1798 284.685 66.9893 284.363 67.6583C284.041 68.3274 283.599 68.8395 283.037 69.1947C282.484 69.5416 281.848 69.7151 281.129 69.7151ZM281.129 68.0177C281.468 68.0177 281.761 67.9227 282.009 67.7327C282.265 67.5427 282.463 67.2412 282.603 66.8282C282.752 66.4152 282.826 65.8824 282.826 65.2299C282.826 64.5774 282.752 64.0446 282.603 63.6316C282.463 63.2186 282.265 62.9171 282.009 62.7271C281.761 62.5371 281.468 62.4422 281.129 62.4422C280.799 62.4422 280.505 62.5371 280.249 62.7271C280.001 62.9171 279.803 63.2186 279.655 63.6316C279.514 64.0446 279.444 64.5774 279.444 65.2299C279.444 65.8824 279.514 66.4152 279.655 66.8282C279.803 67.2412 280.001 67.5427 280.249 67.7327C280.505 67.9227 280.799 68.0177 281.129 68.0177Z" fill="#9CBFFF"/>
<path d="M46.9398 92.6903C46.279 92.6903 45.6636 92.5829 45.0937 92.3682C44.532 92.1451 44.0405 91.8354 43.6192 91.4389C43.2062 91.0342 42.8841 90.5592 42.6528 90.0141C42.4215 89.4689 42.3059 88.8742 42.3059 88.2299C42.3059 87.5856 42.4215 86.9909 42.6528 86.4457C42.8841 85.9006 43.2104 85.4298 43.6316 85.0333C44.0529 84.6285 44.5444 84.3188 45.106 84.104C45.6677 83.881 46.2831 83.7695 46.9522 83.7695C47.6625 83.7695 48.3109 83.8934 48.8974 84.1412C49.4838 84.3807 49.9794 84.7401 50.3842 85.2191L49.3434 86.1979C49.0295 85.8593 48.6785 85.6074 48.2903 85.4422C47.9021 85.2687 47.4808 85.182 47.0265 85.182C46.5722 85.182 46.1551 85.2563 45.7751 85.405C45.4034 85.5537 45.0771 85.7643 44.7963 86.0369C44.5237 86.3095 44.309 86.6316 44.152 87.0033C44.0033 87.375 43.929 87.7839 43.929 88.2299C43.929 88.6759 44.0033 89.0848 44.152 89.4565C44.309 89.8282 44.5237 90.1504 44.7963 90.4229C45.0771 90.6955 45.4034 90.9061 45.7751 91.0548C46.1551 91.2035 46.5722 91.2778 47.0265 91.2778C47.4808 91.2778 47.9021 91.1952 48.2903 91.03C48.6785 90.8566 49.0295 90.5964 49.3434 90.2495L50.3842 91.2407C49.9794 91.7115 49.4838 92.0708 48.8974 92.3186C48.3109 92.5664 47.6584 92.6903 46.9398 92.6903ZM54.4983 92.6531C53.821 92.6531 53.218 92.5086 52.6894 92.2195C52.1608 91.9221 51.7436 91.5174 51.438 91.0053C51.1324 90.4931 50.9796 89.9108 50.9796 89.2583C50.9796 88.5975 51.1324 88.0151 51.438 87.5113C51.7436 86.9992 52.1608 86.5986 52.6894 86.3095C53.218 86.0204 53.821 85.8758 54.4983 85.8758C55.1839 85.8758 55.791 86.0204 56.3197 86.3095C56.8566 86.5986 57.2737 86.995 57.5711 87.4989C57.8767 88.0028 58.0295 88.5892 58.0295 89.2583C58.0295 89.9108 57.8767 90.4931 57.5711 91.0053C57.2737 91.5174 56.8566 91.9221 56.3197 92.2195C55.791 92.5086 55.1839 92.6531 54.4983 92.6531ZM54.4983 91.3274C54.8783 91.3274 55.217 91.2448 55.5143 91.0796C55.8117 90.9144 56.043 90.6749 56.2082 90.361C56.3816 90.0471 56.4684 89.6795 56.4684 89.2583C56.4684 88.8288 56.3816 88.4612 56.2082 88.1556C56.043 87.8417 55.8117 87.6021 55.5143 87.4369C55.217 87.2717 54.8824 87.1891 54.5107 87.1891C54.1308 87.1891 53.7921 87.2717 53.4948 87.4369C53.2057 87.6021 52.9744 87.8417 52.8009 88.1556C52.6275 88.4612 52.5407 88.8288 52.5407 89.2583C52.5407 89.6795 52.6275 90.0471 52.8009 90.361C52.9744 90.6749 53.2057 90.9144 53.4948 91.0796C53.7921 91.2448 54.1266 91.3274 54.4983 91.3274ZM63.2647 85.8758C63.7933 85.8758 64.2641 85.9791 64.6771 86.1856C65.0984 86.3921 65.4288 86.7101 65.6683 87.1396C65.9079 87.5608 66.0276 88.106 66.0276 88.7751V92.5664H64.4789V88.9733C64.4789 88.3868 64.3385 87.9491 64.0576 87.66C63.785 87.3709 63.4009 87.2263 62.9053 87.2263C62.5419 87.2263 62.2198 87.3007 61.9389 87.4493C61.6581 87.598 61.4392 87.821 61.2823 88.1184C61.1336 88.4075 61.0592 88.7751 61.0592 89.2211V92.5664H59.5105V85.9501H60.9849V87.7343L60.7247 87.1891C60.956 86.7679 61.2905 86.4457 61.7283 86.2227C62.1743 85.9914 62.6865 85.8758 63.2647 85.8758ZM70.0367 92.6531C69.4832 92.6531 68.9505 92.5829 68.4383 92.4425C67.9345 92.2938 67.5339 92.1162 67.2365 91.9097L67.8312 90.7327C68.1286 90.9227 68.4838 91.0796 68.8968 91.2035C69.3098 91.3274 69.7228 91.3894 70.1358 91.3894C70.6231 91.3894 70.9742 91.3233 71.1889 91.1911C71.412 91.059 71.5235 90.8814 71.5235 90.6583C71.5235 90.4766 71.4491 90.3403 71.3004 90.2495C71.1518 90.1504 70.9577 90.076 70.7181 90.0265C70.4786 89.9769 70.2101 89.9315 69.9128 89.8902C69.6237 89.8489 69.3304 89.7952 69.0331 89.7291C68.744 89.6548 68.4796 89.5515 68.2401 89.4193C68.0006 89.2789 67.8065 89.0931 67.6578 88.8618C67.5091 88.6305 67.4348 88.3249 67.4348 87.9449C67.4348 87.5237 67.5545 87.1602 67.7941 86.8546C68.0336 86.5407 68.3681 86.3012 68.7977 86.136C69.2354 85.9625 69.7517 85.8758 70.3464 85.8758C70.7925 85.8758 71.2426 85.9254 71.6969 86.0245C72.1512 86.1236 72.5271 86.264 72.8244 86.4457L72.2297 87.6228C71.9158 87.4328 71.5978 87.3048 71.2757 87.2387C70.9618 87.1644 70.6479 87.1272 70.334 87.1272C69.8632 87.1272 69.5122 87.1974 69.2809 87.3378C69.0578 87.4782 68.9463 87.6558 68.9463 87.8706C68.9463 88.0688 69.0207 88.2175 69.1694 88.3166C69.318 88.4158 69.5121 88.4942 69.7517 88.552C69.9912 88.6099 70.2556 88.6594 70.5447 88.7007C70.842 88.7338 71.1352 88.7875 71.4243 88.8618C71.7134 88.9361 71.9778 89.0394 72.2173 89.1715C72.4651 89.2954 72.6633 89.473 72.812 89.7043C72.9607 89.9356 73.035 90.2371 73.035 90.6088C73.035 91.0218 72.9111 91.3811 72.6633 91.6867C72.4238 91.9923 72.081 92.2319 71.635 92.4053C71.1889 92.5705 70.6562 92.6531 70.0367 92.6531ZM78.4451 92.5664V91.2283L78.3584 90.9433V88.6016C78.3584 88.1473 78.2221 87.7963 77.9495 87.5485C77.6769 87.2924 77.2639 87.1644 76.7105 87.1644C76.3388 87.1644 75.9712 87.2222 75.6078 87.3378C75.2526 87.4535 74.9511 87.6145 74.7033 87.821L74.0962 86.6935C74.4514 86.421 74.8727 86.2186 75.36 86.0864C75.8556 85.946 76.3677 85.8758 76.8964 85.8758C77.8545 85.8758 78.5938 86.1071 79.1142 86.5696C79.6428 87.0239 79.9071 87.7302 79.9071 88.6883V92.5664H78.4451ZM76.3636 92.6531C75.868 92.6531 75.4343 92.5705 75.0626 92.4053C74.6909 92.2319 74.4018 91.9965 74.1953 91.6991C73.9971 91.3935 73.898 91.0507 73.898 90.6707C73.898 90.299 73.9847 89.9645 74.1582 89.6671C74.3399 89.3698 74.6331 89.1344 75.0379 88.9609C75.4426 88.7875 75.9795 88.7007 76.6486 88.7007H78.569V89.7291H76.7601C76.2314 89.7291 75.8763 89.8158 75.6945 89.9893C75.5128 90.1545 75.422 90.361 75.422 90.6088C75.422 90.8896 75.5335 91.1126 75.7565 91.2778C75.9795 91.443 76.2893 91.5256 76.6857 91.5256C77.0657 91.5256 77.4044 91.4389 77.7017 91.2655C78.0073 91.092 78.2262 90.8359 78.3584 90.4973L78.6186 91.4265C78.4699 91.8147 78.2014 92.1162 77.8132 92.331C77.4333 92.5458 76.9501 92.6531 76.3636 92.6531ZM81.8948 92.5664V83.373H83.4435V92.5664H81.8948ZM88.4498 92.6531C87.7725 92.6531 87.1695 92.5086 86.6409 92.2195C86.1123 91.9221 85.6951 91.5174 85.3895 91.0053C85.0839 90.4931 84.9311 89.9108 84.9311 89.2583C84.9311 88.5975 85.0839 88.0151 85.3895 87.5113C85.6951 86.9992 86.1123 86.5986 86.6409 86.3095C87.1695 86.0204 87.7725 85.8758 88.4498 85.8758C89.1354 85.8758 89.7425 86.0204 90.2712 86.3095C90.8081 86.5986 91.2252 86.995 91.5226 87.4989C91.8282 88.0028 91.981 88.5892 91.981 89.2583C91.981 89.9108 91.8282 90.4931 91.5226 91.0053C91.2252 91.5174 90.8081 91.9221 90.2712 92.2195C89.7425 92.5086 89.1354 92.6531 88.4498 92.6531ZM88.4498 91.3274C88.8298 91.3274 89.1685 91.2448 89.4658 91.0796C89.7632 90.9144 89.9945 90.6749 90.1597 90.361C90.3331 90.0471 90.4199 89.6795 90.4199 89.2583C90.4199 88.8288 90.3331 88.4612 90.1597 88.1556C89.9945 87.8417 89.7632 87.6021 89.4658 87.4369C89.1685 87.2717 88.8339 87.1891 88.4622 87.1891C88.0823 87.1891 87.7436 87.2717 87.4463 87.4369C87.1572 87.6021 86.9259 87.8417 86.7524 88.1556C86.579 88.4612 86.4922 88.8288 86.4922 89.2583C86.4922 89.6795 86.579 90.0471 86.7524 90.361C86.9259 90.6749 87.1572 90.9144 87.4463 91.0796C87.7436 91.2448 88.0781 91.3274 88.4498 91.3274ZM96.2621 92.6531C95.6261 92.6531 95.052 92.5127 94.5399 92.2319C94.0361 91.9428 93.6396 91.5463 93.3505 91.0424C93.0614 90.5386 92.9168 89.9439 92.9168 89.2583C92.9168 88.5727 93.0614 87.978 93.3505 87.4741C93.6396 86.9703 94.0361 86.5779 94.5399 86.2971C95.052 86.0162 95.6261 85.8758 96.2621 85.8758C96.8155 85.8758 97.3111 85.9997 97.7489 86.2475C98.1867 86.487 98.5336 86.8546 98.7897 87.3502C99.0457 87.8458 99.1738 88.4818 99.1738 89.2583C99.1738 90.0265 99.0499 90.6625 98.8021 91.1663C98.5543 91.6619 98.2115 92.0336 97.7737 92.2814C97.3359 92.5292 96.8321 92.6531 96.2621 92.6531ZM96.448 91.3274C96.8197 91.3274 97.1501 91.2448 97.4392 91.0796C97.7365 90.9144 97.9719 90.6749 98.1454 90.361C98.3271 90.0471 98.418 89.6795 98.418 89.2583C98.418 88.8288 98.3271 88.4612 98.1454 88.1556C97.9719 87.8417 97.7365 87.6021 97.4392 87.4369C97.1501 87.2717 96.8197 87.1891 96.448 87.1891C96.0763 87.1891 95.7417 87.2717 95.4444 87.4369C95.1553 87.6021 94.9199 87.8417 94.7382 88.1556C94.5647 88.4612 94.478 88.8288 94.478 89.2583C94.478 89.6795 94.5647 90.0471 94.7382 90.361C94.9199 90.6749 95.1553 90.9144 95.4444 91.0796C95.7417 91.2448 96.0763 91.3274 96.448 91.3274ZM98.4552 92.5664V91.0053L98.5171 89.2459L98.3932 87.4865V83.373H99.9296V92.5664H98.4552ZM106.044 92.5664V91.2283L105.958 90.9433V88.6016C105.958 88.1473 105.821 87.7963 105.549 87.5485C105.276 87.2924 104.863 87.1644 104.31 87.1644C103.938 87.1644 103.57 87.2222 103.207 87.3378C102.852 87.4535 102.55 87.6145 102.303 87.821L101.695 86.6935C102.051 86.421 102.472 86.2186 102.959 86.0864C103.455 85.946 103.967 85.8758 104.496 85.8758C105.454 85.8758 106.193 86.1071 106.713 86.5696C107.242 87.0239 107.506 87.7302 107.506 88.6883V92.5664H106.044ZM103.963 92.6531C103.467 92.6531 103.034 92.5705 102.662 92.4053C102.29 92.2319 102.001 91.9965 101.795 91.6991C101.596 91.3935 101.497 91.0507 101.497 90.6707C101.497 90.299 101.584 89.9645 101.757 89.6671C101.939 89.3698 102.232 89.1344 102.637 88.9609C103.042 88.7875 103.579 88.7007 104.248 88.7007H106.168V89.7291H104.359C103.831 89.7291 103.475 89.8158 103.294 89.9893C103.112 90.1545 103.021 90.361 103.021 90.6088C103.021 90.8896 103.133 91.1126 103.356 91.2778C103.579 91.443 103.888 91.5256 104.285 91.5256C104.665 91.5256 105.004 91.4389 105.301 91.2655C105.607 91.092 105.825 90.8359 105.958 90.4973L106.218 91.4265C106.069 91.8147 105.801 92.1162 105.412 92.331C105.032 92.5458 104.549 92.6531 103.963 92.6531ZM111.984 92.6531C111.257 92.6531 110.696 92.4673 110.299 92.0956C109.903 91.7156 109.705 91.1581 109.705 90.4229V84.4881H111.253V90.3858C111.253 90.6996 111.332 90.9433 111.489 91.1168C111.654 91.2902 111.881 91.377 112.17 91.377C112.517 91.377 112.806 91.2861 113.038 91.1044L113.471 92.2071C113.289 92.3558 113.066 92.4673 112.802 92.5416C112.538 92.616 112.265 92.6531 111.984 92.6531ZM108.614 87.2387V85.9997H113.025V87.2387H108.614ZM117.637 92.6531C116.902 92.6531 116.258 92.5086 115.704 92.2195C115.159 91.9221 114.734 91.5174 114.428 91.0053C114.131 90.4931 113.982 89.9108 113.982 89.2583C113.982 88.5975 114.127 88.0151 114.416 87.5113C114.713 86.9992 115.118 86.5986 115.63 86.3095C116.15 86.0204 116.741 85.8758 117.402 85.8758C118.046 85.8758 118.62 86.0162 119.124 86.2971C119.628 86.5779 120.024 86.9744 120.314 87.4865C120.603 87.9986 120.747 88.6016 120.747 89.2954C120.747 89.3615 120.743 89.4359 120.735 89.5185C120.735 89.6011 120.731 89.6795 120.722 89.7539H115.209V88.7255H119.905L119.298 89.0476C119.306 88.6677 119.227 88.3332 119.062 88.0441C118.897 87.755 118.67 87.5278 118.381 87.3626C118.1 87.1974 117.774 87.1148 117.402 87.1148C117.022 87.1148 116.687 87.1974 116.398 87.3626C116.117 87.5278 115.894 87.7591 115.729 88.0564C115.572 88.3455 115.494 88.6883 115.494 89.0848V89.3326C115.494 89.7291 115.585 90.0801 115.766 90.3858C115.948 90.6914 116.204 90.9268 116.535 91.092C116.865 91.2572 117.245 91.3398 117.674 91.3398C118.046 91.3398 118.381 91.282 118.678 91.1663C118.975 91.0507 119.24 90.869 119.471 90.6212L120.301 91.5752C120.004 91.9221 119.628 92.1906 119.174 92.3806C118.728 92.5623 118.215 92.6531 117.637 92.6531ZM125.035 92.6531C124.399 92.6531 123.825 92.5127 123.313 92.2319C122.809 91.9428 122.412 91.5463 122.123 91.0424C121.834 90.5386 121.69 89.9439 121.69 89.2583C121.69 88.5727 121.834 87.978 122.123 87.4741C122.412 86.9703 122.809 86.5779 123.313 86.2971C123.825 86.0162 124.399 85.8758 125.035 85.8758C125.588 85.8758 126.084 85.9997 126.522 86.2475C126.96 86.487 127.307 86.8546 127.563 87.3502C127.819 87.8458 127.947 88.4818 127.947 89.2583C127.947 90.0265 127.823 90.6625 127.575 91.1663C127.327 91.6619 126.984 92.0336 126.547 92.2814C126.109 92.5292 125.605 92.6531 125.035 92.6531ZM125.221 91.3274C125.593 91.3274 125.923 91.2448 126.212 91.0796C126.509 90.9144 126.745 90.6749 126.918 90.361C127.1 90.0471 127.191 89.6795 127.191 89.2583C127.191 88.8288 127.1 88.4612 126.918 88.1556C126.745 87.8417 126.509 87.6021 126.212 87.4369C125.923 87.2717 125.593 87.1891 125.221 87.1891C124.849 87.1891 124.515 87.2717 124.217 87.4369C123.928 87.6021 123.693 87.8417 123.511 88.1556C123.338 88.4612 123.251 88.8288 123.251 89.2583C123.251 89.6795 123.338 90.0471 123.511 90.361C123.693 90.6749 123.928 90.9144 124.217 91.0796C124.515 91.2448 124.849 91.3274 125.221 91.3274ZM127.228 92.5664V91.0053L127.29 89.2459L127.166 87.4865V83.373H128.702V92.5664H127.228ZM136.073 92.5664V85.2563H133.199V83.8934H140.558V85.2563H137.684V92.5664H136.073ZM143.914 92.6531C143.237 92.6531 142.634 92.5086 142.106 92.2195C141.577 91.9221 141.16 91.5174 140.854 91.0053C140.549 90.4931 140.396 89.9108 140.396 89.2583C140.396 88.5975 140.549 88.0151 140.854 87.5113C141.16 86.9992 141.577 86.5986 142.106 86.3095C142.634 86.0204 143.237 85.8758 143.914 85.8758C144.6 85.8758 145.207 86.0204 145.736 86.3095C146.273 86.5986 146.69 86.995 146.987 87.4989C147.293 88.0028 147.446 88.5892 147.446 89.2583C147.446 89.9108 147.293 90.4931 146.987 91.0053C146.69 91.5174 146.273 91.9221 145.736 92.2195C145.207 92.5086 144.6 92.6531 143.914 92.6531ZM143.914 91.3274C144.294 91.3274 144.633 91.2448 144.93 91.0796C145.228 90.9144 145.459 90.6749 145.624 90.361C145.798 90.0471 145.884 89.6795 145.884 89.2583C145.884 88.8288 145.798 88.4612 145.624 88.1556C145.459 87.8417 145.228 87.6021 144.93 87.4369C144.633 87.2717 144.299 87.1891 143.927 87.1891C143.547 87.1891 143.208 87.2717 142.911 87.4369C142.622 87.6021 142.39 87.8417 142.217 88.1556C142.044 88.4612 141.957 88.8288 141.957 89.2583C141.957 89.6795 142.044 90.0471 142.217 90.361C142.39 90.6749 142.622 90.9144 142.911 91.0796C143.208 91.2448 143.543 91.3274 143.914 91.3274ZM151.417 92.6531C150.69 92.6531 150.128 92.4673 149.732 92.0956C149.335 91.7156 149.137 91.1581 149.137 90.4229V84.4881H150.686V90.3858C150.686 90.6996 150.764 90.9433 150.921 91.1168C151.087 91.2902 151.314 91.377 151.603 91.377C151.95 91.377 152.239 91.2861 152.47 91.1044L152.904 92.2071C152.722 92.3558 152.499 92.4673 152.235 92.5416C151.97 92.616 151.698 92.6531 151.417 92.6531ZM148.047 87.2387V85.9997H152.458V87.2387H148.047ZM158.254 92.5664V91.2283L158.167 90.9433V88.6016C158.167 88.1473 158.031 87.7963 157.759 87.5485C157.486 87.2924 157.073 87.1644 156.52 87.1644C156.148 87.1644 155.78 87.2222 155.417 87.3378C155.062 87.4535 154.76 87.6145 154.512 87.821L153.905 86.6935C154.26 86.421 154.682 86.2186 155.169 86.0864C155.665 85.946 156.177 85.8758 156.705 85.8758C157.664 85.8758 158.403 86.1071 158.923 86.5696C159.452 87.0239 159.716 87.7302 159.716 88.6883V92.5664H158.254ZM156.173 92.6531C155.677 92.6531 155.243 92.5705 154.872 92.4053C154.5 92.2319 154.211 91.9965 154.004 91.6991C153.806 91.3935 153.707 91.0507 153.707 90.6707C153.707 90.299 153.794 89.9645 153.967 89.6671C154.149 89.3698 154.442 89.1344 154.847 88.9609C155.252 88.7875 155.789 88.7007 156.458 88.7007H158.378V89.7291H156.569C156.04 89.7291 155.685 89.8158 155.504 89.9893C155.322 90.1545 155.231 90.361 155.231 90.6088C155.231 90.8896 155.342 91.1126 155.566 91.2778C155.789 91.443 156.098 91.5256 156.495 91.5256C156.875 91.5256 157.213 91.4389 157.511 91.2655C157.816 91.092 158.035 90.8359 158.167 90.4973L158.428 91.4265C158.279 91.8147 158.01 92.1162 157.622 92.331C157.242 92.5458 156.759 92.6531 156.173 92.6531ZM161.704 92.5664V83.373H163.253V92.5664H161.704Z" fill="#525252"/>
<path d="M220.335 94.0532V82.4066H221.574V94.0532H220.335ZM220.781 92.7151C220.087 92.7151 219.422 92.6242 218.786 92.4425C218.15 92.2525 217.638 92.0089 217.25 91.7115L217.931 90.1999C218.303 90.4642 218.74 90.6831 219.244 90.8566C219.756 91.0218 220.273 91.1044 220.793 91.1044C221.19 91.1044 221.508 91.0672 221.747 90.9929C221.995 90.9103 222.177 90.7988 222.292 90.6583C222.408 90.5179 222.466 90.3569 222.466 90.1751C222.466 89.9439 222.375 89.7621 222.193 89.63C222.011 89.4896 221.772 89.378 221.474 89.2954C221.177 89.2046 220.847 89.122 220.483 89.0476C220.128 88.965 219.769 88.8659 219.405 88.7503C219.05 88.6346 218.724 88.486 218.427 88.3042C218.129 88.1225 217.886 87.883 217.696 87.5856C217.514 87.2883 217.423 86.9083 217.423 86.4457C217.423 85.9501 217.555 85.5 217.819 85.0952C218.092 84.6822 218.497 84.356 219.034 84.1164C219.579 83.8686 220.26 83.7447 221.078 83.7447C221.623 83.7447 222.16 83.8108 222.689 83.943C223.217 84.0669 223.684 84.2568 224.089 84.5129L223.469 86.0369C223.065 85.8056 222.66 85.6363 222.255 85.5289C221.85 85.4132 221.454 85.3554 221.066 85.3554C220.677 85.3554 220.359 85.4009 220.112 85.4917C219.864 85.5826 219.686 85.7023 219.579 85.851C219.471 85.9914 219.418 86.1566 219.418 86.3466C219.418 86.5696 219.509 86.7514 219.69 86.8918C219.872 87.0239 220.112 87.1313 220.409 87.2139C220.706 87.2965 221.033 87.3791 221.388 87.4617C221.751 87.5443 222.111 87.6393 222.466 87.7467C222.829 87.8541 223.16 87.9986 223.457 88.1803C223.754 88.3621 223.994 88.6016 224.176 88.899C224.365 89.1963 224.46 89.5722 224.46 90.0265C224.46 90.5138 224.324 90.9598 224.052 91.3646C223.779 91.7693 223.37 92.0956 222.825 92.3434C222.288 92.5912 221.607 92.7151 220.781 92.7151ZM231.608 92.7151C231.005 92.7151 230.406 92.6366 229.812 92.4797C229.217 92.3145 228.713 92.0832 228.3 91.7858L229.081 90.2495C229.411 90.489 229.795 90.679 230.233 90.8194C230.671 90.9598 231.113 91.03 231.559 91.03C232.063 91.03 232.459 90.9309 232.748 90.7327C233.037 90.5344 233.182 90.2619 233.182 89.9149C233.182 89.5845 233.054 89.3244 232.798 89.1344C232.542 88.9444 232.129 88.8494 231.559 88.8494H230.642V87.5237L233.058 84.7855L233.281 85.5041H228.734V83.8934H234.805V85.1944L232.401 87.9325L231.385 87.3502H231.968C233.033 87.3502 233.838 87.5898 234.384 88.0688C234.929 88.5479 235.201 89.1633 235.201 89.9149C235.201 90.4023 235.073 90.8607 234.817 91.2902C234.561 91.7115 234.169 92.0543 233.64 92.3186C233.112 92.5829 232.434 92.7151 231.608 92.7151ZM236.202 94.4745L237.02 91.5009L237.293 92.616C236.938 92.616 236.644 92.5127 236.413 92.3062C236.19 92.0997 236.079 91.8147 236.079 91.4513C236.079 91.0879 236.194 90.7988 236.425 90.584C236.657 90.3692 236.942 90.2619 237.28 90.2619C237.627 90.2619 237.912 90.3734 238.135 90.5964C238.358 90.8112 238.47 91.0961 238.47 91.4513C238.47 91.5587 238.462 91.6661 238.445 91.7734C238.429 91.8726 238.395 91.9965 238.346 92.1451C238.305 92.2856 238.234 92.4673 238.135 92.6903L237.429 94.4745H236.202ZM242.304 92.7151C241.701 92.7151 241.102 92.6366 240.508 92.4797C239.913 92.3145 239.409 92.0832 238.996 91.7858L239.777 90.2495C240.107 90.489 240.491 90.679 240.929 90.8194C241.367 90.9598 241.809 91.03 242.255 91.03C242.759 91.03 243.155 90.9309 243.444 90.7327C243.733 90.5344 243.878 90.2619 243.878 89.9149C243.878 89.5845 243.75 89.3244 243.494 89.1344C243.238 88.9444 242.825 88.8494 242.255 88.8494H241.338V87.5237L243.754 84.7855L243.977 85.5041H239.43V83.8934H245.501V85.1944L243.097 87.9325L242.081 87.3502H242.664C243.729 87.3502 244.535 87.5898 245.08 88.0688C245.625 88.5479 245.897 89.1633 245.897 89.9149C245.897 90.4023 245.769 90.8607 245.513 91.2902C245.257 91.7115 244.865 92.0543 244.336 92.3186C243.808 92.5829 243.13 92.7151 242.304 92.7151ZM246.725 90.7451V89.3946L250.814 83.8934H252.92L248.918 89.3946L247.939 89.1096H254.766V90.7451H246.725ZM251.396 92.5664V90.7451L251.458 89.1096V87.4865H253.354V92.5664H251.396ZM255.267 90.7451V89.3946L259.356 83.8934H261.462L257.46 89.3946L256.482 89.1096H263.308V90.7451H255.267ZM259.938 92.5664V90.7451L260 89.1096V87.4865H261.896V92.5664H259.938ZM265.291 92.6655C264.96 92.6655 264.675 92.554 264.436 92.331C264.204 92.0997 264.089 91.8065 264.089 91.4513C264.089 91.0961 264.204 90.8112 264.436 90.5964C264.675 90.3734 264.96 90.2619 265.291 90.2619C265.629 90.2619 265.914 90.3734 266.146 90.5964C266.377 90.8112 266.493 91.0961 266.493 91.4513C266.493 91.8065 266.377 92.0997 266.146 92.331C265.914 92.554 265.629 92.6655 265.291 92.6655ZM270.953 92.7151C270.243 92.7151 269.607 92.5416 269.045 92.1947C268.483 91.8395 268.042 91.3274 267.719 90.6583C267.397 89.9893 267.236 89.1798 267.236 88.2299C267.236 87.28 267.397 86.4705 267.719 85.8015C268.042 85.1324 268.483 84.6244 269.045 84.2775C269.607 83.9223 270.243 83.7447 270.953 83.7447C271.672 83.7447 272.308 83.9223 272.861 84.2775C273.423 84.6244 273.865 85.1324 274.187 85.8015C274.509 86.4705 274.67 87.28 274.67 88.2299C274.67 89.1798 274.509 89.9893 274.187 90.6583C273.865 91.3274 273.423 91.8395 272.861 92.1947C272.308 92.5416 271.672 92.7151 270.953 92.7151ZM270.953 91.0177C271.292 91.0177 271.585 90.9227 271.833 90.7327C272.089 90.5427 272.287 90.2412 272.428 89.8282C272.576 89.4152 272.651 88.8824 272.651 88.2299C272.651 87.5774 272.576 87.0446 272.428 86.6316C272.287 86.2186 272.089 85.9171 271.833 85.7271C271.585 85.5371 271.292 85.4422 270.953 85.4422C270.623 85.4422 270.33 85.5371 270.074 85.7271C269.826 85.9171 269.627 86.2186 269.479 86.6316C269.338 87.0446 269.268 87.5774 269.268 88.2299C269.268 88.8824 269.338 89.4152 269.479 89.8282C269.627 90.2412 269.826 90.5427 270.074 90.7327C270.33 90.9227 270.623 91.0177 270.953 91.0177ZM279.362 92.7151C278.652 92.7151 278.016 92.5416 277.454 92.1947C276.893 91.8395 276.451 91.3274 276.129 90.6583C275.806 89.9893 275.645 89.1798 275.645 88.2299C275.645 87.28 275.806 86.4705 276.129 85.8015C276.451 85.1324 276.893 84.6244 277.454 84.2775C278.016 83.9223 278.652 83.7447 279.362 83.7447C280.081 83.7447 280.717 83.9223 281.27 84.2775C281.832 84.6244 282.274 85.1324 282.596 85.8015C282.918 86.4705 283.079 87.28 283.079 88.2299C283.079 89.1798 282.918 89.9893 282.596 90.6583C282.274 91.3274 281.832 91.8395 281.27 92.1947C280.717 92.5416 280.081 92.7151 279.362 92.7151ZM279.362 91.0177C279.701 91.0177 279.994 90.9227 280.242 90.7327C280.498 90.5427 280.696 90.2412 280.837 89.8282C280.986 89.4152 281.06 88.8824 281.06 88.2299C281.06 87.5774 280.986 87.0446 280.837 86.6316C280.696 86.2186 280.498 85.9171 280.242 85.7271C279.994 85.5371 279.701 85.4422 279.362 85.4422C279.032 85.4422 278.739 85.5371 278.483 85.7271C278.235 85.9171 278.037 86.2186 277.888 86.6316C277.748 87.0446 277.677 87.5774 277.677 88.2299C277.677 88.8824 277.748 89.4152 277.888 89.8282C278.037 90.2412 278.235 90.5427 278.483 90.7327C278.739 90.9227 279.032 91.0177 279.362 91.0177Z" fill="#9CBFFF"/>
</g>
<defs>
<filter id="filter0_d_68_662" x="0.911121" y="0.450989" width="326.553" height="135.4" filterUnits="userSpaceOnUse" color-interpolation-filters="sRGB">
<feFlood flood-opacity="0" result="BackgroundImageFix"/>
<feColorMatrix in="SourceAlpha" type="matrix" values="0 0 0 0 0 0 0 0 0 0 0 0 0 0 0 0 0 0 127 0" result="hardAlpha"/>
<feOffset dy="3.53987"/>
<feGaussianBlur stdDeviation="15.0444"/>
<feComposite in2="hardAlpha" operator="out"/>
<feColorMatrix type="matrix" values="0 0 0 0 0 0 0 0 0 0 0 0 0 0 0 0 0 0 0.05 0"/>
<feBlend mode="normal" in2="BackgroundImageFix" result="effect1_dropShadow_68_662"/>
<feBlend mode="normal" in="SourceGraphic" in2="effect1_dropShadow_68_662" result="shape"/>
</filter>
</defs>
</svg>
