<svg width="65" height="65" viewBox="0 0 65 65" fill="none" xmlns="http://www.w3.org/2000/svg">
<g opacity="0.5">
<path d="M38.0432 61.1157C38.139 61.595 38.6056 61.9071 39.0819 61.7974C44.3338 60.5868 49.1735 57.9953 53.0965 54.284C57.2341 50.3697 60.1843 45.3683 61.6088 39.8537C63.0333 34.339 62.8742 28.5344 61.15 23.106C59.4257 17.6776 56.206 12.8453 51.8603 9.1634C47.5147 5.48154 42.2191 3.09935 36.5812 2.29016C30.9433 1.48096 25.1915 2.27753 19.9857 4.58848C14.7799 6.89943 10.331 10.6311 7.14954 15.3554C4.13301 19.8348 2.37172 25.0344 2.04026 30.4139C2.0102 30.9017 2.39474 31.3107 2.88324 31.3265L16.7314 31.7744C17.2199 31.7902 17.626 31.4065 17.6712 30.9199C17.8982 28.4775 18.7346 26.1258 20.11 24.0834C21.6506 21.7959 23.8048 19.9889 26.3255 18.8699C28.8462 17.7509 31.6313 17.3652 34.3613 17.757C37.0912 18.1489 39.6554 19.3024 41.7596 21.0852C43.8639 22.868 45.4229 25.2079 46.2578 27.8364C47.0927 30.4649 47.1697 33.2755 46.48 35.9458C45.7902 38.6161 44.3617 41.0378 42.3582 42.9332C40.5695 44.6254 38.3872 45.8368 36.0153 46.4618C35.5426 46.5864 35.2309 47.0499 35.3267 47.5292L38.0432 61.1157Z" fill="#FABF00"/>
<g filter="url(#filter0_i_68_668)">
<path d="M35.4628 9.05584C40.8741 9.76484 45.89 12.2721 49.7048 16.1749C53.5196 20.0777 55.9119 25.1495 56.4974 30.5756C57.0828 36.0016 55.8274 41.467 52.9329 46.0937C50.0383 50.7204 45.6727 54.2399 40.5371 56.0868C35.4016 57.9338 29.7943 58.0009 24.616 56.2775C19.4378 54.5541 14.989 51.1401 11.9845 46.5841C8.98003 42.028 7.59412 36.5943 8.04945 31.1558C8.50478 25.7173 10.7749 20.5896 14.4952 16.5966L17.5516 19.4442C14.4699 22.7518 12.5895 26.9993 12.2123 31.5043C11.8351 36.0093 12.9831 40.5103 15.4719 44.2843C17.9607 48.0583 21.6458 50.8863 25.9352 52.3139C30.2246 53.7414 34.8694 53.6858 39.1234 52.1559C43.3774 50.626 46.9937 47.7106 49.3914 43.8781C51.7891 40.0456 52.829 35.5184 52.3441 31.0237C51.8591 26.529 49.8775 22.3278 46.7175 19.0949C43.5575 15.862 39.4025 13.7851 34.9201 13.1978L35.4628 9.05584Z" fill="#FFDD6D"/>
</g>
</g>
<defs>
<filter id="filter0_i_68_668" x="7.9646" y="9.05566" width="48.6733" height="52.0067" filterUnits="userSpaceOnUse" color-interpolation-filters="sRGB">
<feFlood flood-opacity="0" result="BackgroundImageFix"/>
<feBlend mode="normal" in="SourceGraphic" in2="BackgroundImageFix" result="shape"/>
<feColorMatrix in="SourceAlpha" type="matrix" values="0 0 0 0 0 0 0 0 0 0 0 0 0 0 0 0 0 0 127 0" result="hardAlpha"/>
<feOffset dy="3.53987"/>
<feGaussianBlur stdDeviation="1.76993"/>
<feComposite in2="hardAlpha" operator="arithmetic" k2="-1" k3="1"/>
<feColorMatrix type="matrix" values="0 0 0 0 0 0 0 0 0 0 0 0 0 0 0 0 0 0 0.07 0"/>
<feBlend mode="normal" in2="shape" result="effect1_innerShadow_68_668"/>
</filter>
</defs>
</svg>
