<svg width="227" height="282" viewBox="0 0 227 282" fill="none" xmlns="http://www.w3.org/2000/svg">
<g filter="url(#filter0_d_1098_9328)">
<rect x="48" y="14" width="164.848" height="254" rx="6.72848" fill="white"/>
</g>
<g filter="url(#filter1_d_1098_9328)">
<rect x="14" y="216" width="142.98" height="40.3709" rx="6.72848" fill="white"/>
</g>
<path d="M45.4299 239.457V232.392H46.0455L50.9203 238.529H50.5973V232.392H51.3341V239.457H50.7184L45.8538 233.321H46.1767V239.457H45.4299ZM55.7393 239.507C55.1876 239.507 54.7032 239.393 54.286 239.164C53.8688 238.929 53.5425 238.609 53.307 238.206C53.0715 237.795 52.9537 237.327 52.9537 236.803C52.9537 236.278 53.0648 235.814 53.2868 235.41C53.5156 235.006 53.8251 234.69 54.2153 234.461C54.6123 234.226 55.0564 234.108 55.5476 234.108C56.0455 234.108 56.4862 234.222 56.8697 234.451C57.26 234.673 57.5661 234.989 57.7882 235.4C58.0102 235.803 58.1212 236.271 58.1212 236.803C58.1212 236.836 58.1179 236.873 58.1111 236.914C58.1111 236.947 58.1111 236.984 58.1111 237.025H53.4988V236.49H57.7276L57.445 236.702C57.445 236.318 57.3609 235.978 57.1927 235.682C57.0312 235.38 56.8092 235.144 56.5266 234.976C56.244 234.808 55.9176 234.724 55.5476 234.724C55.1842 234.724 54.8579 234.808 54.5686 234.976C54.2793 235.144 54.0539 235.38 53.8924 235.682C53.7309 235.985 53.6501 236.332 53.6501 236.722V236.833C53.6501 237.237 53.7376 237.593 53.9126 237.903C54.0942 238.206 54.3432 238.444 54.6594 238.619C54.9824 238.788 55.3491 238.872 55.7595 238.872C56.0825 238.872 56.3819 238.814 56.6578 238.7C56.9404 238.586 57.1826 238.411 57.3845 238.175L57.7882 238.64C57.5527 238.922 57.2566 239.137 56.9 239.285C56.5501 239.433 56.1632 239.507 55.7393 239.507ZM60.5611 239.457L58.5628 234.158H59.2491L61.0658 239.074H60.7529L62.62 234.158H63.2357L65.0827 239.074H64.7698L66.6168 234.158H67.2728L65.2643 239.457H64.5881L62.8118 234.835H63.0238L61.2373 239.457H60.5611Z" fill="#525252"/>
<circle cx="32.5034" cy="236.187" r="5.04636" fill="#FABF00"/>
<path d="M100.938 239.457V232.392H103.582C104.181 232.392 104.696 232.49 105.126 232.685C105.557 232.873 105.886 233.149 106.115 233.512C106.351 233.869 106.468 234.303 106.468 234.814C106.468 235.312 106.351 235.743 106.115 236.106C105.886 236.463 105.557 236.739 105.126 236.934C104.696 237.122 104.181 237.216 103.582 237.216H101.351L101.685 236.873V239.457H100.938ZM105.762 239.457L103.945 236.893H104.753L106.58 239.457H105.762ZM101.685 236.934L101.351 236.581H103.562C104.268 236.581 104.803 236.426 105.167 236.116C105.537 235.807 105.722 235.373 105.722 234.814C105.722 234.249 105.537 233.812 105.167 233.502C104.803 233.193 104.268 233.038 103.562 233.038H101.351L101.685 232.685V236.934ZM110.331 239.507C109.779 239.507 109.294 239.393 108.877 239.164C108.46 238.929 108.134 238.609 107.898 238.206C107.663 237.795 107.545 237.327 107.545 236.803C107.545 236.278 107.656 235.814 107.878 235.41C108.107 235.006 108.416 234.69 108.807 234.461C109.204 234.226 109.648 234.108 110.139 234.108C110.637 234.108 111.077 234.222 111.461 234.451C111.851 234.673 112.157 234.989 112.379 235.4C112.601 235.803 112.712 236.271 112.712 236.803C112.712 236.836 112.709 236.873 112.702 236.914C112.702 236.947 112.702 236.984 112.702 237.025H108.09V236.49H112.319L112.036 236.702C112.036 236.318 111.952 235.978 111.784 235.682C111.622 235.38 111.4 235.144 111.118 234.976C110.835 234.808 110.509 234.724 110.139 234.724C109.775 234.724 109.449 234.808 109.16 234.976C108.87 235.144 108.645 235.38 108.484 235.682C108.322 235.985 108.241 236.332 108.241 236.722V236.833C108.241 237.237 108.329 237.593 108.504 237.903C108.685 238.206 108.934 238.444 109.251 238.619C109.574 238.788 109.94 238.872 110.351 238.872C110.674 238.872 110.973 238.814 111.249 238.7C111.532 238.586 111.774 238.411 111.976 238.175L112.379 238.64C112.144 238.922 111.848 239.137 111.491 239.285C111.141 239.433 110.754 239.507 110.331 239.507ZM116.876 234.108C117.306 234.108 117.683 234.192 118.006 234.36C118.336 234.522 118.592 234.771 118.773 235.107C118.962 235.443 119.056 235.867 119.056 236.379V239.457H118.339V236.449C118.339 235.891 118.198 235.47 117.915 235.188C117.639 234.898 117.249 234.754 116.745 234.754C116.368 234.754 116.038 234.831 115.756 234.986C115.48 235.134 115.264 235.353 115.11 235.642C114.962 235.925 114.888 236.268 114.888 236.671V239.457H114.171V234.158H114.857V235.612L114.746 235.339C114.914 234.956 115.184 234.656 115.554 234.441C115.924 234.219 116.364 234.108 116.876 234.108ZM123.242 239.507C122.69 239.507 122.206 239.393 121.789 239.164C121.372 238.929 121.045 238.609 120.81 238.206C120.574 237.795 120.457 237.327 120.457 236.803C120.457 236.278 120.568 235.814 120.79 235.41C121.018 235.006 121.328 234.69 121.718 234.461C122.115 234.226 122.559 234.108 123.05 234.108C123.548 234.108 123.989 234.222 124.372 234.451C124.763 234.673 125.069 234.989 125.291 235.4C125.513 235.803 125.624 236.271 125.624 236.803C125.624 236.836 125.621 236.873 125.614 236.914C125.614 236.947 125.614 236.984 125.614 237.025H121.002V236.49H125.23L124.948 236.702C124.948 236.318 124.864 235.978 124.695 235.682C124.534 235.38 124.312 235.144 124.029 234.976C123.747 234.808 123.42 234.724 123.05 234.724C122.687 234.724 122.361 234.808 122.071 234.976C121.782 235.144 121.557 235.38 121.395 235.682C121.234 235.985 121.153 236.332 121.153 236.722V236.833C121.153 237.237 121.24 237.593 121.415 237.903C121.597 238.206 121.846 238.444 122.162 238.619C122.485 238.788 122.852 238.872 123.262 238.872C123.585 238.872 123.885 238.814 124.161 238.7C124.443 238.586 124.685 238.411 124.887 238.175L125.291 238.64C125.055 238.922 124.759 239.137 124.403 239.285C124.053 239.433 123.666 239.507 123.242 239.507ZM128.064 239.457L126.066 234.158H126.752L128.569 239.074H128.256L130.123 234.158H130.738L132.585 239.074H132.273L134.12 234.158H134.776L132.767 239.457H132.091L130.315 234.835H130.527L128.74 239.457H128.064ZM139.017 239.457V238.286L138.987 238.095V236.137C138.987 235.686 138.859 235.339 138.604 235.097C138.355 234.855 137.981 234.734 137.483 234.734C137.14 234.734 136.814 234.791 136.504 234.905C136.195 235.02 135.932 235.171 135.717 235.359L135.394 234.824C135.663 234.596 135.986 234.421 136.363 234.3C136.74 234.172 137.137 234.108 137.554 234.108C138.24 234.108 138.768 234.279 139.138 234.623C139.515 234.959 139.704 235.474 139.704 236.167V239.457H139.017ZM137.191 239.507C136.794 239.507 136.447 239.444 136.151 239.316C135.862 239.181 135.64 238.999 135.485 238.771C135.33 238.535 135.253 238.266 135.253 237.963C135.253 237.687 135.317 237.438 135.445 237.216C135.579 236.988 135.794 236.806 136.09 236.671C136.393 236.53 136.797 236.459 137.302 236.459H139.128V236.994H137.322C136.81 236.994 136.454 237.085 136.252 237.267C136.057 237.449 135.959 237.674 135.959 237.943C135.959 238.246 136.077 238.488 136.312 238.67C136.548 238.851 136.878 238.942 137.302 238.942C137.705 238.942 138.052 238.851 138.341 238.67C138.637 238.481 138.852 238.212 138.987 237.862L139.149 238.357C139.014 238.707 138.778 238.986 138.442 239.195C138.112 239.403 137.695 239.507 137.191 239.507ZM141.65 239.457V231.968H142.367V239.457H141.65Z" fill="#525252"/>
<circle cx="88.0132" cy="236.187" r="5.04636" fill="#FDE599"/>
<path d="M69.6086 48.1836V37.5862H71.2285L77.8746 45.7462H77.0722V37.5862H79.0251V48.1836H77.4052L70.7592 40.0236H71.5616V48.1836H69.6086ZM85.3165 48.2896C84.4889 48.2896 83.7521 48.1129 83.1062 47.7597C82.4602 47.3964 81.9506 46.9018 81.5771 46.2761C81.2037 45.6503 81.017 44.9388 81.017 44.1415C81.017 43.334 81.2037 42.6225 81.5771 42.0069C81.9506 41.3811 82.4602 40.8916 83.1062 40.5384C83.7521 40.1851 84.4889 40.0085 85.3165 40.0085C86.1542 40.0085 86.896 40.1851 87.5419 40.5384C88.1979 40.8916 88.7076 41.3761 89.071 41.9917C89.4444 42.6074 89.6311 43.324 89.6311 44.1415C89.6311 44.9388 89.4444 45.6503 89.071 46.2761C88.7076 46.9018 88.1979 47.3964 87.5419 47.7597C86.896 48.1129 86.1542 48.2896 85.3165 48.2896ZM85.3165 46.6697C85.7807 46.6697 86.1945 46.5688 86.5579 46.3669C86.9212 46.1651 87.2038 45.8724 87.4057 45.4888C87.6176 45.1053 87.7236 44.6562 87.7236 44.1415C87.7236 43.6166 87.6176 43.1675 87.4057 42.7941C87.2038 42.4106 86.9212 42.1179 86.5579 41.916C86.1945 41.7142 85.7858 41.6132 85.3316 41.6132C84.8673 41.6132 84.4535 41.7142 84.0902 41.916C83.737 42.1179 83.4544 42.4106 83.2424 42.7941C83.0305 43.1675 82.9245 43.6166 82.9245 44.1415C82.9245 44.6562 83.0305 45.1053 83.2424 45.4888C83.4544 45.8724 83.737 46.1651 84.0902 46.3669C84.4535 46.5688 84.8623 46.6697 85.3165 46.6697ZM95.8063 48.1836V37.5862H100.439C101.589 37.5862 102.599 37.8083 103.467 38.2524C104.335 38.6964 105.011 39.3121 105.495 40.0993C105.98 40.8866 106.222 41.8151 106.222 42.8849C106.222 43.9447 105.98 44.8732 105.495 45.6705C105.011 46.4577 104.335 47.0734 103.467 47.5175C102.599 47.9616 101.589 48.1836 100.439 48.1836H95.8063ZM97.7744 46.5183H100.348C101.145 46.5183 101.832 46.3669 102.407 46.0641C102.992 45.7613 103.441 45.3374 103.754 44.7924C104.077 44.2474 104.239 43.6116 104.239 42.8849C104.239 42.1481 104.077 41.5123 103.754 40.9774C103.441 40.4324 102.992 40.0085 102.407 39.7057C101.832 39.4029 101.145 39.2515 100.348 39.2515H97.7744V46.5183ZM111.932 48.2896C111.034 48.2896 110.247 48.1129 109.57 47.7597C108.904 47.3964 108.384 46.9018 108.011 46.2761C107.648 45.6503 107.466 44.9388 107.466 44.1415C107.466 43.334 107.643 42.6225 107.996 42.0069C108.359 41.3811 108.854 40.8916 109.479 40.5384C110.115 40.1851 110.837 40.0085 111.644 40.0085C112.432 40.0085 113.133 40.1801 113.749 40.5232C114.364 40.8664 114.849 41.3508 115.202 41.9766C115.555 42.6023 115.732 43.3391 115.732 44.1869C115.732 44.2676 115.727 44.3585 115.717 44.4594C115.717 44.5603 115.712 44.6562 115.702 44.747H108.965V43.4905H114.702L113.961 43.8841C113.971 43.4198 113.875 43.0111 113.673 42.6578C113.471 42.3046 113.194 42.027 112.84 41.8252C112.497 41.6233 112.099 41.5224 111.644 41.5224C111.18 41.5224 110.771 41.6233 110.418 41.8252C110.075 42.027 109.802 42.3096 109.601 42.673C109.409 43.0262 109.313 43.4451 109.313 43.9295V44.2323C109.313 44.7167 109.424 45.1457 109.646 45.5191C109.868 45.8925 110.181 46.1802 110.585 46.382C110.988 46.5839 111.453 46.6848 111.977 46.6848C112.432 46.6848 112.84 46.6142 113.204 46.4729C113.567 46.3316 113.89 46.1095 114.173 45.8068L115.187 46.9725C114.824 47.3964 114.364 47.7244 113.809 47.9565C113.264 48.1785 112.639 48.2896 111.932 48.2896ZM122.309 48.1836V46.5486L122.203 46.2004V43.3391C122.203 42.784 122.036 42.3551 121.703 42.0523C121.37 41.7394 120.865 41.583 120.189 41.583C119.735 41.583 119.286 41.6536 118.842 41.7949C118.408 41.9362 118.039 42.133 117.737 42.3853L116.995 41.0077C117.429 40.6746 117.944 40.4273 118.539 40.2659C119.145 40.0943 119.77 40.0085 120.416 40.0085C121.587 40.0085 122.49 40.2911 123.126 40.8563C123.772 41.4114 124.095 42.2743 124.095 43.4451V48.1836H122.309ZM119.765 48.2896C119.16 48.2896 118.63 48.1886 118.176 47.9868C117.722 47.7748 117.368 47.4872 117.116 47.1239C116.874 46.7504 116.753 46.3316 116.753 45.8673C116.753 45.4131 116.859 45.0044 117.071 44.6411C117.293 44.2777 117.651 43.9901 118.145 43.7781C118.64 43.5662 119.296 43.4602 120.114 43.4602H122.46V44.7167H120.25C119.604 44.7167 119.17 44.8227 118.948 45.0347C118.726 45.2365 118.615 45.4888 118.615 45.7916C118.615 46.1348 118.751 46.4073 119.024 46.6091C119.296 46.811 119.674 46.9119 120.159 46.9119C120.623 46.9119 121.037 46.8059 121.4 46.594C121.774 46.382 122.041 46.0692 122.203 45.6554L122.521 46.7908C122.339 47.2652 122.011 47.6335 121.537 47.896C121.072 48.1584 120.482 48.2896 119.765 48.2896ZM126.524 48.1836V36.9504H128.416V48.1836H126.524ZM133.398 48.2896C132.722 48.2896 132.071 48.2038 131.445 48.0322C130.829 47.8505 130.34 47.6335 129.976 47.3812L130.703 45.943C131.066 46.1751 131.5 46.3669 132.005 46.5183C132.51 46.6697 133.014 46.7454 133.519 46.7454C134.114 46.7454 134.543 46.6646 134.806 46.5032C135.078 46.3417 135.215 46.1247 135.215 45.8522C135.215 45.6301 135.124 45.4636 134.942 45.3526C134.76 45.2315 134.523 45.1406 134.23 45.0801C133.938 45.0195 133.61 44.964 133.246 44.9136C132.893 44.8631 132.535 44.7975 132.172 44.7167C131.818 44.6259 131.495 44.4998 131.203 44.3383C130.91 44.1667 130.673 43.9396 130.491 43.657C130.309 43.3744 130.219 43.001 130.219 42.5367C130.219 42.022 130.365 41.5779 130.658 41.2045C130.95 40.821 131.359 40.5283 131.884 40.3264C132.419 40.1145 133.05 40.0085 133.776 40.0085C134.321 40.0085 134.871 40.0691 135.426 40.1902C135.982 40.3113 136.441 40.4829 136.804 40.7049L136.077 42.1431C135.694 41.911 135.305 41.7545 134.912 41.6738C134.528 41.583 134.145 41.5375 133.761 41.5375C133.186 41.5375 132.757 41.6233 132.474 41.7949C132.202 41.9665 132.066 42.1835 132.066 42.4459C132.066 42.6881 132.156 42.8698 132.338 42.9909C132.52 43.112 132.757 43.2079 133.05 43.2785C133.342 43.3492 133.665 43.4097 134.019 43.4602C134.382 43.5006 134.74 43.5662 135.093 43.657C135.447 43.7478 135.77 43.874 136.062 44.0355C136.365 44.1869 136.607 44.4039 136.789 44.6865C136.971 44.9691 137.061 45.3374 137.061 45.7916C137.061 46.2963 136.91 46.7353 136.607 47.1087C136.315 47.4821 135.896 47.7748 135.351 47.9868C134.806 48.1886 134.155 48.2896 133.398 48.2896Z" fill="#525252"/>
<path d="M145.513 48.0742V42.1868H146.413L148.987 46.4846H148.516L151.047 42.1868H151.947L151.956 48.0742H150.921L150.913 43.81H151.132L148.978 47.4014H148.491L146.304 43.81H146.556V48.0742H145.513ZM155.464 48.1331C155.004 48.1331 154.595 48.035 154.236 47.8387C153.877 47.6369 153.594 47.3621 153.386 47.0145C153.179 46.6668 153.075 46.2715 153.075 45.8286C153.075 45.38 153.179 44.9847 153.386 44.6427C153.594 44.2951 153.877 44.0231 154.236 43.8269C154.595 43.6306 155.004 43.5325 155.464 43.5325C155.929 43.5325 156.341 43.6306 156.7 43.8269C157.064 44.0231 157.348 44.2923 157.549 44.6343C157.757 44.9763 157.861 45.3744 157.861 45.8286C157.861 46.2715 157.757 46.6668 157.549 47.0145C157.348 47.3621 157.064 47.6369 156.7 47.8387C156.341 48.035 155.929 48.1331 155.464 48.1331ZM155.464 47.2332C155.722 47.2332 155.951 47.1771 156.153 47.0649C156.355 46.9528 156.512 46.7902 156.624 46.5771C156.742 46.3641 156.801 46.1145 156.801 45.8286C156.801 45.537 156.742 45.2875 156.624 45.08C156.512 44.867 156.355 44.7044 156.153 44.5922C155.951 44.4801 155.724 44.424 155.472 44.424C155.214 44.424 154.984 44.4801 154.782 44.5922C154.586 44.7044 154.429 44.867 154.311 45.08C154.194 45.2875 154.135 45.537 154.135 45.8286C154.135 46.1145 154.194 46.3641 154.311 46.5771C154.429 46.7902 154.586 46.9528 154.782 47.0649C154.984 47.1771 155.211 47.2332 155.464 47.2332ZM161.414 43.5325C161.773 43.5325 162.093 43.6026 162.373 43.7428C162.659 43.8829 162.883 44.0988 163.046 44.3904C163.209 44.6763 163.29 45.0464 163.29 45.5006V48.0742H162.239V45.6351C162.239 45.237 162.143 44.9399 161.953 44.7436C161.768 44.5474 161.507 44.4493 161.17 44.4493C160.924 44.4493 160.705 44.4997 160.514 44.6006C160.324 44.7016 160.175 44.853 160.069 45.0548C159.968 45.2511 159.917 45.5006 159.917 45.8034V48.0742H158.866V43.583H159.867V44.7941L159.69 44.424C159.847 44.1381 160.074 43.9194 160.371 43.768C160.674 43.611 161.022 43.5325 161.414 43.5325ZM166.314 48.1331C165.821 48.1331 165.439 48.0069 165.17 47.7546C164.901 47.4967 164.767 47.1182 164.767 46.6192V42.5905H165.818V46.594C165.818 46.807 165.871 46.9724 165.978 47.0902C166.09 47.2079 166.244 47.2668 166.44 47.2668C166.676 47.2668 166.872 47.2051 167.029 47.0818L167.323 47.8303C167.2 47.9312 167.049 48.0069 166.869 48.0574C166.69 48.1079 166.505 48.1331 166.314 48.1331ZM164.026 44.4577V43.6166H167.021V44.4577H164.026ZM170.737 43.5325C171.096 43.5325 171.415 43.6026 171.696 43.7428C171.981 43.8829 172.206 44.0988 172.368 44.3904C172.531 44.6763 172.612 45.0464 172.612 45.5006V48.0742H171.561V45.6351C171.561 45.237 171.466 44.9399 171.275 44.7436C171.09 44.5474 170.829 44.4493 170.493 44.4493C170.246 44.4493 170.027 44.4997 169.837 44.6006C169.646 44.7016 169.498 44.853 169.391 45.0548C169.29 45.2511 169.24 45.5006 169.24 45.8034V48.0742H168.188V41.8336H169.24V44.7941L169.013 44.424C169.17 44.1381 169.397 43.9194 169.694 43.768C169.997 43.611 170.344 43.5325 170.737 43.5325ZM173.946 48.0742V41.8336H174.997V48.0742H173.946ZM176.747 49.7647C176.529 49.7647 176.31 49.7283 176.091 49.6554C175.872 49.5825 175.69 49.4816 175.544 49.3526L175.965 48.5789C176.072 48.6742 176.192 48.7499 176.327 48.8059C176.461 48.862 176.599 48.89 176.739 48.89C176.929 48.89 177.084 48.8424 177.201 48.7471C177.319 48.6517 177.428 48.4919 177.529 48.2677L177.79 47.6789L177.874 47.5528L179.573 43.583H180.582L178.48 48.4359C178.34 48.7723 178.183 49.0386 178.009 49.2349C177.841 49.4311 177.65 49.5685 177.437 49.647C177.229 49.7255 176.999 49.7647 176.747 49.7647ZM177.672 48.234L175.645 43.583H176.739L178.387 47.4602L177.672 48.234Z" fill="#82878E"/>
<path d="M117.134 146.061C116.139 146.061 115.163 145.92 114.207 145.637C113.265 145.341 112.471 144.938 111.826 144.426L112.956 142.387C113.467 142.805 114.086 143.141 114.813 143.397C115.54 143.652 116.3 143.78 117.094 143.78C118.036 143.78 118.769 143.592 119.294 143.215C119.819 142.825 120.081 142.3 120.081 141.641C120.081 140.995 119.839 140.483 119.355 140.107C118.87 139.73 118.09 139.541 117.013 139.541H115.721V137.745L119.758 132.941L120.102 133.93H112.512V131.73H122.14V133.486L118.103 138.29L116.731 137.482H117.518C119.254 137.482 120.552 137.873 121.414 138.653C122.288 139.42 122.726 140.409 122.726 141.62C122.726 142.414 122.524 143.148 122.12 143.821C121.716 144.493 121.097 145.039 120.263 145.456C119.442 145.859 118.399 146.061 117.134 146.061ZM124.24 142.65V140.833L131.204 131.73H134.01L127.147 140.833L125.835 140.429H137.038V142.65H124.24ZM131.991 145.859V142.65L132.072 140.429V137.583H134.535V145.859H131.991ZM142.825 146.061C141.829 146.061 140.854 145.92 139.898 145.637C138.956 145.341 138.162 144.938 137.516 144.426L138.627 142.387C139.138 142.805 139.757 143.141 140.484 143.397C141.224 143.652 141.991 143.78 142.785 143.78C143.713 143.78 144.44 143.585 144.965 143.195C145.503 142.805 145.772 142.28 145.772 141.62C145.772 141.176 145.658 140.786 145.429 140.45C145.214 140.113 144.824 139.858 144.258 139.683C143.707 139.508 142.946 139.42 141.977 139.42H138.566L139.293 131.73H147.589V133.93H140.262L141.634 132.678L141.089 138.431L139.717 137.2H142.563C143.962 137.2 145.086 137.388 145.934 137.765C146.795 138.128 147.421 138.64 147.811 139.299C148.215 139.945 148.417 140.685 148.417 141.52C148.417 142.34 148.215 143.094 147.811 143.78C147.407 144.467 146.788 145.018 145.954 145.435C145.133 145.853 144.09 146.061 142.825 146.061Z" fill="#525252"/>
<path d="M187.683 138.477C190.433 138.477 192.683 140.709 192.463 143.451C191.814 151.551 189.583 159.463 185.879 166.732C181.42 175.484 174.953 183.055 167.007 188.829C159.061 194.602 149.861 198.412 140.16 199.949C130.459 201.485 120.532 200.704 111.191 197.669C101.85 194.634 93.3599 189.431 86.4148 182.486C79.4696 175.541 74.2668 167.051 71.2317 157.709C68.1966 148.368 67.4153 138.441 68.9518 128.74C70.2281 120.682 73.0735 112.97 77.3095 106.035C78.7429 103.688 81.8755 103.204 84.1002 104.82C86.3249 106.437 86.7952 109.54 85.3978 111.909C82.0656 117.556 79.8177 123.793 78.7874 130.298C77.4967 138.447 78.153 146.786 80.7025 154.632C83.252 162.479 87.6223 169.611 93.4562 175.444C99.2901 181.278 106.422 185.649 114.268 188.198C122.115 190.748 130.454 191.404 138.602 190.113C146.751 188.823 154.479 185.622 161.154 180.772C167.828 175.923 173.26 169.563 177.006 162.211C179.996 156.343 181.844 149.976 182.467 143.448C182.729 140.711 184.933 138.477 187.683 138.477Z" fill="#FABF00"/>
<path d="M187.683 138.477C190.433 138.477 192.683 140.709 192.463 143.451C191.814 151.551 189.583 159.463 185.879 166.732C181.42 175.484 174.953 183.055 167.007 188.829C159.061 194.602 149.861 198.412 140.16 199.949C130.459 201.485 120.532 200.704 111.191 197.669C101.85 194.634 93.3599 189.431 86.4148 182.486C79.4696 175.541 74.2668 167.051 71.2317 157.709C68.1966 148.368 67.4153 138.441 68.9518 128.74C70.2281 120.682 73.0735 112.97 77.3095 106.035C78.7429 103.688 81.8755 103.204 84.1002 104.82C86.3249 106.437 86.7952 109.54 85.3978 111.909C82.0656 117.556 79.8177 123.793 78.7874 130.298C77.4967 138.447 78.153 146.786 80.7025 154.632C83.252 162.479 87.6223 169.611 93.4562 175.444C99.2901 181.278 106.422 185.649 114.268 188.198C122.115 190.748 130.454 191.404 138.602 190.113C146.751 188.823 154.479 185.622 161.154 180.772C167.828 175.923 173.26 169.563 177.006 162.211C179.996 156.343 181.844 149.976 182.467 143.448C182.729 140.711 184.933 138.477 187.683 138.477Z" fill="white" fill-opacity="0.6"/>
<path d="M89.9355 97.9882C87.991 96.0438 87.979 92.874 90.0726 91.0911C97.5092 84.7584 106.352 80.249 115.895 77.9579C127.056 75.2784 138.74 75.7375 149.657 79.2844C160.573 82.8314 170.296 89.328 177.75 98.0561C184.124 105.519 188.627 114.364 190.921 123.859C191.567 126.532 189.694 129.089 186.978 129.519C184.262 129.95 181.735 128.088 181.049 125.425C179.068 117.742 175.359 110.589 170.178 104.523C163.916 97.1918 155.749 91.7346 146.579 88.7552C137.41 85.7758 127.595 85.3901 118.219 87.6409C110.463 89.5031 103.257 93.11 97.1393 98.161C95.0187 99.9117 91.8799 99.9327 89.9355 97.9882Z" fill="#FABF00"/>
<defs>
<filter id="filter0_d_1098_9328" x="34.543" y="0.543046" width="191.762" height="280.914" filterUnits="userSpaceOnUse" color-interpolation-filters="sRGB">
<feFlood flood-opacity="0" result="BackgroundImageFix"/>
<feColorMatrix in="SourceAlpha" type="matrix" values="0 0 0 0 0 0 0 0 0 0 0 0 0 0 0 0 0 0 127 0" result="hardAlpha"/>
<feOffset/>
<feGaussianBlur stdDeviation="6.72848"/>
<feColorMatrix type="matrix" values="0 0 0 0 0 0 0 0 0 0 0 0 0 0 0 0 0 0 0.06 0"/>
<feBlend mode="normal" in2="BackgroundImageFix" result="effect1_dropShadow_1098_9328"/>
<feBlend mode="normal" in="SourceGraphic" in2="effect1_dropShadow_1098_9328" result="shape"/>
</filter>
<filter id="filter1_d_1098_9328" x="0.543046" y="202.543" width="169.894" height="67.285" filterUnits="userSpaceOnUse" color-interpolation-filters="sRGB">
<feFlood flood-opacity="0" result="BackgroundImageFix"/>
<feColorMatrix in="SourceAlpha" type="matrix" values="0 0 0 0 0 0 0 0 0 0 0 0 0 0 0 0 0 0 127 0" result="hardAlpha"/>
<feOffset/>
<feGaussianBlur stdDeviation="6.72848"/>
<feColorMatrix type="matrix" values="0 0 0 0 0 0 0 0 0 0 0 0 0 0 0 0 0 0 0.06 0"/>
<feBlend mode="normal" in2="BackgroundImageFix" result="effect1_dropShadow_1098_9328"/>
<feBlend mode="normal" in="SourceGraphic" in2="effect1_dropShadow_1098_9328" result="shape"/>
</filter>
</defs>
</svg>
