<svg width="86" height="86" viewBox="0 0 86 86" fill="none" xmlns="http://www.w3.org/2000/svg">
<circle cx="1.64027" cy="1.64027" r="1.64027" fill="#D9D9D9"/>
<circle cx="18.0426" cy="1.64027" r="1.64027" fill="#D9D9D9"/>
<circle cx="34.445" cy="1.64027" r="1.64027" fill="#D9D9D9"/>
<circle cx="50.8493" cy="1.64027" r="1.64027" fill="#D9D9D9"/>
<circle cx="67.2516" cy="1.64027" r="1.64027" fill="#D9D9D9"/>
<circle cx="83.6539" cy="1.64027" r="1.64027" fill="#D9D9D9"/>
<circle cx="1.64027" cy="18.0426" r="1.64027" fill="#D9D9D9"/>
<circle cx="18.0426" cy="18.0426" r="1.64027" fill="#D9D9D9"/>
<circle cx="34.445" cy="18.0426" r="1.64027" fill="#D9D9D9"/>
<circle cx="50.8493" cy="18.0426" r="1.64027" fill="#1245C7"/>
<circle cx="67.2516" cy="18.0426" r="1.64027" fill="#D9D9D9"/>
<circle cx="83.6539" cy="18.0426" r="1.64027" fill="#D9D9D9"/>
<circle cx="1.64027" cy="34.445" r="1.64027" fill="#D9D9D9"/>
<circle cx="18.0426" cy="34.445" r="1.64027" fill="#D9D9D9"/>
<circle cx="34.445" cy="34.445" r="1.64027" fill="#D9D9D9"/>
<circle cx="50.8493" cy="34.445" r="1.64027" fill="#D9D9D9"/>
<circle cx="67.2516" cy="34.445" r="1.64027" fill="#D9D9D9"/>
<circle cx="83.6539" cy="34.445" r="1.64027" fill="#D9D9D9"/>
<circle cx="1.64027" cy="50.8473" r="1.64027" fill="#D9D9D9"/>
<circle cx="18.0426" cy="50.8473" r="1.64027" fill="#1245C7"/>
<circle cx="34.445" cy="50.8473" r="1.64027" fill="#D9D9D9"/>
<circle cx="50.8493" cy="50.8473" r="1.64027" fill="#D9D9D9"/>
<circle cx="67.2516" cy="50.8473" r="1.64027" fill="#D9D9D9"/>
<circle cx="83.6539" cy="50.8473" r="1.64027" fill="#D9D9D9"/>
<circle cx="1.64027" cy="67.2496" r="1.64027" fill="#D9D9D9"/>
<circle cx="18.0426" cy="67.2496" r="1.64027" fill="#D9D9D9"/>
<circle cx="34.445" cy="67.2496" r="1.64027" fill="#D9D9D9"/>
<circle cx="50.8493" cy="67.2496" r="1.64027" fill="#D9D9D9"/>
<circle cx="67.2516" cy="67.2496" r="1.64027" fill="#D9D9D9"/>
<circle cx="83.6539" cy="67.2496" r="1.64027" fill="#D9D9D9"/>
<circle cx="1.64027" cy="83.652" r="1.64027" fill="#D9D9D9"/>
<circle cx="18.0426" cy="83.652" r="1.64027" fill="#D9D9D9"/>
<circle cx="34.445" cy="83.652" r="1.64027" fill="#D9D9D9"/>
<circle cx="50.8493" cy="83.652" r="1.64027" fill="#D9D9D9"/>
<circle cx="67.2516" cy="83.652" r="1.64027" fill="#1245C7"/>
<circle cx="83.6539" cy="83.652" r="1.64027" fill="#D9D9D9"/>
</svg>
