<svg width="183" height="40" viewBox="0 0 183 40" fill="none" xmlns="http://www.w3.org/2000/svg">
<g clip-path="url(#clip0_1203_3468)">
<circle cx="15.3004" cy="3.9" r="1.9" fill="#253661"/>
<circle r="1.9" transform="matrix(1 0 0 -1 15.3004 38.1)" fill="#253661"/>
<circle cx="15.3004" cy="9.60312" r="1.9" fill="#253661"/>
<circle r="1.9" transform="matrix(1 0 0 -1 15.3004 32.3969)" fill="#253661"/>
<circle cx="15.3004" cy="15.2984" r="1.9" fill="#253661"/>
<circle r="1.9" transform="matrix(1 0 0 -1 15.3004 26.7016)" fill="#253661"/>
<circle cx="9.59922" cy="9.60312" r="1.9" fill="#253661"/>
<circle r="1.9" transform="matrix(1 0 0 -1 9.59922 32.3969)" fill="#253661"/>
<circle cx="9.59922" cy="15.2984" r="1.9" fill="#253661"/>
<circle r="1.9" transform="matrix(1 0 0 -1 9.59922 26.7016)" fill="#253661"/>
<circle cx="9.59922" cy="21.0016" r="1.9" fill="#253661"/>
<circle cx="38.0992" cy="21.0016" r="1.9" fill="#253661"/>
<circle cx="3.9" cy="15.2984" r="1.9" fill="#253661"/>
<circle r="1.9" transform="matrix(1 0 0 -1 3.9 26.7016)" fill="#253661"/>
<circle cx="3.9" cy="21.0016" r="1.9" fill="#253661"/>
<circle cx="32.4" cy="21.0016" r="1.9" fill="#253661"/>
<circle cx="20.9996" cy="3.9" r="1.9" fill="#253661"/>
<circle r="1.9" transform="matrix(1 0 0 -1 20.9996 38.1)" fill="#253661"/>
<circle cx="20.9996" cy="9.60312" r="1.9" fill="#253661"/>
<circle r="1.9" transform="matrix(1 0 0 -1 20.9996 32.3969)" fill="#253661"/>
<circle cx="26.7008" cy="3.9" r="1.9" fill="#253661"/>
<circle r="1.9" transform="matrix(1 0 0 -1 26.7008 38.1)" fill="#253661"/>
<circle cx="26.7008" cy="9.60312" r="1.9" fill="#253661"/>
<circle r="1.9" transform="matrix(1 0 0 -1 26.7008 32.3969)" fill="#253661"/>
<circle cx="26.7008" cy="15.2984" r="1.9" fill="#253661"/>
<circle r="1.9" transform="matrix(1 0 0 -1 26.7008 26.7016)" fill="#253661"/>
<circle cx="32.4" cy="9.60312" r="1.9" fill="#253661"/>
<circle r="1.9" transform="matrix(1 0 0 -1 32.4 32.3969)" fill="#253661"/>
<circle cx="32.4" cy="15.2984" r="1.9" fill="#253661"/>
<circle r="1.9" transform="matrix(1 0 0 -1 32.4 26.7016)" fill="#253661"/>
<circle cx="38.0992" cy="15.2984" r="1.9" fill="#253661"/>
<circle r="1.9" transform="matrix(1 0 0 -1 38.0992 26.7016)" fill="#253661"/>
</g>
<path d="M63.7271 16.0015L63.1997 13.9946H59.7207L59.1787 16.0015H56L59.4937 5.24951H63.3535L66.8911 16.0015H63.7271ZM62.5991 11.6216L62.1377 9.86377C62.0889 9.67334 62.0181 9.40234 61.9253 9.05078C61.8325 8.69434 61.7397 8.32812 61.647 7.95215C61.5591 7.57129 61.4907 7.25879 61.4419 7.01465C61.3979 7.25879 61.3345 7.56152 61.2515 7.92285C61.1733 8.2793 61.0903 8.6333 61.0024 8.98486C60.9194 9.33643 60.8462 9.62939 60.7827 9.86377L60.3213 11.6216H62.5991Z" fill="#253661"/>
<path d="M73.4237 7.5127C73.0819 7.5127 72.7768 7.58594 72.5082 7.73242C72.2396 7.87402 72.0102 8.08154 71.8197 8.35498C71.6293 8.62842 71.4828 8.96289 71.3803 9.3584C71.2826 9.74902 71.2338 10.1934 71.2338 10.6914C71.2338 11.3652 71.3192 11.9316 71.4901 12.3906C71.661 12.8496 71.9198 13.1963 72.2665 13.4307C72.6181 13.665 73.0575 13.7822 73.5849 13.7822C74.0634 13.7822 74.5224 13.7163 74.9618 13.5845C75.4062 13.4526 75.8529 13.2939 76.3021 13.1084V15.5547C75.8285 15.7646 75.3427 15.916 74.8446 16.0088C74.3515 16.1016 73.8266 16.1479 73.2699 16.1479C72.1078 16.1479 71.1557 15.9185 70.4135 15.4595C69.6762 14.9956 69.1317 14.3535 68.7802 13.5332C68.4335 12.7129 68.2602 11.7607 68.2602 10.6768C68.2602 9.86621 68.3725 9.12402 68.5971 8.4502C68.8266 7.77637 69.161 7.19287 69.6005 6.69971C70.0399 6.20166 70.5819 5.81836 71.2265 5.5498C71.8759 5.27637 72.6181 5.13965 73.453 5.13965C73.9706 5.13965 74.515 5.20068 75.0863 5.32275C75.6625 5.43994 76.224 5.63037 76.7709 5.89404L75.8847 8.17188C75.494 7.98633 75.0985 7.83008 74.6981 7.70312C74.2978 7.57617 73.8729 7.5127 73.4237 7.5127Z" fill="#253661"/>
<path d="M88.1741 16.0015H85.2664V11.6362H81.9046V16.0015H78.9969V5.29346H81.9046V9.26318H85.2664V5.29346H88.1741V16.0015Z" fill="#253661"/>
<path d="M99.2984 5.29346C100.656 5.29346 101.671 5.58887 102.345 6.17969C103.024 6.77051 103.363 7.61035 103.363 8.69922C103.363 9.1875 103.293 9.65625 103.151 10.1055C103.014 10.5547 102.787 10.9551 102.47 11.3066C102.157 11.6582 101.74 11.9365 101.217 12.1416C100.7 12.3467 100.06 12.4492 99.2984 12.4492H98.4855V16.0015H95.5924V5.29346H99.2984ZM99.2325 7.62988H98.4855V10.0908H99.0567C99.3058 10.0908 99.5377 10.0493 99.7525 9.96631C99.9674 9.87842 100.138 9.73926 100.265 9.54883C100.397 9.35352 100.463 9.09473 100.463 8.77246C100.463 8.43555 100.363 8.16211 100.163 7.95215C99.9625 7.7373 99.6524 7.62988 99.2325 7.62988Z" fill="#253661"/>
<path d="M110.511 7.55664C110.667 7.55664 110.831 7.56885 111.002 7.59326C111.173 7.61279 111.3 7.62988 111.383 7.64453L111.126 10.3472C111.034 10.3228 110.914 10.3032 110.768 10.2886C110.621 10.269 110.416 10.2593 110.152 10.2593C109.972 10.2593 109.779 10.2764 109.574 10.3105C109.369 10.3447 109.173 10.418 108.988 10.5303C108.807 10.6377 108.658 10.8037 108.541 11.0283C108.424 11.248 108.365 11.5459 108.365 11.9219V16.0015H105.501V7.70312H107.633L108.08 9.02881H108.219C108.37 8.75537 108.563 8.50879 108.797 8.28906C109.037 8.06445 109.303 7.88623 109.596 7.75439C109.894 7.62256 110.199 7.55664 110.511 7.55664Z" fill="#253661"/>
<path d="M121.072 11.834C121.072 12.5273 120.977 13.1426 120.787 13.6797C120.596 14.2168 120.32 14.6685 119.959 15.0347C119.598 15.4009 119.161 15.6792 118.648 15.8696C118.135 16.0552 117.557 16.1479 116.912 16.1479C116.311 16.1479 115.76 16.0552 115.257 15.8696C114.759 15.6792 114.324 15.4009 113.953 15.0347C113.582 14.6685 113.294 14.2168 113.089 13.6797C112.889 13.1426 112.788 12.5273 112.788 11.834C112.788 10.916 112.954 10.1396 113.287 9.50488C113.623 8.87012 114.102 8.38672 114.722 8.05469C115.347 7.72266 116.092 7.55664 116.956 7.55664C117.752 7.55664 118.46 7.72266 119.08 8.05469C119.7 8.38672 120.186 8.87012 120.537 9.50488C120.894 10.1396 121.072 10.916 121.072 11.834ZM115.696 11.834C115.696 12.3076 115.738 12.708 115.821 13.0352C115.904 13.3574 116.036 13.604 116.216 13.7749C116.402 13.9409 116.643 14.0239 116.941 14.0239C117.239 14.0239 117.476 13.9409 117.652 13.7749C117.828 13.604 117.954 13.3574 118.033 13.0352C118.116 12.708 118.157 12.3076 118.157 11.834C118.157 11.3604 118.116 10.9648 118.033 10.6475C117.954 10.3301 117.825 10.0908 117.644 9.92969C117.469 9.76855 117.229 9.68799 116.927 9.68799C116.492 9.68799 116.177 9.86865 115.982 10.23C115.791 10.5913 115.696 11.126 115.696 11.834Z" fill="#253661"/>
<path d="M127.092 16.1479C126.252 16.1479 125.522 15.999 124.902 15.7012C124.282 15.3984 123.801 14.9346 123.459 14.3096C123.122 13.6797 122.954 12.874 122.954 11.8926C122.954 10.8867 123.142 10.064 123.518 9.42432C123.899 8.78467 124.419 8.31348 125.078 8.01074C125.737 7.70801 126.484 7.55664 127.319 7.55664C127.827 7.55664 128.308 7.61279 128.762 7.7251C129.221 7.8374 129.646 7.99121 130.036 8.18652L129.194 10.3032C128.852 10.1519 128.533 10.0322 128.235 9.94434C127.942 9.85156 127.637 9.80518 127.319 9.80518C127.031 9.80518 126.777 9.88086 126.557 10.0322C126.338 10.1836 126.167 10.4131 126.045 10.7207C125.923 11.0234 125.862 11.4092 125.862 11.8779C125.862 12.3564 125.923 12.7422 126.045 13.0352C126.172 13.3281 126.345 13.5405 126.565 13.6724C126.789 13.8042 127.046 13.8701 127.334 13.8701C127.749 13.8701 128.161 13.8066 128.572 13.6797C128.987 13.5479 129.38 13.3672 129.751 13.1377V15.4155C129.409 15.6401 129.023 15.8184 128.594 15.9502C128.164 16.082 127.663 16.1479 127.092 16.1479Z" fill="#253661"/>
<path d="M135.734 7.55664C136.54 7.55664 137.236 7.69824 137.821 7.98145C138.407 8.25977 138.859 8.67969 139.176 9.24121C139.494 9.80273 139.653 10.5059 139.653 11.3506V12.625H134.533C134.557 13.0596 134.718 13.416 135.016 13.6943C135.319 13.9727 135.763 14.1118 136.349 14.1118C136.867 14.1118 137.341 14.0605 137.77 13.958C138.205 13.8555 138.652 13.6968 139.111 13.4819V15.54C138.71 15.75 138.273 15.9038 137.8 16.0015C137.326 16.0991 136.728 16.1479 136.005 16.1479C135.17 16.1479 134.423 15.999 133.764 15.7012C133.105 15.4033 132.585 14.9419 132.204 14.3169C131.828 13.6919 131.64 12.8887 131.64 11.9072C131.64 10.9111 131.811 10.0933 132.153 9.45361C132.494 8.80908 132.973 8.33301 133.588 8.02539C134.203 7.71289 134.919 7.55664 135.734 7.55664ZM135.837 9.50488C135.5 9.50488 135.217 9.6123 134.987 9.82715C134.762 10.0371 134.631 10.3691 134.592 10.8232H137.052C137.048 10.5791 136.999 10.3569 136.906 10.1567C136.813 9.95654 136.676 9.79785 136.496 9.68066C136.32 9.56348 136.1 9.50488 135.837 9.50488Z" fill="#253661"/>
<path d="M148.038 13.4526C148.038 13.98 147.921 14.4463 147.687 14.8516C147.452 15.2568 147.076 15.5742 146.559 15.8037C146.046 16.0332 145.37 16.1479 144.53 16.1479C143.939 16.1479 143.409 16.1162 142.941 16.0527C142.477 15.9893 142.005 15.8672 141.527 15.6865V13.394C142.049 13.6333 142.582 13.8066 143.124 13.9141C143.666 14.0166 144.093 14.0679 144.405 14.0679C144.728 14.0679 144.962 14.0337 145.108 13.9653C145.26 13.8921 145.336 13.7847 145.336 13.6431C145.336 13.521 145.284 13.4185 145.182 13.3354C145.084 13.2476 144.906 13.1475 144.647 13.0352C144.393 12.9229 144.034 12.7715 143.57 12.5811C143.111 12.3906 142.728 12.1831 142.421 11.9585C142.118 11.7339 141.891 11.4653 141.739 11.1528C141.588 10.8403 141.512 10.457 141.512 10.0029C141.512 9.19238 141.825 8.58203 142.45 8.17188C143.075 7.76172 143.902 7.55664 144.933 7.55664C145.48 7.55664 145.995 7.61768 146.478 7.73975C146.962 7.85693 147.462 8.03027 147.98 8.25977L147.196 10.1055C146.786 9.91992 146.371 9.771 145.951 9.65869C145.531 9.54639 145.196 9.49023 144.947 9.49023C144.723 9.49023 144.549 9.51953 144.427 9.57812C144.305 9.63672 144.244 9.72217 144.244 9.83447C144.244 9.93701 144.286 10.0273 144.369 10.1055C144.457 10.1836 144.62 10.2739 144.859 10.3765C145.099 10.479 145.448 10.623 145.907 10.8086C146.39 11.0039 146.788 11.2139 147.101 11.4385C147.418 11.6582 147.652 11.9268 147.804 12.2441C147.96 12.5615 148.038 12.9644 148.038 13.4526Z" fill="#253661"/>
<path d="M156.402 13.4526C156.402 13.98 156.285 14.4463 156.05 14.8516C155.816 15.2568 155.44 15.5742 154.922 15.8037C154.41 16.0332 153.733 16.1479 152.894 16.1479C152.303 16.1479 151.773 16.1162 151.304 16.0527C150.84 15.9893 150.369 15.8672 149.891 15.6865V13.394C150.413 13.6333 150.945 13.8066 151.487 13.9141C152.029 14.0166 152.457 14.0679 152.769 14.0679C153.091 14.0679 153.326 14.0337 153.472 13.9653C153.624 13.8921 153.699 13.7847 153.699 13.6431C153.699 13.521 153.648 13.4185 153.545 13.3354C153.448 13.2476 153.27 13.1475 153.011 13.0352C152.757 12.9229 152.398 12.7715 151.934 12.5811C151.475 12.3906 151.092 12.1831 150.784 11.9585C150.481 11.7339 150.254 11.4653 150.103 11.1528C149.952 10.8403 149.876 10.457 149.876 10.0029C149.876 9.19238 150.188 8.58203 150.813 8.17188C151.438 7.76172 152.266 7.55664 153.296 7.55664C153.843 7.55664 154.358 7.61768 154.842 7.73975C155.325 7.85693 155.826 8.03027 156.343 8.25977L155.56 10.1055C155.149 9.91992 154.734 9.771 154.314 9.65869C153.895 9.54639 153.56 9.49023 153.311 9.49023C153.086 9.49023 152.913 9.51953 152.791 9.57812C152.669 9.63672 152.608 9.72217 152.608 9.83447C152.608 9.93701 152.649 10.0273 152.732 10.1055C152.82 10.1836 152.984 10.2739 153.223 10.3765C153.462 10.479 153.812 10.623 154.271 10.8086C154.754 11.0039 155.152 11.2139 155.464 11.4385C155.782 11.6582 156.016 11.9268 156.167 12.2441C156.324 12.5615 156.402 12.9644 156.402 13.4526Z" fill="#253661"/>
<path d="M161.477 7.70312V16.0015H158.613V7.70312H161.477ZM160.056 4.36328C160.466 4.36328 160.823 4.44873 161.125 4.61963C161.433 4.79053 161.587 5.12988 161.587 5.6377C161.587 6.13086 161.433 6.46533 161.125 6.64111C160.823 6.81201 160.466 6.89746 160.056 6.89746C159.636 6.89746 159.277 6.81201 158.979 6.64111C158.686 6.46533 158.54 6.13086 158.54 5.6377C158.54 5.12988 158.686 4.79053 158.979 4.61963C159.277 4.44873 159.636 4.36328 160.056 4.36328Z" fill="#253661"/>
<path d="M169.269 7.55664C170.124 7.55664 170.822 7.79834 171.364 8.28174C171.906 8.76514 172.177 9.53906 172.177 10.6035V16.0015H169.313V11.4751C169.313 10.9233 169.233 10.5083 169.072 10.23C168.915 9.94678 168.661 9.80518 168.31 9.80518C167.768 9.80518 167.404 10.0273 167.219 10.4717C167.033 10.9111 166.94 11.5435 166.94 12.3687V16.0015H164.076V7.70312H166.237L166.625 8.80176H166.735C166.911 8.53809 167.121 8.31348 167.365 8.12793C167.609 7.94238 167.89 7.80078 168.207 7.70312C168.525 7.60547 168.879 7.55664 169.269 7.55664Z" fill="#253661"/>
<path d="M177.56 19.605C176.383 19.605 175.475 19.4072 174.835 19.0117C174.2 18.6211 173.883 18.0571 173.883 17.3198C173.883 16.8267 174.037 16.4189 174.344 16.0967C174.652 15.7744 175.113 15.5425 175.729 15.4009C175.475 15.2935 175.253 15.1201 175.062 14.8809C174.877 14.6416 174.784 14.4048 174.784 14.1704C174.784 13.9116 174.855 13.6846 174.996 13.4893C175.138 13.2891 175.433 13.0522 175.883 12.7788C175.453 12.5884 175.113 12.2905 174.864 11.8853C174.62 11.48 174.498 10.9868 174.498 10.4058C174.498 9.80518 174.635 9.29248 174.908 8.86768C175.187 8.44287 175.59 8.11816 176.117 7.89355C176.649 7.66895 177.296 7.55664 178.058 7.55664C178.16 7.55664 178.317 7.56641 178.527 7.58594C178.737 7.60059 178.949 7.62012 179.164 7.64453C179.379 7.66406 179.545 7.68359 179.662 7.70312H182.555V9.0874L181.42 9.50488C181.498 9.64648 181.556 9.80029 181.595 9.96631C181.634 10.1323 181.654 10.3081 181.654 10.4937C181.654 11.3872 181.339 12.0806 180.709 12.5737C180.084 13.0669 179.149 13.3135 177.904 13.3135C177.596 13.3135 177.352 13.2939 177.172 13.2549C177.137 13.3184 177.111 13.3818 177.091 13.4453C177.076 13.5039 177.069 13.5601 177.069 13.6138C177.069 13.7261 177.135 13.8164 177.267 13.8848C177.404 13.9482 177.567 13.9922 177.758 14.0166C177.953 14.041 178.138 14.0532 178.314 14.0532H179.691C180.624 14.0532 181.322 14.2485 181.786 14.6392C182.25 15.0298 182.482 15.6182 182.482 16.4043C182.482 17.415 182.05 18.2012 181.185 18.7627C180.326 19.3242 179.117 19.605 177.56 19.605ZM177.699 17.8179C178.046 17.8179 178.395 17.7861 178.746 17.7227C179.098 17.6641 179.393 17.5664 179.633 17.4297C179.872 17.293 179.991 17.1123 179.991 16.8877C179.991 16.7168 179.921 16.5874 179.779 16.4995C179.637 16.4165 179.454 16.3604 179.23 16.3311C179.005 16.3018 178.768 16.2871 178.519 16.2871H177.406C177.201 16.2871 177.013 16.3188 176.842 16.3823C176.676 16.4507 176.544 16.541 176.446 16.6533C176.349 16.7656 176.3 16.8926 176.3 17.0342C176.3 17.2686 176.427 17.4565 176.681 17.5981C176.935 17.7446 177.274 17.8179 177.699 17.8179ZM178.087 11.6948C178.361 11.6948 178.571 11.5898 178.717 11.3799C178.868 11.1699 178.944 10.855 178.944 10.4351C178.944 10.0054 178.873 9.68311 178.732 9.46826C178.59 9.25342 178.375 9.146 178.087 9.146C177.789 9.146 177.567 9.25342 177.421 9.46826C177.274 9.67822 177.201 9.99561 177.201 10.4204C177.201 10.8452 177.274 11.165 177.421 11.3799C177.567 11.5898 177.789 11.6948 178.087 11.6948Z" fill="#253661"/>
<path d="M61.9253 27.5127C61.5835 27.5127 61.2783 27.5859 61.0098 27.7324C60.7412 27.874 60.5117 28.0815 60.3213 28.355C60.1309 28.6284 59.9844 28.9629 59.8818 29.3584C59.7842 29.749 59.7354 30.1934 59.7354 30.6914C59.7354 31.3652 59.8208 31.9316 59.9917 32.3906C60.1626 32.8496 60.4214 33.1963 60.7681 33.4307C61.1196 33.665 61.5591 33.7822 62.0864 33.7822C62.5649 33.7822 63.0239 33.7163 63.4634 33.5845C63.9077 33.4526 64.3545 33.2939 64.8037 33.1084V35.5547C64.3301 35.7646 63.8442 35.916 63.3462 36.0088C62.853 36.1016 62.3281 36.1479 61.7715 36.1479C60.6094 36.1479 59.6572 35.9185 58.915 35.4595C58.1777 34.9956 57.6333 34.3535 57.2817 33.5332C56.9351 32.7129 56.7617 31.7607 56.7617 30.6768C56.7617 29.8662 56.874 29.124 57.0986 28.4502C57.3281 27.7764 57.6626 27.1929 58.1021 26.6997C58.5415 26.2017 59.0835 25.8184 59.728 25.5498C60.3774 25.2764 61.1196 25.1396 61.9546 25.1396C62.4722 25.1396 63.0166 25.2007 63.5879 25.3228C64.1641 25.4399 64.7256 25.6304 65.2725 25.894L64.3862 28.1719C63.9956 27.9863 63.6001 27.8301 63.1997 27.7031C62.7993 27.5762 62.3745 27.5127 61.9253 27.5127Z" fill="#253661"/>
<path d="M75.2548 31.834C75.2548 32.5273 75.1596 33.1426 74.9691 33.6797C74.7787 34.2168 74.5028 34.6685 74.1415 35.0347C73.7802 35.4009 73.3432 35.6792 72.8305 35.8696C72.3178 36.0552 71.7392 36.1479 71.0946 36.1479C70.494 36.1479 69.9423 36.0552 69.4394 35.8696C68.9413 35.6792 68.5067 35.4009 68.1356 35.0347C67.7646 34.6685 67.4765 34.2168 67.2714 33.6797C67.0712 33.1426 66.9711 32.5273 66.9711 31.834C66.9711 30.916 67.1371 30.1396 67.4691 29.5049C67.8061 28.8701 68.2846 28.3867 68.9047 28.0547C69.5297 27.7227 70.2743 27.5566 71.1386 27.5566C71.9345 27.5566 72.6425 27.7227 73.2626 28.0547C73.8827 28.3867 74.3686 28.8701 74.7201 29.5049C75.0766 30.1396 75.2548 30.916 75.2548 31.834ZM69.8788 31.834C69.8788 32.3076 69.9203 32.708 70.0033 33.0352C70.0863 33.3574 70.2182 33.604 70.3988 33.7749C70.5844 33.9409 70.8261 34.0239 71.1239 34.0239C71.4218 34.0239 71.6586 33.9409 71.8344 33.7749C72.0102 33.604 72.1371 33.3574 72.2152 33.0352C72.2982 32.708 72.3397 32.3076 72.3397 31.834C72.3397 31.3604 72.2982 30.9648 72.2152 30.6475C72.1371 30.3301 72.0077 30.0908 71.8271 29.9297C71.6513 29.7686 71.412 29.688 71.1093 29.688C70.6747 29.688 70.3598 29.8687 70.1645 30.23C69.974 30.5913 69.8788 31.126 69.8788 31.834Z" fill="#253661"/>
<path d="M87.6248 27.5566C88.5721 27.5566 89.2947 27.7983 89.7928 28.2817C90.2957 28.7651 90.5472 29.5391 90.5472 30.6035V36.0015H87.6834V31.4897C87.6834 30.8599 87.5979 30.4229 87.4271 30.1787C87.261 29.9297 87.012 29.8052 86.68 29.8052C86.2161 29.8052 85.8938 30.0078 85.7132 30.4131C85.5374 30.8184 85.4495 31.3921 85.4495 32.1343V36.0015H82.5784V31.4897C82.5784 31.0894 82.5418 30.7671 82.4686 30.5229C82.4002 30.2739 82.2952 30.0933 82.1536 29.981C82.012 29.8638 81.8338 29.8052 81.6189 29.8052C81.2918 29.8052 81.0354 29.9053 80.8499 30.1055C80.6692 30.3008 80.5423 30.5889 80.469 30.9697C80.3958 31.3506 80.3592 31.8169 80.3592 32.3687V36.0015H77.4954V27.7031H79.6561L80.0735 28.7285H80.1541C80.3006 28.5039 80.4886 28.3037 80.7181 28.1279C80.9524 27.9521 81.2283 27.813 81.5457 27.7104C81.868 27.6079 82.2342 27.5566 82.6443 27.5566C83.2547 27.5566 83.7576 27.6592 84.1531 27.8643C84.5486 28.0693 84.8709 28.3525 85.1199 28.7139H85.2078C85.4715 28.3428 85.8108 28.0571 86.2259 27.8569C86.6409 27.6567 87.1072 27.5566 87.6248 27.5566Z" fill="#253661"/>
<path d="M98.1638 27.5566C99.0817 27.5566 99.802 27.9253 100.324 28.6626C100.847 29.395 101.108 30.4521 101.108 31.834C101.108 32.7764 100.976 33.5698 100.713 34.2144C100.449 34.854 100.088 35.3374 99.6286 35.6646C99.1745 35.9868 98.6569 36.1479 98.0759 36.1479C97.6853 36.1479 97.3532 36.0991 97.0798 36.0015C96.8112 35.9038 96.5866 35.7817 96.406 35.6353C96.2302 35.4888 96.0812 35.3398 95.9592 35.1885H95.8713C95.8957 35.3789 95.9152 35.584 95.9299 35.8037C95.9494 36.0234 95.9592 36.2798 95.9592 36.5728V39.605H93.0954V27.7031H95.4245L95.8273 28.7578H95.9592C96.0959 28.543 96.2619 28.3452 96.4572 28.1646C96.6525 27.979 96.8894 27.8325 97.1677 27.7251C97.4509 27.6128 97.7829 27.5566 98.1638 27.5566ZM97.0871 29.8052C96.8088 29.8052 96.5891 29.8711 96.4279 30.0029C96.2668 30.1348 96.1496 30.335 96.0764 30.6035C96.008 30.8672 95.9689 31.1968 95.9592 31.5923V31.8193C95.9592 32.2588 95.9934 32.6299 96.0617 32.9326C96.1301 33.2305 96.2473 33.4575 96.4133 33.6138C96.5793 33.7651 96.8088 33.8408 97.1018 33.8408C97.341 33.8408 97.5412 33.7725 97.7023 33.6357C97.8635 33.499 97.9855 33.2817 98.0686 32.9839C98.1516 32.686 98.1931 32.293 98.1931 31.8047C98.1931 31.0771 98.0979 30.562 97.9074 30.2593C97.7219 29.9565 97.4484 29.8052 97.0871 29.8052Z" fill="#253661"/>
<path d="M107.399 27.5566C108.449 27.5566 109.269 27.8179 109.86 28.3403C110.451 28.8579 110.746 29.5977 110.746 30.5596V36.0015H108.761L108.212 34.9028H108.153C107.919 35.1958 107.677 35.4351 107.428 35.6206C107.184 35.8013 106.903 35.9331 106.586 36.0161C106.269 36.104 105.88 36.1479 105.421 36.1479C104.943 36.1479 104.513 36.0503 104.132 35.855C103.752 35.6597 103.451 35.3643 103.232 34.9688C103.012 34.5732 102.902 34.0728 102.902 33.4673C102.902 32.5786 103.21 31.9194 103.825 31.4897C104.44 31.0601 105.331 30.8184 106.498 30.7646L107.882 30.7207V30.6035C107.882 30.2324 107.79 29.9688 107.604 29.8125C107.423 29.6562 107.179 29.5781 106.872 29.5781C106.545 29.5781 106.178 29.6367 105.773 29.7539C105.373 29.8662 104.97 30.0127 104.565 30.1934L103.737 28.3037C104.215 28.0596 104.757 27.874 105.363 27.7471C105.968 27.6201 106.647 27.5566 107.399 27.5566ZM107.897 32.2954L107.238 32.3247C106.711 32.3442 106.339 32.437 106.125 32.603C105.915 32.7642 105.81 32.9961 105.81 33.2988C105.81 33.582 105.885 33.792 106.037 33.9287C106.188 34.0605 106.388 34.1265 106.637 34.1265C106.984 34.1265 107.279 34.0166 107.524 33.7969C107.773 33.5771 107.897 33.2915 107.897 32.9399V32.2954Z" fill="#253661"/>
<path d="M118.487 27.5566C119.342 27.5566 120.04 27.7983 120.582 28.2817C121.124 28.7651 121.395 29.5391 121.395 30.6035V36.0015H118.531V31.4751C118.531 30.9233 118.451 30.5083 118.29 30.23C118.133 29.9468 117.879 29.8052 117.528 29.8052C116.986 29.8052 116.622 30.0273 116.437 30.4717C116.251 30.9111 116.158 31.5435 116.158 32.3687V36.0015H113.294V27.7031H115.455L115.843 28.8018H115.953C116.129 28.5381 116.339 28.3135 116.583 28.1279C116.827 27.9424 117.108 27.8008 117.425 27.7031C117.743 27.6055 118.097 27.5566 118.487 27.5566Z" fill="#253661"/>
<path d="M122.94 27.7031H125.957L127.364 32.4639C127.383 32.5322 127.403 32.6177 127.422 32.7202C127.442 32.8179 127.459 32.9229 127.474 33.0352C127.488 33.1475 127.498 33.2573 127.503 33.3647H127.561C127.586 33.1646 127.613 32.9912 127.642 32.8447C127.676 32.6934 127.708 32.5713 127.737 32.4785L129.18 27.7031H132.102L128.821 36.5288C128.567 37.2026 128.272 37.7666 127.935 38.2207C127.603 38.6797 127.19 39.0239 126.697 39.2534C126.209 39.4878 125.601 39.605 124.873 39.605C124.61 39.605 124.383 39.5903 124.192 39.561C124.007 39.5366 123.843 39.5098 123.702 39.4805V37.2319C123.809 37.2515 123.941 37.271 124.097 37.2905C124.253 37.3101 124.417 37.3198 124.588 37.3198C124.905 37.3198 125.162 37.2563 125.357 37.1294C125.557 37.0024 125.721 36.834 125.848 36.624C125.975 36.4189 126.084 36.1968 126.177 35.9575L126.206 35.8843L122.94 27.7031Z" fill="#253661"/>
<defs>
<clipPath id="clip0_1203_3468">
<rect width="40" height="40" fill="white"/>
</clipPath>
</defs>
</svg>
