<svg width="24" height="24" viewBox="0 0 24 24" fill="none" xmlns="http://www.w3.org/2000/svg">
<g clip-path="url(#clip0_1203_3516)">
<path fill-rule="evenodd" clip-rule="evenodd" d="M3.34306 0.859375C1.75357 0.859375 0.599609 1.95584 0.599609 3.46545C0.599609 4.97455 1.73067 6.06999 3.28811 6.06999C4.09608 6.06999 4.79212 5.80796 5.30143 5.31239C5.78988 4.83666 6.05903 4.18082 6.05852 3.45375C6.02291 1.92633 4.90609 0.859375 3.34306 0.859375ZM4.59216 4.58328C4.27671 4.89009 3.8254 5.0524 3.28811 5.0524C2.3046 5.0524 1.61721 4.40011 1.61721 3.46545C1.61721 2.51552 2.3107 1.87697 3.34306 1.87697C4.35201 1.87697 5.01854 2.50534 5.04143 3.46596C5.04092 3.90454 4.88167 4.3009 4.59216 4.58328ZM1.18416 23.7426H5.75726V6.92935H1.18416V23.7426ZM2.20176 7.94695H4.73966V22.7245H2.20176V7.94695ZM12.964 8.34992C13.716 7.66152 15.0145 6.92935 17.1352 6.92935C20.1518 6.92935 23.399 9.21794 23.399 14.2439V23.7432H18.311V15.1577C18.311 13.559 17.0939 12.2082 15.6535 12.2082C14.4029 12.2082 13.5771 12.2082 12.965 13.5265C12.8684 13.7351 12.7142 14.5252 12.7142 14.9058V23.7421H7.64705V6.92935H12.821L12.964 8.34992ZM19.3286 22.725H22.3814V14.2423C22.3814 9.91652 19.6619 7.94644 17.1352 7.94644C14.5036 7.94644 13.4306 9.21743 13.0912 9.76388L12.9421 10.0045H12.1082L11.9006 7.94695H8.66465V22.725H11.6961V14.9058C11.6961 14.4372 11.8589 13.4924 12.0416 13.098C12.9274 11.19 14.3754 11.19 15.6535 11.19C17.6455 11.19 19.3286 13.0065 19.3286 15.1572V22.725Z" fill="#173773"/>
</g>
<defs>
<clipPath id="clip0_1203_3516">
<rect width="24" height="24" fill="white"/>
</clipPath>
</defs>
</svg>
