<svg width="24" height="24" viewBox="0 0 24 24" fill="none" xmlns="http://www.w3.org/2000/svg">
<path d="M22.6164 5.95099C22.7401 5.76599 22.7267 5.5215 22.5834 5.35119C22.4401 5.18088 22.2016 5.12576 21.9981 5.21597C21.8329 5.28922 21.6648 5.35692 21.4939 5.41888C21.759 5.03988 21.9694 4.61963 22.1134 4.16927C22.1767 3.9715 22.1111 3.75521 21.9487 3.62585C21.7863 3.49648 21.5608 3.48097 21.3822 3.58687C20.6949 3.99437 19.941 4.30098 19.1408 4.48653C18.3018 3.69608 17.1682 3.21094 15.9245 3.21094C13.3371 3.21094 11.2391 5.30816 11.2391 7.89523C11.2391 8.03204 11.2449 8.16769 11.2563 8.30191C8.17778 7.98095 5.46393 6.43645 3.60843 4.16091C3.50479 4.0338 3.3454 3.9656 3.18189 3.97841C3.01839 3.99121 2.87156 4.08338 2.78896 4.22507C2.38535 4.91744 2.15427 5.72284 2.15427 6.58052C2.15427 7.51842 2.42996 8.39255 2.90456 9.12549C2.89072 9.11803 2.87694 9.1105 2.86322 9.10287C2.70968 9.01761 2.52267 9.01915 2.37056 9.10692C2.21845 9.1947 2.12354 9.35585 2.12054 9.53144C2.12017 9.55322 2.12017 9.57441 2.12017 9.59106V9.59259C2.12017 11.0968 2.82925 12.4351 3.93124 13.2923C3.84846 13.3195 3.77284 13.3683 3.71311 13.4357C3.59612 13.5678 3.55741 13.7518 3.61123 13.9198C4.07398 15.3643 5.21966 16.5037 6.66843 16.959C5.52394 17.5995 4.20458 17.9644 2.79918 17.9644C2.48091 17.9644 2.1673 17.9458 1.85939 17.9095C1.62806 17.8822 1.40853 18.0182 1.33003 18.2375C1.25153 18.4568 1.33486 18.7013 1.53096 18.827C3.46063 20.0639 5.75375 20.7859 8.2165 20.7859C16.2482 20.7859 20.6244 14.125 20.6244 8.38045C20.6244 8.28127 20.6233 8.18234 20.621 8.08367C21.3964 7.48758 22.0724 6.76458 22.6164 5.95099Z" stroke="#173773" stroke-linejoin="round"/>
</svg>
