<svg width="24" height="24" viewBox="0 0 24 24" fill="none" xmlns="http://www.w3.org/2000/svg">
<g clip-path="url(#clip0_1203_3521)">
<path fill-rule="evenodd" clip-rule="evenodd" d="M2.14592 0.75H22.1541C22.9238 0.75 23.55 1.37621 23.55 2.14592V22.1541C23.55 22.9238 22.9238 23.55 22.1541 23.55H2.14592C1.37621 23.55 0.75 22.9238 0.75 22.1541V2.14592C0.75 1.37621 1.37621 0.75 2.14592 0.75ZM22.1541 22.6194C22.4107 22.6194 22.6194 22.4107 22.6194 22.1541V2.14592C22.6194 1.88935 22.4107 1.68061 22.1541 1.68061H2.14592C1.88935 1.68061 1.68061 1.88935 1.68061 2.14592V22.1541C1.68061 22.4107 1.88935 22.6194 2.14592 22.6194H22.1541ZM13.2672 3.25C12.8461 3.25 11.3624 3.32785 10.1754 4.41989L10.1754 4.41991C9.53954 5.00494 9.23451 5.53635 9.11178 6.06716C9.02467 6.44389 9.0379 6.82573 9.04816 7.122C9.05112 7.20726 9.05382 7.28543 9.05382 7.35436V8.90027H7.62058C7.19475 8.90027 6.84961 9.24542 6.84961 9.67124V12.4267C6.84961 12.8524 7.19462 13.1977 7.62058 13.1977H8.96213V20.279C8.96213 20.7049 9.30727 21.05 9.7331 21.05H12.8555C13.2813 21.05 13.6265 20.7049 13.6265 20.279V13.2334H15.2435C15.6352 13.2334 15.9646 12.9396 16.0094 12.5506L16.0094 12.5505L16.3309 9.75952L16.3309 9.75943C16.356 9.54126 16.2869 9.32242 16.1405 9.1582L16.1405 9.15818C15.9943 8.99428 15.785 8.90033 15.5651 8.90033H13.6266V7.65074C13.6266 7.47389 13.6726 7.42782 13.6814 7.41954C13.6957 7.40608 13.7622 7.35589 13.9707 7.35589H13.9712H13.9717H13.9723H13.9728H13.9735H13.9741H13.9748H13.9755H13.9762H13.977H13.9778H13.9786H13.9795H13.9804H13.9813H13.9823H13.9833H13.9843H13.9854H13.9865H13.9876H13.9887H13.9899H13.9911H13.9923H13.9936H13.9949H13.9962H13.9975H13.9989H14.0003H14.0018H14.0032H14.0047H14.0062H14.0078H14.0094H14.011H14.0126H14.0143H14.016H14.0177H14.0194H14.0212H14.023H14.0248H14.0267H14.0286H14.0305H14.0324H14.0344H14.0363H14.0383H14.0404H14.0424H14.0445H14.0466H14.0488H14.0509H14.0531H14.0553H14.0576H14.0598H14.0621H14.0644H14.0668H14.0691H14.0715H14.0739H14.0764H14.0788H14.0813H14.0838H14.0863H14.0889H14.0914H14.094H14.0967H14.0993H14.102H14.1046H14.1073H14.1101H14.1128H14.1156H14.1184H14.1212H14.124H14.1269H14.1298H14.1327H14.1356H14.1385H14.1415H14.1445H14.1475H14.1505H14.1536H14.1566H14.1597H14.1628H14.1659H14.1691H14.1722H14.1754H14.1786H14.1818H14.1851H14.1883H14.1916H14.1949H14.1982H14.2015H14.2049H14.2082H14.2116H14.215H14.2184H14.2218H14.2253H14.2288H14.2322H14.2358H14.2393H14.2428H14.2464H14.2499H14.2535H14.2571H14.2607H14.2643H14.268H14.2717H14.2753H14.279H14.2827H14.2865H14.2902H14.2939H14.2977H14.3015H14.3053H14.3091H14.3129H14.3167H14.3206H14.3245H14.3283H14.3322H14.3361H14.34H14.344H14.3479H14.3519H14.3558H14.3598H14.3638H14.3678H14.3718H14.3759H14.3799H14.384H14.388H14.3921H14.3962H14.4003H14.4044H14.4085H14.4126H14.4168H14.4209H14.4251H14.4293H14.4334H14.4376H14.4418H14.446H14.4503H14.4545H14.4587H14.463H14.4672H14.4715H14.4758H14.48H14.4843H14.4886H14.4929H14.4973H14.5016H14.5059H14.5103H14.5146H14.519H14.5233H14.5277H14.5321H14.5364H14.5408H14.5452H14.5496H14.554H14.5584H14.5629H14.5673H14.5717H14.5762H14.5806H14.5851H14.5895H14.594H14.5984H14.6029H14.6074H14.6119H14.6163H14.6208H14.6253H14.6298H14.6343H14.6388H14.6433H14.6478H14.6523H14.6569H14.6614H14.6659H14.6704H14.675H14.6795H14.684H14.6886H14.6931H14.6976H14.7022H14.7067H14.7113H14.7158H14.7204H14.7249H14.7295H14.734H14.7386H14.7432H14.7477H14.7523H14.7568H14.7614H14.7659H14.7705H14.775H14.7796H14.7842H14.7887H14.7933H14.7978H14.8024H14.8069H14.8115H14.816H14.8206H14.8251H14.8297H14.8342H14.8388H14.8433H14.8478H14.8524H14.8569H14.8614H14.866H14.8705H14.875H14.8795H14.884H14.8885H14.8931H14.8976H14.9021H14.9066H14.9111H14.9155H14.92H14.9245H14.929H14.9334H14.9379H14.9424H14.9468H14.9513H14.9557H14.9602H14.9646H14.969H14.9734H14.9779H14.9823H14.9867H14.9911H14.9955H14.9998H15.0042H15.0086H15.0129H15.0173H15.0216H15.026H15.0303H15.0346H15.039H15.0433H15.0476H15.0519H15.0561H15.0604H15.0647H15.0689H15.0732H15.0774H15.0817H15.0859H15.0901H15.0943H15.0985H15.1027H15.1068H15.111H15.1152H15.1193H15.1234H15.1275H15.1317H15.1358H15.1398H15.1439H15.148H15.152H15.1561H15.1601H15.1641H15.1681H15.1721H15.1761H15.1801H15.184H15.188H15.1919H15.1958H15.1997H15.2036H15.2075H15.2114H15.2152H15.2191H15.2229H15.2267H15.2305H15.2343H15.238H15.2418H15.2455H15.2493H15.253H15.2567H15.2603H15.264H15.2677H15.2713H15.2749H15.2785H15.2821H15.2857H15.2892H15.2927H15.2963H15.2998H15.3033H15.3067H15.3102H15.3136H15.317H15.3204H15.3238H15.3272H15.3305H15.3339H15.3372H15.3405H15.3437H15.347H15.3502H15.3535H15.3567H15.3598H15.363H15.3661H15.3693H15.3724H15.3755H15.3785H15.3816H15.3846H15.3876H15.3906H15.3936H15.3965H15.3994H15.4023H15.4052H15.4081H15.4109H15.4137H15.4165H15.4193H15.4221H15.4248H15.4275H15.4302H15.4328H15.4355H15.4381H15.4407H15.4433H15.4458H15.4484H15.4509H15.4533H15.4558H15.4582H15.4606H15.463H15.4654H15.4677H15.4701H15.4723H15.4746H15.4769H15.4791H15.4813H15.4834H15.4856H15.4877H15.4898H15.4918H15.4939H15.4959H15.4979H15.4998H15.5018H15.5037H15.5056H15.5074H15.5093H15.5111H15.5128H15.5146H15.5163H15.518H15.5197H15.5213H15.5229H15.5245H15.526H15.5276H15.5291H15.5305H15.532H15.5334H15.5348H15.5361H15.5375H15.5388H15.54H15.5413H15.5425H15.5436H15.5448H15.5459H15.547H15.548H15.5491H15.5501H15.551H15.552H15.5529H15.5537H15.5546H15.5554H15.5562H15.5569H15.5576H15.5583H15.559H15.5596H15.5602H15.5607H15.5613H15.5617H15.5622H15.5626H15.563H15.5634H15.5637H15.564H15.5642H15.5645H15.5646H15.5648H15.5649H15.565H15.5651L15.5651 6.85589V7.35589C15.991 7.35589 16.336 7.01062 16.336 6.58492V4.02297C16.336 3.59715 15.9909 3.25201 15.5651 3.25201H13.3788C13.3537 3.251 13.316 3.25 13.2672 3.25ZM15.5651 6.35589V6.58492L15.5651 6.35589H15.5651ZM15.336 4.25201V6.35589L10.8525 5.15581C11.759 4.32184 12.9257 4.25 13.2672 4.25C13.31 4.25 13.3363 4.25106 13.3434 4.25141L13.3556 4.25201H13.3678H15.336ZM15.3339 6.35589H15.336L10.8524 5.15583C10.3284 5.63797 10.1534 6.00113 10.0861 6.29243C10.0311 6.53016 10.0376 6.7276 10.0463 6.98792C10.0499 7.0966 10.0538 7.21625 10.0538 7.35436V9.40027V9.90027H9.55382H7.84961V12.1977H9.46213H9.96213V12.6977V20.05H12.6265V12.7334V12.2334H13.1265H15.0393L15.3081 9.90033H13.1266H12.6266V9.40033V7.65074C12.6266 7.30019 12.7226 6.94883 12.9958 6.69153C13.2635 6.43942 13.6191 6.35589 13.9707 6.35589H13.9712H13.9717H13.9723H13.9728H13.9735H13.9741H13.9748H13.9755H13.9762H13.977H13.9778H13.9786H13.9795H13.9804H13.9813H13.9823H13.9833H13.9843H13.9854H13.9865H13.9876H13.9887H13.9899H13.9911H13.9923H13.9936H13.9949H13.9962H13.9975H13.9989H14.0003H14.0018H14.0032H14.0047H14.0062H14.0078H14.0094H14.011H14.0126H14.0143H14.016H14.0177H14.0194H14.0212H14.023H14.0248H14.0267H14.0286H14.0305H14.0324H14.0344H14.0363H14.0383H14.0404H14.0424H14.0445H14.0466H14.0488H14.0509H14.0531H14.0553H14.0576H14.0598H14.0621H14.0644H14.0668H14.0691H14.0715H14.0739H14.0764H14.0788H14.0813H14.0838H14.0863H14.0889H14.0914H14.094H14.0967H14.0993H14.102H14.1046H14.1073H14.1101H14.1128H14.1156H14.1184H14.1212H14.124H14.1269H14.1298H14.1327H14.1356H14.1385H14.1415H14.1445H14.1475H14.1505H14.1536H14.1566H14.1597H14.1628H14.1659H14.1691H14.1722H14.1754H14.1786H14.1818H14.1851H14.1883H14.1916H14.1949H14.1982H14.2015H14.2049H14.2082H14.2116H14.215H14.2184H14.2218H14.2253H14.2288H14.2322H14.2358H14.2393H14.2428H14.2464H14.2499H14.2535H14.2571H14.2607H14.2643H14.268H14.2717H14.2753H14.279H14.2827H14.2865H14.2902H14.2939H14.2977H14.3015H14.3053H14.3091H14.3129H14.3167H14.3206H14.3245H14.3283H14.3322H14.3361H14.34H14.344H14.3479H14.3519H14.3558H14.3598H14.3638H14.3678H14.3718H14.3759H14.3799H14.384H14.388H14.3921H14.3962H14.4003H14.4044H14.4085H14.4126H14.4168H14.4209H14.4251H14.4293H14.4334H14.4376H14.4418H14.446H14.4503H14.4545H14.4587H14.463H14.4672H14.4715H14.4758H14.48H14.4843H14.4886H14.4929H14.4973H14.5016H14.5059H14.5103H14.5146H14.519H14.5233H14.5277H14.5321H14.5364H14.5408H14.5452H14.5496H14.554H14.5584H14.5629H14.5673H14.5717H14.5762H14.5806H14.5851H14.5895H14.594H14.5984H14.6029H14.6074H14.6119H14.6163H14.6208H14.6253H14.6298H14.6343H14.6388H14.6433H14.6478H14.6523H14.6569H14.6614H14.6659H14.6704H14.675H14.6795H14.684H14.6886H14.6931H14.6976H14.7022H14.7067H14.7113H14.7158H14.7204H14.7249H14.7295H14.734H14.7386H14.7432H14.7477H14.7523H14.7568H14.7614H14.7659H14.7705H14.775H14.7796H14.7842H14.7887H14.7933H14.7978H14.8024H14.8069H14.8115H14.816H14.8206H14.8251H14.8297H14.8342H14.8388H14.8433H14.8478H14.8524H14.8569H14.8614H14.866H14.8705H14.875H14.8795H14.884H14.8885H14.8931H14.8976H14.9021H14.9066H14.9111H14.9155H14.92H14.9245H14.929H14.9334H14.9379H14.9424H14.9468H14.9513H14.9557H14.9602H14.9646H14.969H14.9734H14.9779H14.9823H14.9867H14.9911H14.9955H14.9998H15.0042H15.0086H15.0129H15.0173H15.0216H15.026H15.0303H15.0346H15.039H15.0433H15.0476H15.0519H15.0561H15.0604H15.0647H15.0689H15.0732H15.0774H15.0817H15.0859H15.0901H15.0943H15.0985H15.1027H15.1068H15.111H15.1152H15.1193H15.1234H15.1275H15.1317H15.1358H15.1398H15.1439H15.148H15.152H15.1561H15.1601H15.1641H15.1681H15.1721H15.1761H15.1801H15.184H15.188H15.1919H15.1958H15.1997H15.2036H15.2075H15.2114H15.2152H15.2191H15.2229H15.2267H15.2305H15.2343H15.238H15.2418H15.2455H15.2493H15.253H15.2567H15.2603H15.264H15.2677H15.2713H15.2749H15.2785H15.2821H15.2857H15.2892H15.2927H15.2963H15.2998H15.3033H15.3067H15.3102H15.3136H15.317H15.3204H15.3238H15.3272H15.3305H15.3339Z" fill="#173773"/>
</g>
<defs>
<clipPath id="clip0_1203_3521">
<rect width="24" height="24" fill="white"/>
</clipPath>
</defs>
</svg>
