<svg width="24" height="24" viewBox="0 0 24 24" fill="none" xmlns="http://www.w3.org/2000/svg">
<g clip-path="url(#clip0_1203_3510)">
<path fill-rule="evenodd" clip-rule="evenodd" d="M13 2.16274C12.7003 2.16237 12.3689 2.16221 12 2.16221C12.3689 2.16221 12.7003 2.16237 13 2.16274ZM3.0452 4.13954C3.0452 4.13954 3.0452 4.13954 3.04519 4.13954C3.03612 4.15306 3.02715 4.16664 3.01827 4.18029M20.8106 3.18942C20.341 2.71987 19.8823 2.42178 19.2584 2.17927C18.7858 1.99566 18.0969 1.78857 16.8718 1.73265C16.5434 1.71767 16.2739 1.70574 16 1.69627C15.4866 1.67853 14.9583 1.66947 14 1.6653C13.7099 1.66403 13.3804 1.66322 13 1.66274C12.7002 1.66237 12.3687 1.66221 12 1.66221C8.79369 1.66221 8.4051 1.67439 7.12813 1.73265C5.90306 1.78857 5.21422 1.99565 4.74162 2.17927C4.11764 2.42177 3.65893 2.71987 3.18937 3.18942C2.97331 3.40548 2.78972 3.62291 2.63 3.86096C2.44911 4.13055 2.30561 4.41648 2.17926 4.74164C1.99558 5.21431 1.78852 5.90312 1.7326 7.12823C1.67434 8.40516 1.66216 8.79374 1.66216 12C1.66216 15.2063 1.67434 15.5949 1.73261 16.8719C1.78852 18.0969 1.99559 18.7857 2.17926 19.2584C2.42172 19.8824 2.71982 20.3411 3.18937 20.8106C3.65892 21.2802 4.11763 21.5783 4.74162 21.8207C5.21425 22.0044 5.90307 22.2115 7.12817 22.2674C8.40492 22.3257 8.7935 22.3378 12 22.3378C15.2065 22.3378 15.595 22.3257 16.8718 22.2674C18.0969 22.2115 18.7857 22.0044 19.2584 21.8207C19.8823 21.5783 20.341 21.2802 20.8106 20.8106C21.2801 20.3411 21.5782 19.8824 21.8207 19.2584C22.0044 18.7857 22.2114 18.0969 22.2673 16.8718C22.3256 15.5949 22.3378 15.2063 22.3378 12C22.3378 8.79374 22.3256 8.40515 22.2673 7.12817C22.2114 5.90311 22.0044 5.2143 21.8207 4.74164C21.5782 4.11769 21.2801 3.65897 20.8106 3.18942ZM2.36762 2.36766C2.98225 1.75303 3.59149 1.37941 4.32061 1.09605C5.02733 0.821392 5.8453 0.627834 7.0752 0.571694C8.34372 0.513815 8.74339 0.5 12 0.5C15.2566 0.5 15.6563 0.513815 16.9247 0.571693C18.1546 0.627834 18.9726 0.821392 19.6793 1.09605C20.4085 1.37941 21.0177 1.75303 21.6323 2.36766C22.247 2.9823 22.6206 3.59154 22.9039 4.32066C23.1786 5.02738 23.3722 5.84535 23.4283 7.07525C23.4862 8.34372 23.5 8.74344 23.5 12C23.5 15.2566 23.4862 15.6563 23.4283 16.9248C23.3722 18.1547 23.1786 18.9727 22.9039 19.6794C22.6206 20.4085 22.247 21.0177 21.6323 21.6324C21.0177 22.247 20.4085 22.6206 19.6793 22.904C18.9726 23.1787 18.1546 23.3722 16.9247 23.4284C15.6563 23.4862 15.2566 23.5 12 23.5C8.74337 23.5 8.34371 23.4862 7.07521 23.4284C5.84531 23.3722 5.02734 23.1787 4.32062 22.904C3.5915 22.6206 2.98226 22.247 2.36762 21.6324C1.75299 21.0177 1.37936 20.4085 1.096 19.6794C0.821342 18.9727 0.627786 18.1547 0.571646 16.9248C0.513768 15.6563 0.5 15.2566 0.5 12C0.5 8.74342 0.513768 8.34371 0.571646 7.07526C0.627786 5.84535 0.821344 5.02738 1.096 4.32066C1.37936 3.59154 1.75298 2.9823 2.36762 2.36766ZM6.33779 12C6.33779 8.8729 8.87285 6.33784 12 6.33784C13.2605 6.33784 14.4248 6.74973 15.3656 7.44626C16.7589 8.47773 17.6622 10.1334 17.6622 12C17.6622 15.1271 15.1271 17.6622 12 17.6622C10.7395 17.6622 9.5752 17.2503 8.63435 16.5538C7.24106 15.5223 6.33779 13.8667 6.33779 12ZM9.32515 15.6191C10.0729 16.1727 10.9982 16.5 12 16.5C14.4852 16.5 16.5 14.4853 16.5 12C16.5 10.5165 15.7821 9.20069 14.6748 8.38093C13.9271 7.82735 13.0018 7.5 12 7.5C9.51471 7.5 7.49995 9.51476 7.49995 12C7.49995 13.4835 8.21783 14.7994 9.32515 15.6191ZM19.3456 5.59438C19.3456 6.11356 18.9248 6.53441 18.4056 6.53441C17.8865 6.53441 17.4656 6.11354 17.4656 5.59438C17.4656 5.07525 17.8864 4.65441 18.4056 4.65441C18.9248 4.65441 19.3456 5.07523 19.3456 5.59438Z" fill="#173773"/>
</g>
<defs>
<clipPath id="clip0_1203_3510">
<rect width="24" height="24" fill="white"/>
</clipPath>
</defs>
</svg>
