<svg width="176" height="40" viewBox="0 0 176 40" fill="none" xmlns="http://www.w3.org/2000/svg">
<path fill-rule="evenodd" clip-rule="evenodd" d="M18.996 1.04623L18.2414 0.596255L17.2414 0C17.2414 0 16.9201 0.194932 16.3856 0.517878L16.2414 0.605011C14.5668 1.61634 11.1374 3.67944 8.68067 5.10436C6.4971 6.37083 4.92042 7.24963 3.15702 8.2325L3.15628 8.23292C2.44281 8.63059 1.69876 9.0453 0.871563 9.50963C0.591269 9.66697 0.30143 9.83 0 10L1.14066e-05 12.0069L5.68365e-05 20L6.57048e-06 28.844L0 30L1.01054 30.5699L8.68067 34.8956L15.4867 38.9538L16.2414 39.4037L17.2414 40L18.1004 39.4878L18.2414 39.4037L25.8021 34.8956L33.4722 30.5699L33.6117 30.4912L34.4828 30V28.844V27.9931V11.156V10L33.4722 9.43009L25.8021 5.10436L18.996 1.04623ZM31.4651 10.5942L24.8196 6.84642L24.7986 6.83455L24.7778 6.82218L21.0319 4.58867L26.2288 13.6313L31.4651 10.5942ZM24.4987 14.6347L18.2414 3.74689V18.264L24.4987 14.6347ZM16.2414 19.424V2.94046C15.9341 3.12545 15.6022 3.32503 15.2529 3.53467C13.532 4.56762 11.3812 5.8501 9.6841 6.83443C7.48715 8.10866 5.88626 9.00099 4.11228 9.9898C3.44617 10.3611 2.75565 10.746 2.00001 11.1698L2.00001 11.4731L8.98744 23.6313L16.2414 19.424ZM9.98401 25.3653L16.2414 21.736V36.2531L9.98401 25.3653ZM7.25736 24.6347L2.00003 15.4869L2.00006 20L2.00001 27.684L7.25736 24.6347ZM3.01771 29.4058L8.25394 26.3687L13.4508 35.4113L9.70493 33.1778L9.68418 33.1654L9.66313 33.1536L3.01771 29.4058ZM18.2414 37.0752L24.7778 33.1778L24.7986 33.1654L24.8196 33.1536L31.4651 29.4058L18.2414 21.736V37.0752ZM19.2345 20L25.4953 16.3687L31.7561 27.2625L19.2345 20ZM32.4828 24.5131L27.2254 15.3653L32.4828 12.316V24.5131ZM53.3894 29.2766C51.9258 29.2766 50.5247 29.0714 49.186 28.6608C47.8473 28.2325 46.7853 27.6881 46 27.0277L47.2048 24.3236C47.9544 24.9126 48.8826 25.4035 49.9892 25.7961C51.0958 26.1888 52.2292 26.3851 53.3894 26.3851C54.3711 26.3851 55.1653 26.278 55.7722 26.0639C56.379 25.8497 56.8253 25.5641 57.1108 25.2071C57.3964 24.8323 57.5392 24.4128 57.5392 23.9488C57.5392 23.3776 57.3339 22.9225 56.9234 22.5834C56.5129 22.2264 55.9774 21.9497 55.317 21.7534C54.6745 21.5392 53.9516 21.3429 53.1484 21.1644C52.3631 20.9859 51.5688 20.7806 50.7656 20.5486C49.9803 20.2987 49.2574 19.9864 48.597 19.6115C47.9544 19.2189 47.4279 18.7013 47.0174 18.0587C46.6069 17.4161 46.4016 16.5951 46.4016 15.5956C46.4016 14.5782 46.6693 13.6501 47.2048 12.8112C47.7581 11.9544 48.5881 11.2762 49.6947 10.7764C50.8192 10.2588 52.2381 10 53.9516 10C55.0761 10 56.1916 10.1428 57.2982 10.4284C58.4049 10.7139 59.3687 11.1245 60.1897 11.6599L59.092 14.364C58.2532 13.8642 57.3875 13.4984 56.4951 13.2663C55.6026 13.0164 54.7459 12.8915 53.9248 12.8915C52.961 12.8915 52.1757 13.0075 51.5688 13.2395C50.9798 13.4716 50.5425 13.775 50.2569 14.1498C49.9892 14.5247 49.8553 14.953 49.8553 15.4349C49.8553 16.0061 50.0517 16.4702 50.4443 16.8271C50.8549 17.1663 51.3814 17.434 52.0239 17.6303C52.6843 17.8267 53.4161 18.023 54.2193 18.2193C55.0225 18.3978 55.8168 18.6031 56.6021 18.8351C57.4053 19.0672 58.1282 19.3706 58.7708 19.7454C59.4312 20.1202 59.9577 20.6289 60.3504 21.2715C60.7609 21.914 60.9662 22.7261 60.9662 23.7078C60.9662 24.7074 60.6895 25.6355 60.1362 26.4922C59.6007 27.3311 58.7708 28.0094 57.6463 28.527C56.5218 29.0267 55.1029 29.2766 53.3894 29.2766ZM70.1468 29.1963C68.9331 29.1963 67.8622 28.9732 66.9341 28.527C66.0059 28.0629 65.283 27.3668 64.7654 26.4387C64.2478 25.4927 63.989 24.3058 63.989 22.8779V14.7121H67.3356V22.4227C67.3356 23.7078 67.6212 24.6717 68.1924 25.3142C68.7814 25.9389 69.6114 26.2513 70.6823 26.2513C71.4676 26.2513 72.1459 26.0906 72.717 25.7694C73.306 25.4481 73.7612 24.9662 74.0825 24.3236C74.4216 23.681 74.5911 22.8868 74.5911 21.9408V14.7121H77.9378V29.0089H74.7518V27.1957C74.3324 27.7159 73.8148 28.1418 73.199 28.4734C72.2708 28.9553 71.2534 29.1963 70.1468 29.1963ZM84.9166 33.8548C86.1838 34.2118 87.4779 34.3903 88.7987 34.3903C91.2975 34.3903 93.2073 33.7745 94.5281 32.5429C95.8489 31.3292 96.5093 29.4283 96.5093 26.8403V14.7121H93.3233V16.6201C92.851 16.049 92.2887 15.6004 91.6366 15.2743C90.6728 14.7924 89.584 14.5514 88.3703 14.5514C87.0138 14.5514 85.7822 14.837 84.6756 15.4082C83.5868 15.9793 82.7212 16.7825 82.0786 17.8177C81.4539 18.853 81.1416 20.0578 81.1416 21.4321C81.1416 22.8243 81.4539 24.038 82.0786 25.0732C82.7212 26.1085 83.5868 26.9206 84.6756 27.5096C85.7822 28.0808 87.0138 28.3663 88.3703 28.3663C89.584 28.3663 90.6728 28.1254 91.6366 27.6435C92.2163 27.3429 92.725 26.9487 93.1627 26.4608V27.2151C93.1627 28.6608 92.7968 29.7407 92.065 30.4546C91.3332 31.1864 90.1819 31.5523 88.6113 31.5523C87.6296 31.5523 86.6568 31.3917 85.693 31.0704C84.747 30.767 83.9617 30.3565 83.337 29.8389L81.8377 32.3555C82.6409 33.0159 83.6672 33.5157 84.9166 33.8548ZM91.1279 25.0197C90.4675 25.3588 89.7179 25.5284 88.879 25.5284C88.0401 25.5284 87.2815 25.3588 86.6033 25.0197C85.9429 24.6627 85.4253 24.1808 85.0504 23.574C84.6935 22.9493 84.515 22.2353 84.515 21.4321C84.515 20.6289 84.6935 19.9239 85.0504 19.317C85.4253 18.6923 85.9429 18.2193 86.6033 17.8981C87.2815 17.5589 88.0401 17.3894 88.879 17.3894C89.7179 17.3894 90.4675 17.5589 91.1279 17.8981C91.7883 18.2193 92.297 18.6923 92.654 19.317C93.0288 19.9239 93.2162 20.6289 93.2162 21.4321C93.2162 22.2353 93.0288 22.9493 92.654 23.574C92.297 24.1808 91.7883 24.6627 91.1279 25.0197ZM109.717 29.0089V27.274C109.385 27.7717 108.93 28.1805 108.352 28.5002C107.531 28.9643 106.487 29.1963 105.22 29.1963C104.149 29.1963 103.212 29.0178 102.408 28.6608C101.605 28.286 100.98 27.7773 100.534 27.1348C100.106 26.4744 99.8917 25.7337 99.8917 24.9126C99.8917 24.1094 100.079 23.3865 100.454 22.744C100.847 22.1014 101.48 21.5927 102.355 21.2179C103.229 20.8431 104.39 20.6557 105.835 20.6557H109.53V20.4415C109.53 19.4598 109.236 18.7013 108.647 18.1658C108.058 17.6125 107.165 17.3358 105.969 17.3358C105.166 17.3358 104.372 17.4608 103.586 17.7107C102.819 17.9605 102.167 18.3086 101.632 18.7548L100.32 16.3184C101.088 15.7294 101.998 15.2921 103.051 15.0066C104.122 14.7031 105.228 14.5514 106.371 14.5514C108.441 14.5514 110.039 15.0512 111.163 16.0507C112.306 17.0324 112.877 18.5585 112.877 20.6289V29.0089H109.717ZM109.53 22.8779V24.5378C109.244 25.2696 108.771 25.8229 108.111 26.1977C107.469 26.5725 106.737 26.76 105.916 26.76C105.059 26.76 104.39 26.5815 103.908 26.2245C103.426 25.8675 103.185 25.3856 103.185 24.7787C103.185 24.2433 103.381 23.7971 103.774 23.4401C104.166 23.0653 104.934 22.8779 106.076 22.8779H109.53ZM117.172 14.7121V29.0089H120.518V22.0747C120.518 20.6111 120.893 19.5134 121.643 18.7816C122.392 18.0319 123.401 17.6571 124.668 17.6571C124.793 17.6571 124.918 17.666 125.043 17.6839C125.168 17.6839 125.302 17.7017 125.445 17.7374V14.5514C124.07 14.5514 122.919 14.8013 121.991 15.3011C121.313 15.6734 120.768 16.1744 120.358 16.8042V14.7121H117.172ZM167.531 14.817V13.3326L170.878 10.5245V14.817H174.707V17.4944H170.878V24.2947C170.878 24.7633 170.959 25.1594 171.121 25.4831V29.0823C170.18 28.912 169.412 28.5478 168.816 27.9894C167.96 27.1684 167.531 25.9636 167.531 24.375V17.4944H165.175V14.817H167.531ZM126.365 29.0068L134.799 10.2656H138.226L146.686 29.0068H143.045L141.182 24.6695H131.809L129.953 29.0068H126.365ZM136.487 13.7368L140.009 21.9387H132.977L136.487 13.7368ZM156.86 14.5493C158.003 14.5493 159.02 14.7724 159.913 15.2186C160.823 15.6649 161.537 16.352 162.054 17.2802C162.572 18.1905 162.831 19.3685 162.831 20.8142V29.0068H159.484V21.2426C159.484 19.9753 159.181 19.0294 158.574 18.4046C157.985 17.7799 157.155 17.4676 156.084 17.4676C155.299 17.4676 154.603 17.6282 153.996 17.9495C153.389 18.2708 152.916 18.7527 152.577 19.3952C152.255 20.02 152.095 20.8142 152.095 21.7781V29.0068H148.748V14.71H151.934V16.5625C152.369 16.0444 152.904 15.6232 153.541 15.299C154.504 14.7992 155.611 14.5493 156.86 14.5493ZM175.583 25.6641H172.236V29.0107H175.583V25.6641Z" fill="#173773"/>
</svg>
