<svg width="176" height="40" viewBox="0 0 176 40" fill="none" xmlns="http://www.w3.org/2000/svg">
<path fill-rule="evenodd" clip-rule="evenodd" d="M17.3205 40L13.8562 31.4284L10.3923 27.9999L6.49248 29.6879L4.33008 32.5L8.66021 35L17.3205 40Z" fill="#82005A"/>
<path fill-rule="evenodd" clip-rule="evenodd" d="M10.3926 27.9999L17.3207 40L18.9359 29.3775L17.3207 22.8571L13.8831 24.0001L10.3926 27.9999Z" fill="#F99C00"/>
<path fill-rule="evenodd" clip-rule="evenodd" d="M0 30L5.35794 27.904L8.66023 24.9998L7.73309 17.106L0 9.99983V19.9999V30Z" fill="#C2005F"/>
<path fill-rule="evenodd" clip-rule="evenodd" d="M0 10.004L8.66023 25.0039L13.8829 24.0041L17.3205 20.004L19.0209 12.2082L17.3205 0.00418472L8.66023 5.00407L0 10.004Z" fill="#F05103"/>
<path fill-rule="evenodd" clip-rule="evenodd" d="M17.3184 0.000165939V20L22.0891 18.9286L25.9783 15.0001L24.0893 9.26429L17.3184 0.000165939Z" fill="#06A3D6"/>
<path fill-rule="evenodd" clip-rule="evenodd" d="M17.3184 4.3869e-05L25.9783 15L29.1164 14.099L34.6389 9.99981L25.9786 4.99993L17.3184 4.3869e-05Z" fill="#00B1EF"/>
<path d="M17.3184 40V22.8571L26.5516 15.9323L34.6389 30.0001L25.9786 35L17.3184 40Z" fill="#FFC100"/>
<path fill-rule="evenodd" clip-rule="evenodd" d="M4.3301 32.5L10.3923 28L11.0361 25.6993L8.66023 25L0 30.0002L4.3301 32.5Z" fill="#71044F"/>
<path fill-rule="evenodd" clip-rule="evenodd" d="M17.3224 22.8572L19.1077 20.6146L17.3224 20.0001L8.66211 25L10.3942 28L14.0114 25.3149L17.3224 22.8572Z" fill="#BE7D10"/>
<path fill-rule="evenodd" clip-rule="evenodd" d="M26.5559 15.9983L26.8599 15.176L25.9783 14.9986L17.3184 19.9984V22.8555L26.5559 15.9983Z" fill="#D9A400"/>
<path fill-rule="evenodd" clip-rule="evenodd" d="M26.5586 15.9998L34.6416 30V9.99983L29.658 12.8771L26.5586 15.9998Z" fill="#00DCE5"/>
<path fill-rule="evenodd" clip-rule="evenodd" d="M34.641 10.0039L25.9805 15.0041L26.558 16.0039L34.641 10.0039Z" fill="#0D787B"/>
<path d="M34.6449 30.0035L17.2891 19.9991L25.9896 15.0273L34.6449 30.0035Z" fill="#15B2C5"/>
<path d="M19.4631 21.2666L17.2891 20.0011L25.9896 15L26.5545 16.0011L19.4631 21.2666Z" fill="#0E5D67"/>
<path fill-rule="evenodd" clip-rule="evenodd" d="M49.5376 29.4655C50.8762 29.8761 52.2773 30.0813 53.7409 30.0813C55.4544 30.0813 56.8734 29.8314 57.9979 29.3317C59.1223 28.8141 59.9523 28.1358 60.4878 27.2969C61.0411 26.4402 61.3177 25.512 61.3177 24.5125C61.3177 23.5308 61.1125 22.7187 60.7019 22.0762C60.3093 21.4336 59.7827 20.9249 59.1223 20.5501C58.4798 20.1753 57.7569 19.8718 56.9537 19.6398C56.1684 19.4078 55.3741 19.2025 54.5709 19.024C53.7677 18.8277 53.0359 18.6314 52.3755 18.435C51.733 18.2387 51.2064 17.971 50.7959 17.6318C50.4032 17.2749 50.2069 16.8108 50.2069 16.2396C50.2069 15.7577 50.3408 15.3293 50.6085 14.9545C50.8941 14.5797 51.3314 14.2763 51.9204 14.0442C52.5272 13.8122 53.3126 13.6962 54.2764 13.6962C55.0974 13.6962 55.9542 13.8211 56.8466 14.071C57.739 14.303 58.6047 14.6689 59.4436 15.1687L60.5413 12.4646C59.7203 11.9292 58.7564 11.5186 57.6498 11.2331C56.5432 10.9475 55.4276 10.8047 54.3032 10.8047C52.5897 10.8047 51.1707 11.0635 50.0462 11.5811C48.9396 12.0809 48.1097 12.7591 47.5564 13.6159C47.0209 14.4548 46.7532 15.3829 46.7532 16.4003C46.7532 17.3998 46.9584 18.2208 47.3689 18.8634C47.7795 19.5059 48.306 20.0236 48.9486 20.4162C49.609 20.7911 50.3318 21.1034 51.1172 21.3533C51.9204 21.5853 52.7146 21.7906 53.5 21.9691C54.3032 22.1476 55.026 22.3439 55.6686 22.5581C56.329 22.7544 56.8645 23.0311 57.275 23.388C57.6855 23.7272 57.8908 24.1823 57.8908 24.7535C57.8908 25.2175 57.748 25.637 57.4624 26.0118C57.1768 26.3688 56.7306 26.6544 56.1237 26.8685C55.5169 27.0827 54.7226 27.1898 53.7409 27.1898C52.5808 27.1898 51.4474 26.9935 50.3408 26.6008C49.2341 26.2081 48.306 25.7173 47.5564 25.1283L46.3516 27.8324C47.1369 28.4928 48.1989 29.0372 49.5376 29.4655ZM67.2856 29.3317C68.2137 29.7779 69.2847 30.001 70.4984 30.001C71.605 30.001 72.6224 29.76 73.5505 29.2781C74.1664 28.9465 74.684 28.5206 75.1034 28.0004V29.8136H78.2893V15.5168H74.9427V22.7455C74.9427 23.6915 74.7731 24.4857 74.434 25.1283C74.1127 25.7708 73.6576 26.2528 73.0686 26.574C72.4974 26.8953 71.8192 27.056 71.0338 27.056C69.9629 27.056 69.1329 26.7436 68.5439 26.1189C67.9728 25.4763 67.6872 24.5125 67.6872 23.2274V15.5168H64.3406V23.6825C64.3406 25.1104 64.5994 26.2974 65.117 27.2434C65.6346 28.1715 66.3575 28.8676 67.2856 29.3317ZM89.1502 35.195C87.8294 35.195 86.5354 35.0165 85.2681 34.6595C84.0187 34.3204 82.9924 33.8206 82.1892 33.1602L83.6885 30.6435C84.3132 31.1612 85.0986 31.5717 86.0446 31.8751C87.0084 32.1964 87.9811 32.357 88.9628 32.357C90.5335 32.357 91.6847 31.9911 92.4165 31.2593C93.1483 30.5454 93.5142 29.4655 93.5142 28.0198V27.2655C93.0766 27.7533 92.5679 28.1476 91.9882 28.4482C91.0243 28.9301 89.9356 29.171 88.7219 29.171C87.3654 29.171 86.1338 28.8854 85.0272 28.3143C83.9384 27.7253 83.0727 26.9132 82.4302 25.8779C81.8055 24.8427 81.4931 23.629 81.4931 22.2368C81.4931 20.8624 81.8055 19.6577 82.4302 18.6224C83.0727 17.5872 83.9384 16.784 85.0272 16.2129C86.1338 15.6417 87.3654 15.3561 88.7219 15.3561C89.9356 15.3561 91.0243 15.5971 91.9882 16.079C92.6403 16.405 93.2025 16.8537 93.6749 17.4248V15.5168H96.8609V27.645C96.8609 30.233 96.2005 32.1339 94.8797 33.3476C93.5589 34.5792 91.6491 35.195 89.1502 35.195ZM89.2305 26.3331C90.0694 26.3331 90.8191 26.1635 91.4795 25.8244C92.1399 25.4674 92.6486 24.9855 93.0056 24.3786C93.3804 23.7539 93.5678 23.04 93.5678 22.2368C93.5678 21.4336 93.3804 20.7286 93.0056 20.1217C92.6486 19.497 92.1399 19.024 91.4795 18.7027C90.8191 18.3636 90.0694 18.1941 89.2305 18.1941C88.3917 18.1941 87.6331 18.3636 86.9548 18.7027C86.2944 19.024 85.7768 19.497 85.402 20.1217C85.045 20.7286 84.8665 21.4336 84.8665 22.2368C84.8665 23.04 85.045 23.7539 85.402 24.3786C85.7768 24.9855 86.2944 25.4674 86.9548 25.8244C87.6331 26.1635 88.3917 26.3331 89.2305 26.3331ZM110.069 28.0787V29.8136H113.228V21.4336C113.228 19.3632 112.657 17.8371 111.515 16.8554C110.39 15.8559 108.793 15.3561 106.722 15.3561C105.58 15.3561 104.473 15.5078 103.403 15.8113C102.349 16.0968 101.439 16.5341 100.672 17.1231L101.984 19.5595C102.519 19.1133 103.17 18.7652 103.938 18.5153C104.723 18.2655 105.518 18.1405 106.321 18.1405C107.517 18.1405 108.409 18.4172 108.998 18.9705C109.587 19.5059 109.882 20.2645 109.882 21.2462V21.4604H106.187C104.741 21.4604 103.581 21.6478 102.706 22.0226C101.832 22.3974 101.198 22.9061 100.806 23.5487C100.431 24.1912 100.243 24.9141 100.243 25.7173C100.243 26.5383 100.457 27.2791 100.886 27.9395C101.332 28.582 101.957 29.0907 102.76 29.4655C103.563 29.8225 104.5 30.001 105.571 30.001C106.838 30.001 107.883 29.769 108.704 29.3049C109.282 28.9851 109.737 28.5764 110.069 28.0787ZM109.882 25.3425V23.6825H106.428C105.286 23.6825 104.518 23.87 104.125 24.2448C103.733 24.6018 103.536 25.048 103.536 25.5834C103.536 26.1903 103.777 26.6722 104.259 27.0292C104.741 27.3862 105.41 27.5646 106.267 27.5646C107.088 27.5646 107.82 27.3772 108.463 27.0024C109.123 26.6276 109.596 26.0743 109.882 25.3425ZM117.523 29.8136V15.5168H120.709V17.6089C121.12 16.9791 121.664 16.478 122.342 16.1058C123.271 15.606 124.422 15.3561 125.796 15.3561V18.5421C125.653 18.5064 125.519 18.4886 125.395 18.4886C125.27 18.4707 125.145 18.4618 125.02 18.4618C123.752 18.4618 122.744 18.8366 121.994 19.5863C121.245 20.3181 120.87 21.4158 120.87 22.8794V29.8136H117.523ZM167.883 14.1373V15.6217H165.527V18.299H167.883V25.1797C167.883 26.7683 168.311 27.9731 169.168 28.7941C169.764 29.3525 170.532 29.7167 171.472 29.8869V26.2878C171.31 25.9641 171.23 25.568 171.23 25.0994V18.299H175.058V15.6217H171.23V11.3292L167.883 14.1373ZM135.15 11.0703L126.717 29.8115H130.304L132.16 25.4742H141.534L143.396 29.8115H147.038L138.577 11.0703H135.15ZM140.361 22.7434L136.838 14.5415L133.329 22.7434H140.361ZM160.264 16.0233C159.372 15.5771 158.354 15.354 157.212 15.354C155.963 15.354 154.856 15.6039 153.892 16.1037C153.256 16.4279 152.72 16.8491 152.286 17.3672V15.5146H149.1V29.8115H152.446V22.5827C152.446 21.6189 152.607 20.8246 152.928 20.1999C153.267 19.5574 153.74 19.0755 154.347 18.7542C154.954 18.4329 155.65 18.2723 156.436 18.2723C157.506 18.2723 158.336 18.5846 158.925 19.2093C159.532 19.834 159.836 20.78 159.836 22.0473V29.8115H163.182V21.6189C163.182 20.1732 162.924 18.9951 162.406 18.0849C161.888 17.1567 161.174 16.4696 160.264 16.0233ZM175.935 26.4688H172.588V29.8154H175.935V26.4688Z" fill="#173773"/>
</svg>
