<svg width="40" height="40" viewBox="0 0 40 40" fill="none" xmlns="http://www.w3.org/2000/svg">
<g clip-path="url(#clip0_1269_10337)">
<path d="M9.4919 10.2603C9.33792 8.34665 9.00947 6.44699 8.56641 4.58949C10.4444 3.89251 12.3459 3.25937 14.2903 2.70077C14.2493 3.42779 14.3164 4.19022 14.6901 4.81521C15.0637 5.44043 15.8054 5.88745 16.5177 5.73581C17.2713 5.57531 17.7773 4.77467 17.7612 4.00432C17.7451 3.23374 17.2979 2.52303 16.689 1.97211C18.6373 1.56632 20.5484 0.981636 22.3789 0.240871C22.7099 2.15009 23.1914 4.03298 23.7779 5.86276C24.5185 5.88279 25.0922 5.22635 25.4547 4.5804C25.5425 4.42386 25.6275 4.26126 25.7587 4.13897C26.1419 3.78093 26.7878 3.89927 27.1992 4.22492C27.9132 4.79075 28.1149 5.8835 27.71 6.6995C27.3052 7.51574 26.3676 8.01144 25.4582 7.95903C25.3669 7.95391 25.2727 7.94412 25.1861 7.97301C25.119 7.99537 25.0608 8.03986 25.0132 8.09227C24.7272 8.40628 24.8383 8.89989 24.9669 9.30475C25.1146 9.77111 25.2625 10.2377 25.3825 10.6586C25.7519 11.6356 26.1214 12.6126 26.3953 13.6205C24.781 14.1381 23.1949 14.7436 21.6267 15.3942C21.7611 14.1125 21.8955 12.8306 22.0299 11.5487C22.0458 11.398 22.0604 11.2391 21.9987 11.1008C21.8836 10.8415 21.5328 10.7583 21.2663 10.855C20.9998 10.9517 20.8037 11.1786 20.6364 11.4075C20.0536 12.2054 19.6704 13.1292 19.3282 14.0564C18.9828 14.9921 18.6464 15.9833 17.8747 16.6674C15.9417 17.2321 14.0089 17.797 12.1062 18.3633C11.7789 16.8119 10.9504 15.2598 10.7081 13.7223C10.8125 13.4204 11.2707 13.4377 11.5504 13.2832C12.1482 12.9534 12.635 12.4206 12.9085 11.7949C13.182 11.1695 13.1123 10.363 12.6134 9.89713C12.1794 9.49204 11.5197 9.41726 10.9385 9.53653C10.3929 9.64834 9.87975 9.91344 9.4919 10.2603Z" fill="#FFE6A5"/>
<path fill-rule="evenodd" clip-rule="evenodd" d="M12.0199 18.3778C12.0462 18.4481 12.1131 18.4931 12.186 18.4931L12.216 18.4905C13.3481 18.2974 14.4793 17.939 15.5765 17.5914L15.5765 17.5914L15.5766 17.5914L15.5832 17.5893C15.7174 17.5467 15.8968 17.4859 16.098 17.4163C16.0455 17.5168 16.002 17.638 15.9702 17.7853C15.8787 18.2095 15.911 19.0961 15.9373 19.8084C15.9478 20.0917 15.9567 20.3365 15.956 20.5017C15.9497 21.8325 15.8432 22.9944 15.7403 24.1181C15.6537 25.0632 15.5719 25.9579 15.5655 26.8328C15.4189 26.8369 15.2725 26.8417 15.1261 26.8471C15.0327 26.8506 14.9579 26.9261 14.9554 27.0197L14.9168 28.4535C14.8777 28.4605 14.8385 28.4678 14.7994 28.4754C14.7153 28.4915 14.6545 28.5658 14.6556 28.6515C14.6962 32.2955 14.6491 35.9907 14.5154 39.6339C14.5119 39.7318 14.5883 39.8142 14.6864 39.8177L14.6929 39.818C14.7877 39.818 14.8667 39.7427 14.87 39.647C15.002 36.0475 15.0498 32.3982 15.0121 28.7969C16.2951 28.5714 17.5703 28.6373 18.8049 28.7011L19.1506 28.719C19.9483 28.7601 20.7455 28.8012 21.5366 28.8409C21.3697 30.4753 21.4308 32.1322 21.4899 33.7366V33.7366L21.49 33.74L21.7071 39.6255C21.7106 39.7234 21.7903 39.8021 21.8909 39.7963C21.989 39.7928 22.0654 39.7103 22.0617 39.6125L21.8446 33.7269L21.8445 33.7264V33.7264C21.7835 32.0727 21.7204 30.3628 21.9093 28.6934C21.9149 28.6445 21.9 28.5958 21.8683 28.5586C21.8366 28.5211 21.791 28.4985 21.7421 28.4961C21.7198 28.495 21.6976 28.4939 21.6754 28.4928C21.7303 28.061 21.7588 27.6223 21.7599 27.1872C21.7601 27.095 21.6898 27.0179 21.598 27.01C21.4425 26.9963 21.2868 26.9834 21.131 26.9712C20.9049 24.7977 21.2163 21.8476 21.8603 20.084C22.3702 18.6875 23.701 17.6717 24.8751 16.7755L24.8757 16.775L24.8757 16.775C25.948 15.9566 26.9604 15.1839 27.2525 14.2215C27.5719 13.1684 27.5129 13.0461 27.0545 12.0947C26.8365 11.6426 26.5381 11.0232 26.1344 10.0124C25.8964 9.41665 25.7475 9.3006 25.2085 9.43465C25.1767 9.31701 25.1457 9.19598 25.1156 9.07094C25.0319 8.72455 24.9874 8.27846 25.2483 8.12076C25.3695 8.04761 25.5377 8.05134 25.7149 8.05554C25.7394 8.05609 25.7639 8.0564 25.7881 8.0567L25.8377 8.0574C26.9388 8.0574 27.9512 7.28146 28.1935 6.25114C28.4465 5.17564 27.7623 3.98855 26.7294 3.71042C26.4387 3.63238 26.1627 3.63471 25.9313 3.7174C25.4428 3.89197 25.2017 4.37259 24.9889 4.79676L24.9884 4.7978C24.946 4.88259 24.9038 4.96669 24.86 5.04775C24.6935 5.35664 24.413 5.61055 24.1624 5.67903C24.0564 5.70815 23.9609 5.70419 23.8723 5.66645C23.269 3.81734 22.7309 0.97937 22.579 0.145428C22.5693 0.0911518 22.5343 0.044326 22.4849 0.019168C22.4355 -0.00575711 22.3773 -0.00645185 22.3272 0.0175415C20.4764 0.911527 18.5301 1.35482 16.6478 1.78354L16.6477 1.78354L16.6459 1.78396C16.5821 1.7984 16.5318 1.84662 16.5143 1.90952C16.4968 1.97241 16.5152 2.03974 16.5623 2.08493C16.888 2.39754 17.304 2.90489 17.437 3.54736C17.5514 4.1006 17.4319 4.69554 17.1172 5.1393C16.9916 5.3161 16.8546 5.44026 16.71 5.50805C16.4479 5.63081 16.0866 5.59633 15.7186 5.41324C14.7796 4.94595 14.2377 3.78147 14.4851 2.76187C14.5 2.7006 14.4812 2.63584 14.4355 2.59205C14.3901 2.54825 14.3249 2.53195 14.2638 2.54942C12.4173 3.07774 10.5693 3.68712 8.44813 4.46679C8.36264 4.49824 8.31489 4.58955 8.33772 4.67784C8.80687 6.48712 9.13835 8.37723 9.32307 10.2965C9.3296 10.3654 9.37572 10.4241 9.44141 10.4469C9.5064 10.4693 9.57932 10.4523 9.62753 10.4025C10.1186 9.89184 10.9434 9.62768 11.6805 9.74578C11.9307 9.78585 12.1403 9.86086 12.3034 9.96894C12.8762 10.3486 12.971 11.1779 12.7683 11.8008C12.6852 12.0564 12.5671 12.2786 12.417 12.4619C11.9768 12.9993 11.2248 13.2355 10.6206 13.4251C10.5302 13.4533 10.478 13.5477 10.502 13.639C10.9034 15.1799 11.3714 16.6414 12.0199 18.3778ZM20.7717 26.9443C20.5534 24.7303 20.8733 21.7526 21.5272 19.9622C22.0725 18.4683 23.4471 17.4192 24.6601 16.4934L24.6609 16.4928C25.686 15.7103 26.6541 14.9714 26.9129 14.1183C27.1921 13.1978 27.1749 13.1621 26.7348 12.2491L26.7347 12.2489L26.7345 12.2485L26.7344 12.2485C26.5267 11.8173 26.2127 11.1658 25.8048 10.1438C25.7276 9.95071 25.6531 9.77484 25.5879 9.74409C25.542 9.72254 25.4352 9.74118 25.3054 9.77482C25.5005 10.4269 25.721 10.9831 25.9511 11.5632C26.1797 12.1391 26.4159 12.7347 26.657 13.4876C26.6849 13.5749 26.6416 13.6693 26.557 13.7051C26.0491 13.9198 25.3952 14.1598 24.702 14.4143L24.6737 14.4247C23.659 14.7965 22.6098 15.1813 21.8753 15.5359C21.856 15.5451 21.8358 15.5505 21.8157 15.5525C21.7983 15.7244 21.776 15.892 21.7463 16.0547C21.7288 16.151 21.6352 16.2145 21.5399 16.1975C21.4435 16.1798 21.3796 16.0874 21.3971 15.9909C21.4867 15.5008 21.5065 14.9494 21.5274 14.3657V14.3657L21.5276 14.3598L21.5276 14.3593C21.5558 13.5696 21.5849 12.7526 21.7875 11.9719C21.8875 11.5866 21.8942 11.3302 21.8078 11.1871C21.7652 11.1163 21.6976 11.0718 21.5949 11.0476C21.354 10.9898 21.095 11.2139 20.8958 11.4152C20.3696 11.9475 19.9873 12.9398 19.6176 13.8995L19.6162 13.9032C19.1797 15.0356 18.7284 16.2061 17.998 16.785C17.6534 17.0581 17.3125 17.1441 17.0384 17.2133L17.0384 17.2133L17.038 17.2134L17.0379 17.2134C16.6415 17.3134 16.4233 17.3684 16.3171 17.8601C16.2351 18.2409 16.2679 19.1394 16.2919 19.7954C16.3026 20.0826 16.3117 20.3307 16.3108 20.5033C16.3045 21.8468 16.1977 23.0144 16.0945 24.1436L16.0945 24.1437L16.0939 24.1505L16.0937 24.1527L16.0937 24.1527C16.0082 25.085 15.9273 25.968 15.9204 26.8239C17.5349 26.7891 19.1604 26.8293 20.7717 26.9443ZM21.3201 28.4749C21.3684 28.1028 21.3962 27.7251 21.4033 27.3494C19.382 27.1793 17.3326 27.1276 15.3057 27.1959L15.2733 28.3963C16.4826 28.2256 17.6685 28.2869 18.8198 28.3464L18.823 28.3466C19.6572 28.3898 20.4916 28.433 21.3201 28.4749ZM24.9097 9.68544C24.8616 9.51586 24.8152 9.33938 24.7706 9.1541C24.5691 8.3176 24.8195 7.96516 25.065 7.81677C25.2744 7.69051 25.513 7.69587 25.7233 7.70076C25.7411 7.70119 25.7583 7.70132 25.7757 7.70145C25.7958 7.70161 25.8161 7.70176 25.8377 7.70239C26.7632 7.70239 27.6456 7.02988 27.8482 6.16961C28.0553 5.28838 27.4783 4.2795 26.6372 4.05308C26.4834 4.01185 26.2565 3.97783 26.0508 4.05145C25.6958 4.1784 25.5062 4.55647 25.3057 4.9569C25.2616 5.04472 25.2178 5.13208 25.1724 5.21594C25.0105 5.5162 24.6734 5.90709 24.256 6.02123C24.0352 6.08156 23.8204 6.0543 23.6347 5.94249C23.5984 5.92083 23.5711 5.88659 23.5579 5.84629C22.9853 4.119 22.4691 1.49488 22.272 0.436376C20.5498 1.23491 18.7671 1.66353 17.0312 2.06023C17.3408 2.40686 17.6627 2.88835 17.7843 3.47537C17.9187 4.12343 17.7773 4.82203 17.4065 5.34452C17.2453 5.57188 17.0615 5.73517 16.8607 5.82928C16.3666 6.06083 15.8341 5.86702 15.5606 5.73098C14.5678 5.2369 13.9608 4.06612 14.0884 2.96942C12.3842 3.46419 10.6672 4.03234 8.72114 4.74469C9.1465 6.41584 9.45562 8.15361 9.64151 9.91793C10.2134 9.48652 11.0136 9.27989 11.7366 9.39543C12.0371 9.44365 12.2936 9.53707 12.4993 9.67311C13.22 10.1506 13.3498 11.1602 13.1059 11.9105C13.0087 12.2082 12.8694 12.4694 12.6917 12.6867C12.2253 13.2558 11.5055 13.5162 10.888 13.7128C11.2661 15.1413 11.7059 16.5119 12.3008 18.1153C13.3637 17.9203 14.4353 17.5809 15.4728 17.252C15.751 17.1637 16.2257 16.9964 16.6848 16.8345L16.6974 16.8301L16.6974 16.8301L16.6975 16.8301C17.1386 16.6747 17.5921 16.5149 17.8742 16.4244C18.4758 15.8754 18.887 14.8082 19.2856 13.774L19.2856 13.774L19.2864 13.7719C19.6868 12.7325 20.0651 11.7506 20.6435 11.1659C20.9079 10.8985 21.2639 10.6036 21.6769 10.7024C21.873 10.7487 22.0193 10.8503 22.112 11.004C22.2935 11.3055 22.2175 11.7273 22.1311 12.0611C21.9385 12.8035 21.9099 13.5993 21.8822 14.3696L21.8821 14.3727C21.8726 14.641 21.8633 14.9027 21.8474 15.1564C22.5872 14.8117 23.5849 14.4458 24.5513 14.0914L24.5514 14.0914C25.1841 13.8596 25.7848 13.6392 26.2686 13.4408C26.0485 12.771 25.8316 12.2241 25.6213 11.6941L25.6206 11.6923C25.369 11.0579 25.1287 10.4516 24.9185 9.71657C24.9167 9.71195 24.9151 9.70722 24.9137 9.70239L24.9116 9.69421L24.9097 9.68544ZM15.5857 31.4893L15.6163 31.4977L15.6668 31.469L17.1374 29.0203C17.1542 28.9923 17.1451 28.956 17.1171 28.9392C17.0894 28.9227 17.0528 28.9315 17.0358 28.9593L15.5655 31.408C15.5485 31.4359 15.5578 31.4723 15.5857 31.4893ZM15.2351 33.9098L15.2037 33.9007C15.176 33.8832 15.1678 33.8469 15.1853 33.8191L18.13 29.1544C18.1477 29.1267 18.1842 29.1185 18.2115 29.136C18.2392 29.1535 18.2474 29.1901 18.2301 29.2175L15.2852 33.8823L15.2351 33.9098ZM15.4087 35.9577L15.4404 35.9671L15.4905 35.9393L19.6539 29.3593C19.6714 29.3319 19.663 29.2953 19.6355 29.2778C19.6082 29.2606 19.5714 29.2685 19.554 29.296L15.3903 35.8762C15.3728 35.9039 15.3812 35.9403 15.4087 35.9577ZM15.4664 30.0784L15.4357 30.0695C15.4077 30.0528 15.3989 30.0162 15.4159 29.9885L15.8636 29.2531C15.8806 29.2251 15.9169 29.2163 15.9447 29.2333C15.9726 29.2503 15.9815 29.2866 15.9645 29.3146L15.517 30.05L15.4664 30.0784ZM15.4425 38.4698L15.476 38.4801L15.5247 38.4544C17.4898 35.5904 19.281 32.5661 20.8482 29.4656C20.8629 29.4365 20.8512 29.401 20.8221 29.3861C20.793 29.3715 20.7574 29.3831 20.7427 29.4122C19.1775 32.5081 17.3894 35.528 15.4274 38.3876C15.409 38.4144 15.4157 38.4512 15.4425 38.4698ZM16.1987 39.8049L16.1652 39.7945C16.1384 39.7758 16.1316 39.739 16.15 39.7122C17.8689 37.2193 19.4664 34.6024 20.8979 31.9342C20.9133 31.9053 20.9491 31.8944 20.9778 31.91C21.0067 31.9256 21.0174 31.9612 21.002 31.9901C19.5685 34.662 17.9688 37.2828 16.2474 39.7796L16.1987 39.8049ZM17.6042 39.4864L17.6359 39.4957L17.686 39.4684L20.9644 34.3129C20.9819 34.2852 20.9737 34.2488 20.9465 34.2311C20.919 34.2139 20.8824 34.2221 20.8647 34.2493L17.586 39.4049C17.5686 39.4326 17.5767 39.4689 17.6042 39.4864ZM18.8321 39.6845L18.7988 39.6743C18.772 39.6558 18.765 39.619 18.7834 39.592L20.8755 36.533C20.8941 36.506 20.9312 36.4992 20.9577 36.5176C20.9847 36.536 20.9917 36.5728 20.9731 36.5998L18.8812 39.6586L18.8321 39.6845ZM20.0768 39.697L20.1098 39.7073L20.159 39.6812L20.9832 38.462C21.0016 38.4349 20.9946 38.3981 20.9673 38.3797C20.9405 38.3616 20.9037 38.3688 20.8853 38.3958L20.0612 39.615C20.0425 39.6421 20.0497 39.6789 20.0768 39.697Z" fill="#173773"/>
</g>
<defs>
<clipPath id="clip0_1269_10337">
<rect width="40" height="40" fill="white"/>
</clipPath>
</defs>
</svg>
