<svg width="107" height="40" viewBox="0 0 107 40" fill="none" xmlns="http://www.w3.org/2000/svg">
<path d="M55.8161 13.7104C54.9315 12.9673 53.4101 12.5958 51.2517 12.5958H46.4043V27.5803H50.031V22.8745H51.6586C53.6223 22.8745 55.073 22.4322 55.993 21.5653C57.0368 20.5923 57.5498 19.3008 57.5498 17.6732C57.5498 16.0102 56.966 14.6834 55.8161 13.7104ZM51.5525 19.4777H50.0133V15.9749H51.3932C53.0739 15.9749 53.9054 16.5587 53.9054 17.744C53.9231 18.8939 53.127 19.4777 51.5525 19.4777ZM63.7418 12.5781H59.9735V27.5626H68.1292V24.1659H63.7418V12.5781ZM75.5418 12.5781L69.5976 27.5626H73.6666L74.445 25.3866H79.6108L80.3185 27.5626H84.4406L78.5494 12.5781H75.5418ZM75.4888 22.3614L77.0456 17.2309L78.5848 22.3614H75.4888Z" fill="#253661"/>
<mask id="mask0_1203_3443" style="mask-type:alpha" maskUnits="userSpaceOnUse" x="0" y="0" width="107" height="40">
<path d="M0 40H106.148V0H0V40Z" fill="white"/>
</mask>
<g mask="url(#mask0_1203_3443)">
<path d="M86.3335 27.563H90.1194V12.5785H86.3335V27.563ZM104.786 15.3914C104.308 14.7015 103.689 14.1176 102.981 13.6577C101.831 12.9323 100.274 12.5785 98.3105 12.5785H93.3215V27.563H99.142C101.247 27.563 102.946 26.8731 104.219 25.4931C105.493 24.1132 106.13 22.291 106.13 20.0088C106.148 18.2043 105.688 16.6652 104.786 15.3914ZM98.7351 24.1663H97.1252V15.9752H98.7705C99.9204 15.9752 100.823 16.3291 101.442 17.0544C102.061 17.7797 102.379 18.8058 102.379 20.1327C102.362 22.8218 101.159 24.1663 98.7351 24.1663ZM15.6922 0L3.43211 3.20212L0.0530737 15.533L4.29898 19.8673L0 24.1309L3.18443 36.5148L15.3914 39.9292L19.6904 35.6656L23.9186 40L36.1787 36.7979L39.5577 24.4671L35.3295 20.1327L39.6285 15.8691L36.4441 3.48518L24.2371 0.0707668L19.9381 4.33437L15.6922 0ZM8.17337 5.57276L14.6307 3.87439L17.4613 6.77576L13.3392 10.8625L8.17337 5.57276ZM22.3441 6.82884L25.2101 3.98054L31.632 5.78505L26.3777 11.004C26.3954 10.9863 22.3441 6.82884 22.3441 6.82884ZM3.92747 14.5245L5.71429 8.03185L10.8801 13.3215L6.75807 17.4082L3.92747 14.5245ZM28.8191 13.4808L34.0734 8.26183L35.7541 14.7899L32.8881 17.6382C32.8704 17.6382 28.8191 13.4808 28.8191 13.4808ZM15.7629 13.3746L19.885 9.28793L23.9363 13.4454L19.8142 17.5321L15.7629 13.3746ZM9.18178 19.9027L13.3038 15.816L17.3552 19.9735L13.2331 24.0602L9.18178 19.9027ZM22.2379 20.0088L26.36 15.9222L30.4113 20.0796L26.2893 24.1663C26.2893 24.184 22.2379 20.0088 22.2379 20.0088ZM3.8567 25.2101L6.72269 22.3618L10.774 26.5192L5.53737 31.7382C5.51968 31.7382 3.8567 25.2101 3.8567 25.2101ZM15.6568 26.5546L19.7789 22.4679L23.8302 26.6254L19.7081 30.7121L15.6568 26.5546ZM28.713 26.6608L32.835 22.5741L35.6656 25.4755L33.8965 31.9682C33.8788 31.9682 28.713 26.6608 28.713 26.6608ZM7.94339 34.215L13.18 28.996L17.2313 33.1535L14.3653 36.0018L7.94339 34.215ZM22.1318 33.2065L26.2539 29.1199L31.4197 34.4096L24.9624 36.1079C24.9624 36.1079 22.1318 33.2065 22.1318 33.2065Z" fill="#253661"/>
</g>
</svg>
