<svg width="322" height="222" viewBox="0 0 322 222" fill="none" xmlns="http://www.w3.org/2000/svg">
<path d="M242.043 161.559H116.633C116.192 161.559 115.834 161.247 115.834 160.861C115.834 160.476 116.192 160.163 116.633 160.163H242.043C242.483 160.163 242.841 160.476 242.841 160.861C242.841 161.247 242.483 161.559 242.043 161.559Z" fill="#003B5C"/>
<path d="M285.409 131.547C285.024 131.547 284.711 131.192 284.711 130.75V38.8324C284.711 38.3927 285.024 38.0359 285.409 38.0359C285.794 38.0359 286.107 38.3927 286.107 38.8324V130.75C286.107 131.192 285.794 131.547 285.409 131.547Z" fill="#003B5C"/>
<path d="M58.711 72.9297C58.2684 72.9297 57.9121 72.5787 57.9121 72.1463V17.5302C57.9121 15.3695 59.7031 13.6131 61.9064 13.6131H250.416C250.857 13.6131 251.215 13.9625 251.215 14.3965C251.215 14.8289 250.857 15.1799 250.416 15.1799H61.9064C60.5851 15.1799 59.5098 16.2328 59.5098 17.5302V72.1463C59.5098 72.5787 59.1519 72.9297 58.711 72.9297Z" fill="#003B5C"/>
<path d="M246.233 141.32H117.326C116.887 141.32 116.531 141.008 116.531 140.622C116.531 140.236 116.887 139.925 117.326 139.925H246.233C246.672 139.925 247.028 140.236 247.028 140.622C247.028 141.008 246.672 141.32 246.233 141.32Z" fill="#003B5C"/>
<path d="M273.894 132.242C273.317 132.242 272.848 131.887 272.848 131.447V40.2247C272.848 39.7855 273.317 39.4291 273.894 39.4291C274.472 39.4291 274.941 39.7855 274.941 40.2247V131.447C274.941 131.887 274.472 132.242 273.894 132.242Z" fill="#003B5C"/>
<path d="M71.2743 72.9297C70.8302 72.9297 70.4727 72.579 70.4727 72.147V27.6548C70.4727 27.2227 70.8302 26.8721 71.2743 26.8721H265.765C266.207 26.8721 266.566 27.2227 266.566 27.6548C266.566 28.0869 266.207 28.4375 265.765 28.4375H72.0759V72.147C72.0759 72.579 71.7167 72.9297 71.2743 72.9297Z" fill="#003B5C"/>
<path d="M113.342 186.193C112.903 186.193 112.544 186.553 112.544 186.997V198.226C112.544 198.668 112.903 199.03 113.342 199.03H231.377C231.817 199.03 232.174 198.668 232.174 198.226V186.997C232.174 186.553 231.817 186.193 231.377 186.193H113.342ZM231.377 200.637H113.342C112.023 200.637 110.949 199.555 110.949 198.226V186.997C110.949 185.668 112.023 184.586 113.342 184.586H231.377C232.696 184.586 233.77 185.668 233.77 186.997V198.226C233.77 199.555 232.696 200.637 231.377 200.637Z" fill="#003B5C"/>
<path d="M147.268 108.142L144.887 110.12C144.602 110.336 144.383 110.479 144.098 110.479C143.523 110.479 143.049 109.904 143.049 109.255C143.049 108.716 143.431 108.32 143.778 108.142L146.571 106.777L143.778 105.373C143.396 105.195 143.049 104.799 143.049 104.26C143.049 103.611 143.558 103.072 144.128 103.072C144.413 103.072 144.602 103.179 144.887 103.434L147.268 105.411L146.952 102.21C146.856 101.456 147.299 100.844 147.934 100.844C148.57 100.844 149.013 101.416 148.917 102.175L148.601 105.411L150.979 103.434C151.267 103.179 151.486 103.072 151.771 103.072C152.341 103.072 152.819 103.611 152.819 104.26C152.819 104.834 152.469 105.195 152.091 105.373L149.298 106.777L152.091 108.142C152.469 108.32 152.819 108.716 152.819 109.292C152.819 109.94 152.311 110.479 151.741 110.479C151.486 110.479 151.267 110.336 150.979 110.12L148.601 108.142L148.917 111.341C149.013 112.099 148.57 112.707 147.934 112.707C147.299 112.707 146.856 112.133 146.952 111.378L147.268 108.142Z" fill="#003B5C"/>
<path d="M161.827 108.142L159.109 110.12C158.78 110.336 158.529 110.479 158.203 110.479C157.546 110.479 157.006 109.904 157.006 109.255C157.006 108.716 157.441 108.32 157.837 108.142L161.03 106.777L157.837 105.373C157.406 105.195 157.006 104.799 157.006 104.26C157.006 103.611 157.586 103.072 158.238 103.072C158.563 103.072 158.78 103.179 159.109 103.434L161.827 105.411L161.465 102.21C161.356 101.456 161.862 100.844 162.588 100.844C163.315 100.844 163.821 101.416 163.712 102.175L163.35 105.411L166.072 103.434C166.397 103.179 166.649 103.072 166.974 103.072C167.629 103.072 168.171 103.611 168.171 104.26C168.171 104.834 167.775 105.195 167.34 105.373L164.147 106.777L167.34 108.142C167.775 108.32 168.171 108.716 168.171 109.292C168.171 109.94 167.591 110.479 166.94 110.479C166.649 110.479 166.397 110.336 166.072 110.12L163.35 108.142L163.712 111.341C163.821 112.099 163.315 112.707 162.588 112.707C161.862 112.707 161.356 112.133 161.465 111.378L161.827 108.142Z" fill="#003B5C"/>
<path d="M176.181 108.142L173.634 110.12C173.328 110.336 173.09 110.479 172.784 110.479C172.174 110.479 171.662 109.904 171.662 109.255C171.662 108.716 172.07 108.32 172.442 108.142L175.434 106.777L172.442 105.373C172.037 105.195 171.662 104.799 171.662 104.26C171.662 103.611 172.206 103.072 172.817 103.072C173.122 103.072 173.328 103.179 173.634 103.434L176.181 105.411L175.842 102.21C175.74 101.456 176.214 100.844 176.896 100.844C177.576 100.844 178.051 101.416 177.948 102.175L177.609 105.411L180.16 103.434C180.465 103.179 180.701 103.072 181.006 103.072C181.621 103.072 182.13 103.611 182.13 104.26C182.13 104.834 181.756 105.195 181.349 105.373L178.356 106.777L181.349 108.142C181.756 108.32 182.13 108.716 182.13 109.292C182.13 109.94 181.584 110.479 180.974 110.479C180.701 110.479 180.465 110.336 180.16 110.12L177.609 108.142L177.948 111.341C178.051 112.099 177.576 112.707 176.896 112.707C176.214 112.707 175.74 112.133 175.842 111.378L176.181 108.142Z" fill="#003B5C"/>
<path d="M195.387 122.477C195.002 122.477 194.689 122.118 194.689 121.673V93.971C194.689 93.5273 195.002 93.1672 195.387 93.1672C195.773 93.1672 196.085 93.5273 196.085 93.971V121.673C196.085 122.118 195.773 122.477 195.387 122.477Z" fill="#003B5C"/>
<path d="M274.139 77.1172H71.2738C70.83 77.1172 70.4727 76.7652 70.4727 76.328V27.6617C70.4727 27.2261 70.83 26.8725 71.2738 26.8725H264.062C264.504 26.8725 264.863 27.2261 264.863 27.6617C264.863 28.0973 264.504 28.4508 264.062 28.4508H72.075V75.5389H273.338V39.5319C273.338 39.0947 273.697 38.7428 274.139 38.7428C274.582 38.7428 274.941 39.0947 274.941 39.5319V76.328C274.941 76.7652 274.582 77.1172 274.139 77.1172Z" fill="#003B5C"/>
<path d="M130.488 64.7324V44.1478C130.488 43.0691 131.256 42.2279 132.246 42.2279H132.279C132.279 42.2279 132.279 42.2279 132.342 42.2279H142.688C143.615 42.2279 144.445 43.0691 144.445 44.1478C144.445 45.2298 143.615 46.104 142.688 46.104H134.034V52.4856H141.475C142.433 52.4856 143.231 53.3927 143.231 54.4055C143.231 55.4875 142.433 56.3617 141.475 56.3617H134.034V62.7795H142.688C143.615 62.7795 144.445 63.6504 144.445 64.7324C144.445 65.7782 143.615 66.6523 142.688 66.6523H132.342C132.279 66.6523 132.279 66.6177 132.279 66.6177L132.246 66.6523C131.256 66.6523 130.488 65.7782 130.488 64.7324Z" fill="#003B5C"/>
<path d="M163.984 56.4654V64.8033C163.984 65.8161 163.212 66.6523 162.244 66.6523C161.306 66.6523 160.468 65.8161 160.468 64.8033V56.4654C160.468 54.5092 158.896 52.9406 156.988 52.9406C155.116 52.9406 153.64 54.5092 153.64 56.4654V64.8033C153.64 64.9089 153.64 65.0128 153.574 65.1513C153.408 65.9876 152.669 66.6523 151.799 66.6523C150.795 66.6523 150.027 65.8161 150.027 64.8033V56.4654V51.0553C150.027 50.0425 150.795 49.2063 151.799 49.2063C152.503 49.2063 153.139 49.6252 153.441 50.2899C154.444 49.6252 155.683 49.2063 156.988 49.2063C160.871 49.2063 163.984 52.5233 163.984 56.4654Z" fill="#003B5C"/>
<path d="M177.941 51.1265C177.941 52.1722 177.084 53.0447 176.097 53.0447H175.278V62.7795C176.297 62.7795 177.084 63.6504 177.084 64.7324C177.084 65.8161 176.297 66.6523 175.278 66.6523C173.271 66.6523 171.63 64.9089 171.63 62.7795V53.0447H170.677C169.656 53.0447 168.869 52.1722 168.869 51.1265C168.869 50.0428 169.656 49.2065 170.677 49.2065H171.63V44.1478C171.63 43.0691 172.45 42.2279 173.47 42.2279C174.488 42.2279 175.278 43.0691 175.278 44.1478V49.2065H176.097C177.084 49.2065 177.941 50.0428 177.941 51.1265Z" fill="#003B5C"/>
<path d="M185.035 56.2197H194.401C194.072 54.8226 192.383 52.7658 189.505 52.5233C186.691 52.6602 185.301 54.7896 185.035 56.2197ZM181.43 57.9302C181.461 53.1831 184.971 49.2063 189.505 49.2063C193.806 49.2063 197.214 52.5893 197.48 57.3017C197.48 57.3363 197.48 57.4073 197.48 57.4766C197.48 57.5458 197.48 57.7207 197.448 57.7916C197.347 58.6279 196.653 59.1837 195.728 59.1837H185.2C185.366 59.987 185.731 60.8942 186.326 61.488C187.022 62.3242 188.347 62.956 189.505 63.0599C190.696 63.1654 192.119 62.8504 192.946 62.1873C193.642 61.417 195 61.521 195.43 62.0818C195.861 62.57 196.19 63.6157 195.43 64.3481C193.806 65.92 191.853 66.6523 189.505 66.6523C184.971 66.6177 181.461 62.6756 181.43 57.9302Z" fill="#003B5C"/>
<path d="M212.135 51.0255C212.135 52.0055 211.406 52.8797 210.454 52.8797C209.724 52.8797 209.087 53.0896 208.549 53.544C207.947 53.9621 207.473 54.5571 207.091 55.2231C206.329 56.3419 205.948 57.6689 205.791 58.1564V64.7998C205.791 65.8145 204.996 66.6523 204.045 66.6523C203.125 66.6523 202.365 65.8145 202.365 64.7998V51.0255C202.365 50.0108 203.125 49.2076 204.045 49.2076C204.996 49.2076 205.791 50.0108 205.791 51.0255V51.2718C205.982 51.0255 206.233 50.7479 206.456 50.5727C207.503 49.8026 208.867 49.1729 210.454 49.2076C211.406 49.2076 212.135 50.0108 212.135 51.0255Z" fill="#003B5C"/>
<path d="M145.849 184.658H195.729V161.811H182.524C182.548 162.038 182.564 162.266 182.564 162.499C182.564 168.846 177.282 174.011 170.789 174.011C164.296 174.011 159.014 168.846 159.014 162.499C159.014 162.266 159.03 162.038 159.054 161.811H145.849V184.658ZM196.53 186.211H145.048C144.605 186.211 144.246 185.863 144.246 185.434V161.035C144.246 160.606 144.605 160.258 145.048 160.258H159.967C160.199 160.258 160.417 160.356 160.569 160.523C160.723 160.693 160.792 160.916 160.76 161.139L160.728 161.372C160.674 161.743 160.618 162.114 160.618 162.499C160.618 167.99 165.181 172.458 170.789 172.458C176.397 172.458 180.961 167.99 180.961 162.499C180.961 162.114 180.904 161.743 180.85 161.372L180.818 161.139C180.786 160.916 180.855 160.693 181.009 160.523C181.161 160.356 181.379 160.258 181.611 160.258H196.53C196.973 160.258 197.332 160.606 197.332 161.035V185.434C197.332 185.863 196.973 186.211 196.53 186.211Z" fill="#003B5C"/>
<path d="M2.40677 88.8935C2.40358 94.7369 2.37483 100.481 2.34448 106.08C2.17032 139.219 2.01851 167.841 7.96074 180.723C16.7966 199.916 39.9967 211.727 59.3093 219.875C78.6204 211.727 101.819 199.918 110.668 180.723C116.597 167.839 116.447 139.213 116.273 106.068C116.244 100.471 116.213 94.7321 116.21 88.8935C116.052 88.8951 115.894 88.8967 115.731 88.8967C98.7862 88.8967 66.4131 76.1112 59.3093 73.2192C52.2055 76.1112 19.834 88.8951 2.88611 88.8967C2.72474 88.8967 2.56496 88.8951 2.40677 88.8935ZM59.2742 220.773L59.2886 220.805L59.2918 220.794L59.2742 220.773ZM59.255 221.57C59.1048 221.57 58.9562 221.53 58.8268 221.447C58.7885 221.423 58.7517 221.395 58.7197 221.365C39.1355 213.104 15.5822 201.098 6.50992 181.396C0.417497 168.189 0.570915 139.404 0.746673 106.071C0.778629 100.211 0.80897 94.1931 0.80897 88.069C0.80897 87.8509 0.898455 87.6408 1.05664 87.49C1.21162 87.3392 1.43051 87.2542 1.64302 87.267C17.9007 87.9904 51.699 74.589 58.7805 71.7034C58.7948 71.6906 58.8124 71.6809 58.83 71.6697C59.0169 71.5526 59.2374 71.5045 59.4531 71.5526C59.5746 71.5687 59.6912 71.6104 59.7887 71.6777C59.795 71.6826 59.8015 71.6858 59.8094 71.6906C66.827 74.5521 100.649 87.9856 116.976 87.267C117.19 87.2558 117.405 87.3392 117.562 87.49C117.719 87.6408 117.808 87.8509 117.808 88.069C117.808 94.1883 117.84 100.202 117.87 106.058C118.045 139.396 118.198 168.189 112.118 181.396C103.027 201.116 79.4417 213.125 59.8494 221.387C59.8414 221.394 59.8302 221.4 59.8206 221.407C59.6752 221.508 59.5027 221.567 59.3301 221.567C59.3285 221.567 59.3269 221.567 59.3269 221.567C59.3029 221.57 59.279 221.57 59.255 221.57Z" fill="#003B5C"/>
<path d="M59.5138 141.586H107.079C107.331 132.316 107.277 121.849 107.218 110.783C107.196 106.086 107.171 101.267 107.168 96.3667C107.069 96.3683 106.969 96.3683 106.871 96.3683C92.9124 96.3683 66.75 86.1807 59.5138 83.2492V141.586ZM10.6748 143.199C11.165 159.141 12.5802 168.87 15.2488 174.682C22.6231 190.746 41.7681 200.757 57.9938 207.701V143.199H10.6748ZM58.7871 209.707C58.684 209.707 58.5793 209.686 58.4809 209.645C41.7649 202.571 21.5792 192.282 13.8066 175.354C11.0016 169.236 9.53723 159.081 9.06285 142.422C9.0565 142.206 9.1374 141.997 9.28813 141.842C9.43726 141.687 9.64194 141.6 9.85613 141.6H57.9272V82.168C57.9272 81.8657 58.0954 81.5939 58.3556 81.4579C58.5713 81.3092 58.8427 81.2564 59.0902 81.3524L58.8807 82.0417L58.9204 82.0977L59.2028 81.3987C64.8954 83.7337 93.9928 95.3336 107.928 94.7466C108.14 94.7354 108.354 94.8186 108.51 94.9689C108.667 95.1193 108.754 95.3288 108.754 95.5463C108.754 100.726 108.781 105.817 108.805 110.775C108.865 122.164 108.921 132.922 108.643 142.409C108.63 142.843 108.278 143.185 107.85 143.185H59.5804V208.907C59.5804 209.174 59.4471 209.424 59.225 209.573C59.0933 209.661 58.941 209.707 58.7871 209.707Z" fill="#003B5C"/>
<path d="M58.7843 209.707C58.6309 209.707 58.476 209.662 58.3434 209.574C58.1197 209.426 57.9855 209.176 57.9855 208.907V143.188H9.36939C8.93643 143.188 8.58175 142.844 8.57057 142.412C8.29897 132.963 8.35489 122.26 8.414 110.927C8.44116 105.921 8.46674 100.779 8.46674 95.5456C8.46674 95.3281 8.55617 95.1202 8.71274 94.9698C8.86931 94.8195 9.09301 94.7283 9.3007 94.7475C23.5356 95.3681 54.0377 83.1537 58.2059 81.4552C58.2491 81.4248 58.297 81.3976 58.345 81.3768C58.4855 81.316 58.6325 81.292 58.7795 81.3096C58.9137 81.3144 59.0447 81.3512 59.1597 81.4216C59.2332 81.468 59.3004 81.5224 59.3563 81.5847C59.5208 81.7415 59.639 81.9542 59.639 82.1669V141.598H108.055C108.271 141.598 108.479 141.686 108.629 141.841C108.779 141.996 108.861 142.206 108.854 142.422C108.37 159.082 106.897 169.24 104.072 175.354C96.2409 192.295 75.9205 202.579 59.0942 209.645C58.9936 209.688 58.8897 209.707 58.7843 209.707Z" fill="#FABF00"/>
<path d="M10.1459 141.588H58.0414V83.2481C50.7657 86.1829 24.4926 96.3693 10.3711 96.3693C10.2673 96.3693 10.1666 96.3693 10.0644 96.3677C10.0612 101.321 10.0372 106.189 10.0116 110.935C9.95412 121.943 9.89982 132.358 10.1459 141.588ZM59.5831 143.197V207.703C75.9174 200.765 95.1897 190.759 102.622 174.682C105.304 168.874 106.733 159.145 107.233 143.197H59.5831ZM58.7843 209.707C58.6309 209.707 58.476 209.662 58.3434 209.574C58.1197 209.426 57.9855 209.176 57.9855 208.907V143.188H9.36939C8.93643 143.188 8.58175 142.844 8.57057 142.412C8.29897 132.963 8.35489 122.26 8.414 110.927C8.44116 105.921 8.46674 100.779 8.46674 95.5456C8.46674 95.3281 8.55617 95.1202 8.71274 94.9698C8.86931 94.8195 9.09301 94.7283 9.3007 94.7475C23.5356 95.3681 54.0377 83.1537 58.2059 81.4552C58.2491 81.4248 58.297 81.3976 58.345 81.3768C58.4855 81.316 58.6325 81.292 58.7795 81.3096C58.9137 81.3144 59.0447 81.3512 59.1597 81.4216C59.2332 81.468 59.3004 81.5224 59.3563 81.5847C59.5208 81.7415 59.639 81.9542 59.639 82.1669V141.598H108.055C108.271 141.598 108.479 141.686 108.629 141.841C108.779 141.996 108.861 142.206 108.854 142.422C108.37 159.082 106.897 169.24 104.072 175.354C96.2409 192.295 75.9205 202.579 59.0942 209.645C58.9936 209.688 58.8897 209.707 58.7843 209.707Z" fill="#003B5C"/>
<path d="M281.571 219.473C261.978 219.473 242.143 216.697 242.143 211.394V193.04C242.143 192.606 242.502 192.257 242.944 192.257C243.386 192.257 243.745 192.606 243.745 193.04V211.394C243.745 214.114 258.134 217.906 281.571 217.906C305.007 217.906 319.396 214.114 319.396 211.394V193.04C319.396 192.606 319.755 192.257 320.197 192.257C320.641 192.257 320.999 192.606 320.999 193.04V211.394C320.999 216.697 301.163 219.473 281.571 219.473Z" fill="#003B5C"/>
<path d="M281.571 201.332C261.978 201.332 242.143 198.443 242.143 192.924C242.143 191.448 243.433 190.175 246.086 189.03C246.49 188.857 246.966 189.046 247.135 189.462C247.31 189.876 247.118 190.356 246.712 190.53C244.853 191.332 243.745 192.227 243.745 192.924C243.745 195.754 258.134 199.702 281.571 199.702C305.007 199.702 319.396 195.754 319.396 192.924C319.396 192.64 319.151 191.616 315.979 190.344C315.568 190.178 315.366 189.705 315.528 189.286C315.69 188.867 316.158 188.665 316.569 188.826C319.55 190.023 320.999 191.363 320.999 192.924C320.999 198.443 301.163 201.332 281.571 201.332Z" fill="#003B5C"/>
<path d="M281.571 195.75C261.978 195.75 242.143 192.834 242.143 187.259V167.962C242.143 167.507 242.502 167.138 242.944 167.138C243.386 167.138 243.745 167.507 243.745 167.962V187.259C243.745 190.118 258.134 194.103 281.571 194.103C305.007 194.103 319.396 190.118 319.396 187.259V167.962C319.396 167.507 319.755 167.138 320.197 167.138C320.641 167.138 320.999 167.507 320.999 167.962V187.259C320.999 192.834 301.163 195.75 281.571 195.75Z" fill="#003B5C"/>
<path d="M281.571 176.211C261.978 176.211 242.143 173.485 242.143 168.276C242.143 167.147 243.037 166.109 244.8 165.192C245.188 164.99 245.675 165.127 245.887 165.501C246.098 165.875 245.953 166.343 245.565 166.544C244.407 167.146 243.745 167.776 243.745 168.276C243.745 170.947 258.134 174.673 281.571 174.673C305.007 174.673 319.396 170.947 319.396 168.276C319.396 167.761 318.699 167.112 317.479 166.495C317.088 166.296 316.937 165.83 317.144 165.455C317.352 165.078 317.84 164.938 318.227 165.133C320.066 166.066 320.999 167.122 320.999 168.276C320.999 173.485 301.163 176.211 281.571 176.211Z" fill="#003B5C"/>
<path d="M273.896 184.691C273.357 184.691 272.921 185.114 272.921 185.632C272.921 186.15 273.357 186.572 273.896 186.572C274.433 186.572 274.87 186.15 274.87 185.632C274.87 185.114 274.433 184.691 273.896 184.691ZM273.896 188.074C272.548 188.074 271.453 186.979 271.453 185.632C271.453 184.284 272.548 183.189 273.896 183.189C275.243 183.189 276.338 184.284 276.338 185.632C276.338 186.979 275.243 188.074 273.896 188.074Z" fill="#003B5C"/>
<path d="M281.921 184.691C281.306 184.691 280.806 185.114 280.806 185.632C280.806 186.15 281.306 186.572 281.921 186.572C282.535 186.572 283.035 186.15 283.035 185.632C283.035 185.114 282.535 184.691 281.921 184.691ZM281.921 188.074C280.382 188.074 279.129 186.979 279.129 185.632C279.129 184.284 280.382 183.189 281.921 183.189C283.461 183.189 284.712 184.284 284.712 185.632C284.712 186.979 283.461 188.074 281.921 188.074Z" fill="#003B5C"/>
<path d="M281.921 209.113C281.306 209.113 280.806 209.536 280.806 210.054C280.806 210.572 281.306 210.994 281.921 210.994C282.535 210.994 283.035 210.572 283.035 210.054C283.035 209.536 282.535 209.113 281.921 209.113ZM281.921 212.496C280.382 212.496 279.129 211.401 279.129 210.054C279.129 208.707 280.382 207.611 281.921 207.611C283.461 207.611 284.712 208.707 284.712 210.054C284.712 211.401 283.461 212.496 281.921 212.496Z" fill="#003B5C"/>
<path d="M289.944 209.113C289.407 209.113 288.969 209.536 288.969 210.054C288.969 210.572 289.407 210.994 289.944 210.994C290.482 210.994 290.919 210.572 290.919 210.054C290.919 209.536 290.482 209.113 289.944 209.113ZM289.944 212.496C288.598 212.496 287.502 211.401 287.502 210.054C287.502 208.707 288.598 207.611 289.944 207.611C291.291 207.611 292.387 208.707 292.387 210.054C292.387 211.401 291.291 212.496 289.944 212.496Z" fill="#003B5C"/>
<path d="M281.571 170.625C261.978 170.625 242.143 167.851 242.143 162.548V144.192C242.143 143.76 242.502 143.409 242.944 143.409C243.386 143.409 243.745 143.76 243.745 144.192V162.548C243.745 165.268 258.134 169.059 281.571 169.059C305.007 169.059 319.396 165.268 319.396 162.548V144.192C319.396 143.76 319.755 143.409 320.197 143.409C320.641 143.409 320.999 143.76 320.999 144.192V162.548C320.999 167.851 301.163 170.625 281.571 170.625Z" fill="#003B5C"/>
<path d="M281.571 152.484C261.978 152.484 242.143 149.597 242.143 144.077C242.143 140.367 250.893 138.291 258.234 137.204C258.665 137.127 259.078 137.447 259.143 137.892C259.205 138.339 258.904 138.753 258.466 138.816C246.845 140.538 243.745 142.934 243.745 144.077C243.745 146.907 258.134 150.854 281.571 150.854C305.007 150.854 319.396 146.907 319.396 144.077C319.396 142.91 316.203 140.473 304.236 138.753C303.798 138.691 303.492 138.278 303.555 137.832C303.616 137.386 304.015 137.082 304.462 137.139C312.007 138.223 320.999 140.308 320.999 144.077C320.999 149.597 301.163 152.484 281.571 152.484Z" fill="#003B5C"/>
<path d="M273.896 159.57C273.357 159.57 272.921 159.993 272.921 160.511C272.921 161.029 273.357 161.451 273.896 161.451C274.433 161.451 274.87 161.029 274.87 160.511C274.87 159.993 274.433 159.57 273.896 159.57ZM273.896 162.953C272.548 162.953 271.453 161.858 271.453 160.511C271.453 159.164 272.548 158.068 273.896 158.068C275.243 158.068 276.338 159.164 276.338 160.511C276.338 161.858 275.243 162.953 273.896 162.953Z" fill="#003B5C"/>
<path d="M289.944 159.57C289.407 159.57 288.969 159.993 288.969 160.511C288.969 161.029 289.407 161.451 289.944 161.451C290.482 161.451 290.919 161.029 290.919 160.511C290.919 159.993 290.482 159.57 289.944 159.57ZM289.944 162.953C288.598 162.953 287.502 161.858 287.502 160.511C287.502 159.164 288.598 158.068 289.944 158.068C291.291 158.068 292.387 159.164 292.387 160.511C292.387 161.858 291.291 162.953 289.944 162.953Z" fill="#003B5C"/>
<path d="M281.92 148.992C272.265 148.992 254.006 147.732 254.006 142.961C254.006 141.541 255.53 140.383 258.665 139.418C259.083 139.288 259.523 139.538 259.648 139.975C259.771 140.413 259.532 140.871 259.113 141C256.222 141.891 255.588 142.717 255.588 142.961C255.588 144.448 264.882 147.343 281.92 147.343C298.957 147.343 308.251 144.448 308.251 142.961C308.251 142.691 307.523 141.788 304.196 140.843C303.775 140.724 303.526 140.271 303.64 139.832C303.754 139.393 304.182 139.129 304.612 139.253C308.173 140.262 309.833 141.442 309.833 142.961C309.833 147.732 291.574 148.992 281.92 148.992Z" fill="#003B5C"/>
<path d="M281.437 148.992C264.193 148.992 258.887 146.687 258.671 146.589C258.38 146.458 258.193 146.164 258.193 145.842V136.55C258.193 136.097 258.553 135.733 259 135.733C259.445 135.733 259.806 136.097 259.806 136.55V145.269C261.427 145.797 267.421 147.359 281.437 147.359C295.577 147.359 302.226 145.769 304.034 145.243V136.55C304.034 136.097 304.395 135.733 304.84 135.733C305.287 135.733 305.647 136.097 305.647 136.55V145.842C305.647 146.184 305.44 146.487 305.124 146.607C304.868 146.705 298.655 148.992 281.437 148.992Z" fill="#003B5C"/>
<path d="M281.921 133.055C267.611 133.055 259.806 135.289 259.806 136.435C259.806 137.582 267.611 139.815 281.921 139.815C296.229 139.815 304.034 137.582 304.034 136.435C304.034 135.289 296.229 133.055 281.921 133.055ZM281.921 141.32C273.714 141.32 258.193 140.3 258.193 136.435C258.193 132.571 273.714 131.551 281.921 131.551C290.126 131.551 305.647 132.571 305.647 136.435C305.647 140.3 290.126 141.32 281.921 141.32Z" fill="#003B5C"/>
<path d="M273.548 207.181C272.13 207.181 270.977 208.313 270.977 209.707C270.977 211.1 272.13 212.234 273.548 212.234C274.965 212.234 276.116 211.1 276.116 209.707C276.116 208.313 274.965 207.181 273.548 207.181ZM273.548 213.895C271.239 213.895 269.359 212.015 269.359 209.707C269.359 207.398 271.239 205.52 273.548 205.52C275.856 205.52 277.733 207.398 277.733 209.707C277.733 212.015 275.856 213.895 273.548 213.895Z" fill="#003B5C"/>
<path d="M289.596 183.45C288.179 183.45 287.028 184.584 287.028 185.977C287.028 187.37 288.179 188.504 289.596 188.504C291.013 188.504 292.167 187.37 292.167 185.977C292.167 184.584 291.013 183.45 289.596 183.45ZM289.596 190.164C287.288 190.164 285.41 188.286 285.41 185.977C285.41 183.668 287.288 181.79 289.596 181.79C291.906 181.79 293.784 183.668 293.784 185.977C293.784 188.286 291.906 190.164 289.596 190.164Z" fill="#003B5C"/>
<path d="M281.921 158.325C280.503 158.325 279.35 159.459 279.35 160.852C279.35 162.245 280.503 163.379 281.921 163.379C283.338 163.379 284.489 162.245 284.489 160.852C284.489 159.459 283.338 158.325 281.921 158.325ZM281.921 165.039C279.612 165.039 277.732 163.161 277.732 160.852C277.732 158.543 279.612 156.665 281.921 156.665C284.229 156.665 286.107 158.543 286.107 160.852C286.107 163.161 284.229 165.039 281.921 165.039Z" fill="#003B5C"/>
<path d="M309.641 56.1289H313.534C316.239 56.1289 318.441 53.8783 318.441 51.1104V6.01789C318.441 3.25155 316.239 0.99934 313.534 0.99934H288.643C286.937 0.99934 285.388 1.87243 284.509 3.31623L278.795 12.1585L279.379 56.1289H309.641Z" fill="#FABF00"/>
<path d="M313.535 56.1289H309.641C309.203 56.1289 308.851 55.7684 308.851 55.3205C308.851 54.8743 309.203 54.5121 309.641 54.5121H313.535C315.368 54.5121 316.86 52.9858 316.86 51.1104V6.01789C316.86 4.1424 315.368 2.61614 313.535 2.61614H288.643C287.487 2.61614 286.439 3.20465 285.84 4.18928L280.113 13.051C279.873 13.4244 279.381 13.5247 279.019 13.2789C278.654 13.0332 278.555 12.532 278.795 12.1585L284.509 3.31622C285.388 1.87243 286.937 0.99934 288.643 0.99934H313.535C316.239 0.99934 318.441 3.25154 318.441 6.01789V51.1104C318.441 53.8783 316.239 56.1289 313.535 56.1289Z" fill="#003B5C"/>
<path d="M265.984 15.1562H254.906C254.38 15.1562 253.957 14.892 253.957 14.5664C253.957 14.2396 254.38 13.9766 254.906 13.9766H265.984C266.508 13.9766 266.934 14.2396 266.934 14.5664C266.934 14.892 266.508 15.1562 265.984 15.1562Z" fill="#003B5C"/>
<path d="M252.262 15.2227C249.88 15.2227 247.944 17.1604 247.944 19.5418C247.944 21.9216 249.88 23.8593 252.262 23.8593C254.643 23.8593 256.58 21.9216 256.58 19.5418C256.58 17.1604 254.643 15.2227 252.262 15.2227ZM252.262 25.4727C248.993 25.4727 246.33 22.8122 246.33 19.5418C246.33 16.2698 248.993 13.6093 252.262 13.6093C255.531 13.6093 258.193 16.2698 258.193 19.5418C258.193 22.8122 255.531 25.4727 252.262 25.4727Z" fill="#003B5C"/>
<path d="M306.487 58.2227H245.956C243.212 58.2227 240.98 55.9991 240.98 53.2662V8.74736C240.98 6.01452 243.212 3.79093 245.956 3.79093H271.196C272.927 3.79093 274.51 4.66568 275.423 6.12947L281.165 14.7781C281.305 14.9984 281.484 15.1069 281.699 15.1069H306.487C309.231 15.1069 311.463 17.329 311.463 20.0618V53.2662C311.463 55.9991 309.231 58.2227 306.487 58.2227Z" fill="white"/>
<path d="M245.956 5.38722C244.097 5.38722 242.583 6.89408 242.583 8.74737V53.2662C242.583 55.1195 244.097 56.6264 245.956 56.6264H306.487C308.346 56.6264 309.86 55.1195 309.86 53.2662V20.0618C309.86 18.2085 308.346 16.7032 306.487 16.7032H281.699C280.937 16.7032 280.234 16.3058 279.817 15.6402L274.074 6.99146C273.442 5.97941 272.371 5.38722 271.196 5.38722H245.956ZM306.487 58.2227H245.956C243.212 58.2227 240.98 55.9991 240.98 53.2662V8.74737C240.98 6.01453 243.212 3.79093 245.956 3.79093H271.196C272.927 3.79093 274.51 4.66568 275.423 6.12947L281.165 14.7781C281.305 14.9984 281.484 15.1069 281.699 15.1069H306.487C309.231 15.1069 311.463 17.329 311.463 20.0618V53.2662C311.463 55.9991 309.231 58.2227 306.487 58.2227Z" fill="#003B5C"/>
<path d="M244.52 12.8008L252.777 6.90234" stroke="#173773" stroke-width="0.471875" stroke-linecap="round"/>
<path d="M244.52 17.5195L258.676 6.90234" stroke="#173773" stroke-width="0.471875" stroke-linecap="round"/>
<path d="M244.52 23.418L265.754 6.90234" stroke="#173773" stroke-width="0.471875" stroke-linecap="round"/>
<path d="M244.52 29.3125L272.242 7.48828" stroke="#173773" stroke-width="0.471875" stroke-linecap="round"/>
<path d="M244.52 35.8047L274.602 12.2109" stroke="#173773" stroke-width="0.471875" stroke-linecap="round"/>
<path d="M244.52 42.8828L278.141 16.9297" stroke="#173773" stroke-width="0.471875" stroke-linecap="round"/>
<path d="M244.52 49.957L283.449 19.875" stroke="#173773" stroke-width="0.471875" stroke-linecap="round"/>
<path d="M255.727 55.2617L302.914 18.6914" stroke="#173773" stroke-width="0.471875" stroke-linecap="round"/>
<path d="M263.984 55.2656L308.223 21.0547" stroke="#173773" stroke-width="0.471875" stroke-linecap="round"/>
<path d="M273.422 55.2656L308.223 28.1328" stroke="#173773" stroke-width="0.471875" stroke-linecap="round"/>
<path d="M282.268 55.2656L307.041 35.2109" stroke="#173773" stroke-width="0.471875" stroke-linecap="round"/>
<path d="M291.707 55.2695L307.043 42.293" stroke="#173773" stroke-width="0.471875" stroke-linecap="round"/>
<path d="M301.145 55.2656L308.223 49.3672" stroke="#173773" stroke-width="0.471875" stroke-linecap="round"/>
<path d="M246.879 54.6718L294.066 18.6914" stroke="#173773" stroke-width="0.471875" stroke-linecap="round"/>
</svg>
