<svg width="112" height="40" viewBox="0 0 112 40" fill="none" xmlns="http://www.w3.org/2000/svg">
<g clip-path="url(#clip0_1203_3461)">
<path d="M10.7838 8.45322C10.6076 5.30588 15.322 3.01882 18.9045 3.06603C20.8132 3.08963 22.2654 3.75057 22.0465 5.00426C21.9023 5.83831 21.0187 6.77988 19.8228 7.1392C19.4651 7.24936 19.3369 7.40148 19.3369 7.69523C19.3369 8.14897 20.7064 9.00662 21.8196 9.00662C24.361 9.00662 26.5874 7.32804 26.5874 4.90984C26.5847 2.04314 22.9381 0 18.9178 0C12.6871 0 6.10409 4.25939 6.10409 8.91745C6.10409 16.0855 17.9888 15.5872 17.9888 20.796C17.9888 24.3656 14.0593 27.13 9.86278 27.13C6.55524 27.13 4.2194 25.9183 4.2194 23.8358C4.2194 22.4169 5.99731 21.213 7.33741 21.213C8.09022 21.213 8.6348 21.6301 8.6348 22.2936C8.6348 23.1355 7.72716 23.0411 7.72716 23.8017C7.72716 24.4312 8.7229 25.1 10.1297 25.1C12.5323 25.1 13.8671 23.5604 13.8671 21.7822C13.8671 19.8151 11.7128 17.688 7.96742 17.7011C4.22207 17.7142 0.479397 20.3895 0.0442637 23.5158C-0.516337 27.568 4.10194 30.4242 9.60918 30.4242C15.7491 30.4242 23.0716 26.7523 23.1944 21.3127C23.3572 13.7066 11.0854 13.8142 10.7838 8.45322Z" fill="#253661"/>
<path d="M32.4825 12.1259C32.6369 12.1326 32.7902 12.0971 32.9254 12.0235C33.0607 11.9499 33.1725 11.8411 33.2487 11.7089C33.9645 10.356 34.8341 9.08726 35.8408 7.92685C35.9395 7.82382 35.9967 7.68899 36.0016 7.54756C36.0065 7.40613 35.9588 7.26778 35.8675 7.15838C35.1948 6.46596 34.4313 5.94141 33.553 5.94141C31.9353 5.94141 30.0586 8.33338 30.0586 10.0802C30.0586 11.4309 31.2012 11.9581 32.4825 12.1259Z" fill="#253661"/>
<path d="M54.9919 14.9492C53.8585 14.9311 52.7411 15.214 51.7577 15.768C50.7743 16.3219 49.9614 17.1264 49.4046 18.0965C49.7676 15.896 48.4889 14.4062 46.962 14.4062C46.479 14.4229 46.0035 14.5288 45.5605 14.7184C45.4993 14.7458 45.4447 14.7857 45.4003 14.8353C45.3559 14.885 45.3226 14.9433 45.3027 15.0064C45.2828 15.0695 45.2767 15.1361 45.2847 15.2017C45.2928 15.2673 45.3149 15.3305 45.3496 15.3872C45.7238 16.1488 45.9017 16.9892 45.8675 17.8342C45.8675 20.1659 43.7105 22.9644 43.4649 25.6449C43.27 27.8113 44.7169 28.4434 46.5749 28.3542C46.7111 28.3544 46.8423 28.3035 46.9415 28.2118C47.0408 28.1202 47.1006 27.9947 47.1088 27.8611C47.325 23.6909 50.1013 17.8945 53.0084 17.8945C53.3555 17.8945 53.521 18.1568 53.521 18.4768C53.5263 20.1292 50.7207 22.7362 50.7207 25.7026C50.7207 27.8585 51.6523 28.2939 53.2861 28.3988C53.577 28.4171 54.2898 28.1811 54.3245 27.8978C54.8584 23.4889 57.8403 20.1869 57.8403 17.6401C57.8068 16.9185 57.4926 16.237 56.9626 15.7363C56.4326 15.2355 55.7272 14.9538 54.9919 14.9492V14.9492Z" fill="#253661"/>
<path d="M80.4787 5.37339C80.4306 3.7394 79.1786 2.58276 77.5422 2.77422C77.3952 2.8094 77.2639 2.89061 77.1681 3.00559C77.0722 3.12057 77.0171 3.26307 77.011 3.41156C76.6826 8.76727 71.9575 16.9136 70.8417 21.8471C69.7739 16.9687 69.5069 10.9625 69.3441 5.7196C69.264 3.20436 68.06 2.29688 66.6745 2.29688C65.2891 2.29688 65.1849 2.75586 64.8513 3.89939C64.6991 4.42395 63.7487 8.00404 62.3152 11.752C61.0792 14.9675 59.7978 18.545 58.1961 21.9677C56.5944 25.3904 56.2954 26.6048 56.4316 27.3051C56.5677 28.0054 56.6158 28.4014 58.2735 28.4014C59.9313 28.4014 60.5506 27.1949 61.3275 25.2121C62.1684 23.0719 65.3077 13.5512 66.2634 11.6392C67.0963 23.8509 67.5982 28.7555 72.8331 28.3437C72.9795 28.3294 73.1152 28.2621 73.2138 28.155C73.3125 28.0479 73.3671 27.9085 73.367 27.7641C73.4124 19.3869 80.6655 11.1907 80.4787 5.37339Z" fill="#253661"/>
<path d="M39.5081 29.2061C40.5466 26.9348 41.5423 24.3907 42.5594 21.6577C42.6094 21.5216 42.6102 21.3727 42.5616 21.2361C42.513 21.0994 42.4179 20.9834 42.2924 20.9076C41.7953 20.6519 41.2503 20.4984 40.6907 20.4565C40.1568 20.4565 39.8898 20.6217 39.7217 21.0335C39.0783 22.5678 37.4819 25.9643 36.1472 25.9643C35.3864 25.9643 35.0313 25.2745 35.0313 24.3566C35.0313 21.9961 38.0719 17.4351 39.7537 17.4351C40.4344 17.4351 40.7494 17.7996 40.7494 18.416C40.7494 18.9405 40.5332 19.4966 41.1686 19.4966C42.3031 19.4966 43.1894 18.3714 43.1894 17.1203C43.1894 15.5467 41.3981 14.0464 39.6122 14.0464C35.3063 14.0464 31.6197 19.8926 31.6197 23.7507C31.6197 23.8294 31.6197 23.9107 31.6197 23.9894C31.1418 24.9231 30.3997 25.7991 29.7296 25.7991C29.153 25.7991 28.6618 25.3611 28.6618 24.5244C28.6618 22.5206 30.4824 18.2901 31.649 16.2469C31.7226 16.1122 31.7579 15.9606 31.7514 15.8078C31.7448 15.6551 31.6965 15.5069 31.6116 15.3788C30.8412 14.5001 29.7829 13.913 28.6191 13.7186C28.4661 13.6979 28.3102 13.7193 28.1689 13.7805C28.0275 13.8416 27.9061 13.94 27.8182 14.0648C26.3473 16.4253 24.7163 21.503 24.7163 24.0812C24.7163 26.6594 26.1258 28.4114 28.1119 28.4114C29.759 28.4114 31.1205 27.4331 32.0414 26.022C32.6341 27.5013 33.8193 28.4193 35.2689 28.4193C35.5346 28.4224 35.7979 28.3686 36.0404 28.2617C36.2829 28.1548 36.4988 27.9974 36.6731 27.8003C36.4942 28.2488 36.294 28.7523 36.0671 29.2926C33.6232 29.4472 31.223 30.003 28.9661 30.9371C25.6746 32.356 23.5684 34.3572 23.5684 36.2955C23.5684 38.6219 25.3409 39.9988 28.1066 39.9988C32.6608 39.9988 35.8028 36.5892 38.5497 31.202C41.9053 31.3568 45.3063 33.0012 46.9881 35.0995C47.0282 35.1411 47.0767 35.174 47.1305 35.1961C47.1843 35.2182 47.2422 35.2291 47.3005 35.228C48.4083 35.1388 49.0864 34.3572 49.0864 33.2793C49.0757 30.6067 42.9545 29.4028 39.5081 29.2061ZM32.7649 35.047C32.2271 35.6826 31.5562 36.1968 30.798 36.5548C30.0398 36.9128 29.2119 37.1061 28.3708 37.1216C27.4765 37.1216 26.649 36.6181 26.7878 35.8811C27.255 33.4183 30.8935 31.8525 35.1194 31.3594C34.4943 32.6813 33.7004 33.9196 32.7569 35.0444L32.7649 35.047Z" fill="#253661"/>
<path d="M111.541 14.9751C109.328 15.7147 105.815 15.5416 103.746 14.7128C103.479 14.6079 103.396 14.7128 103.479 14.9515C103.707 15.6281 103.819 16.3371 103.81 17.0497C103.81 19.7249 100.585 26.3632 98.4711 26.3632C98.1775 26.3632 97.9532 26.0117 97.9532 25.6629C97.9532 24.7397 99.288 22.5313 100.196 21.2042C100.277 21.0875 100.319 20.9484 100.315 20.8069C100.31 20.6654 100.26 20.529 100.172 20.4173C99.7126 19.9649 99.1013 19.6925 98.4524 19.6515C97.7797 19.6515 97.2058 19.7957 97.0803 20.4724C96.8053 21.928 94.5015 25.9645 93.2228 25.9645C92.7076 25.9645 92.5341 25.5658 92.5341 25.0177C92.5341 22.8486 95.9538 18.3322 98.5672 16.4884C98.6227 16.4546 98.6703 16.4096 98.7068 16.3565C98.7433 16.3033 98.7679 16.2431 98.779 16.1799C98.7901 16.1167 98.7874 16.0519 98.7711 15.9898C98.7549 15.9277 98.7254 15.8697 98.6847 15.8196C98.0787 15.1429 97.0403 14.5738 96.3168 14.5738C95.4172 14.5738 94.2293 15.497 93.1134 16.8608C91.832 18.0594 90.3344 19.3551 88.9329 20.1524C89.34 19.2055 89.5714 18.1947 89.6163 17.1677C89.6163 15.4734 88.6953 14.4531 87.0055 14.4531C86.3231 14.4666 85.6529 14.6334 85.0463 14.9408C84.4397 15.2481 83.9127 15.6878 83.5058 16.2261C82.8609 15.8491 82.1203 15.6599 81.3701 15.6806C79.6109 15.6806 75.6387 20.0606 75.6387 23.5856C75.6387 26.3737 77.1977 28.3775 79.8512 28.3775C83.0012 28.3775 85.9911 25.4924 87.8064 22.408C88.7825 22.0661 89.7143 21.6128 90.5827 21.0573C90.0277 22.2848 89.7152 23.6047 89.6617 24.9469C89.6617 27.011 91.3889 28.2463 93.092 28.2463C93.673 28.2436 94.2408 28.0764 94.7275 27.7647C95.2142 27.453 95.5992 27.0101 95.8363 26.4891C95.8363 27.6614 97.0563 28.3801 98.6233 28.3801C102.86 28.3801 106.768 22.2795 106.768 17.7814C108.786 18.306 111.651 16.7507 111.984 15.2924C112.054 15.017 111.797 14.8859 111.541 14.9751ZM80.2596 25.5029C79.6803 25.5029 79.2452 25.0964 79.2452 24.3594C79.2452 22.0959 81.1139 20.3098 82.5287 18.9827C82.5287 19.0561 82.5287 19.1243 82.5287 19.1977C82.5287 20.9891 83.3109 22.1143 84.4454 22.5654C83.1294 24.1286 81.5357 25.5029 80.2596 25.5029ZM85.7508 20.8055C85.1769 20.6167 84.8138 20.2259 84.8138 19.6908C84.8138 18.7309 85.911 17.7027 86.5464 17.7027C86.8667 17.7027 86.9681 17.9073 86.9681 18.2142C86.9681 18.6758 86.493 19.6698 85.7535 20.8055H85.7508Z" fill="#253661"/>
</g>
<defs>
<clipPath id="clip0_1203_3461">
<rect width="112" height="40" fill="white"/>
</clipPath>
</defs>
</svg>
