<svg width="133" height="40" viewBox="0 0 133 40" fill="none" xmlns="http://www.w3.org/2000/svg">
<g clip-path="url(#clip0_1203_3449)">
<path fill-rule="evenodd" clip-rule="evenodd" d="M44.7754 19.8734V13.7734H46.8754V10.1234L54.3754 7.77344V13.7734H65.5004L67.3504 21.1984L69.6504 13.7734H75.3504L77.6504 21.1984L79.5004 13.7734H93.8504V32.6734H86.2004V15.9099L81.1005 32.6734H74.9504L72.5004 24.7484L70.0504 32.6734H63.9004L58.6754 15.4989V19.8734H54.3754L54.3755 25.0234C54.8587 26.7234 57.1921 26.4484 58.6754 25.6734V31.5234C57.117 32.1817 55.1337 32.6734 54.3754 32.6734C47.2004 32.6734 46.8754 28.7568 46.8754 25.6734V19.8734H44.7754Z" fill="#253661"/>
<path d="M93.8492 7.77344H86.1992V12.7984H93.8492V7.77344Z" fill="#253661"/>
<path d="M103 7.77344H95.3496V32.6734H103V7.77344Z" fill="#253661"/>
<path d="M111.849 7.77344H104.199V12.7984H111.849V7.77344Z" fill="#253661"/>
<path d="M111.849 13.7773H104.199V32.6773H111.849V13.7773Z" fill="#253661"/>
<path fill-rule="evenodd" clip-rule="evenodd" d="M122.7 13.3984C128.333 13.3984 132.9 17.7133 132.9 23.036C132.9 28.3586 128.333 32.6734 122.7 32.6734C117.067 32.6734 112.5 28.3586 112.5 23.036C112.5 17.7133 117.067 13.3984 122.7 13.3984V13.3984ZM122.7 19.861C121.071 19.861 119.75 21.2825 119.75 23.036C119.75 24.7895 121.071 26.2109 122.7 26.2109C124.329 26.2109 125.65 24.7894 125.65 23.036C125.65 21.2825 124.329 19.861 122.7 19.861V19.861Z" fill="#253661"/>
<path fill-rule="evenodd" clip-rule="evenodd" d="M20 0C23.9556 0 27.8224 1.17298 31.1114 3.37061C34.4004 5.56824 36.9638 8.69181 38.4776 12.3463C39.9913 16.0009 40.3874 20.0222 39.6157 23.9018C38.844 27.7814 36.9392 31.3451 34.1421 34.1421C31.3451 36.9392 27.7814 38.844 23.9018 39.6157C20.0222 40.3874 16.0009 39.9913 12.3463 38.4776C8.69181 36.9638 5.56823 34.4004 3.37061 31.1114C1.17298 27.8224 0 23.9556 0 20C-4.78309e-06 17.3736 0.517307 14.7728 1.5224 12.3463C2.52749 9.91981 4.00068 7.71502 5.85785 5.85785C7.71503 4.00068 9.91981 2.52749 12.3463 1.5224C14.7728 0.517305 17.3736 -4.78309e-06 20 0V0ZM20.0001 5.29996C17.0927 5.29996 14.2506 6.16211 11.8332 7.77737C9.41581 9.39263 7.53168 11.6885 6.41907 14.3745C5.30647 17.0606 5.01536 20.0163 5.58257 22.8678C6.14977 25.7193 7.54981 28.3386 9.60564 30.3944C11.6615 32.4503 14.2808 33.8503 17.1323 34.4175C19.9838 34.9847 22.9395 34.6936 25.6255 33.581C28.3116 32.4684 30.6074 30.5843 32.2227 28.1669C33.838 25.7495 34.7001 22.9074 34.7001 20C34.7001 16.1013 33.1513 12.3623 30.3946 9.60552C27.6378 6.84873 23.8988 5.29997 20.0001 5.29996V5.29996Z" fill="#253661"/>
<path fill-rule="evenodd" clip-rule="evenodd" d="M15.0504 10.9492C15.8652 10.9542 16.6603 11.2003 17.3353 11.6565C18.0104 12.1128 18.5352 12.7587 18.8436 13.5129C19.152 14.2671 19.2302 15.0957 19.0682 15.8943C18.9062 16.6928 18.5114 17.4255 17.9335 17.9999C17.3556 18.5743 16.6206 18.9647 15.8211 19.1219C15.0216 19.279 14.1934 19.1959 13.4411 18.8829C12.6888 18.57 12.046 18.0413 11.5939 17.3634C11.1417 16.6856 10.9004 15.8891 10.9004 15.0743C10.9037 13.9769 11.3428 12.9259 12.1211 12.1523C12.8994 11.3787 13.9531 10.9459 15.0504 10.9492V10.9492Z" fill="#253661"/>
<path fill-rule="evenodd" clip-rule="evenodd" d="M24.9253 10.9492C25.7401 10.9542 26.5352 11.2003 27.2103 11.6565C27.8854 12.1127 28.4102 12.7587 28.7186 13.5129C29.027 14.2671 29.1052 15.0957 28.9432 15.8942C28.7812 16.6928 28.3864 17.4255 27.8085 17.9999C27.2306 18.5743 26.4956 18.9647 25.6961 19.1218C24.8966 19.279 24.0685 19.1959 23.3161 18.8829C22.5638 18.57 21.9211 18.0413 21.4689 17.3634C21.0167 16.6856 20.7754 15.8891 20.7754 15.0743C20.7787 13.9769 21.2178 12.9259 21.9961 12.1523C22.7743 11.3787 23.828 10.946 24.9253 10.9492V10.9492Z" fill="#253661"/>
<path d="M15.0504 29.1016C17.3424 29.1016 19.2004 27.2548 19.2004 24.9766C19.2004 22.6984 17.3424 20.8516 15.0504 20.8516C12.7584 20.8516 10.9004 22.6984 10.9004 24.9766C10.9004 27.2548 12.7584 29.1016 15.0504 29.1016Z" fill="#253661"/>
<path fill-rule="evenodd" clip-rule="evenodd" d="M24.9253 20.8516C25.7401 20.8565 26.5352 21.1026 27.2103 21.5588C27.8854 22.0151 28.4103 22.661 28.7187 23.4152C29.0271 24.1694 29.1053 24.9981 28.9433 25.7966C28.7813 26.5952 28.3865 27.3279 27.8086 27.9023C27.2307 28.4767 26.4956 28.8671 25.6961 29.0243C24.8966 29.1814 24.0685 29.0983 23.3162 28.7853C22.5638 28.4724 21.921 27.9436 21.4689 27.2658C21.0167 26.588 20.7754 25.7914 20.7754 24.9766C20.7787 23.8793 21.2178 22.8282 21.9961 22.0546C22.7743 21.281 23.828 20.8483 24.9253 20.8516V20.8516Z" fill="#253661"/>
</g>
<defs>
<clipPath id="clip0_1203_3449">
<rect width="132.9" height="40" fill="white"/>
</clipPath>
</defs>
</svg>
