<svg width="80" height="80" viewBox="0 0 80 80" fill="none" xmlns="http://www.w3.org/2000/svg">
<path fill-rule="evenodd" clip-rule="evenodd" d="M42.5483 14.5757C50.6405 17.2706 42.6348 23.8475 37.554 21.5042C33.0019 19.4051 34.4566 11.8808 42.5483 14.5757ZM54.4202 61.0683L24.8027 60.8878L30.2393 79.3594H49.4274L54.4202 61.0683Z" fill="#FABF00"/>
<path fill-rule="evenodd" clip-rule="evenodd" d="M49.4435 1.05629C44.1228 0.271778 42.2544 4.15302 41.6049 7.27025C41.4159 8.17707 41.3302 9.01922 41.2925 9.66306C41.2674 10.0941 41.2638 10.4363 41.2653 10.6494L41.2653 10.6522C41.2654 10.665 41.2403 10.6658 41.2386 10.6531L41.2385 10.6524C41.1957 10.3381 41.1457 10.0115 41.0882 9.67604C40.9576 8.91409 40.7887 8.10686 40.5799 7.29648C39.3042 2.34549 36.5405 -2.72291 31.9451 1.6996C28.0194 5.47753 29.9314 9.31482 31.5511 11.3789C31.7995 11.6955 32.041 11.9703 32.2535 12.1968C32.5883 12.5537 32.8512 12.7906 32.9558 12.8819L32.9647 12.8897C32.9721 12.896 32.9621 12.9042 32.9525 12.9038C32.9509 12.9037 32.9494 12.9034 32.948 12.9029C32.6313 12.7859 32.3218 12.6771 32.0193 12.5761C31.6587 12.4558 31.3081 12.3467 30.9674 12.2484C20.2294 9.15079 19.3014 16.7776 22.88 20.868C24.8126 23.0771 27.1343 23.4615 28.9469 23.3072C29.7224 23.2411 30.4047 23.0764 30.9234 22.9139C31.1133 22.8544 31.2812 22.7951 31.4238 22.7411C31.2751 22.8174 31.1213 22.9058 30.9638 23.0052C30.4593 23.3238 29.917 23.756 29.3845 24.2669C26.413 27.1184 23.7472 32.4233 29.6454 34.1336C34.9101 35.6599 37.6239 32.263 38.8149 29.9579C38.8316 29.9257 38.848 29.8937 38.864 29.8619C38.9295 37.1965 38.8781 44.5793 38.7105 51.955C35.2734 45.701 32.2826 41.4342 25.3544 37.5032C20.9556 35.0074 15.7871 33.7396 10.7888 32.5136L10.7876 32.5134C10.542 32.4534 10.2839 32.5433 10.1311 32.7444C9.97756 32.9447 9.95709 33.2174 10.0792 33.4382C10.8439 34.8244 11.5334 36.1909 12.1994 37.512C15.1524 43.3667 17.7032 48.4231 24.8711 51.9376C27.3518 53.1533 30.6572 53.4986 33.8543 53.8319L33.8589 53.8324C35.5743 54.0115 37.2008 54.1813 38.6487 54.4757C38.6261 55.3351 38.6019 56.1943 38.5762 57.0532C38.5328 57.1778 38.5302 57.3103 38.5647 57.4331C38.5351 58.4007 38.5036 59.3678 38.4701 60.3345L24.8059 60.2513H24.8022C24.6026 60.2513 24.414 60.3447 24.2941 60.504C24.1727 60.6651 24.1347 60.8742 24.1925 61.0672L29.6291 79.5379C29.7088 79.8086 29.9573 79.9948 30.2388 79.9948H49.4269C49.7135 79.9948 49.965 79.8026 50.0404 79.5256L55.0331 61.2351C55.085 61.0453 55.0455 60.8413 54.9264 60.6839C54.8072 60.526 54.6215 60.4332 54.4234 60.4318L39.5787 60.3413C39.6086 59.4783 39.6369 58.6149 39.6636 57.7512C41.5131 57.0154 43.1666 56.4436 44.767 55.8901L44.7671 55.8901L44.7814 55.8851C48.88 54.468 52.4193 53.2434 56.5399 50.0654C56.6053 50.0149 56.6705 49.9641 56.7355 49.9131L56.7462 49.908C57.1184 49.615 57.4825 49.3122 57.8385 49.0007C57.84 48.9986 57.8422 48.9964 57.8437 48.9935L57.8449 48.9923C62.9828 44.4929 66.3503 38.1457 66.7448 32.0719C66.7594 31.8387 66.6461 31.6157 66.4479 31.4914C66.2505 31.3678 66.0005 31.3613 65.7973 31.476C63.3318 32.8666 61.1227 33.8 58.9867 34.7025L58.9833 34.7039C55.6202 36.1237 52.4442 37.4646 49.0167 40.3293C44.4097 44.18 41.8307 49.2887 39.7653 54.1658C39.9669 46.3593 40.0388 38.5388 39.9797 30.7697C40.6881 34.2216 42.6191 39.4187 47.6815 36.6333C53.0875 33.6587 50.5095 28.0636 48.8053 25.3574C48.6362 25.0888 48.4756 24.8487 48.3324 24.6424C48.0445 24.2279 47.8263 23.95 47.7481 23.8524L47.7424 23.8453C47.7357 23.837 47.7477 23.8279 47.7573 23.8324L47.758 23.8327C48.0638 23.9731 48.3654 24.1041 48.6627 24.2259C48.9346 24.3373 49.2028 24.441 49.4672 24.537C56.8742 27.2291 61.3041 23.9854 59.1771 17.9299C57.6327 13.5342 53.34 13.6246 50.708 14.1497C50.2809 14.2349 49.8975 14.3315 49.5767 14.4223C49.1162 14.5526 48.7847 14.6708 48.6378 14.7257L48.6362 14.7263C48.6251 14.7305 48.6155 14.7149 48.6252 14.7079L48.6285 14.7056C48.8654 14.5366 49.1195 14.3238 49.3833 14.0741C49.6422 13.829 49.9104 13.5484 50.1809 13.2389C53.3242 9.64204 56.774 2.13792 49.4435 1.05629ZM28.3529 22.3365C29.487 22.3193 30.4625 22.0314 31.0223 21.8237C31.1829 21.7434 31.3411 21.6737 31.4958 21.6158C31.6446 21.5601 31.8898 21.5101 32.1686 21.6026C32.4679 21.702 32.7217 21.9446 32.8178 22.2783C33.0095 22.9439 32.5192 23.3593 32.264 23.4753C32.1669 23.5194 32.0212 23.5827 31.8334 23.6552C31.2682 23.9543 30.5443 24.5032 29.8112 25.2515C28.9244 26.1568 28.1118 27.2648 27.618 28.3685C27.1169 29.4885 27.0015 30.4676 27.274 31.2189C27.5287 31.9211 28.2176 32.6784 29.9239 33.1732C31.5872 33.6554 32.9069 33.5803 33.9564 33.2385C35.0145 32.8939 35.8669 32.2554 36.5489 31.5089C37.9336 29.9935 38.5279 28.1304 38.6176 27.8258C38.7609 27.3388 39.2222 27.0651 39.6742 27.1046C40.136 27.1449 40.554 27.5108 40.5931 28.0356C40.6256 28.4715 40.8845 31.4137 41.9412 33.7423C42.4717 34.9113 43.1339 35.7681 43.9173 36.165C44.6288 36.5255 45.6505 36.6094 47.1995 35.7572C48.752 34.9028 49.474 33.8609 49.7665 32.8117C50.0691 31.7262 49.9451 30.5107 49.5728 29.294C48.8233 26.8444 47.1785 24.7398 46.9631 24.472C46.8025 24.2723 46.7009 23.9857 46.7549 23.6702C46.8046 23.3805 46.966 23.1784 47.1105 23.0601C47.3832 22.837 47.7928 22.7482 48.1747 22.9236C52.2749 24.8067 55.3256 24.8131 57.0003 23.8947C57.8069 23.4523 58.3389 22.7787 58.5739 21.8867C58.815 20.972 58.7594 19.7583 58.2336 18.2613C57.7682 16.9365 57.0403 16.1396 56.2281 15.6517C55.3969 15.1523 54.4103 14.9376 53.3921 14.9039C51.3349 14.8359 49.3875 15.5129 48.9866 15.6629C48.4278 15.8719 47.9582 15.5528 47.7685 15.2409C47.6686 15.0768 47.5966 14.8501 47.6289 14.5907C47.6641 14.3081 47.8166 14.0561 48.0452 13.8933C48.71 13.4199 49.6191 12.4638 50.481 11.2288C51.3359 10.0037 52.0889 8.58329 52.4925 7.22662C52.9024 5.84885 52.9094 4.68751 52.496 3.85052C52.1116 3.07235 51.2392 2.3321 49.2976 2.04559L42.2971 9.62177C42.2971 9.62174 42.2971 9.62171 42.2971 9.62169L49.2975 2.04557C47.52 1.78351 46.268 2.10927 45.361 2.68172C44.4376 3.26457 43.7714 4.16716 43.2954 5.22145C42.6027 6.75611 42.3707 8.48265 42.2971 9.62169L40.6173 11.4396C40.445 11.3011 40.2879 11.0836 40.2477 10.7878C39.8871 8.13655 39.0084 4.71919 37.6185 2.66632C36.9249 1.64184 36.2195 1.12564 35.5415 1.0239C34.8932 0.926586 33.9447 1.16315 32.6385 2.42013C31.3956 3.61628 30.8577 4.75881 30.6917 5.7764C30.5239 6.80479 30.721 7.80013 31.1055 8.71331C31.8883 10.5722 33.3761 11.9224 33.6204 12.1346C33.8322 12.3185 34.0271 12.6567 33.951 13.0745C33.8884 13.4184 33.6745 13.619 33.5555 13.7065C33.3262 13.8749 32.9714 13.9776 32.6014 13.8409C26.3752 11.5402 23.5799 12.6696 22.5911 14.0886C21.5358 15.6028 21.9115 18.2424 23.6326 20.2096C25.1333 21.925 26.8723 22.3589 28.3529 22.3365ZM38.1429 14.1175L40.6173 11.4396C40.6174 11.4396 40.6174 11.4396 40.6174 11.4396L38.1429 14.1175C39.2906 13.8821 40.7568 13.9778 42.5483 14.5745C50.6405 17.2694 42.6348 23.8462 37.554 21.5029C35.7838 20.6866 34.922 19.05 35.0055 17.5129L31.0223 21.8237L35.0055 17.5129C35.0893 15.9724 36.1227 14.5319 38.1429 14.1175ZM40.6174 11.4396L42.2971 9.62177C42.2682 10.0692 42.2637 10.426 42.2653 10.6449C42.268 11.0248 42.0652 11.3156 41.8395 11.4754C41.6414 11.6158 41.4352 11.6568 41.2849 11.6617C41.1325 11.6666 40.9352 11.6379 40.7398 11.524C40.699 11.5002 40.6578 11.4721 40.6174 11.4396ZM42.2324 15.5232C44.1424 16.1593 44.7818 16.9237 44.9442 17.4293C45.0952 17.8992 44.9479 18.5308 44.2706 19.2345C43.6051 19.9258 42.5558 20.527 41.377 20.8168C40.2023 21.1057 38.9903 21.0641 37.9728 20.5949L37.9727 20.5948C36.1672 19.7622 35.6516 17.9287 36.2229 16.6484C36.5027 16.0215 37.0656 15.4622 38.0002 15.1831C38.9517 14.8991 40.342 14.8937 42.2324 15.5232ZM65.3412 33.2928L65.3429 33.2936C65.3488 33.2509 65.3545 33.2083 65.3601 33.1656L65.2183 33.2405L65.2213 33.2416C64.4858 33.6283 63.7737 33.9778 63.0777 34.3032L63.0802 34.2987C61.8469 34.8749 60.6671 35.3735 59.5088 35.863L59.5087 35.863L59.4782 35.8759L59.4779 35.876L59.4778 35.8761C56.0629 37.3177 53.1137 38.5629 49.8326 41.3051C44.9897 45.3533 42.4476 50.9618 40.3259 56.1293C41.7582 55.5844 43.0786 55.1275 44.3653 54.6831L44.3676 54.6823C48.5244 53.2447 51.8081 52.1091 55.7635 49.0586C59.0635 46.5131 61.7129 43.1886 63.412 39.6116C64.3881 37.5554 65.0502 35.4158 65.3412 33.2928ZM11.8763 34.0918C12.3866 35.0591 12.8669 36.0103 13.3348 36.9395C16.1847 42.5896 18.6464 47.4689 25.4311 50.7955C27.7056 51.9108 30.8917 52.2437 33.974 52.5658L33.9741 52.5658L33.9859 52.5671C35.3385 52.7081 36.6362 52.8435 37.8535 53.0394C34.1043 46.1712 31.3415 42.3637 24.7263 38.6094C20.8807 36.427 16.3492 35.1995 11.8763 34.0918ZM48.9408 78.7219H30.7148L25.654 61.5285L53.5884 61.6995L48.9408 78.7219ZM27.9944 65.2844L28.1202 65.3261L28.2913 65.239C28.9595 64.3288 29.7052 63.466 30.508 62.6735C30.5913 62.5918 30.5921 62.4579 30.5095 62.374C30.4276 62.2914 30.293 62.2897 30.2097 62.3725C29.3916 63.1796 28.6305 64.0598 27.9491 64.9883C27.8804 65.0828 27.9001 65.215 27.9944 65.2844ZM28.5889 69.1103L28.7175 69.1543L28.8857 69.0708C30.5687 66.8752 32.3921 64.747 34.3062 62.7453C34.3866 62.661 34.3844 62.5265 34.2996 62.4454C34.2148 62.3651 34.0817 62.368 33.9998 62.452C32.0748 64.4648 30.2412 66.6048 28.5494 68.8136C28.4785 68.9063 28.496 69.0394 28.5889 69.1103ZM29.8115 72.2324L29.6711 72.179C29.5834 72.1016 29.5753 71.9679 29.6528 71.88L37.6352 62.859C37.7127 62.7696 37.8472 62.7625 37.9342 62.8407C38.0219 62.9181 38.0299 63.0527 37.9524 63.1397L29.9702 72.161L29.8115 72.2324ZM41.9825 63.2937C38.4984 67.1813 35.0795 71.2211 31.8173 75.3028L31.8178 75.303C31.7688 75.365 31.7198 75.426 31.6708 75.487L31.6665 75.4924L31.5013 75.5729L31.3689 75.5261C31.3167 75.4848 31.2893 75.4234 31.2891 75.3613C31.2887 75.3144 31.3038 75.2672 31.3353 75.2278C34.648 71.0744 38.1237 66.9642 41.6667 63.0102C41.7449 62.9231 41.8802 62.9159 41.9665 62.9942C42.0535 63.0724 42.0608 63.2061 41.9825 63.2937ZM33.4279 77.5134C33.4276 77.5051 33.4277 77.4969 33.4283 77.4887C33.4318 77.4428 33.4502 77.3976 33.4837 77.3606C37.5655 72.9228 41.5171 68.2611 45.229 63.506C45.3014 63.4132 45.4338 63.3972 45.5266 63.4686C45.6187 63.5411 45.6355 63.6747 45.5632 63.767C42.2858 67.9651 38.8221 72.0904 35.2473 76.0541L35.2478 76.0542C34.766 76.5886 34.282 77.12 33.7958 77.6487L33.6394 77.7175L33.4961 77.6612C33.4528 77.6212 33.4299 77.5677 33.4279 77.5134ZM38.2315 77.6398L39.8137 75.7117L50.0588 63.2304C50.1334 63.1396 50.1195 63.0064 50.0296 62.9314C49.9396 62.8574 49.8051 62.8705 49.7313 62.9613L37.9033 77.37C37.8715 77.4091 37.8558 77.4561 37.8555 77.5028C37.8548 77.5648 37.8811 77.6264 37.9325 77.6692L38.067 77.7175L38.2315 77.6398ZM42.4844 77.3215C42.4843 77.3145 42.4845 77.3075 42.485 77.3006C42.4882 77.26 42.503 77.2199 42.53 77.1854L50.1804 67.5202C50.2528 67.4288 50.3858 67.4136 50.4772 67.4859C50.5694 67.5581 50.5854 67.692 50.5123 67.784L44.303 75.6297L44.227 75.7257L42.8627 77.4503L42.696 77.53L42.5644 77.4846C42.5128 77.4433 42.4854 77.3829 42.4844 77.3215ZM46.22 77.2328C46.5558 76.6035 46.9237 75.9913 47.3217 75.3992C47.5698 75.03 47.8295 74.6685 48.1004 74.3155L48.1026 74.3135C48.3806 73.9517 48.6703 73.599 48.9712 73.2562C49.048 73.1676 49.1825 73.1591 49.2702 73.2364C49.3141 73.2751 49.3382 73.328 49.3417 73.3821C49.3424 73.3927 49.3423 73.4033 49.3414 73.4139C49.3378 73.4577 49.3206 73.5007 49.2893 73.5362C48.246 74.7248 47.3394 76.0366 46.5943 77.4331C46.5563 77.5048 46.4832 77.5456 46.4072 77.5456L46.3078 77.5207C46.236 77.482 46.195 77.4082 46.1953 77.3319C46.1953 77.2984 46.2033 77.2645 46.22 77.2328Z" fill="#103B63"/>
</svg>
