<svg width="80" height="80" viewBox="0 0 80 80" fill="none" xmlns="http://www.w3.org/2000/svg">
<g clip-path="url(#clip0_1203_2333)">
<path fill-rule="evenodd" clip-rule="evenodd" d="M47.1691 47.4914H72.338C73.8425 47.4914 75.0626 46.2652 75.0626 44.7515V30.4781C75.0626 28.9644 73.8425 27.7383 72.338 27.7383H47.1691C45.6646 27.7383 44.4453 28.9644 44.4453 30.4781V44.7515C44.4453 46.2652 45.6646 47.4914 47.1691 47.4914ZM58.4996 37.2763C58.9094 37.5181 59.2598 37.9102 59.2598 38.3861V41.0725C59.2598 41.3453 59.4809 41.5664 59.7536 41.5664C60.0263 41.5664 60.2474 41.3453 60.2474 41.0725V38.3841C60.2474 37.9088 60.597 37.517 61.0062 37.2752C61.7336 36.8455 62.2215 36.0537 62.2215 35.1484C62.2215 33.7846 61.1156 32.6789 59.7516 32.6789C58.3884 32.6789 57.2832 33.7846 57.2832 35.1484C57.2832 36.0545 57.7716 36.8469 58.4996 37.2763Z" fill="#FABF00"/>
<path fill-rule="evenodd" clip-rule="evenodd" d="M68.9723 28.7398H67.9723H51.532H50.532H49.3945H48.3945H47.1691C46.2224 28.7398 45.4453 29.5128 45.4453 30.4796V44.7531C45.4453 45.72 46.2224 46.4929 47.1691 46.4929H72.3381C73.2851 46.4929 74.0626 45.7196 74.0626 44.7531V30.4796C74.0626 29.5132 73.2851 28.7398 72.3381 28.7398H71.1106H70.1106H68.9723ZM67.9723 19.1322C67.9723 14.6895 64.2855 11.0753 59.7526 11.0753C55.2196 11.0753 51.532 14.6895 51.532 19.1322V23.0725C53.2364 23.3367 54.8719 23.858 56.3586 24.6359C57.9767 25.4646 59.4087 26.526 60.6472 27.7383H59.1717C58.1909 26.8888 57.0998 26.139 55.9027 25.5259L55.9027 25.526L55.895 25.5219C54.5545 24.8206 53.0773 24.3405 51.532 24.0853V26.7398V27.7398H52.532H66.9723H67.9723V26.7398V19.1322ZM48.3945 19.1322C48.3945 12.9941 53.4892 8 59.7526 8C66.0159 8 71.1106 12.9941 71.1106 19.1322V26.7398V27.7398H72.1106H72.3381C73.8425 27.7398 75.0626 28.966 75.0626 30.4796V44.7531C75.0626 45.5795 74.6989 46.3201 74.1239 46.8224C75.274 47.5012 76.2793 48.3172 77.1092 49.2149C77.7287 49.886 78.2652 50.6137 78.6262 51.3899C78.9854 52.1635 79.2527 52.9402 79.4338 53.7007C79.8074 55.2202 79.9401 56.6454 79.9867 57.921C80.0684 60.4783 79.759 62.4501 79.4804 63.7552C79.33 64.4074 79.1992 64.8974 79.0778 65.2257C79.0613 65.2736 79.0459 65.3178 79.0316 65.3583C78.956 65.5728 78.7598 65.7167 78.5325 65.7213C78.3472 65.7235 78.1097 65.7267 77.8182 65.7305L77.4199 65.7358C76.8212 65.7399 76.06 65.745 75.1421 65.751L75.1235 65.7512L73.0864 65.7647C69.2805 65.7779 63.7602 65.7974 56.8322 65.8219L37.7095 65.8516H37.7072L37.6778 65.8516C26.8474 65.8685 14.3461 65.8879 0.734158 65.9087L0.733849 65.7068L0.732629 64.9087L0.729987 64.9087L0.733316 65.7069L0.734158 65.9087C0.644763 65.9091 0.56559 65.8492 0.540449 65.7634C-0.621237 61.7991 0.0882181 57.1543 2.68456 53.6019C5.02523 50.3976 8.88471 48.2447 12.9892 47.9501C13.0625 47.9449 13.1359 47.9402 13.2094 47.9361C13.4759 47.9214 13.7433 47.9145 14.0113 47.9156H14.0114C13.9449 47.6605 13.8868 47.399 13.8377 47.1327C13.8244 47.0609 13.8118 46.9888 13.7998 46.9163C13.6669 46.1106 13.6144 45.2653 13.6523 44.4216C13.8253 40.085 16.2908 35.8967 20.0759 33.9577C23.4332 32.1849 27.4984 32.0644 30.8565 33.4839C30.9007 33.5026 30.9448 33.5216 30.9888 33.5408C31.2508 33.6553 31.5083 33.7794 31.7607 33.9128L31.7607 33.9127C31.8733 33.6488 31.9923 33.3888 32.1174 33.1329C32.1385 33.0898 32.1597 33.0469 32.1811 33.0041C34.3511 28.6631 38.301 25.5101 42.5586 23.9849C44.4559 23.2956 46.4379 22.9259 48.3945 22.875V19.1322ZM48.3945 23.8753C46.5579 23.9257 44.692 24.2738 42.9001 24.9248L42.8959 24.9263C38.7016 26.4288 34.8458 29.588 32.8595 33.9014C32.9016 34.3587 32.6528 34.8375 32.1529 35.0153C31.6497 35.1943 31.1604 34.9799 30.9053 34.6019C27.7464 33.0957 23.7829 33.131 20.5428 34.842L20.5429 34.842L20.5318 34.8477C17.0994 36.6061 14.8116 40.4488 14.6516 44.4615L14.6513 44.4665C14.6091 45.4058 14.6893 46.3455 14.8732 47.2147C15.2486 47.5771 15.3445 48.1984 14.9796 48.668C14.6164 49.1354 13.9865 49.1996 13.5412 48.9224C9.55357 49.0548 5.75047 51.1001 3.49206 54.1918L3.49191 54.192C1.20772 57.3173 0.496618 61.3653 1.34713 64.9078C14.6531 64.8874 26.8843 64.8684 37.5137 64.8519L37.7062 64.8516L56.8297 64.8219C63.7562 64.7974 69.2757 64.7779 73.0813 64.7647L75.117 64.7512C76.0416 64.7451 76.8078 64.74 77.4099 64.7358L77.8041 64.7306L78.1927 64.7255C78.2792 64.4586 78.3813 64.0705 78.5041 63.5383C78.7698 62.2918 79.0654 60.4066 78.9873 57.9555C78.9422 56.7226 78.8146 55.3706 78.4627 53.9394L78.461 53.9324C78.2957 53.2384 78.0507 52.5252 77.7195 51.8116C77.4154 51.1578 76.9487 50.5154 76.3744 49.8932C75.4883 48.9348 74.3783 48.0713 73.0872 47.3881C72.8491 47.4563 72.5978 47.4929 72.3381 47.4929H47.1691C45.6646 47.4929 44.4453 46.2668 44.4453 44.7531V30.4796C44.4453 28.966 45.6646 27.7398 47.1691 27.7398H47.3945H48.3945V26.7398V23.8753ZM59.7526 9C54.023 9 49.3945 13.5646 49.3945 19.1322V26.7398V27.7398H49.532H50.3945H50.532V26.7398V19.1322C50.532 14.1176 54.6871 10.0753 59.7526 10.0753C64.8181 10.0753 68.9723 14.1178 68.9723 19.1322V26.7398V27.7398H69.1106H69.9723H70.1106V26.7398V19.1322C70.1106 13.5646 65.4821 9 59.7526 9ZM46.9502 29.9127C46.998 29.885 47.0592 29.9012 47.0869 29.949C48.8392 32.9682 51.3374 36.7156 53.3986 39.7095C54.4289 41.2062 55.3497 42.514 56.0128 43.4477C56.3444 43.9145 56.6116 44.2877 56.7958 44.5443C56.888 44.6725 56.9594 44.7716 57.0077 44.8386L57.0627 44.9147L57.0767 44.934L57.0802 44.9389L57.0811 44.9401L57.0813 44.9404C57.0813 44.9405 57.0814 44.9405 57.0004 44.9992L57.0814 44.9405C57.1138 44.9852 57.1038 45.0477 57.0591 45.0801C57.0144 45.1126 56.9519 45.1026 56.9194 45.0579L56.9994 44.9999C56.9194 45.0579 56.9194 45.0578 56.9194 45.0578L56.9191 45.0574L56.9182 45.0562L56.9147 45.0513L56.9006 45.0319L56.8456 44.9557C56.7971 44.8885 56.7256 44.7893 56.6334 44.6609C56.449 44.4042 56.1816 44.0306 55.8498 43.5635C55.1862 42.6292 54.2649 41.3206 53.2338 39.8229C51.1722 36.8282 48.6703 33.0756 46.9139 30.0494C46.8862 30.0016 46.9024 29.9404 46.9502 29.9127ZM46.9449 35.916C46.9909 35.8853 47.053 35.8978 47.0836 35.9437L53.0836 44.9437C53.1142 44.9897 53.1018 45.0517 53.0559 45.0824C53.0099 45.113 52.9478 45.1006 52.9172 45.0546L46.9172 36.0546C46.8866 36.0087 46.899 35.9466 46.9449 35.916ZM67.0836 29.9437C67.053 29.8978 66.9909 29.8853 66.9449 29.916C66.899 29.9466 66.8866 30.0087 66.9172 30.0546L72.9172 39.0546C72.9478 39.1006 73.0099 39.113 73.0559 39.0824C73.1018 39.0517 73.1142 38.9897 73.0836 38.9437L67.0836 29.9437ZM45.9431 39.9173C45.9883 39.8856 46.0507 39.8966 46.0823 39.9418L49.5823 44.9418C49.614 44.9871 49.603 45.0494 49.5577 45.0811C49.5125 45.1128 49.4501 45.1018 49.4185 45.0565L45.9185 40.0565C45.8868 40.0113 45.8978 39.9489 45.9431 39.9173ZM71.0836 29.9437C71.053 29.8978 70.9909 29.8853 70.9449 29.916C70.899 29.9466 70.8866 30.0087 70.9172 30.0546L72.9172 33.0546C72.9478 33.1006 73.0099 33.113 73.0559 33.0824C73.1018 33.0517 73.1142 32.9897 73.0836 32.9437L71.0836 29.9437ZM50.9502 29.9127C50.998 29.885 51.0592 29.9012 51.0869 29.949C52.8392 32.9682 55.3374 36.7156 57.3986 39.7095C57.6959 40.1415 57.9842 40.5577 58.2598 40.9538V38.3912C58.2575 38.3842 58.2502 38.3671 58.2293 38.3388C58.1862 38.2806 58.1065 38.2063 57.9915 38.1385C56.9713 37.5367 56.2832 36.4237 56.2832 35.1492C56.2832 34.4422 56.4947 33.7844 56.8579 33.2359C56.157 32.1301 55.4947 31.05 54.9139 30.0494C54.8862 30.0016 54.9024 29.9404 54.9502 29.9127C54.998 29.885 55.0592 29.9012 55.0869 29.949C55.6541 30.9262 56.2994 31.9798 56.9828 33.0594C57.6159 32.2214 58.6203 31.6797 59.7516 31.6797C59.7977 31.6797 59.8436 31.6806 59.8893 31.6824C59.5458 31.1213 59.2187 30.5744 58.9139 30.0494C58.8862 30.0016 58.9024 29.9404 58.9502 29.9127C58.998 29.885 59.0592 29.9012 59.0869 29.949C59.413 30.5108 59.7649 31.0979 60.135 31.7006C61.8708 31.8915 63.2215 33.3626 63.2215 35.1492C63.2215 35.5291 63.1603 35.8947 63.0474 36.2366C63.851 37.446 64.6533 38.627 65.3986 39.7095C66.4289 41.2062 67.3497 42.514 68.0128 43.4477C68.3444 43.9145 68.6116 44.2877 68.7958 44.5443C68.888 44.6725 68.9594 44.7716 69.0077 44.8386L69.0627 44.9147L69.0767 44.934L69.0802 44.9389L69.0811 44.9401L69.0813 44.9404L69.0725 44.9468L69.0814 44.9405C69.1138 44.9852 69.1038 45.0477 69.0591 45.0801C69.0144 45.1126 68.9519 45.1026 68.9194 45.0579L68.9994 44.9999C68.9194 45.0579 68.9194 45.0578 68.9194 45.0578L68.9191 45.0574L68.9182 45.0562L68.9147 45.0513L68.9007 45.0319L68.8456 44.9557C68.7971 44.8885 68.7256 44.7893 68.6334 44.6609C68.449 44.4042 68.1816 44.0306 67.8498 43.5635C67.1862 42.6292 66.2649 41.3206 65.2338 39.8229C64.5133 38.7763 63.7389 37.637 62.9614 36.4685C62.6724 37.1702 62.16 37.7559 61.5148 38.137C61.4001 38.2048 61.3207 38.2789 61.2777 38.337C61.2569 38.3652 61.2496 38.3822 61.2474 38.3892V39.4898L61.3986 39.7095C62.4289 41.2062 63.3497 42.514 64.0128 43.4477C64.3444 43.9145 64.6116 44.2877 64.7958 44.5443C64.888 44.6725 64.9594 44.7716 65.0077 44.8386L65.0627 44.9147L65.0767 44.934L65.0802 44.9389L65.0811 44.9401L65.0813 44.9404C65.0813 44.9405 65.0814 44.9405 65.0004 44.9992L65.0814 44.9405C65.1138 44.9852 65.1038 45.0477 65.0591 45.0801C65.0144 45.1126 64.9519 45.1026 64.9194 45.0579L64.9282 45.0515L64.9194 45.0578L64.9191 45.0574L64.9182 45.0562L64.9147 45.0513L64.9007 45.0319L64.8456 44.9557C64.7971 44.8885 64.7256 44.7893 64.6334 44.6609C64.449 44.4042 64.1816 44.0306 63.8498 43.5635C63.1891 42.6333 62.273 41.3321 61.2474 39.8427V41.0734C61.2474 41.8984 60.5786 42.5672 59.7536 42.5672C59.6142 42.5672 59.4792 42.5481 59.3511 42.5123C59.5922 42.8544 59.8141 43.1678 60.0128 43.4477C60.3444 43.9145 60.6116 44.2877 60.7958 44.5443C60.888 44.6725 60.9594 44.7716 61.0077 44.8386L61.0627 44.9147L61.0767 44.934L61.0802 44.9389L61.0811 44.9401L61.0813 44.9404C61.0813 44.9405 61.0814 44.9405 61.0004 44.9992L61.0814 44.9405C61.1138 44.9852 61.1038 45.0477 61.0591 45.0801C61.0144 45.1126 60.9519 45.1026 60.9194 45.0579L60.9994 44.9999C60.9194 45.0579 60.9194 45.0578 60.9194 45.0578L60.9191 45.0574L60.9182 45.0562L60.9147 45.0513L60.9006 45.0319L60.8456 44.9557C60.7971 44.8885 60.7256 44.7893 60.6334 44.6609C60.449 44.4042 60.1816 44.0306 59.8498 43.5635C59.6011 43.2134 59.3162 42.8107 59.0029 42.3652C58.631 42.1486 58.3611 41.776 58.283 41.337C57.9515 40.8616 57.5995 40.3542 57.2338 39.8229C55.1722 36.8282 52.6703 33.0756 50.9139 30.0494C50.8862 30.0016 50.9024 29.9404 50.9502 29.9127ZM57.2832 35.1492C57.2832 34.8121 57.3507 34.4907 57.473 34.198C57.5034 34.1253 57.5371 34.0544 57.574 33.9854C57.9898 33.2083 58.809 32.6797 59.7516 32.6797C60.0502 32.6797 60.3365 32.7327 60.6015 32.8298C60.716 32.8718 60.8266 32.922 60.9324 32.9797C61.6521 33.3722 62.155 34.1122 62.2154 34.9742C62.2194 35.032 62.2215 35.0904 62.2215 35.1492C62.2215 35.2127 62.2191 35.2756 62.2144 35.3378C62.1519 36.1637 61.6826 36.8765 61.0062 37.276C60.6847 37.466 60.4001 37.7485 60.2928 38.0914C60.2765 38.1433 60.2644 38.1966 60.2567 38.2511L60.2557 38.2583C60.2505 38.2985 60.2476 38.3393 60.2474 38.3807L60.2474 38.3849V41.0734C60.2474 41.3461 60.0263 41.5672 59.7536 41.5672C59.4809 41.5672 59.2598 41.3461 59.2598 41.0734V38.3869V38.3849C59.2597 38.3423 59.2568 38.3003 59.2513 38.2591C59.1955 37.8409 58.8721 37.4969 58.4996 37.2772C57.7716 36.8477 57.2832 36.0553 57.2832 35.1492ZM63.0869 29.949C63.0592 29.9012 62.998 29.885 62.9502 29.9127C62.9024 29.9404 62.8862 30.0016 62.9139 30.0494C64.6703 33.0756 67.1722 36.8282 69.2338 39.8229C70.2649 41.3206 71.1862 42.6292 71.8498 43.5635C72.1816 44.0306 72.449 44.4042 72.6334 44.6609L72.7767 44.8601L72.8456 44.9557L72.9007 45.0319L72.9147 45.0513L72.9182 45.0562L72.9191 45.0574L72.9194 45.0578L72.922 45.0559L72.9194 45.0579C72.9519 45.1026 73.0144 45.1126 73.0591 45.0801C73.1038 45.0477 73.1138 44.9852 73.0814 44.9405L73.0792 44.9419L73.0813 44.9404L73.0811 44.9401L73.0802 44.9389L73.0767 44.934L73.0627 44.9147L73.0077 44.8386C72.9594 44.7716 72.888 44.6725 72.7959 44.5443C72.6116 44.2877 72.3444 43.9145 72.0128 43.4477C71.3497 42.514 70.4289 41.2062 69.3986 39.7095C67.3374 36.7156 64.8392 32.9682 63.0869 29.949ZM1 68.5C1 68.2239 1.22386 68 1.5 68H68.5C68.7761 68 69 68.2239 69 68.5C69 68.7761 68.7761 69 68.5 69H1.5C1.22386 69 1 68.7761 1 68.5ZM1.5 72C1.22386 72 1 72.2239 1 72.5C1 72.7761 1.22386 73 1.5 73H38.5C38.7761 73 39 72.7761 39 72.5C39 72.2239 38.7761 72 38.5 72H1.5Z" fill="#173773"/>
</g>
<defs>
<clipPath id="clip0_1203_2333">
<rect width="80" height="80" fill="white"/>
</clipPath>
</defs>
</svg>
