<svg width="40" height="40" viewBox="0 0 40 40" fill="none" xmlns="http://www.w3.org/2000/svg">
<g clip-path="url(#clip0_1269_10543)">
<path fill-rule="evenodd" clip-rule="evenodd" d="M27.1589 25.7626C27.439 25.5365 27.829 25.4309 28.1724 25.5419C29.1591 25.8609 29.3258 27.0397 28.8224 27.6601C28.3224 28.2808 27.2323 28.2818 26.7422 27.6518C26.6489 27.5301 26.5755 27.3894 26.5455 27.2381C26.5088 27.049 26.5389 26.8527 26.5955 26.6677C26.6955 26.321 26.8756 25.9886 27.1589 25.7626ZM25.3522 3.46792C24.6716 7.39201 24.139 11.3646 24.3889 15.2907C25.6983 15.2651 27.0077 15.2381 28.3171 15.2099C28.348 15.0747 28.3744 14.9389 28.3993 14.8059C29.0994 11.1195 30.0428 7.37004 32.2164 4.3117L30.9754 4.15918L30.9331 4.15398L30.8738 4.1467C29.0336 3.92054 27.1923 3.69424 25.3522 3.46792Z" fill="#FEECB3"/>
<path fill-rule="evenodd" clip-rule="evenodd" d="M29.1133 39.3235C20.4176 39.4523 12.199 39.574 3.48187 39.0036C2.45508 38.7642 1.53164 37.8388 1.12493 36.6396C0.743554 35.524 0.777839 34.285 0.811025 33.0858L0.811548 33.0669L0.814901 32.9925C0.951583 28.2527 0.878222 23.4485 0.594857 18.7129C0.528182 17.5591 0.591542 16.414 0.764895 15.4346V15.4366C1.3683 16.165 2.71178 16.042 3.89858 15.9333C4.24195 15.902 4.56532 15.8726 4.82534 15.87C15.7599 15.7629 26.8412 15.5629 37.7757 15.2752C37.7104 17.3424 37.6073 19.3855 37.5071 21.3709L37.5071 21.3713L37.5071 21.3715L37.5071 21.3717L37.4857 21.7956C37.4668 22.1693 37.448 22.5418 37.4295 22.9131C34.3266 22.7953 31.8277 22.8566 28.4705 23.126C27.2537 23.2234 26.0736 23.3547 25.0135 23.8851C23.7833 24.4995 22.9566 25.637 22.9132 26.7828C22.8499 28.2936 24.0334 29.5037 25.2335 30.0328C26.4936 30.5895 27.9171 30.6145 29.1773 30.6362L37.1348 30.7735L37.1353 30.7735C37.1393 30.7736 37.1433 30.7737 37.1473 30.7737C37.1145 33.5433 37.1801 36.3309 37.4323 39.2229C34.6453 39.2412 31.855 39.2826 29.1547 39.3229L29.1133 39.3235ZM37.7165 30.7683C37.6825 33.6239 37.7543 36.4965 38.0291 39.4789C38.0357 39.5583 38.0091 39.637 37.9557 39.696C37.9024 39.755 37.8257 39.7886 37.7457 39.7893C34.8839 39.8062 32.0122 39.8489 29.2346 39.8902L29.2346 39.8902L29.1614 39.8913L29.0361 39.8932C25.3827 39.9472 21.8132 40 18.2535 40C13.353 40 8.47243 39.9003 3.42187 39.5693L3.3785 39.563C2.15503 39.2893 1.05825 38.2135 0.584862 36.8226C0.171482 35.6045 0.208146 34.306 0.244817 33.0509V32.9762C0.381499 28.253 0.308158 23.4655 0.0281262 18.7466C-0.0703801 17.0875 0.0930623 15.4359 0.468176 14.2221C0.495877 14.1168 0.530823 14.0122 0.573398 13.9085C0.584841 13.8771 0.596444 13.8461 0.608204 13.8154C0.618271 13.7885 0.632018 13.7641 0.648685 13.7424C1.32793 12.3726 2.93339 12.0197 4.57438 11.8437C6.15294 11.6744 7.73503 11.5278 9.31969 11.4038C9.34355 7.75646 9.70782 4.28644 10.7997 0.901081C10.833 0.79607 10.923 0.720058 11.033 0.706059C13.6732 0.373692 16.37 0.450699 18.9734 0.52504H18.9735H18.9735H18.9735H18.9736H18.9736H18.9736H18.9737H18.9737H18.9737H18.9738H18.9738H18.9738H18.9739C21.2275 0.589714 23.5578 0.656055 25.8147 0.453033C25.9047 0.445366 25.9914 0.478703 26.0514 0.544376C26.1081 0.61005 26.1347 0.69973 26.1181 0.787407L26.1161 0.798084C25.9636 1.6308 25.808 2.48022 25.6575 3.3426L31.926 4.1129C32.026 4.1249 32.1093 4.18858 32.1494 4.28025C32.1927 4.37193 32.1794 4.47795 32.1227 4.55962C30.7418 6.50126 29.8637 8.73684 29.2313 11.0389C31.811 11.1456 34.3868 11.3122 36.9547 11.5387C37.0314 11.5457 37.1047 11.584 37.1513 11.6447C37.2014 11.7054 37.2214 11.7834 37.2114 11.8604C37.0752 12.8524 37.0461 13.8027 37.0597 14.7253L38.0591 14.6992C38.1424 14.6912 38.2124 14.7272 38.2691 14.7828C38.3258 14.8382 38.3524 14.9135 38.3524 14.9919C38.2864 17.1832 38.1788 19.3473 38.0745 21.4461L38.0557 21.8243C38.0368 22.1962 38.0179 22.5669 37.9993 22.9364C38.0311 22.9378 38.063 22.9392 38.0949 22.9407C38.425 22.9117 39.5218 23.08 39.7118 23.6187C39.7851 23.8158 40.0118 24.4992 39.9985 25.0196L39.9252 27.6349C39.8951 28.741 39.7351 29.9461 38.7783 30.4922C38.4451 30.6834 38.0725 30.7485 37.7165 30.7683ZM1.13427 14.0457C1.67455 12.8791 3.13447 12.5698 4.63438 12.4088C6.1928 12.2417 7.7545 12.0968 9.31868 11.9741C9.32176 13.05 9.35242 14.1415 9.40089 15.2512C7.8711 15.2696 6.34342 15.2863 4.81867 15.3012C4.53864 15.3042 4.20195 15.3346 3.84857 15.3672L3.84205 15.3678H3.84203C2.84639 15.4584 1.6141 15.5705 1.20495 15.0745C1.0278 14.8632 1.00624 14.5169 1.13427 14.0457ZM9.97002 15.2442C9.83154 12.0909 9.83756 9.08757 10.2159 6.18395C13.0762 6.29208 15.9585 6.34615 18.8343 6.34615C20.7637 6.34615 22.6931 6.32201 24.6099 6.27309C24.1962 9.13476 23.9325 12.0896 24.0886 15.0195C22.9512 15.0416 21.8135 15.0628 20.6758 15.0829C20.6061 14.0328 19.9016 13.0414 18.924 12.6443C18.3406 12.4062 17.7072 12.3762 17.0572 12.3649C16.2404 12.3509 15.447 12.3686 14.7469 12.7483C13.8833 13.2163 13.3489 14.2202 13.4369 15.1982C12.2803 15.2146 11.1246 15.2299 9.97002 15.2442ZM14.0082 15.1901C16.0389 15.1608 18.0719 15.1284 20.1052 15.093C20.0419 14.2641 19.4812 13.4846 18.7107 13.1707C18.214 12.9696 17.6639 12.944 17.0471 12.9333C16.3071 12.9203 15.597 12.9343 15.0203 13.2477C14.3435 13.615 13.9268 14.4061 14.0068 15.1722L14.0075 15.1798L14.0082 15.1901ZM24.657 15.0084C24.5941 13.8356 24.5997 12.6572 24.6559 11.4812C25.9384 11.4991 27.2207 11.5318 28.5022 11.5793C28.2273 12.6638 28.0004 13.7566 27.7955 14.8358C27.7886 14.8722 27.7816 14.9084 27.7744 14.9445C26.7357 14.9666 25.6965 14.9879 24.657 15.0084ZM28.3542 14.9321C28.564 13.8277 28.797 12.7093 29.0817 11.6018C31.5967 11.7039 34.1082 11.8631 36.6113 12.0794C36.5028 13.0018 36.4799 13.8838 36.4921 14.74C33.7867 14.8094 31.0725 14.8735 28.3542 14.9321ZM24.6869 10.9129C24.8324 8.53819 25.1729 6.17905 25.5607 3.90334L31.3926 4.61996C30.0944 6.5684 29.2582 8.76603 28.6497 11.0158C27.3295 10.9659 26.0084 10.9316 24.6869 10.9129ZM10.2946 5.6181C10.5136 4.1384 10.834 2.68399 11.2864 1.24812C13.8267 0.946751 16.4336 1.0211 18.9606 1.09344C21.1042 1.15478 23.3211 1.21812 25.4947 1.05043C25.218 2.55602 24.9357 4.11354 24.6945 5.7025C19.9189 5.82592 15.0753 5.79757 10.2946 5.6181ZM1.93827 15.0384L1.99159 15.0554L2.06826 15.0151C2.61166 14.2424 3.26174 13.5513 3.99849 12.9619C4.0385 12.9295 4.04514 12.8695 4.01181 12.8289C3.9818 12.7882 3.92182 12.7815 3.88181 12.8139C3.12839 13.4146 2.46499 14.1187 1.91493 14.9064C1.88492 14.9491 1.89493 15.0084 1.93827 15.0384ZM4.28659 14.8034L4.22327 14.7794C4.1866 14.7448 4.18326 14.6851 4.2166 14.6457L6.01345 12.6195C6.04678 12.5805 6.10679 12.5768 6.1468 12.6115C6.1868 12.6462 6.19014 12.7062 6.15347 12.7455L4.35662 14.7718L4.28659 14.8034ZM6.95882 14.723L7.02217 14.748L7.09217 14.7173L8.73568 12.9291C8.76902 12.8904 8.76568 12.8304 8.72901 12.7951C8.689 12.7601 8.62899 12.7628 8.59566 12.8011L6.95215 14.5893C6.91881 14.6276 6.91882 14.6876 6.95882 14.723ZM28.9494 14.4607L28.8861 14.4367C28.8461 14.402 28.8427 14.342 28.8761 14.303L30.5362 12.4341C30.5729 12.3948 30.6329 12.3915 30.6729 12.4261C30.7096 12.4611 30.7129 12.5208 30.6796 12.5601L29.0194 14.4287L28.9494 14.4607ZM30.6063 14.5872L30.673 14.6119L30.743 14.5812C30.7811 14.5397 30.8194 14.4983 30.8578 14.4571C31.1167 14.1796 31.3846 13.9092 31.6603 13.6472L31.6998 13.6101L31.6995 13.6101C32.081 13.2497 32.4776 12.9053 32.8866 12.5797C32.9266 12.547 32.9333 12.4873 32.9033 12.4463C32.8699 12.4056 32.8099 12.399 32.7699 12.4313C32.3043 12.801 31.8556 13.1946 31.4267 13.6081L31.4264 13.6081C31.1431 13.8815 30.8664 14.1635 30.603 14.4532C30.5663 14.4919 30.5697 14.5516 30.6063 14.5872ZM33.3145 14.2188L33.2512 14.1921C33.2112 14.1557 33.2112 14.0957 33.2479 14.0581L34.768 12.4892C34.8047 12.4519 34.8647 12.4509 34.9014 12.4869C34.9381 12.5236 34.9414 12.5836 34.9047 12.6209L33.3846 14.1897L33.3145 14.2188ZM35.1738 14.2945L35.2305 14.3145L35.3039 14.2778L35.8873 13.5308L35.8852 13.5308L35.9906 13.3954C36.0239 13.3541 36.0173 13.2944 35.9739 13.2627C35.9339 13.2301 35.8739 13.2377 35.8406 13.2794L35.1572 14.1618C35.1238 14.2032 35.1305 14.2625 35.1738 14.2945ZM34.5845 23.4244C32.651 23.4244 30.7808 23.5107 28.5138 23.6927C27.357 23.7854 26.2369 23.9088 25.2668 24.3938C24.2201 24.9169 23.5166 25.8637 23.4799 26.8054C23.4299 28.0426 24.4734 29.076 25.4635 29.5131C26.6158 30.0229 27.9809 30.0467 29.1835 30.0677L29.1873 30.0678L37.1448 30.2048C37.5949 30.2128 38.1083 30.2218 38.4983 29.9988C39.2084 29.5921 39.3318 28.5676 39.3584 27.6192L39.4284 25.0039C39.4384 24.6685 39.2984 24.1508 39.1784 23.8098C39.095 23.6561 38.375 23.4751 38.1549 23.5047L38.0916 23.5094C36.8448 23.4534 35.7047 23.4244 34.5845 23.4244ZM27.8835 25.7853C27.6968 25.7853 27.4968 25.8563 27.3335 25.9874C27.0668 26.2007 26.9334 26.5201 26.8634 26.7501C26.8134 26.9308 26.8001 27.0695 26.8201 27.1868C26.8401 27.2825 26.8901 27.3845 26.9634 27.4805C27.1368 27.7049 27.4401 27.8406 27.7669 27.8436C28.1036 27.8389 28.4169 27.7126 28.6003 27.4849C28.8036 27.2345 28.867 26.8508 28.7636 26.5074C28.7069 26.3124 28.5403 25.963 28.0836 25.8157C28.0202 25.795 27.9535 25.7853 27.8835 25.7853ZM27.7802 28.4123H27.7635C27.2534 28.4073 26.8001 28.1949 26.5167 27.8292C26.3834 27.6605 26.3 27.4812 26.2633 27.2958C26.2233 27.0861 26.24 26.8625 26.32 26.5911C26.4467 26.1487 26.6767 25.7863 26.9768 25.544C27.3535 25.2436 27.8435 25.1403 28.2602 25.2746C28.7736 25.441 29.157 25.831 29.3104 26.3451C29.467 26.8708 29.3637 27.4442 29.0437 27.8419C28.7536 28.1996 28.2836 28.4123 27.7802 28.4123Z" fill="#103B63"/>
</g>
<defs>
<clipPath id="clip0_1269_10543">
<rect width="40" height="40" fill="white"/>
</clipPath>
</defs>
</svg>
