<svg width="40" height="40" viewBox="0 0 40 40" fill="none" xmlns="http://www.w3.org/2000/svg">
<g clip-path="url(#clip0_1269_10474)">
<path fill-rule="evenodd" clip-rule="evenodd" d="M6.50586 9.07422V10.92H26.0201V9.07422H6.50586ZM6.50586 17.8776V19.7234H26.0201V17.8776H6.50586Z" fill="#FEECB3"/>
<path fill-rule="evenodd" clip-rule="evenodd" d="M0.4692 9.80797C0.4692 6.03709 3.53708 2.9692 7.30796 2.9692H28.195C31.9659 2.9692 35.0338 6.03709 35.0338 9.80797V19.4339C35.0338 23.205 31.9659 26.273 28.195 26.273H10.4665C10.3982 26.273 10.3333 26.3026 10.289 26.3544L4.33419 33.2608L5.62153 26.2851C5.64391 26.1656 5.57137 26.0492 5.45461 26.0165C2.51913 25.1916 0.4692 22.4848 0.4692 19.4339V9.80797ZM3.84477 34.2818C3.8774 34.2974 3.91191 34.3046 3.94615 34.3046C4.01276 34.3046 4.07828 34.2763 4.12385 34.2236L8.34424 29.3285C9.37512 29.8851 10.5542 30.2013 11.8057 30.2013H29.4264L35.8768 37.6827C35.9224 37.7358 35.9877 37.7642 36.0546 37.7642C36.0888 37.7642 36.1233 37.7566 36.1557 37.7409C36.2511 37.6954 36.3043 37.591 36.2851 37.4869L34.8788 29.8664C37.9052 28.9186 40.0004 26.0818 40.0004 22.8934V13.2671C40.0004 9.87823 37.6817 7.02053 34.5473 6.19759C33.2882 3.99082 30.9124 2.5 28.195 2.5H7.30796C3.27848 2.5 0 5.77822 0 9.80797V19.4339C0 22.6223 2.0955 25.4591 5.12212 26.4072L3.71533 34.0274C3.69645 34.1318 3.74931 34.2359 3.84477 34.2818ZM34.8436 6.77508C35.2669 7.69938 35.503 8.72661 35.503 9.80797V19.4339C35.503 23.4636 32.2245 26.7421 28.195 26.7421H10.574L8.65826 28.9642C9.6009 29.4549 10.6715 29.7324 11.8057 29.7324H29.534C29.6022 29.7324 29.6672 29.7621 29.7117 29.8136L35.6665 36.7203L34.3789 29.7443C34.3571 29.625 34.4296 29.5086 34.5461 29.4759C37.4813 28.6508 39.5312 25.944 39.5312 22.8934V13.2671C39.5312 10.2474 37.5639 7.67858 34.8436 6.77508ZM12.3018 28.8893L12.2466 28.8664C12.2161 28.8356 12.2161 28.7862 12.2466 28.7555L13.7949 27.2075C13.8254 27.1769 13.8747 27.1769 13.9055 27.2075C13.936 27.2379 13.936 27.2875 13.9055 27.318L12.3571 28.8664L12.3018 28.8893ZM14.1273 28.8664L14.1825 28.8893L14.2378 28.8664L15.7862 27.318C15.8167 27.2875 15.8167 27.2379 15.7862 27.2075C15.7557 27.1769 15.7061 27.1769 15.6756 27.2075L14.1273 28.7555C14.0968 28.7862 14.0968 28.8356 14.1273 28.8664ZM16.0804 28.8893L16.0251 28.8664C15.9947 28.8356 15.9947 28.7862 16.0251 28.7555L17.5732 27.2075C17.604 27.1769 17.6533 27.1769 17.6841 27.2075C17.7145 27.2379 17.7145 27.2875 17.6841 27.318L16.1357 28.8664L16.0804 28.8893ZM17.6982 28.8664L17.7534 28.8893L17.8087 28.8664L19.3571 27.318C19.3876 27.2875 19.3876 27.2379 19.3571 27.2075C19.3263 27.1769 19.277 27.1769 19.2465 27.2075L17.6982 28.7555C17.6677 28.7862 17.6677 28.8356 17.6982 28.8664ZM19.7066 28.8893L19.6513 28.8664C19.6208 28.8356 19.6208 28.7862 19.6513 28.7555L21.1996 27.2075C21.2301 27.1769 21.2797 27.1769 21.3102 27.2075C21.3407 27.2379 21.3407 27.2875 21.3102 27.318L19.7618 28.8664L19.7066 28.8893ZM21.5282 28.8664L21.5835 28.8893L21.6387 28.8664L23.1871 27.318C23.2176 27.2875 23.2176 27.2379 23.1871 27.2075C23.1566 27.1769 23.107 27.1769 23.0766 27.2075L21.5282 28.7555C21.4977 28.7862 21.4977 28.8356 21.5282 28.8664ZM23.4832 28.8893L23.428 28.8664C23.3975 28.8356 23.3975 28.7862 23.428 28.7555L24.9761 27.2075C25.0068 27.1769 25.0562 27.1769 25.0869 27.2075C25.1174 27.2379 25.1174 27.2875 25.0869 27.318L23.5385 28.8664L23.4832 28.8893ZM25.5164 28.8664L25.5716 28.8893L25.6269 28.8664L27.1753 27.318C27.2058 27.2875 27.2058 27.2379 27.1753 27.2075C27.1448 27.1769 27.0952 27.1769 27.0647 27.2075L25.5164 28.7555C25.4859 28.7862 25.4859 28.8356 25.5164 28.8664ZM27.5248 28.8893L27.4695 28.8664C27.439 28.8356 27.439 28.7862 27.4695 28.7555L29.0179 27.2075C29.0483 27.1769 29.098 27.1769 29.1284 27.2075C29.1589 27.2379 29.1589 27.2875 29.1284 27.318L27.5801 28.8664L27.5248 28.8893ZM29.3464 28.8661L29.4017 28.8893L29.457 28.8661L31.2817 27.0416C31.3122 27.0109 31.3122 26.9615 31.2817 26.9311C31.2513 26.9003 31.2016 26.9003 31.1712 26.9311L29.3464 28.7556C29.3159 28.7863 29.3159 28.8356 29.3464 28.8661ZM35.4345 22.8565L35.3792 22.8338C35.3487 22.8031 35.3487 22.7537 35.3792 22.723L39.0012 19.101C39.0317 19.0708 39.0813 19.0708 39.1118 19.101C39.1422 19.1317 39.1422 19.1813 39.1118 19.2118L35.4897 22.8338L35.4345 22.8565ZM36.0975 20.063L36.1528 20.0859L36.2081 20.063L39.1112 17.1601C39.1417 17.1294 39.1417 17.08 39.1112 17.0496C39.0808 17.0188 39.0312 17.0188 39.0007 17.0496L36.0975 19.9524C36.0671 19.9832 36.0671 20.0325 36.0975 20.063ZM36.1528 18.0775L36.0975 18.0543C36.0671 18.0239 36.0671 17.9745 36.0975 17.9438L39.0007 15.0409C39.0312 15.0104 39.0808 15.0104 39.1112 15.0409C39.1417 15.0714 39.1417 15.1207 39.1112 15.1515L36.2081 18.0543L36.1528 18.0775ZM35.9527 16.3435L36.008 16.3664L36.0633 16.3435L38.9664 13.4403C38.9969 13.4099 38.9969 13.3605 38.9664 13.3298C38.9359 13.2993 38.8863 13.2993 38.8559 13.3298L35.9527 16.2329C35.9223 16.2634 35.9223 16.313 35.9527 16.3435ZM36.0118 14.4647L35.9565 14.4421C35.9261 14.4113 35.9261 14.362 35.9565 14.3315L38.3897 11.8984C38.4201 11.8679 38.4697 11.8679 38.5002 11.8984C38.5307 11.9289 38.5307 11.9785 38.5002 12.0089L36.0671 14.4421L36.0118 14.4647ZM35.9584 12.4868L36.0137 12.5097L36.069 12.4868L37.949 10.6067C37.9795 10.576 37.9795 10.5264 37.949 10.4959C37.9186 10.4654 37.869 10.4654 37.8382 10.4959L35.9584 12.3762C35.928 12.4067 35.928 12.4563 35.9584 12.4868ZM36.1511 10.6309L36.0958 10.6079C36.0651 10.5775 36.0651 10.5279 36.0958 10.4974L37.1739 9.41903C37.2047 9.38856 37.254 9.38856 37.2845 9.41903C37.3152 9.44977 37.3152 9.49912 37.2845 9.52959L36.2064 10.6079L36.1511 10.6309ZM30.5107 29.7201L30.5659 29.7429L30.6212 29.7201L38.9434 21.3979C38.9738 21.3674 38.9738 21.3178 38.9434 21.2873C38.9129 21.2569 38.8633 21.2569 38.8328 21.2873L30.5107 29.6095C30.4802 29.6399 30.4802 29.6895 30.5107 29.7201ZM31.4996 30.7566L31.4443 30.7338C31.4139 30.7032 31.4139 30.6539 31.4443 30.6232L38.5776 23.4899C38.6081 23.4595 38.6577 23.4595 38.6881 23.4899C38.7186 23.5207 38.7186 23.5701 38.6881 23.6005L31.5549 30.7338L31.4996 30.7566ZM35.7241 28.2184L35.7794 28.2414L35.8346 28.2184L38.1847 25.8684C38.2154 25.838 38.2154 25.7883 38.1847 25.7578C38.1542 25.7274 38.1049 25.7274 38.0741 25.7578L35.7241 28.1079C35.6936 28.1384 35.6936 28.188 35.7241 28.2184ZM32.3571 31.9838L32.3018 31.9609C32.2713 31.9305 32.2713 31.8809 32.3018 31.8503L33.7674 30.385C33.7979 30.3542 33.8472 30.3542 33.8777 30.385C33.9084 30.4155 33.9084 30.4648 33.8777 30.4956L32.4124 31.9609L32.3571 31.9838ZM33.1669 33.0471L33.2222 33.0699L33.2775 33.0471L34.2453 32.0794C34.2757 32.049 34.2757 31.9994 34.2453 31.9689C34.2148 31.9382 34.1652 31.9382 34.1347 31.9689L33.1669 32.9364C33.1364 32.9669 33.1364 33.0165 33.1669 33.0471ZM34.0417 34.2475L33.9865 34.2245C33.9557 34.1941 33.9557 34.1447 33.9865 34.1139L34.5393 33.5609C34.57 33.5305 34.6194 33.5305 34.6501 33.5609C34.6806 33.5917 34.6806 33.6409 34.6501 33.6714L34.097 34.2245L34.0417 34.2475ZM10.2706 28.8162C10.2706 28.834 10.2765 28.8517 10.2886 28.8664C10.4941 28.6586 10.7006 28.4393 10.8888 28.2393L10.8888 28.2392C11.1001 28.0147 11.2884 27.8147 11.4263 27.6831C11.477 27.6884 11.528 27.6927 11.579 27.6965L11.9524 27.3233C11.9675 27.308 11.9754 27.2881 11.9754 27.268C11.9754 27.2481 11.9675 27.2279 11.9524 27.2129C11.9371 27.1975 11.9171 27.1899 11.8971 27.1899C11.8772 27.1899 11.857 27.1975 11.8419 27.2129L10.2935 28.7608C10.2781 28.7762 10.2706 28.7962 10.2706 28.8162ZM35.9185 8.82828L35.8632 8.80509C35.8479 8.78999 35.8403 8.77003 35.8403 8.74981C35.8403 8.72985 35.8479 8.7099 35.8632 8.69453L36.2443 8.3135C36.2567 8.37579 36.2677 8.43835 36.278 8.50091L35.9735 8.80509L35.9185 8.82828ZM25.789 10.6876H6.74397V9.31098H25.789V10.6876ZM6.50938 11.1568H26.0236C26.1531 11.1568 26.2582 11.0516 26.2582 10.9222V9.07638C26.2582 8.94695 26.1531 8.84178 26.0236 8.84178H6.50938C6.37994 8.84178 6.27477 8.94695 6.27477 9.07638V10.9222C6.27477 11.0516 6.37994 11.1568 6.50938 11.1568ZM6.74397 15.0895H18.264V13.7129H6.74397V15.0895ZM18.4986 15.5585H6.50938C6.37994 15.5585 6.27477 15.4536 6.27477 15.3239V13.4783C6.27477 13.3489 6.37994 13.2437 6.50938 13.2437H18.4986C18.628 13.2437 18.7332 13.3489 18.7332 13.4783V15.3239C18.7332 15.4536 18.628 15.5585 18.4986 15.5585ZM25.789 19.4909H6.74397V18.1146H25.789V19.4909ZM6.50938 19.9601H26.0236C26.1531 19.9601 26.2582 19.8552 26.2582 19.7255V17.88C26.2582 17.7503 26.1531 17.6454 26.0236 17.6454H6.50938C6.37994 17.6454 6.27477 17.7503 6.27477 17.88V19.7255C6.27477 19.8552 6.37994 19.9601 6.50938 19.9601Z" fill="#103B63"/>
</g>
<defs>
<clipPath id="clip0_1269_10474">
<rect width="40" height="40" fill="white"/>
</clipPath>
</defs>
</svg>
