<svg width="40" height="40" viewBox="0 0 40 40" fill="none" xmlns="http://www.w3.org/2000/svg">
<g clip-path="url(#clip0_1269_10409)">
<path d="M25.6849 25.0215C25.7696 25.5506 26.0795 26.0401 26.5219 26.3428C26.6729 26.446 26.8471 26.5301 27.0299 26.523C27.2091 26.5163 27.3726 26.4231 27.5223 26.3242C28.4826 25.6915 29.1916 24.7513 29.8807 23.8305C30.078 23.5666 30.2804 23.2924 30.3538 22.971C30.4099 22.7245 30.3855 22.4638 30.31 22.2224C30.1003 21.5535 29.3738 21.0159 28.7022 21.217C28.3485 21.3226 28.0767 21.6005 27.8281 21.8733C27.1508 22.6175 26.5219 23.4061 25.9475 24.2323C25.7373 24.5346 25.525 24.8828 25.6849 25.0215Z" fill="#FEECB3"/>
<path fill-rule="evenodd" clip-rule="evenodd" d="M0.74327 21.6396L0.743271 21.6396L0.744507 21.6789C0.890182 26.3012 1.02779 30.6712 1.01489 35.3632C7.69202 34.959 15.0029 34.9678 21.9327 35.0425C21.8596 32.6175 21.7899 30.2058 21.7308 27.8044C21.349 27.895 20.9639 27.9622 20.5769 28.0051C20.0402 28.0645 19.5198 28.0924 19.0167 28.0924C14.8286 28.0924 11.8162 26.1498 10.3159 24.1711C7.59703 20.5849 6.96837 15.5876 8.71459 11.4399C9.31313 10.0183 10.1466 8.73108 11.1444 7.6317C7.86453 7.63885 4.3546 7.70158 0.458266 7.81986C0.462554 12.7096 0.605235 17.2485 0.74327 21.6396ZM22.3979 35.2675C22.3211 32.7262 22.2478 30.1998 22.1863 27.6847C23.441 27.3232 24.6527 26.7092 25.7688 25.8766C25.9302 26.135 26.143 26.3613 26.3925 26.5319C26.6094 26.6803 26.811 26.7526 27.008 26.7526L27.0386 26.752C27.2727 26.7432 27.4703 26.6329 27.6485 26.5155C27.8077 26.4106 27.9604 26.2972 28.1074 26.1771C29.7392 27.5732 31.1697 29.2315 32.5599 30.8431C33.5092 31.9437 34.491 33.0819 35.5298 34.1299C36.2028 34.8091 37.0185 35.4974 37.9883 35.4974C38.0173 35.4974 38.0463 35.4969 38.0754 35.4958C39.0016 35.4562 39.8366 34.6992 39.9775 33.7719C40.0766 33.1172 39.8487 32.3788 39.3518 31.7465C38.9354 31.2161 38.3968 30.8132 37.8759 30.4241L37.8324 30.3916C35.1537 28.3873 32.5444 26.2311 30.062 23.9702L30.0639 23.9676C30.2644 23.6999 30.4915 23.3961 30.5773 23.022C30.6386 22.7522 30.6219 22.4519 30.5286 22.1541C30.4066 21.7649 30.1208 21.3994 29.7581 21.1742C30.7829 19.2683 31.3387 17.2365 31.3789 15.2164C31.4173 13.2769 30.7311 9.26817 27.916 6.54685C25.7424 4.44558 22.7279 3.48337 18.9559 3.68576C16.2595 3.83054 13.6247 5.12676 11.5815 7.17265C8.11004 7.17497 4.38634 7.24026 0.222013 7.36859C0.098109 7.37236 0 7.47395 0 7.59759C0 12.5927 0.145597 17.2173 0.286397 21.6896L0.286397 21.6896L0.286516 21.6934C0.43461 26.3915 0.574104 30.8292 0.555827 35.6059C0.555559 35.6693 0.581634 35.7301 0.627863 35.7736C0.670598 35.8139 0.726761 35.8359 0.785085 35.8359L0.799337 35.8357C7.60386 35.4124 15.09 35.4261 22.1663 35.5034C22.2283 35.5005 22.2888 35.4793 22.3326 35.435C22.3762 35.3904 22.3998 35.3299 22.3979 35.2675ZM20.5266 27.5496C22.2944 27.3537 24.0236 26.6238 25.5635 25.4578C25.5236 25.3493 25.4923 25.2379 25.4703 25.1249C25.2546 24.8272 25.5784 24.3614 25.7588 24.1019L25.759 24.1016C26.3379 23.2693 26.9771 22.4678 27.6587 21.719C27.9304 21.4204 28.2296 21.1188 28.6365 20.9973C28.8728 20.9267 29.1099 20.9304 29.3334 20.9891C30.3266 19.1401 30.8825 17.1347 30.9206 15.2075C30.9574 13.3422 30.2992 9.4883 27.5972 6.87636C25.5194 4.86755 22.6201 3.94835 18.9804 4.14321C14.8824 4.3636 10.9266 7.36714 9.13711 11.6175C7.45325 15.6171 8.05932 20.436 10.6812 23.8942C12.2858 26.0106 15.7137 28.0818 20.5266 27.5496ZM21.6403 7.82175C19.5203 7.73656 17.3733 7.67992 15.1417 7.6518C12.5176 9.21115 11.2895 12.2108 10.8495 13.5707C10.5186 14.5928 10.302 17.7593 11.7437 21.023C12.639 23.0498 14.5712 24.6394 16.9127 25.2752C18.4824 25.7014 20.1212 25.6763 21.6718 25.2301C21.5483 19.3882 21.5032 13.6007 21.6403 7.82175ZM16.562 7.00994C16.3791 7.06877 16.2015 7.13436 16.029 7.20609C18.0293 7.23837 19.9668 7.29398 21.884 7.37289C22.009 7.37827 22.1068 7.48255 22.1039 7.60753C21.9616 13.4087 22.0044 19.2197 22.1271 25.086C22.9801 24.7915 23.801 24.3672 24.5625 23.8185C27.5908 21.6358 29.258 17.244 28.5267 13.3758C28.1582 11.427 27.0632 9.59285 25.5226 8.34387C24.8697 7.81492 22.9031 6.4595 19.924 6.4595C18.9153 6.4595 17.7911 6.61485 16.562 7.00994ZM32.9022 30.538C31.5155 28.9308 30.0895 27.2779 28.4554 25.8715C28.9567 25.4002 29.3894 24.8602 29.7854 24.3382C32.2692 26.5982 34.8791 28.754 37.558 30.7584L37.6015 30.7913C38.0985 31.1626 38.6124 31.5468 38.9913 32.0294C39.4104 32.563 39.6047 33.173 39.5243 33.7033C39.4171 34.4094 38.7586 35.0079 38.056 35.0376C37.2287 35.0773 36.478 34.4356 35.8553 33.8074C34.8278 32.7707 33.8513 31.6386 32.9071 30.5437L32.9022 30.538L32.9022 30.538ZM25.8584 24.8714C25.8858 24.9034 25.9044 24.9429 25.9111 24.9851C25.9856 25.4506 26.2621 25.8877 26.6513 26.1534C26.7956 26.2521 26.9209 26.2992 27.0209 26.294C27.1429 26.2895 27.2732 26.2139 27.3961 26.1331C28.3341 25.5147 29.0267 24.5891 29.6966 23.6938L29.6971 23.6931L29.6979 23.692C29.8791 23.4496 30.0665 23.199 30.1303 22.9199C30.1736 22.729 30.1604 22.5116 30.0911 22.2912C29.9223 21.7515 29.3205 21.2715 28.7679 21.4362C28.4733 21.5244 28.2355 21.7663 27.9976 22.0275C27.3294 22.7616 26.7027 23.5475 26.1353 24.3632C25.9068 24.6919 25.8633 24.8225 25.8584 24.8714ZM16.7928 25.7176C17.586 25.9331 18.3955 26.0388 19.2035 26.0388C21.1789 26.0388 23.1442 25.4056 24.8302 24.1904C27.9958 21.9088 29.7396 17.3249 28.9768 13.2906C28.5887 11.2369 27.4346 9.30419 25.811 7.98801C24.8926 7.24324 21.5007 4.94039 16.4217 6.57399C12.6035 7.80175 10.9481 11.7774 10.4135 13.4296C10.0007 14.7052 9.88295 17.945 11.3244 21.2081C12.275 23.3602 14.319 25.0457 16.7928 25.7176ZM3.5483 14.3168C3.55179 14.441 3.65365 14.5391 3.77701 14.5391L3.78401 14.5388L7.3955 14.431C7.5221 14.4275 7.62154 14.3219 7.61778 14.1953C7.61402 14.0687 7.51243 13.966 7.3818 13.973L3.7703 14.0808C3.6437 14.0846 3.54426 14.1902 3.5483 14.3168ZM12.1662 14.3665C12.0953 14.3665 12.0257 14.3337 11.9805 14.2722C11.9063 14.1698 11.9289 14.0265 12.0313 13.9521L12.8882 13.3299L12.8885 13.3297C12.9473 13.2869 13.0359 13.2226 13.1634 13.1928C13.4295 13.1304 13.6775 13.2476 13.841 13.3409L14.7271 13.8473C15.0324 13.5618 15.424 13.3054 15.871 13.0993L15.8717 13.0989C15.9118 13.0805 15.995 13.0423 16.0978 13.0423H16.1016C16.2692 13.0436 16.3753 13.1397 16.4208 13.1809L16.4209 13.181C16.68 13.4148 17.0224 13.6242 17.4162 13.7898C17.7734 13.5519 18.1768 13.3382 18.6165 13.1541C18.6891 13.1237 18.7719 13.1326 18.8364 13.1778C19.1705 13.4116 19.4731 13.6637 19.7354 13.9279C19.8247 14.0177 19.8244 14.1628 19.7346 14.2518C19.6446 14.3413 19.4997 14.3407 19.4105 14.251C19.1941 14.0335 18.9479 13.8239 18.677 13.6269C18.2698 13.8051 17.8997 14.0096 17.5748 14.2362C17.5121 14.28 17.4318 14.2894 17.3605 14.2617C16.8689 14.0695 16.4376 13.8134 16.1137 13.521L16.0925 13.503L16.0634 13.5156C15.6028 13.7277 15.2109 13.9956 14.9303 14.2905C14.8575 14.3668 14.7422 14.384 14.6505 14.3316L13.6136 13.739L13.6129 13.7386C13.5568 13.7064 13.39 13.6109 13.2677 13.6392C13.233 13.6473 13.2026 13.668 13.1575 13.7008L12.3009 14.323C12.26 14.3526 12.213 14.3665 12.1662 14.3665ZM12.263 19.0748C12.3071 19.1415 12.3799 19.1777 12.4544 19.1777C12.4977 19.1777 12.5415 19.1654 12.5804 19.1396L13.4375 18.5733C13.4832 18.5429 13.5139 18.5238 13.5515 18.5157C13.6784 18.4883 13.8462 18.5751 13.9065 18.6062L13.9065 18.6062L13.9098 18.6079L14.9467 19.1474C15.0335 19.1922 15.14 19.1775 15.2109 19.1095C15.4915 18.8412 15.8834 18.5975 16.3438 18.4042L16.3809 18.3881L16.4099 18.4093C16.7341 18.6757 17.1646 18.9087 17.6551 19.0829C17.7215 19.1068 17.7954 19.0982 17.8546 19.0605C18.1825 18.8525 18.5563 18.6649 18.967 18.5018C19.2404 18.6824 19.4887 18.8743 19.7064 19.0737C19.7994 19.1592 19.9445 19.153 20.0303 19.0595C20.1157 18.9662 20.1093 18.8211 20.0158 18.7356C19.7532 18.4951 19.4508 18.2652 19.1165 18.0524C19.0552 18.0134 18.9794 18.0059 18.9117 18.0317C18.4701 18.1997 18.0647 18.3953 17.7059 18.6136C17.3081 18.462 16.9622 18.2701 16.701 18.0556L16.7008 18.0554C16.6558 18.0183 16.5511 17.9317 16.3898 17.9309H16.3855C16.2992 17.9309 16.229 17.9554 16.1664 17.9817C15.7173 18.1698 15.3238 18.4053 15.0171 18.6673L14.1213 18.2016C13.9603 18.1174 13.716 18.0123 13.4564 18.0677C13.3306 18.094 13.2427 18.1524 13.1846 18.1911L12.3278 18.7574C12.2222 18.827 12.1931 18.9692 12.263 19.0748ZM3.96765 19.1777C3.84375 19.1777 3.7419 19.0786 3.73867 18.9538C3.73571 18.8275 3.83569 18.7224 3.96229 18.7192L7.29266 18.6394C7.41925 18.644 7.52433 18.7364 7.52756 18.863C7.53051 18.9896 7.43026 19.0944 7.30367 19.0976L3.97331 19.1777H3.96765ZM4.00579 24.2555C4.01143 24.3782 4.11277 24.474 4.23452 24.474L4.24527 24.4737C5.82754 24.4 7.43265 24.3664 9.01491 24.3756H9.01625C9.14231 24.3756 9.24471 24.274 9.24525 24.1477C9.24605 24.0214 9.14392 23.9182 9.01733 23.9173C7.42727 23.9085 5.8141 23.9421 4.22404 24.016C4.09744 24.0219 3.99988 24.1291 4.00579 24.2555ZM4.23465 29.7865C4.11155 29.7865 4.00968 29.6887 4.00565 29.5647C4.00162 29.4384 4.1008 29.3326 4.22739 29.3285C9.47841 29.1595 15.1415 29.0504 18.6551 29.0504C18.7814 29.0504 18.8841 29.1531 18.8841 29.2796C18.8841 29.4059 18.7814 29.5085 18.6551 29.5085C15.146 29.5085 9.48862 29.6177 4.2419 29.7865H4.23465ZM29.7628 26.6181L29.7757 26.6191C29.812 26.6191 29.8445 26.5928 29.8507 26.5555L30.088 25.1471C30.095 25.1054 30.0671 25.0663 30.0254 25.0592C29.9848 25.0525 29.9445 25.0799 29.9373 25.1218L29.7 26.5299C29.693 26.5716 29.7212 26.6111 29.7628 26.6181ZM30.7552 27.8659H30.7514C30.7092 27.8637 30.6767 27.828 30.6788 27.7858C30.7103 27.1311 30.7587 26.4667 30.8224 25.8106C30.8264 25.7686 30.8672 25.7396 30.9057 25.7417C30.9479 25.746 30.9785 25.7834 30.9745 25.8253C30.911 26.4788 30.8627 27.1411 30.8312 27.7933C30.8293 27.8342 30.7957 27.8659 30.7552 27.8659ZM31.7675 29.0906C31.7689 29.132 31.8028 29.1647 31.8442 29.1647H31.8466C31.8888 29.1635 31.9218 29.1282 31.9205 29.086C31.8968 28.3332 31.9377 27.5728 32.042 26.8262C32.0479 26.7845 32.0189 26.7458 31.9769 26.7399C31.9369 26.7354 31.8968 26.7633 31.8906 26.805C31.785 27.5602 31.7439 28.3291 31.7675 29.0906ZM32.9836 30.2943C32.9414 30.2943 32.9072 30.2604 32.907 30.2182C32.9053 29.4065 32.9387 28.584 33.0064 27.7737C33.0099 27.7318 33.0475 27.7017 33.0889 27.7041C33.1309 27.7075 33.1623 27.7447 33.1585 27.7866C33.0913 28.5926 33.058 29.4105 33.0599 30.2176C33.0599 30.2598 33.0258 30.2943 32.9836 30.2943ZM34.1586 31.807C34.1588 31.8492 34.193 31.8828 34.2349 31.8828H34.2354C34.2776 31.8825 34.3115 31.8481 34.3112 31.806L34.2851 28.7046C34.2849 28.6626 34.2507 28.6288 34.2088 28.6288H34.2083C34.1661 28.629 34.1322 28.6637 34.1325 28.7059L34.1586 31.807ZM35.6376 33.0579C35.5962 33.0579 35.562 33.0249 35.5612 32.9832L35.4981 30.0794C35.4973 30.0372 35.5306 30.0022 35.5728 30.0012C35.6126 30.0022 35.6499 30.0337 35.651 30.0759L35.7142 32.98C35.715 33.0222 35.6814 33.0571 35.6392 33.0579H35.6376ZM37.0819 34.3558C37.084 34.3967 37.1179 34.4284 37.1582 34.4284L37.1622 34.4281C37.2044 34.426 37.2367 34.39 37.2345 34.3478L37.065 31.1695C37.0628 31.1273 37.0271 31.0946 36.9846 31.0972C36.9424 31.0994 36.9101 31.1354 36.9126 31.1776L37.0819 34.3558ZM38.4025 34.0801C38.3611 34.0801 38.327 34.047 38.3259 34.0053L38.2862 32.4013C38.2851 32.3591 38.3184 32.3241 38.3606 32.3231H38.3625C38.4039 32.3231 38.4377 32.3558 38.4388 32.3975L38.4789 34.0015C38.4799 34.0437 38.4463 34.0789 38.4044 34.0801H38.4025ZM14.5873 24.1031C14.6324 24.1565 14.6972 24.1842 14.7623 24.1842C14.8147 24.1842 14.8671 24.1662 14.9103 24.1296L15.7667 23.4042C15.8113 23.3663 15.8408 23.3427 15.872 23.3344C15.9441 23.315 16.0532 23.3532 16.1962 23.4486L17.2334 24.1398C17.3315 24.2052 17.4632 24.1856 17.5379 24.0942C17.8198 23.7488 18.212 23.4357 18.6716 23.1887L18.6842 23.1817L18.6971 23.1949C19.021 23.5359 19.4523 23.8348 19.9447 24.0595C20.0603 24.1122 20.1958 24.0611 20.2484 23.9458C20.3006 23.8308 20.2501 23.6948 20.1348 23.6421C19.6956 23.4419 19.3131 23.1782 19.0296 22.8793L19.0292 22.879C18.9868 22.8344 18.8751 22.717 18.6982 22.7154H18.6936C18.5834 22.7154 18.4963 22.7621 18.4544 22.7847C18.012 23.0228 17.6236 23.3182 17.3199 23.6467L16.4507 23.0672L16.4494 23.0663C16.3515 23.0012 16.0601 22.8071 15.7511 22.8922C15.6202 22.928 15.5304 23.0038 15.4707 23.0543L14.6139 23.78C14.5174 23.8619 14.5053 24.0066 14.5873 24.1031Z" fill="#103B63"/>
</g>
<defs>
<clipPath id="clip0_1269_10409">
<rect width="40" height="40" fill="white"/>
</clipPath>
</defs>
</svg>
