<svg width="40" height="40" viewBox="0 0 40 40" fill="none" xmlns="http://www.w3.org/2000/svg">
<path fill-rule="evenodd" clip-rule="evenodd" d="M12.762 7.72381C12.7111 7.78707 12.5221 8.02195 11.8321 8.79938C10.8601 9.8955 10.1289 9.82396 10.1289 9.82396C10.3773 10.4796 13.461 13.0357 13.461 13.0357C13.461 13.0357 16.4384 15.7141 17.1236 15.8647C17.1236 15.8647 16.9199 15.1765 17.8887 14.03C18.6489 13.1286 18.8408 12.9439 18.8408 12.9439C18.8436 12.9389 18.8461 12.9336 18.8486 12.9283C18.8543 12.9165 18.86 12.9044 18.8696 12.8934C18.9703 12.7766 19.1454 12.7629 19.261 12.8636L23.372 16.4132H11.3721C11.0777 16.1571 10.9025 15.9983 10.9025 15.9983C10.9025 15.9983 6.81364 12.6347 5.93339 10.8249C5.24217 9.4043 5.04984 7.71285 5.90215 6.1244C6.60307 4.81851 7.98294 3.49115 7.98294 3.49115C8.0834 3.37481 8.25874 3.36183 8.374 3.46148L12.7867 7.27102C12.9022 7.37137 12.9144 7.54659 12.8129 7.66331C12.7998 7.67937 12.776 7.70672 12.776 7.70672C12.7732 7.70992 12.7689 7.71532 12.762 7.72381Z" fill="#FEECB3"/>
<path d="M18.8692 12.8912C18.9699 12.7744 19.145 12.7607 19.2606 12.8614L23.4109 16.4451L11.4109 16.4451C11.0928 16.169 10.902 15.9961 10.902 15.9961C10.902 15.9961 10.4159 15.5963 9.74286 14.998C9.30512 14.609 8.78831 14.1361 8.2747 13.6347C7.8227 13.1935 7.37319 12.7303 6.98223 12.2829C6.51938 11.7531 6.13861 11.2455 5.93296 10.8227C5.51727 9.9684 5.28201 9.01612 5.34588 8.04719C5.38822 7.40496 5.56197 6.75541 5.90172 6.12223C6.60263 4.81633 7.98251 3.48898 7.98251 3.48898C8.08297 3.37264 8.2583 3.35966 8.37357 3.4593L10.5799 5.36408L12.7863 7.26885C12.9018 7.3692 12.9139 7.54442 12.8124 7.66113C12.7893 7.68824 12.6143 7.91549 11.8317 8.79721C10.8597 9.89333 10.1285 9.82179 10.1285 9.82179C10.1997 10.0098 10.5041 10.3541 10.902 10.7495C11.1818 11.0276 11.5079 11.3309 11.8317 11.6231C12.6534 12.3644 13.4606 13.0335 13.4606 13.0335C13.4606 13.0335 14.3481 13.8319 15.2655 14.5814C16.0284 15.2047 16.8121 15.7942 17.1232 15.8626C17.1232 15.8626 16.9195 15.1744 17.8882 14.0278C18.6485 13.1264 18.8692 12.8912 18.8692 12.8912ZM18.8692 12.8912C18.8553 12.9072 18.8782 12.875 18.8692 12.8912Z" stroke="#103B63" stroke-width="0.416667"/>
<path fill-rule="evenodd" clip-rule="evenodd" d="M31.5595 16.1774C32.1082 14.4763 32.5521 12.8129 33.0203 11.0551L33.0452 10.9625C33.0724 10.8602 33.1651 10.7891 33.2708 10.7891L39.0452 10.7947C39.1743 10.7947 39.2789 10.8994 39.2785 11.0284C39.2785 11.157 39.1743 11.2612 39.0452 11.2612L33.45 11.256C32.9746 13.039 32.5229 14.727 31.9573 16.4635L31.9548 16.4733L31.2278 19.0919C31.2241 19.1052 31.2193 19.1179 31.2135 19.13L27.6759 32.0474C27.6486 32.1477 27.5578 32.2181 27.4531 32.219L10.7253 32.3719H10.7229C10.6421 32.3719 10.5671 32.3303 10.5245 32.261L2.44737 19.1893C2.40136 19.1697 2.3621 19.1355 2.33638 19.0909L1.69345 17.9693L1.61954 17.8496C1.60981 17.8339 1.60212 17.8172 1.59647 17.8001L0.866711 16.5269C0.825608 16.4546 0.825597 16.3657 0.867177 16.294C0.909236 16.2218 0.985706 16.1774 1.06935 16.1774H31.5595ZM2.67427 18.742L30.8254 18.7959L31.4228 16.6443H1.47177L2.67427 18.742ZM26.2597 19.2534L30.6936 19.2619L29.0829 25.1434L26.2597 19.2534ZM20.5969 19.2426L25.7416 19.2524L28.8948 25.8302L27.3348 31.5266L20.5969 19.2426ZM9.16646 19.2207L14.3212 19.2306L21.2203 31.8093L16.0657 31.8564C16.0652 31.8194 16.0559 31.782 16.0369 31.7472L9.16646 19.2207ZM8.63343 19.2197L3.00792 19.2089L10.8524 31.904L15.5668 31.8609L8.63343 19.2197ZM21.7187 31.7472L14.8538 19.2316L20.0643 19.2416L26.9288 31.7571L21.741 31.8045C21.7362 31.785 21.7288 31.7657 21.7187 31.7472ZM10.6234 34.1019C9.12837 34.1019 7.91248 35.3179 7.91248 36.8124C7.91248 38.3074 9.12837 39.5232 10.6234 39.5232C12.1179 39.5232 13.3338 38.3074 13.3338 36.8124C13.3338 35.3179 12.1179 34.1019 10.6234 34.1019ZM10.6234 39.9898C8.87124 39.9898 7.44602 38.5645 7.44602 36.8124C7.44602 35.0608 8.87124 33.635 10.6234 33.635C12.375 33.635 13.8007 35.0608 13.8007 36.8124C13.8007 38.5645 12.375 39.9898 10.6234 39.9898ZM9.96852 38.8747L9.90306 38.8389C9.42512 38.0942 8.96343 37.3251 8.53089 36.5515L8.56051 36.4458L8.66662 36.4753C9.09772 37.2464 9.5575 38.013 10.034 38.7547L10.0106 38.8623L9.96852 38.8747ZM11.5312 38.9559L11.5943 38.9884L11.6397 38.9735L11.6574 38.865C10.7938 37.6596 9.96358 36.4054 9.18932 35.1376L9.08227 35.1116L9.05646 35.2188C9.83264 36.4896 10.6652 37.747 11.5312 38.9559ZM12.5542 38.0864L12.4906 38.0539L10.1076 34.6973L10.1258 34.5888L10.2342 34.6075L12.6173 37.9635L12.5991 38.072L12.5542 38.0864ZM12.791 36.5669L12.8541 36.5984L12.9 36.5835L12.9167 36.475L11.7443 34.8687L11.6358 34.8516L11.6186 34.9606L12.791 36.5669ZM26.3835 34.1019C24.889 34.1019 23.6726 35.3179 23.6726 36.8124C23.6726 38.3074 24.889 39.5232 26.3835 39.5232C27.878 39.5232 29.0944 38.3074 29.0944 36.8124C29.0944 35.3179 27.878 34.1019 26.3835 34.1019ZM26.3835 39.9898C24.6314 39.9898 23.2061 38.5645 23.2061 36.8124C23.2061 35.0608 24.6314 33.635 26.3835 33.635C28.1351 33.635 29.5608 35.0608 29.5608 36.8124C29.5608 38.5645 28.1351 39.9898 26.3835 39.9898ZM25.7448 38.9813L25.6808 38.9477L24.2484 36.8845L24.268 36.776L24.376 36.7956L25.8084 38.8588L25.7893 38.9673L25.7448 38.9813ZM27.0069 39.1103L27.0738 39.1482L27.1135 39.1372L27.1402 39.03C26.3904 37.7851 25.6084 36.5367 24.817 35.3189L24.7094 35.2964L24.687 35.404C25.477 36.6198 26.258 37.8667 27.0069 39.1103ZM28.0542 38.4806L27.9873 38.4426C27.2469 37.211 26.4693 35.9804 25.676 34.7845L25.6979 34.6766L25.806 34.6985C26.5998 35.8967 27.3789 37.1295 28.1211 38.3624L28.0943 38.469L28.0542 38.4806ZM28.5811 37.0272L28.6447 37.0601L28.6891 37.0463L28.7087 36.9384C28.2217 36.2386 27.7189 35.5361 27.2128 34.8511L27.1038 34.8345L27.0875 34.9433C27.5927 35.6274 28.095 36.3284 28.5811 37.0272ZM3.92595 18.6162L3.86334 18.5837C3.49294 18.0714 3.14883 17.5328 2.84055 16.9826L2.87017 16.8766L2.97628 16.9067C3.28169 17.4516 3.62245 17.9854 3.98903 18.4924L3.97183 18.6015L3.92595 18.6162ZM5.23496 18.5583L5.29853 18.5913L5.34345 18.577L5.3621 18.4685L4.33311 17.0068L4.22508 16.9878L4.20597 17.0963L5.23496 18.5583ZM6.73613 18.5629L6.67447 18.532L5.59624 17.1125L5.61105 17.0029L5.72004 17.0179L6.79825 18.4377L6.78296 18.5473L6.73613 18.5629ZM7.975 18.5353L8.03474 18.5629L8.08445 18.5452L8.09449 18.4358C7.72408 17.9909 7.37806 17.5173 7.06645 17.0283L6.95891 17.0044L6.93501 17.1119C7.25045 17.6065 7.6003 18.0855 7.975 18.5353ZM9.35837 18.6588L9.29576 18.6273C8.93396 18.1365 8.58124 17.6303 8.24716 17.1218L8.26961 17.0142L8.37715 17.0366C8.70979 17.5422 9.0606 18.0465 9.42049 18.535L9.40425 18.6435L9.35837 18.6588ZM10.5621 18.6394L10.6232 18.6695L10.671 18.6532L10.6849 18.5438L9.50102 17.0169L9.39206 17.0028L9.3782 17.1119L10.5621 18.6394ZM11.9175 18.6553L11.8572 18.6265L10.5625 17.0331L10.574 16.9237L10.6829 16.9351L11.9777 18.5285L11.9667 18.6381L11.9175 18.6553ZM13.1333 18.6087L13.194 18.6375L13.2428 18.6203L13.2547 18.5113L11.9925 16.9442L11.883 16.9322L11.8711 17.0416L13.1333 18.6087ZM14.4229 18.4884L14.3598 18.4562L13.3217 17.042L13.3384 16.933L13.4474 16.9498L14.4855 18.364L14.4688 18.4731L14.4229 18.4884ZM15.8576 18.5129L15.9183 18.5416L15.9676 18.5244L15.9786 18.4145C15.5991 17.9466 15.2325 17.4562 14.8898 16.9568L14.7818 16.9366L14.7617 17.0447C15.1068 17.5475 15.4753 18.0411 15.8576 18.5129ZM17.4086 18.6091L17.3493 18.5819L16.1076 17.1223L16.1167 17.0129L16.2261 17.0215L17.4678 18.4811L17.4587 18.5907L17.4086 18.6091ZM18.7944 18.6121L18.8517 18.6375L18.9043 18.617L18.9091 18.507L17.5273 17.0011L17.4174 16.9963L17.4126 17.1062L18.7944 18.6121ZM20.2534 18.5168L20.198 18.4935L18.7656 17.0262L18.7671 16.9162L18.877 16.9172L20.3089 18.3844L20.3079 18.4944L20.2534 18.5168ZM21.6184 18.6016L21.6786 18.6304L21.7278 18.6131L21.7388 18.5037C21.2987 17.9626 20.8116 17.4522 20.2907 16.9867L20.1808 16.9929L20.187 17.1029C20.7017 17.5631 21.1835 18.0673 21.6184 18.6016ZM22.8966 18.5026L22.8378 18.4759L21.6048 17.0583L21.6119 16.9489L21.7219 16.956L22.9554 18.3736L22.9478 18.4835L22.8966 18.5026ZM24.3372 18.5534L24.3965 18.5807L24.4471 18.5617L24.4553 18.4523L23.2232 17.0194L23.1137 17.0112L23.1051 17.1206L24.3372 18.5534ZM25.9974 18.6233L25.9391 18.597L24.6907 17.1742L24.6979 17.0642L24.8078 17.0713L26.0557 18.4943L26.0485 18.6041L25.9974 18.6233ZM27.466 18.6155L27.5267 18.6446L27.5754 18.6271L27.5869 18.5175L26.2836 16.9093L26.1741 16.8979L26.1626 17.0073L27.466 18.6155ZM28.8878 18.6233L28.8251 18.5918L27.6967 17.0642L27.713 16.9552L27.8215 16.9714L28.9504 18.4995L28.9341 18.608L28.8878 18.6233ZM30.4719 18.4759L30.5307 18.5026L30.5814 18.4835L30.589 18.3739C30.1847 17.9085 29.7908 17.4214 29.4185 16.9278L29.31 16.9125L29.2947 17.021C29.669 17.5179 30.0647 18.0074 30.4719 18.4759Z" fill="#103B63"/>
</svg>
