<svg width="40" height="40" viewBox="0 0 40 40" fill="none" xmlns="http://www.w3.org/2000/svg">
<g clip-path="url(#clip0_1269_10622)">
<path d="M18.7219 4.14938C18.7219 3.4729 18.5536 1.95469 19.9786 1.95469C20.976 1.95469 20.7579 3.99134 20.849 4.15028C20.1424 4.14485 19.433 4.14455 18.7219 4.14938ZM27.1903 4.267C26.2252 4.21995 23.3263 4.18949 22.3455 4.17019C21.8958 3.74404 22.3947 1.62535 21.6063 0.836682C21.049 0.279338 20.1985 0.260941 19.9439 0.266369C19.3989 0.278433 18.7113 0.323069 18.2457 0.772442C17.4133 1.57528 17.6205 3.99285 17.4449 4.16235C16.4017 4.17622 13.3408 4.19733 12.2949 4.22357C12.2949 7.41231 13.571 7.95608 16.6318 8.05169C21.3925 8.20037 24.3279 8.18198 25.5382 7.6759C27.066 7.03713 27.4566 5.77195 27.1903 4.267Z" fill="#FFE6A5"/>
<path fill-rule="evenodd" clip-rule="evenodd" d="M20.5622 3.88663C20.2884 3.88512 20.0118 3.88422 19.7338 3.88422C19.4825 3.88422 19.2301 3.88482 18.9774 3.88602C18.9689 3.42881 18.9695 2.77827 19.2934 2.44803C19.45 2.28819 19.6743 2.21068 19.9796 2.21068C20.5016 2.21068 20.5405 3.28796 20.5592 3.8061C20.5598 3.82336 20.5604 3.83985 20.561 3.85577C20.5615 3.86629 20.5619 3.87655 20.5622 3.88663ZM20.8475 4.40597H20.8497C20.9413 4.40597 21.0264 4.35711 21.0728 4.27779C21.1129 4.20933 21.1193 4.127 21.0909 4.05401C21.0843 4.00938 21.0798 3.88723 21.0764 3.7874L21.0764 3.7864C21.0517 3.10623 21.0003 1.69314 19.9796 1.69314C19.5344 1.69314 19.1791 1.82524 18.924 2.08582C18.4342 2.58525 18.4505 3.4089 18.4613 3.95388C18.4616 3.96921 18.4619 3.98432 18.4622 3.99918C18.4631 4.05158 18.4641 4.10095 18.4641 4.1463C18.4641 4.21506 18.4915 4.28111 18.5401 4.32997C18.5892 4.37822 18.6601 4.41019 18.7243 4.40507C19.4391 4.40054 20.1533 4.40054 20.8475 4.40597ZM16.6406 7.79014C13.6645 7.69695 12.6162 7.1954 12.557 4.47353C13.3403 4.45845 14.7409 4.44488 15.8906 4.43402C16.5339 4.42799 17.1027 4.42226 17.4489 4.41773C17.5146 4.41713 17.5777 4.39089 17.625 4.34535C17.7526 4.22232 17.7656 4.01668 17.8002 3.46768L17.8002 3.46741C17.8479 2.7077 17.9278 1.43589 18.4258 0.955448C18.8175 0.577552 19.418 0.533519 19.9503 0.522059C20.235 0.514821 20.9585 0.55131 21.4239 1.01667C21.8009 1.39366 21.8313 2.24325 21.8558 2.92605C21.8793 3.58111 21.898 4.09865 22.1682 4.3547C22.215 4.39903 22.2765 4.42437 22.341 4.42588C22.5695 4.43022 22.9014 4.43522 23.2889 4.44106C23.3582 4.4421 23.4293 4.44317 23.5019 4.44427C24.6473 4.46116 26.1782 4.48378 26.9684 4.51334C27.1683 5.9643 26.6668 6.92065 25.4393 7.43426C24.2649 7.92526 21.3238 7.93642 16.6406 7.79014ZM16.6243 8.30708C18.208 8.35654 19.5965 8.3879 20.7911 8.3879C23.1834 8.3879 24.7978 8.26304 25.6386 7.91138C26.0989 7.71905 26.4767 7.4654 26.7702 7.15442C28.2774 7.14746 29.752 7.13729 31.1978 7.12391C30.712 15.7688 30.832 24.9393 31.5851 36.7724C23.9874 36.6442 16.1384 36.5147 8.44358 36.7988C8.37844 29.3726 8.24001 21.9392 8.10611 14.7486L8.1061 14.7479L8.0934 14.0641L8.0934 14.064L8.0934 14.0638L8.0934 14.0637L8.09339 14.0636L8.09339 14.0635L8.09339 14.0634L8.09339 14.0633L8.09338 14.0631C8.05025 11.7404 8.00713 9.41855 7.96676 7.09345C9.60692 7.10951 11.2086 7.12289 12.7746 7.13358C13.4932 8.01121 14.753 8.24872 16.6243 8.30708ZM12.4478 6.61375C12.244 6.1868 12.1179 5.65418 12.0654 4.99C9.89584 4.98565 7.74623 4.98588 5.6135 4.9863C5.61377 7.05653 5.61184 9.12309 5.60991 11.1873V11.1874V11.1874V11.1875V11.1875V11.1876V11.1876V11.1876V11.1877L5.60927 11.8771L5.60927 11.8775C5.60053 20.8434 5.59148 30.1113 5.74982 39.3223C9.36381 39.2289 13.0643 39.1818 16.8858 39.1818C22.4047 39.1818 28.176 39.2795 34.307 39.4756C33.7527 28.1477 33.6453 16.6631 33.988 5.32891C31.8086 5.25364 29.6552 5.19482 27.5255 5.14887C27.5164 5.71352 27.3911 6.21096 27.1527 6.6351C28.6213 6.62779 30.059 6.61742 31.4693 6.60396C31.5341 6.60034 31.6098 6.63231 31.6593 6.68418C31.7088 6.73606 31.7344 6.80633 31.7302 6.87781C31.2235 15.6499 31.3435 24.9456 32.1192 37.0193C32.1238 37.0914 32.0981 37.1623 32.0483 37.2145C31.9983 37.2665 31.9268 37.2955 31.8568 37.2946L31.7465 37.2928L31.7394 37.2927C24.0106 37.1622 16.0184 37.0273 8.19718 37.326H8.18723C8.12087 37.326 8.05695 37.3004 8.00899 37.2545C7.95802 37.206 7.92937 37.1393 7.92877 37.0697C7.86471 29.5786 7.72509 22.0768 7.59004 14.8204L7.59004 14.8203L7.58887 14.7575L7.58755 14.6868L7.58754 14.6861L7.58754 14.686L7.58754 14.6859V14.6859V14.6859C7.53882 12.07 7.49013 9.45516 7.4447 6.83679C7.44349 6.76712 7.47064 6.69957 7.5198 6.6501C7.56896 6.60034 7.63834 6.57199 7.70619 6.5735C9.32319 6.58949 10.9028 6.6029 12.4478 6.61375ZM27.503 4.63101C27.4898 4.49678 27.4707 4.35931 27.4458 4.21868C27.4247 4.09985 27.3242 4.01149 27.2036 4.00546C26.4985 3.97107 24.771 3.94544 23.5094 3.92674C23.4442 3.92577 23.3802 3.92482 23.3177 3.9239C22.991 3.91907 22.7028 3.91481 22.4816 3.91076C22.402 3.71985 22.3854 3.25781 22.373 2.90736L22.3729 2.90588C22.3437 2.09285 22.3106 1.17137 21.7897 0.650836C21.1835 0.0443327 20.2929 -0.00271373 19.9388 0.0045245L19.9363 0.0045808C19.4806 0.0148466 18.6358 0.0338783 18.0666 0.583279C17.4245 1.20242 17.3399 2.5433 17.2838 3.43211L17.2836 3.43484C17.2737 3.59378 17.2619 3.77896 17.248 3.90291C16.987 3.9061 16.6487 3.90928 16.2691 3.91285C16.1452 3.91402 16.0169 3.91522 15.8854 3.91648L15.782 3.91748C14.5109 3.92965 12.9712 3.9444 12.2889 3.96172C12.1487 3.96534 12.0371 4.08025 12.0371 4.22049C12.0371 4.30625 12.038 4.39022 12.0399 4.47244C9.79124 4.46794 7.56402 4.46833 5.35473 4.46877C5.28597 4.46877 5.22022 4.49591 5.17167 4.54447C5.12311 4.59302 5.09596 4.65877 5.09596 4.72723C5.09651 6.90206 5.09456 9.07238 5.09261 11.24L5.09204 11.8765C5.083 20.9297 5.07394 30.2905 5.2368 39.5922C5.23801 39.6614 5.26697 39.7267 5.31674 39.7745C5.3665 39.8224 5.43103 39.851 5.50251 39.8462C14.4821 39.6086 23.9908 39.6589 34.5706 40.0015L34.5791 40.0018C34.6485 40.0018 34.7148 39.974 34.7636 39.9247C34.8143 39.8731 34.8409 39.8025 34.8375 39.7304C34.2675 28.2401 34.1584 16.5844 34.513 5.08733C34.5173 4.94498 34.406 4.82585 34.2636 4.82103C31.9823 4.74093 29.7297 4.67895 27.503 4.63101ZM12.3782 15.5162H12.3731C12.276 15.514 12.1882 15.4579 12.1457 15.3708C11.8541 14.7727 11.4973 14.2042 11.0856 13.6804C10.9973 13.5679 11.0169 13.4053 11.129 13.3169C11.2412 13.2289 11.4044 13.2482 11.4925 13.3607C11.8245 13.7832 12.1225 14.2332 12.3819 14.7037L13.5454 12.5388C13.613 12.4128 13.7704 12.3663 13.8959 12.4333C14.0216 12.5011 14.069 12.658 14.0011 12.7837L12.6059 15.3798C12.561 15.464 12.4732 15.5162 12.3782 15.5162ZM12.3731 22.3391H12.3782C12.4732 22.3391 12.561 22.2866 12.6059 22.2028L14.0011 19.6066C14.069 19.4809 14.0216 19.3241 13.8959 19.2562C13.7704 19.1892 13.613 19.236 13.5454 19.3618L12.3819 21.5266C12.1225 21.0561 11.8242 20.6058 11.4925 20.1836C11.4038 20.0711 11.2412 20.0515 11.129 20.1402C11.0169 20.2285 10.9973 20.3911 11.0856 20.5033C11.4973 21.0268 11.8538 21.5956 12.1457 22.1937C12.1882 22.2809 12.276 22.337 12.3731 22.3391ZM11.8684 29.162H11.8635C11.7664 29.1598 11.6787 29.1037 11.6358 29.0166C11.3442 28.4188 10.9877 27.8503 10.576 27.3261C10.488 27.2139 10.5073 27.0511 10.6198 26.963C10.732 26.8746 10.8948 26.8943 10.9829 27.0064C11.3149 27.429 11.6129 27.8793 11.8723 28.3494L13.0358 26.1846C13.1034 26.0588 13.2608 26.0121 13.386 26.0794C13.5117 26.1469 13.5591 26.3037 13.4915 26.4295L12.0964 29.0255C12.0511 29.1098 11.9637 29.162 11.8684 29.162ZM16.495 15.6175C17.1663 15.6238 17.8389 15.6268 18.5126 15.6268C21.8796 15.6268 25.2716 15.5514 28.622 15.4025C28.7647 15.3964 28.8754 15.2755 28.8687 15.1328C28.8627 14.9899 28.7384 14.8716 28.5991 14.8858C24.5873 15.0641 20.5161 15.1367 16.4998 15.1003H16.4974C16.3556 15.1003 16.2401 15.2146 16.2386 15.3566C16.2374 15.4996 16.3523 15.6163 16.495 15.6175ZM18.5126 22.3195C17.8389 22.3195 17.1663 22.3165 16.495 22.3105C16.3523 22.309 16.2374 22.1923 16.2386 22.0493C16.2401 21.9073 16.3556 21.793 16.4974 21.793H16.4998C20.5161 21.8295 24.5873 21.7568 28.5991 21.5785C28.7384 21.5677 28.8627 21.6829 28.8687 21.8255C28.8754 21.9682 28.7647 22.0891 28.622 22.0952C25.2716 22.2444 21.8796 22.3195 18.5126 22.3195ZM16.6756 28.9999C17.347 29.006 18.0192 29.009 18.693 29.009C22.0603 29.009 25.452 28.934 28.8024 28.7849C28.9453 28.7785 29.0557 28.6577 29.0494 28.515C29.0434 28.3763 28.9287 28.2677 28.7912 28.2677L28.7795 28.268C24.7677 28.4462 20.6965 28.5193 16.6802 28.4824H16.6777C16.536 28.4824 16.4205 28.597 16.4193 28.7387C16.4178 28.8818 16.5327 28.9987 16.6756 28.9999Z" fill="#173773"/>
</g>
<defs>
<clipPath id="clip0_1269_10622">
<rect width="40" height="40" fill="white"/>
</clipPath>
</defs>
</svg>
