<svg width="40" height="40" viewBox="0 0 40 40" fill="none" xmlns="http://www.w3.org/2000/svg">
<path fill-rule="evenodd" clip-rule="evenodd" d="M0.220703 29.4102V32.289H13.7347V36.9865H18.2539V32.289H31.7384V29.4102H0.220703Z" fill="#FFE6A5"/>
<path fill-rule="evenodd" clip-rule="evenodd" d="M23.8929 20.1881C20.0018 20.1881 16.8395 17.0238 16.8395 13.1338C16.8395 9.24366 20.0018 6.07944 23.8929 6.07944C27.781 6.07944 30.9472 9.24366 30.9472 13.1338C30.9472 17.0238 27.781 20.1881 23.8929 20.1881ZM16.3991 13.1338C16.3991 17.2658 19.7598 20.6275 23.8929 20.6275C28.0239 20.6275 31.3867 17.2658 31.3867 13.1338C31.3867 9.0017 28.0239 5.63997 23.8929 5.63997C19.7598 5.63997 16.3991 9.0017 16.3991 13.1338ZM14.5355 13.1338C14.5355 7.97363 18.7327 3.7764 23.8929 3.7764C29.053 3.7764 33.2502 7.97363 33.2502 13.1338C33.2502 18.2939 29.053 22.4911 23.8929 22.4911C18.7327 22.4911 14.5355 18.2939 14.5355 13.1338ZM14.0951 13.1338C14.0951 18.5358 18.4898 22.9316 23.8929 22.9316C26.227 22.9316 28.3729 22.1112 30.0574 20.7437L31.5177 22.1799V29.1888H0.440462V9.76208H14.6926C14.7472 9.61355 14.8053 9.46669 14.8668 9.32161H0.220231C0.0987583 9.32161 0 9.42037 0 9.54185V29.409V31.3615V32.2878C0 32.4093 0.0987583 32.5081 0.220231 32.5081H13.514V36.7669H9.28761C9.16614 36.7669 9.06738 36.8657 9.06738 36.9872C9.06738 37.1086 9.16614 37.2064 9.28761 37.2064H13.7138L13.7232 37.207L13.7332 37.2072H18.2524L18.2592 37.2071C18.2634 37.207 18.2677 37.2068 18.2718 37.2064H22.6723C22.7938 37.2064 22.8916 37.1086 22.8916 36.9872C22.8916 36.8657 22.7938 36.7669 22.6723 36.7669H18.4727V32.5081H31.738C31.8594 32.5081 31.9582 32.4093 31.9582 32.2878V31.3624L31.9582 31.3615L31.9582 29.409L31.9582 22.6131L34.3384 24.954L34.3569 24.9722C35.153 25.7556 35.9758 26.5652 36.8646 27.26C37.3772 27.662 37.9411 28.0333 38.586 28.0343H38.588C38.9524 28.0343 39.3346 27.8704 39.6071 27.5958C39.8629 27.339 40.0012 27.0102 39.9992 26.6685C39.9943 26.0799 39.6101 25.6266 39.2506 25.2473C36.9861 22.8581 34.599 20.5591 32.1486 18.4041C33.1239 16.8813 33.6897 15.0723 33.6897 13.1338C33.6897 7.73167 29.2959 3.33594 23.8929 3.33594C18.4898 3.33594 14.0951 7.73167 14.0951 13.1338ZM0.440462 29.6293H31.5177V31.1413H0.440462V29.6293ZM0.440462 31.5818H31.5177V32.0686H0.440462V31.5818ZM31.9013 18.7718C31.4648 19.39 30.9587 19.9558 30.3944 20.4574L34.6465 24.641L34.6789 24.6728L34.6789 24.6728L34.6789 24.6728C35.4628 25.4431 36.2721 26.2383 37.1342 26.9144C37.5875 27.2669 38.0754 27.5938 38.588 27.5938C38.8388 27.5938 39.1045 27.4793 39.2961 27.2857C39.4659 27.1129 39.5617 26.8946 39.5588 26.6714C39.5568 26.2438 39.2486 25.8824 38.9326 25.5495C36.6884 23.184 34.3268 20.9066 31.9013 18.7718ZM16.11 25.4587C16.11 25.1516 16.3609 24.9017 16.667 24.9017C16.9722 24.9017 17.2231 25.1516 17.2231 25.4587C17.2231 25.7658 16.9722 26.0147 16.667 26.0147C16.3609 26.0147 16.11 25.7658 16.11 25.4587ZM15.6706 25.4587C15.6706 26.0078 16.117 26.4552 16.667 26.4552C17.2152 26.4552 17.6625 26.0078 17.6625 25.4587C17.6625 24.9086 17.2152 24.4622 16.667 24.4622C16.117 24.4622 15.6706 24.9086 15.6706 25.4587ZM13.9535 32.5081H18.0322V36.7669H13.9535V32.5081ZM20.4258 24.9017C20.1207 24.9017 19.8698 25.1516 19.8698 25.4587C19.8698 25.7658 20.1207 26.0147 20.4258 26.0147C20.7349 26.0147 20.9828 25.7658 20.9828 25.4587C20.9828 25.1516 20.7349 24.9017 20.4258 24.9017ZM20.4258 26.4552C19.8777 26.4552 19.4303 26.0078 19.4303 25.4587C19.4303 24.9086 19.8777 24.4622 20.4258 24.4622C20.9769 24.4622 21.4253 24.9086 21.4253 25.4587C21.4253 26.0078 20.9769 26.4552 20.4258 26.4552ZM23.6312 25.4587C23.6312 25.1516 23.8791 24.9017 24.1882 24.9017C24.4934 24.9017 24.7442 25.1516 24.7442 25.4587C24.7442 25.7658 24.4934 26.0147 24.1882 26.0147C23.8791 26.0147 23.6312 25.7658 23.6312 25.4587ZM23.1917 25.4587C23.1917 26.0078 23.6371 26.4552 24.1882 26.4552C24.7363 26.4552 25.1837 26.0078 25.1837 25.4587C25.1837 24.9086 24.7363 24.4622 24.1882 24.4622C23.6371 24.4622 23.1917 24.9086 23.1917 25.4587ZM31.9178 21.5694L31.9277 21.5704C31.9633 21.5704 31.9929 21.5427 31.9988 21.5062C32.0897 20.8188 32.1983 20.1256 32.3217 19.4441C32.3267 19.4046 32.302 19.3661 32.2615 19.3592C32.223 19.3523 32.1825 19.378 32.1776 19.4175C32.0511 20.1019 31.9425 20.7981 31.8546 21.4874C31.8487 21.5269 31.8773 21.5635 31.9178 21.5694ZM32.9718 22.5727C32.9314 22.5727 32.8988 22.5401 32.8988 22.4996C32.8988 22.1549 32.9521 21.5762 32.9995 21.0656L33.0136 20.9083L33.0136 20.9081C33.0355 20.6645 33.0542 20.4567 33.0607 20.317C33.0627 20.2766 33.0933 20.244 33.1387 20.2469C33.1792 20.2489 33.2099 20.2835 33.2069 20.324C33.201 20.4703 33.1815 20.6882 33.1588 20.9423L33.1466 21.0785C33.0983 21.5861 33.0449 22.1619 33.0449 22.4996C33.0449 22.5401 33.0123 22.5727 32.9718 22.5727ZM33.9697 23.4907C33.9697 23.5302 34.0033 23.5618 34.0438 23.5618H34.0457C34.0862 23.5608 34.1168 23.5272 34.1168 23.4868L34.0606 21.0405C34.0606 21 34.0309 20.9694 33.9875 20.9694C33.947 20.9704 33.9144 21.004 33.9144 21.0445L33.9697 23.4907ZM35.0615 24.6419C35.0239 24.6419 34.9913 24.6103 34.9884 24.5718L34.8926 22.009C34.8926 21.9695 34.9222 21.9349 34.9627 21.9329C35.0061 21.9339 35.0387 21.9636 35.0387 22.004L35.1345 24.5658C35.1375 24.6063 35.1049 24.6399 35.0644 24.6419H35.0615ZM36.0282 25.4839C36.0311 25.5234 36.0607 25.5531 36.1012 25.5531H36.1042C36.1447 25.5511 36.1753 25.5165 36.1753 25.476L36.044 23.0831C36.041 23.0426 36.0133 23.01 35.9679 23.014C35.9274 23.016 35.8968 23.0505 35.8968 23.091L36.0282 25.4839ZM37.128 26.3984C37.0895 26.3984 37.0569 26.3688 37.0549 26.3303L36.8752 24.0006C36.8722 23.9601 36.9029 23.9255 36.9433 23.9226C36.9789 23.9166 37.0194 23.9492 37.0214 23.9897L37.2011 26.3194C37.2041 26.3599 37.1734 26.3955 37.133 26.3984H37.128ZM38.0273 27.0906C38.0303 27.1282 38.0628 27.1568 38.0984 27.1568L38.1053 27.1558C38.1458 27.1519 38.1764 27.1163 38.1715 27.0758L37.9621 25.0325C37.9591 24.992 37.9187 24.9624 37.8811 24.9673C37.8426 24.9713 37.813 25.0078 37.8179 25.0473L38.0273 27.0906ZM39.0522 27.0457C39.0167 27.0457 38.986 27.02 38.9811 26.9835L38.832 26.0709C38.827 26.0304 38.8527 25.9929 38.8932 25.987C38.9337 25.9791 38.9712 26.0077 38.9762 26.0472L39.1253 26.9607C39.1302 27.0003 39.1055 27.0378 39.0651 27.0447L39.0522 27.0457ZM31.1014 20.5346L31.1212 20.5375C31.1518 20.5375 31.1824 20.5168 31.1923 20.4842L31.3592 19.8946C31.372 19.8551 31.3493 19.8146 31.3108 19.8037C31.3077 19.8029 31.3045 19.8022 31.3012 19.8017C31.2969 19.8011 31.2925 19.8008 31.2881 19.8008C31.2574 19.8008 31.2278 19.8225 31.2199 19.8541L31.051 20.4437C31.0402 20.4822 31.0609 20.5227 31.1014 20.5346ZM3.56301 25.0941C3.52252 25.0941 3.48301 25.0832 3.44647 25.0605C3.34377 24.9963 3.31216 24.861 3.37636 24.7573L6.83389 19.2259C6.86549 19.1755 6.91586 19.14 6.97314 19.1281C7.0314 19.1153 7.09165 19.1261 7.14102 19.1597L10.725 21.5279L13.5633 18.0329C13.6393 17.9391 13.7776 17.9242 13.8724 18.0013C13.9662 18.0773 13.981 18.2166 13.904 18.3104L10.9412 21.9605C10.8701 22.0484 10.7437 22.0681 10.6489 22.0049L7.08671 19.6505L3.74966 24.9904C3.70818 25.0576 3.63609 25.0941 3.56301 25.0941ZM29.0976 15.8364C29.1411 15.8828 29.1993 15.9065 29.2566 15.9065C29.3099 15.9065 29.3662 15.8867 29.4067 15.8462C29.4976 15.7633 29.4995 15.624 29.4166 15.5361L23.6442 9.3914C23.6037 9.34597 23.5355 9.32325 23.4802 9.32227C23.417 9.32424 23.3588 9.35189 23.3183 9.3993L18.2994 15.2596C18.2213 15.3515 18.2312 15.4907 18.325 15.5697C18.4159 15.6487 18.5551 15.6379 18.6332 15.546L23.4931 9.87136L29.0976 15.8364Z" fill="#173773"/>
</svg>
