<svg width="40" height="40" viewBox="0 0 40 40" fill="none" xmlns="http://www.w3.org/2000/svg">
<g clip-path="url(#clip0_1269_10278)">
<path d="M26.8438 12.3335C28.5326 11.3724 30.2418 10.4496 31.9762 9.57581C33.6279 8.74394 35.3012 7.94918 36.9889 7.19272C37.4461 6.98925 37.9022 6.78338 38.3618 6.58109C37.4485 4.95088 36.0912 3.5409 34.3353 2.54147C32.6656 1.58991 30.8331 1.1255 29.0138 1.10156C28.6523 2.83352 28.3303 4.57145 27.9868 6.3058C27.5918 8.31305 27.2148 10.3227 26.8438 12.3335Z" fill="#FFE6A5"/>
<path fill-rule="evenodd" clip-rule="evenodd" d="M34.9894 3.2696C34.7361 3.09491 34.4737 2.93021 34.2026 2.77604C32.6405 1.88644 30.9335 1.43325 29.2265 1.37752C29.0137 2.41399 28.8099 3.46527 28.612 4.48668L28.5988 4.55479C28.4827 5.15684 28.3666 5.7577 28.2469 6.35856C27.8794 8.22098 27.5323 10.0738 27.2079 11.8213C28.7855 10.932 30.3487 10.0978 31.8556 9.33891C33.505 8.50944 35.1926 7.7063 36.8779 6.95104L37.0958 6.85409C37.2896 6.76812 37.4824 6.68164 37.6748 6.59532L37.675 6.59521L37.6756 6.59498L37.6764 6.59461L37.9815 6.4579C37.2261 5.1976 36.2046 4.1109 34.9894 3.2696ZM26.6873 12.5515C26.7328 12.585 26.7878 12.6017 26.8429 12.6017C26.8896 12.6017 26.9326 12.5898 26.9745 12.5658C28.7149 11.576 30.4372 10.6495 32.095 9.81528C33.7348 8.9894 35.4201 8.18986 37.0993 7.43819L37.316 7.34004C37.4202 7.29349 37.5243 7.24677 37.6286 7.20001L37.6287 7.19994L37.6289 7.19987L37.629 7.1998C37.8353 7.10727 38.0418 7.01462 38.2492 6.92296C38.6233 7.62852 38.9176 8.38259 39.1244 9.17482C39.4287 10.3459 39.5277 11.5405 39.427 12.7186C39.3342 13.7841 39.0789 14.8449 38.6596 15.8652C38.4459 16.3836 38.19 16.8906 37.8927 17.3821C37.2061 18.5182 36.3434 19.491 35.3605 20.2854C35.1435 20.0662 34.9263 19.8469 34.7091 19.6277L34.7008 19.6193L34.6924 19.6108C34.4694 19.3858 34.2465 19.1607 34.0238 18.9356C33.0951 17.9986 31.271 16.2431 29.6554 14.6884L29.6549 14.6879L29.6548 14.6878L29.6299 14.6638L29.0294 14.0842L29.0291 14.084L29.0284 14.0833C28.3189 13.3987 27.7041 12.8056 27.2822 12.3924C27.18 12.4502 27.0776 12.5082 26.9752 12.5665C26.9333 12.5904 26.8902 12.6024 26.8435 12.6024C26.7885 12.6024 26.7334 12.5856 26.6879 12.5521C26.6763 12.5437 26.6654 12.5343 26.6554 12.5242C26.6652 12.5341 26.6759 12.5432 26.6873 12.5515ZM35.3893 2.89754C36.7187 3.83595 37.8046 5.03863 38.5885 6.43101C39.7558 8.49122 40.2036 10.8479 39.9172 13.1638C39.7254 14.714 39.2047 16.2459 38.3507 17.6585C37.6062 18.8913 36.6475 19.9662 35.5008 20.8531L35.4951 20.8574C33.4162 22.4629 30.8536 23.3273 28.2683 23.3273C26.3532 23.3273 24.4249 22.8533 22.6702 21.8551C20.0801 20.3804 18.2416 17.9914 17.4971 15.1259C16.7371 12.2042 17.1943 9.14369 18.7874 6.50806C19.1585 5.89427 19.5788 5.32601 20.0402 4.80542H0.532633V13.8338H17.241C17.2654 14.012 17.2943 14.19 17.3275 14.3677H0.266915C0.119693 14.3677 0 14.248 0 14.1008V4.5397C0 4.39248 0.119693 4.27279 0.266915 4.27279H20.5431C22.8002 2.02796 25.8717 0.81334 28.9681 0.83961C28.9827 0.837193 28.9976 0.835938 29.0129 0.835938H29.0153C29.7837 0.846503 30.5476 0.934912 31.2935 1.09761C32.0039 1.25154 32.7048 1.47524 33.3866 1.77133C33.7562 1.9314 34.1171 2.11132 34.4673 2.31055C34.7853 2.4916 35.0929 2.68758 35.3893 2.89754ZM28.2707 22.7946C30.6427 22.7954 32.9932 22.0336 34.9339 20.6136C34.7566 20.4347 34.5796 20.2559 34.4026 20.077L34.3965 20.0708C34.1461 19.8177 33.8957 19.5646 33.6444 19.3115C32.7233 18.3809 30.9111 16.6357 29.3028 15.0869L29.3028 15.0869L29.3026 15.0867L29.3023 15.0864L29.2624 15.048C28.1313 13.96 27.1546 13.0204 26.6555 12.5249C26.6422 12.5115 26.6304 12.4969 26.6204 12.4813C26.5832 12.4247 26.5674 12.3547 26.5796 12.2857C26.9326 10.3754 27.3181 8.32152 27.7262 6.25562L27.7289 6.2417C27.8441 5.64548 27.9593 5.04928 28.0745 4.45425L28.12 4.2206C28.3027 3.28285 28.4897 2.32278 28.6832 1.37317C24.9575 1.43481 21.3063 3.37403 19.2434 6.78455C17.7269 9.2957 17.2888 12.2102 18.0118 14.9919C18.7228 17.7161 20.4691 19.989 22.9336 21.3907C24.6057 22.3434 26.4441 22.7946 28.2707 22.7946ZM0.532633 39.0591H29.7819V30.0307H0.532633V39.0591ZM30.0489 39.5917H0.266915C0.119693 39.5917 0 39.4732 0 39.326V29.7638C0 29.6165 0.119693 29.498 0.266915 29.498H30.0489C30.1961 29.498 30.3158 29.6165 30.3158 29.7638V39.326C30.3158 39.4732 30.1961 39.5917 30.0489 39.5917ZM5.17636 33.6309C4.67365 33.6309 4.2631 34.0415 4.2631 34.5454C4.2631 35.0481 4.67365 35.4575 5.17636 35.4575C5.68026 35.4575 6.08961 35.0481 6.08961 34.5454C6.08961 34.0415 5.68026 33.6309 5.17636 33.6309ZM5.17636 35.9913C4.3792 35.9913 3.73047 35.3425 3.73047 34.5454C3.73047 33.747 4.3792 33.0983 5.17636 33.0983C5.97471 33.0983 6.62344 33.747 6.62344 34.5454C6.62344 35.3425 5.97471 35.9913 5.17636 35.9913ZM10.3157 34.5454C10.3157 34.0415 10.7251 33.6309 11.229 33.6309C11.7317 33.6309 12.1422 34.0415 12.1422 34.5454C12.1422 35.0481 11.7317 35.4575 11.229 35.4575C10.7251 35.4575 10.3157 35.0481 10.3157 34.5454ZM9.7819 34.5454C9.7819 35.3425 10.4306 35.9913 11.229 35.9913C12.0261 35.9913 12.6749 35.3425 12.6749 34.5454C12.6749 33.747 12.0261 33.0983 11.229 33.0983C10.4306 33.0983 9.7819 33.747 9.7819 34.5454ZM28.4308 12.9904L28.4774 13.0036C28.505 13.0036 28.5349 12.988 28.5505 12.9605L29.1908 11.894C29.2159 11.8521 29.2028 11.7983 29.1609 11.7731C29.1202 11.748 29.0651 11.7612 29.0376 11.8031L28.4008 12.8683C28.3733 12.9114 28.3889 12.9653 28.4308 12.9904ZM29.3693 13.9186L29.3262 13.9066C29.2831 13.8814 29.2675 13.8276 29.2927 13.7857L31.0019 10.8185C31.027 10.7766 31.0821 10.7611 31.1252 10.7862C31.1647 10.8101 31.1802 10.8652 31.1551 10.9071L29.4459 13.8743C29.4303 13.903 29.3992 13.9186 29.3693 13.9186ZM30.3941 14.8331L30.4372 14.8439C30.4683 14.8439 30.4982 14.8259 30.5138 14.796C31.3349 13.2412 32.138 11.6469 32.9005 10.0586C32.922 10.0131 32.9041 9.96044 32.8586 9.94009C32.8155 9.91855 32.7628 9.9365 32.7413 9.98079C31.9788 11.5679 31.1757 13.1598 30.3582 14.7134C30.3367 14.7565 30.351 14.8104 30.3941 14.8331ZM31.4129 15.9305L31.377 15.921C31.3303 15.9006 31.3124 15.8468 31.3339 15.8025L34.489 9.21698C34.5106 9.1715 34.5632 9.15354 34.6087 9.17509C34.6518 9.19544 34.6709 9.2493 34.6494 9.29358L31.4931 15.8791C31.4775 15.9114 31.4464 15.9305 31.4129 15.9305ZM32.4967 16.9315L32.5338 16.9398C32.5673 16.9398 32.602 16.9195 32.6163 16.8872L36.407 8.46441C36.425 8.42012 36.407 8.36746 36.3615 8.34711C36.3184 8.32676 36.2658 8.34711 36.2442 8.39139L32.4548 16.8142C32.4332 16.8585 32.4548 16.9111 32.4967 16.9315ZM33.6761 18.0839L33.6426 18.0767C33.5971 18.0575 33.5756 18.0049 33.5936 17.9606L37.954 7.60956C37.9719 7.56408 38.0246 7.54253 38.0701 7.56168C38.1132 7.58083 38.1347 7.6335 38.1167 7.67898L33.7587 18.0288C33.7432 18.0635 33.7097 18.0839 33.6761 18.0839ZM34.7547 18.8821L34.7918 18.8893C34.8253 18.8893 34.8588 18.8689 34.8744 18.8354L38.7105 9.87644C38.7297 9.83095 38.7105 9.77829 38.665 9.75914C38.6183 9.73999 38.5669 9.76033 38.5477 9.80582L34.7092 18.7648C34.69 18.8103 34.7116 18.8618 34.7547 18.8821ZM36.7716 17.8749L36.7345 17.8666C36.6914 17.8474 36.6698 17.7947 36.6914 17.7505C37.4143 16.125 38.1445 14.4685 38.8542 12.8239C38.8734 12.7784 38.9249 12.7569 38.9715 12.7772C39.017 12.7964 39.0362 12.849 39.017 12.8933C38.306 14.5391 37.5771 16.198 36.8542 17.8223C36.8386 17.8546 36.8051 17.8749 36.7716 17.8749ZM18.1176 16.8867C18.1991 17.067 18.2853 17.2445 18.3761 17.4194H0.532633V26.4478H29.7819V23.2293C29.9605 23.206 30.1385 23.1786 30.3158 23.1471V26.7147C30.3158 26.8619 30.1961 26.9816 30.0489 26.9816H0.266915C0.119693 26.9816 0 26.8619 0 26.7147V17.1524C0 17.0064 0.119693 16.8867 0.266915 16.8867H18.1176ZM5.17636 8.40893C4.67365 8.40893 4.2631 8.81828 4.2631 9.32219C4.2631 9.8261 4.67365 10.2354 5.17636 10.2354C5.68026 10.2354 6.08961 9.8261 6.08961 9.32219C6.08961 8.81828 5.68026 8.40893 5.17636 8.40893ZM5.17636 10.7693C4.3792 10.7693 3.73047 10.1193 3.73047 9.32219C3.73047 8.52504 4.3792 7.8763 5.17636 7.8763C5.97471 7.8763 6.62344 8.52504 6.62344 9.32219C6.62344 10.1193 5.97471 10.7693 5.17636 10.7693ZM10.3157 9.32219C10.3157 8.81828 10.7251 8.40893 11.229 8.40893C11.7317 8.40893 12.1422 8.81828 12.1422 9.32219C12.1422 9.8261 11.7317 10.2354 11.229 10.2354C10.7251 10.2354 10.3157 9.8261 10.3157 9.32219ZM9.7819 9.32219C9.7819 10.1193 10.4306 10.7693 11.229 10.7693C12.0261 10.7693 12.6749 10.1193 12.6749 9.32219C12.6749 8.52504 12.0261 7.8763 11.229 7.8763C10.4306 7.8763 9.7819 8.52504 9.7819 9.32219Z" fill="#173773"/>
</g>
<defs>
<clipPath id="clip0_1269_10278">
<rect width="40" height="40" fill="white"/>
</clipPath>
</defs>
</svg>
