<svg width="40" height="40" viewBox="0 0 40 40" fill="none" xmlns="http://www.w3.org/2000/svg">
<g clip-path="url(#clip0_1269_10655)">
<path d="M9.08989 14.8147C8.93105 18.4424 8.89679 21.9646 9.00658 25.6202C11.5276 25.6279 14.1038 25.9128 16.6404 25.5524C16.5179 22.0391 16.4198 18.525 16.3863 14.9337C17.6507 14.9344 18.9137 14.9344 20.1915 14.9107C17.7693 12.0879 15.3463 9.26533 12.7483 6.40397C10.2124 9.09519 7.77852 11.8905 5.43359 14.7819C6.65918 14.783 7.90631 14.8147 9.08989 14.8147Z" fill="#FFE6A5"/>
<path fill-rule="evenodd" clip-rule="evenodd" d="M1.14004 36.1608C0.69209 35.0051 0.307691 33.3026 0.955785 31.6552C8.52112 31.5228 16.6407 31.5351 27.2061 31.6947C26.9696 33.9835 27.4602 36.3182 28.6039 38.3059C28.7557 38.571 28.9463 38.8537 29.1758 39.0963C26.5178 39.0977 23.8527 39.1721 21.2652 39.2449C16.101 39.3896 10.7595 39.5393 5.42469 39.1054C3.91283 38.9028 1.94168 38.2275 1.14004 36.1608ZM5.35937 39.7122C8.03435 39.93 10.703 40.0024 13.3469 40.0024C16.0224 40.0024 18.6747 39.928 21.2783 39.855H21.2784L21.2829 39.8548C24.2374 39.7722 27.2873 39.6872 30.3124 39.7108C30.376 39.7154 30.4395 39.7158 30.503 39.7115C30.5374 39.7092 30.5702 39.7012 30.6005 39.6884C30.7795 39.7025 30.9585 39.7094 31.1373 39.7094C33.3188 39.7094 35.4332 38.6716 36.6758 36.8724C37.6288 35.4869 38.0418 33.7866 38.3525 32.3015C40.5199 21.9433 40.1245 11.3518 39.5315 1.39101C39.5244 1.23463 39.3973 1.11074 39.242 1.10403C30.1489 0.725621 20.7734 0.747856 11.3754 1.17039C11.2144 1.1778 11.087 1.30841 11.0838 1.46973C11.0423 3.57028 11.0467 5.68635 11.0651 7.77422C9.07803 9.94848 7.10989 12.2355 5.1969 14.5944C5.12277 14.6858 5.10761 14.8118 5.15808 14.9181C5.20892 15.0243 5.31587 15.0917 5.43341 15.0921C6.01595 15.0924 6.60307 15.1 7.18596 15.1075L7.18618 15.1075H7.1864H7.18662H7.18683H7.18703H7.18723H7.18743H7.18762H7.18781H7.188H7.18817H7.18835H7.18852H7.18869L7.2545 15.1083C7.76563 15.1154 8.27322 15.1221 8.77129 15.1242C8.62057 18.7382 8.59763 22.1798 8.70177 25.6342C8.70671 25.7987 8.84121 25.9297 9.0057 25.93C9.6007 25.932 10.209 25.9497 10.8072 25.9704C10.671 27.6366 10.4829 29.2971 10.2261 30.956C6.89805 30.9635 3.77854 30.9944 0.745403 31.0484C0.626445 31.0505 0.519504 31.1218 0.471145 31.2305C-0.362977 33.1236 0.0648527 35.0767 0.571044 36.3814C1.2908 38.2374 2.94102 39.3885 5.35937 39.7122ZM11.6888 1.76766C11.6571 3.54841 11.6573 5.3406 11.6701 7.11625C11.9552 6.80823 12.2405 6.50261 12.5261 6.19951C12.5847 6.13739 12.6592 6.0989 12.7513 6.10384C12.8364 6.10455 12.9172 6.14056 12.9744 6.20374C15.5692 9.06125 18.0283 11.9258 20.4071 14.6967L20.4074 14.6971L20.4075 14.6972L20.4141 14.7049C20.4917 14.7942 20.5129 14.9265 20.467 15.0339C20.4176 15.1419 20.3152 15.2181 20.1987 15.2206C19.0233 15.2428 17.84 15.2442 16.6946 15.2439C16.7263 18.2955 16.804 21.4897 16.9452 25.5467C16.9509 25.7024 16.8379 25.8372 16.6833 25.8594C15.6896 26.0006 14.6867 26.0441 13.6899 26.0441C12.9226 26.0441 12.1591 26.0182 11.4059 25.9916C11.2705 27.6475 11.0853 29.303 10.8342 30.9549C15.8018 30.9481 21.2432 30.9926 27.5555 31.0893C27.6403 31.0907 27.725 31.1292 27.7815 31.1956C27.8379 31.2616 27.8627 31.3491 27.8521 31.4356C27.545 33.6997 27.9968 36.0312 29.1334 38.0013C29.3156 38.3188 29.638 38.7923 30.0299 39C32.3813 39.4269 34.835 38.4625 36.171 36.5258C37.0641 35.2335 37.4559 33.6034 37.7559 32.1762C39.888 21.9874 39.5173 11.5417 38.9384 1.70306C30.043 1.34018 20.8793 1.36207 11.6888 1.76766ZM16.3257 25.2911C14.7139 25.4907 13.0604 25.4395 11.4535 25.3825C11.4536 25.382 11.4536 25.3815 11.4537 25.381C11.4044 25.3792 11.3551 25.3775 11.3059 25.3757L11.295 25.3753C11.1492 25.3701 11.0024 25.3648 10.8549 25.3596C10.8548 25.3602 10.8548 25.3607 10.8548 25.3612C10.3413 25.3434 9.81973 25.3276 9.30327 25.3218C9.2069 21.8798 9.23689 18.4455 9.39503 14.833C9.39856 14.7497 9.36787 14.6685 9.31033 14.6085C9.25279 14.5481 9.17301 14.5142 9.09006 14.5142C8.49834 14.5142 7.891 14.5063 7.27838 14.4982L7.26225 14.498C6.86725 14.4927 6.47014 14.4874 6.07373 14.4846C6.07415 14.4841 6.07457 14.4836 6.075 14.4831C6.07474 14.483 6.07448 14.483 6.07422 14.483C8.24795 11.8247 10.4888 9.26299 12.7451 6.85735C15.1024 9.46173 17.3509 12.0725 19.5356 14.6189C19.535 14.619 19.5344 14.619 19.5338 14.619C19.5342 14.6195 19.5347 14.62 19.5351 14.6205C18.5268 14.6336 17.5171 14.6336 16.5298 14.6336L16.3864 14.6336C16.3049 14.6336 16.2268 14.666 16.1697 14.7239C16.1352 14.7586 16.1101 14.8004 16.0955 14.8459C16.0861 14.8759 16.0813 14.9076 16.0816 14.9398C16.1105 18.0207 16.1861 21.2231 16.3262 25.2896C16.326 25.2896 16.3258 25.2896 16.3257 25.2896C16.3257 25.2901 16.3257 25.2906 16.3257 25.2911ZM34.5515 8.8533H34.5586C34.7245 8.8533 34.8622 8.72199 34.8657 8.55643C34.8692 8.38806 34.7351 8.24757 34.5692 8.24298C29.6414 8.11025 24.6465 8.09013 19.7188 8.18296C19.5529 8.18614 19.4187 8.32558 19.4223 8.49395C19.4223 8.66233 19.5564 8.79823 19.7329 8.79329C24.6466 8.70045 29.6343 8.72092 34.5515 8.8533ZM34.1421 14.3806H34.1386L22.984 14.2822C22.8181 14.2807 22.6805 14.1431 22.684 13.9743C22.684 13.8067 22.8217 13.6718 22.9876 13.6718H22.9911L34.1457 13.7703C34.3116 13.7717 34.4492 13.9097 34.4457 14.0785C34.4457 14.2458 34.3081 14.3806 34.1421 14.3806ZM19.1328 19.7409C19.1398 19.9057 19.2739 20.0349 19.4363 20.0349L19.4504 20.0346C24.2441 19.8588 29.1048 19.7833 33.909 19.8118H33.9126C34.0785 19.8118 34.2161 19.6763 34.2161 19.5083C34.2197 19.3399 34.082 19.2022 33.9126 19.2012C29.1013 19.1729 24.23 19.2485 19.4257 19.4246C19.2598 19.431 19.1257 19.5725 19.1328 19.7409ZM19.2847 25.2075C19.1188 25.2075 18.9847 25.074 18.9812 24.9074C18.9777 24.7387 19.1118 24.6 19.2812 24.5968L33.9375 24.349C34.0963 24.3444 34.2446 24.4803 34.2481 24.649C34.2516 24.8174 34.1175 24.9565 33.9481 24.9593L19.2918 25.2075H19.2847ZM2.22354 34.4071L2.27791 34.423C2.31144 34.423 2.34426 34.4064 2.36367 34.3757C2.75655 33.7572 3.21157 33.1744 3.71635 32.6442C3.75518 32.6033 3.75339 32.539 3.7128 32.5002C3.67221 32.4617 3.60761 32.4628 3.56878 32.5037C3.05482 33.0438 2.59169 33.6368 2.19211 34.2669C2.16175 34.3142 2.17589 34.3771 2.22354 34.4071ZM2.49101 37.1248L2.43489 37.1078C2.38794 37.0768 2.37525 37.0136 2.40631 36.967C3.44517 35.4032 4.62767 33.92 5.92104 32.5578C5.95987 32.5168 6.02482 32.5161 6.06506 32.5542C6.10566 32.5927 6.10744 32.6577 6.06861 32.6983C4.78337 34.0516 3.60825 35.5257 2.57574 37.0792C2.55633 37.1089 2.52384 37.1248 2.49101 37.1248ZM4.15841 38.1668L4.21312 38.1827C4.24665 38.1827 4.2795 38.1665 4.29892 38.1358C5.51145 36.2381 6.87151 34.4106 8.34137 32.7039C8.37808 32.6616 8.37315 32.5973 8.33079 32.5606C8.28808 32.5243 8.22382 32.5285 8.18711 32.5712C6.7109 34.2853 5.34517 36.1205 4.12735 38.0263C4.09699 38.0737 4.11111 38.1365 4.15841 38.1668ZM6.83513 38.4073L6.78184 38.3922C6.73383 38.3625 6.71903 38.2997 6.74868 38.252C7.9372 36.3314 9.24538 34.4542 10.6365 32.6723C10.6711 32.6278 10.7354 32.6197 10.7795 32.6543C10.8236 32.6889 10.8317 32.7531 10.7971 32.7972C9.41022 34.5735 8.10627 36.4447 6.92162 38.359C6.90256 38.39 6.86902 38.4073 6.83513 38.4073ZM9.17653 38.602L9.23265 38.6189C9.26548 38.6189 9.29797 38.6027 9.31739 38.5734L13.2236 32.659C13.2547 32.6124 13.2416 32.5492 13.195 32.5181C13.1477 32.4867 13.0849 32.5001 13.0541 32.5471L9.14758 38.4611C9.11687 38.5081 9.12959 38.5713 9.17653 38.602ZM11.9281 38.4366L11.8723 38.4204C11.8254 38.3893 11.812 38.3265 11.8427 38.2795C13.0877 36.3737 14.2981 34.4083 15.4404 32.4382C15.469 32.3895 15.5311 32.3733 15.5795 32.4012C15.6282 32.4294 15.6448 32.4915 15.6165 32.5402C14.4721 34.5135 13.2599 36.4821 12.0132 38.3907C11.9934 38.4204 11.9613 38.4366 11.9281 38.4366ZM14.2018 38.4646L14.2587 38.4822C14.2911 38.4822 14.3233 38.4663 14.343 38.4374C15.6134 36.5538 16.8648 34.6138 18.0618 32.6719C18.0911 32.6239 18.0763 32.5615 18.0286 32.5318C17.981 32.5029 17.9181 32.517 17.8885 32.565C16.6929 34.5047 15.4433 36.4423 14.1743 38.3237C14.1429 38.3699 14.1552 38.4331 14.2018 38.4646ZM16.9491 38.4041L16.8923 38.3868C16.8457 38.3554 16.8333 38.2922 16.8647 38.2456C18.0956 36.4217 19.275 34.5265 20.3657 32.6122C20.394 32.5635 20.4575 32.5472 20.5034 32.5744C20.5528 32.6019 20.5704 32.6644 20.5422 32.7131C19.4479 34.6316 18.2672 36.5315 17.0331 38.3592C17.0137 38.3885 16.9816 38.4041 16.9491 38.4041ZM19.4507 38.2149L19.5037 38.2283C19.539 38.2283 19.5708 38.2099 19.5919 38.1768L22.7336 32.6422C22.7618 32.5935 22.7477 32.5313 22.6983 32.5035C22.6488 32.4752 22.5853 32.4925 22.5571 32.5416L19.4154 38.0762C19.3872 38.1252 19.4013 38.187 19.4507 38.2149ZM21.6951 38.4659L21.6457 38.4529C21.5963 38.4253 21.5787 38.3632 21.6069 38.3141C22.7471 36.3042 23.9614 34.302 25.218 32.363C25.2498 32.3157 25.3133 32.303 25.3592 32.333C25.4087 32.3634 25.4192 32.4266 25.391 32.4739C24.1343 34.4093 22.92 36.408 21.7834 38.4144C21.7657 38.4476 21.7304 38.4659 21.6951 38.4659ZM24.3292 38.0409L24.3786 38.0525C24.4139 38.0525 24.4492 38.0327 24.4668 37.9982C25.0457 36.9039 25.7058 35.8428 26.4365 34.8442C26.4683 34.799 26.4577 34.7351 26.4153 34.7019C26.3695 34.6691 26.3059 34.679 26.2706 34.7241C25.5364 35.7305 24.8692 36.8001 24.2868 37.9032C24.2621 37.953 24.2798 38.0147 24.3292 38.0409ZM26.3421 38.4757L26.2856 38.4587C26.2397 38.4273 26.2256 38.3641 26.2574 38.3176L26.9245 37.3249C26.9422 37.2956 26.9739 37.2801 27.0092 37.2801C27.0269 37.2801 27.0481 37.2854 27.0657 37.297C27.1116 37.3285 27.1222 37.3916 27.0905 37.4382L26.4268 38.4305C26.4056 38.4602 26.3739 38.4757 26.3421 38.4757Z" fill="#173773"/>
</g>
<defs>
<clipPath id="clip0_1269_10655">
<rect width="40" height="40" fill="white"/>
</clipPath>
</defs>
</svg>
