<svg width="40" height="40" viewBox="0 0 40 40" fill="none" xmlns="http://www.w3.org/2000/svg">
<g clip-path="url(#clip0_1269_10253)">
<path d="M13.584 1.85377C13.6205 4.80041 13.6205 7.74736 13.8079 10.5638C17.8465 10.8004 21.8933 10.8631 25.8874 10.6919C25.9593 7.78124 26.0312 4.87054 26.195 1.95335C23.8641 1.87793 21.5335 1.80221 19.203 1.72649C17.8683 1.68317 16.5336 1.63986 15.1986 1.62513C14.5754 1.61835 13.952 1.61776 13.584 1.85377Z" fill="#FFE6A5"/>
<path fill-rule="evenodd" clip-rule="evenodd" d="M12.5059 38.4986C9.48503 38.4645 6.57992 38.432 3.67717 38.432C2.62827 38.432 1.57966 38.4365 0.526048 38.4462C0.49187 35.7889 0.479499 32.9032 0.59588 29.7438C4.81034 29.6092 8.80884 29.6602 12.8047 29.9008C12.6332 32.7527 12.5327 35.6424 12.5059 38.4986ZM12.7522 39.0039H12.7552C12.8209 39.0039 12.8839 38.978 12.9311 38.9321C12.9788 38.8852 13.0059 38.8213 13.0062 38.7547C13.0298 35.7417 13.1359 32.6887 13.3215 29.6811C13.33 29.5427 13.2248 29.4233 13.0864 29.4148C8.91697 29.1555 4.74965 29.1013 0.345145 29.2494C0.213737 29.2539 0.107669 29.3591 0.10266 29.4908C-0.0272738 32.8528 -0.0104816 35.9055 0.0269371 38.7031C0.0289996 38.841 0.140962 38.9512 0.278262 38.9512H0.280909C4.38906 38.9089 8.4188 38.9547 12.6827 39.0032L12.7266 39.0037L12.7522 39.0039ZM39.185 38.4986C36.1638 38.4645 33.2587 38.432 30.356 38.432C29.307 38.432 28.2584 38.4365 27.2048 38.4462C27.1706 35.7889 27.1583 32.9032 27.2747 29.7438C31.4891 29.6092 35.4879 29.6602 39.4835 29.9008C39.312 32.75 39.2115 35.6395 39.185 38.4986ZM39.431 39.0039H39.434C39.4997 39.0039 39.5627 38.978 39.6099 38.9321C39.6576 38.8852 39.6847 38.8213 39.685 38.7547C39.7089 35.7385 39.8149 32.6858 40.0002 29.6811C40.0088 29.5427 39.9036 29.4233 39.7651 29.4148C35.596 29.1555 31.4284 29.1013 27.0239 29.2494C26.8925 29.2539 26.7864 29.3591 26.7814 29.4908C26.6512 32.8528 26.6683 35.9055 26.7057 38.7031C26.7078 38.841 26.8197 38.9512 26.957 38.9512H26.9597C31.0675 38.9089 35.0967 38.9547 39.3606 39.0032L39.4054 39.0037L39.431 39.0039ZM33.9535 28.3709C33.8185 28.3709 33.7068 28.2634 33.7027 28.1273L33.6152 22.8247V22.8245V22.8245C33.6087 22.6159 33.5998 22.3305 33.4979 22.1739C33.4172 22.0504 33.2846 22.0168 33.0522 21.9956C24.5982 21.224 16.0216 21.1326 7.56002 21.7234C7.26921 21.7437 7.09184 21.7873 6.98872 21.9594C6.88029 22.14 6.86969 22.4496 6.86232 22.6756L6.77423 27.8177C6.76951 27.9565 6.65283 28.0689 6.51494 28.0604C6.37617 28.0557 6.26775 27.9396 6.27217 27.8011L6.36026 22.6588C6.36939 22.3778 6.38236 21.9933 6.55796 21.7007C6.81532 21.2719 7.27663 21.2396 7.52482 21.2222L7.52525 21.2222C16.0134 20.6291 24.6173 20.7213 33.0978 21.4953C33.3053 21.5142 33.6909 21.5495 33.9187 21.8996C34.0843 22.1532 34.107 22.4747 34.1173 22.8091L34.2048 28.1117C34.2092 28.2504 34.1002 28.3662 33.9614 28.3707L33.9535 28.3709ZM20.2501 20.0376H20.2513C20.3895 20.0376 20.5018 19.9259 20.5023 19.7877L20.5268 12.6052C20.5274 12.4667 20.4154 12.3536 20.2767 12.353H20.2755C20.1373 12.353 20.025 12.4646 20.0245 12.6031L20 19.7854C19.9994 19.9241 20.1114 20.037 20.2501 20.0376ZM2.77048 37.9302L2.71303 37.9075L1.18034 36.4735C1.14675 36.4419 1.14469 36.389 1.17651 36.355C1.20804 36.3214 1.26107 36.3197 1.29495 36.3512L2.82765 37.7852C2.86124 37.8167 2.863 37.8698 2.83148 37.9037L2.77048 37.9302ZM5.07936 37.9371L5.12974 37.9542L5.19663 37.9208C5.22462 37.884 5.21725 37.8317 5.18042 37.8037C3.80005 36.7585 2.4854 35.6021 1.27356 34.3661C1.24115 34.3334 1.18812 34.3331 1.15482 34.365C1.12212 34.3973 1.12123 34.4507 1.15364 34.4836C2.37166 35.7253 3.69251 36.8873 5.07936 37.9371ZM6.87984 37.6297L6.82592 37.6099C4.88634 35.9715 3.0596 34.1683 1.39668 32.2505C1.36633 32.2158 1.37016 32.1627 1.40522 32.1327C1.43969 32.1023 1.49302 32.1062 1.52308 32.141C3.1804 34.0522 5.00095 35.8489 6.93376 37.4821C6.96911 37.5119 6.97354 37.5646 6.94378 37.5999L6.87984 37.6297ZM9.44015 37.8783L9.49878 37.9021L9.55859 37.8774C9.591 37.8441 9.5907 37.7913 9.5577 37.7589L2.27992 30.6076C2.24692 30.5752 2.19388 30.5754 2.16147 30.6084C2.12906 30.6414 2.12936 30.6945 2.16265 30.7269L9.44015 37.8783ZM11.55 37.6858L11.4884 37.6587C9.21945 35.1867 6.88447 32.7167 4.54889 30.3175C4.51678 30.2845 4.51737 30.2312 4.55066 30.1991C4.58366 30.167 4.63699 30.1676 4.66911 30.2006C7.00586 32.6013 9.34143 35.0721 11.6119 37.5455C11.6431 37.5793 11.6411 37.6324 11.6069 37.6637L11.55 37.6858ZM11.5807 35.0812L11.6397 35.1057L11.6992 35.0806C11.7316 35.0479 11.7313 34.9948 11.6986 34.9621C10.239 33.5184 8.79083 32.026 7.39455 30.5269C7.36302 30.4931 7.30999 30.4913 7.2764 30.5228C7.24252 30.5543 7.24045 30.6074 7.27198 30.6412C8.66973 32.1419 10.1196 33.6357 11.5807 35.0812ZM11.9227 32.7018L11.8605 32.6742C11.1681 31.9078 10.4277 31.1701 9.65931 30.4818C9.62483 30.4512 9.62189 30.3982 9.65283 30.3636C9.68376 30.3292 9.7368 30.3266 9.77098 30.3572C10.5438 31.0492 11.2886 31.7911 11.9849 32.5619C12.0158 32.5964 12.0131 32.6491 11.979 32.6801L11.9227 32.7018ZM29.5068 38.0124L29.5586 38.0303L29.6243 37.9982C29.6529 37.9618 29.6464 37.9093 29.6102 37.8807L27.6314 36.3315C27.5949 36.3029 27.5421 36.3091 27.5138 36.3456C27.4853 36.3822 27.4917 36.4346 27.528 36.4633L29.5068 38.0124ZM31.9465 37.9182L31.8932 37.899L27.5827 34.3381C27.547 34.3087 27.5417 34.2556 27.5712 34.2199C27.6009 34.1842 27.654 34.1795 27.6893 34.2087L31.9998 37.7697C32.0355 37.7992 32.0405 37.8519 32.011 37.8876L31.9465 37.9182ZM34.4527 37.9502L34.5069 37.9703L34.5705 37.941C34.6006 37.906 34.5968 37.8532 34.5614 37.8229C32.4126 35.9809 30.1681 34.1963 27.8897 32.518C27.8526 32.4908 27.8001 32.4986 27.7727 32.5356C27.7453 32.5731 27.7533 32.6255 27.7904 32.6529C30.0656 34.3285 32.3069 36.1108 34.4527 37.9502ZM36.722 37.9662L36.6686 37.9472L28.1292 30.8729C28.0939 30.8434 28.0885 30.7907 28.1183 30.755C28.1478 30.7194 28.2005 30.7144 28.2362 30.7439L36.7756 37.818C36.8109 37.8475 36.8159 37.9005 36.7865 37.9362L36.722 37.9662ZM38.5415 37.5345L38.5948 37.5536L38.6594 37.5232C38.6891 37.4876 38.6841 37.4348 38.6485 37.4054L30.2416 30.4287C30.206 30.3996 30.1532 30.404 30.1235 30.4396C30.094 30.4753 30.0987 30.528 30.1344 30.5575L38.5415 37.5345ZM38.5483 35.5824L38.4911 35.5601C36.6399 33.8376 34.6797 32.1903 32.6653 30.6635C32.6285 30.6355 32.6214 30.5831 32.6491 30.5462C32.6774 30.5094 32.7298 30.5024 32.7663 30.53C34.7855 32.06 36.7498 33.7113 38.6054 35.4375C38.6393 35.4691 38.6411 35.522 38.6096 35.5556L38.5483 35.5824ZM38.5907 33.5249L38.6431 33.5432L38.7085 33.5118C38.7374 33.4757 38.7318 33.4232 38.6956 33.394L35.2142 30.607C35.1785 30.5785 35.1255 30.5841 35.0963 30.6201C35.0677 30.6563 35.0733 30.709 35.1096 30.7379L38.5907 33.5249ZM38.4759 31.4799L38.4149 31.4533C38.0961 31.1145 37.7287 30.8281 37.3227 30.6019C37.2824 30.5794 37.2676 30.5284 37.2903 30.4881C37.3127 30.4474 37.3637 30.433 37.404 30.4557C37.8254 30.6902 38.2063 30.9872 38.5369 31.3387C38.5687 31.3723 38.5673 31.4253 38.5334 31.4572L38.4759 31.4799ZM25.6423 10.4465C21.9942 10.5944 18.0953 10.552 14.0446 10.3216C13.9014 8.04682 13.8763 5.64587 13.8519 3.32003L13.8516 3.29066L13.8515 3.28185C13.8471 2.85521 13.8427 2.42798 13.8375 2.00075C14.1772 1.8608 14.7361 1.86669 15.1963 1.87199C16.5274 1.88671 17.8812 1.93053 19.1906 1.9729L19.1951 1.97305L25.9302 2.19167C25.7808 4.94504 25.7095 7.73053 25.6423 10.4465ZM13.7936 10.8101C16.3528 10.96 18.8528 11.0352 21.2694 11.0352C22.8504 11.0352 24.396 11.003 25.8987 10.9388C26.0307 10.9329 26.1362 10.8109 26.1394 10.6786C26.2098 7.82363 26.2829 4.87109 26.4461 1.96304C26.4499 1.89557 26.4261 1.82927 26.3807 1.77948C26.335 1.72939 26.2711 1.69993 26.2033 1.69786L19.2113 1.471L19.1316 1.46842C17.8432 1.42678 16.5128 1.38379 15.2016 1.36964L15.1977 1.36959C14.5835 1.36313 13.8887 1.3558 13.4486 1.63805C13.3758 1.6846 13.3322 1.76593 13.3334 1.85255C13.3392 2.33337 13.3442 2.81391 13.3492 3.29415L13.3493 3.29597C13.3743 5.71316 13.4002 8.21284 13.5576 10.5761C13.5661 10.7025 13.6672 10.8027 13.7936 10.8101Z" fill="#173773"/>
</g>
<defs>
<clipPath id="clip0_1269_10253">
<rect width="40" height="40" fill="white"/>
</clipPath>
</defs>
</svg>
