<svg width="40" height="40" viewBox="0 0 40 40" fill="none" xmlns="http://www.w3.org/2000/svg">
<g clip-path="url(#clip0_1269_10683)">
<path fill-rule="evenodd" clip-rule="evenodd" d="M0.251953 27.6406V31.2472H17.179V38.0212H22.8388V31.2472H39.7329V27.6406H0.251953Z" fill="#FFE6A5"/>
<path fill-rule="evenodd" clip-rule="evenodd" d="M39.4988 27.3904H0.519675V3.00179H39.4988V27.3904ZM39.7318 31.4987H39.7497C39.8881 31.4987 40.0006 31.3863 40.0006 31.2478V2.75089C40.0006 2.61247 39.8881 2.5 39.7497 2.5H0.268775C0.130351 2.5 0.0179036 2.61247 0.0179036 2.75089V27.5482C0.00635527 27.577 0 27.6084 0 27.6413V31.2478C0 31.3863 0.112475 31.4987 0.2509 31.4987H0.268775H16.9271V37.771H11.6083C11.4699 37.771 11.3574 37.8832 11.3574 38.0219C11.3574 38.1604 11.4699 38.2728 11.6083 38.2728H17.178H22.8378H28.3755C28.514 38.2728 28.6264 38.1604 28.6264 38.0219C28.6264 37.8832 28.514 37.771 28.3755 37.771H23.0887V31.4987H39.7318ZM22.5869 31.4987H17.4289V37.771H22.5869V31.4987ZM0.519675 30.9969H39.4809V27.8922H0.519675V30.9969ZM10.5729 11.3292H4.74905L4.74905 23.2681H10.5729V11.3292ZM4.74905 10.7468C4.42741 10.7468 4.16667 11.0075 4.16667 11.3292V23.2681C4.16667 23.5897 4.42741 23.8504 4.74905 23.8504H10.5729C10.8945 23.8504 11.1553 23.5897 11.1553 23.2681V11.3292C11.1553 11.0075 10.8945 10.7468 10.5729 10.7468H4.74905ZM4.74905 7.25039H10.5729V9.28874H4.74905L4.74905 7.25039ZM4.16667 7.25039C4.16667 6.92874 4.42741 6.668 4.74905 6.668H10.5729C10.8945 6.668 11.1553 6.92874 11.1553 7.25039V9.28874C11.1553 9.61038 10.8945 9.87112 10.5729 9.87112H4.74905C4.42741 9.87112 4.16667 9.61038 4.16667 9.28874V7.25039ZM18.7256 11.3292H12.9017V23.2681H18.7256V11.3292ZM12.9017 10.7468C12.5801 10.7468 12.3193 11.0075 12.3193 11.3292V23.2681C12.3193 23.5897 12.5801 23.8504 12.9017 23.8504H18.7256C19.0472 23.8504 19.308 23.5897 19.308 23.2681V11.3292C19.308 11.0075 19.0472 10.7468 18.7256 10.7468H12.9017ZM12.9017 7.25039H18.7256V9.28874H12.9017V7.25039ZM12.3193 7.25039C12.3193 6.92874 12.5801 6.668 12.9017 6.668H18.7256C19.0472 6.668 19.308 6.92874 19.308 7.25039V9.28874C19.308 9.61038 19.0472 9.87112 18.7256 9.87112H12.9017C12.5801 9.87112 12.3193 9.61038 12.3193 9.28874V7.25039ZM26.8799 11.3292H21.056L21.056 23.2681H26.8799V11.3292ZM21.056 10.7468C20.7344 10.7468 20.4736 11.0075 20.4736 11.3292V23.2681C20.4736 23.5897 20.7344 23.8504 21.056 23.8504H26.8799C27.2015 23.8504 27.4623 23.5897 27.4623 23.2681V11.3292C27.4623 11.0075 27.2015 10.7468 26.8799 10.7468H21.056ZM21.056 7.25039H26.8799V9.28874H21.056L21.056 7.25039ZM20.4736 7.25039C20.4736 6.92874 20.7344 6.668 21.056 6.668H26.8799C27.2015 6.668 27.4623 6.92874 27.4623 7.25039V9.28874C27.4623 9.61038 27.2015 9.87112 26.8799 9.87112H21.056C20.7344 9.87112 20.4736 9.61038 20.4736 9.28874V7.25039ZM35.0325 11.3292H29.2087L29.2087 23.2681H35.0325V11.3292ZM29.2087 10.7468C28.887 10.7468 28.6263 11.0075 28.6263 11.3292V23.2681C28.6263 23.5897 28.887 23.8504 29.2087 23.8504H35.0325C35.3542 23.8504 35.6149 23.5897 35.6149 23.2681V11.3292C35.6149 11.0075 35.3542 10.7468 35.0325 10.7468H29.2087ZM29.2087 7.25039H35.0325V9.28874H29.2087L29.2087 7.25039ZM28.6263 7.25039C28.6263 6.92874 28.887 6.668 29.2087 6.668H35.0325C35.3542 6.668 35.6149 6.92874 35.6149 7.25039V9.28874C35.6149 9.61038 35.3542 9.87112 35.0325 9.87112H29.2087C28.887 9.87112 28.6263 9.61038 28.6263 9.28874V7.25039ZM30.2216 13.7383L30.1429 13.7187C30.0789 13.6849 30.0642 13.6193 30.1085 13.5718L31.8696 11.7137C31.9139 11.6662 32.0024 11.6551 32.0615 11.6888C32.1254 11.7226 32.1402 11.7886 32.0959 11.8356L30.3348 13.6942L30.2216 13.7383ZM29.8491 16.0104L29.9331 16.03L30.0467 15.9872L34.1324 11.8255C34.1768 11.7794 34.162 11.7152 34.0978 11.6818C34.0336 11.648 33.9496 11.6589 33.9002 11.705L29.8195 15.8667C29.7701 15.9128 29.7849 15.9774 29.8491 16.0104ZM30.226 18.5593L30.1467 18.5411C30.0823 18.5074 30.0625 18.4389 30.1071 18.3886C31.3809 16.8871 32.7587 15.4115 34.2011 14.0025C34.2506 13.9552 34.3349 13.9479 34.3993 13.9854C34.4588 14.023 34.4687 14.0923 34.4192 14.1399C32.9818 15.5438 31.6138 17.014 30.34 18.5101C30.3152 18.5419 30.2707 18.5593 30.226 18.5593ZM30.1379 20.8357L30.2189 20.8575L30.3284 20.812L34.4246 16.2087C34.4675 16.1589 34.4579 16.0886 34.396 16.0515C34.3389 16.0151 34.2531 16.0254 34.2055 16.0752L30.1093 20.6785C30.0665 20.7283 30.076 20.7986 30.1379 20.8357ZM30.511 22.6999L30.4334 22.6809C30.3703 22.6473 30.3558 22.5827 30.3994 22.5359C31.6025 21.2687 32.8831 20.0216 34.2074 18.8289C34.2559 18.7851 34.3432 18.7792 34.4014 18.8158C34.4597 18.8527 34.4693 18.918 34.416 18.9618C33.1014 20.1505 31.8256 21.3936 30.6274 22.6564L30.511 22.6999ZM32.4599 22.9121L32.547 22.9343L32.6533 22.9015L34.4179 21.4803C34.4662 21.4405 34.4566 21.3812 34.3986 21.3474C34.3405 21.3139 34.2535 21.3185 34.2052 21.3583L32.4454 22.7792C32.3922 22.8189 32.4019 22.8783 32.4599 22.9121Z" fill="#173773"/>
</g>
<defs>
<clipPath id="clip0_1269_10683">
<rect width="40" height="40" fill="white"/>
</clipPath>
</defs>
</svg>
