<svg width="16" height="16" viewBox="0 0 16 16" fill="none" xmlns="http://www.w3.org/2000/svg">
<path fill-rule="evenodd" clip-rule="evenodd" d="M4.21125 0C3.74616 0 3.36914 0.377025 3.36914 0.842108V1.68359H2.52632H1.96491C0.879721 1.68359 0 2.56332 0 3.64851C0 3.73012 0.00696453 3.8101 0.0203316 3.88789C0.00691535 3.99334 0 4.10082 0 4.20992V13.4731C0 14.8684 1.13107 15.9994 2.52632 15.9994H13.4737C14.8689 15.9994 16 14.8684 16 13.4731V4.20992C16 4.10082 15.9931 3.99334 15.9797 3.88788C15.993 3.81009 16 3.73012 16 3.64851C16 2.56332 15.1203 1.68359 14.0351 1.68359H13.4737H12.6315V0.842108C12.6315 0.377025 12.2545 0 11.7894 0C11.3243 0 10.9473 0.377025 10.9473 0.842108V1.68359H5.05335V0.842108C5.05335 0.377025 4.67633 0 4.21125 0ZM1.68421 5.05203H14.3158V13.4731C14.3158 13.9382 13.9388 14.3152 13.4737 14.3152H2.52632C2.06123 14.3152 1.68421 13.9382 1.68421 13.4731V5.05203ZM3.66914 6.73828C3.50346 6.73828 3.36914 6.8726 3.36914 7.03828V8.96461C3.36914 9.13029 3.50346 9.26461 3.66914 9.26461H5.59546C5.76114 9.26461 5.89546 9.13029 5.89546 8.96461V7.03828C5.89546 6.8726 5.76114 6.73828 5.59546 6.73828H3.66914ZM6.73633 7.03828C6.73633 6.8726 6.87064 6.73828 7.03633 6.73828H8.96264C9.12833 6.73828 9.26264 6.8726 9.26264 7.03828V8.96461C9.26264 9.13029 9.12833 9.26461 8.96264 9.26461H7.03633C6.87064 9.26461 6.73633 9.13029 6.73633 8.96461V7.03828ZM10.4055 6.73828C10.2398 6.73828 10.1055 6.8726 10.1055 7.03828V8.96461C10.1055 9.13029 10.2398 9.26461 10.4055 9.26461H12.3318C12.4975 9.26461 12.6318 9.13029 12.6318 8.96461V7.03828C12.6318 6.8726 12.4975 6.73828 12.3318 6.73828H10.4055ZM3.36914 10.4055C3.36914 10.2398 3.50346 10.1055 3.66914 10.1055H5.59546C5.76114 10.1055 5.89546 10.2398 5.89546 10.4055V12.3318C5.89546 12.4975 5.76114 12.6318 5.59546 12.6318H3.66914C3.50346 12.6318 3.36914 12.4975 3.36914 12.3318V10.4055ZM7.03633 10.1055C6.87064 10.1055 6.73633 10.2398 6.73633 10.4055V12.3318C6.73633 12.4975 6.87064 12.6318 7.03633 12.6318H8.96264C9.12833 12.6318 9.26264 12.4975 9.26264 12.3318V10.4055C9.26264 10.2398 9.12833 10.1055 8.96264 10.1055H7.03633Z" fill="#8D8D8D"/>
</svg>
