<svg width="16" height="16" viewBox="0 0 16 16" fill="none" xmlns="http://www.w3.org/2000/svg">
<g clip-path="url(#clip0_1473_10146)">
<path fill-rule="evenodd" clip-rule="evenodd" d="M0 8C0 3.584 3.576 0 7.992 0C12.416 0 16 3.584 16 8C16 12.416 12.416 16 7.992 16C3.576 16 0 12.416 0 8ZM1.6 8C1.6 11.536 4.464 14.4 8 14.4C11.536 14.4 14.4 11.536 14.4 8C14.4 4.464 11.536 1.6 8 1.6C4.464 1.6 1.6 4.464 1.6 8ZM7.8 3.99961C8.13137 3.99961 8.4 4.26824 8.4 4.59961V8.19961L11.4997 10.0387C11.775 10.2021 11.8638 10.559 11.6971 10.8323C11.5327 11.102 11.1815 11.1885 10.9106 11.026L7.2 8.79961V4.59961C7.2 4.26824 7.46863 3.99961 7.8 3.99961Z" fill="#8D8D8D"/>
</g>
<defs>
<clipPath id="clip0_1473_10146">
<rect width="16" height="16" fill="white"/>
</clipPath>
</defs>
</svg>
