<svg width="40" height="40" viewBox="0 0 40 40" fill="none" xmlns="http://www.w3.org/2000/svg">
<g clip-path="url(#clip0_1269_10639)">
<path d="M23.0605 38.0547H13.804V24.3443H23.0605V38.0547Z" fill="#FFE6A5"/>
<path fill-rule="evenodd" clip-rule="evenodd" d="M36.4599 37.7951H27.7165V31.2058H36.4599V37.7951ZM27.4597 38.3086H36.7166C36.8582 38.3086 36.9733 38.1935 36.9733 38.0518V30.9491C36.9733 30.8075 36.8582 30.6924 36.7166 30.6924H27.4597C27.3182 30.6924 27.2033 30.8075 27.2033 30.9491V38.0518C27.2033 38.1935 27.3182 38.3086 27.4597 38.3086ZM22.8029 37.7951H14.0592V24.5981H22.8029V37.7951ZM13.8025 38.3086H23.0594C23.2012 38.3086 23.3161 38.1935 23.3161 38.0518V24.3414C23.3161 24.1998 23.2012 24.0847 23.0594 24.0847H13.8025C13.6609 24.0847 13.5461 24.1998 13.5461 24.3414V38.0518C13.5461 38.1935 13.6609 38.3086 13.8025 38.3086ZM0.512676 37.7951H9.2564V16.4628H0.512676V37.7951ZM9.51282 38.3086H0.25626C0.114395 38.3086 -0.000473022 38.1935 -0.000473022 38.0518V16.2061C-0.000473022 16.0645 0.114395 15.9497 0.25626 15.9497H9.51282C9.65468 15.9497 9.76955 16.0645 9.76955 16.2061V38.0518C9.76955 38.1935 9.65468 38.3086 9.51282 38.3086ZM38.052 25.4562C37.0299 24.2036 36.1557 22.8135 35.4449 21.3078C35.3836 21.1794 35.4391 21.0269 35.5673 20.9663C35.6956 20.9059 35.8485 20.9604 35.9091 21.0887C36.8119 23.0012 37.9846 24.722 39.3942 26.2032C39.4688 26.2818 39.4864 26.3992 39.437 26.4962C39.388 26.5931 39.2833 26.6486 39.1753 26.6348C37.4852 26.4163 35.8103 26.5471 34.1977 27.0231C34.0619 27.0632 33.9191 26.9855 33.8789 26.8497L33.8744 26.8321C33.8455 26.7017 33.9222 26.5692 34.0526 26.5309C35.4103 26.1299 36.8104 25.9638 38.2266 26.0346C30.6374 24.004 26.4465 21.9121 19.3857 17.7102C12.1571 13.408 5.40633 7.54992 0.376644 1.21466C0.288498 1.10366 0.307178 0.94191 0.418179 0.854061C0.528881 0.765915 0.690941 0.784313 0.77879 0.895607C5.77049 7.18309 12.4717 12.9981 19.6484 17.2692C26.8896 21.5787 30.8267 23.4997 38.052 25.4562ZM38.5275 26.0168C38.5092 26.0301 38.4891 26.0409 38.4679 26.049C38.4993 26.0512 38.5306 26.0535 38.562 26.0558L38.5275 26.0168ZM34.3551 37.3125L34.4055 37.2961C34.948 36.9014 35.441 36.4408 35.871 35.9271C35.9013 35.8909 35.8966 35.8369 35.8604 35.8063C35.8242 35.7761 35.7704 35.7808 35.7399 35.817C35.319 36.3203 34.8362 36.7711 34.3049 37.1578C34.2666 37.1854 34.2583 37.2392 34.2859 37.2772L34.3551 37.3125ZM32.4488 37.2826L32.3936 37.3027L32.3283 37.2725C32.2977 37.2365 32.3025 37.1825 32.3384 37.152C33.5535 36.1251 34.7207 35.0172 35.8082 33.8592C35.8405 33.8244 35.8948 33.8229 35.929 33.8552C35.9637 33.8876 35.9652 33.9416 35.9328 33.976C34.8409 35.1392 33.6686 36.2518 32.4488 37.2826ZM30.5469 37.3255L30.6056 37.3017C32.2288 35.7552 33.8454 34.159 35.4109 32.5569C35.4439 32.5234 35.4433 32.4692 35.4094 32.4363C35.3756 32.4032 35.3213 32.4036 35.2887 32.4374C33.7243 34.0377 32.1091 35.6329 30.4878 37.178C30.4534 37.2104 30.4522 37.2646 30.4848 37.2989L30.5469 37.3255ZM28.7706 37.1778L28.7113 37.2018L28.6495 37.1757C28.6169 37.1415 28.6178 37.0873 28.6519 37.0546L33.995 31.922C34.0291 31.8893 34.0832 31.8905 34.1158 31.9241C34.1484 31.9582 34.1476 32.0125 34.1134 32.0451L28.7706 37.1778ZM28.3604 35.6458L28.4219 35.6194C29.6363 34.3575 30.9167 33.129 32.2276 31.9677C32.2629 31.9366 32.2665 31.8823 32.235 31.8469C32.2039 31.8113 32.1496 31.8081 32.1142 31.8395C30.7998 33.0038 29.5161 34.2355 28.2987 35.501C28.2658 35.5349 28.267 35.5891 28.3008 35.6218L28.3604 35.6458ZM28.5372 33.5642L28.4743 33.5918L28.4164 33.5692C28.3817 33.5372 28.3793 33.4831 28.4113 33.4484C28.9482 32.8647 29.5169 32.2983 30.1016 31.765C30.1366 31.7332 30.1906 31.7356 30.2224 31.7706C30.2544 31.8054 30.2517 31.8596 30.217 31.8914C29.6359 32.4212 29.0708 32.9842 28.5372 33.5642Z" fill="#173773"/>
</g>
<defs>
<clipPath id="clip0_1269_10639">
<rect width="40" height="40" fill="white"/>
</clipPath>
</defs>
</svg>
