<svg width="80" height="80" viewBox="0 0 80 80" fill="none" xmlns="http://www.w3.org/2000/svg">
<path fill-rule="evenodd" clip-rule="evenodd" d="M38.4881 77.8462C39.0292 77.9213 39.8101 78 40.7037 78C42.7792 78 45.4616 77.5743 47.1581 75.6846C48.3345 74.3755 48.72 72.6515 48.9882 71.1382C49.814 66.4818 50.0777 64.616 49.6346 59.6017C49.6245 59.4818 49.5668 59.371 49.4744 59.2932C49.3819 59.2163 49.2638 59.1806 49.142 59.1897C45.9807 59.4735 34.3701 59.3133 30.8728 58.937C30.7456 58.9233 30.6165 58.9654 30.5203 59.0515C30.4242 59.1385 30.3702 59.2621 30.3711 59.3911C30.3792 61.0432 30.388 62.3932 30.3963 63.6861C30.3983 63.9945 30.4003 64.2997 30.4022 64.605C30.4132 66.188 30.4233 67.7718 30.4343 69.8171C30.4398 70.9514 30.4462 72.2368 30.9525 73.4151C32.3477 76.6606 36.6873 77.5953 38.4881 77.8462ZM28.032 34.9988C29.3786 33.6543 34.5322 40.5 33.5324 40.999C33.085 41.2222 26.1856 36.8423 28.032 34.9988ZM41.0321 27.4982C44.0322 28 41.0319 36.0021 40.032 36.5011C39.5847 36.7243 37.5322 26.5011 41.0321 27.4982ZM50.5311 35.4968C53.5313 35.9986 46.0313 41.4991 45.0312 40.5C44.6776 40.1466 47.0312 34.4997 50.5311 35.4968Z" fill="#FABF00"/>
<path fill-rule="evenodd" clip-rule="evenodd" d="M31.3033 63.6336L31.3033 63.6329L31.3033 63.6323L31.3033 63.6318V63.6314C31.2959 62.4873 31.2883 61.2958 31.2811 59.8883C35.1282 60.2169 45.2126 60.3552 48.7685 60.1281C49.1466 64.6975 48.8802 66.5523 48.0947 70.9789C47.8365 72.4327 47.4996 73.947 46.4834 75.0786C45.0011 76.7284 42.0586 77.4269 38.6135 76.9472C35.1794 76.4693 32.6279 75.0145 31.7865 73.0562C31.3535 72.0482 31.3471 70.9111 31.3416 69.8125C31.3306 67.7663 31.3205 66.1825 31.3095 64.5986L31.3033 63.6336ZM38.4881 77.8462C39.0292 77.9213 39.8101 78 40.7037 78C42.7792 78 45.4616 77.5743 47.1581 75.6846C48.3345 74.3755 48.72 72.6515 48.9882 71.1382C49.814 66.4818 50.0777 64.616 49.6346 59.6017C49.6245 59.4818 49.5668 59.371 49.4744 59.2932C49.3819 59.2163 49.2638 59.1806 49.142 59.1897C48.9537 59.2066 48.7353 59.222 48.4905 59.2358C49.3534 55.2514 52.36 52.077 55.5372 48.7225L55.5397 48.7199L55.5463 48.7128C58.6204 45.4667 61.798 42.1114 62.8171 37.9497C62.9969 37.216 63.1114 36.1366 63.118 34.8559C63.3042 34.0157 63.401 33.2426 63.0357 32.7261C62.8584 30.5167 62.3795 28.0134 61.4484 25.7266C60.0568 22.309 58.0509 19.7318 55.4866 18.0674C50.7964 15.0233 42.7032 12.8471 36.3101 14.5792C30.2713 16.2162 25.3229 19.3042 22.375 23.2739C19.6449 26.9506 18.4602 31.5374 19.0406 36.1892C19.5799 40.5113 21.5977 44.7355 24.8789 48.4068C25.3167 48.8976 25.7793 49.3797 26.2275 49.8468L26.2276 49.8469L26.2522 49.8725C27.1759 50.8338 28.1299 51.8281 28.8815 52.9038C30.1547 54.7264 30.8756 56.81 30.9737 58.9476L30.8728 58.937C30.7456 58.9233 30.6165 58.9654 30.5203 59.0515C30.4242 59.1385 30.3702 59.2621 30.3711 59.3911C30.3792 61.0419 30.388 62.3912 30.3963 63.6832L30.3963 63.6862L30.4022 64.605C30.4132 66.188 30.4233 67.7718 30.4343 69.8171C30.4398 70.9514 30.4462 72.2368 30.9525 73.4151C32.3477 76.6606 36.6873 77.5953 38.4881 77.8462ZM43.5155 59.3343C45.0497 59.3334 46.454 59.3152 47.556 59.2771C48.4077 54.9291 51.6975 51.4554 54.8814 48.0955L54.8877 48.0889C57.8804 44.9287 60.9739 41.6621 61.9355 37.7336C62.4546 35.6179 62.3905 30.447 60.608 26.069C59.2878 22.8262 57.3982 20.39 54.9931 18.8291C50.4714 15.8939 42.6839 13.7928 36.5481 15.4554C30.7053 17.0392 25.9299 20.0073 23.1037 23.8141C20.5128 27.3031 19.3904 31.6582 19.9406 36.0775C20.4569 40.2147 22.3988 44.2695 25.5555 47.8025C25.9904 48.2896 26.4564 48.7748 26.9077 49.2445L26.9117 49.2487L26.9118 49.2487L26.9118 49.2487L26.9118 49.2487L26.9118 49.2487L26.9118 49.2487L26.9118 49.2487L26.9118 49.2487C27.8572 50.2334 28.8351 51.252 29.625 52.3838C31.0209 54.3816 31.8002 56.6747 31.8851 59.0249C32.9421 59.101 34.339 59.1654 35.889 59.2153C35.8773 59.173 35.8716 59.1283 35.8727 59.0821C35.9954 54.5375 35.5889 49.9645 34.6661 45.4922C34.3988 44.1995 34.071 42.8335 33.5986 41.4859C33.4017 41.409 33.2104 41.3284 33.0264 41.2478C30.9756 40.3588 28.7051 39.1833 27.4225 37.204C26.8366 36.3013 26.777 35.4389 27.2568 34.8374C27.7905 34.1681 28.7738 34.0994 29.4614 34.3182C30.1681 34.5425 30.6946 35.0278 31.1157 35.4718C32.6153 37.0538 33.6087 38.8968 34.3099 40.78C34.8144 40.9494 35.3289 41.0574 35.8425 41.0171C36.9732 40.9274 37.9968 40.1465 38.97 38.6285C39.2391 38.2083 39.4909 37.7817 39.7243 37.3477C39.0112 36.0614 38.5982 34.4858 38.471 32.5733C38.3721 31.0965 38.3941 28.9368 39.7161 27.2413C40.1262 26.7139 40.6389 26.4841 41.1214 26.6096C41.4895 26.7057 41.7165 26.9859 41.8557 27.1873C42.9909 28.8389 42.7693 30.8631 42.5048 32.2409C42.1651 33.9997 41.5819 35.7007 40.7644 37.3175C40.9411 37.5894 41.1352 37.8448 41.3457 38.0838C42.0882 38.9279 43.2372 39.6484 44.4942 39.9396L44.5766 39.7574C45.4766 37.8137 47.0412 36.087 48.9821 34.8932C49.3574 34.6634 49.8088 34.4363 50.3187 34.5004C50.7628 34.5554 51.1134 34.798 51.3066 35.1825C51.6371 35.8444 51.4302 36.7709 51.0978 37.3523C50.0935 39.1073 48.8283 40.2435 47.3378 40.7269C46.5898 40.9695 45.818 41.0281 45.0673 40.9494C44.4795 42.5726 44.2928 44.3139 44.1344 46.2273C43.7654 50.6713 43.5585 55.0484 43.5173 59.2369L43.5164 59.3101C43.5163 59.3182 43.516 59.3263 43.5155 59.3343ZM42.6101 59.3329C40.698 59.3258 38.6445 59.2939 36.7565 59.2413C36.7706 59.1989 36.7788 59.1537 36.78 59.1069C36.9045 54.4926 36.4916 49.85 35.5551 45.3082C35.3225 44.183 35.0442 43.0029 34.6688 41.8209C35.0726 41.9107 35.4901 41.9564 35.9149 41.9216C37.3476 41.8081 38.5964 40.8908 39.7335 39.1183C39.9257 38.8199 40.1079 38.5187 40.2828 38.2129C40.4036 38.3758 40.5309 38.5324 40.6646 38.6835C41.4913 39.6237 42.7593 40.4294 44.1637 40.7864C43.5768 42.4829 43.3837 44.2956 43.2299 46.1523C42.8591 50.6182 42.6513 55.0172 42.6101 59.2277L42.6091 59.2982C42.6091 59.3045 42.6091 59.3107 42.6093 59.3169L42.6101 59.3329ZM40.106 75.5C38.784 75.5 37.461 75.4634 36.1472 75.3912C36.0546 75.3861 35.9835 75.3068 35.9885 75.2142C35.9946 75.1227 36.074 75.0556 36.1624 75.0556H36.1655C37.4732 75.1278 38.7911 75.1644 40.1079 75.1644C41.2306 75.1644 42.3522 75.138 43.4678 75.0851H43.481C43.5705 75.0851 43.6386 75.1573 43.6427 75.2448C43.6478 75.3383 43.5756 75.4166 43.483 75.4207C42.3624 75.4736 41.2347 75.5 40.106 75.5ZM34.2672 73.2306C35.7895 73.2784 37.3199 73.3008 38.8513 73.3008C41.177 73.3008 43.5057 73.2469 45.815 73.1391C45.9076 73.135 45.9788 73.0557 45.9747 72.9632C45.9706 72.8707 45.8954 72.7954 45.7988 72.8035C41.9793 72.9825 38.1029 73.013 34.2784 72.895H34.2733L34.1045 73.0578C34.1025 73.1503 34.1747 73.2286 34.2672 73.2306ZM37.9586 70.8086C36.4374 70.8086 34.9191 70.8025 33.406 70.7903C33.3124 70.7893 33.2383 70.713 33.2393 70.6205C33.2403 70.5279 33.3155 70.4537 33.407 70.4537H33.4091C37.7837 70.4893 42.2154 70.474 46.5799 70.4069C46.6836 70.4039 46.7496 70.4791 46.7507 70.5717C46.7517 70.6642 46.6785 70.7415 46.5849 70.7425C43.7275 70.7862 40.8395 70.8086 37.9586 70.8086ZM32.5928 67.9105L32.7606 68.0742H32.7647L47.2421 67.7397C47.3357 67.7376 47.4089 67.6614 47.4069 67.5678C47.4038 67.4753 47.3235 67.4051 47.2351 67.4041L32.7576 67.7386C32.664 67.7407 32.5908 67.8169 32.5928 67.9105ZM37.7732 65.1641C35.9784 65.1641 34.1867 65.1325 32.403 65.0695C32.3095 65.0664 32.2373 64.9881 32.2403 64.8956C32.2444 64.8031 32.3268 64.7278 32.4142 64.7339C37.4448 64.9108 42.5445 64.8376 47.57 64.5143C47.6544 64.5122 47.7428 64.5783 47.7479 64.6709C47.754 64.7634 47.6838 64.8437 47.5913 64.8498C44.3373 65.0593 41.0517 65.1641 37.7732 65.1641ZM43.3263 62.293C39.6015 62.293 35.8613 62.1964 32.1598 62.0042C32.0673 61.9991 31.9961 61.9198 32.0002 61.8272C32.0053 61.7347 32.0897 61.6656 32.1771 61.6686C37.3673 61.9381 42.6338 62.0184 47.8281 61.9096H47.8322L48 62.0743C48.002 62.1669 47.9277 62.2431 47.8352 62.2452C46.3373 62.2767 44.8334 62.293 43.3263 62.293ZM45.2808 56.4181C45.2477 56.4856 45.2145 56.5532 45.1816 56.6211C45.2033 56.5787 45.2239 56.538 45.2438 56.4986C45.2652 56.4563 45.2858 56.4155 45.3062 56.3757L45.3474 56.2824L45.2808 56.4181ZM40.4311 27.7988C40.5813 27.6075 40.7506 27.4839 40.8605 27.4839L40.8916 27.4876C40.9744 27.5092 41.0713 27.6492 41.1059 27.6992L41.1077 27.7018C41.8254 28.7455 41.9857 30.1334 41.613 32.0688C41.3302 33.5392 40.8678 34.9655 40.2325 36.3342C39.7582 35.2731 39.4762 34.0079 39.3764 32.5128C39.2354 30.4017 39.5705 28.9039 40.4311 27.7988ZM47.0576 39.8636C46.5239 40.0366 45.9737 40.0989 45.4317 40.0723C46.2621 38.3163 47.6893 36.7535 49.4581 35.6668C49.7099 35.5112 49.9745 35.372 50.207 35.4004C50.3517 35.4187 50.4377 35.4746 50.4945 35.5881C50.6401 35.8792 50.5577 36.4688 50.3096 36.9018C49.4215 38.4546 48.3275 39.4516 47.0576 39.8636ZM27.9663 35.4031C28.1146 35.2173 28.4113 35.1129 28.7335 35.1129C28.8827 35.1129 29.0384 35.1358 29.1858 35.1825C29.6966 35.3455 30.116 35.7364 30.4575 36.0962C31.6504 37.355 32.5064 38.8034 33.1454 40.3094C31.3785 39.5276 29.2911 38.418 28.1842 36.7105C28.0515 36.5064 27.644 35.8069 27.9663 35.4031ZM65.5769 19.7031C65.4148 19.7031 65.2583 19.6152 65.1768 19.4633C65.0614 19.2472 65.1374 18.978 65.3507 18.8554L70.5829 15.8461C71.113 15.5412 71.4453 15.6996 71.5964 15.8204C71.7346 15.9321 71.8042 16.0941 71.785 16.2653C71.7411 16.6727 71.7383 16.6975 65.7783 19.6555L65.5769 19.7031ZM31.8725 9.42131C31.9476 9.59068 32.1133 9.69141 32.2882 9.69141L32.4713 9.65202C32.7002 9.55132 32.8045 9.28307 32.7029 9.05418L30.1486 3.27177C30.047 3.04289 29.7787 2.93852 29.5498 3.04014C29.321 3.14176 29.2166 3.4091 29.3182 3.63889L31.8725 9.42131ZM15.106 22.5859L15.0126 22.5768L9.26776 21.382L9.26499 21.3815C9.1075 21.3479 8.64085 21.2486 8.52254 20.8181C8.47401 20.6386 8.52161 20.4555 8.64978 20.3283L8.64998 20.3281C8.91444 20.0673 9.05968 19.9241 15.2306 21.6961C15.4649 21.7629 15.6041 22.0046 15.5455 22.2408C15.4951 22.4468 15.3102 22.5859 15.106 22.5859ZM7.03838 44.775C7.11345 44.9453 7.28008 45.0469 7.45403 45.0469L7.63713 45.0075L13.5962 42.3855C13.826 42.2838 13.9304 42.0165 13.8297 41.7876C13.7281 41.5578 13.4607 41.4534 13.2309 41.5542L7.27092 44.1771C7.04204 44.2788 6.93767 44.5461 7.03838 44.775ZM49.8325 9.57422L49.6705 9.54308C49.4361 9.45336 49.3189 9.19154 49.4096 8.95716L51.5107 3.48051C51.6004 3.24706 51.8631 3.13078 52.0966 3.21958C52.331 3.3093 52.4482 3.57207 52.3585 3.80644L50.2564 9.28215C50.1868 9.46251 50.0147 9.57422 49.8325 9.57422ZM72.8846 40.7844L73.0531 40.8164C73.2335 40.8164 73.4037 40.7084 73.4742 40.5308C73.5676 40.2982 73.4541 40.0345 73.2215 39.9412L67.4309 37.6286C67.1974 37.5352 66.9338 37.6487 66.8413 37.8812C66.7479 38.1138 66.8614 38.3784 67.094 38.4708L72.8846 40.7844Z" fill="#103B63"/>
</svg>
