<svg width="40" height="40" viewBox="0 0 40 40" fill="none" xmlns="http://www.w3.org/2000/svg">
<path d="M23.7706 24.2858C23.6098 24.0065 23.5284 23.6785 23.553 23.3355C23.8179 19.7143 21.8787 16.3549 18.6113 14.7732C17.7883 14.3766 17.4396 13.3827 17.84 12.5566C18.2392 11.7298 19.2319 11.3836 20.0586 11.7828C24.5589 13.9604 27.2334 18.5905 26.8664 23.5764C26.7996 24.494 26.0037 25.1801 25.0874 25.1126C24.5185 25.0697 24.0355 24.7456 23.7706 24.2858Z" fill="#FEECB3"/>
<path fill-rule="evenodd" clip-rule="evenodd" d="M37.1033 26.1266C38.1777 26.2066 39.1148 25.3986 39.1928 24.3228C39.9274 14.3477 34.5782 5.08776 25.5748 0.734741C24.6022 0.264085 23.4352 0.671916 22.966 1.64226L22.9659 1.64241C22.4967 2.61423 22.9062 3.78389 23.8751 4.25057C31.4289 7.90234 35.9138 15.6676 35.2976 24.0372C35.2673 24.4417 35.3647 24.828 35.5526 25.1549L35.8054 25.0097L35.5531 25.1559C35.8655 25.6948 36.433 26.0776 37.1033 26.1266ZM36.0581 24.8639C36.278 25.2429 36.6764 25.5106 37.146 25.5449L37.1464 25.5449C37.8994 25.601 38.5564 25.0345 38.611 24.2804L38.611 24.28C39.3281 14.5437 34.109 5.50884 25.3208 1.25992L25.3207 1.25986C24.6385 0.929686 23.8203 1.21557 23.4911 1.89621C23.1621 2.57788 23.4501 3.39839 24.1283 3.72505L24.1287 3.72523C31.898 7.48104 36.5131 15.4716 35.8794 24.08L35.8794 24.0805C35.8581 24.3631 35.9258 24.6335 36.0581 24.8639ZM33.1736 23.9589C33.0943 25.0346 32.1592 25.8447 31.0827 25.7646L31.0827 25.7646C30.4123 25.7149 29.8461 25.3319 29.5338 24.7924L29.5337 24.7923C29.3438 24.4636 29.2488 24.0782 29.2791 23.6746C29.7137 17.7393 26.5342 12.2335 21.1781 9.6425C20.2082 9.17559 19.8013 8.00707 20.2695 7.03522L20.2696 7.03506C20.739 6.06206 21.9069 5.65763 22.8776 6.12594L22.8778 6.12604C29.6848 9.41709 33.7272 16.4188 33.1736 23.9588L33.1736 23.9589ZM31.126 25.1829C31.8796 25.2389 32.5361 24.6717 32.5918 23.916C33.1279 16.6146 29.2155 9.83811 22.6239 6.65122C21.9424 6.32259 21.124 6.60676 20.795 7.28837C20.4661 7.97127 20.7529 8.79046 21.4313 9.11694L21.4318 9.1172C27.0033 11.8123 30.3129 17.5432 29.8609 23.7172L29.8608 23.7178C29.8395 24.0014 29.9059 24.2704 30.0388 24.5004C30.2588 24.8803 30.6562 25.148 31.1259 25.1828L31.126 25.1829ZM27.154 23.5967C27.0755 24.6752 26.1396 25.4819 25.0627 25.4026L25.0622 25.4026C24.394 25.3522 23.826 24.9712 23.5146 24.4306L23.5146 24.4305C23.3256 24.1023 23.2299 23.7166 23.2588 23.3137L23.2589 23.3133C23.515 19.8115 21.6408 16.5647 18.4813 15.0351C17.999 14.8026 17.6553 14.3956 17.4902 13.9267C17.3237 13.4542 17.3379 12.9164 17.5742 12.4288C18.0434 11.457 19.2104 11.05 20.1822 11.5192L20.1824 11.5193C24.7902 13.749 27.5298 18.4915 27.154 23.5967ZM24.0201 24.1394C24.2383 24.5182 24.6364 24.7854 25.1058 24.8209C25.8614 24.8764 26.5171 24.3109 26.5722 23.5543L26.5723 23.5541C26.9305 18.6878 24.3211 14.1701 19.9286 12.0445C19.2469 11.7154 18.4286 12.0008 18.0994 12.6825L18.0992 12.6829C17.9336 13.0246 17.9233 13.4006 18.0404 13.7329C18.1565 14.0627 18.3973 14.347 18.7347 14.5096L18.7351 14.5099C22.11 16.1436 24.1142 19.6154 23.8407 23.3557L23.8407 23.3555L23.5497 23.3346L23.8406 23.3559L23.8407 23.3557C23.8204 23.6388 23.8874 23.9089 24.0201 24.1394ZM25.0344 3.87315L25.0442 3.87413C25.0798 3.87413 25.1094 3.84648 25.1153 3.80994C25.2062 3.12258 25.3148 2.4293 25.4383 1.74787C25.4432 1.70836 25.4185 1.66985 25.378 1.66294C25.3395 1.65602 25.299 1.6817 25.2941 1.7212C25.1677 2.4056 25.059 3.10184 24.9711 3.79118C24.9652 3.83068 24.9939 3.86722 25.0344 3.87315ZM26.1162 4.41459C26.0757 4.41459 26.0432 4.382 26.0432 4.34151C26.0432 3.99684 26.0965 3.41812 26.1439 2.90753L26.158 2.75009C26.1799 2.50643 26.1986 2.29859 26.2051 2.15895C26.2071 2.11846 26.2377 2.08587 26.2831 2.08883C26.3236 2.0908 26.3542 2.12537 26.3513 2.16586C26.3454 2.31209 26.3259 2.52984 26.3032 2.7838L26.3032 2.78401L26.3032 2.78406L26.291 2.92037C26.2427 3.42799 26.1893 4.00375 26.1893 4.34151C26.1893 4.382 26.1567 4.41459 26.1162 4.41459ZM27.0302 5.07488C27.0302 5.11438 27.0638 5.14599 27.1043 5.14599H27.1063C27.1468 5.145 27.1774 5.11142 27.1774 5.07093L27.1211 2.62469C27.1211 2.58419 27.0915 2.55358 27.048 2.55358C27.0075 2.55457 26.9749 2.58815 26.9749 2.62864L27.0302 5.07488ZM28.0727 5.96506C28.0352 5.96309 28.0043 5.92983 28.0034 5.89121L28.0418 3.32693C28.0439 3.28748 28.0753 3.25451 28.1158 3.25466C28.1592 3.25792 28.1902 3.28921 28.1881 3.32965L28.1497 5.89294C28.1505 5.93353 28.1162 5.96536 28.0757 5.96521L28.0727 5.96506ZM30.1377 7.57907C30.1352 7.6186 30.1604 7.65206 30.2005 7.6577L30.2034 7.65811C30.2438 7.66179 30.2789 7.63182 30.2846 7.59172L30.4875 5.20381C30.4902 5.16331 30.4674 5.12718 30.4218 5.12477C30.3815 5.12109 30.3463 5.15106 30.3407 5.19116L30.1377 7.57907ZM31.1286 8.80332C31.089 8.7949 31.0662 8.75976 31.0715 8.7205L31.4406 6.35257C31.449 6.31296 31.4861 6.28552 31.5261 6.292C31.5714 6.29759 31.5917 6.33521 31.5861 6.37544L31.2171 8.74337C31.2087 8.78298 31.1716 8.81042 31.1315 8.80393L31.1286 8.80332ZM32.004 9.86411C31.9973 9.90316 32.0189 9.93907 32.0582 9.94887L32.0611 9.94958C32.1008 9.95746 32.1389 9.93133 32.1487 9.89204L32.6002 7.53843C32.6071 7.49843 32.5881 7.46011 32.5431 7.45296C32.5033 7.44508 32.4653 7.47121 32.4555 7.5105L32.004 9.86411ZM32.8983 10.8322C32.8605 10.8177 32.8434 10.7794 32.8548 10.7415L33.5898 8.4604C33.6043 8.4226 33.6452 8.4013 33.6837 8.41397C33.7276 8.42656 33.7417 8.4669 33.73 8.50576L32.995 10.7868C32.9805 10.8246 32.9396 10.8459 32.9011 10.8332L32.8983 10.8322ZM33.7469 12.1197C33.7342 12.1572 33.7499 12.196 33.7871 12.2118L33.7899 12.213C33.8279 12.227 33.8696 12.2071 33.8854 12.1699L34.6995 9.91586C34.7126 9.87744 34.6999 9.83663 34.6565 9.82252C34.6185 9.80851 34.5768 9.82837 34.561 9.86564L33.7469 12.1197ZM34.6007 13.5428C34.564 13.5257 34.5497 13.4863 34.5637 13.4493L35.456 11.2251C35.4731 11.1884 35.5154 11.17 35.553 11.1853C35.5958 11.2009 35.6071 11.2421 35.5927 11.2801L34.7004 13.5043C34.6833 13.541 34.641 13.5594 34.6034 13.5441L34.6007 13.5428ZM35.0292 15.0467C35.0139 15.0833 35.0268 15.1231 35.0629 15.1415L35.0656 15.1428C35.1025 15.1595 35.1455 15.1426 35.1639 15.1065L36.1332 12.9147C36.149 12.8773 36.1391 12.8357 36.0968 12.8186C36.0599 12.802 36.0169 12.8189 35.9985 12.855L35.0292 15.0467ZM36.3876 24.5768C36.3655 24.5429 36.3742 24.5019 36.4058 24.4779L38.3411 23.0645C38.375 23.0424 38.4207 23.0493 38.4444 23.0821C38.4725 23.1181 38.4602 23.159 38.4279 23.1836L36.4925 24.597C36.4586 24.6191 36.4129 24.6122 36.3892 24.5793L36.3876 24.5768ZM35.4939 16.0955C35.4749 16.1302 35.4836 16.1712 35.5175 16.1933L35.52 16.1949C35.555 16.2153 35.5995 16.203 35.6216 16.169L36.8147 14.0906C36.8343 14.055 36.8288 14.0126 36.7886 13.9912C36.7536 13.9708 36.7091 13.9831 36.687 14.0171L35.4939 16.0955ZM35.637 17.5784C35.6039 17.5551 35.5966 17.5139 35.6168 17.4798L37.1143 15.4443C37.1375 15.4112 37.1824 15.4004 37.2167 15.422C37.2562 15.4448 37.2602 15.4874 37.2394 15.5223L35.7419 17.5578C35.7187 17.5909 35.6738 17.6017 35.6395 17.5801L35.637 17.5784ZM35.8627 18.8335C35.8368 18.8636 35.8368 18.9055 35.8655 18.9341L35.8676 18.9362C35.8976 18.9634 35.9437 18.9606 35.9723 18.932L37.804 17.1471C37.8306 17.1163 37.8341 17.0737 37.7992 17.0444C37.7691 17.0172 37.723 17.02 37.6944 17.0486L35.8627 18.8335ZM36.0979 20.3327C36.0693 20.3041 36.0693 20.2622 36.0952 20.2322L37.9269 18.4472C37.9555 18.4186 38.0016 18.4158 38.0316 18.443C38.0665 18.4724 38.0631 18.515 38.0365 18.5457L36.2048 20.3306C36.1762 20.3592 36.1301 20.362 36.1 20.3348L36.0979 20.3327ZM36.0932 21.7432C36.0674 21.7733 36.0674 21.8152 36.096 21.8438L36.0981 21.8459C36.1281 21.8731 36.1742 21.8703 36.2028 21.8417L38.2671 20.0568C38.2937 20.0261 38.2972 19.9835 38.2622 19.9541C38.2322 19.9269 38.1861 19.9297 38.1575 19.9583L36.0932 21.7432ZM36.096 23.4711C36.0674 23.4425 36.0674 23.4006 36.0932 23.3705L38.1575 21.5856C38.1861 21.557 38.2322 21.5542 38.2622 21.5814C38.2972 21.6108 38.2937 21.6534 38.2671 21.6841L36.2028 23.469C36.1742 23.4976 36.1281 23.5004 36.0981 23.4732L36.096 23.4711ZM28.9754 6.64538C28.9728 6.68491 28.998 6.71837 29.0381 6.72401L29.0411 6.72442C29.0814 6.7281 29.1166 6.69813 29.1222 6.65803L29.3252 4.27013C29.3279 4.22962 29.305 4.19349 29.2595 4.19108C29.2191 4.1874 29.184 4.21737 29.1784 4.25747L28.9754 6.64538ZM24.2373 2.84062L24.2176 2.83766C24.1771 2.82581 24.1563 2.78532 24.1672 2.7468L24.3361 2.15721C24.344 2.12561 24.3736 2.10388 24.4042 2.10388C24.4121 2.10388 24.42 2.10487 24.4269 2.10685C24.4655 2.11771 24.4882 2.1582 24.4753 2.19771L24.3084 2.78729C24.2986 2.81988 24.2679 2.84062 24.2373 2.84062ZM37.4856 25.0494L37.5003 25.063C37.5256 25.0803 37.5626 25.0804 37.5891 25.0591L38.0593 24.6661C38.0921 24.6407 38.0962 24.5945 38.0705 24.5638C38.0659 24.5583 38.0599 24.553 38.0534 24.5486C38.0281 24.5313 37.9914 24.5325 37.9671 24.5542L37.4953 24.946C37.4646 24.9717 37.4589 25.0168 37.4856 25.0494Z" fill="#103B63"/>
<path fill-rule="evenodd" clip-rule="evenodd" d="M21.4173 38.9223C18.6381 39.7949 15.9997 38.9815 13.9261 37.4319C13.2819 36.9508 12.5268 36.1093 11.7488 35.0961C10.9747 34.0879 10.1922 32.9289 9.49185 31.8292C8.79187 30.7302 8.17598 29.6937 7.735 28.9317C7.51456 28.5509 7.33797 28.2389 7.21658 28.0222C7.15589 27.9139 7.109 27.8295 7.07735 27.7722L7.04146 27.7071L7.02965 27.6855L6.7735 27.825L7.02249 27.6731L7.01935 27.668L7.0096 27.6519L6.97115 27.5883C6.93738 27.5322 6.88767 27.4494 6.82421 27.3427C6.69728 27.1292 6.51532 26.8203 6.29566 26.439C5.85624 25.6761 5.26644 24.6244 4.66452 23.4686C4.06228 22.3123 3.44971 21.055 2.96362 19.8804C2.47509 18.6999 2.12391 17.6251 2.02936 16.8264C1.72462 14.2558 2.3393 11.565 4.48552 9.59161C5.37911 8.77018 6.54709 8.02476 7.50104 7.48133C7.97625 7.21062 8.39477 6.99205 8.69421 6.84129C8.84388 6.76594 8.96364 6.7076 9.0457 6.66824C9.08672 6.64856 9.11831 6.63363 9.13947 6.62369L9.16329 6.61256L9.1691 6.60987L9.17044 6.60925L9.183 6.60347L9.19469 6.59672C9.28012 6.54739 9.38688 6.57757 9.43376 6.65886L14.3373 15.1486C14.3842 15.2308 14.3571 15.3381 14.27 15.3879L14.2617 15.3927C14.2504 15.3997 14.2327 15.4103 14.216 15.42L14.1956 15.4318L14.1896 15.4352L14.1881 15.4361L14.185 15.4379C14.1779 15.442 14.1669 15.4489 14.1499 15.4595C14.0287 15.5352 13.6008 15.8021 12.0868 16.649C11.0472 17.2312 10.2737 17.3876 9.77592 17.4067C9.52635 17.4162 9.34321 17.3914 9.22739 17.3666C9.16938 17.3542 9.12798 17.3417 9.10333 17.3334C9.091 17.3292 9.08284 17.326 9.07889 17.3245L9.07698 17.3237L8.65303 17.128L8.66584 17.5977C8.67125 17.796 8.74449 18.0535 8.8437 18.3262C8.94626 18.6081 9.08907 18.9387 9.25656 19.2957C9.5918 20.0103 10.034 20.8478 10.4729 21.6442C10.9122 22.4414 11.3502 23.2011 11.6783 23.7613C11.8424 24.0415 11.9791 24.272 12.0748 24.4325C12.1226 24.5127 12.1603 24.5755 12.1859 24.6183L12.2153 24.6671L12.2225 24.679L12.2292 24.6911L12.2568 24.7409C12.281 24.7845 12.3165 24.8485 12.3621 24.9301C12.4532 25.0932 12.5844 25.3268 12.745 25.6089C13.0661 26.1731 13.505 26.9323 13.9757 27.7113C14.4459 28.4896 14.95 29.2912 15.4013 29.9389C15.6268 30.2625 15.8417 30.5515 16.0346 30.7814C16.2212 31.0037 16.4076 31.1959 16.5767 31.2999L16.9975 31.5586L17.0206 31.0686L17.0207 31.0676C17.0211 31.064 17.022 31.0561 17.024 31.0441C17.0279 31.0202 17.0359 30.9799 17.052 30.9254C17.0841 30.8167 17.1485 30.6497 17.2775 30.4412C17.5347 30.0251 18.055 29.4335 19.1073 28.8107C19.9585 28.306 20.484 28.0078 20.7954 27.8365C20.951 27.7509 21.0528 27.6972 21.1147 27.6653C21.1457 27.6493 21.1665 27.6389 21.1791 27.6327L21.1919 27.6265L21.1934 27.6258L21.233 27.6076L21.2655 27.5786C21.2782 27.5673 21.2888 27.5567 21.2952 27.5502L21.3023 27.5431C21.387 27.5013 21.4858 27.5327 21.5302 27.6104L21.5308 27.6114L26.4331 36.1009C26.4803 36.1843 26.4519 36.2927 26.3673 36.3415L26.3556 36.3483L26.3447 36.356L26.3432 36.3571L26.3379 36.3608L26.3164 36.3758C26.2972 36.3892 26.2685 36.4091 26.2309 36.4348C26.1558 36.4862 26.0454 36.5607 25.9053 36.6527C25.6249 36.8366 25.2263 37.0898 24.7542 37.366C23.8063 37.9205 22.5762 38.5593 21.4173 38.9223ZM26.6716 36.8393C27.0249 36.6263 27.1436 36.1697 26.9401 35.8122L26.9392 35.8107L22.0366 27.3208C21.8267 26.9547 21.3608 26.8348 20.9991 27.0441C20.9541 27.07 20.9219 27.0993 20.9028 27.1178L20.901 27.1196C20.8868 27.1266 20.8692 27.1356 20.8476 27.1467C20.78 27.1815 20.6735 27.2378 20.5142 27.3254C20.1957 27.5007 19.6647 27.802 18.81 28.3089C17.6898 28.9719 17.0956 29.6261 16.7813 30.1344C16.6937 30.2761 16.5796 30.5199 16.5796 30.5199L16.8822 30.8029L16.8355 30.8788L16.7294 31.0514L17.0208 31.0651C17.0208 31.0651 17.0208 31.0651 16.7294 31.0514L16.7409 31.0328L16.7546 31.0105L16.7813 30.967C16.7828 30.9523 16.8058 30.9272 16.8058 30.9272L16.8822 30.8029L16.5796 30.5199C16.5796 30.5199 16.5159 30.4474 16.4814 30.4064C16.3042 30.1952 16.1004 29.9219 15.8799 29.6054C15.4393 28.973 14.9426 28.1837 14.4749 27.4097C14.0077 26.6364 13.5715 25.8818 13.252 25.3204C13.0923 25.0398 12.9618 24.8075 12.8713 24.6456C12.8261 24.5646 12.7908 24.5012 12.7669 24.4581L12.7398 24.409L12.7307 24.3926L12.4751 24.5331L12.7247 24.3821L12.7149 24.366L12.686 24.3179C12.6606 24.2756 12.6233 24.2134 12.5758 24.1337C12.4808 23.9743 12.3449 23.7452 12.1817 23.4665C11.8552 22.909 11.4199 22.1539 10.9838 21.3626C10.5472 20.5705 10.112 19.7458 9.78467 19.048C9.62087 18.6988 9.48609 18.3857 9.39188 18.1268C9.37211 18.0724 9.35459 18.0217 9.3392 17.9745C9.46828 17.9889 9.62144 17.9963 9.79825 17.9896C10.3988 17.9666 11.2614 17.7798 12.3716 17.1581M12.4751 24.5331L12.7247 24.3821L12.7278 24.3872L12.7307 24.3926L12.4751 24.5331ZM26.6716 36.8393L26.6498 36.8545C26.6293 36.8688 26.5992 36.8896 26.5603 36.9163C26.4823 36.9696 26.3688 37.0462 26.2253 37.1404C25.9384 37.3287 25.5312 37.5873 25.0487 37.8695C24.0873 38.432 22.813 39.0964 21.5918 39.4789C18.5906 40.4212 15.7601 39.5306 13.577 37.8992C12.8656 37.3679 12.0706 36.473 11.2861 35.4513C10.4977 34.4245 9.7051 33.25 8.99983 32.1426C8.2942 31.0347 7.67392 29.9907 7.23013 29.224C7.00818 28.8405 6.83024 28.5261 6.70769 28.3074C6.64642 28.198 6.59898 28.1126 6.56681 28.0544L6.53018 27.9879L6.52092 27.971L6.51078 27.9543L6.47152 27.8894C6.4372 27.8324 6.38691 27.7486 6.32284 27.6409C6.19469 27.4254 6.01136 27.1141 5.79019 26.7301C5.34796 25.9624 4.75393 24.9032 4.14714 23.7381C3.54068 22.5736 2.91968 21.2998 2.42462 20.1035C1.93201 18.9131 1.55449 17.777 1.45007 16.895C1.12923 14.1884 1.77329 11.293 4.09072 9.16218C5.03229 8.29664 6.24469 7.52567 7.2123 6.97447C7.69788 6.69786 8.12544 6.47456 8.43189 6.32027C8.58517 6.2431 8.70829 6.18311 8.7934 6.14229C8.83596 6.12187 8.86902 6.10624 8.8916 6.09564L8.91567 6.0844C9.27609 5.88521 9.73236 6.00898 9.93909 6.36744L14.8429 14.8576L14.8433 14.8584C15.0513 15.221 14.9254 15.6814 14.5647 15.8914C14.5469 15.9023 14.5252 15.915 14.5091 15.9243L14.4865 15.9374L14.4797 15.9413C14.4797 15.9413 14.4765 15.9433 14.4729 15.9455L14.4526 15.9581C14.4444 15.9633 14.4346 15.9694 14.423 15.9766C14.4103 15.9845 14.3954 15.9937 14.378 16.0044C14.3119 16.045 14.2113 16.106 14.0585 16.1962C13.7529 16.3764 13.2379 16.6735 12.3716 17.1581M21.2899 27.5498L21.2913 27.549L21.2899 27.5498ZM6.7735 27.825L7.02249 27.6731L7.02615 27.6791L7.02965 27.6855L6.7735 27.825Z" fill="#103B63"/>
</svg>
