<svg width="40" height="40" viewBox="0 0 40 40" fill="none" xmlns="http://www.w3.org/2000/svg">
<g clip-path="url(#clip0_1269_10439)">
<path d="M18.7175 17.7748C18.559 18.1261 18.3005 18.429 17.9897 18.6569C17.8089 18.7895 17.6092 18.898 17.3957 18.9666C16.5203 19.2472 15.4934 18.7542 15.0872 17.9294C14.791 17.3279 14.8042 16.5837 15.1215 15.9931C15.4388 15.4026 16.052 14.9808 16.7171 14.8957C17.313 14.8196 18.0676 15.1413 18.4974 15.7214C18.927 16.3013 19.0144 17.1168 18.7175 17.7748ZM21.1773 16.7677C20.9198 16.6895 20.6725 16.555 20.5031 16.3461C20.2669 16.0549 20.2098 15.6427 20.3062 15.2803C20.4025 14.9179 20.6382 14.6034 20.9248 14.3617C20.6714 13.9592 20.397 13.5818 20.1098 13.2143C19.7611 13.4729 19.4261 13.7173 19.0385 13.7369C18.6649 13.7558 18.3026 13.5512 18.0701 13.2582C17.8378 12.9651 17.7226 12.5937 17.6761 12.2224C17.6628 12.1872 17.6437 12.1799 17.6294 12.179C17.2375 12.1499 16.8456 12.1205 16.4536 12.0914C16.3827 12.4574 16.2162 12.7841 15.9599 13.0208C15.7037 13.2575 15.3568 13.399 15.0082 13.388C14.8651 13.3835 14.7239 13.3543 14.5839 13.3236C14.355 13.2736 14.1129 13.212 13.9517 13.0418C13.6403 13.2537 13.3605 13.479 13.09 13.7147C13.2282 13.8092 13.2865 13.939 13.3354 14.0659C13.4399 14.3368 13.5194 14.6329 13.4536 14.916C13.3855 15.2086 13.1651 15.4504 12.9018 15.5949C12.6384 15.7395 12.3351 15.7961 12.0351 15.8142C11.952 16.2428 11.9116 16.701 11.8984 17.1602C12.1539 17.2508 12.3964 17.3289 12.6145 17.456C12.8326 17.5828 13.0273 17.7646 13.1242 17.9975C13.2334 18.2597 13.2076 18.566 13.0934 18.8261C12.9793 19.0862 12.7836 19.3039 12.5624 19.4822C12.8297 19.9155 13.0866 20.3177 13.3505 20.7152C13.7583 20.4479 14.2724 20.3643 14.7191 20.5087C14.8303 20.5447 14.9384 20.5945 15.0298 20.6673C15.1443 20.7584 15.2288 20.8824 15.2948 21.0131C15.4528 21.3256 15.512 21.6874 15.4619 22.0342C15.9374 22.1291 16.3986 22.19 16.8616 22.2266C16.8336 21.7452 17.0409 21.2623 17.4215 20.9989C17.8021 20.7356 18.3451 20.7175 18.7274 20.9784C18.9088 21.1021 19.048 21.2771 19.183 21.45C19.6 21.1555 20.0123 20.8544 20.3988 20.5232C20.1828 20.1877 19.9634 19.8511 19.9549 19.473C19.946 19.0791 20.1826 18.7029 20.5137 18.4892C20.8447 18.2754 21.2568 18.2112 21.6488 18.2517C21.7831 17.7936 21.8973 17.3464 21.9923 16.8951C21.7045 16.8718 21.4346 16.8457 21.1773 16.7677Z" fill="#FEECB3"/>
<path fill-rule="evenodd" clip-rule="evenodd" d="M0.377895 30.4249V32.0666L39.5768 31.8472C39.5812 31.8016 39.5834 31.755 39.5856 31.7076L39.5869 31.6855V31.6855V31.6855V31.6854V31.6853V31.6852C39.6112 31.2816 39.6381 30.8345 39.6112 30.4635C39.1009 30.4682 37.5843 30.4701 35.3253 30.4701C32.7999 30.4701 29.3441 30.4678 25.3279 30.4649L24.921 30.4646C22.0685 30.4626 19.4174 30.4607 17.6365 30.4607C15.6583 30.4607 13.5693 30.4466 11.3585 30.4316C7.6362 30.4061 3.78788 30.38 0.377895 30.4249ZM0.0230457 30.1477C0.0388945 30.1175 0.0627522 30.092 0.0924301 30.0742C2.27853 28.3406 4.62693 26.6541 7.26529 24.9263C6.89516 20.1011 6.77927 15.2042 6.92406 10.3691L6.92417 10.3656C6.93978 9.86986 6.98676 8.37797 8.22439 7.97242L8.25542 7.96511C11.6811 7.44418 15.4825 7.48011 19.1585 7.51486L19.17 7.51497L19.1977 7.51523C20.6268 7.52889 22.1011 7.54297 23.5251 7.52316C26.1901 7.48639 28.5936 7.48108 31.0171 7.78833C31.4314 7.84106 32.0406 7.94273 32.5412 8.21831C32.9953 8.46731 33.301 8.92741 33.3609 9.44866C33.4428 10.1702 33.4561 10.9047 33.4672 11.6152C33.5435 16.0163 33.6198 20.5651 33.027 24.9298C34.1872 25.8608 35.4499 26.7887 36.6721 27.6867L36.6722 27.6867L36.6987 27.7063L36.7251 27.7256L36.7251 27.7256C37.8572 28.5568 38.928 29.3429 39.8383 30.0753L39.8958 30.1177C39.9266 30.1414 39.9495 30.1744 39.9614 30.2117C39.9668 30.2277 39.97 30.2444 39.9709 30.2613C40.0257 30.6988 39.9929 31.2466 39.9622 31.7305C39.9593 31.7782 39.9569 31.825 39.9544 31.8708V31.8709V31.8709V31.871V31.8711L39.9544 31.8712L39.9544 31.8714L39.9544 31.8716L39.9544 31.8719L39.9544 31.8722C39.9513 31.9315 39.9482 31.9891 39.9445 32.0446C39.9401 32.1447 39.8581 32.2234 39.7584 32.2238L0.189598 32.4453C0.138648 32.4453 0.0921274 32.4256 0.0566833 32.3904C0.0212393 32.355 0.00130206 32.3069 0.00130206 32.2563V30.2587C-0.0033198 30.2201 0.00446363 30.1813 0.0230457 30.1477ZM11.4565 25.3094C8.65267 25.2951 7.77542 25.2867 7.47644 25.2392C5.01521 26.8523 2.80308 28.4297 0.743014 30.0425C1.97912 30.0281 3.2684 30.0227 4.58647 30.0227C6.80837 30.0227 9.10779 30.0383 11.3629 30.0538L11.5782 30.0553C13.7073 30.0696 15.7227 30.0831 17.6365 30.0831C19.5018 30.0831 22.3218 30.0851 25.3279 30.0872C30.773 30.0912 37.3611 30.0959 39.2485 30.0882C38.4156 29.4357 37.4697 28.7406 36.475 28.0107L36.4276 27.9758C35.2391 27.1021 34.0125 26.2004 32.8759 25.2927C32.8551 25.3004 32.8327 25.3047 32.8093 25.3048L32.6282 25.3052C31.5484 25.308 25.8275 25.3228 20.1646 25.3242H19.4247C16.0952 25.3242 13.417 25.3194 11.4565 25.3094ZM7.64179 24.8837C9.26557 24.9696 24.4201 24.9507 32.6453 24.9273C33.2435 20.5763 33.1659 16.0249 33.0906 11.6216L33.0892 11.5458V11.5455C33.0764 10.8679 33.0633 10.1698 32.9843 9.49164C32.9377 9.09179 32.7051 8.73934 32.3596 8.54927C31.9165 8.30493 31.3539 8.21189 30.9706 8.16315C28.5693 7.85878 26.1812 7.86409 23.5296 7.90087C22.0941 7.9208 20.6054 7.90663 19.1677 7.89289C15.5081 7.85789 11.7245 7.82178 8.32852 8.33639C7.6728 8.55902 7.33609 9.22803 7.30286 10.3804C7.15887 15.1975 7.27184 20.0763 7.64179 24.8837ZM31.5504 23.4846H8.97034V9.71466H31.5504V23.4846ZM8.78205 23.8626H31.7387C31.8428 23.8626 31.927 23.778 31.927 23.6736V9.5257C31.927 9.42136 31.8428 9.33674 31.7387 9.33674H8.78205C8.67793 9.33674 8.59375 9.42136 8.59375 9.5257V23.6736C8.59375 23.778 8.67793 23.8626 8.78205 23.8626ZM15.5777 21.9469C15.9638 22.0207 16.3517 22.0743 16.7576 22.1099C16.7646 21.6204 16.9908 21.1683 17.3646 20.9098C17.7896 20.6158 18.3748 20.6071 18.7877 20.8887C18.9574 21.0046 19.0897 21.1585 19.2056 21.3046C19.5534 21.0577 19.9176 20.7909 20.2647 20.499C20.0602 20.18 19.8617 19.8486 19.8533 19.4713C19.8441 19.0632 20.0821 18.642 20.4595 18.3984C20.7638 18.2018 21.1574 18.1107 21.575 18.1375C21.6899 17.7394 21.7864 17.3602 21.8683 16.9843C21.6207 16.9626 21.3794 16.9324 21.1492 16.8628C20.8409 16.7692 20.5903 16.6117 20.4246 16.4073C20.1811 16.1069 20.098 15.6633 20.2081 15.2497C20.296 14.9193 20.4972 14.6058 20.7918 14.3383C20.5913 14.0255 20.3614 13.702 20.0922 13.3537C19.7713 13.5899 19.437 13.8165 19.0456 13.8363C18.6648 13.8565 18.2597 13.6574 17.991 13.3185C17.7781 13.0499 17.6403 12.699 17.5811 12.2751L16.5378 12.1973C16.4518 12.5576 16.2781 12.8658 16.0322 13.0928C15.748 13.3553 15.3741 13.4993 15.0069 13.4875C14.858 13.4829 14.7123 13.4532 14.5638 13.4209C14.344 13.3727 14.117 13.3133 13.9441 13.1702C13.7189 13.3271 13.495 13.5015 13.2509 13.7103C13.3446 13.8077 13.3943 13.9215 13.434 14.0246C13.5311 14.2764 13.6327 14.6076 13.5564 14.9354C13.4859 15.2382 13.2662 15.5102 12.9535 15.6818C12.728 15.8056 12.4561 15.8798 12.1242 15.9079C12.0612 16.2575 12.0216 16.6523 12.0063 17.0837L12.0294 17.0919L12.0311 17.0925C12.2565 17.1716 12.4696 17.2465 12.6685 17.3624C12.8535 17.4701 13.0996 17.6601 13.2218 17.9538C13.3357 18.2269 13.3241 18.5587 13.1903 18.8637C13.0909 19.0904 12.926 19.3041 12.6997 19.5001C12.9335 19.8775 13.1581 20.2292 13.3835 20.5706C13.8077 20.3258 14.3124 20.2639 14.7529 20.4061C14.8915 20.451 15.0039 20.5086 15.0963 20.5823C15.2099 20.6727 15.3057 20.7971 15.3891 20.9623C15.5416 21.264 15.6074 21.6101 15.5777 21.9469ZM16.8635 22.3262L16.8554 22.3258C16.3665 22.2873 15.9047 22.2238 15.4436 22.1318C15.3896 22.1209 15.3535 22.0698 15.3614 22.0154C15.4084 21.6899 15.3526 21.3492 15.2043 21.0557C15.1345 20.9176 15.057 20.8157 14.9673 20.7444C14.8946 20.6863 14.8037 20.6402 14.6892 20.6031C14.2771 20.47 13.7985 20.5427 13.4093 20.7979C13.3616 20.8291 13.2977 20.816 13.2662 20.7686C13.0059 20.3765 12.7475 19.9722 12.4763 19.5325C12.4489 19.4882 12.4588 19.4302 12.4994 19.3976C12.736 19.2069 12.9046 18.9994 13.0006 18.7805C13.1119 18.527 13.1228 18.2547 13.0306 18.0335C12.9305 17.7928 12.7218 17.6331 12.5644 17.5413C12.3819 17.4351 12.1773 17.3632 11.9608 17.2872L11.8657 17.2538C11.8234 17.2387 11.7956 17.198 11.7969 17.1532C11.8114 16.6485 11.8579 16.19 11.9355 15.7905C11.9445 15.7442 11.9837 15.7098 12.0309 15.7069C12.3684 15.6865 12.6376 15.619 12.8539 15.5003C13.1111 15.359 13.2983 15.1303 13.3547 14.8885C13.4182 14.6156 13.3272 14.3233 13.2407 14.099C13.1963 13.9837 13.147 13.8737 13.0336 13.7962C13.0071 13.7782 12.9905 13.7488 12.9885 13.7168C12.9867 13.6849 12.9997 13.6539 13.0238 13.6327C13.3355 13.3611 13.6123 13.1449 13.8954 12.9521C13.9374 12.9234 13.994 12.9297 14.0289 12.9665C14.1671 13.1124 14.3817 13.169 14.608 13.2184C14.7521 13.25 14.882 13.2764 15.0135 13.2806C15.3278 13.2904 15.6471 13.1666 15.8917 12.9408C16.1252 12.7251 16.2851 12.4231 16.3539 12.0677C16.364 12.0162 16.4111 11.9803 16.4633 11.9841L17.6392 12.0717C17.701 12.0764 17.7505 12.1167 17.775 12.1821L17.7807 12.2055C17.8316 12.611 17.9569 12.9422 18.1532 13.1898C18.3811 13.477 18.7191 13.6441 19.0351 13.6294C19.3972 13.6112 19.7292 13.3651 20.0502 13.1271C20.0952 13.0936 20.1588 13.1022 20.1933 13.1465C20.5158 13.559 20.7844 13.9371 21.0146 14.3027C21.0421 14.3463 21.0331 14.4035 20.9937 14.437C20.7849 14.6129 20.5138 14.9062 20.4083 15.3029C20.315 15.6538 20.3828 16.0269 20.5854 16.277C20.725 16.4491 20.9408 16.5831 21.2092 16.6646C21.4563 16.7393 21.7148 16.7646 22.0026 16.7877C22.0322 16.7902 22.0594 16.8051 22.0772 16.8291C22.095 16.8529 22.1017 16.8832 22.0956 16.9123C22.002 17.3567 21.8891 17.803 21.7501 18.2768C21.736 18.3248 21.6898 18.355 21.64 18.3508C21.237 18.3093 20.8576 18.3878 20.5718 18.5723C20.2536 18.7778 20.0528 19.1288 20.0604 19.4667C20.0681 19.8112 20.2682 20.122 20.4802 20.4513L20.4805 20.4517L20.4878 20.4631C20.5158 20.5066 20.5075 20.5641 20.4682 20.5978C20.0677 20.941 19.6435 21.2489 19.2448 21.5306C19.1997 21.5625 19.1374 21.5534 19.1035 21.5098L19.1019 21.5077L19.1019 21.5077C18.9808 21.3528 18.8438 21.1777 18.6711 21.0599C18.3328 20.8291 17.8329 20.8376 17.4824 21.08C17.1429 21.315 16.9405 21.761 16.9669 22.2166C16.9686 22.2464 16.9574 22.2756 16.936 22.2965C16.9165 22.3156 16.8905 22.3262 16.8635 22.3262ZM16.4361 16.076C16.5721 15.9915 16.7293 15.9471 16.8815 15.9471C16.9459 15.9471 17.0094 15.9551 17.07 15.9714C17.322 16.0393 17.5064 16.1463 17.618 16.2894C17.7579 16.4687 17.8342 16.7122 17.8331 16.9752C17.8323 17.1489 17.7977 17.2949 17.7303 17.4093C17.67 17.5115 17.5797 17.5951 17.4993 17.6635C17.2917 17.8398 17.1114 17.9366 16.9317 17.9682C16.6173 18.0236 16.2702 17.8598 16.0873 17.571C15.9145 17.2979 15.8875 16.9243 16.0168 16.5961C16.1041 16.3744 16.253 16.1898 16.4361 16.076ZM15.9123 17.6817C16.1091 17.9926 16.4623 18.1855 16.8105 18.1855C16.8631 18.1855 16.9156 18.1812 16.9674 18.1721C17.1849 18.1342 17.3964 18.0225 17.6333 17.8213C17.7269 17.7418 17.8328 17.6431 17.9087 17.5145C17.995 17.3681 18.0392 17.187 18.0402 16.9761C18.0415 16.667 17.9496 16.3778 17.7812 16.1619C17.6414 15.9826 17.4202 15.8512 17.1239 15.7714C16.8623 15.7009 16.5717 15.7478 16.3268 15.9001C16.1061 16.0372 15.9277 16.2575 15.8242 16.5201C15.6711 16.9088 15.7048 17.3538 15.9123 17.6817ZM16.9008 14.9854C16.8437 14.9854 16.7874 14.9888 16.7321 14.9959C16.0985 15.0769 15.5171 15.4769 15.2147 16.0396C14.9123 16.6023 14.8999 17.3079 15.1821 17.8811C15.5771 18.6832 16.5569 19.125 17.366 18.8652C17.5579 18.8038 17.7479 18.7047 17.9305 18.5708C18.2385 18.3449 18.4785 18.0541 18.6251 17.7295C18.9048 17.1099 18.8207 16.3266 18.416 15.7803C18.0612 15.3011 17.447 14.9854 16.9008 14.9854ZM16.8853 19.1458C16.1251 19.1458 15.3493 18.6892 14.9963 17.9726C14.685 17.3405 14.6988 16.5622 15.0323 15.9416C15.3657 15.3209 16.007 14.8799 16.7059 14.7905C17.3594 14.7071 18.1486 15.0713 18.5826 15.657C19.0374 16.2713 19.1283 17.1181 18.8138 17.8147C18.6527 18.1717 18.3896 18.491 18.053 18.7377C17.8523 18.8848 17.6424 18.9941 17.4293 19.0625C17.253 19.1189 17.0697 19.1458 16.8853 19.1458ZM27.0643 16.2865C27.0439 16.2559 27.0098 16.2379 26.9737 16.2379L26.9581 16.2389C26.6684 16.2807 26.369 16.2599 26.0888 16.2312C26.0463 16.227 26.005 16.2479 25.9837 16.2849C25.8955 16.4378 25.8126 16.5924 25.7249 16.7559L25.6349 16.9232C25.3171 16.7864 25.0374 16.5848 24.818 16.3347C24.9552 16.1458 25.0972 15.9472 25.2501 15.7051C25.275 15.6655 25.2719 15.6145 25.2423 15.5785C25.0611 15.3573 24.9025 15.0825 24.7572 14.7386C24.7372 14.6913 24.6871 14.6643 24.6367 14.6742C24.5499 14.691 24.4633 14.709 24.3761 14.7271L24.376 14.7272L24.375 14.7274C24.2074 14.7623 24.035 14.798 23.8538 14.8262C23.7722 14.4533 23.8034 14.0361 23.947 13.5834C24.2248 13.6522 24.504 13.721 24.7994 13.7912C24.8498 13.8035 24.9018 13.7777 24.9233 13.7304C25.0527 13.445 25.2245 13.1774 25.4065 12.8938C25.4313 12.8552 25.429 12.8052 25.4011 12.7689C25.2713 12.6004 25.1239 12.4039 24.9904 12.1774C25.2503 11.9589 25.5665 11.7647 25.9331 11.5988C26.062 11.8309 26.1784 12.0723 26.2797 12.3173C26.2991 12.3643 26.3484 12.3918 26.3987 12.3827C26.7139 12.3278 27.0352 12.3162 27.3538 12.3479C27.3975 12.3526 27.4401 12.3288 27.4607 12.2899C27.5844 12.0571 27.7119 11.8172 27.8665 11.5694C28.1558 11.7241 28.4301 11.9077 28.6829 12.1164C28.7593 12.1794 28.8338 12.2446 28.9088 12.3103L28.9189 12.3193C28.8703 12.3892 28.8209 12.4588 28.7704 12.5298L28.7704 12.53L28.761 12.5431L28.7602 12.5442L28.7602 12.5443C28.6573 12.6891 28.5509 12.8389 28.4393 13.007C28.4195 13.037 28.4158 13.0749 28.4294 13.1083C28.5277 13.3477 28.6292 13.5955 28.7184 13.8407C28.733 13.8806 28.7693 13.9082 28.8115 13.9118C29.0343 13.9303 29.326 13.9666 29.6395 14.0827C29.6528 14.4255 29.6071 14.7425 29.5006 15.0471L29.4839 15.0463L29.4817 15.0463H29.4817C29.2415 15.0369 28.9931 15.0272 28.7197 15.0526C28.6787 15.0565 28.6433 15.0831 28.6285 15.1216C28.5405 15.3488 28.3949 15.5783 28.1705 15.8436C28.1409 15.8785 28.1365 15.9285 28.1594 15.9681L28.1611 15.9711L28.1612 15.9712C28.2804 16.1769 28.4033 16.3889 28.5123 16.6304C28.1497 16.8122 27.7797 16.9286 27.4103 16.9772C27.3181 16.7511 27.2177 16.5189 27.0643 16.2865ZM27.2405 17.1355C27.2572 17.1766 27.2972 17.2031 27.3409 17.2031L27.3523 17.2026C27.8068 17.155 28.2614 17.0114 28.7035 16.776C28.753 16.7495 28.7744 16.6897 28.7525 16.638C28.6394 16.3706 28.5111 16.1429 28.3852 15.9248C28.5789 15.6884 28.7141 15.4753 28.805 15.2633C29.0388 15.2462 29.2585 15.2548 29.4715 15.2632L29.4755 15.2633L29.5712 15.2669C29.6211 15.2695 29.66 15.2407 29.6765 15.1975C29.8214 14.8208 29.8789 14.4292 29.8526 14.0002C29.85 13.9585 29.8237 13.922 29.7849 13.9063C29.4524 13.7724 29.1425 13.7248 28.8985 13.7016C28.8207 13.4923 28.7355 13.2831 28.652 13.0792C28.7503 12.9329 28.8451 12.7994 28.937 12.67L28.9371 12.67L28.9378 12.6689C29.0075 12.571 29.0753 12.4757 29.1413 12.3791C29.1591 12.3532 29.1648 12.3209 29.1568 12.2904C29.1394 12.2241 29.091 12.1815 29.0514 12.1468L29.0502 12.1458C28.9745 12.0794 28.8987 12.0129 28.8211 11.9489C28.5307 11.7094 28.2132 11.5013 27.8775 11.3303C27.8282 11.3052 27.7672 11.3215 27.7371 11.3682C27.5679 11.6306 27.4322 11.8816 27.3025 12.1254C27.017 12.1025 26.73 12.1126 26.447 12.155C26.3373 11.8989 26.2119 11.6471 26.0733 11.4059C26.0459 11.3582 25.9869 11.3386 25.9364 11.3602C25.4779 11.5577 25.0887 11.7974 24.7796 12.0728C24.7417 12.1067 24.7323 12.1624 24.757 12.2066C24.8932 12.4508 25.0454 12.6603 25.1827 12.8407C25.0286 13.0813 24.8831 13.313 24.7637 13.5596C24.4664 13.4884 24.1842 13.4185 23.9018 13.3486C23.8475 13.3351 23.7917 13.3654 23.7733 13.4184C23.5752 13.9881 23.5397 14.5122 23.6676 14.9767C23.682 15.029 23.733 15.0623 23.7869 15.0553C24.0111 15.0247 24.2185 14.9815 24.419 14.9398C24.4771 14.9277 24.5348 14.9158 24.5924 14.9042C24.7231 15.2002 24.8656 15.4468 25.0252 15.6541C24.8733 15.8899 24.7308 16.0856 24.5925 16.2757C24.5636 16.3153 24.5649 16.3697 24.5959 16.4079C24.8656 16.7407 25.2283 17.0014 25.645 17.1617C25.6957 17.1812 25.7532 17.1601 25.7791 17.1124C25.8183 17.0407 25.8557 16.9709 25.8923 16.9027L25.9161 16.8584C25.9914 16.7182 26.063 16.5847 26.137 16.4542C26.3888 16.4783 26.6542 16.4928 26.9195 16.4627C27.057 16.6835 27.146 16.9026 27.2397 17.1336L27.2397 17.1336L27.2405 17.1355ZM27.7183 16.6738L27.7022 16.6701C27.6844 16.6611 27.6772 16.6394 27.6861 16.6215L27.8964 16.2008C27.9054 16.1829 27.927 16.1756 27.945 16.1847C27.9628 16.1936 27.9701 16.2154 27.9611 16.2332L27.7508 16.6539C27.7446 16.6666 27.7317 16.6738 27.7183 16.6738ZM25.2665 16.3912L25.2803 16.3939C25.2945 16.3939 25.3079 16.3855 25.3138 16.3717L25.9349 14.8802C25.9425 14.8618 25.9339 14.8406 25.9154 14.8329C25.8972 14.8256 25.8758 14.8339 25.8681 14.8524L25.2469 16.3437C25.2393 16.3623 25.2479 16.3835 25.2665 16.3912ZM25.4203 14.8867L25.4103 14.8853C25.3911 14.8797 25.3801 14.8598 25.3855 14.8406C25.6113 14.0542 25.9095 13.2834 26.2721 12.5497C26.2809 12.5319 26.3027 12.5245 26.3205 12.5333C26.3384 12.5422 26.3457 12.5638 26.3369 12.5819C25.9763 13.3115 25.6795 14.0782 25.455 14.8605C25.4505 14.8763 25.4361 14.8867 25.4203 14.8867ZM25.0443 14.75L25.0342 14.7486C25.015 14.7429 25.004 14.7228 25.0096 14.7036C25.2538 13.871 25.5423 13.041 25.8671 12.2364C25.8745 12.2178 25.8957 12.209 25.9141 12.2163C25.9326 12.2238 25.9416 12.2449 25.9342 12.2634C25.6102 13.0658 25.3224 13.8936 25.0791 14.7239C25.0745 14.7397 25.06 14.75 25.0443 14.75ZM26.0942 16.0716L26.0805 16.0691C26.062 16.0615 26.0532 16.0404 26.0606 16.0219L26.4072 15.166C26.4146 15.1474 26.4357 15.1386 26.4542 15.146C26.4727 15.1536 26.4817 15.1747 26.4741 15.1932L26.1277 16.049C26.122 16.0631 26.1084 16.0716 26.0942 16.0716ZM26.7311 13.2476L26.7419 13.2493C26.7573 13.2493 26.7715 13.2395 26.7764 13.224L26.9416 12.6982C26.9476 12.6791 26.9371 12.6587 26.918 12.6528C26.8987 12.6463 26.8786 12.6574 26.8727 12.6765L26.7074 13.2023C26.7014 13.2213 26.712 13.2417 26.7311 13.2476ZM27.3962 13.3861L27.3835 13.3838C27.3649 13.3768 27.3553 13.356 27.3623 13.3373C27.5317 12.8867 27.7262 12.4394 27.9404 12.0081C27.9494 11.9902 27.9709 11.9829 27.989 11.9918C28.0068 12.0006 28.0142 12.0224 28.0053 12.0403C27.792 12.4694 27.5985 12.9144 27.4301 13.3627C27.4246 13.3771 27.4109 13.3861 27.3962 13.3861ZM26.7265 16.0778L26.7418 16.0814C26.7555 16.0814 26.7683 16.0737 26.7746 16.0607L28.3507 12.7319C28.3592 12.7138 28.3516 12.6923 28.3335 12.6837C28.3157 12.6755 28.2939 12.683 28.2853 12.701L26.7092 16.0297C26.7007 16.0478 26.7084 16.0693 26.7265 16.0778ZM27.3717 16.2148L27.3566 16.2114C27.3384 16.203 27.3305 16.1814 27.3391 16.1633L28.397 13.8988C28.4056 13.8807 28.4271 13.8727 28.4452 13.8813C28.4633 13.8898 28.4711 13.9113 28.4626 13.9294L27.4046 16.194C27.3985 16.2072 27.3854 16.2148 27.3717 16.2148ZM28.4822 15.0776L28.4997 15.082L28.5315 15.0634L28.9972 14.2221C29.0069 14.2046 29.0005 14.1827 28.9829 14.173C28.9654 14.1634 28.9435 14.1695 28.9338 14.1871L28.4681 15.0283C28.4584 15.0458 28.4648 15.0679 28.4822 15.0776ZM24.143 14.551L24.1588 14.5547C24.1722 14.5547 24.1851 14.5471 24.1913 14.5343L24.4768 13.9485C24.4855 13.9305 24.4781 13.9089 24.4602 13.9001C24.4422 13.8914 24.4205 13.8989 24.4117 13.9169L24.1264 14.5027C24.1177 14.5206 24.1251 14.5423 24.143 14.551ZM25.36 12.3477L25.3424 12.343C25.325 12.3333 25.3187 12.3112 25.3286 12.2938L25.5388 11.9181C25.5487 11.9007 25.5706 11.8945 25.5881 11.9043C25.6056 11.914 25.6118 11.9361 25.6019 11.9535L25.3917 12.3291L25.36 12.3477ZM26.6823 13.5465C26.5455 13.5465 26.3992 13.617 26.3034 13.7365C26.1899 13.8786 26.1372 14.0819 26.155 14.3091C26.159 14.3624 26.168 14.4293 26.2002 14.4742C26.2231 14.5064 26.2627 14.5345 26.3211 14.5598C26.5109 14.642 26.7334 14.6289 26.9018 14.5255C27.0726 14.4208 27.1799 14.2213 27.1689 14.0291C27.1578 13.8348 27.0205 13.6512 26.8422 13.5926L26.8217 13.5864L26.8214 13.5863C26.8048 13.5814 26.7741 13.5724 26.7491 13.5525C26.7271 13.5485 26.7049 13.5465 26.6823 13.5465ZM26.5804 14.8301C26.463 14.8301 26.3446 14.8066 26.2348 14.7588C26.1392 14.7174 26.0701 14.6657 26.0235 14.6004C25.9602 14.5118 25.945 14.4072 25.9386 14.3259C25.9165 14.0437 25.9859 13.7862 26.1341 13.601C26.3147 13.3751 26.6149 13.2752 26.8643 13.3584C26.8811 13.364 26.896 13.3735 26.9078 13.3858L26.9099 13.3865C27.1739 13.4734 27.3694 13.7325 27.3856 14.0167C27.4013 14.2906 27.256 14.563 27.0153 14.7104C26.8861 14.7898 26.7341 14.8301 26.5804 14.8301Z" fill="#103B63"/>
</g>
<defs>
<clipPath id="clip0_1269_10439">
<rect width="40" height="40" fill="white"/>
</clipPath>
</defs>
</svg>
