<svg width="80" height="80" viewBox="0 0 80 80" fill="none" xmlns="http://www.w3.org/2000/svg">
<path d="M34.6706 52.9344C35.3707 52.1467 34.9517 50.9301 34.9958 49.8777C35.0896 47.5724 38.0332 46.0102 40.0894 47.0559C42.1456 48.1022 42.7244 51.15 41.3628 53.0094C41.0762 53.4002 40.7068 53.9102 40.9824 54.3082C41.1037 54.4873 41.3242 54.5689 41.5282 54.6406C44.7695 55.7718 48.0054 56.9033 51.2468 58.0351C50.2655 60.9033 49.1355 63.7208 47.8676 66.4732C46.5832 65.1745 44.4277 64.6105 42.8732 65.5664C41.3187 66.5223 41.032 69.1726 42.5811 70.133C43.3308 70.597 44.2403 70.5845 45.1554 70.5718C45.5248 70.5662 45.8996 70.5613 46.2634 70.5889C45.8996 73.8458 44.8687 77.0269 43.011 79.5781C40.2492 78.3912 37.4875 77.2039 34.7257 76.0165C34.5493 75.9427 34.3729 75.8649 34.2406 75.731C33.9099 75.3929 33.9925 74.8176 34.2461 74.419C34.4942 74.0193 34.8856 73.7239 35.1723 73.3501C36.1149 72.1291 35.7455 70.1599 34.4997 69.2499C33.2539 68.3386 31.3796 68.515 30.222 69.5337C29.0588 70.5531 28.6289 72.2719 29.0148 73.7674C26.038 72.0822 22.8132 70.8464 18.9434 70.2157C21.0932 63.4639 23.2486 56.7117 25.3434 49.9202C28.4855 50.9516 31.6277 51.9835 34.6706 52.9344" fill="#FABF00"/>
<path fill-rule="evenodd" clip-rule="evenodd" d="M32.597 68.2467C33.3742 68.2467 34.135 68.4655 34.7469 68.9125C35.4635 69.4368 35.9541 70.2775 36.0864 71.2185C36.2132 72.1098 36.0092 72.9589 35.5021 73.6093C35.3679 73.7811 35.2233 73.9323 35.0835 74.0785L35.0834 74.0785L35.0721 74.0904C34.8902 74.2762 34.7193 74.4511 34.598 74.6445C34.4381 74.8992 34.372 75.2657 34.5429 75.4388C34.6145 75.5155 34.7523 75.5752 34.8902 75.6324L42.8668 79.0601C44.3772 76.8688 45.386 74.0938 45.7884 70.9903C45.6125 70.9869 45.4324 70.9893 45.2483 70.9919H45.2482H45.2482H45.2481H45.2481H45.248L45.16 70.993L45.1564 70.9931C44.2038 71.0062 43.213 71.0199 42.3596 70.492C41.5769 70.0079 41.1303 69.1343 41.1303 68.0944C41.1359 66.9092 41.7312 65.777 42.6518 65.2103C44.3 64.1999 46.3728 64.7215 47.7178 65.7841C48.8258 63.3444 49.8346 60.8295 50.7111 58.2955L41.3895 55.0386L41.3881 55.0382C41.1676 54.9615 40.8378 54.8468 40.6342 54.5492C40.1904 53.9038 40.705 53.1963 41.0144 52.7709L41.0201 52.7631C41.6265 51.9395 41.8304 50.7907 41.5714 49.6904C41.3288 48.6717 40.7169 47.8487 39.9011 47.4319C39.0301 46.9887 37.8835 47.0665 36.9133 47.6343C36.0092 48.1618 35.4524 49.0074 35.4139 49.8972C35.4028 50.1794 35.4249 50.4798 35.4524 50.7985C35.5241 51.6071 35.5958 52.5239 34.9839 53.2146C34.8736 53.3386 34.7027 53.386 34.5484 53.337C31.6212 52.4241 28.5728 51.4258 25.6126 50.4534C23.606 56.9719 21.5168 63.5296 19.4882 69.8845C22.6634 70.4517 25.6126 71.4709 28.4681 72.9896C28.3744 71.5575 28.9201 70.1203 29.9454 69.2202C30.6786 68.5764 31.6488 68.2467 32.597 68.2467ZM43.0156 80C42.955 80 42.8999 79.9888 42.8503 79.9651L34.5594 76.4035C34.3665 76.323 34.1349 76.2216 33.942 76.0271C33.4348 75.5099 33.5616 74.7158 33.8869 74.1964C34.0477 73.9446 34.2428 73.74 34.4307 73.5429L34.4307 73.5429L34.4657 73.5062C34.6035 73.3667 34.7303 73.2345 34.8406 73.0949C35.2044 72.626 35.3532 72.0006 35.254 71.3365C35.1548 70.6182 34.791 69.9821 34.2507 69.5906C33.1923 68.8178 31.544 68.9319 30.4967 69.8514C29.4934 70.734 29.0579 72.2663 29.4217 73.6645C29.4658 73.8275 29.4052 73.9996 29.2729 74.1027C29.1351 74.2045 28.9532 74.2173 28.8099 74.1346C25.6236 72.3303 22.465 71.2168 18.8708 70.632C18.755 70.6126 18.6448 70.5415 18.5841 70.4369C18.518 70.3333 18.5014 70.2058 18.54 70.0895C20.6568 63.4601 22.8453 56.6047 24.9401 49.7979C24.9731 49.6904 25.0448 49.6 25.144 49.5488C25.2488 49.4969 25.3646 49.487 25.4693 49.5229L25.9033 49.6651L25.9034 49.6652L25.9036 49.6653C28.755 50.6002 31.682 51.56 34.5043 52.4434C34.7118 52.0321 34.665 51.4727 34.6159 50.885V50.885L34.6145 50.8685C34.587 50.5388 34.5594 50.197 34.5759 49.8619C34.6255 48.6861 35.3367 47.5819 36.4888 46.9099C37.7015 46.1988 39.1568 46.1117 40.2814 46.6833C41.3178 47.2114 42.0895 48.2379 42.3872 49.4969C42.7069 50.8332 42.4478 52.24 41.6981 53.2598C41.5272 53.4886 41.2185 53.9147 41.3233 54.0718C41.3784 54.1451 41.5493 54.2057 41.6651 54.246L51.3836 57.64C51.6041 57.7167 51.7199 57.9542 51.6427 58.1726C50.6615 61.0462 49.5149 63.8985 48.247 66.6509C48.1864 66.776 48.0706 66.8647 47.9383 66.8884C47.8005 66.9116 47.6627 66.8675 47.5635 66.7699C46.494 65.6862 44.5646 65.0219 43.0928 65.9265C42.4147 66.3432 41.9738 67.1955 41.9738 68.0962C41.9738 68.8376 42.2714 69.4506 42.8006 69.7781C43.4487 70.1763 44.2663 70.1656 45.1391 70.1543L45.149 70.1541C45.5239 70.1479 45.9097 70.1425 46.2901 70.1716C46.4058 70.1799 46.5106 70.234 46.5823 70.3217C46.6539 70.4093 46.6925 70.5234 46.6759 70.6365C46.2845 74.197 45.1324 77.3749 43.3519 79.8269C43.2692 79.9382 43.1424 80 43.0156 80ZM62.2511 46.3976C62.0802 46.3254 61.9094 46.2896 61.7385 46.2896C61.529 46.2896 61.3195 46.348 61.1321 46.4638C59.2027 47.1446 57.2402 47.9086 55.3439 48.6478L54.9859 48.787L54.9851 48.7873C54.0957 49.1329 53.188 49.4857 52.2845 49.8286C51.4797 47.063 50.3606 44.5162 48.955 42.2401C49.5944 42.2599 50.2118 42.1816 50.8126 42.0102C51.5844 41.7919 52.1246 41.4595 52.4719 40.9931C52.8688 40.4645 52.946 39.8449 52.946 39.4188C52.9295 37.899 51.8325 36.4569 50.3275 35.9894C49.1038 35.6085 47.6705 35.8941 46.6121 36.6983C46.32 36.0352 46.0333 35.3786 45.7521 34.7282C44.8701 32.7001 44.0323 30.779 43.1117 28.8777C46.2869 27.1529 49.5999 25.6231 52.9736 24.3288C53.2547 24.2196 53.4587 24.0041 53.5469 23.7208C53.7067 23.1794 53.4201 22.5008 53.1279 22.0841C52.9373 21.8199 52.7162 21.5989 52.5036 21.3865L52.5036 21.3865L52.4774 21.3603L52.4383 21.3214C52.2759 21.1596 52.1196 21.004 51.9868 20.8366C51.2868 19.9436 51.2316 18.5307 51.8545 17.4778C52.4499 16.4745 53.613 15.7711 54.8919 15.6422C55.4432 15.587 55.8897 15.6515 56.2259 15.8334C56.6945 16.087 57.0418 16.6283 57.152 17.2821C57.2623 17.9547 57.1355 18.6586 56.9977 19.2584L56.9701 19.3686L56.9661 19.386L56.9661 19.386C56.8736 19.7836 56.7779 20.1948 56.8268 20.6376C56.893 21.2782 57.2734 21.7996 57.8026 21.9656C57.8908 21.9942 57.99 21.9909 58.0782 21.9567C60.6084 20.97 63.9214 19.6933 67.3337 18.4728C69.8253 25.5989 72.7139 32.4085 75.9222 38.7247C73.0691 40.2923 70.0564 41.7503 67.137 43.1632L67.1297 43.1667C66.6611 43.3944 66.1816 43.6596 65.9721 44.181C65.6744 44.9175 66.132 45.6716 66.6116 46.0933C66.7806 46.2449 66.9638 46.3746 67.1392 46.4988L67.1393 46.4988L67.1793 46.5272C67.4329 46.703 67.67 46.8689 67.8519 47.0724C68.337 47.6181 68.4197 48.515 68.0559 49.2531C67.7196 49.9334 67.0305 50.4896 66.1706 50.7795C65.3327 51.0634 64.2467 50.9896 63.8112 50.3005C63.5742 49.9245 63.5521 49.429 63.53 48.9036L63.5297 48.8949C63.5188 48.6015 63.5075 48.2975 63.4529 47.9957C63.3371 47.3177 62.8299 46.6451 62.2511 46.3976ZM63.1001 50.7514C63.5686 51.4851 64.401 51.7734 65.2279 51.7734C65.6468 51.7734 66.0658 51.7007 66.4406 51.575C67.5101 51.2145 68.3756 50.5034 68.8055 49.6241C69.3182 48.5883 69.1804 47.3099 68.4803 46.5167C68.2322 46.2378 67.9456 46.0355 67.6644 45.8387C67.4825 45.7135 67.3172 45.5956 67.1628 45.4638C66.8817 45.2119 66.6281 44.8012 66.7494 44.4942C66.8486 44.2505 67.1573 44.0851 67.4936 43.9225C70.5475 42.4451 73.7062 40.9171 76.683 39.2633C76.8814 39.1531 76.9586 38.9067 76.8538 38.7049C73.5298 32.2034 70.5475 25.1689 67.9841 17.797C67.9511 17.6917 67.8739 17.6046 67.7692 17.5566C67.67 17.5081 67.5542 17.5015 67.4495 17.539C63.9656 18.7788 60.5533 20.0908 57.9404 21.1089C57.775 20.991 57.6813 20.7523 57.6592 20.55C57.6288 20.2671 57.6962 19.9642 57.7673 19.6452L57.786 19.561L57.8135 19.448C57.9734 18.7678 58.1167 17.9618 57.9789 17.1432C57.8301 16.2364 57.3229 15.4702 56.6283 15.0942C56.1377 14.8313 55.5258 14.7337 54.8092 14.807C53.2712 14.9619 51.8601 15.8213 51.1324 17.0501C50.3276 18.4105 50.4102 20.1812 51.3308 21.3548C51.4894 21.561 51.6718 21.7425 51.847 21.9169L51.8876 21.9573L51.9314 22.0012C52.1198 22.1897 52.3007 22.3707 52.4388 22.5703C52.6593 22.8784 52.7971 23.2941 52.742 23.4782L52.7408 23.4813C52.7305 23.5077 52.7235 23.5258 52.6704 23.5449C49.1423 24.901 45.6694 26.5117 42.3509 28.3331C42.158 28.4417 42.0808 28.6853 42.18 28.8865C43.1668 30.8887 44.0488 32.9162 44.9804 35.0622C45.0717 35.2718 45.1629 35.4821 45.2545 35.693L45.2589 35.7032L45.2617 35.7096C45.5271 36.3212 45.795 36.9382 46.0719 37.5616C46.127 37.6884 46.2428 37.7794 46.3806 37.8042C46.5184 37.8306 46.6562 37.7849 46.7554 37.6851C47.6209 36.802 48.9604 36.4426 50.0795 36.7915C51.2261 37.1476 52.0971 38.2793 52.1026 39.4254C52.1081 39.846 51.9978 40.2247 51.7994 40.491C51.5679 40.803 51.171 41.0361 50.5866 41.2026C49.8259 41.4176 49.0486 41.459 48.2052 41.3283C48.0398 41.3024 47.8745 41.3768 47.7863 41.5168C47.6981 41.6569 47.6981 41.836 47.7863 41.9749C49.4456 44.4754 50.7245 47.3425 51.601 50.4951C51.634 50.6092 51.7112 50.704 51.8159 50.7575C51.9207 50.8115 52.042 50.817 52.1522 50.7762C53.2991 50.3455 54.4513 49.8963 55.5676 49.4611L55.5681 49.4609L55.5686 49.4607L55.6471 49.4301C57.5545 48.6875 59.528 47.9202 61.4574 47.2394L61.5511 47.1903C61.6227 47.1435 61.7329 47.0905 61.9204 47.1705C62.2456 47.3072 62.5599 47.7405 62.626 48.1368C62.6701 48.3882 62.6811 48.655 62.6921 48.9372C62.7142 49.5508 62.7418 50.1847 63.1001 50.7514ZM64.5381 50.462C64.5436 50.5364 64.6043 50.5938 64.6759 50.5938H64.687C64.7642 50.5893 64.8248 50.5232 64.8193 50.4466C64.4681 44.161 64.8653 37.7645 65.2496 31.577L65.2548 31.4945L65.2677 31.285C65.4952 27.5934 65.7302 23.782 65.8005 20.029C65.8005 19.9518 65.7399 19.8879 65.6627 19.8862C65.5855 19.8862 65.5249 19.9474 65.5194 20.0235C65.4491 23.772 65.214 27.581 64.9864 31.2696L64.9736 31.4763L64.9683 31.5623V31.5623V31.5624V31.5624V31.5625V31.5625V31.5626V31.5627V31.5627V31.5628V31.5629C64.5841 37.7585 64.187 44.1619 64.5381 50.462ZM54.5002 48H54.5112C54.5829 48 54.6435 47.9421 54.6491 47.8682L56.3359 17.6199C56.3414 17.5422 56.2808 17.4766 56.2036 17.4722C56.1264 17.4672 56.0602 17.5273 56.0602 17.6039L54.3734 47.8528C54.3679 47.9294 54.423 47.9956 54.5002 48ZM16.5677 35.5702C16.8048 35.5702 17.0308 35.6441 17.2292 35.7846C17.4773 35.9649 17.6481 36.235 17.6922 36.5261C17.7686 37.0071 17.559 37.4412 17.405 37.76L17.4001 37.7702L16.6449 39.3319C16.3913 39.8523 16.1984 40.2839 16.237 40.7079C16.2811 41.1323 16.5567 41.4906 16.7772 41.7166C17.6206 42.5667 18.9105 42.812 19.8366 42.8682C20.8399 42.93 21.6227 42.7982 22.2401 42.4675C22.9567 42.0821 23.4198 41.3694 23.3977 40.6941C23.3871 40.2506 23.1806 39.8185 22.9626 39.3624L22.9402 39.3154L22.9351 39.3052C22.8651 39.1642 22.7954 39.0236 22.7362 38.8816C22.3062 37.913 22.2952 37.0773 22.7032 36.4638C23.2213 35.6909 24.197 35.5448 25.0901 35.5046C27.681 35.3861 30.3104 35.3877 32.9068 35.5084C32.8131 32.0984 32.8572 28.9122 33.0557 25.8047C31.9697 26.2276 30.7625 25.9778 30.0624 25.7562C29.5828 25.6041 28.8882 25.3417 28.3535 24.8119C27.6093 24.065 27.3061 22.8522 27.5817 21.7205C27.9015 20.4394 28.9157 19.3551 30.1781 18.9576C31.1593 18.6478 32.2674 18.7653 33.177 19.2465C33.1218 15.708 33.1824 12.7103 33.3754 9.88182C24.8861 10.007 16.281 9.9882 7.78623 9.82394C8.24928 19.0431 8.39261 27.6211 8.22723 36.0117C11.0166 35.4362 13.7729 35.2907 16.4354 35.5785L16.5677 35.5702ZM20.2942 43.7227C20.1343 43.7227 19.9634 43.7177 19.787 43.7067C18.2435 43.613 16.9977 43.1295 16.1818 42.3087C15.8621 41.9857 15.4652 41.4587 15.4046 40.7856C15.3388 40.0982 15.6382 39.4762 15.8801 38.9738L15.8842 38.9653L16.6449 37.4031C16.7827 37.1175 16.8984 36.8634 16.8654 36.6523C16.8543 36.5872 16.8047 36.5145 16.7386 36.4671C16.6945 36.4334 16.6118 36.396 16.5181 36.4147L16.3968 36.4191C13.6405 36.1148 10.7796 36.2923 7.89099 36.9439C7.7642 36.9737 7.6319 36.9417 7.53268 36.8596C7.43345 36.778 7.37834 36.655 7.37834 36.5261C7.56576 27.8493 7.41691 18.9819 6.9263 9.41711C6.92079 9.3008 6.95935 9.18724 7.04204 9.10345C7.12473 9.01966 7.2295 8.97169 7.35077 8.97556C16.1267 9.15031 25.0239 9.17126 33.7944 9.0351C33.9818 9.03123 34.1471 9.15251 34.2023 9.33057C34.2794 9.57201 34.2794 9.77763 34.2188 9.93419C34.0093 12.9528 33.9487 16.1678 34.0314 20.0403C34.0314 20.2068 33.9377 20.3589 33.7888 20.4295C33.6345 20.4995 33.4581 20.4747 33.3313 20.365C32.554 19.6864 31.413 19.4477 30.4317 19.7592C29.445 20.0695 28.6456 20.9184 28.3976 21.9217C28.1881 22.7734 28.4031 23.6742 28.9488 24.2171C29.252 24.5214 29.6875 24.7568 30.3159 24.9553C30.8837 25.1361 32.306 25.474 33.2651 24.7298C33.3974 24.6289 33.5738 24.614 33.7227 24.6923C33.866 24.7695 33.9542 24.9266 33.9432 25.0914C33.7006 28.5522 33.64 32.0995 33.7613 35.9368C33.7613 36.0542 33.7172 36.1672 33.6345 36.2499C33.5518 36.332 33.4415 36.3745 33.3203 36.3689C30.6026 36.2284 27.8463 36.2196 25.1287 36.343C24.412 36.3756 23.7064 36.4693 23.4033 36.9301C23.078 37.4114 23.3261 38.1456 23.5025 38.5409C23.5631 38.6775 23.6292 38.8136 23.6953 38.9496L23.6954 38.9499L23.7158 38.9925C23.9632 39.5107 24.2195 40.0474 24.2356 40.6665C24.2687 41.6687 23.6403 42.6654 22.637 43.2067C21.992 43.5529 21.2258 43.7227 20.2942 43.7227ZM42.9891 9.24219L42.9505 9.24053C41.7102 9.12532 40.4423 9.08453 39.1965 9.12146C39.0366 9.13028 38.8823 9.03822 38.8106 8.89545C38.7334 8.75267 38.75 8.57903 38.8437 8.45058L41.1203 5.41043C41.2581 5.22466 41.5228 5.18717 41.7047 5.32609C41.8921 5.465 41.9307 5.72795 41.7929 5.91317L40.7424 7.31619C44.8357 5.2619 49.8566 5.17705 53.9971 7.19088C54.2066 7.29176 54.2948 7.54313 54.1901 7.7515C54.0909 7.95988 53.8372 8.04698 53.6333 7.94555C49.5895 5.98006 44.6533 6.13396 40.7241 8.27487C41.4952 8.29006 42.2649 8.3332 43.0277 8.40428C43.2592 8.42578 43.4301 8.63029 43.408 8.86127C43.386 9.07902 43.2041 9.24219 42.9891 9.24219ZM46.082 35.202L46.1041 35.2031C46.1702 35.2031 46.2309 35.1519 46.2419 35.0813C46.5726 32.507 46.8372 29.8902 47.0356 27.3037C47.0412 27.2265 46.986 27.1592 46.9089 27.1537C46.8207 27.1493 46.76 27.2056 46.7545 27.2827C46.5616 29.8643 46.2915 32.4761 45.9663 35.0455C45.9552 35.1221 46.0103 35.1926 46.082 35.202ZM49.296 35.3086L49.285 35.308C49.2078 35.3042 49.1472 35.2386 49.1527 35.1609L49.6102 26.4422C49.6102 26.3651 49.6819 26.2989 49.7536 26.3094C49.8308 26.3133 49.8914 26.3794 49.8858 26.4566L49.4338 35.1752C49.4283 35.2502 49.3677 35.3086 49.296 35.3086ZM51.8811 35.9051L51.8921 35.9062C51.9638 35.9062 52.0244 35.8506 52.0299 35.7773L52.9174 25.1816C52.9229 25.1039 52.8623 25.0361 52.7851 25.03C52.7135 25.0284 52.6418 25.0808 52.6363 25.1579L51.7543 35.7541C51.7488 35.8313 51.8039 35.8991 51.8811 35.9051ZM53.0554 20.7969H53.0444C52.9672 20.793 52.9121 20.7269 52.9121 20.6497L53.0885 17.2148C53.094 17.1404 53.1547 17.0825 53.2263 17.0825H53.2373C53.3145 17.0864 53.3696 17.1525 53.3696 17.2297L53.1932 20.6635C53.1877 20.7384 53.1271 20.7969 53.0554 20.7969ZM57.2898 46.8633H57.2843C57.2071 46.8611 57.1465 46.7966 57.1465 46.7194C57.356 38.831 57.6978 30.8422 58.1608 22.9753C58.1663 22.8976 58.2324 22.8358 58.3096 22.843C58.3868 22.848 58.4474 22.9141 58.4419 22.9913C57.9734 30.856 57.6371 38.8415 57.4276 46.7271C57.4276 46.8026 57.3615 46.8633 57.2898 46.8633ZM59.8253 45.6992H59.8309C59.9025 45.6992 59.9687 45.6397 59.9687 45.5642C60.2608 37.6366 60.5034 29.6087 60.6853 21.7026C60.6853 21.6249 60.6247 21.561 60.5475 21.5593C60.4648 21.5648 60.4041 21.6194 60.4041 21.696C60.2222 29.601 59.9852 37.6278 59.6875 45.5537C59.6875 45.6314 59.7481 45.6959 59.8253 45.6992ZM62.3999 44.7109H62.3944C62.3172 44.7082 62.2566 44.6437 62.2621 44.5665L62.9677 20.7959C62.9677 20.7188 63.0283 20.6609 63.111 20.6598C63.1882 20.6625 63.2488 20.727 63.2433 20.8042L62.5377 44.5748C62.5377 44.6509 62.4771 44.7109 62.3999 44.7109ZM67.1339 41.8438C67.0567 41.8415 66.9961 41.7776 66.9961 41.6999C67.1449 35.834 67.6245 29.9124 68.4238 24.1006C68.4348 24.024 68.5065 23.9716 68.5837 23.981C68.6609 23.9909 68.716 24.062 68.705 24.1386C67.9057 29.94 67.426 35.8516 67.2772 41.707C67.2717 41.7831 67.2111 41.8438 67.1339 41.8438ZM69.4608 40.6602H69.4663C69.5435 40.6602 69.6041 40.6017 69.6041 40.5268C69.7915 36.7683 70.1278 32.9685 70.6074 29.2338C70.6184 29.1572 70.5633 29.0866 70.4861 29.0772C70.4089 29.0646 70.3372 29.1213 70.3262 29.1985C69.8466 32.9404 69.5104 36.7479 69.3285 40.513C69.323 40.5907 69.3836 40.6557 69.4608 40.6602ZM72.0894 39.7812L72.0784 39.7807C72.0012 39.7752 71.946 39.7079 71.9516 39.6308C72.0894 37.7824 72.2878 35.9142 72.5414 34.0791C72.5524 34.003 72.6296 33.9512 72.7013 33.96C72.7785 33.9711 72.8281 34.0416 72.817 34.1182C72.5635 35.9473 72.365 37.8094 72.2272 39.6517C72.2217 39.725 72.161 39.7812 72.0894 39.7812ZM11.3103 57.9429C12.3447 58.3478 13.4081 58.6941 14.4858 58.9773C10.7945 55.5246 8.63209 50.574 8.65249 45.4995C8.65249 45.2686 8.83994 45.0811 9.07147 45.0811C9.303 45.0822 9.4904 45.2713 9.4904 45.5028C9.46982 50.3895 11.5717 55.1551 15.1551 58.4531C15.0185 57.4556 14.7824 56.4732 14.4525 55.5198C14.3808 55.2997 14.4966 55.0616 14.7171 54.9862C14.9376 54.911 15.1746 55.0263 15.2463 55.2463C15.7094 56.5797 15.99 57.9673 16.0925 59.3737C16.1012 59.4133 16.104 59.454 16.1009 59.4945C16.1048 59.5544 16.1084 59.6144 16.1117 59.6744C16.1227 59.8045 16.0676 59.9314 15.9684 60.0164C15.8912 60.0819 15.792 60.1172 15.6928 60.1172L15.6046 60.1073C14.0446 59.7727 12.4955 59.3079 11.0017 58.7259C10.7867 58.6415 10.6819 58.3973 10.7646 58.1817C10.8528 57.9662 11.0953 57.8602 11.3103 57.9429ZM57.8683 68.0795C57.9399 68.2356 58.0943 68.3281 58.2542 68.3281C58.3093 68.3281 58.3699 68.3159 58.4251 68.2922C63.2968 66.1196 67.1208 61.7123 68.6487 56.6083C68.8104 57.3539 68.8915 58.1148 68.8874 58.8835C68.8874 59.1156 69.0748 59.304 69.3063 59.3047C69.5378 59.3047 69.7253 59.1167 69.7308 58.8852C69.7308 57.5661 69.5103 56.2661 69.0693 55.0226C69.0197 54.8908 68.9094 54.7904 68.7771 54.7562C68.6393 54.7215 68.496 54.7575 68.3912 54.8505C67.4982 55.6526 66.517 56.366 65.4806 56.97C65.2767 57.087 65.2105 57.3445 65.3263 57.5445C65.4476 57.7452 65.7011 57.8131 65.8996 57.6961C66.5697 57.3067 67.2157 56.8736 67.8329 56.4026C66.3702 61.2621 62.7199 65.4555 58.0833 67.525C57.8683 67.6197 57.7746 67.8678 57.8683 68.0795Z" fill="#103B63"/>
</svg>
