<svg width="40" height="40" viewBox="0 0 40 40" fill="none" xmlns="http://www.w3.org/2000/svg">
<path d="M0.236328 7.67188H37.2657V4.28947H0.236328V7.67188Z" fill="#FEECB3"/>
<path fill-rule="evenodd" clip-rule="evenodd" d="M25.8864 6.2178C25.7565 6.2178 25.651 6.11231 25.651 5.98249V4.52509H11.8459V5.98249C11.8459 6.11231 11.7432 6.2178 11.6106 6.2178C11.4808 6.2178 11.3753 6.11231 11.3753 5.98249V4.52509H0.470594V7.43665H37.0294V4.52509H26.1217V5.98249C26.1217 6.11231 26.0189 6.2178 25.8864 6.2178ZM11.3753 4.05448H0.23531C0.105487 4.05448 0 4.15996 0 4.28978V6.21303V7.67195V31.0144C0 31.1442 0.105487 31.2497 0.23531 31.2497H21.507C21.5704 31.095 21.6276 30.938 21.6784 30.7791H0.470594V7.90725H37.0294V21.9111C37.2003 22.1636 37.3575 22.426 37.5 22.6974V7.67195V6.21303V4.28978C37.5 4.15996 37.3945 4.05448 37.2647 4.05448H26.1217V2.91109C26.1217 2.78127 26.0189 2.67578 25.8864 2.67578C25.7565 2.67578 25.651 2.78127 25.651 2.91109V4.05448H11.8459V2.91109C11.8459 2.78127 11.7432 2.67578 11.6106 2.67578C11.4808 2.67578 11.3753 2.78127 11.3753 2.91109V4.05448ZM20.4634 24.2628H22.2896C22.2456 24.4178 22.206 24.5748 22.171 24.7334H20.7014V27.4002H21.9785V27.8708H20.4634C20.3336 27.8708 20.2308 27.7653 20.2308 27.6355V24.4981C20.2308 24.3683 20.3336 24.2628 20.4634 24.2628ZM25.4075 18.1993V19.8306C25.2462 19.9467 25.0892 20.0685 24.9369 20.1957V18.4346H20.7014V21.1014H24.0102C23.8772 21.2534 23.7497 21.4104 23.628 21.572H20.4661C20.3336 21.572 20.2308 21.4667 20.2308 21.3367V18.1993C20.2308 18.0694 20.3336 17.964 20.4661 17.964H25.1722C25.302 17.964 25.4075 18.0694 25.4075 18.1993ZM20.974 26.9364C21.3078 26.465 21.6622 26.0033 22.033 25.5572C22.0223 25.6499 22.0132 25.743 22.0056 25.8366C21.691 26.2236 21.3897 26.6217 21.1038 27.027C21.0875 27.0486 21.0632 27.0602 21.0388 27.0602L20.9929 27.0456C20.9577 27.0208 20.9496 26.9718 20.974 26.9364ZM4.427 14.0734H8.66248V11.4066H4.427V14.0734ZM8.89779 14.544H4.19169C4.06187 14.544 3.95638 14.4385 3.95638 14.3087V11.1713C3.95638 11.0412 4.06187 10.936 4.19169 10.936H8.89779C9.02761 10.936 9.13309 11.0412 9.13309 11.1713V14.3087C9.13309 14.4385 9.02761 14.544 8.89779 14.544ZM12.5634 14.0734H16.7989V11.4066H12.5634V14.0734ZM17.0342 14.544H12.3281C12.1983 14.544 12.0928 14.4385 12.0928 14.3087V11.1713C12.0928 11.0412 12.1983 10.936 12.3281 10.936H17.0342C17.164 10.936 17.2695 11.0412 17.2695 11.1713V14.3087C17.2695 14.4385 17.164 14.544 17.0342 14.544ZM24.9369 14.0734H20.7014V11.4066H24.9369V14.0734ZM20.4661 14.544H25.1722C25.302 14.544 25.4075 14.4385 25.4075 14.3087V11.1713C25.4075 11.0412 25.302 10.936 25.1722 10.936H20.4661C20.3336 10.936 20.2308 11.0412 20.2308 11.1713V14.3087C20.2308 14.4385 20.3336 14.544 20.4661 14.544ZM28.8362 14.0734H33.0717V11.4066H28.8362V14.0734ZM33.307 14.544H28.6009C28.471 14.544 28.3656 14.4385 28.3656 14.3087V11.1713C28.3656 11.0412 28.471 10.936 28.6009 10.936H33.307C33.4368 10.936 33.5423 11.0412 33.5423 11.1713V14.3087C33.5423 14.4385 33.4368 14.544 33.307 14.544ZM8.66248 21.1014H4.427V18.4346H8.66248V21.1014ZM4.19169 21.572H8.89779C9.02761 21.572 9.13309 21.4667 9.13309 21.3367V18.1993C9.13309 18.0694 9.02761 17.964 8.89779 17.964H4.19169C4.06187 17.964 3.95638 18.0694 3.95638 18.1993V21.3367C3.95638 21.4667 4.06187 21.572 4.19169 21.572ZM12.5634 21.1014H16.7989V18.4346H12.5634V21.1014ZM17.0342 21.572H12.3281C12.1983 21.572 12.0928 21.4667 12.0928 21.3367V18.1993C12.0928 18.0694 12.1983 17.964 12.3281 17.964H17.0342C17.164 17.964 17.2695 18.0694 17.2695 18.1993V21.3367C17.2695 21.4667 17.164 21.572 17.0342 21.572ZM4.427 27.4002H8.66248V24.7334H4.427V27.4002ZM8.89779 27.8708H4.19169C4.06187 27.8708 3.95638 27.7653 3.95638 27.6355V24.4981C3.95638 24.3683 4.06187 24.2628 4.19169 24.2628H8.89779C9.02761 24.2628 9.13309 24.3683 9.13309 24.4981V27.6355C9.13309 27.7653 9.02761 27.8708 8.89779 27.8708ZM16.7989 27.4002H12.5634V24.7334H16.7989V27.4002ZM12.3281 27.8708H17.0342C17.164 27.8708 17.2695 27.7653 17.2695 27.6355V24.4981C17.2695 24.3683 17.164 24.2628 17.0342 24.2628H12.3281C12.1983 24.2628 12.0928 24.3683 12.0928 24.4981V27.6355C12.0928 27.7653 12.1983 27.8708 12.3281 27.8708ZM12.7815 12.3611L12.8356 12.3825L12.8924 12.3579C13.1196 12.1153 13.363 11.8786 13.6092 11.6547C13.6416 11.6255 13.6443 11.576 13.6145 11.5438C13.5875 11.5116 13.5361 11.5092 13.5037 11.5381C13.2548 11.7653 13.0087 12.0049 12.7788 12.2503C12.7491 12.2819 12.7491 12.3317 12.7815 12.3611ZM16.0488 13.7823L15.992 13.7593C15.9623 13.7287 15.9623 13.6792 15.992 13.6484L16.5032 13.1345C16.5357 13.1037 16.5844 13.1039 16.6141 13.1345C16.6466 13.1648 16.6466 13.2145 16.6141 13.2451L16.1029 13.759L16.0488 13.7823ZM4.68238 19.1851L4.73648 19.2054L4.79329 19.1797C4.92041 19.0407 5.05292 18.9039 5.19085 18.7721C5.2206 18.7421 5.22331 18.6924 5.19085 18.6613C5.1611 18.6299 5.11243 18.6288 5.07997 18.6588C4.94204 18.793 4.80409 18.9328 4.67697 19.0743C4.64722 19.1064 4.64993 19.1562 4.68238 19.1851ZM4.7521 20.3382L4.70071 20.3193C4.66825 20.2912 4.66555 20.2417 4.6926 20.2087C5.15509 19.6697 5.64192 19.1393 6.14228 18.6324C6.17203 18.6013 6.22073 18.6013 6.25319 18.6313C6.28294 18.6619 6.28294 18.7114 6.25319 18.7422C5.75823 19.2466 5.27138 19.7743 4.81159 20.3109L4.7521 20.3382ZM5.50959 20.8974L5.55827 20.9144L5.62047 20.8849C6.20467 20.1528 6.82404 19.4344 7.45963 18.7504C7.48938 18.7188 7.48669 18.669 7.45694 18.6395C7.42448 18.6103 7.37578 18.6119 7.34603 18.6439C6.70773 19.3306 6.08567 20.0516 5.49876 20.787C5.47171 20.8208 5.47713 20.8701 5.50959 20.8974ZM6.77678 20.8786L6.72541 20.8602C6.69295 20.8324 6.68753 20.7831 6.71458 20.7499C7.19871 20.1746 7.68825 19.5966 8.17509 19.0313C8.20214 18.9989 8.25352 18.9948 8.28597 19.0232C8.31843 19.0513 8.32115 19.1008 8.29411 19.1336C7.80727 19.6983 7.31772 20.276 6.83629 20.8508L6.77678 20.8786ZM7.91531 20.8748L7.95858 20.8884C7.98562 20.8884 8.00998 20.8765 8.0235 20.854C8.12898 20.699 8.24527 20.5479 8.36427 20.4045C8.39132 20.3712 8.3859 20.3217 8.35345 20.2939C8.32099 20.2663 8.26961 20.2706 8.24257 20.3039C8.12086 20.4513 8.00184 20.6065 7.89366 20.7659C7.86931 20.8016 7.88015 20.8502 7.91531 20.8748ZM12.895 13.3102L12.8355 13.2832C12.8085 13.2502 12.8112 13.2007 12.8436 13.1723C13.4197 12.676 13.9796 12.1497 14.507 11.6079C14.5394 11.5771 14.5881 11.576 14.6179 11.6066C14.6503 11.6369 14.6503 11.6864 14.6206 11.7175C14.0878 12.2625 13.5252 12.792 12.9464 13.2913L12.895 13.3102ZM13.5829 13.8561L13.6397 13.8799L13.6937 13.8577C14.4375 13.1361 15.2111 12.4251 15.99 11.7449C16.0252 11.7162 16.0279 11.6667 15.9981 11.6342C15.9711 11.6012 15.9197 11.598 15.8872 11.6267C15.1056 12.3088 14.3293 13.0215 13.5856 13.7455C13.5531 13.7755 13.5531 13.8253 13.5829 13.8561ZM14.8073 13.8994L14.7505 13.8754C14.7207 13.844 14.7235 13.7945 14.7532 13.7645C15.2968 13.2438 15.8594 12.7264 16.4247 12.2263C16.4571 12.1977 16.5058 12.2007 16.5356 12.2334C16.5626 12.2658 16.5599 12.3153 16.5275 12.344C15.9649 12.8425 15.4023 13.3585 14.8614 13.8775L14.8073 13.8994ZM20.9499 25.7566L20.9986 25.7744L21.0608 25.7455L21.6207 25.0572C21.6477 25.0236 21.6423 24.9741 21.6098 24.9468C21.5747 24.9198 21.526 24.9246 21.4989 24.9582L20.9391 25.6465C20.9121 25.68 20.9147 25.7293 20.9499 25.7566ZM20.8995 35.6405L22.5092 32.9574C23.2517 31.719 23.6445 30.3015 23.6445 28.8577V26.5074C23.6445 23.5403 25.6245 21.0306 28.3319 20.2215V18.5388C28.3319 17.5047 29.1729 16.6638 30.2069 16.6638C31.241 16.6638 32.0819 17.5047 32.0819 18.5388V20.2215C34.7894 21.0306 36.7694 23.5403 36.7694 26.5074V28.8577C36.7694 30.3015 37.1622 31.7199 37.9057 32.9583L39.5153 35.6415C39.6016 35.7858 39.6044 35.9677 39.5209 36.114C39.4375 36.2602 39.2819 36.3512 39.1131 36.3512H21.3008C21.132 36.3512 20.9773 36.2602 20.8939 36.113C20.8104 35.9659 20.8123 35.7859 20.8995 35.6405ZM39.0581 35.8512L37.477 33.2157L37.4769 33.2156C36.6868 31.8994 36.2694 30.3921 36.2694 28.8577V26.5074C36.2694 23.7682 34.4413 21.4484 31.9388 20.7006L31.5819 20.594V20.2215V18.5388C31.5819 17.7808 30.9649 17.1638 30.2069 17.1638C29.449 17.1638 28.8319 17.7808 28.8319 18.5388V20.2215V20.594L28.4751 20.7006C25.9726 21.4484 24.1445 23.7682 24.1445 26.5074V28.8577C24.1445 30.3922 23.727 31.8985 22.938 33.2145L22.9379 33.2146L21.3562 35.8512H39.0581ZM30.2073 38.6638C29.4158 38.6638 28.7022 38.3276 28.1962 37.7888H32.2185C31.7126 38.3276 30.9989 38.6638 30.2073 38.6638ZM27.2552 37.2888C27.3393 37.4645 27.4384 37.6317 27.5508 37.7888C28.1448 38.6188 29.1108 39.1638 30.2073 39.1638C31.3039 39.1638 32.2699 38.6188 32.8639 37.7888C32.9763 37.6317 33.0754 37.4645 33.1595 37.2888H32.5935H27.8213H27.2552Z" fill="#103B63"/>
</svg>
