<svg width="636" height="424" viewBox="0 0 636 424" fill="none" xmlns="http://www.w3.org/2000/svg">
<circle cx="22.129" cy="122.129" r="1.12904" fill="#D9D9D9"/>
<circle cx="33.4201" cy="122.129" r="1.12904" fill="#D9D9D9"/>
<circle cx="44.7091" cy="122.129" r="1.12904" fill="#D9D9D9"/>
<circle cx="56.0001" cy="122.129" r="1.12904" fill="#D9D9D9"/>
<circle cx="67.2912" cy="122.129" r="1.12904" fill="#D9D9D9"/>
<circle cx="78.5822" cy="122.129" r="1.12904" fill="#D9D9D9"/>
<circle cx="22.129" cy="133.418" r="1.12904" fill="#D9D9D9"/>
<circle cx="33.4201" cy="133.418" r="1.12904" fill="#D9D9D9"/>
<circle cx="44.7091" cy="133.418" r="1.12904" fill="#D9D9D9"/>
<circle cx="56.0001" cy="133.418" r="1.12904" fill="#1245C7"/>
<circle cx="67.2912" cy="133.418" r="1.12904" fill="#D9D9D9"/>
<circle cx="78.5822" cy="133.418" r="1.12904" fill="#D9D9D9"/>
<circle cx="22.129" cy="144.711" r="1.12904" fill="#D9D9D9"/>
<circle cx="33.4201" cy="144.711" r="1.12904" fill="#D9D9D9"/>
<circle cx="44.7091" cy="144.711" r="1.12904" fill="#D9D9D9"/>
<circle cx="56.0001" cy="144.711" r="1.12904" fill="#D9D9D9"/>
<circle cx="67.2912" cy="144.711" r="1.12904" fill="#D9D9D9"/>
<circle cx="78.5822" cy="144.711" r="1.12904" fill="#D9D9D9"/>
<circle cx="22.129" cy="156" r="1.12904" fill="#D9D9D9"/>
<circle cx="33.4201" cy="156" r="1.12904" fill="#1245C7"/>
<circle cx="44.7091" cy="156" r="1.12904" fill="#D9D9D9"/>
<circle cx="56.0001" cy="156" r="1.12904" fill="#D9D9D9"/>
<circle cx="67.2912" cy="156" r="1.12904" fill="#D9D9D9"/>
<circle cx="78.5822" cy="156" r="1.12904" fill="#D9D9D9"/>
<circle cx="22.129" cy="167.289" r="1.12904" fill="#D9D9D9"/>
<circle cx="33.4201" cy="167.289" r="1.12904" fill="#D9D9D9"/>
<circle cx="44.7091" cy="167.289" r="1.12904" fill="#D9D9D9"/>
<circle cx="56.0001" cy="167.289" r="1.12904" fill="#D9D9D9"/>
<circle cx="67.2912" cy="167.289" r="1.12904" fill="#D9D9D9"/>
<circle cx="78.5822" cy="167.289" r="1.12904" fill="#D9D9D9"/>
<circle cx="22.129" cy="178.582" r="1.12904" fill="#D9D9D9"/>
<circle cx="33.4201" cy="178.582" r="1.12904" fill="#D9D9D9"/>
<circle cx="44.7091" cy="178.582" r="1.12904" fill="#D9D9D9"/>
<circle cx="56.0001" cy="178.582" r="1.12904" fill="#D9D9D9"/>
<circle cx="67.2912" cy="178.582" r="1.12904" fill="#1245C7"/>
<circle cx="78.5822" cy="178.582" r="1.12904" fill="#D9D9D9"/>
<circle cx="578.129" cy="66.129" r="1.12904" fill="#D9D9D9"/>
<circle cx="589.42" cy="66.129" r="1.12904" fill="#D9D9D9"/>
<circle cx="600.709" cy="66.129" r="1.12904" fill="#D9D9D9"/>
<circle cx="612" cy="66.129" r="1.12904" fill="#D9D9D9"/>
<circle cx="623.291" cy="66.129" r="1.12904" fill="#D9D9D9"/>
<circle cx="634.582" cy="66.129" r="1.12904" fill="#D9D9D9"/>
<circle cx="578.129" cy="77.4181" r="1.12904" fill="#D9D9D9"/>
<circle cx="589.42" cy="77.4181" r="1.12904" fill="#D9D9D9"/>
<circle cx="600.709" cy="77.4181" r="1.12904" fill="#D9D9D9"/>
<circle cx="612" cy="77.4181" r="1.12904" fill="#1245C7"/>
<circle cx="623.291" cy="77.4181" r="1.12904" fill="#D9D9D9"/>
<circle cx="634.582" cy="77.4181" r="1.12904" fill="#D9D9D9"/>
<circle cx="578.129" cy="88.7111" r="1.12904" fill="#D9D9D9"/>
<circle cx="589.42" cy="88.7111" r="1.12904" fill="#D9D9D9"/>
<circle cx="600.709" cy="88.7111" r="1.12904" fill="#D9D9D9"/>
<circle cx="612" cy="88.7111" r="1.12904" fill="#D9D9D9"/>
<circle cx="623.291" cy="88.7111" r="1.12904" fill="#D9D9D9"/>
<circle cx="634.582" cy="88.7111" r="1.12904" fill="#D9D9D9"/>
<circle cx="578.129" cy="100" r="1.12904" fill="#D9D9D9"/>
<circle cx="589.42" cy="100" r="1.12904" fill="#1245C7"/>
<circle cx="600.709" cy="100" r="1.12904" fill="#D9D9D9"/>
<circle cx="612" cy="100" r="1.12904" fill="#D9D9D9"/>
<circle cx="623.291" cy="100" r="1.12904" fill="#D9D9D9"/>
<circle cx="634.582" cy="100" r="1.12904" fill="#D9D9D9"/>
<circle cx="578.129" cy="111.289" r="1.12904" fill="#D9D9D9"/>
<circle cx="589.42" cy="111.289" r="1.12904" fill="#D9D9D9"/>
<circle cx="600.709" cy="111.289" r="1.12904" fill="#D9D9D9"/>
<circle cx="612" cy="111.289" r="1.12904" fill="#D9D9D9"/>
<circle cx="623.291" cy="111.289" r="1.12904" fill="#D9D9D9"/>
<circle cx="634.582" cy="111.289" r="1.12904" fill="#D9D9D9"/>
<circle cx="578.129" cy="122.582" r="1.12904" fill="#D9D9D9"/>
<circle cx="589.42" cy="122.582" r="1.12904" fill="#D9D9D9"/>
<circle cx="600.709" cy="122.582" r="1.12904" fill="#D9D9D9"/>
<circle cx="612" cy="122.582" r="1.12904" fill="#D9D9D9"/>
<circle cx="623.291" cy="122.582" r="1.12904" fill="#1245C7"/>
<circle cx="634.582" cy="122.582" r="1.12904" fill="#D9D9D9"/>
<circle cx="357.711" cy="112.147" r="0.713453" fill="#D9D9D9"/>
<circle cx="364.846" cy="112.147" r="0.713453" fill="#D9D9D9"/>
<circle cx="371.981" cy="112.147" r="0.713453" fill="#D9D9D9"/>
<circle cx="379.116" cy="112.147" r="0.713453" fill="#D9D9D9"/>
<circle cx="386.251" cy="112.147" r="0.713453" fill="#D9D9D9"/>
<circle cx="393.383" cy="112.147" r="0.713453" fill="#D9D9D9"/>
<circle cx="357.711" cy="119.28" r="0.713453" fill="#D9D9D9"/>
<circle cx="364.846" cy="119.28" r="0.713453" fill="#D9D9D9"/>
<circle cx="371.981" cy="119.28" r="0.713453" fill="#D9D9D9"/>
<circle cx="379.116" cy="119.28" r="0.713453" fill="#1245C7"/>
<circle cx="386.251" cy="119.28" r="0.713453" fill="#D9D9D9"/>
<circle cx="393.383" cy="119.28" r="0.713453" fill="#D9D9D9"/>
<circle cx="357.711" cy="126.417" r="0.713453" fill="#D9D9D9"/>
<circle cx="364.846" cy="126.417" r="0.713453" fill="#D9D9D9"/>
<circle cx="371.981" cy="126.417" r="0.713453" fill="#D9D9D9"/>
<circle cx="379.116" cy="126.417" r="0.713453" fill="#D9D9D9"/>
<circle cx="386.251" cy="126.417" r="0.713453" fill="#D9D9D9"/>
<circle cx="393.383" cy="126.417" r="0.713453" fill="#D9D9D9"/>
<circle cx="357.711" cy="133.549" r="0.713453" fill="#D9D9D9"/>
<circle cx="364.846" cy="133.549" r="0.713453" fill="#1245C7"/>
<circle cx="371.981" cy="133.549" r="0.713453" fill="#D9D9D9"/>
<circle cx="379.116" cy="133.549" r="0.713453" fill="#D9D9D9"/>
<circle cx="386.251" cy="133.549" r="0.713453" fill="#D9D9D9"/>
<circle cx="393.383" cy="133.549" r="0.713453" fill="#D9D9D9"/>
<circle cx="357.711" cy="140.686" r="0.713453" fill="#D9D9D9"/>
<circle cx="364.846" cy="140.686" r="0.713453" fill="#D9D9D9"/>
<circle cx="371.981" cy="140.686" r="0.713453" fill="#D9D9D9"/>
<circle cx="379.116" cy="140.686" r="0.713453" fill="#D9D9D9"/>
<circle cx="386.251" cy="140.686" r="0.713453" fill="#D9D9D9"/>
<circle cx="393.383" cy="140.686" r="0.713453" fill="#D9D9D9"/>
<circle cx="357.711" cy="147.819" r="0.713453" fill="#D9D9D9"/>
<circle cx="364.846" cy="147.819" r="0.713453" fill="#D9D9D9"/>
<circle cx="371.981" cy="147.819" r="0.713453" fill="#D9D9D9"/>
<circle cx="379.116" cy="147.819" r="0.713453" fill="#D9D9D9"/>
<circle cx="386.251" cy="147.819" r="0.713453" fill="#1245C7"/>
<circle cx="393.383" cy="147.819" r="0.713453" fill="#D9D9D9"/>
<circle cx="353.596" cy="380.86" r="1.12904" transform="rotate(-42.8635 353.596 380.86)" fill="#D9D9D9"/>
<circle cx="361.871" cy="373.181" r="1.12904" transform="rotate(-42.8635 361.871 373.181)" fill="#D9D9D9"/>
<circle cx="370.146" cy="365.501" r="1.12904" transform="rotate(-42.8635 370.146 365.501)" fill="#D9D9D9"/>
<circle cx="378.422" cy="357.817" r="1.12904" transform="rotate(-42.8635 378.422 357.817)" fill="#D9D9D9"/>
<circle cx="386.697" cy="350.138" r="1.12904" transform="rotate(-42.8635 386.697 350.138)" fill="#D9D9D9"/>
<circle cx="394.975" cy="342.458" r="1.12904" transform="rotate(-42.8635 394.975 342.458)" fill="#D9D9D9"/>
<circle cx="361.275" cy="389.138" r="1.12904" transform="rotate(-42.8635 361.275 389.138)" fill="#D9D9D9"/>
<circle cx="369.551" cy="381.458" r="1.12904" transform="rotate(-42.8635 369.551 381.458)" fill="#D9D9D9"/>
<circle cx="377.826" cy="373.778" r="1.12904" transform="rotate(-42.8635 377.826 373.778)" fill="#D9D9D9"/>
<circle cx="386.101" cy="366.095" r="1.12904" transform="rotate(-42.8635 386.101 366.095)" fill="#1245C7"/>
<circle cx="394.377" cy="358.415" r="1.12904" transform="rotate(-42.8635 394.377 358.415)" fill="#D9D9D9"/>
<circle cx="402.654" cy="350.735" r="1.12904" transform="rotate(-42.8635 402.654 350.735)" fill="#D9D9D9"/>
<circle cx="368.957" cy="397.411" r="1.12904" transform="rotate(-42.8635 368.957 397.411)" fill="#D9D9D9"/>
<circle cx="377.232" cy="389.731" r="1.12904" transform="rotate(-42.8635 377.232 389.731)" fill="#D9D9D9"/>
<circle cx="385.508" cy="382.052" r="1.12904" transform="rotate(-42.8635 385.508 382.052)" fill="#D9D9D9"/>
<circle cx="393.783" cy="374.368" r="1.12904" transform="rotate(-42.8635 393.783 374.368)" fill="#D9D9D9"/>
<circle cx="402.059" cy="366.688" r="1.12904" transform="rotate(-42.8635 402.059 366.688)" fill="#D9D9D9"/>
<circle cx="410.336" cy="359.009" r="1.12904" transform="rotate(-42.8635 410.336 359.009)" fill="#D9D9D9"/>
<circle cx="376.637" cy="405.688" r="1.12904" transform="rotate(-42.8635 376.637 405.688)" fill="#D9D9D9"/>
<circle cx="384.912" cy="398.009" r="1.12904" transform="rotate(-42.8635 384.912 398.009)" fill="#1245C7"/>
<circle cx="393.187" cy="390.329" r="1.12904" transform="rotate(-42.8635 393.187 390.329)" fill="#D9D9D9"/>
<circle cx="401.463" cy="382.645" r="1.12904" transform="rotate(-42.8635 401.463 382.645)" fill="#D9D9D9"/>
<circle cx="409.738" cy="374.966" r="1.12904" transform="rotate(-42.8635 409.738 374.966)" fill="#D9D9D9"/>
<circle cx="418.016" cy="367.286" r="1.12904" transform="rotate(-42.8635 418.016 367.286)" fill="#D9D9D9"/>
<circle cx="384.316" cy="413.962" r="1.12904" transform="rotate(-42.8635 384.316 413.962)" fill="#D9D9D9"/>
<circle cx="392.592" cy="406.282" r="1.12904" transform="rotate(-42.8635 392.592 406.282)" fill="#D9D9D9"/>
<circle cx="400.867" cy="398.603" r="1.12904" transform="rotate(-42.8635 400.867 398.603)" fill="#D9D9D9"/>
<circle cx="409.142" cy="390.919" r="1.12904" transform="rotate(-42.8635 409.142 390.919)" fill="#D9D9D9"/>
<circle cx="417.418" cy="383.239" r="1.12904" transform="rotate(-42.8635 417.418 383.239)" fill="#D9D9D9"/>
<circle cx="425.695" cy="375.56" r="1.12904" transform="rotate(-42.8635 425.695 375.56)" fill="#D9D9D9"/>
<circle cx="391.998" cy="422.239" r="1.12904" transform="rotate(-42.8635 391.998 422.239)" fill="#D9D9D9"/>
<circle cx="400.273" cy="414.56" r="1.12904" transform="rotate(-42.8635 400.273 414.56)" fill="#D9D9D9"/>
<circle cx="408.549" cy="406.88" r="1.12904" transform="rotate(-42.8635 408.549 406.88)" fill="#D9D9D9"/>
<circle cx="416.824" cy="399.196" r="1.12904" transform="rotate(-42.8635 416.824 399.196)" fill="#D9D9D9"/>
<circle cx="425.1" cy="391.517" r="1.12904" transform="rotate(-42.8635 425.1 391.517)" fill="#1245C7"/>
<circle cx="433.377" cy="383.837" r="1.12904" transform="rotate(-42.8635 433.377 383.837)" fill="#D9D9D9"/>
</svg>
