<svg width="636" height="424" viewBox="0 0 636 424" fill="none" xmlns="http://www.w3.org/2000/svg">
<mask id="mask0_1312_10671" style="mask-type:alpha" maskUnits="userSpaceOnUse" x="73" y="178" width="342" height="227">
<path d="M276 178C163.886 178 73 235.292 73 305.965C73 345.883 101.995 381.532 147.433 405H404.567L414.5 212.409C378.23 191.063 329.535 178 276 178Z" fill="#D9D9D9"/>
</mask>
<g mask="url(#mask0_1312_10671)">
<g filter="url(#filter0_d_1312_10671)">
<rect x="278.1" y="243.555" width="22.3073" height="143.603" rx="11.1536" fill="white"/>
</g>
<path d="M283.953 262.707L285.967 258.19L286.204 258.594H283.437L283.869 258.155V259.424H283.025V257.827H286.818V258.434L284.922 262.707H283.953ZM289.278 262.777C288.892 262.777 288.543 262.679 288.232 262.484C287.925 262.289 287.683 262.005 287.507 261.633C287.33 261.257 287.242 260.802 287.242 260.267C287.242 259.733 287.33 259.28 287.507 258.908C287.683 258.531 287.925 258.246 288.232 258.05C288.543 257.855 288.892 257.758 289.278 257.758C289.668 257.758 290.016 257.855 290.323 258.05C290.63 258.246 290.872 258.531 291.048 258.908C291.229 259.28 291.32 259.733 291.32 260.267C291.32 260.802 291.229 261.257 291.048 261.633C290.872 262.005 290.63 262.289 290.323 262.484C290.016 262.679 289.668 262.777 289.278 262.777ZM289.278 261.989C289.505 261.989 289.703 261.929 289.87 261.808C290.037 261.682 290.167 261.492 290.26 261.236C290.358 260.981 290.407 260.658 290.407 260.267C290.407 259.872 290.358 259.549 290.26 259.298C290.167 259.043 290.037 258.854 289.87 258.734C289.703 258.608 289.505 258.545 289.278 258.545C289.059 258.545 288.864 258.608 288.692 258.734C288.525 258.854 288.392 259.043 288.295 259.298C288.202 259.549 288.155 259.872 288.155 260.267C288.155 260.658 288.202 260.981 288.295 261.236C288.392 261.492 288.525 261.682 288.692 261.808C288.864 261.929 289.059 261.989 289.278 261.989ZM291.863 262.707V262.101L293.801 260.26C293.963 260.107 294.084 259.972 294.163 259.856C294.242 259.74 294.293 259.633 294.317 259.535C294.345 259.433 294.359 259.338 294.359 259.249C294.359 259.026 294.282 258.854 294.128 258.734C293.975 258.608 293.75 258.545 293.452 258.545C293.215 258.545 292.999 258.587 292.804 258.671C292.613 258.754 292.448 258.882 292.309 259.054L291.675 258.566C291.865 258.311 292.121 258.113 292.441 257.974C292.767 257.83 293.129 257.758 293.529 257.758C293.882 257.758 294.189 257.816 294.449 257.932C294.714 258.043 294.916 258.204 295.056 258.413C295.2 258.622 295.272 258.871 295.272 259.159C295.272 259.317 295.251 259.475 295.209 259.633C295.167 259.786 295.088 259.949 294.972 260.121C294.856 260.293 294.686 260.486 294.463 260.699L292.797 262.282L292.609 261.94H295.46V262.707H291.863Z" fill="#82878E"/>
<rect x="286.463" y="309.078" width="5.57682" height="66.9218" rx="2.78841" fill="#FABF00"/>
<rect x="286.463" y="309.078" width="5.57682" height="66.9218" rx="2.78841" fill="white" fill-opacity="0.8"/>
<rect x="286.463" y="350.211" width="5.57682" height="25.7928" rx="2.78841" fill="#FABF00"/>
<g filter="url(#filter1_d_1312_10671)">
<rect x="255.098" y="243.555" width="22.3073" height="143.603" rx="11.1536" fill="white"/>
</g>
<path d="M259.207 262.707V258.176L259.604 258.587H258.175V257.827H260.113V262.707H259.207ZM263.117 262.777C262.731 262.777 262.383 262.679 262.071 262.484C261.764 262.289 261.523 262.005 261.346 261.633C261.17 261.257 261.081 260.802 261.081 260.267C261.081 259.733 261.17 259.28 261.346 258.908C261.523 258.531 261.764 258.246 262.071 258.05C262.383 257.855 262.731 257.758 263.117 257.758C263.507 257.758 263.856 257.855 264.162 258.05C264.469 258.246 264.711 258.531 264.887 258.908C265.069 259.28 265.159 259.733 265.159 260.267C265.159 260.802 265.069 261.257 264.887 261.633C264.711 262.005 264.469 262.289 264.162 262.484C263.856 262.679 263.507 262.777 263.117 262.777ZM263.117 261.989C263.345 261.989 263.542 261.929 263.709 261.808C263.877 261.682 264.007 261.492 264.1 261.236C264.197 260.981 264.246 260.658 264.246 260.267C264.246 259.872 264.197 259.549 264.1 259.298C264.007 259.043 263.877 258.854 263.709 258.734C263.542 258.608 263.345 258.545 263.117 258.545C262.898 258.545 262.703 258.608 262.531 258.734C262.364 258.854 262.231 259.043 262.134 259.298C262.041 259.549 261.994 259.872 261.994 260.267C261.994 260.658 262.041 260.981 262.134 261.236C262.231 261.492 262.364 261.682 262.531 261.808C262.703 261.929 262.898 261.989 263.117 261.989ZM267.731 262.777C267.326 262.777 266.975 262.716 266.678 262.595C266.381 262.475 266.15 262.305 265.988 262.087C265.825 261.864 265.744 261.603 265.744 261.306C265.744 261.008 265.823 260.757 265.981 260.553C266.139 260.349 266.367 260.193 266.664 260.086C266.961 259.979 267.317 259.926 267.731 259.926C268.144 259.926 268.5 259.979 268.797 260.086C269.099 260.193 269.329 260.351 269.487 260.56C269.65 260.764 269.731 261.013 269.731 261.306C269.731 261.603 269.648 261.864 269.48 262.087C269.318 262.305 269.085 262.475 268.783 262.595C268.486 262.716 268.135 262.777 267.731 262.777ZM267.731 262.066C268.065 262.066 268.33 261.996 268.525 261.857C268.72 261.717 268.818 261.524 268.818 261.278C268.818 261.036 268.72 260.846 268.525 260.706C268.33 260.567 268.065 260.497 267.731 260.497C267.396 260.497 267.133 260.567 266.943 260.706C266.752 260.846 266.657 261.036 266.657 261.278C266.657 261.524 266.752 261.717 266.943 261.857C267.133 261.996 267.396 262.066 267.731 262.066ZM267.731 260.4C267.354 260.4 267.031 260.351 266.762 260.253C266.492 260.151 266.283 260.005 266.134 259.814C265.99 259.619 265.918 259.386 265.918 259.117C265.918 258.838 265.992 258.599 266.141 258.399C266.295 258.194 266.508 258.036 266.783 257.925C267.057 257.813 267.373 257.758 267.731 257.758C268.093 257.758 268.411 257.813 268.686 257.925C268.96 258.036 269.174 258.194 269.327 258.399C269.48 258.599 269.557 258.838 269.557 259.117C269.557 259.386 269.483 259.619 269.334 259.814C269.19 260.005 268.981 260.151 268.707 260.253C268.432 260.351 268.107 260.4 267.731 260.4ZM267.731 259.842C268.019 259.842 268.246 259.782 268.414 259.661C268.581 259.535 268.665 259.368 268.665 259.159C268.665 258.94 268.579 258.771 268.407 258.65C268.235 258.529 268.009 258.469 267.731 258.469C267.452 258.469 267.229 258.529 267.061 258.65C266.894 258.771 266.81 258.94 266.81 259.159C266.81 259.368 266.892 259.535 267.054 259.661C267.222 259.782 267.447 259.842 267.731 259.842ZM271.964 257.758C272.411 257.758 272.789 257.853 273.101 258.043C273.417 258.229 273.658 258.501 273.826 258.859C273.993 259.217 274.077 259.658 274.077 260.184C274.077 260.741 273.974 261.213 273.77 261.599C273.57 261.984 273.291 262.277 272.933 262.477C272.576 262.677 272.16 262.777 271.686 262.777C271.439 262.777 271.205 262.751 270.981 262.7C270.758 262.649 270.566 262.57 270.403 262.463L270.738 261.78C270.872 261.868 271.019 261.931 271.177 261.968C271.335 262.001 271.497 262.017 271.665 262.017C272.125 262.017 272.49 261.875 272.759 261.592C273.029 261.308 273.163 260.89 273.163 260.337C273.163 260.249 273.161 260.146 273.156 260.03C273.152 259.909 273.136 259.788 273.108 259.668L273.386 259.974C273.307 260.165 273.194 260.325 273.045 260.455C272.896 260.581 272.722 260.676 272.522 260.741C272.322 260.806 272.102 260.839 271.86 260.839C271.544 260.839 271.258 260.778 271.002 260.658C270.751 260.532 270.552 260.358 270.403 260.135C270.254 259.907 270.18 259.642 270.18 259.34C270.18 259.015 270.259 258.736 270.417 258.504C270.575 258.266 270.789 258.083 271.058 257.953C271.332 257.823 271.634 257.758 271.964 257.758ZM272.013 258.469C271.827 258.469 271.662 258.504 271.518 258.573C271.374 258.638 271.26 258.734 271.177 258.859C271.098 258.98 271.058 259.126 271.058 259.298C271.058 259.554 271.146 259.756 271.323 259.905C271.5 260.053 271.737 260.128 272.034 260.128C272.229 260.128 272.401 260.093 272.55 260.023C272.699 259.949 272.815 259.849 272.899 259.723C272.982 259.593 273.024 259.449 273.024 259.291C273.024 259.138 272.984 259.001 272.905 258.88C272.826 258.754 272.713 258.655 272.564 258.58C272.415 258.506 272.232 258.469 272.013 258.469Z" fill="#82878E"/>
<rect x="263.461" y="274.227" width="5.57682" height="101.777" rx="2.78841" fill="#FABF00"/>
<rect x="263.461" y="274.227" width="5.57682" height="101.777" rx="2.78841" fill="white" fill-opacity="0.8"/>
<rect x="263.461" y="358.574" width="5.57682" height="17.4276" rx="2.78841" fill="#FABF00"/>
<g filter="url(#filter2_d_1312_10671)">
<rect x="232.094" y="243.555" width="22.3073" height="143.603" rx="11.1536" fill="white"/>
</g>
<path d="M239.726 262.777C239.322 262.777 238.971 262.716 238.674 262.595C238.376 262.475 238.146 262.305 237.984 262.087C237.821 261.864 237.74 261.603 237.74 261.306C237.74 261.008 237.819 260.757 237.977 260.553C238.135 260.349 238.362 260.193 238.66 260.086C238.957 259.979 239.313 259.926 239.726 259.926C240.14 259.926 240.496 259.979 240.793 260.086C241.095 260.193 241.325 260.351 241.483 260.56C241.646 260.764 241.727 261.013 241.727 261.306C241.727 261.603 241.644 261.864 241.476 262.087C241.314 262.305 241.081 262.475 240.779 262.595C240.482 262.716 240.131 262.777 239.726 262.777ZM239.726 262.066C240.061 262.066 240.326 261.996 240.521 261.857C240.716 261.717 240.814 261.524 240.814 261.278C240.814 261.036 240.716 260.846 240.521 260.706C240.326 260.567 240.061 260.497 239.726 260.497C239.392 260.497 239.129 260.567 238.939 260.706C238.748 260.846 238.653 261.036 238.653 261.278C238.653 261.524 238.748 261.717 238.939 261.857C239.129 261.996 239.392 262.066 239.726 262.066ZM239.726 260.4C239.35 260.4 239.027 260.351 238.758 260.253C238.488 260.151 238.279 260.005 238.13 259.814C237.986 259.619 237.914 259.386 237.914 259.117C237.914 258.838 237.988 258.599 238.137 258.399C238.29 258.194 238.504 258.036 238.778 257.925C239.053 257.813 239.369 257.758 239.726 257.758C240.089 257.758 240.407 257.813 240.682 257.925C240.956 258.036 241.169 258.194 241.323 258.399C241.476 258.599 241.553 258.838 241.553 259.117C241.553 259.386 241.479 259.619 241.33 259.814C241.186 260.005 240.977 260.151 240.702 260.253C240.428 260.351 240.103 260.4 239.726 260.4ZM239.726 259.842C240.015 259.842 240.242 259.782 240.41 259.661C240.577 259.535 240.661 259.368 240.661 259.159C240.661 258.94 240.575 258.771 240.403 258.65C240.231 258.529 240.005 258.469 239.726 258.469C239.448 258.469 239.225 258.529 239.057 258.65C238.89 258.771 238.806 258.94 238.806 259.159C238.806 259.368 238.888 259.535 239.05 259.661C239.218 259.782 239.443 259.842 239.726 259.842ZM243.096 262.707V258.176L243.493 258.587H242.064V257.827H244.002V262.707H243.096ZM247.082 262.777C246.641 262.777 246.262 262.684 245.946 262.498C245.63 262.307 245.388 262.033 245.221 261.675C245.054 261.317 244.97 260.876 244.97 260.351C244.97 259.793 245.07 259.321 245.27 258.936C245.474 258.55 245.756 258.257 246.113 258.057C246.476 257.858 246.892 257.758 247.361 257.758C247.607 257.758 247.842 257.783 248.065 257.834C248.293 257.885 248.486 257.964 248.644 258.071L248.309 258.754C248.174 258.666 248.028 258.606 247.87 258.573C247.717 258.536 247.554 258.517 247.382 258.517C246.922 258.517 246.557 258.659 246.288 258.943C246.018 259.226 245.883 259.644 245.883 260.197C245.883 260.286 245.886 260.39 245.89 260.511C245.895 260.627 245.911 260.746 245.939 260.867L245.66 260.56C245.744 260.369 245.858 260.211 246.002 260.086C246.151 259.956 246.325 259.858 246.525 259.793C246.729 259.728 246.95 259.696 247.187 259.696C247.508 259.696 247.793 259.758 248.044 259.884C248.295 260.005 248.495 260.179 248.644 260.407C248.793 260.63 248.867 260.892 248.867 261.194C248.867 261.515 248.788 261.794 248.63 262.031C248.472 262.268 248.258 262.451 247.989 262.582C247.719 262.712 247.417 262.777 247.082 262.777ZM247.034 262.066C247.219 262.066 247.384 262.033 247.528 261.968C247.673 261.898 247.784 261.801 247.863 261.675C247.947 261.55 247.989 261.403 247.989 261.236C247.989 260.981 247.9 260.778 247.724 260.63C247.547 260.481 247.31 260.407 247.013 260.407C246.817 260.407 246.645 260.444 246.497 260.518C246.353 260.588 246.237 260.685 246.148 260.811C246.065 260.936 246.023 261.08 246.023 261.243C246.023 261.392 246.062 261.529 246.141 261.654C246.22 261.78 246.334 261.88 246.483 261.954C246.636 262.029 246.82 262.066 247.034 262.066Z" fill="#82878E"/>
<rect x="240.457" y="293.746" width="5.57682" height="82.2581" rx="2.78841" fill="#FABF00"/>
<rect x="240.457" y="293.746" width="5.57682" height="82.2581" rx="2.78841" fill="white" fill-opacity="0.8"/>
<rect x="240.457" y="364.852" width="5.57682" height="11.1536" rx="2.78841" fill="#FABF00"/>
<g filter="url(#filter3_d_1312_10671)">
<rect x="209.088" y="243.555" width="22.3073" height="143.603" rx="11.1536" fill="white"/>
</g>
<path d="M214.941 262.707L216.955 258.19L217.192 258.594H214.425L214.857 258.155V259.424H214.014V257.827H217.806V258.434L215.91 262.707H214.941ZM220.266 262.777C219.88 262.777 219.532 262.679 219.22 262.484C218.913 262.289 218.672 262.005 218.495 261.633C218.319 261.257 218.23 260.802 218.23 260.267C218.23 259.733 218.319 259.28 218.495 258.908C218.672 258.531 218.913 258.246 219.22 258.05C219.532 257.855 219.88 257.758 220.266 257.758C220.656 257.758 221.005 257.855 221.311 258.05C221.618 258.246 221.86 258.531 222.036 258.908C222.218 259.28 222.308 259.733 222.308 260.267C222.308 260.802 222.218 261.257 222.036 261.633C221.86 262.005 221.618 262.289 221.311 262.484C221.005 262.679 220.656 262.777 220.266 262.777ZM220.266 261.989C220.494 261.989 220.691 261.929 220.858 261.808C221.026 261.682 221.156 261.492 221.249 261.236C221.346 260.981 221.395 260.658 221.395 260.267C221.395 259.872 221.346 259.549 221.249 259.298C221.156 259.043 221.026 258.854 220.858 258.734C220.691 258.608 220.494 258.545 220.266 258.545C220.047 258.545 219.852 258.608 219.68 258.734C219.513 258.854 219.38 259.043 219.283 259.298C219.19 259.549 219.143 259.872 219.143 260.267C219.143 260.658 219.19 260.981 219.283 261.236C219.38 261.492 219.513 261.682 219.68 261.808C219.852 261.929 220.047 261.989 220.266 261.989ZM222.851 262.707V262.101L224.789 260.26C224.952 260.107 225.073 259.972 225.152 259.856C225.231 259.74 225.282 259.633 225.305 259.535C225.333 259.433 225.347 259.338 225.347 259.249C225.347 259.026 225.27 258.854 225.117 258.734C224.963 258.608 224.738 258.545 224.441 258.545C224.204 258.545 223.987 258.587 223.792 258.671C223.602 258.754 223.437 258.882 223.297 259.054L222.663 258.566C222.853 258.311 223.109 258.113 223.43 257.974C223.755 257.83 224.118 257.758 224.517 257.758C224.87 257.758 225.177 257.816 225.437 257.932C225.702 258.043 225.904 258.204 226.044 258.413C226.188 258.622 226.26 258.871 226.26 259.159C226.26 259.317 226.239 259.475 226.197 259.633C226.155 259.786 226.076 259.949 225.96 260.121C225.844 260.293 225.674 260.486 225.451 260.699L223.785 262.282L223.597 261.94H226.448V262.707H222.851Z" fill="#82878E"/>
<rect x="217.451" y="309.078" width="5.57682" height="66.9218" rx="2.78841" fill="#FABF00"/>
<rect x="217.451" y="309.078" width="5.57682" height="66.9218" rx="2.78841" fill="white" fill-opacity="0.8"/>
<rect x="217.451" y="350.211" width="5.57682" height="25.7928" rx="2.78841" fill="#FABF00"/>
<g filter="url(#filter4_d_1312_10671)">
<rect x="186.082" y="243.555" width="22.3073" height="143.603" rx="11.1536" fill="white"/>
</g>
<path d="M190.191 262.707V258.176L190.589 258.587H189.16V257.827H191.098V262.707H190.191ZM194.101 262.777C193.715 262.777 193.367 262.679 193.056 262.484C192.749 262.289 192.507 262.005 192.331 261.633C192.154 261.257 192.066 260.802 192.066 260.267C192.066 259.733 192.154 259.28 192.331 258.908C192.507 258.531 192.749 258.246 193.056 258.05C193.367 257.855 193.715 257.758 194.101 257.758C194.492 257.758 194.84 257.855 195.147 258.05C195.454 258.246 195.695 258.531 195.872 258.908C196.053 259.28 196.144 259.733 196.144 260.267C196.144 260.802 196.053 261.257 195.872 261.633C195.695 262.005 195.454 262.289 195.147 262.484C194.84 262.679 194.492 262.777 194.101 262.777ZM194.101 261.989C194.329 261.989 194.526 261.929 194.694 261.808C194.861 261.682 194.991 261.492 195.084 261.236C195.182 260.981 195.23 260.658 195.23 260.267C195.23 259.872 195.182 259.549 195.084 259.298C194.991 259.043 194.861 258.854 194.694 258.734C194.526 258.608 194.329 258.545 194.101 258.545C193.883 258.545 193.688 258.608 193.516 258.734C193.348 258.854 193.216 259.043 193.118 259.298C193.025 259.549 192.979 259.872 192.979 260.267C192.979 260.658 193.025 260.981 193.118 261.236C193.216 261.492 193.348 261.682 193.516 261.808C193.688 261.929 193.883 261.989 194.101 261.989ZM198.715 262.777C198.311 262.777 197.96 262.716 197.662 262.595C197.365 262.475 197.135 262.305 196.972 262.087C196.81 261.864 196.728 261.603 196.728 261.306C196.728 261.008 196.807 260.757 196.965 260.553C197.123 260.349 197.351 260.193 197.648 260.086C197.946 259.979 198.301 259.926 198.715 259.926C199.129 259.926 199.484 259.979 199.782 260.086C200.084 260.193 200.314 260.351 200.472 260.56C200.634 260.764 200.716 261.013 200.716 261.306C200.716 261.603 200.632 261.864 200.465 262.087C200.302 262.305 200.07 262.475 199.768 262.595C199.47 262.716 199.119 262.777 198.715 262.777ZM198.715 262.066C199.05 262.066 199.314 261.996 199.51 261.857C199.705 261.717 199.802 261.524 199.802 261.278C199.802 261.036 199.705 260.846 199.51 260.706C199.314 260.567 199.05 260.497 198.715 260.497C198.38 260.497 198.118 260.567 197.927 260.706C197.737 260.846 197.641 261.036 197.641 261.278C197.641 261.524 197.737 261.717 197.927 261.857C198.118 261.996 198.38 262.066 198.715 262.066ZM198.715 260.4C198.339 260.4 198.016 260.351 197.746 260.253C197.476 260.151 197.267 260.005 197.119 259.814C196.975 259.619 196.903 259.386 196.903 259.117C196.903 258.838 196.977 258.599 197.126 258.399C197.279 258.194 197.493 258.036 197.767 257.925C198.041 257.813 198.357 257.758 198.715 257.758C199.077 257.758 199.396 257.813 199.67 257.925C199.944 258.036 200.158 258.194 200.311 258.399C200.465 258.599 200.541 258.838 200.541 259.117C200.541 259.386 200.467 259.619 200.318 259.814C200.174 260.005 199.965 260.151 199.691 260.253C199.417 260.351 199.091 260.4 198.715 260.4ZM198.715 259.842C199.003 259.842 199.231 259.782 199.398 259.661C199.565 259.535 199.649 259.368 199.649 259.159C199.649 258.94 199.563 258.771 199.391 258.65C199.219 258.529 198.994 258.469 198.715 258.469C198.436 258.469 198.213 258.529 198.046 258.65C197.878 258.771 197.795 258.94 197.795 259.159C197.795 259.368 197.876 259.535 198.039 259.661C198.206 259.782 198.431 259.842 198.715 259.842ZM202.949 257.758C203.395 257.758 203.774 257.853 204.085 258.043C204.401 258.229 204.643 258.501 204.81 258.859C204.977 259.217 205.061 259.658 205.061 260.184C205.061 260.741 204.959 261.213 204.754 261.599C204.554 261.984 204.276 262.277 203.918 262.477C203.56 262.677 203.144 262.777 202.67 262.777C202.424 262.777 202.189 262.751 201.966 262.7C201.743 262.649 201.55 262.57 201.387 262.463L201.722 261.78C201.857 261.868 202.003 261.931 202.161 261.968C202.319 262.001 202.482 262.017 202.649 262.017C203.109 262.017 203.474 261.875 203.743 261.592C204.013 261.308 204.148 260.89 204.148 260.337C204.148 260.249 204.145 260.146 204.141 260.03C204.136 259.909 204.12 259.788 204.092 259.668L204.371 259.974C204.292 260.165 204.178 260.325 204.029 260.455C203.881 260.581 203.706 260.676 203.506 260.741C203.307 260.806 203.086 260.839 202.844 260.839C202.528 260.839 202.242 260.778 201.987 260.658C201.736 260.532 201.536 260.358 201.387 260.135C201.239 259.907 201.164 259.642 201.164 259.34C201.164 259.015 201.243 258.736 201.401 258.504C201.559 258.266 201.773 258.083 202.043 257.953C202.317 257.823 202.619 257.758 202.949 257.758ZM202.998 258.469C202.812 258.469 202.647 258.504 202.503 258.573C202.359 258.638 202.245 258.734 202.161 258.859C202.082 258.98 202.043 259.126 202.043 259.298C202.043 259.554 202.131 259.756 202.307 259.905C202.484 260.053 202.721 260.128 203.018 260.128C203.214 260.128 203.386 260.093 203.534 260.023C203.683 259.949 203.799 259.849 203.883 259.723C203.967 259.593 204.008 259.449 204.008 259.291C204.008 259.138 203.969 259.001 203.89 258.88C203.811 258.754 203.697 258.655 203.548 258.58C203.4 258.506 203.216 258.469 202.998 258.469Z" fill="#82878E"/>
<rect x="194.445" y="274.227" width="5.57682" height="101.777" rx="2.78841" fill="#FABF00"/>
<rect x="194.445" y="274.227" width="5.57682" height="101.777" rx="2.78841" fill="white" fill-opacity="0.8"/>
<rect x="194.445" y="358.574" width="5.57682" height="17.4276" rx="2.78841" fill="#FABF00"/>
<g filter="url(#filter5_d_1312_10671)">
<rect x="163.08" y="243.555" width="22.3073" height="143.603" rx="11.1536" fill="white"/>
</g>
<path d="M170.713 262.777C170.308 262.777 169.958 262.716 169.66 262.595C169.363 262.475 169.133 262.305 168.97 262.087C168.807 261.864 168.726 261.603 168.726 261.306C168.726 261.008 168.805 260.757 168.963 260.553C169.121 260.349 169.349 260.193 169.646 260.086C169.944 259.979 170.299 259.926 170.713 259.926C171.126 259.926 171.482 259.979 171.779 260.086C172.081 260.193 172.311 260.351 172.47 260.56C172.632 260.764 172.713 261.013 172.713 261.306C172.713 261.603 172.63 261.864 172.463 262.087C172.3 262.305 172.068 262.475 171.765 262.595C171.468 262.716 171.117 262.777 170.713 262.777ZM170.713 262.066C171.047 262.066 171.312 261.996 171.508 261.857C171.703 261.717 171.8 261.524 171.8 261.278C171.8 261.036 171.703 260.846 171.508 260.706C171.312 260.567 171.047 260.497 170.713 260.497C170.378 260.497 170.116 260.567 169.925 260.706C169.735 260.846 169.639 261.036 169.639 261.278C169.639 261.524 169.735 261.717 169.925 261.857C170.116 261.996 170.378 262.066 170.713 262.066ZM170.713 260.4C170.336 260.4 170.013 260.351 169.744 260.253C169.474 260.151 169.265 260.005 169.116 259.814C168.972 259.619 168.9 259.386 168.9 259.117C168.9 258.838 168.975 258.599 169.123 258.399C169.277 258.194 169.491 258.036 169.765 257.925C170.039 257.813 170.355 257.758 170.713 257.758C171.075 257.758 171.394 257.813 171.668 257.925C171.942 258.036 172.156 258.194 172.309 258.399C172.463 258.599 172.539 258.838 172.539 259.117C172.539 259.386 172.465 259.619 172.316 259.814C172.172 260.005 171.963 260.151 171.689 260.253C171.415 260.351 171.089 260.4 170.713 260.4ZM170.713 259.842C171.001 259.842 171.229 259.782 171.396 259.661C171.563 259.535 171.647 259.368 171.647 259.159C171.647 258.94 171.561 258.771 171.389 258.65C171.217 258.529 170.992 258.469 170.713 258.469C170.434 258.469 170.211 258.529 170.044 258.65C169.876 258.771 169.793 258.94 169.793 259.159C169.793 259.368 169.874 259.535 170.037 259.661C170.204 259.782 170.429 259.842 170.713 259.842ZM174.082 262.707V258.176L174.48 258.587H173.05V257.827H174.988V262.707H174.082ZM178.069 262.777C177.627 262.777 177.248 262.684 176.932 262.498C176.616 262.307 176.375 262.033 176.207 261.675C176.04 261.317 175.956 260.876 175.956 260.351C175.956 259.793 176.056 259.321 176.256 258.936C176.461 258.55 176.742 258.257 177.1 258.057C177.462 257.858 177.878 257.758 178.347 257.758C178.594 257.758 178.828 257.783 179.052 257.834C179.279 257.885 179.472 257.964 179.63 258.071L179.296 258.754C179.161 258.666 179.014 258.606 178.856 258.573C178.703 258.536 178.54 258.517 178.368 258.517C177.908 258.517 177.544 258.659 177.274 258.943C177.004 259.226 176.87 259.644 176.87 260.197C176.87 260.286 176.872 260.39 176.877 260.511C176.881 260.627 176.898 260.746 176.925 260.867L176.647 260.56C176.73 260.369 176.844 260.211 176.988 260.086C177.137 259.956 177.311 259.858 177.511 259.793C177.715 259.728 177.936 259.696 178.173 259.696C178.494 259.696 178.78 259.758 179.031 259.884C179.282 260.005 179.481 260.179 179.63 260.407C179.779 260.63 179.853 260.892 179.853 261.194C179.853 261.515 179.774 261.794 179.616 262.031C179.458 262.268 179.244 262.451 178.975 262.582C178.705 262.712 178.403 262.777 178.069 262.777ZM178.02 262.066C178.206 262.066 178.371 262.033 178.515 261.968C178.659 261.898 178.77 261.801 178.849 261.675C178.933 261.55 178.975 261.403 178.975 261.236C178.975 260.981 178.887 260.778 178.71 260.63C178.533 260.481 178.296 260.407 177.999 260.407C177.804 260.407 177.632 260.444 177.483 260.518C177.339 260.588 177.223 260.685 177.135 260.811C177.051 260.936 177.009 261.08 177.009 261.243C177.009 261.392 177.049 261.529 177.128 261.654C177.207 261.78 177.32 261.88 177.469 261.954C177.623 262.029 177.806 262.066 178.02 262.066Z" fill="#82878E"/>
<rect x="171.443" y="293.746" width="5.57682" height="82.2581" rx="2.78841" fill="#FABF00"/>
<rect x="171.443" y="293.746" width="5.57682" height="82.2581" rx="2.78841" fill="white" fill-opacity="0.8"/>
<rect x="171.443" y="364.852" width="5.57682" height="11.1536" rx="2.78841" fill="#FABF00"/>
<g filter="url(#filter6_d_1312_10671)">
<rect x="140.076" y="243.555" width="22.3073" height="143.603" rx="11.1536" fill="white"/>
</g>
<path d="M145.929 262.707L147.944 258.19L148.181 258.594H145.413L145.845 258.155V259.424H145.002V257.827H148.794V258.434L146.898 262.707H145.929ZM151.254 262.777C150.868 262.777 150.52 262.679 150.208 262.484C149.902 262.289 149.66 262.005 149.483 261.633C149.307 261.257 149.219 260.802 149.219 260.267C149.219 259.733 149.307 259.28 149.483 258.908C149.66 258.531 149.902 258.246 150.208 258.05C150.52 257.855 150.868 257.758 151.254 257.758C151.644 257.758 151.993 257.855 152.3 258.05C152.606 258.246 152.848 258.531 153.025 258.908C153.206 259.28 153.297 259.733 153.297 260.267C153.297 260.802 153.206 261.257 153.025 261.633C152.848 262.005 152.606 262.289 152.3 262.484C151.993 262.679 151.644 262.777 151.254 262.777ZM151.254 261.989C151.482 261.989 151.679 261.929 151.847 261.808C152.014 261.682 152.144 261.492 152.237 261.236C152.335 260.981 152.383 260.658 152.383 260.267C152.383 259.872 152.335 259.549 152.237 259.298C152.144 259.043 152.014 258.854 151.847 258.734C151.679 258.608 151.482 258.545 151.254 258.545C151.036 258.545 150.84 258.608 150.669 258.734C150.501 258.854 150.369 259.043 150.271 259.298C150.178 259.549 150.132 259.872 150.132 260.267C150.132 260.658 150.178 260.981 150.271 261.236C150.369 261.492 150.501 261.682 150.669 261.808C150.84 261.929 151.036 261.989 151.254 261.989ZM153.839 262.707V262.101L155.777 260.26C155.94 260.107 156.061 259.972 156.14 259.856C156.219 259.74 156.27 259.633 156.293 259.535C156.321 259.433 156.335 259.338 156.335 259.249C156.335 259.026 156.258 258.854 156.105 258.734C155.952 258.608 155.726 258.545 155.429 258.545C155.192 258.545 154.976 258.587 154.781 258.671C154.59 258.754 154.425 258.882 154.286 259.054L153.651 258.566C153.842 258.311 154.097 258.113 154.418 257.974C154.743 257.83 155.106 257.758 155.506 257.758C155.859 257.758 156.165 257.816 156.426 257.932C156.691 258.043 156.893 258.204 157.032 258.413C157.176 258.622 157.248 258.871 157.248 259.159C157.248 259.317 157.227 259.475 157.186 259.633C157.144 259.786 157.065 259.949 156.949 260.121C156.832 260.293 156.663 260.486 156.44 260.699L154.774 262.282L154.585 261.94H157.437V262.707H153.839Z" fill="#82878E"/>
<rect x="148.439" y="309.078" width="5.57682" height="66.9218" rx="2.78841" fill="#FABF00"/>
<rect x="148.439" y="309.078" width="5.57682" height="66.9218" rx="2.78841" fill="white" fill-opacity="0.8"/>
<rect x="148.439" y="350.211" width="5.57682" height="25.7928" rx="2.78841" fill="#FABF00"/>
<g filter="url(#filter7_d_1312_10671)">
<rect x="117.072" y="243.555" width="22.3073" height="143.603" rx="11.1536" fill="white"/>
</g>
<path d="M121.182 262.707V258.176L121.579 258.587H120.15V257.827H122.088V262.707H121.182ZM125.091 262.777C124.706 262.777 124.357 262.679 124.046 262.484C123.739 262.289 123.497 262.005 123.321 261.633C123.144 261.257 123.056 260.802 123.056 260.267C123.056 259.733 123.144 259.28 123.321 258.908C123.497 258.531 123.739 258.246 124.046 258.05C124.357 257.855 124.706 257.758 125.091 257.758C125.482 257.758 125.83 257.855 126.137 258.05C126.444 258.246 126.685 258.531 126.862 258.908C127.043 259.28 127.134 259.733 127.134 260.267C127.134 260.802 127.043 261.257 126.862 261.633C126.685 262.005 126.444 262.289 126.137 262.484C125.83 262.679 125.482 262.777 125.091 262.777ZM125.091 261.989C125.319 261.989 125.517 261.929 125.684 261.808C125.851 261.682 125.981 261.492 126.074 261.236C126.172 260.981 126.221 260.658 126.221 260.267C126.221 259.872 126.172 259.549 126.074 259.298C125.981 259.043 125.851 258.854 125.684 258.734C125.517 258.608 125.319 258.545 125.091 258.545C124.873 258.545 124.678 258.608 124.506 258.734C124.339 258.854 124.206 259.043 124.109 259.298C124.016 259.549 123.969 259.872 123.969 260.267C123.969 260.658 124.016 260.981 124.109 261.236C124.206 261.492 124.339 261.682 124.506 261.808C124.678 261.929 124.873 261.989 125.091 261.989ZM129.705 262.777C129.301 262.777 128.95 262.716 128.653 262.595C128.355 262.475 128.125 262.305 127.962 262.087C127.8 261.864 127.718 261.603 127.718 261.306C127.718 261.008 127.797 260.757 127.955 260.553C128.113 260.349 128.341 260.193 128.639 260.086C128.936 259.979 129.292 259.926 129.705 259.926C130.119 259.926 130.474 259.979 130.772 260.086C131.074 260.193 131.304 260.351 131.462 260.56C131.625 260.764 131.706 261.013 131.706 261.306C131.706 261.603 131.622 261.864 131.455 262.087C131.292 262.305 131.06 262.475 130.758 262.595C130.46 262.716 130.11 262.777 129.705 262.777ZM129.705 262.066C130.04 262.066 130.305 261.996 130.5 261.857C130.695 261.717 130.793 261.524 130.793 261.278C130.793 261.036 130.695 260.846 130.5 260.706C130.305 260.567 130.04 260.497 129.705 260.497C129.371 260.497 129.108 260.567 128.917 260.706C128.727 260.846 128.632 261.036 128.632 261.278C128.632 261.524 128.727 261.717 128.917 261.857C129.108 261.996 129.371 262.066 129.705 262.066ZM129.705 260.4C129.329 260.4 129.006 260.351 128.736 260.253C128.467 260.151 128.258 260.005 128.109 259.814C127.965 259.619 127.893 259.386 127.893 259.117C127.893 258.838 127.967 258.599 128.116 258.399C128.269 258.194 128.483 258.036 128.757 257.925C129.031 257.813 129.347 257.758 129.705 257.758C130.068 257.758 130.386 257.813 130.66 257.925C130.934 258.036 131.148 258.194 131.302 258.399C131.455 258.599 131.532 258.838 131.532 259.117C131.532 259.386 131.457 259.619 131.309 259.814C131.164 260.005 130.955 260.151 130.681 260.253C130.407 260.351 130.082 260.4 129.705 260.4ZM129.705 259.842C129.993 259.842 130.221 259.782 130.388 259.661C130.556 259.535 130.639 259.368 130.639 259.159C130.639 258.94 130.553 258.771 130.381 258.65C130.209 258.529 129.984 258.469 129.705 258.469C129.426 258.469 129.203 258.529 129.036 258.65C128.869 258.771 128.785 258.94 128.785 259.159C128.785 259.368 128.866 259.535 129.029 259.661C129.196 259.782 129.422 259.842 129.705 259.842ZM133.939 257.758C134.385 257.758 134.764 257.853 135.075 258.043C135.391 258.229 135.633 258.501 135.8 258.859C135.968 259.217 136.051 259.658 136.051 260.184C136.051 260.741 135.949 261.213 135.745 261.599C135.545 261.984 135.266 262.277 134.908 262.477C134.55 262.677 134.134 262.777 133.66 262.777C133.414 262.777 133.179 262.751 132.956 262.7C132.733 262.649 132.54 262.57 132.378 262.463L132.712 261.78C132.847 261.868 132.993 261.931 133.151 261.968C133.309 262.001 133.472 262.017 133.639 262.017C134.099 262.017 134.464 261.875 134.734 261.592C135.003 261.308 135.138 260.89 135.138 260.337C135.138 260.249 135.136 260.146 135.131 260.03C135.126 259.909 135.11 259.788 135.082 259.668L135.361 259.974C135.282 260.165 135.168 260.325 135.02 260.455C134.871 260.581 134.697 260.676 134.497 260.741C134.297 260.806 134.076 260.839 133.834 260.839C133.518 260.839 133.233 260.778 132.977 260.658C132.726 260.532 132.526 260.358 132.378 260.135C132.229 259.907 132.154 259.642 132.154 259.34C132.154 259.015 132.233 258.736 132.391 258.504C132.549 258.266 132.763 258.083 133.033 257.953C133.307 257.823 133.609 257.758 133.939 257.758ZM133.988 258.469C133.802 258.469 133.637 258.504 133.493 258.573C133.349 258.638 133.235 258.734 133.151 258.859C133.072 258.98 133.033 259.126 133.033 259.298C133.033 259.554 133.121 259.756 133.298 259.905C133.474 260.053 133.711 260.128 134.009 260.128C134.204 260.128 134.376 260.093 134.525 260.023C134.673 259.949 134.789 259.849 134.873 259.723C134.957 259.593 134.999 259.449 134.999 259.291C134.999 259.138 134.959 259.001 134.88 258.88C134.801 258.754 134.687 258.655 134.539 258.58C134.39 258.506 134.206 258.469 133.988 258.469Z" fill="#82878E"/>
<rect x="125.436" y="274.227" width="5.57682" height="101.777" rx="2.78841" fill="#FABF00"/>
<rect x="125.436" y="274.227" width="5.57682" height="101.777" rx="2.78841" fill="white" fill-opacity="0.8"/>
<rect x="125.436" y="358.574" width="5.57682" height="17.4276" rx="2.78841" fill="#FABF00"/>
<g filter="url(#filter8_d_1312_10671)">
<rect x="94.0664" y="243.555" width="22.3073" height="143.603" rx="11.1536" fill="white"/>
</g>
<path d="M101.699 262.777C101.295 262.777 100.944 262.716 100.647 262.595C100.349 262.475 100.119 262.305 99.9564 262.087C99.7937 261.864 99.7124 261.603 99.7124 261.306C99.7124 261.008 99.7914 260.757 99.9494 260.553C100.107 260.349 100.335 260.193 100.633 260.086C100.93 259.979 101.286 259.926 101.699 259.926C102.113 259.926 102.468 259.979 102.766 260.086C103.068 260.193 103.298 260.351 103.456 260.56C103.618 260.764 103.7 261.013 103.7 261.306C103.7 261.603 103.616 261.864 103.449 262.087C103.286 262.305 103.054 262.475 102.752 262.595C102.454 262.716 102.103 262.777 101.699 262.777ZM101.699 262.066C102.034 262.066 102.299 261.996 102.494 261.857C102.689 261.717 102.787 261.524 102.787 261.278C102.787 261.036 102.689 260.846 102.494 260.706C102.299 260.567 102.034 260.497 101.699 260.497C101.365 260.497 101.102 260.567 100.911 260.706C100.721 260.846 100.626 261.036 100.626 261.278C100.626 261.524 100.721 261.717 100.911 261.857C101.102 261.996 101.365 262.066 101.699 262.066ZM101.699 260.4C101.323 260.4 101 260.351 100.73 260.253C100.461 260.151 100.251 260.005 100.103 259.814C99.9587 259.619 99.8867 259.386 99.8867 259.117C99.8867 258.838 99.961 258.599 100.11 258.399C100.263 258.194 100.477 258.036 100.751 257.925C101.025 257.813 101.341 257.758 101.699 257.758C102.062 257.758 102.38 257.813 102.654 257.925C102.928 258.036 103.142 258.194 103.295 258.399C103.449 258.599 103.526 258.838 103.526 259.117C103.526 259.386 103.451 259.619 103.302 259.814C103.158 260.005 102.949 260.151 102.675 260.253C102.401 260.351 102.076 260.4 101.699 260.4ZM101.699 259.842C101.987 259.842 102.215 259.782 102.382 259.661C102.55 259.535 102.633 259.368 102.633 259.159C102.633 258.94 102.547 258.771 102.375 258.65C102.203 258.529 101.978 258.469 101.699 258.469C101.42 258.469 101.197 258.529 101.03 258.65C100.863 258.771 100.779 258.94 100.779 259.159C100.779 259.368 100.86 259.535 101.023 259.661C101.19 259.782 101.416 259.842 101.699 259.842ZM105.069 262.707V258.176L105.466 258.587H104.037V257.827H105.975V262.707H105.069ZM109.055 262.777C108.613 262.777 108.235 262.684 107.919 262.498C107.603 262.307 107.361 262.033 107.194 261.675C107.026 261.317 106.943 260.876 106.943 260.351C106.943 259.793 107.043 259.321 107.243 258.936C107.447 258.55 107.728 258.257 108.086 258.057C108.449 257.858 108.864 257.758 109.334 257.758C109.58 257.758 109.815 257.783 110.038 257.834C110.266 257.885 110.458 257.964 110.616 258.071L110.282 258.754C110.147 258.666 110.001 258.606 109.843 258.573C109.689 258.536 109.527 258.517 109.355 258.517C108.895 258.517 108.53 258.659 108.26 258.943C107.991 259.226 107.856 259.644 107.856 260.197C107.856 260.286 107.858 260.39 107.863 260.511C107.868 260.627 107.884 260.746 107.912 260.867L107.633 260.56C107.717 260.369 107.83 260.211 107.974 260.086C108.123 259.956 108.297 259.858 108.497 259.793C108.702 259.728 108.923 259.696 109.16 259.696C109.48 259.696 109.766 259.758 110.017 259.884C110.268 260.005 110.468 260.179 110.616 260.407C110.765 260.63 110.84 260.892 110.84 261.194C110.84 261.515 110.761 261.794 110.603 262.031C110.445 262.268 110.231 262.451 109.961 262.582C109.692 262.712 109.39 262.777 109.055 262.777ZM109.006 262.066C109.192 262.066 109.357 262.033 109.501 261.968C109.645 261.898 109.757 261.801 109.836 261.675C109.919 261.55 109.961 261.403 109.961 261.236C109.961 260.981 109.873 260.778 109.696 260.63C109.52 260.481 109.283 260.407 108.985 260.407C108.79 260.407 108.618 260.444 108.469 260.518C108.325 260.588 108.209 260.685 108.121 260.811C108.037 260.936 107.995 261.08 107.995 261.243C107.995 261.392 108.035 261.529 108.114 261.654C108.193 261.78 108.307 261.88 108.455 261.954C108.609 262.029 108.792 262.066 109.006 262.066Z" fill="#82878E"/>
<rect x="102.43" y="293.746" width="5.57682" height="82.2581" rx="2.78841" fill="#FABF00"/>
<rect x="102.43" y="293.746" width="5.57682" height="82.2581" rx="2.78841" fill="white" fill-opacity="0.8"/>
<rect x="102.43" y="364.852" width="5.57682" height="11.1536" rx="2.78841" fill="#FABF00"/>
<g filter="url(#filter9_d_1312_10671)">
<rect x="71.0625" y="243.555" width="22.3073" height="143.603" rx="11.1536" fill="white"/>
</g>
<path d="M76.9155 262.707L78.9301 258.19L79.1671 258.594H76.3996L76.8318 258.155V259.424H75.9883V257.827H79.7806V258.434L77.8844 262.707H76.9155ZM82.2404 262.777C81.8547 262.777 81.5061 262.679 81.1947 262.484C80.888 262.289 80.6464 262.005 80.4698 261.633C80.2932 261.257 80.2049 260.802 80.2049 260.267C80.2049 259.733 80.2932 259.28 80.4698 258.908C80.6464 258.531 80.888 258.246 81.1947 258.05C81.5061 257.855 81.8547 257.758 82.2404 257.758C82.6308 257.758 82.9793 257.855 83.2861 258.05C83.5928 258.246 83.8344 258.531 84.011 258.908C84.1923 259.28 84.2829 259.733 84.2829 260.267C84.2829 260.802 84.1923 261.257 84.011 261.633C83.8344 262.005 83.5928 262.289 83.2861 262.484C82.9793 262.679 82.6308 262.777 82.2404 262.777ZM82.2404 261.989C82.4681 261.989 82.6656 261.929 82.8329 261.808C83.0002 261.682 83.1304 261.492 83.2233 261.236C83.3209 260.981 83.3697 260.658 83.3697 260.267C83.3697 259.872 83.3209 259.549 83.2233 259.298C83.1304 259.043 83.0002 258.854 82.8329 258.734C82.6656 258.608 82.4681 258.545 82.2404 258.545C82.022 258.545 81.8268 258.608 81.6548 258.734C81.4875 258.854 81.3551 259.043 81.2575 259.298C81.1645 259.549 81.1181 259.872 81.1181 260.267C81.1181 260.658 81.1645 260.981 81.2575 261.236C81.3551 261.492 81.4875 261.682 81.6548 261.808C81.8268 261.929 82.022 261.989 82.2404 261.989ZM84.8258 262.707V262.101L86.7637 260.26C86.9264 260.107 87.0472 259.972 87.1262 259.856C87.2052 259.74 87.2563 259.633 87.2796 259.535C87.3075 259.433 87.3214 259.338 87.3214 259.249C87.3214 259.026 87.2447 258.854 87.0914 258.734C86.938 258.608 86.7126 258.545 86.4152 258.545C86.1782 258.545 85.9621 258.587 85.7669 258.671C85.5763 258.754 85.4113 258.882 85.2719 259.054L84.6376 258.566C84.8281 258.311 85.0837 258.113 85.4044 257.974C85.7297 257.83 86.0922 257.758 86.4919 257.758C86.8451 257.758 87.1518 257.816 87.412 257.932C87.6769 258.043 87.8791 258.204 88.0185 258.413C88.1626 258.622 88.2346 258.871 88.2346 259.159C88.2346 259.317 88.2137 259.475 88.1719 259.633C88.13 259.786 88.051 259.949 87.9349 260.121C87.8187 260.293 87.649 260.486 87.426 260.699L85.7599 262.282L85.5717 261.94H88.4228V262.707H84.8258Z" fill="#82878E"/>
<rect x="79.4258" y="309.078" width="5.57682" height="66.9218" rx="2.78841" fill="#FABF00"/>
<rect x="79.4258" y="309.078" width="5.57682" height="66.9218" rx="2.78841" fill="white" fill-opacity="0.8"/>
<rect x="79.4258" y="350.211" width="5.57682" height="25.7928" rx="2.78841" fill="#FABF00"/>
<g filter="url(#filter10_d_1312_10671)">
<rect x="47.3613" y="243.555" width="22.3073" height="143.603" rx="11.1536" fill="white"/>
</g>
<g filter="url(#filter11_d_1312_10671)">
<rect x="299.99" y="217.82" width="93.4117" height="182.641" rx="13.942" fill="white"/>
</g>
<path d="M312.845 282.383V278.11H311.172V277.503H315.209V278.11H313.536V282.383H312.845ZM315.87 282.383V278.688H316.54V282.383H315.87ZM316.205 277.977C316.075 277.977 315.966 277.935 315.877 277.852C315.794 277.768 315.752 277.666 315.752 277.545C315.752 277.419 315.794 277.315 315.877 277.231C315.966 277.148 316.075 277.106 316.205 277.106C316.335 277.106 316.442 277.148 316.526 277.231C316.614 277.31 316.658 277.41 316.658 277.531C316.658 277.656 316.616 277.763 316.533 277.852C316.449 277.935 316.34 277.977 316.205 277.977ZM322.439 278.653C322.736 278.653 322.999 278.711 323.227 278.828C323.455 278.944 323.631 279.12 323.757 279.357C323.887 279.594 323.952 279.894 323.952 280.257V282.383H323.283V280.333C323.283 279.975 323.199 279.706 323.032 279.525C322.864 279.343 322.63 279.253 322.328 279.253C322.104 279.253 321.909 279.299 321.742 279.392C321.575 279.485 321.445 279.622 321.352 279.804C321.263 279.985 321.219 280.21 321.219 280.48V282.383H320.55V280.333C320.55 279.975 320.466 279.706 320.299 279.525C320.136 279.343 319.902 279.253 319.595 279.253C319.376 279.253 319.184 279.299 319.016 279.392C318.849 279.485 318.719 279.622 318.626 279.804C318.533 279.985 318.486 280.21 318.486 280.48V282.383H317.817V278.688H318.459V279.671L318.354 279.42C318.47 279.178 318.649 278.99 318.891 278.855C319.132 278.721 319.414 278.653 319.734 278.653C320.088 278.653 320.392 278.742 320.648 278.918C320.903 279.09 321.07 279.353 321.149 279.706L320.878 279.594C320.989 279.311 321.184 279.083 321.463 278.911C321.742 278.739 322.067 278.653 322.439 278.653ZM326.828 282.425C326.433 282.425 326.085 282.343 325.783 282.181C325.485 282.018 325.253 281.795 325.086 281.511C324.923 281.228 324.842 280.903 324.842 280.535C324.842 280.168 324.921 279.843 325.079 279.56C325.241 279.276 325.462 279.055 325.741 278.897C326.024 278.735 326.343 278.653 326.696 278.653C327.054 278.653 327.37 278.732 327.644 278.89C327.918 279.048 328.132 279.271 328.285 279.56C328.443 279.843 328.522 280.175 328.522 280.556C328.522 280.584 328.52 280.617 328.515 280.654C328.515 280.691 328.513 280.726 328.508 280.759H325.364V280.278H328.16L327.888 280.445C327.893 280.208 327.844 279.996 327.742 279.811C327.639 279.625 327.498 279.481 327.316 279.378C327.14 279.271 326.933 279.218 326.696 279.218C326.463 279.218 326.257 279.271 326.075 279.378C325.894 279.481 325.752 279.627 325.65 279.817C325.548 280.003 325.497 280.217 325.497 280.459V280.57C325.497 280.817 325.553 281.037 325.664 281.233C325.78 281.423 325.941 281.572 326.145 281.679C326.35 281.786 326.584 281.839 326.849 281.839C327.068 281.839 327.265 281.802 327.442 281.728C327.623 281.653 327.781 281.542 327.916 281.393L328.285 281.825C328.118 282.02 327.909 282.169 327.658 282.271C327.412 282.374 327.135 282.425 326.828 282.425Z" fill="#525252"/>
<path d="M352.564 283.072C352.034 283.072 351.58 282.96 351.2 282.737C350.821 282.509 350.531 282.18 350.33 281.75C350.13 281.321 350.029 280.791 350.029 280.161C350.029 279.492 350.149 278.926 350.389 278.463C350.634 278 350.972 277.648 351.401 277.409C351.836 277.169 352.335 277.049 352.899 277.049C353.194 277.049 353.476 277.08 353.743 277.141C354.017 277.202 354.248 277.297 354.438 277.425L354.036 278.245C353.874 278.139 353.699 278.067 353.509 278.028C353.325 277.983 353.13 277.961 352.924 277.961C352.372 277.961 351.934 278.131 351.61 278.471C351.287 278.811 351.125 279.313 351.125 279.977C351.125 280.083 351.128 280.208 351.133 280.353C351.139 280.493 351.159 280.635 351.192 280.78L350.857 280.412C350.958 280.183 351.094 279.994 351.267 279.843C351.446 279.687 351.655 279.57 351.895 279.492C352.14 279.414 352.405 279.375 352.689 279.375C353.074 279.375 353.417 279.45 353.718 279.6C354.019 279.745 354.259 279.954 354.438 280.228C354.616 280.495 354.705 280.811 354.705 281.173C354.705 281.558 354.611 281.892 354.421 282.177C354.231 282.461 353.975 282.682 353.651 282.838C353.328 282.994 352.965 283.072 352.564 283.072ZM352.505 282.219C352.728 282.219 352.926 282.18 353.099 282.102C353.272 282.018 353.406 281.901 353.501 281.75C353.601 281.6 353.651 281.424 353.651 281.223C353.651 280.916 353.545 280.674 353.334 280.495C353.122 280.317 352.837 280.228 352.48 280.228C352.246 280.228 352.04 280.272 351.861 280.362C351.688 280.445 351.549 280.562 351.443 280.713C351.343 280.864 351.292 281.036 351.292 281.232C351.292 281.41 351.34 281.575 351.435 281.725C351.529 281.876 351.666 281.996 351.845 282.085C352.029 282.174 352.249 282.219 352.505 282.219ZM358.126 278.471C358.483 278.471 358.801 278.541 359.08 278.68C359.364 278.82 359.588 279.034 359.749 279.324C359.911 279.609 359.992 279.977 359.992 280.429V282.988H358.946V280.562C358.946 280.166 358.851 279.871 358.662 279.676C358.478 279.48 358.218 279.383 357.884 279.383C357.638 279.383 357.421 279.433 357.231 279.533C357.042 279.634 356.894 279.784 356.788 279.985C356.688 280.18 356.637 280.429 356.637 280.73V282.988H355.592V276.781H356.637V279.726L356.412 279.358C356.568 279.073 356.794 278.856 357.089 278.705C357.39 278.549 357.736 278.471 358.126 278.471ZM365.153 283.072C364.74 283.072 364.336 283.013 363.94 282.896C363.549 282.774 363.22 282.606 362.953 282.394L363.421 281.549C363.633 281.722 363.89 281.862 364.191 281.968C364.492 282.074 364.807 282.127 365.136 282.127C365.526 282.127 365.83 282.049 366.048 281.892C366.265 281.731 366.374 281.513 366.374 281.24C366.374 280.972 366.274 280.76 366.073 280.604C365.872 280.448 365.549 280.37 365.103 280.37H364.567V279.625L366.24 277.635L366.382 278.044H363.237V277.133H367.227V277.86L365.554 279.851L364.985 279.517H365.312C366.031 279.517 366.569 279.678 366.926 280.002C367.289 280.32 367.47 280.73 367.47 281.232C367.47 281.561 367.386 281.865 367.219 282.143C367.052 282.422 366.795 282.648 366.449 282.821C366.109 282.988 365.677 283.072 365.153 283.072ZM370.624 283.072C370.161 283.072 369.743 282.955 369.369 282.721C369.001 282.486 368.711 282.146 368.499 281.7C368.287 281.248 368.181 280.702 368.181 280.06C368.181 279.419 368.287 278.875 368.499 278.429C368.711 277.978 369.001 277.635 369.369 277.4C369.743 277.166 370.161 277.049 370.624 277.049C371.092 277.049 371.511 277.166 371.879 277.4C372.247 277.635 372.537 277.978 372.749 278.429C372.966 278.875 373.075 279.419 373.075 280.06C373.075 280.702 372.966 281.248 372.749 281.7C372.537 282.146 372.247 282.486 371.879 282.721C371.511 282.955 371.092 283.072 370.624 283.072ZM370.624 282.127C370.897 282.127 371.134 282.054 371.335 281.909C371.536 281.759 371.692 281.53 371.803 281.223C371.92 280.916 371.979 280.529 371.979 280.06C371.979 279.586 371.92 279.199 371.803 278.898C371.692 278.591 371.536 278.365 371.335 278.22C371.134 278.07 370.897 277.994 370.624 277.994C370.362 277.994 370.127 278.07 369.921 278.22C369.72 278.365 369.561 278.591 369.444 278.898C369.333 279.199 369.277 279.586 369.277 280.06C369.277 280.529 369.333 280.916 369.444 281.223C369.561 281.53 369.72 281.759 369.921 281.909C370.127 282.054 370.362 282.127 370.624 282.127ZM379.766 278.471C380.123 278.471 380.438 278.541 380.711 278.68C380.99 278.82 381.207 279.034 381.364 279.324C381.52 279.609 381.598 279.977 381.598 280.429V282.988H380.552V280.562C380.552 280.166 380.466 279.871 380.293 279.676C380.12 279.48 379.872 279.383 379.548 279.383C379.32 279.383 379.116 279.433 378.938 279.533C378.765 279.634 378.628 279.782 378.528 279.977C378.433 280.172 378.386 280.42 378.386 280.721V282.988H377.34V280.562C377.34 280.166 377.253 279.871 377.081 279.676C376.908 279.48 376.659 279.383 376.336 279.383C376.107 279.383 375.904 279.433 375.725 279.533C375.552 279.634 375.416 279.782 375.315 279.977C375.221 280.172 375.173 280.42 375.173 280.721V282.988H374.128V278.521H375.123V279.709L374.947 279.358C375.098 279.068 375.315 278.847 375.6 278.697C375.89 278.546 376.219 278.471 376.587 278.471C377.005 278.471 377.368 278.574 377.674 278.781C377.987 278.987 378.193 279.299 378.293 279.717L377.884 279.575C378.029 279.241 378.268 278.973 378.603 278.772C378.938 278.571 379.325 278.471 379.766 278.471Z" fill="#525252"/>
<path d="M318.568 239.858H321.974V240.931H318.568V239.858ZM318.675 243.547H317.407V236.715H322.394V237.779H318.675V243.547ZM325.81 243.615C325.231 243.615 324.724 243.501 324.288 243.274C323.858 243.039 323.523 242.721 323.282 242.317C323.048 241.914 322.931 241.455 322.931 240.941C322.931 240.421 323.045 239.962 323.273 239.565C323.507 239.162 323.826 238.846 324.229 238.618C324.639 238.391 325.104 238.277 325.625 238.277C326.132 238.277 326.584 238.387 326.981 238.609C327.378 238.83 327.69 239.142 327.918 239.546C328.146 239.949 328.26 240.424 328.26 240.97C328.26 241.022 328.257 241.081 328.25 241.146C328.25 241.211 328.247 241.273 328.24 241.331H323.897V240.521H327.596L327.118 240.775C327.124 240.476 327.063 240.212 326.932 239.985C326.802 239.757 326.623 239.578 326.396 239.448C326.175 239.318 325.918 239.253 325.625 239.253C325.325 239.253 325.062 239.318 324.834 239.448C324.613 239.578 324.437 239.76 324.307 239.994C324.184 240.222 324.122 240.492 324.122 240.804V241C324.122 241.312 324.193 241.588 324.336 241.829C324.48 242.07 324.681 242.255 324.942 242.386C325.202 242.516 325.501 242.581 325.839 242.581C326.132 242.581 326.396 242.535 326.63 242.444C326.864 242.353 327.072 242.21 327.255 242.015L327.908 242.766C327.674 243.039 327.378 243.251 327.02 243.4C326.669 243.544 326.266 243.615 325.81 243.615ZM332.32 243.615C331.878 243.615 331.484 243.518 331.139 243.322C330.795 243.127 330.521 242.834 330.32 242.444C330.125 242.047 330.027 241.546 330.027 240.941C330.027 240.33 330.128 239.829 330.329 239.438C330.538 239.048 330.814 238.758 331.159 238.57C331.51 238.374 331.897 238.277 332.32 238.277C332.834 238.277 333.287 238.387 333.677 238.609C334.074 238.83 334.386 239.139 334.614 239.536C334.848 239.933 334.965 240.401 334.965 240.941C334.965 241.481 334.848 241.95 334.614 242.346C334.386 242.743 334.074 243.056 333.677 243.283C333.287 243.505 332.834 243.615 332.32 243.615ZM329.432 243.547V236.305H330.652V239.546L330.554 240.931L330.593 242.317V243.547H329.432ZM332.184 242.571C332.477 242.571 332.737 242.506 332.965 242.376C333.199 242.246 333.384 242.057 333.521 241.81C333.657 241.562 333.726 241.273 333.726 240.941C333.726 240.603 333.657 240.313 333.521 240.073C333.384 239.825 333.199 239.637 332.965 239.506C332.737 239.376 332.477 239.311 332.184 239.311C331.891 239.311 331.627 239.376 331.393 239.506C331.159 239.637 330.974 239.825 330.837 240.073C330.7 240.313 330.632 240.603 330.632 240.941C330.632 241.273 330.7 241.562 330.837 241.81C330.974 242.057 331.159 242.246 331.393 242.376C331.627 242.506 331.891 242.571 332.184 242.571ZM336.122 243.547V238.335H337.284V239.77L337.147 239.35C337.303 238.999 337.547 238.732 337.879 238.55C338.217 238.368 338.637 238.277 339.138 238.277V239.438C339.086 239.425 339.037 239.419 338.991 239.419C338.946 239.412 338.9 239.409 338.855 239.409C338.393 239.409 338.025 239.546 337.752 239.819C337.479 240.086 337.342 240.486 337.342 241.019V243.547H336.122ZM342.426 243.615C341.984 243.615 341.593 243.534 341.255 243.371C340.917 243.202 340.653 242.948 340.464 242.61C340.276 242.265 340.181 241.832 340.181 241.312V238.335H341.401V241.146C341.401 241.615 341.505 241.966 341.714 242.2C341.928 242.428 342.231 242.542 342.621 242.542C342.907 242.542 343.155 242.483 343.363 242.366C343.578 242.249 343.744 242.073 343.861 241.839C343.984 241.605 344.046 241.315 344.046 240.97V238.335H345.266V243.547H344.105V242.142L344.31 242.571C344.134 242.909 343.877 243.17 343.539 243.352C343.2 243.527 342.829 243.615 342.426 243.615ZM350.074 243.547V242.493L350.006 242.268V240.424C350.006 240.066 349.898 239.789 349.684 239.594C349.469 239.393 349.144 239.292 348.708 239.292C348.415 239.292 348.125 239.337 347.839 239.428C347.559 239.519 347.322 239.646 347.127 239.809L346.649 238.921C346.928 238.706 347.26 238.547 347.644 238.443C348.034 238.332 348.438 238.277 348.854 238.277C349.609 238.277 350.191 238.459 350.601 238.823C351.018 239.181 351.226 239.737 351.226 240.492V243.547H350.074ZM348.435 243.615C348.044 243.615 347.703 243.55 347.41 243.42C347.117 243.283 346.889 243.098 346.727 242.864C346.57 242.623 346.492 242.353 346.492 242.054C346.492 241.761 346.561 241.497 346.697 241.263C346.84 241.029 347.071 240.844 347.39 240.707C347.709 240.57 348.132 240.502 348.659 240.502H350.172V241.312H348.747C348.33 241.312 348.051 241.38 347.907 241.517C347.764 241.647 347.693 241.81 347.693 242.005C347.693 242.226 347.781 242.402 347.956 242.532C348.132 242.662 348.376 242.727 348.688 242.727C348.988 242.727 349.254 242.659 349.489 242.522C349.729 242.386 349.902 242.184 350.006 241.917L350.211 242.649C350.094 242.955 349.882 243.192 349.576 243.361C349.277 243.531 348.896 243.615 348.435 243.615ZM352.791 243.547V238.335H353.953V239.77L353.816 239.35C353.972 238.999 354.216 238.732 354.548 238.55C354.886 238.368 355.306 238.277 355.807 238.277V239.438C355.755 239.425 355.706 239.419 355.661 239.419C355.615 239.412 355.57 239.409 355.524 239.409C355.062 239.409 354.694 239.546 354.421 239.819C354.148 240.086 354.011 240.486 354.011 241.019V243.547H352.791ZM357.462 245.509C357.208 245.509 356.954 245.466 356.701 245.382C356.447 245.297 356.235 245.18 356.066 245.03L356.554 244.132C356.678 244.243 356.818 244.331 356.974 244.396C357.13 244.461 357.289 244.494 357.452 244.494C357.673 244.494 357.852 244.438 357.989 244.328C358.126 244.217 358.252 244.032 358.37 243.771L358.672 243.088L358.77 242.942L360.741 238.335H361.912L359.472 243.967C359.31 244.357 359.128 244.666 358.926 244.894C358.731 245.121 358.509 245.281 358.262 245.372C358.021 245.463 357.755 245.509 357.462 245.509ZM358.535 243.732L356.183 238.335H357.452L359.365 242.834L358.535 243.732ZM362.029 245.021L362.595 242.864L362.761 243.586C362.533 243.586 362.341 243.518 362.185 243.381C362.035 243.238 361.96 243.046 361.96 242.805C361.96 242.558 362.035 242.363 362.185 242.22C362.341 242.07 362.53 241.995 362.751 241.995C362.978 241.995 363.167 242.07 363.317 242.22C363.466 242.369 363.541 242.564 363.541 242.805C363.541 242.87 363.535 242.942 363.522 243.02C363.509 243.091 363.486 243.176 363.453 243.274C363.427 243.371 363.382 243.495 363.317 243.644L362.819 245.021H362.029ZM369.909 243.644C369.369 243.644 368.881 243.508 368.445 243.235C368.016 242.961 367.678 242.564 367.43 242.044C367.183 241.517 367.06 240.879 367.06 240.131C367.06 239.383 367.183 238.748 367.43 238.228C367.678 237.701 368.016 237.301 368.445 237.028C368.881 236.754 369.369 236.618 369.909 236.618C370.456 236.618 370.944 236.754 371.373 237.028C371.803 237.301 372.141 237.701 372.388 238.228C372.642 238.748 372.769 239.383 372.769 240.131C372.769 240.879 372.642 241.517 372.388 242.044C372.141 242.564 371.803 242.961 371.373 243.235C370.944 243.508 370.456 243.644 369.909 243.644ZM369.909 242.542C370.228 242.542 370.505 242.457 370.739 242.288C370.973 242.112 371.155 241.845 371.285 241.488C371.422 241.13 371.49 240.678 371.49 240.131C371.49 239.578 371.422 239.126 371.285 238.775C371.155 238.417 370.973 238.153 370.739 237.984C370.505 237.808 370.228 237.72 369.909 237.72C369.604 237.72 369.33 237.808 369.09 237.984C368.855 238.153 368.67 238.417 368.533 238.775C368.403 239.126 368.338 239.578 368.338 240.131C368.338 240.678 368.403 241.13 368.533 241.488C368.67 241.845 368.855 242.112 369.09 242.288C369.33 242.457 369.604 242.542 369.909 242.542ZM374.71 243.547V237.203L375.266 237.779H373.265V236.715H375.979V243.547H374.71Z" fill="#525252"/>
<path d="M331.179 257.883V252.563H329.121V252.027H333.856V252.563H331.798V257.883H331.179ZM336.961 253.449C337.318 253.449 337.631 253.519 337.898 253.658C338.172 253.792 338.384 253.999 338.534 254.277C338.69 254.556 338.768 254.908 338.768 255.331V257.883H338.174V255.39C338.174 254.927 338.057 254.579 337.823 254.344C337.594 254.105 337.271 253.985 336.853 253.985C336.54 253.985 336.267 254.049 336.033 254.177C335.804 254.3 335.626 254.481 335.498 254.721C335.375 254.955 335.314 255.239 335.314 255.574V257.883H334.72V251.676H335.314V254.696L335.196 254.47C335.336 254.152 335.559 253.904 335.866 253.725C336.172 253.541 336.538 253.449 336.961 253.449ZM342.188 257.925C341.814 257.925 341.488 257.855 341.209 257.716C340.93 257.576 340.713 257.367 340.557 257.088C340.406 256.809 340.331 256.461 340.331 256.042V253.491H340.925V255.976C340.925 256.444 341.039 256.798 341.268 257.038C341.502 257.272 341.828 257.389 342.246 257.389C342.553 257.389 342.818 257.328 343.041 257.205C343.27 257.077 343.443 256.893 343.56 256.653C343.682 256.413 343.744 256.126 343.744 255.792V253.491H344.338V257.883H343.769V256.678L343.861 256.896C343.722 257.219 343.504 257.473 343.208 257.657C342.918 257.835 342.578 257.925 342.188 257.925ZM347.173 257.925C346.81 257.925 346.467 257.874 346.144 257.774C345.82 257.668 345.566 257.537 345.382 257.381L345.65 256.912C345.829 257.046 346.057 257.163 346.336 257.264C346.615 257.359 346.908 257.406 347.214 257.406C347.633 257.406 347.934 257.342 348.118 257.214C348.302 257.08 348.394 256.904 348.394 256.687C348.394 256.525 348.341 256.399 348.235 256.31C348.135 256.215 348.001 256.146 347.833 256.101C347.666 256.051 347.479 256.009 347.273 255.976C347.067 255.942 346.86 255.903 346.654 255.858C346.453 255.814 346.269 255.75 346.102 255.666C345.934 255.577 345.798 255.457 345.692 255.306C345.592 255.156 345.541 254.955 345.541 254.704C345.541 254.464 345.608 254.25 345.742 254.06C345.876 253.87 346.071 253.723 346.328 253.617C346.59 253.505 346.908 253.449 347.281 253.449C347.566 253.449 347.85 253.488 348.135 253.566C348.419 253.639 348.653 253.736 348.837 253.859L348.578 254.336C348.383 254.202 348.174 254.107 347.951 254.052C347.727 253.99 347.504 253.96 347.281 253.96C346.885 253.96 346.593 254.029 346.403 254.169C346.219 254.302 346.127 254.475 346.127 254.687C346.127 254.855 346.177 254.986 346.277 255.08C346.383 255.175 346.52 255.251 346.687 255.306C346.86 255.357 347.047 255.398 347.248 255.432C347.454 255.465 347.658 255.507 347.858 255.557C348.065 255.602 348.252 255.666 348.419 255.75C348.592 255.828 348.728 255.942 348.829 256.093C348.935 256.238 348.988 256.43 348.988 256.67C348.988 256.926 348.915 257.149 348.77 257.339C348.631 257.523 348.425 257.668 348.151 257.774C347.884 257.874 347.557 257.925 347.173 257.925ZM351.826 257.925C351.408 257.925 351.031 257.83 350.697 257.64C350.368 257.451 350.108 257.188 349.919 256.854C349.729 256.514 349.634 256.123 349.634 255.683C349.634 255.237 349.729 254.846 349.919 254.512C350.108 254.177 350.368 253.918 350.697 253.734C351.031 253.544 351.408 253.449 351.826 253.449C352.211 253.449 352.554 253.536 352.855 253.709C353.162 253.881 353.404 254.135 353.583 254.47C353.767 254.799 353.859 255.203 353.859 255.683C353.859 256.157 353.769 256.561 353.591 256.896C353.413 257.23 353.17 257.487 352.863 257.665C352.562 257.838 352.216 257.925 351.826 257.925ZM351.868 257.398C352.18 257.398 352.459 257.328 352.704 257.188C352.955 257.044 353.15 256.843 353.29 256.586C353.435 256.324 353.507 256.023 353.507 255.683C353.507 255.337 353.435 255.036 353.29 254.779C353.15 254.523 352.955 254.325 352.704 254.185C352.459 254.04 352.18 253.968 351.868 253.968C351.561 253.968 351.285 254.04 351.04 254.185C350.794 254.325 350.599 254.523 350.454 254.779C350.309 255.036 350.237 255.337 350.237 255.683C350.237 256.023 350.309 256.324 350.454 256.586C350.599 256.843 350.794 257.044 351.04 257.188C351.285 257.328 351.561 257.398 351.868 257.398ZM353.524 257.883V256.561L353.583 255.674L353.499 254.788V251.676H354.093V257.883H353.524ZM358.499 257.883V256.912L358.474 256.754V255.131C358.474 254.757 358.368 254.47 358.156 254.269C357.95 254.068 357.64 253.968 357.228 253.968C356.943 253.968 356.673 254.015 356.416 254.11C356.16 254.205 355.942 254.33 355.764 254.487L355.496 254.043C355.719 253.854 355.987 253.709 356.299 253.608C356.611 253.502 356.94 253.449 357.286 253.449C357.855 253.449 358.293 253.591 358.6 253.876C358.912 254.155 359.068 254.581 359.068 255.156V257.883H358.499ZM356.985 257.925C356.656 257.925 356.369 257.872 356.123 257.766C355.884 257.654 355.7 257.504 355.571 257.314C355.443 257.119 355.379 256.896 355.379 256.645C355.379 256.416 355.432 256.21 355.538 256.026C355.649 255.836 355.828 255.686 356.073 255.574C356.324 255.457 356.659 255.398 357.077 255.398H358.591V255.842H357.094C356.67 255.842 356.374 255.917 356.207 256.068C356.045 256.218 355.965 256.405 355.965 256.628C355.965 256.879 356.062 257.08 356.257 257.23C356.452 257.381 356.726 257.456 357.077 257.456C357.412 257.456 357.699 257.381 357.939 257.23C358.184 257.074 358.363 256.851 358.474 256.561L358.608 256.971C358.496 257.261 358.301 257.492 358.022 257.665C357.749 257.838 357.403 257.925 356.985 257.925ZM360.633 259.547C360.427 259.547 360.229 259.514 360.039 259.447C359.855 259.38 359.696 259.28 359.562 259.146L359.838 258.703C359.95 258.809 360.07 258.889 360.198 258.945C360.332 259.007 360.48 259.037 360.641 259.037C360.837 259.037 361.004 258.981 361.143 258.87C361.288 258.764 361.425 258.574 361.553 258.301L361.838 257.657L361.904 257.565L363.711 253.491H364.297L362.097 258.41C361.974 258.694 361.838 258.92 361.687 259.087C361.542 259.255 361.383 259.372 361.21 259.439C361.037 259.511 360.845 259.547 360.633 259.547ZM361.804 258.008L359.78 253.491H360.399L362.189 257.523L361.804 258.008Z" fill="#82878E"/>
<path d="M382.249 332.845C382.249 352.48 366.332 368.397 346.697 368.397C327.062 368.397 311.145 352.48 311.145 332.845C311.145 313.21 327.062 297.293 346.697 297.293C366.332 297.293 382.249 313.21 382.249 332.845ZM320.033 332.845C320.033 347.571 331.971 359.509 346.697 359.509C361.423 359.509 373.361 347.571 373.361 332.845C373.361 318.119 361.423 306.181 346.697 306.181C331.971 306.181 320.033 318.119 320.033 332.845Z" fill="#FABF00"/>
<path d="M382.249 332.845C382.249 324.62 379.397 316.649 374.179 310.291C368.961 303.933 361.7 299.581 353.633 297.976C345.566 296.371 337.192 297.614 329.938 301.491C322.684 305.368 316.998 311.641 313.851 319.24C310.703 326.839 310.288 335.294 312.675 343.165C315.063 351.036 320.106 357.836 326.945 362.406C333.784 366.975 341.996 369.032 350.181 368.226C358.367 367.42 366.02 363.801 371.836 357.984L365.551 351.7C361.189 356.062 355.449 358.776 349.31 359.381C343.171 359.986 337.012 358.443 331.883 355.016C326.754 351.588 322.971 346.489 321.181 340.585C319.39 334.682 319.702 328.341 322.062 322.641C324.423 316.942 328.687 312.237 334.127 309.329C339.568 306.422 345.848 305.49 351.899 306.693C357.949 307.897 363.395 311.161 367.308 315.93C371.222 320.698 373.361 326.676 373.361 332.845H382.249Z" fill="#FABF00"/>
<path d="M382.249 332.845C382.249 324.62 379.397 316.649 374.179 310.291C368.961 303.933 361.7 299.581 353.633 297.976C345.566 296.371 337.192 297.614 329.938 301.491C322.684 305.368 316.998 311.641 313.851 319.24C310.703 326.839 310.288 335.294 312.675 343.165C315.063 351.036 320.106 357.836 326.945 362.406C333.784 366.975 341.996 369.032 350.181 368.226C358.367 367.42 366.02 363.801 371.836 357.984L365.551 351.7C361.189 356.062 355.449 358.776 349.31 359.381C343.171 359.986 337.012 358.443 331.883 355.016C326.754 351.588 322.971 346.489 321.181 340.585C319.39 334.682 319.702 328.341 322.062 322.641C324.423 316.942 328.687 312.237 334.127 309.329C339.568 306.422 345.848 305.49 351.899 306.693C357.949 307.897 363.395 311.161 367.308 315.93C371.222 320.698 373.361 326.676 373.361 332.845H382.249Z" fill="white" fill-opacity="0.8"/>
<path d="M328.187 329.687L328.187 324.166L328.547 324.56L326.865 324.56L326.865 323.832L329.015 323.832L329.015 329.687L328.187 329.687ZM332.689 329.754C332.231 329.754 331.821 329.637 331.459 329.403C331.102 329.169 330.818 328.829 330.606 328.383C330.399 327.936 330.296 327.395 330.296 326.76C330.296 326.124 330.399 325.583 330.606 325.137C330.818 324.691 331.102 324.35 331.459 324.116C331.821 323.882 332.231 323.765 332.689 323.765C333.14 323.765 333.547 323.882 333.91 324.116C334.272 324.35 334.557 324.691 334.763 325.137C334.97 325.583 335.073 326.124 335.073 326.76C335.073 327.395 334.97 327.936 334.763 328.383C334.557 328.829 334.272 329.169 333.91 329.403C333.547 329.637 333.14 329.754 332.689 329.754ZM332.689 329.01C332.995 329.01 333.263 328.926 333.492 328.759C333.726 328.592 333.907 328.341 334.035 328.006C334.169 327.671 334.236 327.256 334.236 326.76C334.236 326.263 334.169 325.848 334.035 325.513C333.907 325.179 333.726 324.928 333.492 324.76C333.263 324.593 332.995 324.509 332.689 324.509C332.382 324.509 332.111 324.593 331.877 324.76C331.643 324.928 331.459 325.179 331.325 325.513C331.197 325.848 331.133 326.263 331.133 326.76C331.133 327.256 331.197 327.671 331.325 328.006C331.459 328.341 331.643 328.592 331.877 328.759C332.111 328.926 332.382 329.01 332.689 329.01ZM335.784 329.687L335.784 329.119L338.168 326.818C338.38 326.617 338.536 326.442 338.636 326.291C338.742 326.135 338.812 325.993 338.845 325.865C338.884 325.731 338.904 325.602 338.904 325.48C338.904 325.179 338.798 324.942 338.586 324.769C338.374 324.596 338.065 324.509 337.658 324.509C337.345 324.509 337.064 324.562 336.813 324.668C336.562 324.769 336.344 324.928 336.16 325.145L335.591 324.652C335.814 324.367 336.113 324.15 336.486 323.999C336.866 323.843 337.281 323.765 337.733 323.765C338.14 323.765 338.494 323.832 338.795 323.966C339.096 324.094 339.328 324.281 339.49 324.526C339.657 324.772 339.74 325.062 339.74 325.396C339.74 325.586 339.715 325.773 339.665 325.957C339.615 326.141 339.52 326.336 339.381 326.542C339.241 326.749 339.041 326.98 338.778 327.236L336.654 329.286L336.453 328.96L339.991 328.96L339.991 329.687L335.784 329.687ZM342.469 329.754C342.057 329.754 341.655 329.69 341.265 329.562C340.88 329.434 340.565 329.261 340.319 329.043L340.704 328.383C340.899 328.567 341.153 328.717 341.466 328.834C341.778 328.951 342.112 329.01 342.469 329.01C342.904 329.01 343.242 328.918 343.482 328.734C343.727 328.544 343.85 328.291 343.85 327.973C343.85 327.666 343.733 327.421 343.498 327.236C343.27 327.047 342.904 326.952 342.402 326.952L341.934 326.952L341.934 326.367L343.674 324.225L343.791 324.56L340.587 324.56L340.587 323.832L344.452 323.832L344.452 324.401L342.72 326.534L342.285 326.274L342.561 326.274C343.27 326.274 343.799 326.433 344.151 326.751C344.508 327.069 344.686 327.474 344.686 327.964C344.686 328.293 344.605 328.594 344.444 328.868C344.282 329.141 344.036 329.358 343.707 329.52C343.384 329.676 342.971 329.754 342.469 329.754ZM350.808 329.754C350.362 329.754 349.949 329.682 349.57 329.537C349.196 329.386 348.87 329.177 348.591 328.91C348.318 328.636 348.103 328.318 347.947 327.956C347.791 327.593 347.713 327.195 347.713 326.76C347.713 326.325 347.791 325.926 347.947 325.563C348.103 325.201 348.321 324.886 348.6 324.618C348.878 324.345 349.205 324.136 349.578 323.991C349.958 323.84 350.37 323.765 350.816 323.765C351.268 323.765 351.684 323.843 352.063 323.999C352.448 324.15 352.774 324.376 353.041 324.677L352.498 325.204C352.275 324.97 352.024 324.797 351.745 324.685C351.466 324.568 351.168 324.509 350.85 324.509C350.521 324.509 350.214 324.565 349.93 324.677C349.651 324.788 349.408 324.944 349.202 325.145C348.996 325.346 348.834 325.586 348.717 325.865C348.605 326.138 348.549 326.436 348.549 326.76C348.549 327.083 348.605 327.384 348.717 327.663C348.834 327.936 348.996 328.173 349.202 328.374C349.408 328.575 349.651 328.731 349.93 328.843C350.214 328.954 350.521 329.01 350.85 329.01C351.168 329.01 351.466 328.954 351.745 328.843C352.024 328.725 352.275 328.547 352.498 328.307L353.041 328.834C352.774 329.135 352.448 329.364 352.063 329.52C351.684 329.676 351.265 329.754 350.808 329.754ZM356.813 329.687L356.813 328.751L356.771 328.575L356.771 326.977C356.771 326.637 356.671 326.375 356.47 326.191C356.275 326.001 355.979 325.906 355.583 325.906C355.321 325.906 355.064 325.951 354.813 326.04C354.562 326.124 354.351 326.238 354.178 326.383L353.843 325.781C354.072 325.597 354.345 325.457 354.663 325.363C354.986 325.262 355.324 325.212 355.675 325.212C356.283 325.212 356.751 325.36 357.08 325.655C357.409 325.951 357.574 326.403 357.574 327.011L357.574 329.687L356.813 329.687ZM355.357 329.738C355.028 329.738 354.738 329.682 354.487 329.57C354.242 329.459 354.052 329.305 353.918 329.11C353.785 328.91 353.718 328.684 353.718 328.433C353.718 328.193 353.773 327.975 353.885 327.78C354.002 327.585 354.189 327.429 354.445 327.312C354.707 327.195 355.059 327.136 355.499 327.136L356.905 327.136L356.905 327.713L355.533 327.713C355.131 327.713 354.861 327.78 354.721 327.914C354.582 328.048 354.512 328.21 354.512 328.399C354.512 328.617 354.599 328.792 354.772 328.926C354.944 329.055 355.184 329.119 355.491 329.119C355.792 329.119 356.054 329.052 356.277 328.918C356.506 328.784 356.671 328.589 356.771 328.332L356.93 328.884C356.824 329.147 356.637 329.356 356.369 329.512C356.102 329.662 355.764 329.738 355.357 329.738ZM359.06 329.687L359.06 323.48L359.863 323.48L359.863 329.687L359.06 329.687ZM361.396 329.687L361.396 323.48L362.2 323.48L362.2 329.687L361.396 329.687ZM365.004 329.738C364.636 329.738 364.285 329.687 363.95 329.587C363.621 329.487 363.362 329.364 363.172 329.219L363.507 328.583C363.697 328.712 363.931 328.82 364.21 328.91C364.489 328.999 364.773 329.043 365.063 329.043C365.437 329.043 365.704 328.99 365.866 328.884C366.033 328.778 366.117 328.631 366.117 328.441C366.117 328.302 366.067 328.193 365.966 328.115C365.866 328.037 365.732 327.978 365.565 327.939C365.403 327.9 365.222 327.867 365.021 327.839C364.82 327.805 364.62 327.766 364.419 327.722C364.218 327.671 364.034 327.605 363.867 327.521C363.699 327.432 363.566 327.312 363.465 327.161C363.365 327.005 363.315 326.799 363.315 326.542C363.315 326.274 363.39 326.04 363.54 325.839C363.691 325.639 363.903 325.485 364.176 325.379C364.455 325.268 364.784 325.212 365.163 325.212C365.453 325.212 365.746 325.248 366.042 325.321C366.343 325.388 366.588 325.485 366.778 325.614L366.435 326.249C366.234 326.116 366.025 326.024 365.807 325.973C365.59 325.923 365.372 325.898 365.155 325.898C364.804 325.898 364.541 325.957 364.369 326.074C364.196 326.185 364.109 326.33 364.109 326.509C364.109 326.659 364.159 326.776 364.26 326.86C364.366 326.938 364.5 326.999 364.661 327.044C364.829 327.089 365.013 327.128 365.213 327.161C365.414 327.189 365.615 327.228 365.816 327.278C366.017 327.323 366.198 327.387 366.36 327.471C366.527 327.554 366.661 327.671 366.761 327.822C366.867 327.973 366.92 328.173 366.92 328.424C366.92 328.692 366.842 328.923 366.686 329.119C366.53 329.314 366.309 329.467 366.025 329.579C365.741 329.685 365.4 329.738 365.004 329.738Z" fill="#525252"/>
<path d="M329.742 341.539L329.742 336.018L330.101 336.411L328.42 336.411L328.42 335.683L330.57 335.683L330.57 341.539L329.742 341.539ZM331.759 341.539L331.759 340.97L334.143 338.67C334.355 338.469 334.511 338.293 334.611 338.143C334.717 337.987 334.787 337.844 334.82 337.716C334.859 337.582 334.879 337.454 334.879 337.331C334.879 337.03 334.773 336.793 334.561 336.62C334.349 336.447 334.04 336.361 333.633 336.361C333.32 336.361 333.039 336.414 332.788 336.52C332.537 336.62 332.319 336.779 332.135 336.997L331.566 336.503C331.789 336.219 332.088 336.001 332.461 335.851C332.841 335.695 333.256 335.616 333.708 335.616C334.115 335.616 334.469 335.683 334.77 335.817C335.071 335.946 335.303 336.132 335.465 336.378C335.632 336.623 335.715 336.913 335.715 337.248C335.715 337.437 335.69 337.624 335.64 337.808C335.59 337.992 335.495 338.187 335.356 338.394C335.216 338.6 335.016 338.832 334.753 339.088L332.629 341.138L332.428 340.811L335.966 340.811L335.966 341.539L331.759 341.539ZM337.641 341.539L337.641 336.018L338.001 336.411L336.32 336.411L336.32 335.683L338.469 335.683L338.469 341.539L337.641 341.539ZM342.474 341.539L342.474 335.683L343.31 335.683L343.31 340.811L346.481 340.811L346.481 341.539L342.474 341.539ZM349.24 341.589C348.766 341.589 348.348 341.492 347.986 341.296C347.629 341.101 347.35 340.834 347.149 340.493C346.954 340.153 346.856 339.763 346.856 339.322C346.856 338.882 346.951 338.491 347.141 338.151C347.336 337.811 347.601 337.546 347.935 337.356C348.276 337.161 348.658 337.064 349.081 337.064C349.511 337.064 349.89 337.158 350.219 337.348C350.548 337.538 350.805 337.805 350.989 338.151C351.178 338.491 351.273 338.89 351.273 339.347C351.273 339.381 351.27 339.42 351.265 339.464C351.265 339.509 351.262 339.551 351.256 339.59L347.484 339.59L347.484 339.013L350.838 339.013L350.512 339.214C350.518 338.929 350.459 338.675 350.336 338.452C350.214 338.229 350.043 338.056 349.826 337.934C349.614 337.805 349.366 337.741 349.081 337.741C348.803 337.741 348.554 337.805 348.337 337.934C348.119 338.056 347.949 338.232 347.827 338.461C347.704 338.684 347.643 338.94 347.643 339.23L347.643 339.364C347.643 339.66 347.71 339.925 347.843 340.159C347.983 340.387 348.175 340.566 348.421 340.694C348.666 340.822 348.948 340.887 349.266 340.887C349.528 340.887 349.765 340.842 349.977 340.753C350.194 340.664 350.384 340.53 350.545 340.351L350.989 340.87C350.788 341.104 350.537 341.283 350.236 341.405C349.94 341.528 349.608 341.589 349.24 341.589ZM355.018 341.539L355.018 340.602L354.976 340.426L354.976 338.829C354.976 338.489 354.876 338.226 354.675 338.042C354.48 337.853 354.184 337.758 353.788 337.758C353.526 337.758 353.27 337.803 353.019 337.892C352.768 337.975 352.556 338.09 352.383 338.235L352.048 337.632C352.277 337.448 352.55 337.309 352.868 337.214C353.191 337.114 353.529 337.064 353.88 337.064C354.488 337.064 354.957 337.211 355.286 337.507C355.615 337.803 355.779 338.254 355.779 338.862L355.779 341.539L355.018 341.539ZM353.562 341.589C353.233 341.589 352.943 341.533 352.692 341.422C352.447 341.31 352.257 341.157 352.124 340.962C351.99 340.761 351.923 340.535 351.923 340.284C351.923 340.044 351.979 339.827 352.09 339.632C352.207 339.437 352.394 339.28 352.651 339.163C352.913 339.046 353.264 338.988 353.705 338.988L355.11 338.988L355.11 339.565L353.738 339.565C353.336 339.565 353.066 339.632 352.927 339.766C352.787 339.899 352.717 340.061 352.717 340.251C352.717 340.468 352.804 340.644 352.977 340.778C353.15 340.906 353.389 340.97 353.696 340.97C353.997 340.97 354.259 340.903 354.483 340.769C354.711 340.636 354.876 340.44 354.976 340.184L355.135 340.736C355.029 340.998 354.842 341.207 354.575 341.363C354.307 341.514 353.969 341.589 353.562 341.589ZM359.097 341.589C358.668 341.589 358.283 341.494 357.943 341.305C357.608 341.115 357.343 340.85 357.148 340.51C356.953 340.17 356.855 339.774 356.855 339.322C356.855 338.871 356.953 338.477 357.148 338.143C357.343 337.803 357.608 337.538 357.943 337.348C358.283 337.158 358.668 337.064 359.097 337.064C359.471 337.064 359.808 337.147 360.109 337.315C360.411 337.482 360.65 337.733 360.829 338.067C361.013 338.402 361.105 338.82 361.105 339.322C361.105 339.824 361.016 340.242 360.837 340.577C360.664 340.912 360.427 341.165 360.126 341.338C359.825 341.506 359.482 341.589 359.097 341.589ZM359.164 340.887C359.443 340.887 359.694 340.822 359.917 340.694C360.146 340.566 360.324 340.385 360.452 340.15C360.586 339.911 360.653 339.635 360.653 339.322C360.653 339.004 360.586 338.731 360.452 338.502C360.324 338.268 360.146 338.087 359.917 337.959C359.694 337.83 359.443 337.766 359.164 337.766C358.88 337.766 358.626 337.83 358.403 337.959C358.18 338.087 358.001 338.268 357.868 338.502C357.734 338.731 357.667 339.004 357.667 339.322C357.667 339.635 357.734 339.911 357.868 340.15C358.001 340.385 358.18 340.566 358.403 340.694C358.626 340.822 358.88 340.887 359.164 340.887ZM360.678 341.539L360.678 340.343L360.728 339.314L360.645 338.285L360.645 335.332L361.448 335.332L361.448 341.539L360.678 341.539ZM364.239 341.589C363.871 341.589 363.519 341.539 363.185 341.439C362.856 341.338 362.597 341.216 362.407 341.071L362.742 340.435C362.931 340.563 363.165 340.672 363.444 340.761C363.723 340.85 364.007 340.895 364.297 340.895C364.671 340.895 364.939 340.842 365.1 340.736C365.268 340.63 365.351 340.482 365.351 340.293C365.351 340.153 365.301 340.044 365.201 339.966C365.1 339.888 364.967 339.83 364.799 339.791C364.638 339.752 364.456 339.718 364.256 339.69C364.055 339.657 363.854 339.618 363.653 339.573C363.453 339.523 363.269 339.456 363.101 339.372C362.934 339.283 362.8 339.163 362.7 339.013C362.599 338.857 362.549 338.65 362.549 338.394C362.549 338.126 362.624 337.892 362.775 337.691C362.926 337.49 363.137 337.337 363.411 337.231C363.69 337.119 364.019 337.064 364.398 337.064C364.688 337.064 364.981 337.1 365.276 337.172C365.577 337.239 365.823 337.337 366.012 337.465L365.669 338.101C365.469 337.967 365.259 337.875 365.042 337.825C364.824 337.775 364.607 337.75 364.389 337.75C364.038 337.75 363.776 337.808 363.603 337.925C363.43 338.037 363.344 338.182 363.344 338.36C363.344 338.511 363.394 338.628 363.494 338.712C363.6 338.79 363.734 338.851 363.896 338.896C364.063 338.94 364.247 338.979 364.448 339.013C364.649 339.041 364.85 339.08 365.05 339.13C365.251 339.174 365.432 339.239 365.594 339.322C365.761 339.406 365.895 339.523 365.996 339.674C366.102 339.824 366.155 340.025 366.155 340.276C366.155 340.544 366.076 340.775 365.92 340.97C365.764 341.165 365.544 341.319 365.259 341.43C364.975 341.536 364.635 341.589 364.239 341.589Z" fill="#525252"/>
<path d="M323.818 386.987C323.451 386.987 323.112 386.927 322.8 386.806C322.489 386.68 322.219 386.506 321.992 386.283C321.764 386.06 321.585 385.797 321.455 385.495C321.33 385.193 321.267 384.863 321.267 384.505C321.267 384.148 321.33 383.818 321.455 383.516C321.585 383.213 321.764 382.951 321.992 382.728C322.224 382.505 322.496 382.333 322.807 382.212C323.119 382.087 323.458 382.024 323.825 382.024C324.178 382.024 324.511 382.084 324.822 382.205C325.133 382.321 325.396 382.498 325.61 382.735L325.282 383.062C325.082 382.858 324.862 382.712 324.62 382.623C324.378 382.53 324.118 382.484 323.839 382.484C323.546 382.484 323.274 382.535 323.023 382.637C322.773 382.735 322.554 382.877 322.368 383.062C322.182 383.244 322.036 383.457 321.929 383.704C321.827 383.945 321.776 384.213 321.776 384.505C321.776 384.798 321.827 385.068 321.929 385.314C322.036 385.556 322.182 385.77 322.368 385.955C322.554 386.137 322.773 386.278 323.023 386.381C323.274 386.478 323.546 386.527 323.839 386.527C324.118 386.527 324.378 386.481 324.62 386.388C324.862 386.295 325.082 386.146 325.282 385.941L325.61 386.269C325.396 386.506 325.133 386.685 324.822 386.806C324.511 386.927 324.176 386.987 323.818 386.987ZM328.844 386.945V386.137L328.823 386.004V384.652C328.823 384.34 328.735 384.101 328.558 383.934C328.386 383.767 328.128 383.683 327.784 383.683C327.547 383.683 327.322 383.722 327.108 383.801C326.894 383.88 326.713 383.985 326.564 384.115L326.341 383.746C326.527 383.588 326.75 383.467 327.01 383.383C327.271 383.295 327.545 383.251 327.833 383.251C328.307 383.251 328.672 383.369 328.928 383.606C329.188 383.839 329.318 384.194 329.318 384.673V386.945H328.844ZM327.582 386.98C327.308 386.98 327.069 386.936 326.864 386.848C326.664 386.755 326.511 386.629 326.404 386.471C326.297 386.309 326.244 386.123 326.244 385.914C326.244 385.723 326.288 385.551 326.376 385.398C326.469 385.24 326.618 385.114 326.822 385.021C327.031 384.924 327.31 384.875 327.659 384.875H328.921V385.244H327.673C327.32 385.244 327.073 385.307 326.934 385.433C326.799 385.558 326.732 385.714 326.732 385.9C326.732 386.109 326.813 386.276 326.976 386.402C327.138 386.527 327.366 386.59 327.659 386.59C327.938 386.59 328.177 386.527 328.377 386.402C328.581 386.271 328.73 386.086 328.823 385.844L328.934 386.185C328.842 386.427 328.679 386.62 328.447 386.764C328.219 386.908 327.931 386.98 327.582 386.98ZM330.662 386.945V381.773H331.157V386.945H330.662ZM332.534 386.945V381.773H333.029V386.945H332.534ZM335.389 386.98C335.087 386.98 334.801 386.938 334.532 386.855C334.262 386.766 334.051 386.657 333.898 386.527L334.121 386.137C334.269 386.248 334.46 386.346 334.692 386.429C334.925 386.508 335.169 386.548 335.424 386.548C335.773 386.548 336.024 386.495 336.177 386.388C336.33 386.276 336.407 386.13 336.407 385.948C336.407 385.814 336.363 385.709 336.275 385.635C336.191 385.556 336.079 385.498 335.94 385.46C335.801 385.419 335.645 385.384 335.473 385.356C335.301 385.328 335.129 385.296 334.957 385.258C334.79 385.221 334.636 385.168 334.497 385.098C334.358 385.024 334.244 384.924 334.155 384.798C334.072 384.673 334.03 384.505 334.03 384.296C334.03 384.096 334.086 383.918 334.197 383.76C334.309 383.602 334.471 383.478 334.685 383.39C334.904 383.297 335.169 383.251 335.48 383.251C335.717 383.251 335.954 383.283 336.191 383.348C336.428 383.409 336.623 383.49 336.777 383.592L336.56 383.99C336.398 383.878 336.224 383.799 336.038 383.753C335.852 383.701 335.666 383.676 335.48 383.676C335.15 383.676 334.906 383.734 334.748 383.85C334.595 383.962 334.518 384.106 334.518 384.282C334.518 384.422 334.56 384.531 334.643 384.61C334.732 384.689 334.846 384.752 334.985 384.798C335.129 384.84 335.285 384.875 335.452 384.903C335.624 384.931 335.794 384.966 335.961 385.007C336.133 385.045 336.289 385.098 336.428 385.168C336.572 385.233 336.686 385.328 336.77 385.454C336.858 385.574 336.902 385.735 336.902 385.935C336.902 386.148 336.842 386.334 336.721 386.492C336.605 386.646 336.433 386.766 336.205 386.855C335.982 386.938 335.71 386.98 335.389 386.98Z" fill="#525252"/>
<path d="M362.131 386.945V382.066H362.646V386.499H365.379V386.945H362.131ZM367.631 386.98C367.25 386.98 366.915 386.901 366.627 386.743C366.339 386.58 366.114 386.36 365.951 386.081C365.788 385.797 365.707 385.474 365.707 385.112C365.707 384.749 365.784 384.429 365.937 384.15C366.095 383.871 366.309 383.653 366.579 383.495C366.853 383.332 367.159 383.251 367.499 383.251C367.843 383.251 368.147 383.33 368.412 383.488C368.681 383.641 368.893 383.859 369.046 384.143C369.2 384.422 369.276 384.745 369.276 385.112C369.276 385.135 369.274 385.161 369.269 385.189C369.269 385.212 369.269 385.237 369.269 385.265H366.084V384.896H369.004L368.809 385.042C368.809 384.777 368.751 384.543 368.635 384.338C368.523 384.129 368.37 383.966 368.175 383.85C367.98 383.734 367.754 383.676 367.499 383.676C367.248 383.676 367.022 383.734 366.823 383.85C366.623 383.966 366.467 384.129 366.355 384.338C366.244 384.547 366.188 384.787 366.188 385.056V385.133C366.188 385.412 366.249 385.658 366.369 385.872C366.495 386.081 366.667 386.246 366.885 386.367C367.108 386.483 367.362 386.541 367.645 386.541C367.868 386.541 368.075 386.501 368.266 386.422C368.461 386.343 368.628 386.223 368.767 386.06L369.046 386.381C368.884 386.576 368.679 386.725 368.433 386.827C368.191 386.929 367.924 386.98 367.631 386.98ZM372.475 386.945V386.137L372.454 386.004V384.652C372.454 384.34 372.366 384.101 372.189 383.934C372.017 383.767 371.759 383.683 371.415 383.683C371.178 383.683 370.953 383.722 370.739 383.801C370.526 383.88 370.344 383.985 370.196 384.115L369.972 383.746C370.158 383.588 370.381 383.467 370.642 383.383C370.902 383.295 371.176 383.251 371.464 383.251C371.938 383.251 372.303 383.369 372.559 383.606C372.819 383.839 372.949 384.194 372.949 384.673V386.945H372.475ZM371.213 386.98C370.939 386.98 370.7 386.936 370.495 386.848C370.295 386.755 370.142 386.629 370.035 386.471C369.928 386.309 369.875 386.123 369.875 385.914C369.875 385.723 369.919 385.551 370.007 385.398C370.1 385.24 370.249 385.114 370.453 385.021C370.663 384.924 370.941 384.875 371.29 384.875H372.552V385.244H371.304C370.951 385.244 370.704 385.307 370.565 385.433C370.43 385.558 370.363 385.714 370.363 385.9C370.363 386.109 370.444 386.276 370.607 386.402C370.77 386.527 370.997 386.59 371.29 386.59C371.569 386.59 371.808 386.527 372.008 386.402C372.213 386.271 372.361 386.086 372.454 385.844L372.566 386.185C372.473 386.427 372.31 386.62 372.078 386.764C371.85 386.908 371.562 386.98 371.213 386.98ZM375.75 386.98C375.402 386.98 375.088 386.901 374.809 386.743C374.535 386.585 374.319 386.367 374.161 386.088C374.003 385.804 373.924 385.479 373.924 385.112C373.924 384.74 374.003 384.415 374.161 384.136C374.319 383.857 374.535 383.641 374.809 383.488C375.088 383.33 375.402 383.251 375.75 383.251C376.071 383.251 376.357 383.323 376.608 383.467C376.863 383.611 377.066 383.822 377.214 384.101C377.368 384.375 377.444 384.712 377.444 385.112C377.444 385.507 377.37 385.844 377.221 386.123C377.073 386.402 376.87 386.615 376.615 386.764C376.364 386.908 376.076 386.98 375.75 386.98ZM375.785 386.541C376.045 386.541 376.278 386.483 376.482 386.367C376.691 386.246 376.854 386.079 376.97 385.865C377.091 385.646 377.152 385.395 377.152 385.112C377.152 384.824 377.091 384.573 376.97 384.359C376.854 384.145 376.691 383.98 376.482 383.864C376.278 383.743 376.045 383.683 375.785 383.683C375.53 383.683 375.3 383.743 375.095 383.864C374.891 383.98 374.728 384.145 374.607 384.359C374.486 384.573 374.426 384.824 374.426 385.112C374.426 385.395 374.486 385.646 374.607 385.865C374.728 386.079 374.891 386.246 375.095 386.367C375.3 386.483 375.53 386.541 375.785 386.541ZM377.166 386.945V385.844L377.214 385.105L377.145 384.366V381.773H377.64V386.945H377.166ZM380.001 386.98C379.699 386.98 379.413 386.938 379.143 386.855C378.874 386.766 378.662 386.657 378.509 386.527L378.732 386.137C378.881 386.248 379.071 386.346 379.304 386.429C379.536 386.508 379.78 386.548 380.036 386.548C380.384 386.548 380.635 386.495 380.789 386.388C380.942 386.276 381.019 386.13 381.019 385.948C381.019 385.814 380.974 385.709 380.886 385.635C380.803 385.556 380.691 385.498 380.552 385.46C380.412 385.419 380.256 385.384 380.085 385.356C379.913 385.328 379.741 385.296 379.569 385.258C379.401 385.221 379.248 385.168 379.109 385.098C378.969 385.024 378.855 384.924 378.767 384.798C378.683 384.673 378.642 384.505 378.642 384.296C378.642 384.096 378.697 383.918 378.809 383.76C378.92 383.602 379.083 383.478 379.297 383.39C379.515 383.297 379.78 383.251 380.091 383.251C380.328 383.251 380.566 383.283 380.803 383.348C381.04 383.409 381.235 383.49 381.388 383.592L381.172 383.99C381.009 383.878 380.835 383.799 380.649 383.753C380.463 383.701 380.277 383.676 380.091 383.676C379.762 383.676 379.518 383.734 379.36 383.85C379.206 383.962 379.129 384.106 379.129 384.282C379.129 384.422 379.171 384.531 379.255 384.61C379.343 384.689 379.457 384.752 379.597 384.798C379.741 384.84 379.896 384.875 380.064 384.903C380.236 384.931 380.405 384.966 380.572 385.007C380.744 385.045 380.9 385.098 381.04 385.168C381.184 385.233 381.297 385.328 381.381 385.454C381.469 385.574 381.514 385.735 381.514 385.935C381.514 386.148 381.453 386.334 381.332 386.492C381.216 386.646 381.044 386.766 380.816 386.855C380.593 386.938 380.322 386.98 380.001 386.98Z" fill="#525252"/>
<circle cx="314.63" cy="385.13" r="3.48551" fill="#FABF00"/>
<circle cx="314.63" cy="385.13" r="3.48551" fill="white" fill-opacity="0.8"/>
<circle cx="355.062" cy="385.13" r="3.48551" fill="#FABF00"/>
</g>
<defs>
<filter id="filter0_d_1312_10671" x="269.734" y="235.887" width="39.0371" height="160.332" filterUnits="userSpaceOnUse" color-interpolation-filters="sRGB">
<feFlood flood-opacity="0" result="BackgroundImageFix"/>
<feColorMatrix in="SourceAlpha" type="matrix" values="0 0 0 0 0 0 0 0 0 0 0 0 0 0 0 0 0 0 127 0" result="hardAlpha"/>
<feOffset dy="0.697102"/>
<feGaussianBlur stdDeviation="4.18262"/>
<feColorMatrix type="matrix" values="0 0 0 0 0 0 0 0 0 0 0 0 0 0 0 0 0 0 0.08 0"/>
<feBlend mode="normal" in2="BackgroundImageFix" result="effect1_dropShadow_1312_10671"/>
<feBlend mode="normal" in="SourceGraphic" in2="effect1_dropShadow_1312_10671" result="shape"/>
</filter>
<filter id="filter1_d_1312_10671" x="246.732" y="235.887" width="39.0371" height="160.332" filterUnits="userSpaceOnUse" color-interpolation-filters="sRGB">
<feFlood flood-opacity="0" result="BackgroundImageFix"/>
<feColorMatrix in="SourceAlpha" type="matrix" values="0 0 0 0 0 0 0 0 0 0 0 0 0 0 0 0 0 0 127 0" result="hardAlpha"/>
<feOffset dy="0.697102"/>
<feGaussianBlur stdDeviation="4.18262"/>
<feColorMatrix type="matrix" values="0 0 0 0 0 0 0 0 0 0 0 0 0 0 0 0 0 0 0.08 0"/>
<feBlend mode="normal" in2="BackgroundImageFix" result="effect1_dropShadow_1312_10671"/>
<feBlend mode="normal" in="SourceGraphic" in2="effect1_dropShadow_1312_10671" result="shape"/>
</filter>
<filter id="filter2_d_1312_10671" x="223.729" y="235.887" width="39.0371" height="160.332" filterUnits="userSpaceOnUse" color-interpolation-filters="sRGB">
<feFlood flood-opacity="0" result="BackgroundImageFix"/>
<feColorMatrix in="SourceAlpha" type="matrix" values="0 0 0 0 0 0 0 0 0 0 0 0 0 0 0 0 0 0 127 0" result="hardAlpha"/>
<feOffset dy="0.697102"/>
<feGaussianBlur stdDeviation="4.18262"/>
<feColorMatrix type="matrix" values="0 0 0 0 0 0 0 0 0 0 0 0 0 0 0 0 0 0 0.08 0"/>
<feBlend mode="normal" in2="BackgroundImageFix" result="effect1_dropShadow_1312_10671"/>
<feBlend mode="normal" in="SourceGraphic" in2="effect1_dropShadow_1312_10671" result="shape"/>
</filter>
<filter id="filter3_d_1312_10671" x="200.723" y="235.887" width="39.0371" height="160.332" filterUnits="userSpaceOnUse" color-interpolation-filters="sRGB">
<feFlood flood-opacity="0" result="BackgroundImageFix"/>
<feColorMatrix in="SourceAlpha" type="matrix" values="0 0 0 0 0 0 0 0 0 0 0 0 0 0 0 0 0 0 127 0" result="hardAlpha"/>
<feOffset dy="0.697102"/>
<feGaussianBlur stdDeviation="4.18262"/>
<feColorMatrix type="matrix" values="0 0 0 0 0 0 0 0 0 0 0 0 0 0 0 0 0 0 0.08 0"/>
<feBlend mode="normal" in2="BackgroundImageFix" result="effect1_dropShadow_1312_10671"/>
<feBlend mode="normal" in="SourceGraphic" in2="effect1_dropShadow_1312_10671" result="shape"/>
</filter>
<filter id="filter4_d_1312_10671" x="177.717" y="235.887" width="39.0371" height="160.332" filterUnits="userSpaceOnUse" color-interpolation-filters="sRGB">
<feFlood flood-opacity="0" result="BackgroundImageFix"/>
<feColorMatrix in="SourceAlpha" type="matrix" values="0 0 0 0 0 0 0 0 0 0 0 0 0 0 0 0 0 0 127 0" result="hardAlpha"/>
<feOffset dy="0.697102"/>
<feGaussianBlur stdDeviation="4.18262"/>
<feColorMatrix type="matrix" values="0 0 0 0 0 0 0 0 0 0 0 0 0 0 0 0 0 0 0.08 0"/>
<feBlend mode="normal" in2="BackgroundImageFix" result="effect1_dropShadow_1312_10671"/>
<feBlend mode="normal" in="SourceGraphic" in2="effect1_dropShadow_1312_10671" result="shape"/>
</filter>
<filter id="filter5_d_1312_10671" x="154.715" y="235.887" width="39.0371" height="160.332" filterUnits="userSpaceOnUse" color-interpolation-filters="sRGB">
<feFlood flood-opacity="0" result="BackgroundImageFix"/>
<feColorMatrix in="SourceAlpha" type="matrix" values="0 0 0 0 0 0 0 0 0 0 0 0 0 0 0 0 0 0 127 0" result="hardAlpha"/>
<feOffset dy="0.697102"/>
<feGaussianBlur stdDeviation="4.18262"/>
<feColorMatrix type="matrix" values="0 0 0 0 0 0 0 0 0 0 0 0 0 0 0 0 0 0 0.08 0"/>
<feBlend mode="normal" in2="BackgroundImageFix" result="effect1_dropShadow_1312_10671"/>
<feBlend mode="normal" in="SourceGraphic" in2="effect1_dropShadow_1312_10671" result="shape"/>
</filter>
<filter id="filter6_d_1312_10671" x="131.711" y="235.887" width="39.0371" height="160.332" filterUnits="userSpaceOnUse" color-interpolation-filters="sRGB">
<feFlood flood-opacity="0" result="BackgroundImageFix"/>
<feColorMatrix in="SourceAlpha" type="matrix" values="0 0 0 0 0 0 0 0 0 0 0 0 0 0 0 0 0 0 127 0" result="hardAlpha"/>
<feOffset dy="0.697102"/>
<feGaussianBlur stdDeviation="4.18262"/>
<feColorMatrix type="matrix" values="0 0 0 0 0 0 0 0 0 0 0 0 0 0 0 0 0 0 0.08 0"/>
<feBlend mode="normal" in2="BackgroundImageFix" result="effect1_dropShadow_1312_10671"/>
<feBlend mode="normal" in="SourceGraphic" in2="effect1_dropShadow_1312_10671" result="shape"/>
</filter>
<filter id="filter7_d_1312_10671" x="108.707" y="235.887" width="39.0371" height="160.332" filterUnits="userSpaceOnUse" color-interpolation-filters="sRGB">
<feFlood flood-opacity="0" result="BackgroundImageFix"/>
<feColorMatrix in="SourceAlpha" type="matrix" values="0 0 0 0 0 0 0 0 0 0 0 0 0 0 0 0 0 0 127 0" result="hardAlpha"/>
<feOffset dy="0.697102"/>
<feGaussianBlur stdDeviation="4.18262"/>
<feColorMatrix type="matrix" values="0 0 0 0 0 0 0 0 0 0 0 0 0 0 0 0 0 0 0.08 0"/>
<feBlend mode="normal" in2="BackgroundImageFix" result="effect1_dropShadow_1312_10671"/>
<feBlend mode="normal" in="SourceGraphic" in2="effect1_dropShadow_1312_10671" result="shape"/>
</filter>
<filter id="filter8_d_1312_10671" x="85.7012" y="235.887" width="39.0371" height="160.332" filterUnits="userSpaceOnUse" color-interpolation-filters="sRGB">
<feFlood flood-opacity="0" result="BackgroundImageFix"/>
<feColorMatrix in="SourceAlpha" type="matrix" values="0 0 0 0 0 0 0 0 0 0 0 0 0 0 0 0 0 0 127 0" result="hardAlpha"/>
<feOffset dy="0.697102"/>
<feGaussianBlur stdDeviation="4.18262"/>
<feColorMatrix type="matrix" values="0 0 0 0 0 0 0 0 0 0 0 0 0 0 0 0 0 0 0.08 0"/>
<feBlend mode="normal" in2="BackgroundImageFix" result="effect1_dropShadow_1312_10671"/>
<feBlend mode="normal" in="SourceGraphic" in2="effect1_dropShadow_1312_10671" result="shape"/>
</filter>
<filter id="filter9_d_1312_10671" x="62.6973" y="235.887" width="39.0371" height="160.332" filterUnits="userSpaceOnUse" color-interpolation-filters="sRGB">
<feFlood flood-opacity="0" result="BackgroundImageFix"/>
<feColorMatrix in="SourceAlpha" type="matrix" values="0 0 0 0 0 0 0 0 0 0 0 0 0 0 0 0 0 0 127 0" result="hardAlpha"/>
<feOffset dy="0.697102"/>
<feGaussianBlur stdDeviation="4.18262"/>
<feColorMatrix type="matrix" values="0 0 0 0 0 0 0 0 0 0 0 0 0 0 0 0 0 0 0.08 0"/>
<feBlend mode="normal" in2="BackgroundImageFix" result="effect1_dropShadow_1312_10671"/>
<feBlend mode="normal" in="SourceGraphic" in2="effect1_dropShadow_1312_10671" result="shape"/>
</filter>
<filter id="filter10_d_1312_10671" x="38.9961" y="235.887" width="39.0371" height="160.332" filterUnits="userSpaceOnUse" color-interpolation-filters="sRGB">
<feFlood flood-opacity="0" result="BackgroundImageFix"/>
<feColorMatrix in="SourceAlpha" type="matrix" values="0 0 0 0 0 0 0 0 0 0 0 0 0 0 0 0 0 0 127 0" result="hardAlpha"/>
<feOffset dy="0.697102"/>
<feGaussianBlur stdDeviation="4.18262"/>
<feColorMatrix type="matrix" values="0 0 0 0 0 0 0 0 0 0 0 0 0 0 0 0 0 0 0.08 0"/>
<feBlend mode="normal" in2="BackgroundImageFix" result="effect1_dropShadow_1312_10671"/>
<feBlend mode="normal" in="SourceGraphic" in2="effect1_dropShadow_1312_10671" result="shape"/>
</filter>
<filter id="filter11_d_1312_10671" x="288.837" y="206.667" width="115.719" height="204.948" filterUnits="userSpaceOnUse" color-interpolation-filters="sRGB">
<feFlood flood-opacity="0" result="BackgroundImageFix"/>
<feColorMatrix in="SourceAlpha" type="matrix" values="0 0 0 0 0 0 0 0 0 0 0 0 0 0 0 0 0 0 127 0" result="hardAlpha"/>
<feOffset/>
<feGaussianBlur stdDeviation="5.57682"/>
<feColorMatrix type="matrix" values="0 0 0 0 0 0 0 0 0 0 0 0 0 0 0 0 0 0 0.08 0"/>
<feBlend mode="normal" in2="BackgroundImageFix" result="effect1_dropShadow_1312_10671"/>
<feBlend mode="normal" in="SourceGraphic" in2="effect1_dropShadow_1312_10671" result="shape"/>
</filter>
</defs>
</svg>
