<svg width="636" height="439" viewBox="0 0 636 439" fill="none" xmlns="http://www.w3.org/2000/svg">
<g filter="url(#filter0_d_1312_12901)">
<path fill-rule="evenodd" clip-rule="evenodd" d="M257.886 46.2281C266.596 46.2281 273.657 39.167 273.657 30.4567C273.657 29.0749 274.698 27.8281 276.08 27.8281H351.947C354.438 27.8281 356.457 29.8475 356.457 32.3385V57.4892C356.457 59.9802 354.438 61.9996 351.947 61.9996H162.51C160.019 61.9996 158 59.9802 158 57.4892V32.3385C158 29.8475 160.019 27.8281 162.51 27.8281H239.692C241.073 27.8281 242.114 29.0749 242.114 30.4567C242.114 39.167 249.175 46.2281 257.886 46.2281Z" fill="white"/>
</g>
<path d="M186.377 44.7356C186.377 49.7177 182.339 53.7564 177.357 53.7564C172.375 53.7564 168.336 49.7177 168.336 44.7356C168.336 39.7536 172.375 35.7148 177.357 35.7148C182.339 35.7148 186.377 39.7536 186.377 44.7356Z" fill="#BCC5D0"/>
<path fill-rule="evenodd" clip-rule="evenodd" d="M175.593 42.3268C175.205 42.3268 174.958 42.4574 174.79 42.6073C174.625 42.7548 174.52 42.968 174.46 43.2727C174.399 43.5861 174.395 43.9396 174.395 44.3346V47.4552H173.268V44.3346C173.268 43.9569 173.268 43.4939 173.354 43.0554C173.442 42.6081 173.628 42.1337 174.039 41.7664C174.403 41.4417 174.913 41.1992 175.593 41.1992C176.273 41.1992 176.784 41.4417 177.147 41.7664C177.558 42.1337 177.745 42.6081 177.833 43.0554C177.919 43.4939 177.919 43.9569 177.919 44.3346V46.7273C177.919 47.0999 177.929 47.3475 178.015 47.5534C178.085 47.7204 178.193 47.8908 178.354 48.018C178.507 48.1386 178.74 48.2467 179.117 48.2467C179.494 48.2467 179.727 48.1386 179.88 48.018C180.041 47.8908 180.148 47.7204 180.219 47.5534C180.305 47.3475 180.315 47.0999 180.315 46.7273V42.4678H181.443V46.7273C181.443 46.7343 181.443 46.7412 181.443 46.7482C181.443 47.0842 181.443 47.551 181.258 47.9904C181.139 48.275 180.932 48.624 180.579 48.9031C180.216 49.1889 179.734 49.3743 179.117 49.3743C178.5 49.3743 178.018 49.1889 177.655 48.9031C177.302 48.624 177.095 48.275 176.976 47.9904C176.791 47.551 176.791 47.0842 176.791 46.7482C176.791 46.7412 176.791 46.7343 176.791 46.7273V44.3346C176.791 43.9396 176.788 43.5861 176.726 43.2727C176.666 42.968 176.561 42.7548 176.396 42.6073C176.228 42.4574 175.982 42.3268 175.593 42.3268Z" fill="white"/>
<path d="M180.686 39.9878C180.773 39.8374 180.99 39.8374 181.076 39.9878L182.517 42.4826C182.604 42.6329 182.495 42.8208 182.321 42.8208H179.441C179.267 42.8208 179.159 42.6329 179.245 42.4826L180.686 39.9878Z" fill="white"/>
<path d="M174.027 49.8794C173.94 50.0298 173.723 50.0298 173.637 49.8794L172.196 47.3846C172.109 47.2343 172.218 47.0463 172.391 47.0463L175.272 47.0463C175.446 47.0463 175.554 47.2343 175.467 47.3846L174.027 49.8794Z" fill="white"/>
<circle cx="204.419" cy="44.7356" r="9.02078" fill="#BCC5D0"/>
<path fill-rule="evenodd" clip-rule="evenodd" d="M204.417 49.2382C206.908 49.2382 208.928 47.2189 208.928 44.7278C208.928 42.2368 206.908 40.2174 204.417 40.2174C201.926 40.2174 199.907 42.2368 199.907 44.7278C199.907 47.2189 201.926 49.2382 204.417 49.2382ZM204.417 50.3658C207.531 50.3658 210.055 47.8416 210.055 44.7278C210.055 41.6141 207.531 39.0898 204.417 39.0898C201.304 39.0898 198.779 41.6141 198.779 44.7278C198.779 47.8416 201.304 50.3658 204.417 50.3658Z" fill="white"/>
<path d="M207.238 44.7291C207.238 46.286 205.975 47.5481 204.419 47.5481C202.862 47.5481 201.6 46.286 201.6 44.7291C201.6 43.1723 202.862 41.9102 204.419 41.9102C205.975 41.9102 207.238 43.1723 207.238 44.7291Z" fill="white"/>
<path d="M240.502 44.7356C240.502 49.7177 236.464 53.7564 231.482 53.7564C226.5 53.7564 222.461 49.7177 222.461 44.7356C222.461 39.7536 226.5 35.7148 231.482 35.7148C236.464 35.7148 240.502 39.7536 240.502 44.7356Z" fill="#BCC5D0"/>
<path fill-rule="evenodd" clip-rule="evenodd" d="M232.048 48.1133V49.8047C232.048 50.1161 231.795 50.3685 231.484 50.3685C231.172 50.3685 230.92 50.1161 230.92 49.8047V48.1133H232.048Z" fill="white"/>
<path fill-rule="evenodd" clip-rule="evenodd" d="M236.393 39.2589C236.613 39.4791 236.613 39.836 236.393 40.0562L226.808 49.6408C226.588 49.861 226.231 49.861 226.011 49.6408C225.791 49.4206 225.791 49.0636 226.011 48.8435L235.595 39.2589C235.816 39.0387 236.173 39.0387 236.393 39.2589Z" fill="white"/>
<path d="M230.355 44.7317V40.2213C230.355 39.5986 230.86 39.0938 231.483 39.0938C232.106 39.0938 232.611 39.5986 232.611 40.2213V44.7317C232.611 45.3545 232.106 45.8593 231.483 45.8593C230.86 45.8593 230.355 45.3545 230.355 44.7317Z" fill="white"/>
<path fill-rule="evenodd" clip-rule="evenodd" d="M229.793 40.2187C229.793 39.2846 230.55 38.5273 231.484 38.5273C232.418 38.5273 233.176 39.2846 233.176 40.2187V44.7291C233.176 45.6633 232.418 46.4205 231.484 46.4205C230.55 46.4205 229.793 45.6633 229.793 44.7291V40.2187Z" fill="white"/>
<path fill-rule="evenodd" clip-rule="evenodd" d="M228.101 43.6055C228.412 43.6055 228.665 43.8579 228.665 44.1693V45.1089C228.665 46.4582 229.759 47.5521 231.108 47.5521H231.86C233.209 47.5521 234.303 46.4582 234.303 45.1089V44.1693C234.303 43.8579 234.555 43.6055 234.866 43.6055C235.178 43.6055 235.43 43.8579 235.43 44.1693V45.1089C235.43 47.081 233.832 48.6797 231.86 48.6797H231.108C229.136 48.6797 227.537 47.081 227.537 45.1089V44.1693C227.537 43.8579 227.79 43.6055 228.101 43.6055Z" fill="white"/>
<circle cx="284.829" cy="44.7356" r="9.02078" fill="#BCC5D0"/>
<rect x="281.447" y="40.2227" width="2.25519" height="9.02078" rx="0.563799" fill="white"/>
<rect x="285.957" y="40.2227" width="2.25519" height="9.02078" rx="0.563799" fill="white"/>
<circle cx="311.892" cy="44.7356" r="9.02078" fill="#BCC5D0"/>
<path fill-rule="evenodd" clip-rule="evenodd" d="M311.891 39.6562C312.202 39.6562 312.454 39.9087 312.454 40.22V44.1666H316.401C316.712 44.1666 316.965 44.4191 316.965 44.7304C316.965 45.0418 316.712 45.2942 316.401 45.2942H312.454V49.2408C312.454 49.5522 312.202 49.8046 311.891 49.8046C311.579 49.8046 311.327 49.5522 311.327 49.2408V45.2942H307.38C307.069 45.2942 306.816 45.0418 306.816 44.7304C306.816 44.4191 307.069 44.1666 307.38 44.1666H311.327V40.22C311.327 39.9087 311.579 39.6562 311.891 39.6562Z" fill="white"/>
<circle cx="338.954" cy="44.7356" r="9.02078" fill="#BCC5D0"/>
<path d="M334.443 44.733C334.443 47.2241 336.463 49.2434 338.954 49.2434C339.64 49.2434 340.291 49.0901 340.873 48.8158C340.993 48.7593 341.128 48.7395 341.257 48.7674L343.293 49.2065C343.373 49.2238 343.444 49.1524 343.427 49.0723L342.985 47.045C342.957 46.9147 342.977 46.7792 343.034 46.6586C343.31 46.0746 343.464 45.4219 343.464 44.733C343.464 42.242 341.445 40.2227 338.954 40.2227C336.463 40.2227 334.443 42.242 334.443 44.733Z" fill="white"/>
<circle cx="336.699" cy="44.7279" r="0.563799" fill="#BCC5D0"/>
<circle cx="338.954" cy="44.7279" r="0.563799" fill="#BCC5D0"/>
<circle cx="341.208" cy="44.7279" r="0.563799" fill="#BCC5D0"/>
<g filter="url(#filter1_d_1312_12901)">
<circle cx="258.124" cy="29.3816" r="13.3816" fill="#F36B6B"/>
<path d="M254.342 32.0686L252.268 32.0686C251.806 32.0686 251.432 31.6941 251.432 31.2322L251.432 29.0428C251.432 28.8742 251.482 28.7106 251.592 28.5835C252.143 27.9521 254.159 26.0469 258.457 26.0469C262.755 26.0469 264.771 27.9521 265.322 28.5835C265.432 28.7106 265.482 28.8742 265.482 29.0428L265.482 31.2322C265.482 31.6941 265.108 32.0686 264.646 32.0686L262.572 32.0686C262.11 32.0686 261.735 31.6941 261.735 31.2322L261.735 30.2875C261.735 30.0296 261.617 29.7863 261.395 29.6544C260.857 29.334 259.717 28.784 258.223 28.784C256.706 28.784 255.796 29.351 255.405 29.6689C255.25 29.7946 255.178 29.9884 255.178 30.1878L255.178 31.2322C255.178 31.6941 254.804 32.0686 254.342 32.0686Z" fill="white"/>
</g>
<defs>
<filter id="filter0_d_1312_12901" x="138.286" y="8.11384" width="237.886" height="73.6004" filterUnits="userSpaceOnUse" color-interpolation-filters="sRGB">
<feFlood flood-opacity="0" result="BackgroundImageFix"/>
<feColorMatrix in="SourceAlpha" type="matrix" values="0 0 0 0 0 0 0 0 0 0 0 0 0 0 0 0 0 0 127 0" result="hardAlpha"/>
<feOffset/>
<feGaussianBlur stdDeviation="9.85714"/>
<feColorMatrix type="matrix" values="0 0 0 0 0 0 0 0 0 0 0 0 0 0 0 0 0 0 0.11 0"/>
<feBlend mode="normal" in2="BackgroundImageFix" result="effect1_dropShadow_1312_12901"/>
<feBlend mode="normal" in="SourceGraphic" in2="effect1_dropShadow_1312_12901" result="shape"/>
</filter>
<filter id="filter1_d_1312_12901" x="227.656" y="0.228571" width="60.9351" height="60.9331" filterUnits="userSpaceOnUse" color-interpolation-filters="sRGB">
<feFlood flood-opacity="0" result="BackgroundImageFix"/>
<feColorMatrix in="SourceAlpha" type="matrix" values="0 0 0 0 0 0 0 0 0 0 0 0 0 0 0 0 0 0 127 0" result="hardAlpha"/>
<feOffset dy="1.31429"/>
<feGaussianBlur stdDeviation="8.54286"/>
<feComposite in2="hardAlpha" operator="out"/>
<feColorMatrix type="matrix" values="0 0 0 0 0 0 0 0 0 0 0 0 0 0 0 0 0 0 0.15 0"/>
<feBlend mode="normal" in2="BackgroundImageFix" result="effect1_dropShadow_1312_12901"/>
<feBlend mode="normal" in="SourceGraphic" in2="effect1_dropShadow_1312_12901" result="shape"/>
</filter>
</defs>
</svg>
