<svg width="636" height="424" viewBox="0 0 636 424" fill="none" xmlns="http://www.w3.org/2000/svg">
<path d="M32.7228 203.361L18.5035 212.722L7.11026 202.807L21.3296 193.446L32.7228 203.361Z" fill="#FABF00"/>
<path d="M32.7228 203.361L18.5035 212.722L7.11026 202.807L21.3296 193.446L32.7228 203.361Z" fill="black" fill-opacity="0.2"/>
<path d="M7.11087 202.805L5.46034 190.607L19.6792 181.247L21.3302 193.444L7.11087 202.805Z" fill="#FABF00"/>
<path d="M21.3307 193.444L19.6796 181.246L31.0729 191.161L32.7239 203.359L21.3307 193.444Z" fill="#FABF00"/>
<path d="M21.3307 193.444L19.6796 181.246L31.0729 191.161L32.7239 203.359L21.3307 193.444Z" fill="black" fill-opacity="0.1"/>
<path d="M61.7562 337.097L36.3225 353.84L15.9439 336.106L41.3775 319.362L61.7562 337.097Z" fill="#FABF00"/>
<path d="M61.7562 337.097L36.3225 353.84L15.9439 336.106L41.3775 319.362L61.7562 337.097Z" fill="black" fill-opacity="0.2"/>
<path d="M15.9444 336.103L12.9921 314.285L38.4248 297.542L41.378 319.359L15.9444 336.103Z" fill="#FABF00"/>
<path d="M41.3774 319.357L38.4242 297.54L58.8029 315.274L61.7561 337.091L41.3774 319.357Z" fill="#FABF00"/>
<path d="M41.3774 319.357L38.4242 297.54L58.8029 315.274L61.7561 337.091L41.3774 319.357Z" fill="black" fill-opacity="0.1"/>
<path d="M25.5539 240.868L17.4473 240.043L16.2165 232.92L24.3231 233.744L25.5539 240.868Z" fill="#FABF00"/>
<path d="M25.5539 240.868L17.4473 240.043L16.2165 232.92L24.3231 233.744L25.5539 240.868Z" fill="black" fill-opacity="0.2"/>
<path d="M16.2174 232.919L19.2921 227.894L27.3984 228.718L24.3239 233.744L16.2174 232.919Z" fill="#FABF00"/>
<path d="M24.325 233.746L27.3995 228.72L28.6303 235.844L25.5558 240.869L24.325 233.746Z" fill="#FABF00"/>
<path d="M24.325 233.746L27.3995 228.72L28.6303 235.844L25.5558 240.869L24.325 233.746Z" fill="black" fill-opacity="0.1"/>
<path d="M32.5415 254.809L30.1767 250.542L33.2584 247.502L35.6232 251.77L32.5415 254.809Z" fill="#FABF00"/>
<path d="M32.5415 254.809L30.1767 250.542L33.2584 247.502L35.6232 251.77L32.5415 254.809Z" fill="black" fill-opacity="0.2"/>
<path d="M33.2586 247.503L36.7801 247.297L39.1449 251.565L35.6235 251.77L33.2586 247.503Z" fill="#FABF00"/>
<path d="M35.6233 251.77L39.1447 251.565L36.063 254.604L32.5416 254.81L35.6233 251.77Z" fill="#FABF00"/>
<path d="M35.6233 251.77L39.1447 251.565L36.063 254.604L32.5416 254.81L35.6233 251.77Z" fill="black" fill-opacity="0.1"/>
<path d="M365.723 80.3608L351.503 89.7217L340.11 79.8067L354.33 70.4458L365.723 80.3608Z" fill="#FABF00"/>
<path d="M365.723 80.3608L351.503 89.7217L340.11 79.8067L354.33 70.4458L365.723 80.3608Z" fill="black" fill-opacity="0.2"/>
<path d="M340.111 79.8051L338.46 67.6074L352.679 58.2468L354.33 70.4442L340.111 79.8051Z" fill="#FABF00"/>
<path d="M354.331 70.4437L352.68 58.2463L364.073 68.1613L365.724 80.3588L354.331 70.4437Z" fill="#FABF00"/>
<path d="M354.331 70.4437L352.68 58.2463L364.073 68.1613L365.724 80.3588L354.331 70.4437Z" fill="black" fill-opacity="0.1"/>
<path d="M368.777 34.607L363.314 29.4679L366.401 23.5728L371.864 28.7119L368.777 34.607Z" fill="#FABF00"/>
<path d="M368.777 34.607L363.314 29.4679L366.401 23.5728L371.864 28.7119L368.777 34.607Z" fill="black" fill-opacity="0.2"/>
<path d="M366.401 23.5708L371.46 21.6184L376.924 26.7573L371.864 28.7098L366.401 23.5708Z" fill="#FABF00"/>
<path d="M371.866 28.7089L376.925 26.7564L373.838 32.6515L368.779 34.6041L371.866 28.7089Z" fill="#FABF00"/>
<path d="M371.866 28.7089L376.925 26.7564L373.838 32.6515L368.779 34.6041L371.866 28.7089Z" fill="black" fill-opacity="0.1"/>
</svg>
