<svg width="629" height="456" viewBox="0 0 629 456" fill="none" xmlns="http://www.w3.org/2000/svg">
<path d="M628 196.501C604 95.5 545.5 212 480.5 212C415.5 212 379.112 95.501 335.5 95.5C273 95.4985 244.5 247.96 220.5 247.96C196.5 247.96 204.5 159.5 171 159.5C137.5 159.5 133.356 241.793 95 247.96C74.2659 251.294 24.0579 250.806 1 250.5" stroke="url(#paint0_linear_1312_14335)" stroke-opacity="0.6" stroke-width="2" stroke-linecap="round"/>
<path fill-rule="evenodd" clip-rule="evenodd" d="M220 252C222.209 252 224 250.209 224 248C224 245.791 222.209 244 220 244C217.791 244 216 245.791 216 248C216 250.209 217.791 252 220 252Z" fill="#D1D8D9"/>
<path fill-rule="evenodd" clip-rule="evenodd" d="M220 250C221.105 250 222 249.105 222 248C222 246.895 221.105 246 220 246C218.895 246 218 246.895 218 248C218 249.105 218.895 250 220 250Z" fill="white"/>
<path fill-rule="evenodd" clip-rule="evenodd" d="M171 163C173.209 163 175 161.209 175 159C175 156.791 173.209 155 171 155C168.791 155 167 156.791 167 159C167 161.209 168.791 163 171 163Z" fill="#D1D8D9"/>
<path fill-rule="evenodd" clip-rule="evenodd" d="M171 161C172.105 161 173 160.105 173 159C173 157.895 172.105 157 171 157C169.895 157 169 157.895 169 159C169 160.105 169.895 161 171 161Z" fill="white"/>
<path fill-rule="evenodd" clip-rule="evenodd" d="M483 216C485.209 216 487 214.209 487 212C487 209.791 485.209 208 483 208C480.791 208 479 209.791 479 212C479 214.209 480.791 216 483 216Z" fill="#D1D8D9"/>
<path fill-rule="evenodd" clip-rule="evenodd" d="M483 214C484.105 214 485 213.105 485 212C485 210.895 484.105 210 483 210C481.895 210 481 210.895 481 212C481 213.105 481.895 214 483 214Z" fill="white"/>
<path fill-rule="evenodd" clip-rule="evenodd" d="M73 254C75.2091 254 77 252.209 77 250C77 247.791 75.2091 246 73 246C70.7909 246 69 247.791 69 250C69 252.209 70.7909 254 73 254Z" fill="#D1D8D9"/>
<path fill-rule="evenodd" clip-rule="evenodd" d="M73 252C74.1046 252 75 251.105 75 250C75 248.895 74.1046 248 73 248C71.8954 248 71 248.895 71 250C71 251.105 71.8954 252 73 252Z" fill="white"/>
<path fill-rule="evenodd" clip-rule="evenodd" d="M340 100C342.209 100 344 98.2091 344 96C344 93.7909 342.209 92 340 92C337.791 92 336 93.7909 336 96C336 98.2091 337.791 100 340 100Z" fill="#D1D8D9"/>
<path fill-rule="evenodd" clip-rule="evenodd" d="M340 98C341.105 98 342 97.1046 342 96C342 94.8954 341.105 94 340 94C338.895 94 338 94.8954 338 96C338 97.1046 338.895 98 340 98Z" fill="white"/>
<path fill-rule="evenodd" clip-rule="evenodd" d="M572 168C574.209 168 576 166.209 576 164C576 161.791 574.209 160 572 160C569.791 160 568 161.791 568 164C568 166.209 569.791 168 572 168Z" fill="#D1D8D9"/>
<path fill-rule="evenodd" clip-rule="evenodd" d="M572 166C573.105 166 574 165.105 574 164C574 162.895 573.105 162 572 162C570.895 162 570 162.895 570 164C570 165.105 570.895 166 572 166Z" fill="white"/>
<defs>
<linearGradient id="paint0_linear_1312_14335" x1="619.03" y1="169.293" x2="-37.48" y2="229.455" gradientUnits="userSpaceOnUse">
<stop stop-color="#D1D8D9" stop-opacity="0"/>
<stop offset="0.270833" stop-color="#D1D8D9"/>
<stop offset="0.819189" stop-color="#D1D8D9"/>
<stop offset="0.952717" stop-color="#D1D8D9" stop-opacity="0"/>
</linearGradient>
</defs>
</svg>
