<svg width="628" height="456" viewBox="0 0 628 456" fill="none" xmlns="http://www.w3.org/2000/svg">
<g filter="url(#filter0_d_1312_15309)">
<path d="M58 153.709C58 152.271 59.1656 151.105 60.6034 151.105H289.707C291.145 151.105 292.31 152.271 292.31 153.709V169.33C292.31 170.767 291.145 171.933 289.707 171.933H60.6035C59.1656 171.933 58 170.767 58 169.33V153.709Z" fill="white"/>
</g>
<path d="M58 153.709C58 152.271 59.1656 151.105 60.6034 151.105H181.013V171.933H60.6034C59.1656 171.933 58 170.767 58 169.33V153.709Z" fill="#FABF00"/>
<path d="M58 153.709C58 152.271 59.1656 151.105 60.6034 151.105H181.013V171.933H60.6034C59.1656 171.933 58 170.767 58 169.33V153.709Z" fill="white" fill-opacity="0.4"/>
<path d="M58 153.709C58 152.271 59.1656 151.105 60.6034 151.105H181.013V171.933H60.6034C59.1656 171.933 58 170.767 58 169.33V153.709Z" stroke="#FABF00"/>
<path d="M69.2706 164.312V157.934H70.4552V164.312H69.2706ZM74.8086 164.404C74.3105 164.404 73.8336 164.334 73.378 164.194C72.9224 164.048 72.5609 163.863 72.2937 163.638L72.7037 162.718C72.9588 162.918 73.2747 163.085 73.6514 163.219C74.028 163.353 74.4137 163.42 74.8086 163.42C75.1427 163.42 75.413 163.383 75.6196 163.31C75.8261 163.237 75.978 163.14 76.0752 163.019C76.1724 162.891 76.221 162.748 76.221 162.59C76.221 162.396 76.1511 162.241 76.0114 162.126C75.8717 162.004 75.6894 161.91 75.4647 161.843C75.246 161.77 74.9999 161.703 74.7266 161.643C74.4593 161.582 74.189 161.512 73.9156 161.433C73.6483 161.348 73.4023 161.242 73.1775 161.114C72.9588 160.981 72.7796 160.804 72.6399 160.586C72.5002 160.367 72.4303 160.088 72.4303 159.747C72.4303 159.401 72.5215 159.085 72.7037 158.8C72.892 158.508 73.1745 158.277 73.5511 158.107C73.9338 157.931 74.4168 157.843 74.9999 157.843C75.3826 157.843 75.7623 157.892 76.139 157.989C76.5156 158.086 76.8436 158.226 77.1231 158.408L76.7495 159.328C76.4639 159.158 76.1693 159.034 75.8656 158.955C75.5619 158.87 75.2703 158.827 74.9908 158.827C74.6628 158.827 74.3955 158.867 74.189 158.945C73.9885 159.024 73.8397 159.128 73.7425 159.255C73.6514 159.383 73.6058 159.529 73.6058 159.693C73.6058 159.887 73.6726 160.045 73.8063 160.167C73.946 160.282 74.1252 160.373 74.3439 160.44C74.5686 160.507 74.8177 160.574 75.0911 160.64C75.3644 160.701 75.6348 160.771 75.902 160.85C76.1754 160.929 76.4214 161.032 76.6401 161.16C76.8649 161.287 77.0441 161.46 77.1777 161.679C77.3174 161.898 77.3873 162.174 77.3873 162.508C77.3873 162.848 77.2931 163.164 77.1048 163.456C76.9226 163.741 76.6401 163.972 76.2574 164.148C75.8747 164.319 75.3918 164.404 74.8086 164.404ZM82.2015 164.404C81.7034 164.404 81.2448 164.322 80.8256 164.158C80.4065 163.994 80.042 163.766 79.7322 163.474C79.4223 163.177 79.1824 162.83 79.0123 162.435C78.8422 162.034 78.7572 161.597 78.7572 161.123C78.7572 160.649 78.8422 160.215 79.0123 159.82C79.1824 159.419 79.4223 159.073 79.7322 158.781C80.042 158.484 80.4065 158.253 80.8256 158.089C81.2448 157.925 81.7004 157.843 82.1924 157.843C82.6905 157.843 83.1461 157.925 83.5592 158.089C83.9784 158.253 84.3429 158.484 84.6527 158.781C84.9625 159.073 85.2024 159.419 85.3725 159.82C85.5426 160.215 85.6277 160.649 85.6277 161.123C85.6277 161.597 85.5426 162.034 85.3725 162.435C85.2024 162.836 84.9625 163.183 84.6527 163.474C84.3429 163.766 83.9784 163.994 83.5592 164.158C83.1461 164.322 82.6936 164.404 82.2015 164.404ZM82.1924 163.365C82.5144 163.365 82.812 163.31 83.0854 163.201C83.3588 163.091 83.5957 162.937 83.7961 162.736C83.9966 162.53 84.1515 162.293 84.2609 162.025C84.3763 161.752 84.434 161.451 84.434 161.123C84.434 160.795 84.3763 160.498 84.2609 160.23C84.1515 159.957 83.9966 159.72 83.7961 159.52C83.5957 159.313 83.3588 159.155 83.0854 159.046C82.812 158.936 82.5144 158.882 82.1924 158.882C81.8705 158.882 81.5728 158.936 81.2994 159.046C81.0321 159.155 80.7952 159.313 80.5887 159.52C80.3882 159.72 80.2303 159.957 80.1149 160.23C80.0055 160.498 79.9508 160.795 79.9508 161.123C79.9508 161.445 80.0055 161.743 80.1149 162.016C80.2303 162.29 80.3882 162.53 80.5887 162.736C80.7892 162.937 81.0261 163.091 81.2994 163.201C81.5728 163.31 81.8705 163.365 82.1924 163.365Z" fill="#82878E"/>
<path d="M263.176 167L267.441 157.206L268.269 158.518H262.723L263.989 157.096V160.205H261.349V156.066H270.409V158.002L266.55 167H263.176ZM277.448 167.219C276.427 167.219 275.537 167.016 274.777 166.609C274.027 166.203 273.439 165.599 273.012 164.797C272.595 163.996 272.387 163.006 272.387 161.83C272.387 160.559 272.632 159.481 273.121 158.596C273.621 157.7 274.303 157.018 275.167 156.55C276.042 156.081 277.052 155.847 278.198 155.847C278.812 155.847 279.4 155.92 279.963 156.066C280.536 156.201 281.02 156.394 281.416 156.643L280.291 158.862C279.978 158.643 279.65 158.497 279.307 158.424C278.974 158.341 278.63 158.299 278.276 158.299C277.432 158.299 276.755 158.554 276.245 159.065C275.745 159.575 275.495 160.32 275.495 161.298C275.495 161.475 275.495 161.663 275.495 161.861C275.506 162.048 275.527 162.241 275.558 162.439L274.777 161.798C274.985 161.413 275.235 161.09 275.527 160.83C275.829 160.569 276.183 160.372 276.589 160.236C277.005 160.101 277.469 160.033 277.979 160.033C278.666 160.033 279.291 160.179 279.853 160.471C280.426 160.752 280.884 161.153 281.228 161.673C281.572 162.184 281.744 162.788 281.744 163.485C281.744 164.246 281.551 164.907 281.166 165.469C280.78 166.021 280.265 166.453 279.619 166.766C278.974 167.068 278.25 167.219 277.448 167.219ZM277.26 165.016C277.552 165.016 277.807 164.959 278.026 164.844C278.255 164.73 278.432 164.568 278.557 164.36C278.682 164.152 278.744 163.907 278.744 163.626C278.744 163.209 278.604 162.876 278.323 162.626C278.052 162.376 277.693 162.251 277.245 162.251C276.943 162.251 276.677 162.309 276.448 162.423C276.229 162.538 276.052 162.699 275.917 162.907C275.792 163.116 275.73 163.36 275.73 163.642C275.73 163.912 275.792 164.152 275.917 164.36C276.042 164.558 276.219 164.719 276.448 164.844C276.677 164.959 276.948 165.016 277.26 165.016Z" fill="#BCC5D0"/>
<g filter="url(#filter1_d_1312_15309)">
<path d="M58 183.744C58 182.306 59.1656 181.141 60.6034 181.141H289.707C291.145 181.141 292.31 182.306 292.31 183.744V199.365C292.31 200.803 291.145 201.968 289.707 201.968H60.6035C59.1656 201.968 58 200.803 58 199.365V183.744Z" fill="white"/>
</g>
<path d="M260.713 195.348V193.333L265.618 186.507H268.82L264.056 193.333L262.587 192.896H271.132V195.348H260.713ZM266.493 197.441V195.348L266.586 192.896V191.037H269.507V197.441H266.493ZM276.671 197.66C275.911 197.66 275.151 197.566 274.39 197.379C273.641 197.191 272.985 196.926 272.422 196.582L273.547 194.255C273.984 194.546 274.469 194.77 275 194.926C275.541 195.083 276.067 195.161 276.577 195.161C277.108 195.161 277.53 195.062 277.843 194.864C278.155 194.666 278.311 194.385 278.311 194.02C278.311 193.698 278.181 193.443 277.921 193.255C277.66 193.057 277.233 192.958 276.64 192.958H275.343V191.006L278.28 187.835L278.577 188.897H272.985V186.507H280.889V188.444L277.952 191.615L276.437 190.756H277.28C278.644 190.756 279.675 191.063 280.373 191.677C281.081 192.281 281.435 193.062 281.435 194.02C281.435 194.645 281.264 195.234 280.92 195.786C280.587 196.338 280.071 196.791 279.373 197.145C278.676 197.488 277.775 197.66 276.671 197.66Z" fill="#BCC5D0"/>
<g filter="url(#filter2_d_1312_15309)">
<path d="M58 213.775C58 212.337 59.1656 211.172 60.6034 211.172H289.707C291.145 211.172 292.31 212.337 292.31 213.775V229.396C292.31 230.834 291.145 231.999 289.707 231.999H60.6035C59.1656 231.999 58 230.834 58 229.396V213.775Z" fill="white"/>
</g>
<path d="M262.301 227.473V225.536L266.393 221.709C266.685 221.438 266.898 221.198 267.034 220.99C267.179 220.782 267.273 220.594 267.315 220.428C267.367 220.251 267.393 220.089 267.393 219.943C267.393 219.589 267.273 219.313 267.034 219.116C266.804 218.918 266.456 218.819 265.987 218.819C265.591 218.819 265.222 218.907 264.878 219.084C264.534 219.261 264.253 219.527 264.034 219.881L261.738 218.6C262.144 217.913 262.733 217.361 263.503 216.944C264.274 216.528 265.196 216.319 266.268 216.319C267.112 216.319 267.851 216.455 268.486 216.726C269.122 216.996 269.616 217.382 269.97 217.882C270.335 218.381 270.517 218.97 270.517 219.647C270.517 220.001 270.47 220.355 270.376 220.709C270.283 221.053 270.1 221.422 269.83 221.818C269.569 222.203 269.179 222.635 268.658 223.114L265.409 226.114L264.894 225.02H270.814V227.473H262.301ZM276.671 227.691C275.911 227.691 275.151 227.598 274.39 227.41C273.641 227.223 272.985 226.957 272.422 226.614L273.547 224.286C273.984 224.578 274.469 224.802 275 224.958C275.541 225.114 276.067 225.192 276.577 225.192C277.108 225.192 277.53 225.093 277.843 224.895C278.155 224.697 278.311 224.416 278.311 224.052C278.311 223.729 278.181 223.474 277.921 223.286C277.66 223.088 277.233 222.99 276.64 222.99H275.343V221.037L278.28 217.866L278.577 218.928H272.985V216.538H280.889V218.475L277.952 221.646L276.437 220.787H277.28C278.644 220.787 279.675 221.094 280.373 221.709C281.081 222.313 281.435 223.094 281.435 224.052C281.435 224.677 281.264 225.265 280.92 225.817C280.587 226.369 280.071 226.822 279.373 227.176C278.676 227.52 277.775 227.691 276.671 227.691Z" fill="#BCC5D0"/>
<path d="M58 183.744C58 182.306 59.1656 181.141 60.6034 181.141H164.741V201.968H60.6034C59.1656 201.968 58 200.803 58 199.365V183.744Z" fill="#FABF00"/>
<path d="M58 183.744C58 182.306 59.1656 181.141 60.6034 181.141H164.741V201.968H60.6034C59.1656 201.968 58 200.803 58 199.365V183.744Z" fill="white" fill-opacity="0.4"/>
<path d="M58 183.744C58 182.306 59.1656 181.141 60.6034 181.141H164.741V201.968H60.6034C59.1656 201.968 58 200.803 58 199.365V183.744Z" stroke="#FABF00"/>
<path d="M71.2479 194.439C70.7498 194.439 70.2729 194.369 69.8173 194.229C69.3617 194.083 69.0003 193.898 68.733 193.673L69.143 192.753C69.3982 192.954 69.7141 193.121 70.0907 193.254C70.4673 193.388 70.8531 193.455 71.2479 193.455C71.582 193.455 71.8524 193.418 72.0589 193.345C72.2654 193.272 72.4173 193.175 72.5145 193.054C72.6117 192.926 72.6603 192.783 72.6603 192.625C72.6603 192.431 72.5904 192.276 72.4507 192.161C72.311 192.039 72.1287 191.945 71.904 191.878C71.6853 191.805 71.4393 191.739 71.1659 191.678C70.8986 191.617 70.6283 191.547 70.3549 191.468C70.0876 191.383 69.8416 191.277 69.6169 191.149C69.3982 191.016 69.219 190.84 69.0792 190.621C68.9395 190.402 68.8697 190.123 68.8697 189.783C68.8697 189.436 68.9608 189.12 69.143 188.835C69.3313 188.543 69.6138 188.312 69.9905 188.142C70.3732 187.966 70.8561 187.878 71.4393 187.878C71.822 187.878 72.2016 187.927 72.5783 188.024C72.9549 188.121 73.2829 188.261 73.5624 188.443L73.1888 189.363C72.9033 189.193 72.6087 189.069 72.3049 188.99C72.0012 188.905 71.7096 188.862 71.4302 188.862C71.1021 188.862 70.8348 188.902 70.6283 188.981C70.4278 189.06 70.279 189.163 70.1818 189.29C70.0907 189.418 70.0451 189.564 70.0451 189.728C70.0451 189.922 70.1119 190.08 70.2456 190.202C70.3853 190.317 70.5645 190.408 70.7832 190.475C71.008 190.542 71.257 190.609 71.5304 190.675C71.8038 190.736 72.0741 190.806 72.3414 190.885C72.6147 190.964 72.8608 191.067 73.0794 191.195C73.3042 191.322 73.4834 191.496 73.6171 191.714C73.7568 191.933 73.8266 192.209 73.8266 192.543C73.8266 192.884 73.7325 193.2 73.5442 193.491C73.3619 193.777 73.0794 194.007 72.6967 194.184C72.314 194.354 71.8311 194.439 71.2479 194.439ZM78.5406 194.348V193.364L78.4768 193.154V191.432C78.4768 191.098 78.3766 190.84 78.1761 190.657C77.9757 190.469 77.6719 190.375 77.2649 190.375C76.9916 190.375 76.7212 190.417 76.454 190.502C76.1927 190.587 75.971 190.706 75.7888 190.858L75.3423 190.029C75.6035 189.828 75.9133 189.679 76.2717 189.582C76.6362 189.479 77.0128 189.427 77.4016 189.427C78.1063 189.427 78.65 189.597 79.0327 189.937C79.4215 190.272 79.6158 190.791 79.6158 191.496V194.348H78.5406ZM77.0098 194.411C76.6453 194.411 76.3264 194.351 76.053 194.229C75.7797 194.102 75.5671 193.929 75.4152 193.71C75.2694 193.485 75.1965 193.233 75.1965 192.954C75.1965 192.68 75.2603 192.434 75.3878 192.215C75.5215 191.997 75.7371 191.824 76.0348 191.696C76.3325 191.568 76.7273 191.505 77.2194 191.505H78.6317V192.261H77.3014C76.9126 192.261 76.6514 192.325 76.5177 192.452C76.3841 192.574 76.3173 192.726 76.3173 192.908C76.3173 193.114 76.3993 193.279 76.5633 193.4C76.7273 193.521 76.9551 193.582 77.2467 193.582C77.5261 193.582 77.7752 193.518 77.9939 193.391C78.2187 193.263 78.3796 193.075 78.4768 192.826L78.6682 193.509C78.5588 193.795 78.3614 194.017 78.0759 194.175C77.7965 194.332 77.4411 194.411 77.0098 194.411ZM81.7285 194.348V187.587H82.8675V194.348H81.7285ZM87.3004 194.411C86.7598 194.411 86.286 194.305 85.8789 194.093C85.478 193.874 85.1652 193.576 84.9404 193.2C84.7217 192.823 84.6124 192.395 84.6124 191.915C84.6124 191.429 84.7187 191 84.9313 190.63C85.15 190.253 85.4476 189.959 85.8243 189.746C86.207 189.533 86.6413 189.427 87.1273 189.427C87.6011 189.427 88.0233 189.53 88.3939 189.737C88.7644 189.943 89.056 190.235 89.2686 190.612C89.4813 190.988 89.5876 191.432 89.5876 191.942C89.5876 191.991 89.5845 192.045 89.5784 192.106C89.5784 192.167 89.5754 192.225 89.5693 192.279H85.5145V191.523H88.9679L88.5214 191.76C88.5275 191.48 88.4698 191.234 88.3483 191.022C88.2268 190.809 88.0598 190.642 87.8472 190.521C87.6406 190.399 87.4007 190.338 87.1273 190.338C86.8479 190.338 86.6018 190.399 86.3892 190.521C86.1827 190.642 86.0187 190.812 85.8972 191.031C85.7818 191.243 85.724 191.496 85.724 191.787V191.969C85.724 192.261 85.7909 192.519 85.9245 192.744C86.0582 192.969 86.2465 193.142 86.4895 193.263C86.7324 193.385 87.0119 193.446 87.3278 193.446C87.6011 193.446 87.8472 193.403 88.0658 193.318C88.2845 193.233 88.4789 193.099 88.649 192.917L89.2595 193.619C89.0408 193.874 88.7644 194.071 88.4303 194.211C88.1023 194.345 87.7257 194.411 87.3004 194.411ZM92.836 194.411C92.429 194.411 92.0372 194.36 91.6605 194.257C91.29 194.147 90.9954 194.017 90.7767 193.865L91.2141 192.999C91.4327 193.139 91.694 193.254 91.9977 193.345C92.3014 193.436 92.6052 193.482 92.9089 193.482C93.2673 193.482 93.5255 193.433 93.6834 193.336C93.8474 193.239 93.9295 193.108 93.9295 192.944C93.9295 192.811 93.8748 192.711 93.7654 192.644C93.6561 192.571 93.5133 192.516 93.3372 192.48C93.161 192.443 92.9636 192.41 92.7449 192.379C92.5323 192.349 92.3166 192.31 92.0979 192.261C91.8853 192.206 91.6909 192.13 91.5148 192.033C91.3386 191.93 91.1958 191.793 91.0865 191.623C90.9771 191.453 90.9225 191.228 90.9225 190.949C90.9225 190.639 91.0106 190.372 91.1867 190.147C91.3629 189.916 91.6089 189.74 91.9248 189.618C92.2468 189.491 92.6264 189.427 93.0638 189.427C93.3918 189.427 93.7229 189.464 94.057 189.536C94.3911 189.609 94.6675 189.713 94.8862 189.846L94.4488 190.712C94.218 190.572 93.9841 190.478 93.7472 190.429C93.5164 190.375 93.2855 190.347 93.0547 190.347C92.7084 190.347 92.4503 190.399 92.2802 190.502C92.1162 190.606 92.0341 190.736 92.0341 190.894C92.0341 191.04 92.0888 191.149 92.1982 191.222C92.3075 191.295 92.4503 191.353 92.6264 191.395C92.8026 191.438 92.997 191.474 93.2096 191.505C93.4283 191.529 93.6439 191.568 93.8566 191.623C94.0692 191.678 94.2636 191.754 94.4397 191.851C94.622 191.942 94.7678 192.073 94.8771 192.243C94.9865 192.413 95.0411 192.635 95.0411 192.908C95.0411 193.212 94.95 193.476 94.7678 193.701C94.5916 193.925 94.3395 194.102 94.0115 194.229C93.6834 194.351 93.2916 194.411 92.836 194.411Z" fill="#82878E"/>
<path d="M58 213.775C58 212.337 59.1656 211.172 60.6034 211.172H154.328V231.999H60.6034C59.1656 231.999 58 230.834 58 229.396V213.775Z" fill="#FABF00"/>
<path d="M58 213.775C58 212.337 59.1656 211.172 60.6034 211.172H154.328V231.999H60.6034C59.1656 231.999 58 230.834 58 229.396V213.775Z" fill="white" fill-opacity="0.4"/>
<path d="M58 213.775C58 212.337 59.1656 211.172 60.6034 211.172H154.328V231.999H60.6034C59.1656 231.999 58 230.834 58 229.396V213.775Z" stroke="#FABF00"/>
<path d="M73.7537 218H74.9383V224.379H73.7537V218ZM70.4552 224.379H69.2706V218H70.4552V224.379ZM73.8449 221.645H70.3549V220.634H73.8449V221.645ZM79.3759 224.443C78.8777 224.443 78.4343 224.336 78.0455 224.124C77.6567 223.905 77.35 223.607 77.1252 223.231C76.9004 222.854 76.788 222.426 76.788 221.946C76.788 221.46 76.9004 221.032 77.1252 220.661C77.35 220.285 77.6567 219.99 78.0455 219.777C78.4343 219.565 78.8777 219.458 79.3759 219.458C79.8801 219.458 80.3266 219.565 80.7153 219.777C81.1102 219.99 81.417 220.282 81.6357 220.652C81.8604 221.023 81.9728 221.454 81.9728 221.946C81.9728 222.426 81.8604 222.854 81.6357 223.231C81.417 223.607 81.1102 223.905 80.7153 224.124C80.3266 224.336 79.8801 224.443 79.3759 224.443ZM79.3759 223.468C79.6553 223.468 79.9044 223.407 80.1231 223.285C80.3418 223.164 80.5118 222.988 80.6333 222.757C80.7609 222.526 80.8247 222.256 80.8247 221.946C80.8247 221.63 80.7609 221.36 80.6333 221.135C80.5118 220.904 80.3418 220.728 80.1231 220.607C79.9044 220.485 79.6583 220.424 79.385 220.424C79.1055 220.424 78.8565 220.485 78.6378 220.607C78.4252 220.728 78.2551 220.904 78.1275 221.135C77.9999 221.36 77.9362 221.63 77.9362 221.946C77.9362 222.256 77.9999 222.526 78.1275 222.757C78.2551 222.988 78.4252 223.164 78.6378 223.285C78.8565 223.407 79.1025 223.468 79.3759 223.468ZM89.8544 219.458C90.2432 219.458 90.5864 219.534 90.884 219.686C91.1878 219.838 91.4247 220.072 91.5948 220.388C91.7649 220.698 91.8499 221.099 91.8499 221.591V224.379H90.7109V221.736C90.7109 221.305 90.6168 220.983 90.4284 220.771C90.2401 220.558 89.9698 220.452 89.6175 220.452C89.3684 220.452 89.1467 220.506 88.9523 220.616C88.764 220.725 88.6151 220.886 88.5058 221.099C88.4025 221.311 88.3509 221.582 88.3509 221.91V224.379H87.2119V221.736C87.2119 221.305 87.1177 220.983 86.9294 220.771C86.7411 220.558 86.4708 220.452 86.1184 220.452C85.8694 220.452 85.6476 220.506 85.4533 220.616C85.2649 220.725 85.1161 220.886 85.0068 221.099C84.9035 221.311 84.8519 221.582 84.8519 221.91V224.379H83.7129V219.513H84.7972V220.807L84.6058 220.424C84.7699 220.108 85.0068 219.868 85.3166 219.704C85.6325 219.54 85.9909 219.458 86.3918 219.458C86.8474 219.458 87.2423 219.571 87.5764 219.796C87.9166 220.02 88.1413 220.36 88.2507 220.816L87.8042 220.661C87.9621 220.297 88.2233 220.005 88.5878 219.786C88.9523 219.568 89.3745 219.458 89.8544 219.458ZM96.2523 224.443C95.7117 224.443 95.2379 224.336 94.8308 224.124C94.4299 223.905 94.1171 223.607 93.8923 223.231C93.6736 222.854 93.5643 222.426 93.5643 221.946C93.5643 221.46 93.6706 221.032 93.8832 220.661C94.1019 220.285 94.3995 219.99 94.7762 219.777C95.1589 219.565 95.5932 219.458 96.0792 219.458C96.553 219.458 96.9752 219.562 97.3458 219.768C97.7163 219.975 98.0079 220.266 98.2205 220.643C98.4332 221.02 98.5395 221.463 98.5395 221.973C98.5395 222.022 98.5364 222.077 98.5303 222.137C98.5303 222.198 98.5273 222.256 98.5212 222.31H94.4664V221.554H97.9198L97.4733 221.791C97.4794 221.512 97.4217 221.266 97.3002 221.053C97.1787 220.84 97.0117 220.673 96.7991 220.552C96.5925 220.43 96.3526 220.37 96.0792 220.37C95.7998 220.37 95.5537 220.43 95.3411 220.552C95.1346 220.673 94.9706 220.843 94.8491 221.062C94.7337 221.275 94.6759 221.527 94.6759 221.818V222.001C94.6759 222.292 94.7428 222.55 94.8764 222.775C95.0101 223 95.1984 223.173 95.4414 223.295C95.6843 223.416 95.9638 223.477 96.2797 223.477C96.553 223.477 96.7991 223.434 97.0177 223.349C97.2364 223.264 97.4308 223.131 97.6009 222.948L98.2114 223.65C97.9927 223.905 97.7163 224.103 97.3822 224.242C97.0542 224.376 96.6776 224.443 96.2523 224.443Z" fill="#82878E"/>
<g filter="url(#filter3_d_1312_15309)">
<path d="M58 63.6035C58 62.1656 59.1656 61 60.6034 61H289.707C291.145 61 292.31 62.1656 292.31 63.6034V79.2241C292.31 80.662 291.145 81.8276 289.707 81.8276H60.6035C59.1656 81.8276 58 80.662 58 79.2241V63.6035Z" fill="white"/>
</g>
<path d="M58 63.6034C58 62.1656 59.1656 61 60.6034 61H236V82H60.6035C59.1656 82 58 80.8344 58 79.3966V63.6034Z" fill="#FABF00"/>
<path d="M58 63.6034C58 62.1656 59.1656 61 60.6034 61H236V82H60.6035C59.1656 82 58 80.8344 58 79.3966V63.6034Z" fill="white" fill-opacity="0.4"/>
<path d="M58 63.6034C58 62.1656 59.1656 61 60.6034 61H236V82H60.6035C59.1656 82 58 80.8344 58 79.3966V63.6034Z" stroke="#FABF00"/>
<path d="M69.2706 74.207V67.8286H70.4552V73.2047H73.7902V74.207H69.2706ZM75.2669 74.207V69.3412H76.4059V74.207H75.2669ZM75.841 68.5393C75.6283 68.5393 75.4522 68.4725 75.3125 68.3389C75.1788 68.2052 75.112 68.0442 75.112 67.8559C75.112 67.6615 75.1788 67.5005 75.3125 67.373C75.4522 67.2393 75.6283 67.1725 75.841 67.1725C76.0536 67.1725 76.2267 67.2363 76.3603 67.3639C76.5001 67.4854 76.5699 67.6403 76.5699 67.8286C76.5699 68.029 76.5031 68.1991 76.3695 68.3389C76.2358 68.4725 76.0596 68.5393 75.841 68.5393ZM81.3127 69.2865C81.7015 69.2865 82.0477 69.3624 82.3514 69.5143C82.6613 69.6662 82.9042 69.9001 83.0804 70.2159C83.2566 70.5258 83.3447 70.9267 83.3447 71.4187V74.207H82.2057V71.5645C82.2057 71.1332 82.1024 70.8113 81.8958 70.5987C81.6954 70.386 81.4129 70.2797 81.0484 70.2797C80.7811 70.2797 80.5442 70.3344 80.3377 70.4437C80.1311 70.5531 79.9702 70.7171 79.8547 70.9358C79.7454 71.1484 79.6907 71.4187 79.6907 71.7468V74.207H78.5517V69.3412H79.6361V70.6533L79.4447 70.2524C79.6148 69.9426 79.8608 69.7057 80.1828 69.5417C80.5108 69.3716 80.8874 69.2865 81.3127 69.2865ZM86.3699 73.1227L86.3972 71.6921L88.9395 69.3412H90.3063L88.1467 71.5099L87.5453 72.011L86.3699 73.1227ZM85.4404 74.207V67.4459H86.5794V74.207H85.4404ZM89.1126 74.207L87.3357 72.011L88.0556 71.0998L90.4976 74.207H89.1126ZM93.9756 74.2708C93.4349 74.2708 92.9611 74.1645 92.5541 73.9519C92.1532 73.7332 91.8403 73.4355 91.6156 73.0589C91.3969 72.6823 91.2875 72.254 91.2875 71.7741C91.2875 71.2881 91.3938 70.8599 91.6064 70.4893C91.8251 70.1127 92.1228 69.8181 92.4994 69.6054C92.8821 69.3928 93.3165 69.2865 93.8025 69.2865C94.2763 69.2865 94.6985 69.3898 95.069 69.5963C95.4396 69.8029 95.7312 70.0945 95.9438 70.4711C96.1564 70.8477 96.2627 71.2912 96.2627 71.8014C96.2627 71.85 96.2597 71.9047 96.2536 71.9655C96.2536 72.0262 96.2506 72.0839 96.2445 72.1386H92.1896V71.3823H95.6431L95.1966 71.6192C95.2027 71.3398 95.145 71.0937 95.0235 70.8811C94.902 70.6685 94.7349 70.5015 94.5223 70.38C94.3158 70.2585 94.0758 70.1977 93.8025 70.1977C93.523 70.1977 93.277 70.2585 93.0644 70.38C92.8578 70.5015 92.6938 70.6715 92.5723 70.8902C92.4569 71.1029 92.3992 71.355 92.3992 71.6465V71.8288C92.3992 72.1204 92.466 72.3785 92.5997 72.6033C92.7333 72.8281 92.9216 73.0012 93.1646 73.1227C93.4076 73.2442 93.687 73.3049 94.0029 73.3049C94.2763 73.3049 94.5223 73.2624 94.741 73.1774C94.9597 73.0923 95.1541 72.9587 95.3242 72.7764L95.9347 73.4781C95.716 73.7332 95.4396 73.9306 95.1055 74.0704C94.7774 74.204 94.4008 74.2708 93.9756 74.2708ZM100.067 74.2708C99.5992 74.2708 99.177 74.1675 98.8004 73.961C98.4299 73.7484 98.1383 73.4568 97.9257 73.0862C97.713 72.7157 97.6067 72.2783 97.6067 71.7741C97.6067 71.2699 97.713 70.8325 97.9257 70.462C98.1383 70.0914 98.4299 69.8029 98.8004 69.5963C99.177 69.3898 99.5992 69.2865 100.067 69.2865C100.474 69.2865 100.838 69.3776 101.16 69.5599C101.482 69.736 101.738 70.0064 101.926 70.3708C102.114 70.7353 102.208 71.2031 102.208 71.7741C102.208 72.3391 102.117 72.8068 101.935 73.1774C101.753 73.5419 101.501 73.8152 101.179 73.9975C100.857 74.1797 100.486 74.2708 100.067 74.2708ZM100.204 73.2958C100.477 73.2958 100.72 73.2351 100.933 73.1136C101.151 72.9921 101.324 72.8159 101.452 72.5851C101.586 72.3542 101.652 72.0839 101.652 71.7741C101.652 71.4582 101.586 71.1879 101.452 70.9631C101.324 70.7323 101.151 70.5561 100.933 70.4346C100.72 70.3131 100.477 70.2524 100.204 70.2524C99.9303 70.2524 99.6843 70.3131 99.4656 70.4346C99.253 70.5561 99.0798 70.7323 98.9462 70.9631C98.8186 71.1879 98.7549 71.4582 98.7549 71.7741C98.7549 72.0839 98.8186 72.3542 98.9462 72.5851C99.0798 72.8159 99.253 72.9921 99.4656 73.1136C99.6843 73.2351 99.9303 73.2958 100.204 73.2958ZM101.68 74.207V73.0589L101.725 71.765L101.634 70.4711V67.4459H102.764V74.207H101.68ZM105.024 74.207V67.8286H106.208V74.207H105.024ZM111.236 69.2865C111.625 69.2865 111.971 69.3624 112.275 69.5143C112.584 69.6662 112.827 69.9001 113.004 70.2159C113.18 70.5258 113.268 70.9267 113.268 71.4187V74.207H112.129V71.5645C112.129 71.1332 112.026 70.8113 111.819 70.5987C111.619 70.386 111.336 70.2797 110.972 70.2797C110.704 70.2797 110.467 70.3344 110.261 70.4437C110.054 70.5531 109.893 70.7171 109.778 70.9358C109.669 71.1484 109.614 71.4187 109.614 71.7468V74.207H108.475V69.3412H109.559V70.6533L109.368 70.2524C109.538 69.9426 109.784 69.7057 110.106 69.5417C110.434 69.3716 110.811 69.2865 111.236 69.2865Z" fill="#82878E"/>
<path d="M245.686 77.3008V67.4754L247.014 68.7563H243.656V66.3663H248.779V77.3008H245.686ZM251.663 77.3008V75.3638L255.756 71.5367C256.047 71.266 256.261 71.0265 256.396 70.8182C256.542 70.6099 256.636 70.4225 256.677 70.2558C256.729 70.0788 256.755 69.9174 256.755 69.7716C256.755 69.4175 256.636 69.1416 256.396 68.9437C256.167 68.7458 255.818 68.6469 255.349 68.6469C254.954 68.6469 254.584 68.7354 254.24 68.9125C253.897 69.0895 253.616 69.3551 253.397 69.7091L251.101 68.4282C251.507 67.7409 252.095 67.189 252.866 66.7724C253.636 66.3559 254.558 66.1476 255.631 66.1476C256.474 66.1476 257.214 66.283 257.849 66.5537C258.484 66.8245 258.979 67.2098 259.333 67.7097C259.697 68.2095 259.879 68.7979 259.879 69.4748C259.879 69.8289 259.833 70.183 259.739 70.537C259.645 70.8807 259.463 71.2504 259.192 71.6461C258.932 72.0314 258.541 72.4636 258.021 72.9426L254.772 75.9418L254.256 74.8483H260.176V77.3008H251.663ZM266.033 77.5195C265.273 77.5195 264.513 77.4257 263.753 77.2383C263.003 77.0509 262.347 76.7853 261.785 76.4416L262.909 74.1142C263.347 74.4057 263.831 74.6296 264.362 74.7858C264.904 74.9421 265.429 75.0202 265.94 75.0202C266.471 75.0202 266.893 74.9212 267.205 74.7234C267.517 74.5255 267.674 74.2443 267.674 73.8798C267.674 73.557 267.543 73.3019 267.283 73.1144C267.023 72.9166 266.596 72.8176 266.002 72.8176H264.706V70.8651L267.642 67.6941L267.939 68.7563H262.347V66.3663H270.251V68.3033L267.314 71.4743L265.799 70.6151H266.643C268.007 70.6151 269.038 70.9223 269.736 71.5367C270.444 72.1407 270.798 72.9218 270.798 73.8798C270.798 74.5047 270.626 75.0931 270.282 75.645C269.949 76.1969 269.434 76.6499 268.736 77.004C268.038 77.3476 267.137 77.5195 266.033 77.5195ZM276.671 77.5195C275.911 77.5195 275.151 77.4257 274.39 77.2383C273.641 77.0509 272.985 76.7853 272.422 76.4416L273.547 74.1142C273.984 74.4057 274.469 74.6296 275 74.7858C275.541 74.9421 276.067 75.0202 276.577 75.0202C277.108 75.0202 277.53 74.9212 277.843 74.7234C278.155 74.5255 278.311 74.2443 278.311 73.8798C278.311 73.557 278.181 73.3019 277.921 73.1144C277.66 72.9166 277.233 72.8176 276.64 72.8176H275.343V70.8651L278.28 67.6941L278.577 68.7563H272.985V66.3663H280.889V68.3033L277.952 71.4743L276.437 70.6151H277.28C278.644 70.6151 279.675 70.9223 280.373 71.5367C281.081 72.1407 281.435 72.9218 281.435 73.8798C281.435 74.5047 281.264 75.0931 280.92 75.645C280.587 76.1969 280.071 76.6499 279.373 77.004C278.676 77.3476 277.775 77.5195 276.671 77.5195Z" fill="#BCC5D0"/>
<g filter="url(#filter4_d_1312_15309)">
<path d="M58 93.6386C58 92.2008 59.1656 91.0352 60.6034 91.0352H289.707C291.145 91.0352 292.31 92.2008 292.31 93.6386V109.259C292.31 110.697 291.145 111.863 289.707 111.863H60.6035C59.1656 111.863 58 110.697 58 109.259V93.6386Z" fill="white"/>
</g>
<path d="M58 93.6386C58 92.2008 59.1656 91.0352 60.6034 91.0352H212.905V111.863H60.6035C59.1656 111.863 58 110.697 58 109.259V93.6386Z" fill="#FABF00"/>
<path d="M58 93.6386C58 92.2008 59.1656 91.0352 60.6034 91.0352H212.905V111.863H60.6035C59.1656 111.863 58 110.697 58 109.259V93.6386Z" fill="white" fill-opacity="0.4"/>
<path d="M58 93.6386C58 92.2008 59.1656 91.0352 60.6034 91.0352H212.905V111.863H60.6035C59.1656 111.863 58 110.697 58 109.259V93.6386Z" stroke="#FABF00"/>
<path d="M72.2502 104.333C71.7521 104.333 71.2935 104.254 70.8743 104.096C70.4612 103.932 70.0998 103.705 69.79 103.413C69.4802 103.115 69.2402 102.766 69.0701 102.365C68.9 101.964 68.815 101.527 68.815 101.053C68.815 100.579 68.9 100.142 69.0701 99.7408C69.2402 99.3399 69.4802 98.9936 69.79 98.702C70.1059 98.4044 70.4734 98.1766 70.8925 98.0186C71.3117 97.8546 71.7703 97.7726 72.2685 97.7726C72.8091 97.7726 73.2951 97.8607 73.7264 98.0369C74.1638 98.213 74.5313 98.4712 74.829 98.8114L74.0818 99.5404C73.8327 99.2913 73.5624 99.1091 73.2708 98.9936C72.9853 98.8721 72.6694 98.8114 72.3231 98.8114C71.989 98.8114 71.6792 98.8661 71.3937 98.9754C71.1082 99.0848 70.8622 99.2397 70.6556 99.4401C70.4491 99.6406 70.2881 99.8775 70.1727 100.151C70.0633 100.424 70.0087 100.725 70.0087 101.053C70.0087 101.375 70.0633 101.673 70.1727 101.946C70.2881 102.219 70.4491 102.459 70.6556 102.666C70.8622 102.866 71.1052 103.021 71.3846 103.131C71.664 103.24 71.9738 103.295 72.314 103.295C72.6299 103.295 72.9336 103.246 73.2252 103.149C73.5229 103.045 73.8054 102.875 74.0727 102.638L74.747 103.522C74.4128 103.79 74.0241 103.993 73.5806 104.133C73.1432 104.266 72.6998 104.333 72.2502 104.333ZM73.6262 103.367V100.98H74.747V103.522L73.6262 103.367ZM79.0377 104.306C78.5396 104.306 78.0961 104.2 77.7074 103.987C77.3186 103.768 77.0118 103.471 76.787 103.094C76.5623 102.717 76.4499 102.289 76.4499 101.809C76.4499 101.323 76.5623 100.895 76.787 100.524C77.0118 100.148 77.3186 99.8532 77.7074 99.6406C78.0961 99.428 78.5396 99.3217 79.0377 99.3217C79.5419 99.3217 79.9884 99.428 80.3772 99.6406C80.7721 99.8532 81.0788 100.145 81.2975 100.515C81.5223 100.886 81.6347 101.317 81.6347 101.809C81.6347 102.289 81.5223 102.717 81.2975 103.094C81.0788 103.471 80.7721 103.768 80.3772 103.987C79.9884 104.2 79.5419 104.306 79.0377 104.306ZM79.0377 103.331C79.3172 103.331 79.5662 103.27 79.7849 103.149C80.0036 103.027 80.1737 102.851 80.2952 102.62C80.4228 102.389 80.4865 102.119 80.4865 101.809C80.4865 101.493 80.4228 101.223 80.2952 100.998C80.1737 100.767 80.0036 100.591 79.7849 100.47C79.5662 100.348 79.3202 100.288 79.0468 100.288C78.7674 100.288 78.5183 100.348 78.2997 100.47C78.087 100.591 77.9169 100.767 77.7894 100.998C77.6618 101.223 77.598 101.493 77.598 101.809C77.598 102.119 77.6618 102.389 77.7894 102.62C77.9169 102.851 78.087 103.027 78.2997 103.149C78.5183 103.27 78.7644 103.331 79.0377 103.331ZM85.5616 104.306C85.0635 104.306 84.62 104.2 84.2312 103.987C83.8425 103.768 83.5357 103.471 83.3109 103.094C83.0862 102.717 82.9738 102.289 82.9738 101.809C82.9738 101.323 83.0862 100.895 83.3109 100.524C83.5357 100.148 83.8425 99.8532 84.2312 99.6406C84.62 99.428 85.0635 99.3217 85.5616 99.3217C86.0658 99.3217 86.5123 99.428 86.9011 99.6406C87.2959 99.8532 87.6027 100.145 87.8214 100.515C88.0462 100.886 88.1585 101.317 88.1585 101.809C88.1585 102.289 88.0462 102.717 87.8214 103.094C87.6027 103.471 87.2959 103.768 86.9011 103.987C86.5123 104.2 86.0658 104.306 85.5616 104.306ZM85.5616 103.331C85.841 103.331 86.0901 103.27 86.3088 103.149C86.5275 103.027 86.6976 102.851 86.8191 102.62C86.9466 102.389 87.0104 102.119 87.0104 101.809C87.0104 101.493 86.9466 101.223 86.8191 100.998C86.6976 100.767 86.5275 100.591 86.3088 100.47C86.0901 100.348 85.8441 100.288 85.5707 100.288C85.2913 100.288 85.0422 100.348 84.8235 100.47C84.6109 100.591 84.4408 100.767 84.3133 100.998C84.1857 101.223 84.1219 101.493 84.1219 101.809C84.1219 102.119 84.1857 102.389 84.3133 102.62C84.4408 102.851 84.6109 103.027 84.8235 103.149C85.0422 103.27 85.2882 103.331 85.5616 103.331ZM92.1037 106.074C91.6542 106.074 91.2138 106.013 90.7825 105.891C90.3572 105.776 90.0079 105.606 89.7346 105.381L90.2448 104.525C90.4575 104.701 90.7247 104.841 91.0467 104.944C91.3747 105.053 91.7058 105.108 92.0399 105.108C92.5745 105.108 92.9663 104.983 93.2154 104.734C93.4644 104.491 93.589 104.124 93.589 103.632V102.766L93.6801 101.663L93.6436 100.561V99.3763H94.728V103.504C94.728 104.385 94.5032 105.032 94.0537 105.445C93.6042 105.864 92.9542 106.074 92.1037 106.074ZM91.9579 104.023C91.4962 104.023 91.0771 103.926 90.7004 103.732C90.3299 103.531 90.0353 103.255 89.8166 102.903C89.604 102.55 89.4977 102.137 89.4977 101.663C89.4977 101.196 89.604 100.786 89.8166 100.433C90.0353 100.081 90.3299 99.8076 90.7004 99.6133C91.0771 99.4189 91.4962 99.3217 91.9579 99.3217C92.371 99.3217 92.7415 99.4037 93.0696 99.5677C93.3976 99.7317 93.6588 99.9869 93.8532 100.333C94.0537 100.679 94.1539 101.123 94.1539 101.663C94.1539 102.204 94.0537 102.651 93.8532 103.003C93.6588 103.349 93.3976 103.607 93.0696 103.777C92.7415 103.941 92.371 104.023 91.9579 104.023ZM92.131 103.058C92.4166 103.058 92.6717 103 92.8965 102.884C93.1212 102.763 93.2943 102.599 93.4158 102.392C93.5434 102.18 93.6072 101.937 93.6072 101.663C93.6072 101.39 93.5434 101.15 93.4158 100.944C93.2943 100.731 93.1212 100.57 92.8965 100.461C92.6717 100.345 92.4166 100.288 92.131 100.288C91.8455 100.288 91.5874 100.345 91.3565 100.461C91.1318 100.57 90.9556 100.731 90.828 100.944C90.7065 101.15 90.6458 101.39 90.6458 101.663C90.6458 101.937 90.7065 102.18 90.828 102.392C90.9556 102.599 91.1318 102.763 91.3565 102.884C91.5874 103 91.8455 103.058 92.131 103.058ZM96.8763 104.242V97.481H98.0153V104.242H96.8763ZM102.448 104.306C101.908 104.306 101.434 104.2 101.027 103.987C100.626 103.768 100.313 103.471 100.088 103.094C99.8695 102.717 99.7602 102.289 99.7602 101.809C99.7602 101.323 99.8665 100.895 100.079 100.524C100.298 100.148 100.595 99.8532 100.972 99.6406C101.355 99.428 101.789 99.3217 102.275 99.3217C102.749 99.3217 103.171 99.4249 103.542 99.6315C103.912 99.838 104.204 100.13 104.416 100.506C104.629 100.883 104.735 101.326 104.735 101.837C104.735 101.885 104.732 101.94 104.726 102.001C104.726 102.061 104.723 102.119 104.717 102.174H100.662V101.417H104.116L103.669 101.654C103.675 101.375 103.618 101.129 103.496 100.916C103.375 100.704 103.208 100.537 102.995 100.415C102.788 100.294 102.548 100.233 102.275 100.233C101.996 100.233 101.75 100.294 101.537 100.415C101.33 100.537 101.166 100.707 101.045 100.925C100.93 101.138 100.872 101.39 100.872 101.682V101.864C100.872 102.156 100.939 102.414 101.072 102.638C101.206 102.863 101.394 103.036 101.637 103.158C101.88 103.279 102.16 103.34 102.476 103.34C102.749 103.34 102.995 103.298 103.214 103.213C103.432 103.127 103.627 102.994 103.797 102.812L104.407 103.513C104.189 103.768 103.912 103.966 103.578 104.106C103.25 104.239 102.873 104.306 102.448 104.306Z" fill="#82878E"/>
<path d="M249.145 105.243V103.228L254.05 96.4015H257.252L252.488 103.228L251.019 102.79H259.564V105.243H249.145ZM254.925 107.336V105.243L255.018 102.79V100.931H257.939V107.336H254.925ZM265.321 107.555C264.571 107.555 263.816 107.461 263.056 107.273C262.295 107.086 261.639 106.82 261.087 106.477L262.196 104.149C262.644 104.441 263.128 104.665 263.649 104.821C264.18 104.977 264.706 105.055 265.227 105.055C265.748 105.055 266.169 104.956 266.492 104.759C266.815 104.55 266.976 104.264 266.976 103.899C266.976 103.681 266.914 103.488 266.789 103.321C266.664 103.144 266.45 103.014 266.148 102.931C265.846 102.837 265.414 102.79 264.852 102.79H261.884L262.431 96.4015H269.398V98.7914H263.524L265.102 97.4324L264.743 101.744L263.165 100.385H265.586C266.669 100.385 267.539 100.541 268.195 100.853C268.851 101.155 269.33 101.567 269.632 102.087C269.934 102.598 270.085 103.176 270.085 103.821C270.085 104.467 269.913 105.076 269.569 105.649C269.236 106.211 268.721 106.669 268.023 107.024C267.325 107.378 266.424 107.555 265.321 107.555ZM277.345 107.555C276.324 107.555 275.434 107.352 274.674 106.945C273.924 106.539 273.335 105.935 272.908 105.133C272.492 104.332 272.284 103.342 272.284 102.165C272.284 100.895 272.528 99.8172 273.018 98.932C273.518 98.0364 274.2 97.3543 275.064 96.8857C275.939 96.4171 276.949 96.1828 278.094 96.1828C278.709 96.1828 279.297 96.2557 279.86 96.4015C280.432 96.5368 280.917 96.7295 281.312 96.9794L280.188 99.1976C279.875 98.9789 279.547 98.8331 279.204 98.7602C278.87 98.6769 278.527 98.6352 278.173 98.6352C277.329 98.6352 276.652 98.8904 276.142 99.4006C275.642 99.9109 275.392 100.655 275.392 101.634C275.392 101.811 275.392 101.999 275.392 102.197C275.402 102.384 275.423 102.577 275.455 102.775L274.674 102.134C274.882 101.749 275.132 101.426 275.423 101.166C275.725 100.905 276.079 100.708 276.486 100.572C276.902 100.437 277.365 100.369 277.876 100.369C278.563 100.369 279.188 100.515 279.75 100.806C280.323 101.088 280.781 101.489 281.125 102.009C281.469 102.52 281.64 103.124 281.64 103.821C281.64 104.581 281.448 105.243 281.062 105.805C280.677 106.357 280.162 106.789 279.516 107.102C278.87 107.404 278.147 107.555 277.345 107.555ZM277.157 105.352C277.449 105.352 277.704 105.295 277.923 105.18C278.152 105.066 278.329 104.904 278.454 104.696C278.579 104.488 278.641 104.243 278.641 103.962C278.641 103.545 278.501 103.212 278.219 102.962C277.949 102.712 277.589 102.587 277.142 102.587C276.84 102.587 276.574 102.645 276.345 102.759C276.126 102.874 275.949 103.035 275.814 103.243C275.689 103.452 275.626 103.696 275.626 103.977C275.626 104.248 275.689 104.488 275.814 104.696C275.939 104.894 276.116 105.055 276.345 105.18C276.574 105.295 276.845 105.352 277.157 105.352Z" fill="#BCC5D0"/>
<g filter="url(#filter5_d_1312_15309)">
<path d="M58 123.67C58 122.232 59.1656 121.066 60.6034 121.066H289.707C291.145 121.066 292.31 122.232 292.31 123.67V139.291C292.31 140.728 291.145 141.894 289.707 141.894H60.6035C59.1656 141.894 58 140.728 58 139.291V123.67Z" fill="white"/>
</g>
<path d="M58 123.67C58 122.232 59.1656 121.066 60.6034 121.066H194.03V141.894H60.6035C59.1656 141.894 58 140.728 58 139.291V123.67Z" fill="#FABF00"/>
<path d="M58 123.67C58 122.232 59.1656 121.066 60.6034 121.066H194.03V141.894H60.6035C59.1656 141.894 58 140.728 58 139.291V123.67Z" fill="white" fill-opacity="0.4"/>
<path d="M58 123.67C58 122.232 59.1656 121.066 60.6034 121.066H194.03V141.894H60.6035C59.1656 141.894 58 140.728 58 139.291V123.67Z" stroke="#FABF00"/>
<path d="M70.3549 130.829H73.535V131.831H70.3549V130.829ZM70.4552 134.273H69.2706V127.895H73.9269V128.888H70.4552V134.273ZM78.4516 134.273V133.289L78.3879 133.08V131.358C78.3879 131.023 78.2876 130.765 78.0872 130.583C77.8867 130.395 77.583 130.301 77.1759 130.301C76.9026 130.301 76.6323 130.343 76.365 130.428C76.1038 130.513 75.882 130.632 75.6998 130.784L75.2533 129.954C75.5145 129.754 75.8243 129.605 76.1827 129.508C76.5472 129.405 76.9238 129.353 77.3126 129.353C78.0173 129.353 78.561 129.523 78.9437 129.863C79.3325 130.197 79.5269 130.717 79.5269 131.421V134.273H78.4516ZM76.9208 134.337C76.5563 134.337 76.2374 134.276 75.964 134.155C75.6907 134.027 75.4781 133.854 75.3262 133.636C75.1804 133.411 75.1075 133.159 75.1075 132.879C75.1075 132.606 75.1713 132.36 75.2989 132.141C75.4325 131.923 75.6482 131.749 75.9458 131.622C76.2435 131.494 76.6383 131.43 77.1304 131.43H78.5428V132.187H77.2124C76.8236 132.187 76.5624 132.251 76.4288 132.378C76.2951 132.5 76.2283 132.651 76.2283 132.834C76.2283 133.04 76.3103 133.204 76.4743 133.326C76.6383 133.447 76.8661 133.508 77.1577 133.508C77.4372 133.508 77.6862 133.444 77.9049 133.317C78.1297 133.189 78.2907 133.001 78.3879 132.752L78.5792 133.435C78.4699 133.721 78.2724 133.942 77.9869 134.1C77.7075 134.258 77.3521 134.337 76.9208 134.337ZM83.8809 134.337C83.3706 134.337 82.915 134.231 82.514 134.018C82.1192 133.8 81.8094 133.502 81.5846 133.125C81.3598 132.749 81.2475 132.32 81.2475 131.841C81.2475 131.355 81.3598 130.926 81.5846 130.556C81.8094 130.179 82.1192 129.884 82.514 129.672C82.915 129.459 83.3706 129.353 83.8809 129.353C84.3547 129.353 84.7708 129.45 85.1292 129.645C85.4937 129.833 85.7701 130.112 85.9584 130.483L85.0836 130.993C84.9379 130.762 84.7586 130.592 84.546 130.483C84.3395 130.373 84.1147 130.319 83.8717 130.319C83.5923 130.319 83.3402 130.38 83.1154 130.501C82.8907 130.623 82.7145 130.799 82.5869 131.03C82.4594 131.254 82.3956 131.525 82.3956 131.841C82.3956 132.156 82.4594 132.43 82.5869 132.661C82.7145 132.885 82.8907 133.058 83.1154 133.18C83.3402 133.301 83.5923 133.362 83.8717 133.362C84.1147 133.362 84.3395 133.308 84.546 133.198C84.7586 133.089 84.9379 132.919 85.0836 132.688L85.9584 133.198C85.7701 133.563 85.4937 133.845 85.1292 134.046C84.7708 134.24 84.3547 134.337 83.8809 134.337ZM89.8098 134.337C89.2692 134.337 88.7953 134.231 88.3883 134.018C87.9874 133.8 87.6745 133.502 87.4498 133.125C87.2311 132.749 87.1218 132.32 87.1218 131.841C87.1218 131.355 87.2281 130.926 87.4407 130.556C87.6594 130.179 87.957 129.884 88.3337 129.672C88.7164 129.459 89.1507 129.353 89.6367 129.353C90.1105 129.353 90.5327 129.456 90.9033 129.663C91.2738 129.869 91.5654 130.161 91.778 130.537C91.9906 130.914 92.0969 131.358 92.0969 131.868C92.0969 131.916 92.0939 131.971 92.0878 132.032C92.0878 132.093 92.0848 132.15 92.0787 132.205H88.0238V131.449H91.4773L91.0308 131.686C91.0369 131.406 90.9792 131.16 90.8577 130.948C90.7362 130.735 90.5692 130.568 90.3565 130.446C90.15 130.325 89.91 130.264 89.6367 130.264C89.3572 130.264 89.1112 130.325 88.8986 130.446C88.6921 130.568 88.528 130.738 88.4066 130.957C88.2911 131.169 88.2334 131.421 88.2334 131.713V131.895C88.2334 132.187 88.3002 132.445 88.4339 132.67C88.5675 132.894 88.7558 133.068 88.9988 133.189C89.2418 133.311 89.5213 133.371 89.8371 133.371C90.1105 133.371 90.3565 133.329 90.5752 133.244C90.7939 133.159 90.9883 133.025 91.1584 132.843L91.7689 133.544C91.5502 133.8 91.2738 133.997 90.9397 134.137C90.6117 134.27 90.235 134.337 89.8098 134.337ZM96.5391 134.337C96.126 134.337 95.7585 134.246 95.4365 134.064C95.1145 133.882 94.8594 133.608 94.6711 133.244C94.4888 132.873 94.3977 132.405 94.3977 131.841C94.3977 131.269 94.4919 130.802 94.6802 130.437C94.8746 130.073 95.1328 129.802 95.4547 129.626C95.7828 129.444 96.1442 129.353 96.5391 129.353C97.019 129.353 97.4412 129.456 97.8056 129.663C98.1762 129.869 98.4678 130.158 98.6804 130.528C98.8991 130.899 99.0084 131.336 99.0084 131.841C99.0084 132.345 98.8991 132.782 98.6804 133.153C98.4678 133.523 98.1762 133.815 97.8056 134.027C97.4412 134.234 97.019 134.337 96.5391 134.337ZM93.8419 134.273V127.512H94.9809V130.537L94.8898 131.831L94.9262 133.125V134.273H93.8419ZM96.4115 133.362C96.6849 133.362 96.9278 133.301 97.1405 133.18C97.3592 133.058 97.5323 132.882 97.6598 132.651C97.7874 132.421 97.8512 132.15 97.8512 131.841C97.8512 131.525 97.7874 131.254 97.6598 131.03C97.5323 130.799 97.3592 130.623 97.1405 130.501C96.9278 130.38 96.6849 130.319 96.4115 130.319C96.1381 130.319 95.8921 130.38 95.6734 130.501C95.4547 130.623 95.2816 130.799 95.154 131.03C95.0265 131.254 94.9627 131.525 94.9627 131.841C94.9627 132.15 95.0265 132.421 95.154 132.651C95.2816 132.882 95.4547 133.058 95.6734 133.18C95.8921 133.301 96.1381 133.362 96.4115 133.362ZM102.926 134.337C102.428 134.337 101.985 134.231 101.596 134.018C101.207 133.8 100.9 133.502 100.676 133.125C100.451 132.749 100.339 132.32 100.339 131.841C100.339 131.355 100.451 130.926 100.676 130.556C100.9 130.179 101.207 129.884 101.596 129.672C101.985 129.459 102.428 129.353 102.926 129.353C103.431 129.353 103.877 129.459 104.266 129.672C104.661 129.884 104.968 130.176 105.186 130.547C105.411 130.917 105.523 131.348 105.523 131.841C105.523 132.32 105.411 132.749 105.186 133.125C104.968 133.502 104.661 133.8 104.266 134.018C103.877 134.231 103.431 134.337 102.926 134.337ZM102.926 133.362C103.206 133.362 103.455 133.301 103.674 133.18C103.892 133.058 104.062 132.882 104.184 132.651C104.311 132.421 104.375 132.15 104.375 131.841C104.375 131.525 104.311 131.254 104.184 131.03C104.062 130.799 103.892 130.623 103.674 130.501C103.455 130.38 103.209 130.319 102.936 130.319C102.656 130.319 102.407 130.38 102.188 130.501C101.976 130.623 101.806 130.799 101.678 131.03C101.55 131.254 101.487 131.525 101.487 131.841C101.487 132.15 101.55 132.421 101.678 132.651C101.806 132.882 101.976 133.058 102.188 133.18C102.407 133.301 102.653 133.362 102.926 133.362ZM109.45 134.337C108.952 134.337 108.509 134.231 108.12 134.018C107.731 133.8 107.424 133.502 107.2 133.125C106.975 132.749 106.862 132.32 106.862 131.841C106.862 131.355 106.975 130.926 107.2 130.556C107.424 130.179 107.731 129.884 108.12 129.672C108.509 129.459 108.952 129.353 109.45 129.353C109.954 129.353 110.401 129.459 110.79 129.672C111.185 129.884 111.491 130.176 111.71 130.547C111.935 130.917 112.047 131.348 112.047 131.841C112.047 132.32 111.935 132.749 111.71 133.125C111.491 133.502 111.185 133.8 110.79 134.018C110.401 134.231 109.954 134.337 109.45 134.337ZM109.45 133.362C109.73 133.362 109.979 133.301 110.197 133.18C110.416 133.058 110.586 132.882 110.708 132.651C110.835 132.421 110.899 132.15 110.899 131.841C110.899 131.525 110.835 131.254 110.708 131.03C110.586 130.799 110.416 130.623 110.197 130.501C109.979 130.38 109.733 130.319 109.459 130.319C109.18 130.319 108.931 130.38 108.712 130.501C108.5 130.623 108.329 130.799 108.202 131.03C108.074 131.254 108.011 131.525 108.011 131.841C108.011 132.15 108.074 132.421 108.202 132.651C108.329 132.882 108.5 133.058 108.712 133.18C108.931 133.301 109.177 133.362 109.45 133.362ZM114.717 133.189L114.744 131.759L117.286 129.408H118.653L116.494 131.576L115.892 132.077L114.717 133.189ZM113.787 134.273V127.512H114.926V134.273H113.787ZM117.459 134.273L115.683 132.077L116.402 131.166L118.844 134.273H117.459Z" fill="#82878E"/>
<path d="M256.324 137.367V127.542L257.652 128.823H254.293V126.433H259.417V137.367H256.324ZM262.301 137.367V135.43L266.393 131.603C266.685 131.332 266.898 131.093 267.034 130.885C267.179 130.676 267.273 130.489 267.315 130.322C267.367 130.145 267.393 129.984 267.393 129.838C267.393 129.484 267.273 129.208 267.034 129.01C266.804 128.812 266.456 128.713 265.987 128.713C265.591 128.713 265.222 128.802 264.878 128.979C264.534 129.156 264.253 129.421 264.034 129.776L261.738 128.495C262.144 127.807 262.733 127.255 263.503 126.839C264.274 126.422 265.196 126.214 266.268 126.214C267.112 126.214 267.851 126.349 268.486 126.62C269.122 126.891 269.616 127.276 269.97 127.776C270.335 128.276 270.517 128.864 270.517 129.541C270.517 129.895 270.47 130.249 270.376 130.603C270.283 130.947 270.1 131.317 269.83 131.712C269.569 132.098 269.179 132.53 268.658 133.009L265.409 136.008L264.894 134.915H270.814V137.367H262.301ZM276.671 137.586C275.911 137.586 275.151 137.492 274.39 137.305C273.641 137.117 272.985 136.852 272.422 136.508L273.547 134.181C273.984 134.472 274.469 134.696 275 134.852C275.541 135.008 276.067 135.087 276.577 135.087C277.108 135.087 277.53 134.988 277.843 134.79C278.155 134.592 278.311 134.311 278.311 133.946C278.311 133.623 278.181 133.368 277.921 133.181C277.66 132.983 277.233 132.884 276.64 132.884H275.343V130.931L278.28 127.76L278.577 128.823H272.985V126.433H280.889V128.37L277.952 131.541L276.437 130.682H277.28C278.644 130.682 279.675 130.989 280.373 131.603C281.081 132.207 281.435 132.988 281.435 133.946C281.435 134.571 281.264 135.159 280.92 135.711C280.587 136.263 280.071 136.716 279.373 137.07C278.676 137.414 277.775 137.586 276.671 137.586Z" fill="#BCC5D0"/>
<defs>
<filter id="filter0_d_1312_15309" x="52.7931" y="145.899" width="244.724" height="31.2419" filterUnits="userSpaceOnUse" color-interpolation-filters="sRGB">
<feFlood flood-opacity="0" result="BackgroundImageFix"/>
<feColorMatrix in="SourceAlpha" type="matrix" values="0 0 0 0 0 0 0 0 0 0 0 0 0 0 0 0 0 0 127 0" result="hardAlpha"/>
<feOffset/>
<feGaussianBlur stdDeviation="2.60345"/>
<feColorMatrix type="matrix" values="0 0 0 0 0 0 0 0 0 0 0 0 0 0 0 0 0 0 0.06 0"/>
<feBlend mode="normal" in2="BackgroundImageFix" result="effect1_dropShadow_1312_15309"/>
<feBlend mode="normal" in="SourceGraphic" in2="effect1_dropShadow_1312_15309" result="shape"/>
</filter>
<filter id="filter1_d_1312_15309" x="52.7931" y="175.934" width="244.724" height="31.2419" filterUnits="userSpaceOnUse" color-interpolation-filters="sRGB">
<feFlood flood-opacity="0" result="BackgroundImageFix"/>
<feColorMatrix in="SourceAlpha" type="matrix" values="0 0 0 0 0 0 0 0 0 0 0 0 0 0 0 0 0 0 127 0" result="hardAlpha"/>
<feOffset/>
<feGaussianBlur stdDeviation="2.60345"/>
<feColorMatrix type="matrix" values="0 0 0 0 0 0 0 0 0 0 0 0 0 0 0 0 0 0 0.06 0"/>
<feBlend mode="normal" in2="BackgroundImageFix" result="effect1_dropShadow_1312_15309"/>
<feBlend mode="normal" in="SourceGraphic" in2="effect1_dropShadow_1312_15309" result="shape"/>
</filter>
<filter id="filter2_d_1312_15309" x="52.7931" y="205.965" width="244.724" height="31.2419" filterUnits="userSpaceOnUse" color-interpolation-filters="sRGB">
<feFlood flood-opacity="0" result="BackgroundImageFix"/>
<feColorMatrix in="SourceAlpha" type="matrix" values="0 0 0 0 0 0 0 0 0 0 0 0 0 0 0 0 0 0 127 0" result="hardAlpha"/>
<feOffset/>
<feGaussianBlur stdDeviation="2.60345"/>
<feColorMatrix type="matrix" values="0 0 0 0 0 0 0 0 0 0 0 0 0 0 0 0 0 0 0.06 0"/>
<feBlend mode="normal" in2="BackgroundImageFix" result="effect1_dropShadow_1312_15309"/>
<feBlend mode="normal" in="SourceGraphic" in2="effect1_dropShadow_1312_15309" result="shape"/>
</filter>
<filter id="filter3_d_1312_15309" x="52.7931" y="55.7931" width="244.724" height="31.2419" filterUnits="userSpaceOnUse" color-interpolation-filters="sRGB">
<feFlood flood-opacity="0" result="BackgroundImageFix"/>
<feColorMatrix in="SourceAlpha" type="matrix" values="0 0 0 0 0 0 0 0 0 0 0 0 0 0 0 0 0 0 127 0" result="hardAlpha"/>
<feOffset/>
<feGaussianBlur stdDeviation="2.60345"/>
<feColorMatrix type="matrix" values="0 0 0 0 0 0 0 0 0 0 0 0 0 0 0 0 0 0 0.06 0"/>
<feBlend mode="normal" in2="BackgroundImageFix" result="effect1_dropShadow_1312_15309"/>
<feBlend mode="normal" in="SourceGraphic" in2="effect1_dropShadow_1312_15309" result="shape"/>
</filter>
<filter id="filter4_d_1312_15309" x="52.7931" y="85.8283" width="244.724" height="31.2419" filterUnits="userSpaceOnUse" color-interpolation-filters="sRGB">
<feFlood flood-opacity="0" result="BackgroundImageFix"/>
<feColorMatrix in="SourceAlpha" type="matrix" values="0 0 0 0 0 0 0 0 0 0 0 0 0 0 0 0 0 0 127 0" result="hardAlpha"/>
<feOffset/>
<feGaussianBlur stdDeviation="2.60345"/>
<feColorMatrix type="matrix" values="0 0 0 0 0 0 0 0 0 0 0 0 0 0 0 0 0 0 0.06 0"/>
<feBlend mode="normal" in2="BackgroundImageFix" result="effect1_dropShadow_1312_15309"/>
<feBlend mode="normal" in="SourceGraphic" in2="effect1_dropShadow_1312_15309" result="shape"/>
</filter>
<filter id="filter5_d_1312_15309" x="52.7931" y="115.86" width="244.724" height="31.2419" filterUnits="userSpaceOnUse" color-interpolation-filters="sRGB">
<feFlood flood-opacity="0" result="BackgroundImageFix"/>
<feColorMatrix in="SourceAlpha" type="matrix" values="0 0 0 0 0 0 0 0 0 0 0 0 0 0 0 0 0 0 127 0" result="hardAlpha"/>
<feOffset/>
<feGaussianBlur stdDeviation="2.60345"/>
<feColorMatrix type="matrix" values="0 0 0 0 0 0 0 0 0 0 0 0 0 0 0 0 0 0 0.06 0"/>
<feBlend mode="normal" in2="BackgroundImageFix" result="effect1_dropShadow_1312_15309"/>
<feBlend mode="normal" in="SourceGraphic" in2="effect1_dropShadow_1312_15309" result="shape"/>
</filter>
</defs>
</svg>
