<svg width="628" height="456" viewBox="0 0 628 456" fill="none" xmlns="http://www.w3.org/2000/svg">
<circle cx="35.129" cy="49.129" r="1.12904" fill="#D9D9D9"/>
<circle cx="46.4201" cy="49.129" r="1.12904" fill="#D9D9D9"/>
<circle cx="57.7091" cy="49.129" r="1.12904" fill="#D9D9D9"/>
<circle cx="69.0001" cy="49.129" r="1.12904" fill="#D9D9D9"/>
<circle cx="80.2912" cy="49.129" r="1.12904" fill="#D9D9D9"/>
<circle cx="91.5822" cy="49.129" r="1.12904" fill="#D9D9D9"/>
<circle cx="35.129" cy="60.4181" r="1.12904" fill="#D9D9D9"/>
<circle cx="46.4201" cy="60.4181" r="1.12904" fill="#D9D9D9"/>
<circle cx="57.7091" cy="60.4181" r="1.12904" fill="#D9D9D9"/>
<circle cx="69.0001" cy="60.4181" r="1.12904" fill="#1245C7"/>
<circle cx="80.2912" cy="60.4181" r="1.12904" fill="#D9D9D9"/>
<circle cx="91.5822" cy="60.4181" r="1.12904" fill="#D9D9D9"/>
<circle cx="35.129" cy="71.7111" r="1.12904" fill="#D9D9D9"/>
<circle cx="46.4201" cy="71.7111" r="1.12904" fill="#D9D9D9"/>
<circle cx="57.7091" cy="71.7111" r="1.12904" fill="#D9D9D9"/>
<circle cx="69.0001" cy="71.7111" r="1.12904" fill="#D9D9D9"/>
<circle cx="80.2912" cy="71.7111" r="1.12904" fill="#D9D9D9"/>
<circle cx="91.5822" cy="71.7111" r="1.12904" fill="#D9D9D9"/>
<circle cx="35.129" cy="83.0001" r="1.12904" fill="#D9D9D9"/>
<circle cx="46.4201" cy="83.0001" r="1.12904" fill="#1245C7"/>
<circle cx="57.7091" cy="83.0001" r="1.12904" fill="#D9D9D9"/>
<circle cx="69.0001" cy="83.0001" r="1.12904" fill="#D9D9D9"/>
<circle cx="80.2912" cy="83.0001" r="1.12904" fill="#D9D9D9"/>
<circle cx="91.5822" cy="83.0001" r="1.12904" fill="#D9D9D9"/>
<circle cx="35.129" cy="94.2892" r="1.12904" fill="#D9D9D9"/>
<circle cx="46.4201" cy="94.2892" r="1.12904" fill="#D9D9D9"/>
<circle cx="57.7091" cy="94.2892" r="1.12904" fill="#D9D9D9"/>
<circle cx="69.0001" cy="94.2892" r="1.12904" fill="#D9D9D9"/>
<circle cx="80.2912" cy="94.2892" r="1.12904" fill="#D9D9D9"/>
<circle cx="91.5822" cy="94.2892" r="1.12904" fill="#D9D9D9"/>
<circle cx="35.129" cy="105.582" r="1.12904" fill="#D9D9D9"/>
<circle cx="46.4201" cy="105.582" r="1.12904" fill="#D9D9D9"/>
<circle cx="57.7091" cy="105.582" r="1.12904" fill="#D9D9D9"/>
<circle cx="69.0001" cy="105.582" r="1.12904" fill="#D9D9D9"/>
<circle cx="80.2912" cy="105.582" r="1.12904" fill="#1245C7"/>
<circle cx="91.5822" cy="105.582" r="1.12904" fill="#D9D9D9"/>
<circle cx="506.129" cy="46.129" r="1.12904" fill="#D9D9D9"/>
<circle cx="517.42" cy="46.129" r="1.12904" fill="#D9D9D9"/>
<circle cx="528.709" cy="46.129" r="1.12904" fill="#D9D9D9"/>
<circle cx="540" cy="46.129" r="1.12904" fill="#D9D9D9"/>
<circle cx="551.291" cy="46.129" r="1.12904" fill="#D9D9D9"/>
<circle cx="562.582" cy="46.129" r="1.12904" fill="#D9D9D9"/>
<circle cx="506.129" cy="57.4181" r="1.12904" fill="#D9D9D9"/>
<circle cx="517.42" cy="57.4181" r="1.12904" fill="#D9D9D9"/>
<circle cx="528.709" cy="57.4181" r="1.12904" fill="#D9D9D9"/>
<circle cx="540" cy="57.4181" r="1.12904" fill="#1245C7"/>
<circle cx="551.291" cy="57.4181" r="1.12904" fill="#D9D9D9"/>
<circle cx="562.582" cy="57.4181" r="1.12904" fill="#D9D9D9"/>
<circle cx="506.129" cy="68.7111" r="1.12904" fill="#D9D9D9"/>
<circle cx="517.42" cy="68.7111" r="1.12904" fill="#D9D9D9"/>
<circle cx="528.709" cy="68.7111" r="1.12904" fill="#D9D9D9"/>
<circle cx="540" cy="68.7111" r="1.12904" fill="#D9D9D9"/>
<circle cx="551.291" cy="68.7111" r="1.12904" fill="#D9D9D9"/>
<circle cx="562.582" cy="68.7111" r="1.12904" fill="#D9D9D9"/>
<circle cx="506.129" cy="80.0001" r="1.12904" fill="#D9D9D9"/>
<circle cx="517.42" cy="80.0001" r="1.12904" fill="#1245C7"/>
<circle cx="528.709" cy="80.0001" r="1.12904" fill="#D9D9D9"/>
<circle cx="540" cy="80.0001" r="1.12904" fill="#D9D9D9"/>
<circle cx="551.291" cy="80.0001" r="1.12904" fill="#D9D9D9"/>
<circle cx="562.582" cy="80.0001" r="1.12904" fill="#D9D9D9"/>
<circle cx="506.129" cy="91.2892" r="1.12904" fill="#D9D9D9"/>
<circle cx="517.42" cy="91.2892" r="1.12904" fill="#D9D9D9"/>
<circle cx="528.709" cy="91.2892" r="1.12904" fill="#D9D9D9"/>
<circle cx="540" cy="91.2892" r="1.12904" fill="#D9D9D9"/>
<circle cx="551.291" cy="91.2892" r="1.12904" fill="#D9D9D9"/>
<circle cx="562.582" cy="91.2892" r="1.12904" fill="#D9D9D9"/>
<circle cx="506.129" cy="102.582" r="1.12904" fill="#D9D9D9"/>
<circle cx="517.42" cy="102.582" r="1.12904" fill="#D9D9D9"/>
<circle cx="528.709" cy="102.582" r="1.12904" fill="#D9D9D9"/>
<circle cx="540" cy="102.582" r="1.12904" fill="#D9D9D9"/>
<circle cx="551.291" cy="102.582" r="1.12904" fill="#1245C7"/>
<circle cx="562.582" cy="102.582" r="1.12904" fill="#D9D9D9"/>
<circle cx="553.598" cy="352.598" r="0.598217" fill="#D9D9D9"/>
<circle cx="559.581" cy="352.598" r="0.598217" fill="#D9D9D9"/>
<circle cx="565.563" cy="352.598" r="0.598217" fill="#D9D9D9"/>
<circle cx="571.545" cy="352.598" r="0.598217" fill="#D9D9D9"/>
<circle cx="577.526" cy="352.598" r="0.598217" fill="#D9D9D9"/>
<circle cx="583.508" cy="352.598" r="0.598217" fill="#D9D9D9"/>
<circle cx="553.598" cy="358.579" r="0.598217" fill="#D9D9D9"/>
<circle cx="559.581" cy="358.579" r="0.598217" fill="#D9D9D9"/>
<circle cx="565.563" cy="358.579" r="0.598217" fill="#D9D9D9"/>
<circle cx="571.545" cy="358.579" r="0.598217" fill="#1245C7"/>
<circle cx="577.526" cy="358.579" r="0.598217" fill="#D9D9D9"/>
<circle cx="583.508" cy="358.579" r="0.598217" fill="#D9D9D9"/>
<circle cx="553.598" cy="364.563" r="0.598217" fill="#D9D9D9"/>
<circle cx="559.581" cy="364.563" r="0.598217" fill="#D9D9D9"/>
<circle cx="565.563" cy="364.563" r="0.598217" fill="#D9D9D9"/>
<circle cx="571.545" cy="364.563" r="0.598217" fill="#D9D9D9"/>
<circle cx="577.528" cy="364.563" r="0.598217" fill="#D9D9D9"/>
<circle cx="583.508" cy="364.563" r="0.598217" fill="#D9D9D9"/>
<circle cx="553.598" cy="370.544" r="0.598217" fill="#D9D9D9"/>
<circle cx="559.581" cy="370.544" r="0.598217" fill="#1245C7"/>
<circle cx="565.563" cy="370.544" r="0.598217" fill="#D9D9D9"/>
<circle cx="571.545" cy="370.544" r="0.598217" fill="#D9D9D9"/>
<circle cx="577.526" cy="370.544" r="0.598217" fill="#D9D9D9"/>
<circle cx="583.508" cy="370.544" r="0.598217" fill="#D9D9D9"/>
<circle cx="553.598" cy="376.528" r="0.598217" fill="#D9D9D9"/>
<circle cx="559.581" cy="376.528" r="0.598217" fill="#D9D9D9"/>
<circle cx="565.563" cy="376.528" r="0.598217" fill="#D9D9D9"/>
<circle cx="571.545" cy="376.528" r="0.598217" fill="#D9D9D9"/>
<circle cx="577.526" cy="376.528" r="0.598217" fill="#D9D9D9"/>
<circle cx="583.508" cy="376.528" r="0.598217" fill="#D9D9D9"/>
<circle cx="553.598" cy="382.508" r="0.598217" fill="#D9D9D9"/>
<circle cx="559.581" cy="382.508" r="0.598217" fill="#D9D9D9"/>
<circle cx="565.563" cy="382.508" r="0.598217" fill="#D9D9D9"/>
<circle cx="571.545" cy="382.508" r="0.598217" fill="#D9D9D9"/>
<circle cx="577.526" cy="382.508" r="0.598217" fill="#1245C7"/>
<circle cx="583.508" cy="382.508" r="0.598217" fill="#D9D9D9"/>
</svg>
