<svg width="628" height="456" viewBox="0 0 628 456" fill="none" xmlns="http://www.w3.org/2000/svg">
<circle cx="553.598" cy="352.598" r="0.598217" fill="#D9D9D9"/>
<circle cx="559.581" cy="352.598" r="0.598217" fill="#D9D9D9"/>
<circle cx="565.563" cy="352.598" r="0.598217" fill="#D9D9D9"/>
<circle cx="571.545" cy="352.598" r="0.598217" fill="#D9D9D9"/>
<circle cx="577.526" cy="352.598" r="0.598217" fill="#D9D9D9"/>
<circle cx="583.508" cy="352.598" r="0.598217" fill="#D9D9D9"/>
<circle cx="553.598" cy="358.579" r="0.598217" fill="#D9D9D9"/>
<circle cx="559.581" cy="358.579" r="0.598217" fill="#D9D9D9"/>
<circle cx="565.563" cy="358.579" r="0.598217" fill="#D9D9D9"/>
<circle cx="571.545" cy="358.579" r="0.598217" fill="#1245C7"/>
<circle cx="577.526" cy="358.579" r="0.598217" fill="#D9D9D9"/>
<circle cx="583.508" cy="358.579" r="0.598217" fill="#D9D9D9"/>
<circle cx="553.598" cy="364.563" r="0.598217" fill="#D9D9D9"/>
<circle cx="559.581" cy="364.563" r="0.598217" fill="#D9D9D9"/>
<circle cx="565.563" cy="364.563" r="0.598217" fill="#D9D9D9"/>
<circle cx="571.545" cy="364.563" r="0.598217" fill="#D9D9D9"/>
<circle cx="577.528" cy="364.563" r="0.598217" fill="#D9D9D9"/>
<circle cx="583.508" cy="364.563" r="0.598217" fill="#D9D9D9"/>
<circle cx="553.598" cy="370.544" r="0.598217" fill="#D9D9D9"/>
<circle cx="559.581" cy="370.544" r="0.598217" fill="#1245C7"/>
<circle cx="565.563" cy="370.544" r="0.598217" fill="#D9D9D9"/>
<circle cx="571.545" cy="370.544" r="0.598217" fill="#D9D9D9"/>
<circle cx="577.526" cy="370.544" r="0.598217" fill="#D9D9D9"/>
<circle cx="583.508" cy="370.544" r="0.598217" fill="#D9D9D9"/>
<circle cx="553.598" cy="376.528" r="0.598217" fill="#D9D9D9"/>
<circle cx="559.581" cy="376.528" r="0.598217" fill="#D9D9D9"/>
<circle cx="565.563" cy="376.528" r="0.598217" fill="#D9D9D9"/>
<circle cx="571.545" cy="376.528" r="0.598217" fill="#D9D9D9"/>
<circle cx="577.526" cy="376.528" r="0.598217" fill="#D9D9D9"/>
<circle cx="583.508" cy="376.528" r="0.598217" fill="#D9D9D9"/>
<circle cx="553.598" cy="382.508" r="0.598217" fill="#D9D9D9"/>
<circle cx="559.581" cy="382.508" r="0.598217" fill="#D9D9D9"/>
<circle cx="565.563" cy="382.508" r="0.598217" fill="#D9D9D9"/>
<circle cx="571.545" cy="382.508" r="0.598217" fill="#D9D9D9"/>
<circle cx="577.526" cy="382.508" r="0.598217" fill="#1245C7"/>
<circle cx="583.508" cy="382.508" r="0.598217" fill="#D9D9D9"/>
<path d="M234.785 375.679L259.872 409.363L237.08 438.841L211.993 405.157L234.785 375.679Z" fill="#FABF00"/>
<path d="M234.785 375.679L259.872 409.363L237.08 438.841L211.993 405.157L234.785 375.679Z" fill="black" fill-opacity="0.2"/>
<path d="M237.081 438.839L207.275 444.647L182.188 410.965L211.994 405.155L237.081 438.839Z" fill="#FABF00"/>
<path d="M211.997 405.154L182.191 410.964L204.983 381.486L234.789 375.676L211.997 405.154Z" fill="#FABF00"/>
<path d="M211.997 405.154L182.191 410.964L204.983 381.486L234.789 375.676L211.997 405.154Z" fill="black" fill-opacity="0.1"/>
<path d="M614.431 312.729L591.825 327.611L573.712 311.848L596.318 296.966L614.431 312.729Z" fill="#FABF00"/>
<path d="M614.431 312.729L591.825 327.611L573.712 311.848L596.318 296.966L614.431 312.729Z" fill="black" fill-opacity="0.2"/>
<path d="M573.714 311.844L571.09 292.453L593.695 277.571L596.32 296.963L573.714 311.844Z" fill="#FABF00"/>
<path d="M596.32 296.961L593.695 277.57L611.808 293.333L614.433 312.724L596.32 296.961Z" fill="#FABF00"/>
<path d="M596.32 296.961L593.695 277.57L611.808 293.333L614.433 312.724L596.32 296.961Z" fill="black" fill-opacity="0.1"/>
<path d="M564.025 335.813L559.168 331.384L561.793 326.177L566.65 330.606L564.025 335.813Z" fill="#FABF00"/>
<path d="M564.025 335.813L559.168 331.384L561.793 326.177L566.65 330.606L564.025 335.813Z" fill="black" fill-opacity="0.2"/>
<path d="M561.793 326.175L566.2 324.395L571.056 328.824L566.65 330.603L561.793 326.175Z" fill="#FABF00"/>
<path d="M566.65 330.603L571.057 328.824L568.432 334.031L564.026 335.811L566.65 330.603Z" fill="#FABF00"/>
<path d="M566.65 330.603L571.057 328.824L568.432 334.031L564.026 335.811L566.65 330.603Z" fill="black" fill-opacity="0.1"/>
<path d="M53.7228 182.361L39.5035 191.722L28.1103 181.807L42.3296 172.446L53.7228 182.361Z" fill="#FABF00"/>
<path d="M53.7228 182.361L39.5035 191.722L28.1103 181.807L42.3296 172.446L53.7228 182.361Z" fill="black" fill-opacity="0.2"/>
<path d="M28.1109 181.805L26.4603 169.607L40.6792 160.247L42.3302 172.444L28.1109 181.805Z" fill="#FABF00"/>
<path d="M42.3307 172.444L40.6796 160.246L52.0729 170.161L53.7239 182.359L42.3307 172.444Z" fill="#FABF00"/>
<path d="M42.3307 172.444L40.6796 160.246L52.0729 170.161L53.7239 182.359L42.3307 172.444Z" fill="black" fill-opacity="0.1"/>
</svg>
