<svg width="644" height="462" viewBox="0 0 644 462" fill="none" xmlns="http://www.w3.org/2000/svg">
<g filter="url(#filter0_bd_1312_3868)">
<rect x="434" y="258.004" width="175" height="150" rx="4" fill="white" fill-opacity="0.01" shape-rendering="crispEdges"/>
<path d="M434 262.004C434 259.795 435.791 258.004 438 258.004H605C607.209 258.004 609 259.795 609 262.004V280.44H434V262.004Z" fill="#F9F9F9"/>
<path d="M434 262.004C434 259.795 435.791 258.004 438 258.004H605C607.209 258.004 609 259.795 609 262.004V280.44H434V262.004Z" fill="white" fill-opacity="0.2"/>
<path d="M452.987 268.976L448.376 264.77L443.766 268.976L444.251 269.507L444.67 269.125V272.903C444.67 273.499 445.154 273.983 445.749 273.983H451.003C451.598 273.983 452.083 273.499 452.083 272.903V269.125L452.502 269.507L452.987 268.976ZM451.363 272.903C451.363 273.102 451.201 273.263 451.003 273.263H445.749C445.551 273.263 445.389 273.102 445.389 272.903V268.468L448.376 265.744L451.363 268.468V272.903Z" fill="#6C6C6C"/>
<mask id="path-4-inside-1_1312_3868" fill="white">
<rect x="446.84" y="268.996" width="3.07373" height="3.07373" rx="0.46106"/>
</mask>
<rect x="446.84" y="268.996" width="3.07373" height="3.07373" rx="0.46106" stroke="#6C6C6C" stroke-width="1.5676" mask="url(#path-4-inside-1_1312_3868)"/>
<path d="M465.259 271.802C464.891 271.802 464.539 271.75 464.203 271.647C463.866 271.539 463.599 271.402 463.402 271.236L463.704 270.556C463.893 270.705 464.126 270.828 464.404 270.927C464.683 271.025 464.968 271.075 465.259 271.075C465.506 271.075 465.706 271.048 465.858 270.994C466.011 270.94 466.123 270.868 466.195 270.779C466.267 270.684 466.303 270.579 466.303 270.462C466.303 270.319 466.251 270.204 466.148 270.119C466.045 270.029 465.91 269.96 465.744 269.91C465.582 269.856 465.401 269.807 465.199 269.762C465.001 269.717 464.802 269.666 464.6 269.607C464.402 269.545 464.221 269.466 464.054 269.372C463.893 269.273 463.761 269.143 463.657 268.981C463.554 268.82 463.503 268.614 463.503 268.362C463.503 268.106 463.57 267.873 463.704 267.662C463.844 267.447 464.052 267.276 464.33 267.151C464.613 267.021 464.97 266.956 465.401 266.956C465.683 266.956 465.964 266.991 466.242 267.063C466.52 267.135 466.762 267.238 466.969 267.373L466.693 268.053C466.482 267.927 466.264 267.835 466.04 267.777C465.816 267.714 465.6 267.682 465.394 267.682C465.152 267.682 464.954 267.712 464.802 267.77C464.654 267.828 464.544 267.905 464.472 267.999C464.404 268.093 464.371 268.201 464.371 268.322C464.371 268.465 464.42 268.582 464.519 268.672C464.622 268.757 464.754 268.824 464.916 268.874C465.082 268.923 465.266 268.973 465.468 269.022C465.67 269.067 465.87 269.118 466.067 269.177C466.269 269.235 466.451 269.311 466.612 269.406C466.778 269.5 466.911 269.628 467.009 269.789C467.112 269.951 467.164 270.155 467.164 270.402C467.164 270.653 467.095 270.886 466.955 271.102C466.821 271.313 466.612 271.483 466.329 271.613C466.047 271.739 465.69 271.802 465.259 271.802ZM468.922 271.734V267.763H467.36V267.023H471.358V267.763H469.797V271.734H468.922ZM471.112 271.734L473.232 267.023H474.094L476.221 271.734H475.305L473.481 267.487H473.831L472.014 271.734H471.112ZM472.088 270.644L472.324 269.957H474.868L475.103 270.644H472.088ZM478.955 271.802C478.587 271.802 478.248 271.743 477.939 271.627C477.634 271.506 477.367 271.337 477.138 271.122C476.909 270.902 476.732 270.644 476.606 270.348C476.48 270.052 476.418 269.729 476.418 269.379C476.418 269.029 476.48 268.706 476.606 268.409C476.732 268.113 476.909 267.857 477.138 267.642C477.371 267.422 477.643 267.254 477.952 267.137C478.262 267.016 478.601 266.956 478.969 266.956C479.368 266.956 479.727 267.021 480.045 267.151C480.369 267.281 480.64 267.472 480.86 267.723L480.308 268.261C480.124 268.077 479.924 267.943 479.709 267.857C479.498 267.768 479.265 267.723 479.009 267.723C478.762 267.723 478.533 267.763 478.322 267.844C478.111 267.925 477.93 268.039 477.777 268.187C477.625 268.335 477.506 268.51 477.42 268.712C477.34 268.914 477.299 269.136 477.299 269.379C477.299 269.616 477.34 269.836 477.42 270.038C477.506 270.24 477.625 270.417 477.777 270.57C477.93 270.718 478.109 270.832 478.316 270.913C478.522 270.994 478.751 271.034 479.002 271.034C479.236 271.034 479.46 270.998 479.675 270.927C479.895 270.85 480.104 270.725 480.301 270.55L480.799 271.203C480.553 271.4 480.265 271.55 479.938 271.654C479.615 271.752 479.287 271.802 478.955 271.802ZM479.971 271.088V269.325H480.799V271.203L479.971 271.088ZM482.761 268.981H485.103V269.702H482.761V268.981ZM482.828 271.001H485.487V271.734H481.953V267.023H485.393V267.756H482.828V271.001ZM489.124 269.19H491.473V269.931H489.124V269.19ZM489.198 271.734H488.323V267.023H491.762V267.756H489.198V271.734ZM492.608 271.734V267.023H493.483V271.734H492.608ZM494.758 271.734V267.023H496.696C497.113 267.023 497.47 267.09 497.766 267.225C498.067 267.359 498.298 267.552 498.46 267.804C498.621 268.055 498.702 268.353 498.702 268.699C498.702 269.044 498.621 269.343 498.46 269.594C498.298 269.841 498.067 270.031 497.766 270.166C497.47 270.296 497.113 270.361 496.696 270.361H495.242L495.633 269.964V271.734H494.758ZM497.84 271.734L496.649 270.025H497.585L498.783 271.734H497.84ZM495.633 270.058L495.242 269.641H496.656C497.042 269.641 497.331 269.558 497.524 269.392C497.721 269.226 497.82 268.995 497.82 268.699C497.82 268.398 497.721 268.167 497.524 268.006C497.331 267.844 497.042 267.763 496.656 267.763H495.242L495.633 267.332V270.058ZM501.141 271.802C500.773 271.802 500.421 271.75 500.085 271.647C499.748 271.539 499.481 271.402 499.284 271.236L499.587 270.556C499.775 270.705 500.008 270.828 500.287 270.927C500.565 271.025 500.85 271.075 501.141 271.075C501.388 271.075 501.588 271.048 501.74 270.994C501.893 270.94 502.005 270.868 502.077 270.779C502.149 270.684 502.185 270.579 502.185 270.462C502.185 270.319 502.133 270.204 502.03 270.119C501.927 270.029 501.792 269.96 501.626 269.91C501.464 269.856 501.283 269.807 501.081 269.762C500.883 269.717 500.684 269.666 500.482 269.607C500.284 269.545 500.103 269.466 499.937 269.372C499.775 269.273 499.643 269.143 499.539 268.981C499.436 268.82 499.385 268.614 499.385 268.362C499.385 268.106 499.452 267.873 499.587 267.662C499.726 267.447 499.934 267.276 500.213 267.151C500.495 267.021 500.852 266.956 501.283 266.956C501.565 266.956 501.846 266.991 502.124 267.063C502.402 267.135 502.645 267.238 502.851 267.373L502.575 268.053C502.364 267.927 502.147 267.835 501.922 267.777C501.698 267.714 501.482 267.682 501.276 267.682C501.034 267.682 500.836 267.712 500.684 267.77C500.536 267.828 500.426 267.905 500.354 267.999C500.287 268.093 500.253 268.201 500.253 268.322C500.253 268.465 500.302 268.582 500.401 268.672C500.504 268.757 500.637 268.824 500.798 268.874C500.964 268.923 501.148 268.973 501.35 269.022C501.552 269.067 501.752 269.118 501.949 269.177C502.151 269.235 502.333 269.311 502.494 269.406C502.66 269.5 502.793 269.628 502.891 269.789C502.995 269.951 503.046 270.155 503.046 270.402C503.046 270.653 502.977 270.886 502.838 271.102C502.703 271.313 502.494 271.483 502.212 271.613C501.929 271.739 501.572 271.802 501.141 271.802ZM504.804 271.734V267.763H503.242V267.023H507.24V267.763H505.679V271.734H504.804Z" fill="#82878E"/>
<g filter="url(#filter1_d_1312_3868)">
<rect x="438.486" y="302.875" width="166.026" height="22.4359" rx="2.24359" fill="white"/>
<path fill-rule="evenodd" clip-rule="evenodd" d="M449.704 318.584C452.182 318.584 454.191 316.575 454.191 314.097C454.191 311.618 452.182 309.609 449.704 309.609C447.226 309.609 445.217 311.618 445.217 314.097C445.217 316.575 447.226 318.584 449.704 318.584Z" fill="#BCC5D0"/>
<path d="M450.265 313.535H451.387C451.697 313.535 451.948 313.786 451.948 314.096C451.948 314.406 451.697 314.657 451.387 314.657H450.265H449.144H448.022C447.712 314.657 447.461 314.406 447.461 314.096C447.461 313.786 447.712 313.535 448.022 313.535H449.144H450.265Z" fill="white"/>
<path d="M458.644 316.605L460.764 311.894H461.626L463.753 316.605H462.837L461.013 312.358H461.363L459.546 316.605H458.644ZM459.62 315.515L459.856 314.829H462.4L462.635 315.515H459.62ZM466.311 312.971C466.598 312.971 466.854 313.027 467.078 313.139C467.307 313.251 467.486 313.424 467.616 313.657C467.746 313.886 467.812 314.182 467.812 314.546V316.605H466.97V314.654C466.97 314.335 466.894 314.097 466.741 313.94C466.593 313.783 466.385 313.705 466.115 313.705C465.918 313.705 465.743 313.745 465.59 313.826C465.438 313.906 465.319 314.028 465.234 314.189C465.153 314.346 465.113 314.546 465.113 314.788V316.605H464.271V313.011H465.072V313.98L464.931 313.684C465.056 313.455 465.238 313.28 465.476 313.159C465.718 313.034 465.996 312.971 466.311 312.971ZM471.093 316.605V315.879L471.046 315.724V314.452C471.046 314.205 470.972 314.014 470.824 313.88C470.676 313.74 470.452 313.671 470.151 313.671C469.949 313.671 469.749 313.702 469.552 313.765C469.359 313.828 469.195 313.915 469.061 314.028L468.731 313.415C468.924 313.267 469.153 313.157 469.417 313.085C469.687 313.009 469.965 312.971 470.252 312.971C470.772 312.971 471.174 313.096 471.457 313.348C471.744 313.595 471.888 313.978 471.888 314.499V316.605H471.093ZM469.963 316.653C469.693 316.653 469.458 316.608 469.256 316.518C469.054 316.424 468.897 316.296 468.785 316.134C468.677 315.968 468.623 315.782 468.623 315.576C468.623 315.374 468.67 315.192 468.764 315.03C468.863 314.869 469.022 314.741 469.242 314.647C469.462 314.553 469.754 314.505 470.117 314.505H471.161V315.064H470.178C469.891 315.064 469.698 315.111 469.599 315.205C469.5 315.295 469.451 315.407 469.451 315.542C469.451 315.695 469.512 315.816 469.633 315.905C469.754 315.995 469.922 316.04 470.138 316.04C470.344 316.04 470.528 315.993 470.689 315.899C470.855 315.805 470.974 315.665 471.046 315.481L471.188 315.986C471.107 316.197 470.961 316.361 470.75 316.478C470.544 316.594 470.281 316.653 469.963 316.653ZM472.967 316.605V311.611H473.809V316.605H472.967ZM475.209 317.958C475.034 317.958 474.859 317.929 474.684 317.871C474.509 317.813 474.363 317.732 474.247 317.629L474.583 317.009C474.668 317.086 474.765 317.146 474.872 317.191C474.98 317.236 475.09 317.258 475.202 317.258C475.355 317.258 475.478 317.22 475.572 317.144C475.667 317.068 475.754 316.94 475.835 316.76L476.044 316.289L476.111 316.188L477.471 313.011H478.278L476.596 316.895C476.483 317.164 476.358 317.377 476.219 317.534C476.084 317.691 475.931 317.801 475.761 317.864C475.595 317.927 475.411 317.958 475.209 317.958ZM475.949 316.733L474.327 313.011H475.202L476.522 316.114L475.949 316.733ZM478.442 316.605V316.074L480.657 313.395L480.811 313.684H478.483V313.011H481.485V313.543L479.27 316.222L479.102 315.932H481.545V316.605H478.442ZM483.958 316.653C483.558 316.653 483.208 316.574 482.908 316.417C482.611 316.255 482.38 316.036 482.214 315.757C482.053 315.479 481.972 315.163 481.972 314.808C481.972 314.449 482.05 314.133 482.208 313.859C482.369 313.581 482.589 313.363 482.867 313.206C483.15 313.049 483.471 312.971 483.83 312.971C484.18 312.971 484.491 313.047 484.765 313.2C485.039 313.352 485.254 313.568 485.411 313.846C485.568 314.124 485.647 314.452 485.647 314.829C485.647 314.864 485.645 314.905 485.64 314.95C485.64 314.995 485.638 315.037 485.633 315.078H482.638V314.519H485.189L484.859 314.694C484.864 314.488 484.821 314.306 484.732 314.149C484.642 313.992 484.518 313.868 484.361 313.779C484.209 313.689 484.032 313.644 483.83 313.644C483.623 313.644 483.441 313.689 483.284 313.779C483.132 313.868 483.011 313.994 482.921 314.155C482.836 314.313 482.793 314.499 482.793 314.714V314.849C482.793 315.064 482.842 315.255 482.941 315.421C483.04 315.587 483.179 315.715 483.358 315.805C483.538 315.894 483.744 315.939 483.978 315.939C484.18 315.939 484.361 315.908 484.523 315.845C484.684 315.782 484.828 315.683 484.954 315.549L485.405 316.067C485.243 316.255 485.039 316.401 484.792 316.505C484.55 316.603 484.272 316.653 483.958 316.653ZM487.73 316.605L489.85 311.894H490.711L492.838 316.605H491.923L490.099 312.358H490.449L488.632 316.605H487.73ZM488.706 315.515L488.941 314.829H491.485L491.721 315.515H488.706ZM493.438 316.605V311.894H495.376C495.793 311.894 496.15 311.961 496.446 312.096C496.747 312.23 496.978 312.423 497.139 312.675C497.301 312.926 497.382 313.224 497.382 313.57C497.382 313.915 497.301 314.214 497.139 314.465C496.978 314.716 496.747 314.909 496.446 315.044C496.15 315.179 495.793 315.246 495.376 315.246H493.922L494.313 314.835V316.605H493.438ZM494.313 314.93L493.922 314.505H495.336C495.722 314.505 496.011 314.425 496.204 314.263C496.401 314.097 496.5 313.866 496.5 313.57C496.5 313.269 496.401 313.038 496.204 312.877C496.011 312.715 495.722 312.634 495.336 312.634H493.922L494.313 312.204V314.93ZM498.256 316.605V311.894H500.194C500.611 311.894 500.968 311.961 501.264 312.096C501.565 312.23 501.796 312.423 501.957 312.675C502.119 312.926 502.2 313.224 502.2 313.57C502.2 313.915 502.119 314.214 501.957 314.465C501.796 314.716 501.565 314.909 501.264 315.044C500.968 315.179 500.611 315.246 500.194 315.246H498.74L499.131 314.835V316.605H498.256ZM499.131 314.93L498.74 314.505H500.154C500.54 314.505 500.829 314.425 501.022 314.263C501.219 314.097 501.318 313.866 501.318 313.57C501.318 313.269 501.219 313.038 501.022 312.877C500.829 312.715 500.54 312.634 500.154 312.634H498.74L499.131 312.204V314.93ZM505.8 314.061H508.149V314.802H505.8V314.061ZM505.874 316.605H504.999V311.894H508.439V312.628H505.874V316.605ZM511.44 316.673C511.072 316.673 510.733 316.612 510.424 316.491C510.114 316.37 509.845 316.202 509.616 315.986C509.387 315.766 509.21 315.511 509.084 315.219C508.959 314.923 508.896 314.6 508.896 314.25C508.896 313.9 508.959 313.579 509.084 313.287C509.21 312.991 509.387 312.735 509.616 312.52C509.845 312.3 510.114 312.13 510.424 312.008C510.733 311.887 511.07 311.827 511.433 311.827C511.801 311.827 512.138 311.887 512.443 312.008C512.753 312.13 513.022 312.3 513.251 312.52C513.48 312.735 513.657 312.991 513.782 313.287C513.908 313.579 513.971 313.9 513.971 314.25C513.971 314.6 513.908 314.923 513.782 315.219C513.657 315.515 513.48 315.771 513.251 315.986C513.022 316.202 512.753 316.37 512.443 316.491C512.138 316.612 511.804 316.673 511.44 316.673ZM511.433 315.905C511.671 315.905 511.891 315.865 512.093 315.784C512.295 315.704 512.47 315.589 512.618 315.441C512.766 315.288 512.881 315.113 512.961 314.916C513.047 314.714 513.089 314.492 513.089 314.25C513.089 314.007 513.047 313.788 512.961 313.59C512.881 313.388 512.766 313.213 512.618 313.065C512.47 312.913 512.295 312.796 512.093 312.715C511.891 312.634 511.671 312.594 511.433 312.594C511.196 312.594 510.976 312.634 510.774 312.715C510.576 312.796 510.401 312.913 510.249 313.065C510.101 313.213 509.984 313.388 509.899 313.59C509.818 313.788 509.778 314.007 509.778 314.25C509.778 314.488 509.818 314.707 509.899 314.909C509.984 315.111 510.101 315.288 510.249 315.441C510.397 315.589 510.572 315.704 510.774 315.784C510.976 315.865 511.196 315.905 511.433 315.905ZM514.898 316.605V311.894H516.837C517.254 311.894 517.611 311.961 517.907 312.096C518.208 312.23 518.439 312.423 518.6 312.675C518.762 312.926 518.843 313.224 518.843 313.57C518.843 313.915 518.762 314.214 518.6 314.465C518.439 314.712 518.208 314.903 517.907 315.037C517.611 315.167 517.254 315.232 516.837 315.232H515.383L515.773 314.835V316.605H514.898ZM517.981 316.605L516.79 314.896H517.725L518.923 316.605H517.981ZM515.773 314.93L515.383 314.512H516.797C517.182 314.512 517.472 314.429 517.665 314.263C517.862 314.097 517.961 313.866 517.961 313.57C517.961 313.269 517.862 313.038 517.665 312.877C517.472 312.715 517.182 312.634 516.797 312.634H515.383L515.773 312.204V314.93ZM519.822 316.605V311.894H520.542L522.601 315.333H522.225L524.25 311.894H524.971L524.977 316.605H524.15L524.143 313.193H524.318L522.595 316.067H522.204L520.454 313.193H520.656V316.605H519.822Z" fill="#525252"/>
</g>
<g filter="url(#filter2_d_1312_3868)">
<rect x="438.488" y="362.234" width="166.026" height="22.4359" rx="2.24359" fill="white"/>
<path fill-rule="evenodd" clip-rule="evenodd" d="M449.706 377.943C452.184 377.943 454.193 375.934 454.193 373.456C454.193 370.978 452.184 368.969 449.706 368.969C447.228 368.969 445.219 370.978 445.219 373.456C445.219 375.934 447.228 377.943 449.706 377.943Z" fill="#BCC5D0"/>
<path fill-rule="evenodd" clip-rule="evenodd" d="M449.706 371.211C450.016 371.211 450.267 371.462 450.267 371.772V372.894H451.389C451.699 372.894 451.95 373.145 451.95 373.455C451.95 373.764 451.699 374.015 451.389 374.015H450.267V375.137C450.267 375.447 450.016 375.698 449.706 375.698C449.397 375.698 449.146 375.447 449.146 375.137V374.015H448.024C447.714 374.015 447.463 373.764 447.463 373.455C447.463 373.145 447.714 372.894 448.024 372.894H449.146V371.772C449.146 371.462 449.397 371.211 449.706 371.211Z" fill="white"/>
<path opacity="0.5" d="M461.338 376.032C460.692 376.032 460.185 375.85 459.817 375.487C459.454 375.123 459.272 374.598 459.272 373.912V371.253H460.147V373.878C460.147 374.363 460.25 374.715 460.457 374.935C460.668 375.155 460.964 375.265 461.345 375.265C461.726 375.265 462.02 375.155 462.227 374.935C462.433 374.715 462.536 374.363 462.536 373.878V371.253H463.398V373.912C463.398 374.598 463.214 375.123 462.846 375.487C462.483 375.85 461.98 376.032 461.338 376.032ZM466.535 376.012C466.243 376.012 465.976 375.945 465.734 375.81C465.496 375.675 465.305 375.473 465.162 375.204C465.023 374.931 464.953 374.585 464.953 374.168C464.953 373.746 465.02 373.4 465.155 373.131C465.294 372.862 465.483 372.662 465.72 372.532C465.958 372.398 466.23 372.33 466.535 372.33C466.889 372.33 467.201 372.407 467.47 372.559C467.744 372.712 467.96 372.925 468.117 373.198C468.278 373.472 468.359 373.795 468.359 374.168C468.359 374.54 468.278 374.865 468.117 375.144C467.96 375.417 467.744 375.631 467.47 375.783C467.201 375.936 466.889 376.012 466.535 376.012ZM464.543 377.271V372.371H465.344V373.219L465.317 374.174L465.384 375.13V377.271H464.543ZM466.441 375.292C466.643 375.292 466.822 375.247 466.979 375.157C467.141 375.067 467.269 374.937 467.363 374.767C467.457 374.596 467.504 374.397 467.504 374.168C467.504 373.934 467.457 373.735 467.363 373.569C467.269 373.398 467.141 373.268 466.979 373.178C466.822 373.089 466.643 373.044 466.441 373.044C466.239 373.044 466.057 373.089 465.895 373.178C465.734 373.268 465.606 373.398 465.512 373.569C465.418 373.735 465.37 373.934 465.37 374.168C465.37 374.397 465.418 374.596 465.512 374.767C465.606 374.937 465.734 375.067 465.895 375.157C466.057 375.247 466.239 375.292 466.441 375.292ZM469.157 375.965V370.971H469.998V375.965H469.157ZM472.718 376.012C472.35 376.012 472.022 375.933 471.735 375.776C471.448 375.615 471.221 375.395 471.055 375.117C470.889 374.839 470.806 374.522 470.806 374.168C470.806 373.809 470.889 373.492 471.055 373.219C471.221 372.94 471.448 372.723 471.735 372.566C472.022 372.409 472.35 372.33 472.718 372.33C473.09 372.33 473.42 372.409 473.707 372.566C473.999 372.723 474.226 372.938 474.387 373.212C474.553 373.486 474.636 373.804 474.636 374.168C474.636 374.522 474.553 374.839 474.387 375.117C474.226 375.395 473.999 375.615 473.707 375.776C473.42 375.933 473.09 376.012 472.718 376.012ZM472.718 375.292C472.924 375.292 473.108 375.247 473.27 375.157C473.431 375.067 473.557 374.937 473.647 374.767C473.741 374.596 473.788 374.397 473.788 374.168C473.788 373.934 473.741 373.735 473.647 373.569C473.557 373.398 473.431 373.268 473.27 373.178C473.108 373.089 472.927 373.044 472.725 373.044C472.518 373.044 472.334 373.089 472.173 373.178C472.016 373.268 471.89 373.398 471.796 373.569C471.702 373.735 471.654 373.934 471.654 374.168C471.654 374.397 471.702 374.596 471.796 374.767C471.89 374.937 472.016 375.067 472.173 375.157C472.334 375.247 472.516 375.292 472.718 375.292ZM477.609 375.965V375.238L477.562 375.083V373.811C477.562 373.564 477.488 373.373 477.34 373.239C477.192 373.1 476.967 373.03 476.667 373.03C476.465 373.03 476.265 373.062 476.068 373.124C475.875 373.187 475.711 373.275 475.576 373.387L475.247 372.774C475.44 372.626 475.668 372.516 475.933 372.445C476.202 372.368 476.481 372.33 476.768 372.33C477.288 372.33 477.69 372.456 477.973 372.707C478.26 372.954 478.403 373.338 478.403 373.858V375.965H477.609ZM476.478 376.012C476.209 376.012 475.974 375.967 475.772 375.877C475.57 375.783 475.413 375.655 475.3 375.494C475.193 375.328 475.139 375.141 475.139 374.935C475.139 374.733 475.186 374.551 475.28 374.39C475.379 374.228 475.538 374.1 475.758 374.006C475.978 373.912 476.27 373.865 476.633 373.865H477.676V374.423H476.694C476.407 374.423 476.214 374.471 476.115 374.565C476.016 374.655 475.967 374.767 475.967 374.901C475.967 375.054 476.027 375.175 476.149 375.265C476.27 375.355 476.438 375.399 476.653 375.399C476.86 375.399 477.044 375.352 477.205 375.258C477.371 375.164 477.49 375.025 477.562 374.841L477.703 375.346C477.623 375.557 477.477 375.72 477.266 375.837C477.059 375.954 476.797 376.012 476.478 376.012ZM481.011 376.012C480.665 376.012 480.353 375.936 480.075 375.783C479.802 375.626 479.586 375.411 479.429 375.137C479.272 374.863 479.193 374.54 479.193 374.168C479.193 373.795 479.272 373.472 479.429 373.198C479.586 372.925 479.802 372.712 480.075 372.559C480.353 372.407 480.665 372.33 481.011 372.33C481.311 372.33 481.581 372.398 481.818 372.532C482.056 372.662 482.245 372.862 482.384 373.131C482.523 373.4 482.593 373.746 482.593 374.168C482.593 374.585 482.525 374.931 482.391 375.204C482.256 375.473 482.07 375.675 481.832 375.81C481.594 375.945 481.32 376.012 481.011 376.012ZM481.112 375.292C481.314 375.292 481.493 375.247 481.65 375.157C481.812 375.067 481.94 374.937 482.034 374.767C482.133 374.596 482.182 374.397 482.182 374.168C482.182 373.934 482.133 373.735 482.034 373.569C481.94 373.398 481.812 373.268 481.65 373.178C481.493 373.089 481.314 373.044 481.112 373.044C480.91 373.044 480.728 373.089 480.567 373.178C480.41 373.268 480.282 373.398 480.183 373.569C480.089 373.735 480.042 373.934 480.042 374.168C480.042 374.397 480.089 374.596 480.183 374.767C480.282 374.937 480.41 375.067 480.567 375.157C480.728 375.247 480.91 375.292 481.112 375.292ZM482.202 375.965V375.117L482.236 374.161L482.168 373.205V370.971H483.003V375.965H482.202ZM487.007 375.965V371.994H485.446V371.253H489.444V371.994H487.882V375.965H487.007ZM492.059 372.33C492.346 372.33 492.602 372.386 492.826 372.498C493.055 372.611 493.235 372.783 493.365 373.017C493.495 373.246 493.56 373.542 493.56 373.905V375.965H492.719V374.013C492.719 373.694 492.642 373.457 492.49 373.299C492.342 373.142 492.133 373.064 491.864 373.064C491.666 373.064 491.491 373.104 491.339 373.185C491.186 373.266 491.067 373.387 490.982 373.548C490.901 373.706 490.861 373.905 490.861 374.148V375.965H490.02V370.971H490.861V373.34L490.679 373.044C490.805 372.815 490.987 372.64 491.224 372.519C491.467 372.393 491.745 372.33 492.059 372.33ZM496.323 376.012C495.924 376.012 495.574 375.933 495.273 375.776C494.977 375.615 494.746 375.395 494.58 375.117C494.418 374.839 494.338 374.522 494.338 374.168C494.338 373.809 494.416 373.492 494.573 373.219C494.735 372.94 494.955 372.723 495.233 372.566C495.516 372.409 495.836 372.33 496.195 372.33C496.545 372.33 496.857 372.407 497.131 372.559C497.405 372.712 497.62 372.927 497.777 373.205C497.934 373.483 498.013 373.811 498.013 374.188C498.013 374.224 498.01 374.264 498.006 374.309C498.006 374.354 498.004 374.397 497.999 374.437H495.004V373.878H497.555L497.225 374.053C497.23 373.847 497.187 373.665 497.097 373.508C497.008 373.351 496.884 373.228 496.727 373.138C496.575 373.048 496.397 373.003 496.195 373.003C495.989 373.003 495.807 373.048 495.65 373.138C495.498 373.228 495.377 373.353 495.287 373.515C495.202 373.672 495.159 373.858 495.159 374.073V374.208C495.159 374.423 495.208 374.614 495.307 374.78C495.406 374.946 495.545 375.074 495.724 375.164C495.904 375.254 496.11 375.298 496.343 375.298C496.545 375.298 496.727 375.267 496.889 375.204C497.05 375.141 497.194 375.043 497.319 374.908L497.77 375.426C497.609 375.615 497.405 375.761 497.158 375.864C496.916 375.963 496.637 376.012 496.323 376.012ZM500.762 375.965V371.253H502.97C503.535 371.253 503.966 371.365 504.262 371.59C504.558 371.81 504.706 372.106 504.706 372.478C504.706 372.73 504.648 372.945 504.531 373.124C504.414 373.299 504.257 373.436 504.06 373.535C503.867 373.629 503.656 373.676 503.427 373.676L503.548 373.434C503.813 373.434 504.051 373.483 504.262 373.582C504.473 373.676 504.639 373.815 504.76 373.999C504.886 374.183 504.948 374.412 504.948 374.686C504.948 375.09 504.794 375.404 504.484 375.628C504.174 375.853 503.714 375.965 503.104 375.965H500.762ZM501.637 375.278H503.05C503.378 375.278 503.629 375.224 503.804 375.117C503.979 375.009 504.067 374.836 504.067 374.598C504.067 374.365 503.979 374.195 503.804 374.087C503.629 373.975 503.378 373.919 503.05 373.919H501.57V373.239H502.875C503.18 373.239 503.414 373.185 503.575 373.077C503.741 372.97 503.824 372.808 503.824 372.593C503.824 372.373 503.741 372.209 503.575 372.101C503.414 371.994 503.18 371.94 502.875 371.94H501.637V375.278ZM508.016 375.965V375.238L507.969 375.083V373.811C507.969 373.564 507.895 373.373 507.747 373.239C507.599 373.1 507.374 373.03 507.074 373.03C506.872 373.03 506.672 373.062 506.475 373.124C506.282 373.187 506.118 373.275 505.983 373.387L505.653 372.774C505.846 372.626 506.075 372.516 506.34 372.445C506.609 372.368 506.887 372.33 507.175 372.33C507.695 372.33 508.097 372.456 508.379 372.707C508.666 372.954 508.81 373.338 508.81 373.858V375.965H508.016ZM506.885 376.012C506.616 376.012 506.38 375.967 506.178 375.877C505.976 375.783 505.819 375.655 505.707 375.494C505.6 375.328 505.546 375.141 505.546 374.935C505.546 374.733 505.593 374.551 505.687 374.39C505.786 374.228 505.945 374.1 506.165 374.006C506.385 373.912 506.676 373.865 507.04 373.865H508.083V374.423H507.1C506.813 374.423 506.62 374.471 506.522 374.565C506.423 374.655 506.374 374.767 506.374 374.901C506.374 375.054 506.434 375.175 506.555 375.265C506.676 375.355 506.845 375.399 507.06 375.399C507.266 375.399 507.45 375.352 507.612 375.258C507.778 375.164 507.897 375.025 507.969 374.841L508.11 375.346C508.029 375.557 507.883 375.72 507.673 375.837C507.466 375.954 507.204 376.012 506.885 376.012ZM511.929 372.33C512.216 372.33 512.472 372.386 512.697 372.498C512.925 372.611 513.105 372.783 513.235 373.017C513.365 373.246 513.43 373.542 513.43 373.905V375.965H512.589V374.013C512.589 373.694 512.513 373.457 512.36 373.299C512.212 373.142 512.003 373.064 511.734 373.064C511.537 373.064 511.362 373.104 511.209 373.185C511.057 373.266 510.938 373.387 510.852 373.548C510.772 373.706 510.731 373.905 510.731 374.148V375.965H509.89V372.371H510.691V373.34L510.549 373.044C510.675 372.815 510.857 372.64 511.095 372.519C511.337 372.393 511.615 372.33 511.929 372.33ZM515.184 375.164L515.204 374.107L517.082 372.371H518.092L516.497 373.973L516.052 374.343L515.184 375.164ZM514.498 375.965V370.971H515.339V375.965H514.498ZM517.21 375.965L515.898 374.343L516.429 373.67L518.233 375.965H517.21ZM518.023 376.638L520.244 370.298H520.998L518.777 376.638H518.023ZM523.404 376.032C523.045 376.032 522.711 375.974 522.402 375.857C522.096 375.736 521.829 375.568 521.601 375.352C521.376 375.132 521.201 374.874 521.076 374.578C520.95 374.282 520.887 373.959 520.887 373.609C520.887 373.259 520.95 372.936 521.076 372.64C521.201 372.344 521.378 372.088 521.607 371.873C521.836 371.653 522.103 371.484 522.408 371.368C522.713 371.247 523.048 371.186 523.411 371.186C523.797 371.186 524.149 371.253 524.468 371.388C524.786 371.518 525.056 371.713 525.276 371.973L524.71 372.505C524.54 372.321 524.349 372.184 524.138 372.095C523.927 372 523.698 371.953 523.452 371.953C523.205 371.953 522.978 371.994 522.772 372.074C522.57 372.155 522.393 372.27 522.24 372.418C522.092 372.566 521.975 372.741 521.89 372.943C521.809 373.145 521.769 373.367 521.769 373.609C521.769 373.851 521.809 374.073 521.89 374.275C521.975 374.477 522.092 374.652 522.24 374.8C522.393 374.948 522.57 375.063 522.772 375.144C522.978 375.224 523.205 375.265 523.452 375.265C523.698 375.265 523.927 375.22 524.138 375.13C524.349 375.036 524.54 374.895 524.71 374.706L525.276 375.245C525.056 375.5 524.786 375.696 524.468 375.83C524.149 375.965 523.795 376.032 523.404 376.032ZM526.033 375.965V372.371H526.834V373.36L526.74 373.071C526.848 372.828 527.016 372.644 527.245 372.519C527.478 372.393 527.767 372.33 528.113 372.33V373.131C528.077 373.122 528.043 373.118 528.012 373.118C527.981 373.113 527.949 373.111 527.918 373.111C527.599 373.111 527.346 373.205 527.157 373.394C526.969 373.578 526.875 373.854 526.875 374.222V375.965H526.033ZM530.483 376.012C530.084 376.012 529.734 375.933 529.433 375.776C529.137 375.615 528.906 375.395 528.74 375.117C528.578 374.839 528.498 374.522 528.498 374.168C528.498 373.809 528.576 373.492 528.733 373.219C528.895 372.94 529.115 372.723 529.393 372.566C529.676 372.409 529.996 372.33 530.355 372.33C530.705 372.33 531.017 372.407 531.291 372.559C531.565 372.712 531.78 372.927 531.937 373.205C532.094 373.483 532.173 373.811 532.173 374.188C532.173 374.224 532.17 374.264 532.166 374.309C532.166 374.354 532.164 374.397 532.159 374.437H529.164V373.878H531.715L531.385 374.053C531.39 373.847 531.347 373.665 531.257 373.508C531.168 373.351 531.044 373.228 530.887 373.138C530.735 373.048 530.557 373.003 530.355 373.003C530.149 373.003 529.967 373.048 529.81 373.138C529.658 373.228 529.536 373.353 529.447 373.515C529.361 373.672 529.319 373.858 529.319 374.073V374.208C529.319 374.423 529.368 374.614 529.467 374.78C529.566 374.946 529.705 375.074 529.884 375.164C530.064 375.254 530.27 375.298 530.503 375.298C530.705 375.298 530.887 375.267 531.049 375.204C531.21 375.141 531.354 375.043 531.479 374.908L531.93 375.426C531.769 375.615 531.565 375.761 531.318 375.864C531.076 375.963 530.797 376.012 530.483 376.012ZM534.502 376.012C534.157 376.012 533.845 375.936 533.566 375.783C533.293 375.626 533.077 375.411 532.92 375.137C532.763 374.863 532.685 374.54 532.685 374.168C532.685 373.795 532.763 373.472 532.92 373.198C533.077 372.925 533.293 372.712 533.566 372.559C533.845 372.407 534.157 372.33 534.502 372.33C534.803 372.33 535.072 372.398 535.31 372.532C535.548 372.662 535.736 372.862 535.875 373.131C536.014 373.4 536.084 373.746 536.084 374.168C536.084 374.585 536.016 374.931 535.882 375.204C535.747 375.473 535.561 375.675 535.323 375.81C535.085 375.945 534.812 376.012 534.502 376.012ZM534.603 375.292C534.805 375.292 534.984 375.247 535.141 375.157C535.303 375.067 535.431 374.937 535.525 374.767C535.624 374.596 535.673 374.397 535.673 374.168C535.673 373.934 535.624 373.735 535.525 373.569C535.431 373.398 535.303 373.268 535.141 373.178C534.984 373.089 534.805 373.044 534.603 373.044C534.401 373.044 534.219 373.089 534.058 373.178C533.901 373.268 533.773 373.398 533.674 373.569C533.58 373.735 533.533 373.934 533.533 374.168C533.533 374.397 533.58 374.596 533.674 374.767C533.773 374.937 533.901 375.067 534.058 375.157C534.219 375.247 534.401 375.292 534.603 375.292ZM535.693 375.965V375.117L535.727 374.161L535.66 373.205V370.971H536.494V375.965H535.693ZM537.602 375.965V372.371H538.443V375.965H537.602ZM538.026 371.778C537.869 371.778 537.739 371.729 537.635 371.63C537.537 371.532 537.487 371.413 537.487 371.273C537.487 371.13 537.537 371.011 537.635 370.917C537.739 370.818 537.869 370.769 538.026 370.769C538.183 370.769 538.311 370.816 538.409 370.91C538.513 371 538.564 371.114 538.564 371.253C538.564 371.401 538.515 371.527 538.416 371.63C538.317 371.729 538.187 371.778 538.026 371.778ZM540.9 376.012C540.505 376.012 540.2 375.911 539.985 375.709C539.769 375.503 539.662 375.2 539.662 374.8V371.576H540.503V374.78C540.503 374.951 540.546 375.083 540.631 375.177C540.721 375.272 540.844 375.319 541.001 375.319C541.19 375.319 541.347 375.269 541.472 375.171L541.708 375.77C541.609 375.85 541.488 375.911 541.344 375.951C541.201 375.992 541.053 376.012 540.9 376.012ZM539.069 373.071V372.398H541.466V373.071H539.069ZM546.522 376.032C546.163 376.032 545.828 375.974 545.519 375.857C545.214 375.736 544.947 375.568 544.718 375.352C544.493 375.132 544.318 374.874 544.193 374.578C544.067 374.282 544.004 373.959 544.004 373.609C544.004 373.259 544.067 372.936 544.193 372.64C544.318 372.344 544.496 372.088 544.725 371.873C544.953 371.653 545.22 371.484 545.526 371.368C545.831 371.247 546.165 371.186 546.528 371.186C546.914 371.186 547.267 371.253 547.585 371.388C547.904 371.518 548.173 371.713 548.393 371.973L547.827 372.505C547.657 372.321 547.466 372.184 547.255 372.095C547.044 372 546.816 371.953 546.569 371.953C546.322 371.953 546.095 371.994 545.889 372.074C545.687 372.155 545.51 372.27 545.357 372.418C545.209 372.566 545.093 372.741 545.007 372.943C544.927 373.145 544.886 373.367 544.886 373.609C544.886 373.851 544.927 374.073 545.007 374.275C545.093 374.477 545.209 374.652 545.357 374.8C545.51 374.948 545.687 375.063 545.889 375.144C546.095 375.224 546.322 375.265 546.569 375.265C546.816 375.265 547.044 375.22 547.255 375.13C547.466 375.036 547.657 374.895 547.827 374.706L548.393 375.245C548.173 375.5 547.904 375.696 547.585 375.83C547.267 375.965 546.912 376.032 546.522 376.032ZM551.332 375.965V375.238L551.285 375.083V373.811C551.285 373.564 551.211 373.373 551.063 373.239C550.915 373.1 550.69 373.03 550.39 373.03C550.188 373.03 549.988 373.062 549.791 373.124C549.598 373.187 549.434 373.275 549.299 373.387L548.97 372.774C549.162 372.626 549.391 372.516 549.656 372.445C549.925 372.368 550.204 372.33 550.491 372.33C551.011 372.33 551.413 372.456 551.695 372.707C551.983 372.954 552.126 373.338 552.126 373.858V375.965H551.332ZM550.201 376.012C549.932 376.012 549.696 375.967 549.495 375.877C549.293 375.783 549.136 375.655 549.023 375.494C548.916 375.328 548.862 375.141 548.862 374.935C548.862 374.733 548.909 374.551 549.003 374.39C549.102 374.228 549.261 374.1 549.481 374.006C549.701 373.912 549.993 373.865 550.356 373.865H551.399V374.423H550.417C550.129 374.423 549.937 374.471 549.838 374.565C549.739 374.655 549.69 374.767 549.69 374.901C549.69 375.054 549.75 375.175 549.871 375.265C549.993 375.355 550.161 375.399 550.376 375.399C550.583 375.399 550.767 375.352 550.928 375.258C551.094 375.164 551.213 375.025 551.285 374.841L551.426 375.346C551.345 375.557 551.2 375.72 550.989 375.837C550.782 375.954 550.52 376.012 550.201 376.012ZM553.206 375.965V372.371H554.007V373.36L553.913 373.071C554.02 372.828 554.189 372.644 554.418 372.519C554.651 372.393 554.94 372.33 555.286 372.33V373.131C555.25 373.122 555.216 373.118 555.185 373.118C555.153 373.113 555.122 373.111 555.091 373.111C554.772 373.111 554.519 373.205 554.33 373.394C554.142 373.578 554.047 373.854 554.047 374.222V375.965H553.206ZM557.488 376.012C557.142 376.012 556.83 375.936 556.552 375.783C556.279 375.626 556.063 375.411 555.906 375.137C555.749 374.863 555.671 374.54 555.671 374.168C555.671 373.795 555.749 373.472 555.906 373.198C556.063 372.925 556.279 372.712 556.552 372.559C556.83 372.407 557.142 372.33 557.488 372.33C557.788 372.33 558.058 372.398 558.296 372.532C558.533 372.662 558.722 372.862 558.861 373.131C559 373.4 559.07 373.746 559.07 374.168C559.07 374.585 559.002 374.931 558.868 375.204C558.733 375.473 558.547 375.675 558.309 375.81C558.071 375.945 557.797 376.012 557.488 376.012ZM557.589 375.292C557.791 375.292 557.97 375.247 558.127 375.157C558.289 375.067 558.417 374.937 558.511 374.767C558.61 374.596 558.659 374.397 558.659 374.168C558.659 373.934 558.61 373.735 558.511 373.569C558.417 373.398 558.289 373.268 558.127 373.178C557.97 373.089 557.791 373.044 557.589 373.044C557.387 373.044 557.205 373.089 557.044 373.178C556.887 373.268 556.759 373.398 556.66 373.569C556.566 373.735 556.519 373.934 556.519 374.168C556.519 374.397 556.566 374.596 556.66 374.767C556.759 374.937 556.887 375.067 557.044 375.157C557.205 375.247 557.387 375.292 557.589 375.292ZM558.679 375.965V375.117L558.713 374.161L558.646 373.205V370.971H559.48V375.965H558.679ZM563.989 376.032C563.621 376.032 563.269 375.981 562.932 375.877C562.596 375.77 562.329 375.633 562.131 375.467L562.434 374.787C562.623 374.935 562.856 375.058 563.134 375.157C563.412 375.256 563.697 375.305 563.989 375.305C564.236 375.305 564.436 375.278 564.588 375.224C564.741 375.171 564.853 375.099 564.925 375.009C564.996 374.915 565.032 374.809 565.032 374.693C565.032 374.549 564.981 374.435 564.877 374.349C564.774 374.26 564.64 374.19 564.474 374.141C564.312 374.087 564.13 374.038 563.928 373.993C563.731 373.948 563.531 373.896 563.329 373.838C563.132 373.775 562.95 373.697 562.784 373.602C562.623 373.504 562.49 373.373 562.387 373.212C562.284 373.05 562.232 372.844 562.232 372.593C562.232 372.337 562.3 372.104 562.434 371.893C562.573 371.677 562.782 371.507 563.06 371.381C563.343 371.251 563.7 371.186 564.13 371.186C564.413 371.186 564.694 371.222 564.972 371.294C565.25 371.365 565.492 371.469 565.699 371.603L565.423 372.283C565.212 372.157 564.994 372.065 564.77 372.007C564.545 371.944 564.33 371.913 564.124 371.913C563.881 371.913 563.684 371.942 563.531 372C563.383 372.059 563.273 372.135 563.202 372.229C563.134 372.323 563.101 372.431 563.101 372.552C563.101 372.696 563.15 372.813 563.249 372.902C563.352 372.988 563.484 373.055 563.646 373.104C563.812 373.154 563.996 373.203 564.198 373.252C564.4 373.297 564.599 373.349 564.797 373.407C564.999 373.465 565.18 373.542 565.342 373.636C565.508 373.73 565.64 373.858 565.739 374.02C565.842 374.181 565.894 374.385 565.894 374.632C565.894 374.883 565.824 375.117 565.685 375.332C565.551 375.543 565.342 375.714 565.059 375.844C564.777 375.969 564.42 376.032 563.989 376.032ZM568.034 376.012C567.639 376.012 567.334 375.911 567.118 375.709C566.903 375.503 566.795 375.2 566.795 374.8V371.576H567.636V374.78C567.636 374.951 567.679 375.083 567.764 375.177C567.854 375.272 567.978 375.319 568.135 375.319C568.323 375.319 568.48 375.269 568.606 375.171L568.841 375.77C568.743 375.85 568.621 375.911 568.478 375.951C568.334 375.992 568.186 376.012 568.034 376.012ZM566.203 373.071V372.398H568.599V373.071H566.203ZM571.748 375.965V375.238L571.701 375.083V373.811C571.701 373.564 571.627 373.373 571.479 373.239C571.331 373.1 571.106 373.03 570.806 373.03C570.604 373.03 570.404 373.062 570.206 373.124C570.014 373.187 569.85 373.275 569.715 373.387L569.385 372.774C569.578 372.626 569.807 372.516 570.072 372.445C570.341 372.368 570.619 372.33 570.906 372.33C571.427 372.33 571.829 372.456 572.111 372.707C572.398 372.954 572.542 373.338 572.542 373.858V375.965H571.748ZM570.617 376.012C570.348 376.012 570.112 375.967 569.91 375.877C569.708 375.783 569.551 375.655 569.439 375.494C569.331 375.328 569.278 375.141 569.278 374.935C569.278 374.733 569.325 374.551 569.419 374.39C569.518 374.228 569.677 374.1 569.897 374.006C570.117 373.912 570.408 373.865 570.772 373.865H571.815V374.423H570.832C570.545 374.423 570.352 374.471 570.254 374.565C570.155 374.655 570.106 374.767 570.106 374.901C570.106 375.054 570.166 375.175 570.287 375.265C570.408 375.355 570.577 375.399 570.792 375.399C570.998 375.399 571.182 375.352 571.344 375.258C571.51 375.164 571.629 375.025 571.701 374.841L571.842 375.346C571.761 375.557 571.615 375.72 571.405 375.837C571.198 375.954 570.936 376.012 570.617 376.012ZM574.975 376.012C574.58 376.012 574.275 375.911 574.059 375.709C573.844 375.503 573.736 375.2 573.736 374.8V371.576H574.578V374.78C574.578 374.951 574.62 375.083 574.705 375.177C574.795 375.272 574.919 375.319 575.076 375.319C575.264 375.319 575.421 375.269 575.547 375.171L575.782 375.77C575.684 375.85 575.563 375.911 575.419 375.951C575.275 375.992 575.127 376.012 574.975 376.012ZM573.144 373.071V372.398H575.54V373.071H573.144ZM576.809 376.012C576.657 376.012 576.527 375.96 576.419 375.857C576.311 375.749 576.258 375.615 576.258 375.453C576.258 375.283 576.311 375.148 576.419 375.049C576.527 374.946 576.657 374.895 576.809 374.895C576.962 374.895 577.092 374.946 577.2 375.049C577.308 375.148 577.361 375.283 577.361 375.453C577.361 375.615 577.308 375.749 577.2 375.857C577.092 375.96 576.962 376.012 576.809 376.012ZM578.453 376.012C578.3 376.012 578.17 375.96 578.062 375.857C577.955 375.749 577.901 375.615 577.901 375.453C577.901 375.283 577.955 375.148 578.062 375.049C578.17 374.946 578.3 374.895 578.453 374.895C578.605 374.895 578.735 374.946 578.843 375.049C578.951 375.148 579.005 375.283 579.005 375.453C579.005 375.615 578.951 375.749 578.843 375.857C578.735 375.96 578.605 376.012 578.453 376.012ZM580.096 376.012C579.943 376.012 579.813 375.96 579.706 375.857C579.598 375.749 579.544 375.615 579.544 375.453C579.544 375.283 579.598 375.148 579.706 375.049C579.813 374.946 579.943 374.895 580.096 374.895C580.249 374.895 580.379 374.946 580.486 375.049C580.594 375.148 580.648 375.283 580.648 375.453C580.648 375.615 580.594 375.749 580.486 375.857C580.379 375.96 580.249 376.012 580.096 376.012Z" fill="#525252"/>
</g>
<g filter="url(#filter3_d_1312_3868)">
<rect x="416" y="330.004" width="209.513" height="28.3126" rx="2.83126" fill="white"/>
<path fill-rule="evenodd" clip-rule="evenodd" d="M430.155 349.821C433.282 349.821 435.817 347.286 435.817 344.159C435.817 341.031 433.282 338.496 430.155 338.496C427.027 338.496 424.492 341.031 424.492 344.159C424.492 347.286 427.027 349.821 430.155 349.821Z" fill="#37AEB4"/>
<path fill-rule="evenodd" clip-rule="evenodd" d="M430.155 349.821C433.282 349.821 435.817 347.286 435.817 344.159C435.817 341.031 433.282 338.496 430.155 338.496C427.027 338.496 424.492 341.031 424.492 344.159C424.492 347.286 427.027 349.821 430.155 349.821Z" fill="white" fill-opacity="0.4"/>
<path d="M430.863 343.449H432.279C432.67 343.449 432.987 343.766 432.987 344.157C432.987 344.548 432.67 344.865 432.279 344.865H430.863H429.448H428.032C427.641 344.865 427.324 344.548 427.324 344.157C427.324 343.766 427.641 343.449 428.032 343.449H429.448H430.863Z" fill="white"/>
<path d="M445.031 347.581C444.578 347.581 444.156 347.507 443.765 347.36C443.38 347.207 443.043 346.995 442.755 346.723C442.471 346.446 442.251 346.12 442.092 345.746C441.933 345.373 441.854 344.965 441.854 344.523C441.854 344.082 441.933 343.674 442.092 343.3C442.251 342.926 442.474 342.604 442.763 342.332C443.052 342.054 443.389 341.842 443.774 341.695C444.159 341.542 444.581 341.466 445.039 341.466C445.526 341.466 445.971 341.55 446.373 341.72C446.775 341.885 447.115 342.131 447.392 342.459L446.679 343.13C446.463 342.898 446.223 342.725 445.957 342.612C445.691 342.493 445.402 342.434 445.09 342.434C444.779 342.434 444.493 342.485 444.232 342.587C443.978 342.689 443.754 342.833 443.561 343.02C443.375 343.207 443.227 343.428 443.12 343.682C443.018 343.937 442.967 344.217 442.967 344.523C442.967 344.829 443.018 345.109 443.12 345.364C443.227 345.619 443.375 345.84 443.561 346.027C443.754 346.214 443.978 346.358 444.232 346.46C444.493 346.562 444.779 346.613 445.09 346.613C445.402 346.613 445.691 346.556 445.957 346.443C446.223 346.324 446.463 346.146 446.679 345.908L447.392 346.587C447.115 346.91 446.775 347.156 446.373 347.326C445.971 347.496 445.524 347.581 445.031 347.581ZM448.45 347.496V341.55H449.554V346.562H452.663V347.496H448.45ZM452.702 347.496L455.378 341.55H456.465L459.149 347.496H457.994L455.692 342.137H456.134L453.84 347.496H452.702ZM453.934 346.12L454.231 345.254H457.442L457.739 346.12H453.934ZM461.748 347.581C461.284 347.581 460.839 347.516 460.415 347.386C459.99 347.25 459.653 347.077 459.404 346.868L459.786 346.01C460.024 346.197 460.318 346.352 460.67 346.477C461.021 346.601 461.38 346.664 461.748 346.664C462.06 346.664 462.312 346.63 462.504 346.562C462.697 346.494 462.838 346.403 462.929 346.29C463.019 346.171 463.065 346.038 463.065 345.891C463.065 345.71 463 345.565 462.869 345.458C462.739 345.344 462.569 345.257 462.36 345.194C462.156 345.126 461.927 345.064 461.672 345.007C461.423 344.951 461.171 344.886 460.916 344.812C460.667 344.733 460.437 344.634 460.228 344.515C460.024 344.39 459.857 344.226 459.727 344.022C459.597 343.818 459.531 343.558 459.531 343.241C459.531 342.918 459.616 342.624 459.786 342.357C459.962 342.086 460.225 341.87 460.576 341.712C460.933 341.548 461.383 341.466 461.927 341.466C462.283 341.466 462.637 341.511 462.988 341.601C463.339 341.692 463.645 341.822 463.906 341.992L463.557 342.85C463.291 342.691 463.017 342.575 462.734 342.502C462.45 342.422 462.179 342.383 461.918 342.383C461.612 342.383 461.363 342.42 461.171 342.493C460.984 342.567 460.845 342.663 460.754 342.782C460.67 342.901 460.627 343.037 460.627 343.19C460.627 343.371 460.689 343.518 460.814 343.631C460.944 343.739 461.111 343.824 461.315 343.886C461.525 343.949 461.757 344.011 462.012 344.073C462.266 344.13 462.518 344.195 462.768 344.268C463.022 344.342 463.252 344.438 463.456 344.557C463.665 344.676 463.832 344.838 463.957 345.041C464.087 345.245 464.152 345.503 464.152 345.814C464.152 346.131 464.064 346.426 463.889 346.698C463.719 346.964 463.456 347.179 463.099 347.343C462.742 347.502 462.292 347.581 461.748 347.581ZM467.09 347.581C466.626 347.581 466.181 347.516 465.757 347.386C465.332 347.25 464.995 347.077 464.746 346.868L465.128 346.01C465.366 346.197 465.66 346.352 466.011 346.477C466.362 346.601 466.722 346.664 467.09 346.664C467.401 346.664 467.653 346.63 467.846 346.562C468.039 346.494 468.18 346.403 468.271 346.29C468.361 346.171 468.407 346.038 468.407 345.891C468.407 345.71 468.341 345.565 468.211 345.458C468.081 345.344 467.911 345.257 467.702 345.194C467.498 345.126 467.268 345.064 467.014 345.007C466.764 344.951 466.512 344.886 466.258 344.812C466.009 344.733 465.779 344.634 465.57 344.515C465.366 344.39 465.199 344.226 465.069 344.022C464.938 343.818 464.873 343.558 464.873 343.241C464.873 342.918 464.958 342.624 465.128 342.357C465.304 342.086 465.567 341.87 465.918 341.712C466.275 341.548 466.725 341.466 467.268 341.466C467.625 341.466 467.979 341.511 468.33 341.601C468.681 341.692 468.987 341.822 469.247 341.992L468.899 342.85C468.633 342.691 468.358 342.575 468.075 342.502C467.792 342.422 467.52 342.383 467.26 342.383C466.954 342.383 466.705 342.42 466.512 342.493C466.326 342.567 466.187 342.663 466.096 342.782C466.011 342.901 465.969 343.037 465.969 343.19C465.969 343.371 466.031 343.518 466.156 343.631C466.286 343.739 466.453 343.824 466.657 343.886C466.866 343.949 467.099 344.011 467.353 344.073C467.608 344.13 467.86 344.195 468.109 344.268C468.364 344.342 468.593 344.438 468.797 344.557C469.007 344.676 469.174 344.838 469.298 345.041C469.429 345.245 469.494 345.503 469.494 345.814C469.494 346.131 469.406 346.426 469.23 346.698C469.061 346.964 468.797 347.179 468.441 347.343C468.084 347.502 467.634 347.581 467.09 347.581ZM470.589 347.496V341.55H471.693V347.496H470.589ZM474.312 344.285H477.276V345.22H474.312V344.285ZM474.405 347.496H473.301V341.55H477.641V342.476H474.405V347.496ZM480.17 347.496V345.143L480.416 345.823L477.834 341.55H479.015L481.087 344.99H480.425L482.514 341.55H483.602L481.019 345.823L481.274 345.143V347.496H480.17ZM487.878 347.496V342.485H485.908V341.55H490.953V342.485H488.982V347.496H487.878ZM495.961 341.55H497.065V347.496H495.961V341.55ZM492.886 347.496H491.782V341.55H492.886V347.496ZM496.046 344.948H492.792V344.005H496.046V344.948ZM498.658 347.496V341.55H499.762V347.496H498.658ZM503.213 347.581C502.749 347.581 502.305 347.516 501.88 347.386C501.455 347.25 501.118 347.077 500.869 346.868L501.251 346.01C501.489 346.197 501.784 346.352 502.135 346.477C502.486 346.601 502.845 346.664 503.213 346.664C503.525 346.664 503.777 346.63 503.969 346.562C504.162 346.494 504.303 346.403 504.394 346.29C504.485 346.171 504.53 346.038 504.53 345.891C504.53 345.71 504.465 345.565 504.335 345.458C504.204 345.344 504.035 345.257 503.825 345.194C503.621 345.126 503.392 345.064 503.137 345.007C502.888 344.951 502.636 344.886 502.381 344.812C502.132 344.733 501.903 344.634 501.693 344.515C501.489 344.39 501.322 344.226 501.192 344.022C501.062 343.818 500.997 343.558 500.997 343.241C500.997 342.918 501.082 342.624 501.251 342.357C501.427 342.086 501.69 341.87 502.041 341.712C502.398 341.548 502.848 341.466 503.392 341.466C503.749 341.466 504.102 341.511 504.454 341.601C504.805 341.692 505.11 341.822 505.371 341.992L505.023 342.85C504.756 342.691 504.482 342.575 504.199 342.502C503.916 342.422 503.644 342.383 503.383 342.383C503.078 342.383 502.828 342.42 502.636 342.493C502.449 342.567 502.31 342.663 502.22 342.782C502.135 342.901 502.092 343.037 502.092 343.19C502.092 343.371 502.155 343.518 502.279 343.631C502.409 343.739 502.576 343.824 502.78 343.886C502.99 343.949 503.222 344.011 503.477 344.073C503.732 344.13 503.984 344.195 504.233 344.268C504.488 344.342 504.717 344.438 504.921 344.557C505.13 344.676 505.297 344.838 505.422 345.041C505.552 345.245 505.617 345.503 505.617 345.814C505.617 346.131 505.529 346.426 505.354 346.698C505.184 346.964 504.921 347.179 504.564 347.343C504.207 347.502 503.757 347.581 503.213 347.581ZM509.059 347.496V341.55H511.659C512.304 341.55 512.87 341.675 513.357 341.924C513.844 342.173 514.224 342.519 514.495 342.96C514.767 343.402 514.903 343.923 514.903 344.523C514.903 345.118 514.767 345.639 514.495 346.086C514.224 346.528 513.844 346.873 513.357 347.122C512.87 347.372 512.304 347.496 511.659 347.496H509.059ZM510.164 346.562H511.608C512.055 346.562 512.44 346.477 512.763 346.307C513.091 346.137 513.343 345.899 513.519 345.593C513.7 345.288 513.791 344.931 513.791 344.523C513.791 344.11 513.7 343.753 513.519 343.453C513.343 343.147 513.091 342.909 512.763 342.74C512.44 342.57 512.055 342.485 511.608 342.485H510.164V346.562ZM517.096 344.022H520.052V344.931H517.096V344.022ZM517.181 346.57H520.536V347.496H516.077V341.55H520.417V342.476H517.181V346.57ZM520.926 347.496L523.602 341.55H524.689L527.373 347.496H526.218L523.916 342.137H524.358L522.064 347.496H520.926ZM522.158 346.12L522.455 345.254H525.666L525.963 346.12H522.158ZM528.129 347.496V341.55H529.233V346.562H532.342V347.496H528.129Z" fill="#525252"/>
</g>
<path d="M452.647 399.398L454.768 394.687H455.629L457.756 399.398H456.841L455.017 395.151H455.367L453.549 399.398H452.647ZM453.623 398.308L453.859 397.622H456.403L456.639 398.308H453.623ZM459.763 399.446C459.417 399.446 459.105 399.369 458.827 399.217C458.553 399.06 458.338 398.844 458.181 398.571C458.024 398.297 457.945 397.974 457.945 397.601C457.945 397.229 458.024 396.906 458.181 396.632C458.338 396.358 458.553 396.145 458.827 395.993C459.105 395.84 459.417 395.764 459.763 395.764C460.063 395.764 460.333 395.831 460.57 395.966C460.808 396.096 460.997 396.296 461.136 396.565C461.275 396.834 461.344 397.18 461.344 397.601C461.344 398.019 461.277 398.364 461.143 398.638C461.008 398.907 460.822 399.109 460.584 399.244C460.346 399.378 460.072 399.446 459.763 399.446ZM459.864 398.725C460.066 398.725 460.245 398.68 460.402 398.591C460.564 398.501 460.692 398.371 460.786 398.2C460.885 398.03 460.934 397.83 460.934 397.601C460.934 397.368 460.885 397.168 460.786 397.002C460.692 396.832 460.564 396.702 460.402 396.612C460.245 396.522 460.066 396.477 459.864 396.477C459.662 396.477 459.48 396.522 459.319 396.612C459.161 396.702 459.034 396.832 458.935 397.002C458.841 397.168 458.794 397.368 458.794 397.601C458.794 397.83 458.841 398.03 458.935 398.2C459.034 398.371 459.161 398.501 459.319 398.591C459.48 398.68 459.662 398.725 459.864 398.725ZM460.954 399.398V398.55L460.988 397.595L460.92 396.639V394.404H461.755V399.398H460.954ZM464.384 399.446C464.038 399.446 463.726 399.369 463.448 399.217C463.174 399.06 462.959 398.844 462.802 398.571C462.645 398.297 462.566 397.974 462.566 397.601C462.566 397.229 462.645 396.906 462.802 396.632C462.959 396.358 463.174 396.145 463.448 395.993C463.726 395.84 464.038 395.764 464.384 395.764C464.684 395.764 464.953 395.831 465.191 395.966C465.429 396.096 465.618 396.296 465.757 396.565C465.896 396.834 465.965 397.18 465.965 397.601C465.965 398.019 465.898 398.364 465.763 398.638C465.629 398.907 465.443 399.109 465.205 399.244C464.967 399.378 464.693 399.446 464.384 399.446ZM464.485 398.725C464.686 398.725 464.866 398.68 465.023 398.591C465.185 398.501 465.312 398.371 465.407 398.2C465.505 398.03 465.555 397.83 465.555 397.601C465.555 397.368 465.505 397.168 465.407 397.002C465.312 396.832 465.185 396.702 465.023 396.612C464.866 396.522 464.686 396.477 464.485 396.477C464.283 396.477 464.101 396.522 463.939 396.612C463.782 396.702 463.654 396.832 463.556 397.002C463.461 397.168 463.414 397.368 463.414 397.601C463.414 397.83 463.461 398.03 463.556 398.2C463.654 398.371 463.782 398.501 463.939 398.591C464.101 398.68 464.283 398.725 464.485 398.725ZM465.575 399.398V398.55L465.609 397.595L465.541 396.639V394.404H466.376V399.398H465.575ZM470.38 399.398V395.427H468.818V394.687H472.816V395.427H471.255V399.398H470.38ZM475.416 399.398V398.672L475.369 398.517V397.245C475.369 396.998 475.295 396.807 475.147 396.672C474.999 396.533 474.775 396.464 474.474 396.464C474.272 396.464 474.072 396.495 473.875 396.558C473.682 396.621 473.518 396.708 473.383 396.821L473.054 396.208C473.247 396.06 473.475 395.95 473.74 395.878C474.009 395.802 474.288 395.764 474.575 395.764C475.095 395.764 475.497 395.889 475.78 396.141C476.067 396.388 476.21 396.771 476.21 397.292V399.398H475.416ZM474.285 399.446C474.016 399.446 473.781 399.401 473.579 399.311C473.377 399.217 473.22 399.089 473.108 398.927C473 398.761 472.946 398.575 472.946 398.369C472.946 398.167 472.993 397.985 473.087 397.823C473.186 397.662 473.345 397.534 473.565 397.44C473.785 397.346 474.077 397.298 474.44 397.298H475.483V397.857H474.501C474.214 397.857 474.021 397.904 473.922 397.998C473.823 398.088 473.774 398.2 473.774 398.335C473.774 398.488 473.834 398.609 473.956 398.698C474.077 398.788 474.245 398.833 474.46 398.833C474.667 398.833 474.851 398.786 475.012 398.692C475.178 398.597 475.297 398.458 475.369 398.274L475.51 398.779C475.43 398.99 475.284 399.154 475.073 399.271C474.867 399.387 474.604 399.446 474.285 399.446ZM478.401 399.446C478.1 399.446 477.811 399.407 477.532 399.331C477.259 399.25 477.041 399.154 476.88 399.042L477.203 398.402C477.364 398.505 477.557 398.591 477.782 398.658C478.006 398.725 478.23 398.759 478.455 398.759C478.719 398.759 478.91 398.723 479.027 398.651C479.148 398.58 479.208 398.483 479.208 398.362C479.208 398.263 479.168 398.189 479.087 398.14C479.007 398.086 478.901 398.046 478.771 398.019C478.641 397.992 478.495 397.967 478.333 397.945C478.176 397.922 478.017 397.893 477.856 397.857C477.699 397.817 477.555 397.761 477.425 397.689C477.295 397.613 477.189 397.512 477.108 397.386C477.028 397.26 476.987 397.094 476.987 396.888C476.987 396.659 477.052 396.462 477.182 396.296C477.313 396.125 477.494 395.995 477.728 395.905C477.966 395.811 478.246 395.764 478.569 395.764C478.811 395.764 479.056 395.791 479.303 395.845C479.549 395.898 479.754 395.975 479.915 396.073L479.592 396.713C479.422 396.61 479.249 396.54 479.074 396.504C478.903 396.464 478.733 396.444 478.562 396.444C478.307 396.444 478.116 396.482 477.99 396.558C477.869 396.634 477.808 396.731 477.808 396.847C477.808 396.955 477.849 397.036 477.93 397.09C478.01 397.144 478.116 397.186 478.246 397.218C478.376 397.249 478.52 397.276 478.677 397.298C478.838 397.316 478.998 397.346 479.155 397.386C479.312 397.426 479.455 397.482 479.585 397.554C479.72 397.622 479.828 397.718 479.908 397.844C479.989 397.969 480.03 398.133 480.03 398.335C480.03 398.559 479.962 398.755 479.828 398.921C479.698 399.087 479.511 399.217 479.269 399.311C479.027 399.401 478.737 399.446 478.401 399.446ZM481.441 398.597L481.461 397.541L483.339 395.804H484.348L482.753 397.406L482.309 397.776L481.441 398.597ZM480.754 399.398V394.404H481.596V399.398H480.754ZM483.467 399.398L482.154 397.776L482.686 397.103L484.49 399.398H483.467Z" fill="#626262"/>
<path fill-rule="evenodd" clip-rule="evenodd" d="M445.219 394.082C445.528 394.082 445.779 394.333 445.779 394.643V396.326H447.462C447.772 396.326 448.023 396.577 448.023 396.887C448.023 397.196 447.772 397.447 447.462 397.447H445.779V399.13C445.779 399.44 445.528 399.691 445.219 399.691C444.909 399.691 444.658 399.44 444.658 399.13V397.447H442.975C442.665 397.447 442.414 397.196 442.414 396.887C442.414 396.577 442.665 396.326 442.975 396.326H444.658V394.643C444.658 394.333 444.909 394.082 445.219 394.082Z" fill="#626262"/>
<path d="M443.544 294.239C443.185 294.239 442.851 294.181 442.541 294.064C442.236 293.943 441.969 293.775 441.74 293.559C441.516 293.34 441.341 293.081 441.215 292.785C441.089 292.489 441.027 292.166 441.027 291.816C441.027 291.466 441.089 291.143 441.215 290.847C441.341 290.551 441.518 290.295 441.747 290.08C441.976 289.86 442.243 289.691 442.548 289.575C442.853 289.454 443.187 289.393 443.551 289.393C443.937 289.393 444.289 289.46 444.607 289.595C444.926 289.725 445.195 289.92 445.415 290.181L444.85 290.712C444.679 290.528 444.488 290.391 444.278 290.302C444.067 290.207 443.838 290.16 443.591 290.16C443.344 290.16 443.118 290.201 442.911 290.281C442.709 290.362 442.532 290.477 442.38 290.625C442.231 290.773 442.115 290.948 442.03 291.15C441.949 291.352 441.908 291.574 441.908 291.816C441.908 292.058 441.949 292.281 442.03 292.482C442.115 292.684 442.231 292.859 442.38 293.007C442.532 293.156 442.709 293.27 442.911 293.351C443.118 293.431 443.344 293.472 443.591 293.472C443.838 293.472 444.067 293.427 444.278 293.337C444.488 293.243 444.679 293.102 444.85 292.913L445.415 293.452C445.195 293.707 444.926 293.903 444.607 294.037C444.289 294.172 443.934 294.239 443.544 294.239ZM446.253 294.172V289.46H447.128V293.431H449.592V294.172H446.253ZM452.405 294.239C452.037 294.239 451.698 294.179 451.389 294.057C451.079 293.936 450.81 293.768 450.581 293.553C450.352 293.333 450.175 293.077 450.049 292.785C449.924 292.489 449.861 292.166 449.861 291.816C449.861 291.466 449.924 291.145 450.049 290.854C450.175 290.557 450.352 290.302 450.581 290.086C450.81 289.866 451.079 289.696 451.389 289.575C451.698 289.454 452.035 289.393 452.398 289.393C452.766 289.393 453.103 289.454 453.408 289.575C453.717 289.696 453.987 289.866 454.216 290.086C454.444 290.302 454.622 290.557 454.747 290.854C454.873 291.145 454.936 291.466 454.936 291.816C454.936 292.166 454.873 292.489 454.747 292.785C454.622 293.081 454.444 293.337 454.216 293.553C453.987 293.768 453.717 293.936 453.408 294.057C453.103 294.179 452.768 294.239 452.405 294.239ZM452.398 293.472C452.636 293.472 452.856 293.431 453.058 293.351C453.26 293.27 453.435 293.156 453.583 293.007C453.731 292.855 453.845 292.68 453.926 292.482C454.011 292.281 454.054 292.058 454.054 291.816C454.054 291.574 454.011 291.354 453.926 291.156C453.845 290.955 453.731 290.78 453.583 290.631C453.435 290.479 453.26 290.362 453.058 290.281C452.856 290.201 452.636 290.16 452.398 290.16C452.16 290.16 451.941 290.201 451.739 290.281C451.541 290.362 451.366 290.479 451.214 290.631C451.066 290.78 450.949 290.955 450.864 291.156C450.783 291.354 450.742 291.574 450.742 291.816C450.742 292.054 450.783 292.274 450.864 292.476C450.949 292.678 451.066 292.855 451.214 293.007C451.362 293.156 451.537 293.27 451.739 293.351C451.941 293.431 452.16 293.472 452.398 293.472ZM457.324 294.239C456.956 294.239 456.604 294.188 456.267 294.084C455.931 293.977 455.664 293.84 455.466 293.674L455.769 292.994C455.957 293.142 456.191 293.265 456.469 293.364C456.747 293.463 457.032 293.512 457.324 293.512C457.571 293.512 457.77 293.485 457.923 293.431C458.075 293.378 458.188 293.306 458.259 293.216C458.331 293.122 458.367 293.016 458.367 292.9C458.367 292.756 458.315 292.642 458.212 292.556C458.109 292.467 457.974 292.397 457.808 292.348C457.647 292.294 457.465 292.245 457.263 292.2C457.066 292.155 456.866 292.103 456.664 292.045C456.467 291.982 456.285 291.904 456.119 291.809C455.957 291.711 455.825 291.581 455.722 291.419C455.619 291.257 455.567 291.051 455.567 290.8C455.567 290.544 455.634 290.311 455.769 290.1C455.908 289.884 456.117 289.714 456.395 289.588C456.678 289.458 457.034 289.393 457.465 289.393C457.748 289.393 458.028 289.429 458.307 289.501C458.585 289.573 458.827 289.676 459.033 289.81L458.757 290.49C458.547 290.365 458.329 290.273 458.105 290.214C457.88 290.151 457.665 290.12 457.458 290.12C457.216 290.12 457.019 290.149 456.866 290.207C456.718 290.266 456.608 290.342 456.536 290.436C456.469 290.531 456.435 290.638 456.435 290.759C456.435 290.903 456.485 291.02 456.583 291.109C456.687 291.195 456.819 291.262 456.981 291.311C457.147 291.361 457.331 291.41 457.532 291.459C457.734 291.504 457.934 291.556 458.132 291.614C458.333 291.673 458.515 291.749 458.677 291.843C458.843 291.937 458.975 292.065 459.074 292.227C459.177 292.388 459.229 292.592 459.229 292.839C459.229 293.09 459.159 293.324 459.02 293.539C458.885 293.75 458.677 293.921 458.394 294.051C458.111 294.176 457.755 294.239 457.324 294.239ZM460.904 291.419H463.246V292.139H460.904V291.419ZM460.971 293.438H463.63V294.172H460.096V289.46H463.536V290.194H460.971V293.438ZM464.605 294.172V289.46H466.544C466.961 289.46 467.318 289.528 467.614 289.662C467.915 289.797 468.146 289.99 468.307 290.241C468.469 290.492 468.55 290.791 468.55 291.136C468.55 291.482 468.469 291.78 468.307 292.031C468.146 292.278 467.915 292.469 467.614 292.604C467.318 292.734 466.961 292.799 466.544 292.799H465.09L465.48 292.402V294.172H464.605ZM467.688 294.172L466.497 292.462H467.432L468.63 294.172H467.688ZM465.48 292.496L465.09 292.079H466.503C466.889 292.079 467.179 291.996 467.372 291.83C467.569 291.664 467.668 291.432 467.668 291.136C467.668 290.836 467.569 290.605 467.372 290.443C467.179 290.281 466.889 290.201 466.503 290.201H465.09L465.48 289.77V292.496Z" fill="#525252"/>
</g>
<defs>
<filter id="filter0_bd_1312_3868" x="398" y="240.004" width="245.514" height="186" filterUnits="userSpaceOnUse" color-interpolation-filters="sRGB">
<feFlood flood-opacity="0" result="BackgroundImageFix"/>
<feGaussianBlur in="BackgroundImageFix" stdDeviation="7"/>
<feComposite in2="SourceAlpha" operator="in" result="effect1_backgroundBlur_1312_3868"/>
<feColorMatrix in="SourceAlpha" type="matrix" values="0 0 0 0 0 0 0 0 0 0 0 0 0 0 0 0 0 0 127 0" result="hardAlpha"/>
<feOffset/>
<feGaussianBlur stdDeviation="9"/>
<feComposite in2="hardAlpha" operator="out"/>
<feColorMatrix type="matrix" values="0 0 0 0 0 0 0 0 0 0 0 0 0 0 0 0 0 0 0.08 0"/>
<feBlend mode="normal" in2="effect1_backgroundBlur_1312_3868" result="effect2_dropShadow_1312_3868"/>
<feBlend mode="normal" in="SourceGraphic" in2="effect2_dropShadow_1312_3868" result="shape"/>
</filter>
<filter id="filter1_d_1312_3868" x="436.243" y="300.631" width="170.513" height="26.9247" filterUnits="userSpaceOnUse" color-interpolation-filters="sRGB">
<feFlood flood-opacity="0" result="BackgroundImageFix"/>
<feColorMatrix in="SourceAlpha" type="matrix" values="0 0 0 0 0 0 0 0 0 0 0 0 0 0 0 0 0 0 127 0" result="hardAlpha"/>
<feOffset/>
<feGaussianBlur stdDeviation="1.12179"/>
<feColorMatrix type="matrix" values="0 0 0 0 0 0 0 0 0 0 0 0 0 0 0 0 0 0 0.12 0"/>
<feBlend mode="normal" in2="BackgroundImageFix" result="effect1_dropShadow_1312_3868"/>
<feBlend mode="normal" in="SourceGraphic" in2="effect1_dropShadow_1312_3868" result="shape"/>
</filter>
<filter id="filter2_d_1312_3868" x="436.245" y="359.991" width="170.513" height="26.9247" filterUnits="userSpaceOnUse" color-interpolation-filters="sRGB">
<feFlood flood-opacity="0" result="BackgroundImageFix"/>
<feColorMatrix in="SourceAlpha" type="matrix" values="0 0 0 0 0 0 0 0 0 0 0 0 0 0 0 0 0 0 127 0" result="hardAlpha"/>
<feOffset/>
<feGaussianBlur stdDeviation="1.12179"/>
<feColorMatrix type="matrix" values="0 0 0 0 0 0 0 0 0 0 0 0 0 0 0 0 0 0 0.12 0"/>
<feBlend mode="normal" in2="BackgroundImageFix" result="effect1_dropShadow_1312_3868"/>
<feBlend mode="normal" in="SourceGraphic" in2="effect1_dropShadow_1312_3868" result="shape"/>
</filter>
<filter id="filter3_d_1312_3868" x="400" y="314.004" width="241.514" height="60.3125" filterUnits="userSpaceOnUse" color-interpolation-filters="sRGB">
<feFlood flood-opacity="0" result="BackgroundImageFix"/>
<feColorMatrix in="SourceAlpha" type="matrix" values="0 0 0 0 0 0 0 0 0 0 0 0 0 0 0 0 0 0 127 0" result="hardAlpha"/>
<feOffset/>
<feGaussianBlur stdDeviation="8"/>
<feColorMatrix type="matrix" values="0 0 0 0 0 0 0 0 0 0 0 0 0 0 0 0 0 0 0.1 0"/>
<feBlend mode="normal" in2="BackgroundImageFix" result="effect1_dropShadow_1312_3868"/>
<feBlend mode="normal" in="SourceGraphic" in2="effect1_dropShadow_1312_3868" result="shape"/>
</filter>
</defs>
</svg>
