<svg width="634" height="462" viewBox="0 0 634 462" fill="none" xmlns="http://www.w3.org/2000/svg">
<path d="M39 314.507H145.153V240.174C137.738 239.894 117.444 238.491 95.5889 227.271C73.7339 216.051 48.7567 214.929 39 215.771V314.507Z" fill="url(#paint0_linear_1312_2902)"/>
<path d="M254.904 314.507H361.057V307.436C351.691 307.436 340.763 307.436 319.299 306.65C287.066 305.47 262.97 297.309 254.904 293.816V314.507Z" fill="url(#paint1_linear_1312_2902)"/>
<g filter="url(#filter0_d_1312_2902)">
<path d="M146.053 219.149C146.053 217.162 147.664 215.551 149.651 215.551H250.406C252.394 215.551 254.005 217.162 254.005 219.149V388.274C254.005 390.261 252.394 391.873 250.406 391.873H149.651C147.664 391.873 146.053 390.261 146.053 388.274V219.149Z" fill="white"/>
</g>
<path d="M146.951 314.509H253.104V292.594C250.372 292.218 234.059 282.722 210.955 264.912C187.851 247.102 171.148 241.588 146.951 240.742V314.509Z" fill="url(#paint2_linear_1312_2902)"/>
<path d="M49.507 355.898V338.356L51.0453 339.949H45.5128V337.007H53.0155V355.898H49.507ZM56.5201 355.898V353.55L64.0228 346.426C64.6525 345.832 65.1203 345.31 65.4261 344.86C65.732 344.411 65.9299 343.997 66.0199 343.619C66.1278 343.223 66.1818 342.854 66.1818 342.512C66.1818 341.649 65.8849 340.983 65.2912 340.515C64.6975 340.029 63.8249 339.787 62.6734 339.787C61.7558 339.787 60.9191 339.949 60.1635 340.272C59.4258 340.596 58.7871 341.091 58.2473 341.757L55.7914 339.868C56.5291 338.878 57.5187 338.113 58.7601 337.574C60.0195 337.016 61.4229 336.737 62.9702 336.737C64.3376 336.737 65.5251 336.962 66.5327 337.412C67.5582 337.843 68.3409 338.464 68.8806 339.274C69.4384 340.083 69.7172 341.046 69.7172 342.162C69.7172 342.773 69.6363 343.385 69.4744 343.997C69.3124 344.59 69.0066 345.22 68.5568 345.886C68.107 346.552 67.4502 347.298 66.5866 348.126L60.1365 354.252L59.4078 352.93H70.4459V355.898H56.5201ZM78.4082 356.168C77.0768 356.168 75.7724 355.979 74.495 355.602C73.2355 355.206 72.174 354.666 71.3104 353.982L72.8217 351.256C73.5054 351.814 74.333 352.264 75.3046 352.606C76.2762 352.948 77.2927 353.119 78.3543 353.119C79.6137 353.119 80.5943 352.867 81.296 352.363C81.9976 351.841 82.3485 351.14 82.3485 350.258C82.3485 349.394 82.0246 348.711 81.3769 348.207C80.7292 347.703 79.6857 347.451 78.2463 347.451H76.5191V345.049L81.9167 338.626L82.3755 339.949H72.228V337.007H85.1013V339.355L79.7037 345.778L77.8685 344.698H78.921C81.242 344.698 82.9782 345.22 84.1297 346.264C85.2992 347.289 85.8839 348.612 85.8839 350.231C85.8839 351.292 85.614 352.273 85.0743 353.173C84.5345 354.072 83.7069 354.801 82.5914 355.359C81.4939 355.898 80.0995 356.168 78.4082 356.168Z" fill="#FA9901"/>
<path d="M160.807 336.737C162.534 336.737 164 337.106 165.206 337.843C166.429 338.563 167.365 339.616 168.012 341.001C168.66 342.386 168.984 344.096 168.984 346.129C168.984 348.288 168.588 350.114 167.797 351.607C167.023 353.101 165.943 354.234 164.558 355.008C163.173 355.781 161.562 356.168 159.727 356.168C158.774 356.168 157.865 356.069 157.001 355.871C156.138 355.674 155.391 355.368 154.761 354.954L156.057 352.309C156.579 352.651 157.145 352.894 157.757 353.038C158.369 353.164 158.998 353.227 159.646 353.227C161.427 353.227 162.84 352.678 163.883 351.58C164.927 350.483 165.449 348.864 165.449 346.723C165.449 346.381 165.44 345.985 165.422 345.535C165.404 345.067 165.341 344.599 165.233 344.132L166.312 345.319C166.006 346.057 165.566 346.678 164.99 347.181C164.414 347.667 163.739 348.036 162.966 348.288C162.192 348.54 161.337 348.666 160.402 348.666C159.178 348.666 158.072 348.432 157.082 347.964C156.111 347.478 155.337 346.803 154.761 345.94C154.186 345.058 153.898 344.033 153.898 342.863C153.898 341.604 154.204 340.524 154.815 339.625C155.427 338.707 156.255 337.996 157.298 337.493C158.36 336.989 159.529 336.737 160.807 336.737ZM160.996 339.49C160.276 339.49 159.637 339.625 159.079 339.895C158.522 340.146 158.081 340.515 157.757 341.001C157.451 341.469 157.298 342.036 157.298 342.701C157.298 343.691 157.64 344.474 158.324 345.049C159.007 345.625 159.925 345.913 161.077 345.913C161.832 345.913 162.498 345.778 163.074 345.508C163.649 345.22 164.099 344.833 164.423 344.348C164.747 343.844 164.909 343.286 164.909 342.674C164.909 342.081 164.756 341.55 164.45 341.082C164.144 340.596 163.703 340.209 163.128 339.922C162.552 339.634 161.841 339.49 160.996 339.49ZM178.941 356.168C177.376 356.168 176.018 355.934 174.866 355.467C173.715 354.999 172.824 354.342 172.194 353.497C171.565 352.633 171.25 351.625 171.25 350.474C171.25 349.322 171.556 348.351 172.167 347.559C172.779 346.767 173.661 346.165 174.812 345.751C175.964 345.337 177.34 345.13 178.941 345.13C180.543 345.13 181.919 345.337 183.071 345.751C184.24 346.165 185.131 346.776 185.742 347.586C186.372 348.378 186.687 349.34 186.687 350.474C186.687 351.625 186.363 352.633 185.715 353.497C185.086 354.342 184.186 354.999 183.017 355.467C181.865 355.934 180.507 356.168 178.941 356.168ZM178.941 353.416C180.237 353.416 181.262 353.146 182.018 352.606C182.774 352.066 183.151 351.319 183.151 350.366C183.151 349.43 182.774 348.693 182.018 348.153C181.262 347.613 180.237 347.343 178.941 347.343C177.646 347.343 176.629 347.613 175.892 348.153C175.154 348.693 174.785 349.43 174.785 350.366C174.785 351.319 175.154 352.066 175.892 352.606C176.629 353.146 177.646 353.416 178.941 353.416ZM178.941 346.965C177.484 346.965 176.234 346.776 175.19 346.399C174.146 346.003 173.337 345.436 172.761 344.698C172.203 343.943 171.924 343.043 171.924 342C171.924 340.92 172.212 339.993 172.788 339.22C173.382 338.428 174.209 337.816 175.271 337.385C176.332 336.953 177.556 336.737 178.941 336.737C180.345 336.737 181.577 336.953 182.639 337.385C183.7 337.816 184.528 338.428 185.122 339.22C185.715 339.993 186.012 340.92 186.012 342C186.012 343.043 185.724 343.943 185.149 344.698C184.591 345.436 183.781 346.003 182.72 346.399C181.658 346.776 180.399 346.965 178.941 346.965ZM178.941 344.806C180.057 344.806 180.938 344.572 181.586 344.105C182.234 343.619 182.558 342.971 182.558 342.162C182.558 341.316 182.225 340.659 181.559 340.191C180.893 339.724 180.021 339.49 178.941 339.49C177.862 339.49 176.998 339.724 176.35 340.191C175.703 340.659 175.379 341.316 175.379 342.162C175.379 342.971 175.694 343.619 176.323 344.105C176.971 344.572 177.844 344.806 178.941 344.806Z" fill="#FCCB2B"/>
<path d="M262.146 355.898V353.55L269.648 346.426C270.278 345.832 270.746 345.31 271.052 344.86C271.358 344.411 271.556 343.997 271.646 343.619C271.753 343.223 271.807 342.854 271.807 342.512C271.807 341.649 271.511 340.983 270.917 340.515C270.323 340.029 269.451 339.787 268.299 339.787C267.381 339.787 266.545 339.949 265.789 340.272C265.051 340.596 264.413 341.091 263.873 341.757L261.417 339.868C262.155 338.878 263.144 338.113 264.386 337.574C265.645 337.016 267.049 336.737 268.596 336.737C269.963 336.737 271.151 336.962 272.158 337.412C273.184 337.843 273.967 338.464 274.506 339.274C275.064 340.083 275.343 341.046 275.343 342.162C275.343 342.773 275.262 343.385 275.1 343.997C274.938 344.59 274.632 345.22 274.182 345.886C273.733 346.552 273.076 347.298 272.212 348.126L265.762 354.252L265.033 352.93H276.072V355.898H262.146ZM284.034 356.168C282.702 356.168 281.398 355.979 280.121 355.602C278.861 355.206 277.8 354.666 276.936 353.982L278.447 351.256C279.131 351.814 279.959 352.264 280.93 352.606C281.902 352.948 282.918 353.119 283.98 353.119C285.239 353.119 286.22 352.867 286.922 352.363C287.623 351.841 287.974 351.14 287.974 350.258C287.974 349.394 287.65 348.711 287.003 348.207C286.355 347.703 285.311 347.451 283.872 347.451H282.145V345.049L287.542 338.626L288.001 339.949H277.854V337.007H290.727V339.355L285.329 345.778L283.494 344.698H284.547C286.868 344.698 288.604 345.22 289.755 346.264C290.925 347.289 291.51 348.612 291.51 350.231C291.51 351.292 291.24 352.273 290.7 353.173C290.16 354.072 289.333 354.801 288.217 355.359C287.12 355.898 285.725 356.168 284.034 356.168Z" fill="#FEDD71"/>
<path d="M49.0572 375.774C48.5774 375.774 48.1306 375.696 47.7168 375.54C47.309 375.378 46.9521 375.153 46.6463 374.865C46.3464 374.571 46.1125 374.226 45.9446 373.83C45.7767 373.435 45.6927 373.003 45.6927 372.535C45.6927 372.067 45.7767 371.635 45.9446 371.24C46.1125 370.844 46.3494 370.502 46.6553 370.214C46.9611 369.92 47.318 369.695 47.7258 369.539C48.1336 369.377 48.5804 369.296 49.0662 369.296C49.582 369.296 50.0528 369.386 50.4786 369.566C50.9044 369.74 51.2642 370.001 51.5581 370.349L50.8024 371.06C50.5745 370.814 50.3196 370.631 50.0378 370.511C49.7559 370.385 49.45 370.322 49.1202 370.322C48.7903 370.322 48.4875 370.376 48.2116 370.484C47.9417 370.592 47.7048 370.745 47.5009 370.943C47.303 371.141 47.1471 371.375 47.0331 371.644C46.9252 371.914 46.8712 372.211 46.8712 372.535C46.8712 372.859 46.9252 373.156 47.0331 373.426C47.1471 373.695 47.303 373.929 47.5009 374.127C47.7048 374.325 47.9417 374.478 48.2116 374.586C48.4875 374.694 48.7903 374.748 49.1202 374.748C49.45 374.748 49.7559 374.688 50.0378 374.568C50.3196 374.442 50.5745 374.253 50.8024 374.001L51.5581 374.721C51.2642 375.063 50.9044 375.324 50.4786 375.504C50.0528 375.684 49.579 375.774 49.0572 375.774ZM55.4865 375.684V374.712L55.4235 374.505V372.805C55.4235 372.475 55.3245 372.22 55.1266 372.04C54.9287 371.854 54.6289 371.761 54.227 371.761C53.9572 371.761 53.6903 371.803 53.4264 371.887C53.1685 371.971 52.9496 372.088 52.7697 372.238L52.3289 371.419C52.5868 371.222 52.8926 371.075 53.2465 370.979C53.6063 370.877 53.9781 370.826 54.362 370.826C55.0577 370.826 55.5944 370.994 55.9723 371.33C56.3561 371.659 56.548 372.172 56.548 372.868V375.684H55.4865ZM53.9751 375.747C53.6153 375.747 53.3004 375.687 53.0306 375.567C52.7607 375.441 52.5508 375.27 52.4008 375.054C52.2569 374.832 52.1849 374.583 52.1849 374.307C52.1849 374.037 52.2479 373.794 52.3739 373.579C52.5058 373.363 52.7187 373.192 53.0126 373.066C53.3064 372.94 53.6963 372.877 54.1821 372.877H55.5764V373.624H54.263C53.8792 373.624 53.6213 373.686 53.4894 373.812C53.3574 373.932 53.2914 374.082 53.2914 374.262C53.2914 374.466 53.3724 374.628 53.5343 374.748C53.6963 374.868 53.9212 374.928 54.209 374.928C54.4849 374.928 54.7308 374.865 54.9467 374.739C55.1686 374.613 55.3275 374.427 55.4235 374.181L55.6124 374.856C55.5045 375.138 55.3096 375.357 55.0277 375.513C54.7518 375.669 54.401 375.747 53.9751 375.747ZM57.9912 375.684V369.009H59.1157V375.684H57.9912ZM60.5916 375.684V369.009H61.7161V375.684H60.5916ZM64.6763 375.747C64.2745 375.747 63.8877 375.696 63.5158 375.594C63.15 375.486 62.8591 375.357 62.6432 375.207L63.075 374.352C63.2909 374.49 63.5488 374.604 63.8487 374.694C64.1486 374.784 64.4484 374.829 64.7483 374.829C65.1021 374.829 65.357 374.781 65.5129 374.685C65.6749 374.589 65.7558 374.46 65.7558 374.298C65.7558 374.166 65.7019 374.067 65.5939 374.001C65.486 373.929 65.345 373.875 65.1711 373.839C64.9972 373.803 64.8023 373.77 64.5864 373.74C64.3764 373.71 64.1635 373.671 63.9476 373.624C63.7377 373.57 63.5458 373.495 63.3719 373.399C63.198 373.297 63.057 373.162 62.9491 372.994C62.8411 372.826 62.7872 372.604 62.7872 372.328C62.7872 372.022 62.8741 371.758 63.048 371.536C63.222 371.309 63.4649 371.135 63.7767 371.015C64.0946 370.889 64.4694 370.826 64.9012 370.826C65.2251 370.826 65.5519 370.862 65.8818 370.934C66.2116 371.006 66.4845 371.108 66.7004 371.24L66.2686 372.094C66.0407 371.956 65.8098 371.863 65.5759 371.815C65.348 371.761 65.1201 371.734 64.8922 371.734C64.5504 371.734 64.2955 371.785 64.1276 371.887C63.9656 371.989 63.8847 372.118 63.8847 372.274C63.8847 372.418 63.9386 372.526 64.0466 372.598C64.1545 372.67 64.2955 372.727 64.4694 372.769C64.6433 372.811 64.8352 372.847 65.0452 372.877C65.2611 372.901 65.474 372.94 65.6839 372.994C65.8938 373.048 66.0857 373.123 66.2596 373.219C66.4395 373.309 66.5835 373.438 66.6914 373.606C66.7994 373.773 66.8534 373.992 66.8534 374.262C66.8534 374.562 66.7634 374.823 66.5835 375.045C66.4095 375.267 66.1607 375.441 65.8368 375.567C65.5129 375.687 65.1261 375.747 64.6763 375.747Z" fill="#525252"/>
<path d="M156.048 375.774C155.556 375.774 155.085 375.705 154.635 375.567C154.186 375.423 153.829 375.24 153.565 375.018L153.97 374.109C154.222 374.307 154.533 374.472 154.905 374.604C155.277 374.736 155.658 374.802 156.048 374.802C156.378 374.802 156.644 374.766 156.848 374.694C157.052 374.622 157.202 374.526 157.298 374.406C157.394 374.28 157.442 374.139 157.442 373.983C157.442 373.791 157.373 373.639 157.235 373.525C157.097 373.405 156.917 373.312 156.695 373.246C156.48 373.174 156.237 373.108 155.967 373.048C155.703 372.988 155.436 372.919 155.166 372.841C154.902 372.757 154.659 372.652 154.437 372.526C154.222 372.394 154.045 372.22 153.907 372.004C153.769 371.788 153.7 371.512 153.7 371.177C153.7 370.835 153.79 370.523 153.97 370.241C154.156 369.953 154.434 369.725 154.806 369.557C155.184 369.383 155.661 369.296 156.237 369.296C156.615 369.296 156.989 369.344 157.361 369.44C157.733 369.536 158.057 369.674 158.333 369.854L157.964 370.763C157.682 370.595 157.391 370.472 157.091 370.394C156.791 370.31 156.504 370.268 156.228 370.268C155.904 370.268 155.64 370.307 155.436 370.385C155.238 370.463 155.091 370.565 154.995 370.691C154.905 370.817 154.86 370.961 154.86 371.123C154.86 371.315 154.926 371.47 155.058 371.59C155.196 371.704 155.373 371.794 155.589 371.86C155.811 371.926 156.057 371.992 156.327 372.058C156.597 372.118 156.863 372.187 157.127 372.265C157.397 372.343 157.64 372.445 157.856 372.571C158.078 372.697 158.255 372.868 158.387 373.084C158.525 373.3 158.594 373.573 158.594 373.902C158.594 374.238 158.501 374.55 158.315 374.838C158.135 375.12 157.856 375.348 157.478 375.522C157.1 375.69 156.624 375.774 156.048 375.774ZM161.678 375.747C161.271 375.747 160.911 375.672 160.599 375.522C160.287 375.366 160.044 375.132 159.87 374.82C159.696 374.502 159.609 374.103 159.609 373.624V370.88H160.734V373.471C160.734 373.902 160.83 374.226 161.022 374.442C161.22 374.652 161.498 374.757 161.858 374.757C162.122 374.757 162.35 374.703 162.542 374.595C162.74 374.487 162.893 374.325 163.001 374.109C163.115 373.893 163.172 373.627 163.172 373.309V370.88H164.296V375.684H163.226V374.388L163.415 374.784C163.253 375.096 163.016 375.336 162.704 375.504C162.392 375.666 162.05 375.747 161.678 375.747ZM168.431 375.747C168.024 375.747 167.661 375.657 167.343 375.477C167.025 375.297 166.773 375.027 166.587 374.667C166.407 374.301 166.317 373.839 166.317 373.282C166.317 372.718 166.41 372.256 166.596 371.896C166.788 371.536 167.043 371.27 167.361 371.096C167.685 370.916 168.042 370.826 168.431 370.826C168.905 370.826 169.322 370.928 169.682 371.132C170.048 371.336 170.336 371.62 170.545 371.986C170.761 372.352 170.869 372.784 170.869 373.282C170.869 373.779 170.761 374.211 170.545 374.577C170.336 374.943 170.048 375.231 169.682 375.441C169.322 375.645 168.905 375.747 168.431 375.747ZM165.769 375.684V369.009H166.893V371.995L166.803 373.273L166.839 374.55V375.684H165.769ZM168.305 374.784C168.575 374.784 168.815 374.724 169.025 374.604C169.241 374.484 169.412 374.31 169.538 374.082C169.664 373.854 169.727 373.588 169.727 373.282C169.727 372.97 169.664 372.703 169.538 372.481C169.412 372.253 169.241 372.079 169.025 371.959C168.815 371.839 168.575 371.779 168.305 371.779C168.036 371.779 167.793 371.839 167.577 371.959C167.361 372.079 167.19 372.253 167.064 372.481C166.938 372.703 166.875 372.97 166.875 373.282C166.875 373.588 166.938 373.854 167.064 374.082C167.19 374.31 167.361 374.484 167.577 374.604C167.793 374.724 168.036 374.784 168.305 374.784ZM173.42 375.747C173.018 375.747 172.631 375.696 172.26 375.594C171.894 375.486 171.603 375.357 171.387 375.207L171.819 374.352C172.035 374.49 172.293 374.604 172.592 374.694C172.892 374.784 173.192 374.829 173.492 374.829C173.846 374.829 174.101 374.781 174.257 374.685C174.419 374.589 174.5 374.46 174.5 374.298C174.5 374.166 174.446 374.067 174.338 374.001C174.23 373.929 174.089 373.875 173.915 373.839C173.741 373.803 173.546 373.77 173.33 373.74C173.12 373.71 172.907 373.671 172.691 373.624C172.482 373.57 172.29 373.495 172.116 373.399C171.942 373.297 171.801 373.162 171.693 372.994C171.585 372.826 171.531 372.604 171.531 372.328C171.531 372.022 171.618 371.758 171.792 371.536C171.966 371.309 172.209 371.135 172.521 371.015C172.838 370.889 173.213 370.826 173.645 370.826C173.969 370.826 174.296 370.862 174.626 370.934C174.955 371.006 175.228 371.108 175.444 371.24L175.012 372.094C174.785 371.956 174.554 371.863 174.32 371.815C174.092 371.761 173.864 371.734 173.636 371.734C173.294 371.734 173.039 371.785 172.871 371.887C172.709 371.989 172.628 372.118 172.628 372.274C172.628 372.418 172.682 372.526 172.79 372.598C172.898 372.67 173.039 372.727 173.213 372.769C173.387 372.811 173.579 372.847 173.789 372.877C174.005 372.901 174.218 372.94 174.428 372.994C174.638 373.048 174.829 373.123 175.003 373.219C175.183 373.309 175.327 373.438 175.435 373.606C175.543 373.773 175.597 373.992 175.597 374.262C175.597 374.562 175.507 374.823 175.327 375.045C175.153 375.267 174.904 375.441 174.581 375.567C174.257 375.687 173.87 375.747 173.42 375.747Z" fill="#525252"/>
<path d="M263.117 372.283H266.257V373.273H263.117V372.283ZM263.216 375.684H262.047V369.386H266.644V370.367H263.216V375.684ZM269.568 375.747C269.16 375.747 268.8 375.672 268.489 375.522C268.177 375.366 267.934 375.132 267.76 374.82C267.586 374.502 267.499 374.103 267.499 373.624V370.88H268.624V373.471C268.624 373.902 268.719 374.226 268.911 374.442C269.109 374.652 269.388 374.757 269.748 374.757C270.012 374.757 270.24 374.703 270.432 374.595C270.63 374.487 270.783 374.325 270.891 374.109C271.004 373.893 271.061 373.627 271.061 373.309V370.88H272.186V375.684H271.115V374.388L271.304 374.784C271.142 375.096 270.905 375.336 270.594 375.504C270.282 375.666 269.94 375.747 269.568 375.747ZM276.384 370.826C276.768 370.826 277.11 370.901 277.41 371.051C277.715 371.201 277.955 371.431 278.129 371.743C278.303 372.049 278.39 372.445 278.39 372.931V375.684H277.266V373.075C277.266 372.649 277.164 372.331 276.96 372.121C276.762 371.911 276.483 371.806 276.123 371.806C275.859 371.806 275.625 371.86 275.421 371.968C275.218 372.076 275.059 372.238 274.945 372.454C274.837 372.664 274.783 372.931 274.783 373.255V375.684H273.658V370.88H274.729V372.175L274.54 371.779C274.708 371.473 274.951 371.24 275.269 371.078C275.592 370.91 275.964 370.826 276.384 370.826ZM281.859 375.747C281.397 375.747 280.98 375.645 280.608 375.441C280.242 375.231 279.954 374.943 279.744 374.577C279.535 374.211 279.43 373.779 279.43 373.282C279.43 372.784 279.535 372.352 279.744 371.986C279.954 371.62 280.242 371.336 280.608 371.132C280.98 370.928 281.397 370.826 281.859 370.826C282.26 370.826 282.62 370.916 282.938 371.096C283.256 371.27 283.508 371.536 283.694 371.896C283.88 372.256 283.973 372.718 283.973 373.282C283.973 373.839 283.883 374.301 283.703 374.667C283.523 375.027 283.274 375.297 282.956 375.477C282.638 375.657 282.272 375.747 281.859 375.747ZM281.993 374.784C282.263 374.784 282.503 374.724 282.713 374.604C282.929 374.484 283.1 374.31 283.226 374.082C283.358 373.854 283.424 373.588 283.424 373.282C283.424 372.97 283.358 372.703 283.226 372.481C283.1 372.253 282.929 372.079 282.713 371.959C282.503 371.839 282.263 371.779 281.993 371.779C281.724 371.779 281.481 371.839 281.265 371.959C281.055 372.079 280.884 372.253 280.752 372.481C280.626 372.703 280.563 372.97 280.563 373.282C280.563 373.588 280.626 373.854 280.752 374.082C280.884 374.31 281.055 374.484 281.265 374.604C281.481 374.724 281.724 374.784 281.993 374.784ZM283.451 375.684V374.55L283.496 373.273L283.406 371.995V369.009H284.521V375.684H283.451ZM288.259 375.747C287.726 375.747 287.258 375.642 286.856 375.432C286.46 375.216 286.151 374.922 285.929 374.55C285.714 374.178 285.606 373.755 285.606 373.282C285.606 372.802 285.711 372.379 285.92 372.013C286.136 371.641 286.43 371.351 286.802 371.141C287.18 370.931 287.609 370.826 288.088 370.826C288.556 370.826 288.973 370.928 289.339 371.132C289.705 371.336 289.993 371.623 290.203 371.995C290.412 372.367 290.517 372.805 290.517 373.309C290.517 373.357 290.514 373.411 290.508 373.471C290.508 373.531 290.505 373.588 290.499 373.641H286.496V372.895H289.906L289.465 373.129C289.471 372.853 289.414 372.61 289.294 372.4C289.174 372.19 289.009 372.025 288.799 371.905C288.595 371.785 288.358 371.725 288.088 371.725C287.813 371.725 287.57 371.785 287.36 371.905C287.156 372.025 286.994 372.193 286.874 372.409C286.76 372.619 286.703 372.868 286.703 373.156V373.336C286.703 373.624 286.769 373.878 286.901 374.1C287.033 374.322 287.219 374.493 287.459 374.613C287.699 374.733 287.975 374.793 288.286 374.793C288.556 374.793 288.799 374.751 289.015 374.667C289.231 374.583 289.423 374.451 289.591 374.271L290.194 374.964C289.978 375.216 289.705 375.411 289.375 375.549C289.051 375.681 288.679 375.747 288.259 375.747ZM293.631 375.747C293.169 375.747 292.752 375.645 292.38 375.441C292.014 375.231 291.727 374.943 291.517 374.577C291.307 374.211 291.202 373.779 291.202 373.282C291.202 372.784 291.307 372.352 291.517 371.986C291.727 371.62 292.014 371.336 292.38 371.132C292.752 370.928 293.169 370.826 293.631 370.826C294.032 370.826 294.392 370.916 294.71 371.096C295.028 371.27 295.28 371.536 295.466 371.896C295.652 372.256 295.745 372.718 295.745 373.282C295.745 373.839 295.655 374.301 295.475 374.667C295.295 375.027 295.046 375.297 294.728 375.477C294.41 375.657 294.044 375.747 293.631 375.747ZM293.766 374.784C294.035 374.784 294.275 374.724 294.485 374.604C294.701 374.484 294.872 374.31 294.998 374.082C295.13 373.854 295.196 373.588 295.196 373.282C295.196 372.97 295.13 372.703 294.998 372.481C294.872 372.253 294.701 372.079 294.485 371.959C294.275 371.839 294.035 371.779 293.766 371.779C293.496 371.779 293.253 371.839 293.037 371.959C292.827 372.079 292.656 372.253 292.524 372.481C292.398 372.703 292.335 372.97 292.335 373.282C292.335 373.588 292.398 373.854 292.524 374.082C292.656 374.31 292.827 374.484 293.037 374.604C293.253 374.724 293.496 374.784 293.766 374.784ZM295.223 375.684V374.55L295.268 373.273L295.178 371.995V369.009H296.293V375.684H295.223Z" fill="#525252"/>
<defs>
<filter id="filter0_d_1312_2902" x="131.659" y="201.157" width="136.738" height="205.108" filterUnits="userSpaceOnUse" color-interpolation-filters="sRGB">
<feFlood flood-opacity="0" result="BackgroundImageFix"/>
<feColorMatrix in="SourceAlpha" type="matrix" values="0 0 0 0 0 0 0 0 0 0 0 0 0 0 0 0 0 0 127 0" result="hardAlpha"/>
<feOffset/>
<feGaussianBlur stdDeviation="7.19681"/>
<feComposite in2="hardAlpha" operator="out"/>
<feColorMatrix type="matrix" values="0 0 0 0 0 0 0 0 0 0 0 0 0 0 0 0 0 0 0.09 0"/>
<feBlend mode="normal" in2="BackgroundImageFix" result="effect1_dropShadow_1312_2902"/>
<feBlend mode="normal" in="SourceGraphic" in2="effect1_dropShadow_1312_2902" result="shape"/>
</filter>
<linearGradient id="paint0_linear_1312_2902" x1="42.1221" y1="321.239" x2="179.887" y2="321.239" gradientUnits="userSpaceOnUse">
<stop stop-color="#FA9600"/>
<stop offset="1" stop-color="#FAC20B"/>
</linearGradient>
<linearGradient id="paint1_linear_1312_2902" x1="254.904" y1="320.793" x2="304.859" y2="320.793" gradientUnits="userSpaceOnUse">
<stop stop-color="#FED965"/>
<stop offset="1" stop-color="#FFEAA0"/>
</linearGradient>
<linearGradient id="paint2_linear_1312_2902" x1="146.951" y1="324.373" x2="253.106" y2="322.738" gradientUnits="userSpaceOnUse">
<stop stop-color="#FAC003"/>
<stop offset="1" stop-color="#FEDA68"/>
</linearGradient>
</defs>
</svg>
