<svg width="323" height="206" viewBox="0 0 323 206" fill="none" xmlns="http://www.w3.org/2000/svg">
<path d="M0 113.507H106.153V39.1742C98.7378 38.8935 78.4439 37.4912 56.5889 26.2711C34.7339 15.0511 9.7567 13.9291 0 14.7706V113.507Z" fill="url(#paint0_linear_1312_3009)"/>
<path d="M215.904 113.507H322.057V106.436C312.691 106.436 301.763 106.436 280.299 105.65C248.066 104.47 223.97 96.3085 215.904 92.8164V113.507Z" fill="url(#paint1_linear_1312_3009)"/>
<g filter="url(#filter0_d_1312_3009)">
<path d="M107.053 18.1492C107.053 16.1618 108.664 14.5508 110.651 14.5508H211.406C213.394 14.5508 215.005 16.1618 215.005 18.1492V187.274C215.005 189.261 213.394 190.873 211.406 190.873H110.651C108.664 190.873 107.053 189.261 107.053 187.274V18.1492Z" fill="white"/>
</g>
<path d="M107.951 113.509H214.104V91.5941C211.372 91.2183 195.059 81.722 171.955 63.912C148.851 46.102 132.148 40.5876 107.951 39.7422V113.509Z" fill="url(#paint2_linear_1312_3009)"/>
<path d="M10.507 154.898V137.356L12.0453 138.949H6.51278V136.007H14.0155V154.898H10.507ZM17.5201 154.898V152.55L25.0228 145.426C25.6525 144.832 26.1203 144.31 26.4261 143.86C26.732 143.411 26.9299 142.997 27.0199 142.619C27.1278 142.223 27.1818 141.854 27.1818 141.512C27.1818 140.649 26.8849 139.983 26.2912 139.515C25.6975 139.029 24.8249 138.787 23.6734 138.787C22.7558 138.787 21.9191 138.949 21.1635 139.272C20.4258 139.596 19.7871 140.091 19.2473 140.757L16.7914 138.868C17.5291 137.878 18.5187 137.113 19.7601 136.574C21.0195 136.016 22.4229 135.737 23.9702 135.737C25.3376 135.737 26.5251 135.962 27.5327 136.412C28.5582 136.843 29.3409 137.464 29.8806 138.274C30.4384 139.083 30.7172 140.046 30.7172 141.162C30.7172 141.773 30.6363 142.385 30.4744 142.997C30.3124 143.59 30.0066 144.22 29.5568 144.886C29.107 145.552 28.4502 146.298 27.5866 147.126L21.1365 153.252L20.4078 151.93H31.4459V154.898H17.5201ZM39.4082 155.168C38.0768 155.168 36.7724 154.979 35.495 154.602C34.2355 154.206 33.174 153.666 32.3104 152.982L33.8217 150.256C34.5054 150.814 35.333 151.264 36.3046 151.606C37.2762 151.948 38.2927 152.119 39.3543 152.119C40.6137 152.119 41.5943 151.867 42.296 151.363C42.9976 150.841 43.3485 150.14 43.3485 149.258C43.3485 148.394 43.0246 147.711 42.3769 147.207C41.7292 146.703 40.6857 146.451 39.2463 146.451H37.5191V144.049L42.9167 137.626L43.3755 138.949H33.228V136.007H46.1013V138.355L40.7037 144.778L38.8685 143.698H39.921C42.242 143.698 43.9782 144.22 45.1297 145.264C46.2992 146.289 46.8839 147.612 46.8839 149.231C46.8839 150.292 46.614 151.273 46.0743 152.173C45.5345 153.072 44.7069 153.801 43.5914 154.359C42.4939 154.898 41.0995 155.168 39.4082 155.168Z" fill="#FA9901"/>
<path d="M121.807 135.737C123.534 135.737 125 136.106 126.206 136.843C127.429 137.563 128.365 138.616 129.012 140.001C129.66 141.386 129.984 143.096 129.984 145.129C129.984 147.288 129.588 149.114 128.797 150.607C128.023 152.101 126.943 153.234 125.558 154.008C124.173 154.781 122.562 155.168 120.727 155.168C119.774 155.168 118.865 155.069 118.001 154.871C117.138 154.674 116.391 154.368 115.761 153.954L117.057 151.309C117.579 151.651 118.145 151.894 118.757 152.038C119.369 152.164 119.998 152.227 120.646 152.227C122.427 152.227 123.84 151.678 124.883 150.58C125.927 149.483 126.449 147.864 126.449 145.723C126.449 145.381 126.44 144.985 126.422 144.535C126.404 144.067 126.341 143.599 126.233 143.132L127.312 144.319C127.006 145.057 126.566 145.678 125.99 146.181C125.414 146.667 124.739 147.036 123.966 147.288C123.192 147.54 122.337 147.666 121.402 147.666C120.178 147.666 119.072 147.432 118.082 146.964C117.111 146.478 116.337 145.803 115.761 144.94C115.186 144.058 114.898 143.033 114.898 141.863C114.898 140.604 115.204 139.524 115.815 138.625C116.427 137.707 117.255 136.996 118.298 136.493C119.36 135.989 120.529 135.737 121.807 135.737ZM121.996 138.49C121.276 138.49 120.637 138.625 120.079 138.895C119.522 139.146 119.081 139.515 118.757 140.001C118.451 140.469 118.298 141.036 118.298 141.701C118.298 142.691 118.64 143.474 119.324 144.049C120.007 144.625 120.925 144.913 122.077 144.913C122.832 144.913 123.498 144.778 124.074 144.508C124.649 144.22 125.099 143.833 125.423 143.348C125.747 142.844 125.909 142.286 125.909 141.674C125.909 141.081 125.756 140.55 125.45 140.082C125.144 139.596 124.703 139.209 124.128 138.922C123.552 138.634 122.841 138.49 121.996 138.49ZM139.941 155.168C138.376 155.168 137.018 154.934 135.866 154.467C134.715 153.999 133.824 153.342 133.194 152.497C132.565 151.633 132.25 150.625 132.25 149.474C132.25 148.322 132.556 147.351 133.167 146.559C133.779 145.767 134.661 145.165 135.812 144.751C136.964 144.337 138.34 144.13 139.941 144.13C141.543 144.13 142.919 144.337 144.071 144.751C145.24 145.165 146.131 145.776 146.742 146.586C147.372 147.378 147.687 148.34 147.687 149.474C147.687 150.625 147.363 151.633 146.715 152.497C146.086 153.342 145.186 153.999 144.017 154.467C142.865 154.934 141.507 155.168 139.941 155.168ZM139.941 152.416C141.237 152.416 142.262 152.146 143.018 151.606C143.774 151.066 144.151 150.319 144.151 149.366C144.151 148.43 143.774 147.693 143.018 147.153C142.262 146.613 141.237 146.343 139.941 146.343C138.646 146.343 137.629 146.613 136.892 147.153C136.154 147.693 135.785 148.43 135.785 149.366C135.785 150.319 136.154 151.066 136.892 151.606C137.629 152.146 138.646 152.416 139.941 152.416ZM139.941 145.965C138.484 145.965 137.234 145.776 136.19 145.399C135.146 145.003 134.337 144.436 133.761 143.698C133.203 142.943 132.924 142.043 132.924 141C132.924 139.92 133.212 138.993 133.788 138.22C134.382 137.428 135.209 136.816 136.271 136.385C137.332 135.953 138.556 135.737 139.941 135.737C141.345 135.737 142.577 135.953 143.639 136.385C144.7 136.816 145.528 137.428 146.122 138.22C146.715 138.993 147.012 139.92 147.012 141C147.012 142.043 146.724 142.943 146.149 143.698C145.591 144.436 144.781 145.003 143.72 145.399C142.658 145.776 141.399 145.965 139.941 145.965ZM139.941 143.806C141.057 143.806 141.938 143.572 142.586 143.105C143.234 142.619 143.558 141.971 143.558 141.162C143.558 140.316 143.225 139.659 142.559 139.191C141.893 138.724 141.021 138.49 139.941 138.49C138.862 138.49 137.998 138.724 137.35 139.191C136.703 139.659 136.379 140.316 136.379 141.162C136.379 141.971 136.694 142.619 137.323 143.105C137.971 143.572 138.844 143.806 139.941 143.806Z" fill="#FCCB2B"/>
<path d="M223.146 154.898V152.55L230.648 145.426C231.278 144.832 231.746 144.31 232.052 143.86C232.358 143.411 232.556 142.997 232.646 142.619C232.753 142.223 232.807 141.854 232.807 141.512C232.807 140.649 232.511 139.983 231.917 139.515C231.323 139.029 230.451 138.787 229.299 138.787C228.381 138.787 227.545 138.949 226.789 139.272C226.051 139.596 225.413 140.091 224.873 140.757L222.417 138.868C223.155 137.878 224.144 137.113 225.386 136.574C226.645 136.016 228.049 135.737 229.596 135.737C230.963 135.737 232.151 135.962 233.158 136.412C234.184 136.843 234.967 137.464 235.506 138.274C236.064 139.083 236.343 140.046 236.343 141.162C236.343 141.773 236.262 142.385 236.1 142.997C235.938 143.59 235.632 144.22 235.182 144.886C234.733 145.552 234.076 146.298 233.212 147.126L226.762 153.252L226.033 151.93H237.072V154.898H223.146ZM245.034 155.168C243.702 155.168 242.398 154.979 241.121 154.602C239.861 154.206 238.8 153.666 237.936 152.982L239.447 150.256C240.131 150.814 240.959 151.264 241.93 151.606C242.902 151.948 243.918 152.119 244.98 152.119C246.239 152.119 247.22 151.867 247.922 151.363C248.623 150.841 248.974 150.14 248.974 149.258C248.974 148.394 248.65 147.711 248.003 147.207C247.355 146.703 246.311 146.451 244.872 146.451H243.145V144.049L248.542 137.626L249.001 138.949H238.854V136.007H251.727V138.355L246.329 144.778L244.494 143.698H245.547C247.868 143.698 249.604 144.22 250.755 145.264C251.925 146.289 252.51 147.612 252.51 149.231C252.51 150.292 252.24 151.273 251.7 152.173C251.16 153.072 250.333 153.801 249.217 154.359C248.12 154.898 246.725 155.168 245.034 155.168Z" fill="#FEDD71"/>
<path d="M10.0572 174.774C9.57742 174.774 9.13062 174.696 8.7168 174.54C8.30898 174.378 7.95214 174.153 7.64628 173.865C7.34641 173.571 7.11251 173.226 6.94459 172.83C6.77666 172.435 6.6927 172.003 6.6927 171.535C6.6927 171.067 6.77666 170.635 6.94459 170.24C7.11251 169.844 7.34941 169.502 7.65527 169.214C7.96114 168.92 8.31798 168.695 8.7258 168.539C9.13362 168.377 9.58042 168.296 10.0662 168.296C10.582 168.296 11.0528 168.386 11.4786 168.566C11.9044 168.74 12.2642 169.001 12.5581 169.349L11.8024 170.06C11.5745 169.814 11.3196 169.631 11.0378 169.511C10.7559 169.385 10.45 169.322 10.1202 169.322C9.79033 169.322 9.48746 169.376 9.21158 169.484C8.9417 169.592 8.70481 169.745 8.5009 169.943C8.30299 170.141 8.14705 170.375 8.0331 170.644C7.92515 170.914 7.87118 171.211 7.87118 171.535C7.87118 171.859 7.92515 172.156 8.0331 172.426C8.14705 172.695 8.30299 172.929 8.5009 173.127C8.70481 173.325 8.9417 173.478 9.21158 173.586C9.48746 173.694 9.79033 173.748 10.1202 173.748C10.45 173.748 10.7559 173.688 11.0378 173.568C11.3196 173.442 11.5745 173.253 11.8024 173.001L12.5581 173.721C12.2642 174.063 11.9044 174.324 11.4786 174.504C11.0528 174.684 10.579 174.774 10.0572 174.774ZM16.4865 174.684V173.712L16.4235 173.505V171.805C16.4235 171.475 16.3245 171.22 16.1266 171.04C15.9287 170.854 15.6289 170.761 15.227 170.761C14.9572 170.761 14.6903 170.803 14.4264 170.887C14.1685 170.971 13.9496 171.088 13.7697 171.238L13.3289 170.419C13.5868 170.222 13.8926 170.075 14.2465 169.979C14.6063 169.877 14.9781 169.826 15.362 169.826C16.0577 169.826 16.5944 169.994 16.9723 170.33C17.3561 170.659 17.548 171.172 17.548 171.868V174.684H16.4865ZM14.9751 174.747C14.6153 174.747 14.3004 174.687 14.0306 174.567C13.7607 174.441 13.5508 174.27 13.4008 174.054C13.2569 173.832 13.1849 173.583 13.1849 173.307C13.1849 173.037 13.2479 172.794 13.3739 172.579C13.5058 172.363 13.7187 172.192 14.0126 172.066C14.3064 171.94 14.6963 171.877 15.1821 171.877H16.5764V172.624H15.263C14.8792 172.624 14.6213 172.686 14.4894 172.812C14.3574 172.932 14.2914 173.082 14.2914 173.262C14.2914 173.466 14.3724 173.628 14.5343 173.748C14.6963 173.868 14.9212 173.928 15.209 173.928C15.4849 173.928 15.7308 173.865 15.9467 173.739C16.1686 173.613 16.3275 173.427 16.4235 173.181L16.6124 173.856C16.5045 174.138 16.3096 174.357 16.0277 174.513C15.7518 174.669 15.401 174.747 14.9751 174.747ZM18.9912 174.684V168.009H20.1157V174.684H18.9912ZM21.5916 174.684V168.009H22.7161V174.684H21.5916ZM25.6763 174.747C25.2745 174.747 24.8877 174.696 24.5158 174.594C24.15 174.486 23.8591 174.357 23.6432 174.207L24.075 173.352C24.2909 173.49 24.5488 173.604 24.8487 173.694C25.1486 173.784 25.4484 173.829 25.7483 173.829C26.1021 173.829 26.357 173.781 26.5129 173.685C26.6749 173.589 26.7558 173.46 26.7558 173.298C26.7558 173.166 26.7019 173.067 26.5939 173.001C26.486 172.929 26.345 172.875 26.1711 172.839C25.9972 172.803 25.8023 172.77 25.5864 172.74C25.3764 172.71 25.1635 172.671 24.9476 172.624C24.7377 172.57 24.5458 172.495 24.3719 172.399C24.198 172.297 24.057 172.162 23.9491 171.994C23.8411 171.826 23.7872 171.604 23.7872 171.328C23.7872 171.022 23.8741 170.758 24.048 170.536C24.222 170.309 24.4649 170.135 24.7767 170.015C25.0946 169.889 25.4694 169.826 25.9012 169.826C26.2251 169.826 26.5519 169.862 26.8818 169.934C27.2116 170.006 27.4845 170.108 27.7004 170.24L27.2686 171.094C27.0407 170.956 26.8098 170.863 26.5759 170.815C26.348 170.761 26.1201 170.734 25.8922 170.734C25.5504 170.734 25.2955 170.785 25.1276 170.887C24.9656 170.989 24.8847 171.118 24.8847 171.274C24.8847 171.418 24.9386 171.526 25.0466 171.598C25.1545 171.67 25.2955 171.727 25.4694 171.769C25.6433 171.811 25.8352 171.847 26.0452 171.877C26.2611 171.901 26.474 171.94 26.6839 171.994C26.8938 172.048 27.0857 172.123 27.2596 172.219C27.4395 172.309 27.5835 172.438 27.6914 172.606C27.7994 172.773 27.8534 172.992 27.8534 173.262C27.8534 173.562 27.7634 173.823 27.5835 174.045C27.4095 174.267 27.1607 174.441 26.8368 174.567C26.5129 174.687 26.1261 174.747 25.6763 174.747Z" fill="#525252"/>
<path d="M117.048 174.774C116.556 174.774 116.085 174.705 115.635 174.567C115.186 174.423 114.829 174.24 114.565 174.018L114.97 173.109C115.222 173.307 115.533 173.472 115.905 173.604C116.277 173.736 116.658 173.802 117.048 173.802C117.378 173.802 117.644 173.766 117.848 173.694C118.052 173.622 118.202 173.526 118.298 173.406C118.394 173.28 118.442 173.139 118.442 172.983C118.442 172.791 118.373 172.639 118.235 172.525C118.097 172.405 117.917 172.312 117.695 172.246C117.48 172.174 117.237 172.108 116.967 172.048C116.703 171.988 116.436 171.919 116.166 171.841C115.902 171.757 115.659 171.652 115.437 171.526C115.222 171.394 115.045 171.22 114.907 171.004C114.769 170.788 114.7 170.512 114.7 170.177C114.7 169.835 114.79 169.523 114.97 169.241C115.156 168.953 115.434 168.725 115.806 168.557C116.184 168.383 116.661 168.296 117.237 168.296C117.615 168.296 117.989 168.344 118.361 168.44C118.733 168.536 119.057 168.674 119.333 168.854L118.964 169.763C118.682 169.595 118.391 169.472 118.091 169.394C117.791 169.31 117.504 169.268 117.228 169.268C116.904 169.268 116.64 169.307 116.436 169.385C116.238 169.463 116.091 169.565 115.995 169.691C115.905 169.817 115.86 169.961 115.86 170.123C115.86 170.315 115.926 170.47 116.058 170.59C116.196 170.704 116.373 170.794 116.589 170.86C116.811 170.926 117.057 170.992 117.327 171.058C117.597 171.118 117.863 171.187 118.127 171.265C118.397 171.343 118.64 171.445 118.856 171.571C119.078 171.697 119.255 171.868 119.387 172.084C119.525 172.3 119.594 172.573 119.594 172.902C119.594 173.238 119.501 173.55 119.315 173.838C119.135 174.12 118.856 174.348 118.478 174.522C118.1 174.69 117.624 174.774 117.048 174.774ZM122.678 174.747C122.271 174.747 121.911 174.672 121.599 174.522C121.287 174.366 121.044 174.132 120.87 173.82C120.696 173.502 120.609 173.103 120.609 172.624V169.88H121.734V172.471C121.734 172.902 121.83 173.226 122.022 173.442C122.22 173.652 122.498 173.757 122.858 173.757C123.122 173.757 123.35 173.703 123.542 173.595C123.74 173.487 123.893 173.325 124.001 173.109C124.115 172.893 124.172 172.627 124.172 172.309V169.88H125.296V174.684H124.226V173.388L124.415 173.784C124.253 174.096 124.016 174.336 123.704 174.504C123.392 174.666 123.05 174.747 122.678 174.747ZM129.431 174.747C129.024 174.747 128.661 174.657 128.343 174.477C128.025 174.297 127.773 174.027 127.587 173.667C127.407 173.301 127.317 172.839 127.317 172.282C127.317 171.718 127.41 171.256 127.596 170.896C127.788 170.536 128.043 170.27 128.361 170.096C128.685 169.916 129.042 169.826 129.431 169.826C129.905 169.826 130.322 169.928 130.682 170.132C131.048 170.336 131.336 170.62 131.545 170.986C131.761 171.352 131.869 171.784 131.869 172.282C131.869 172.779 131.761 173.211 131.545 173.577C131.336 173.943 131.048 174.231 130.682 174.441C130.322 174.645 129.905 174.747 129.431 174.747ZM126.769 174.684V168.009H127.893V170.995L127.803 172.273L127.839 173.55V174.684H126.769ZM129.305 173.784C129.575 173.784 129.815 173.724 130.025 173.604C130.241 173.484 130.412 173.31 130.538 173.082C130.664 172.854 130.727 172.588 130.727 172.282C130.727 171.97 130.664 171.703 130.538 171.481C130.412 171.253 130.241 171.079 130.025 170.959C129.815 170.839 129.575 170.779 129.305 170.779C129.036 170.779 128.793 170.839 128.577 170.959C128.361 171.079 128.19 171.253 128.064 171.481C127.938 171.703 127.875 171.97 127.875 172.282C127.875 172.588 127.938 172.854 128.064 173.082C128.19 173.31 128.361 173.484 128.577 173.604C128.793 173.724 129.036 173.784 129.305 173.784ZM134.42 174.747C134.018 174.747 133.631 174.696 133.26 174.594C132.894 174.486 132.603 174.357 132.387 174.207L132.819 173.352C133.035 173.49 133.293 173.604 133.592 173.694C133.892 173.784 134.192 173.829 134.492 173.829C134.846 173.829 135.101 173.781 135.257 173.685C135.419 173.589 135.5 173.46 135.5 173.298C135.5 173.166 135.446 173.067 135.338 173.001C135.23 172.929 135.089 172.875 134.915 172.839C134.741 172.803 134.546 172.77 134.33 172.74C134.12 172.71 133.907 172.671 133.691 172.624C133.482 172.57 133.29 172.495 133.116 172.399C132.942 172.297 132.801 172.162 132.693 171.994C132.585 171.826 132.531 171.604 132.531 171.328C132.531 171.022 132.618 170.758 132.792 170.536C132.966 170.309 133.209 170.135 133.521 170.015C133.838 169.889 134.213 169.826 134.645 169.826C134.969 169.826 135.296 169.862 135.626 169.934C135.955 170.006 136.228 170.108 136.444 170.24L136.012 171.094C135.785 170.956 135.554 170.863 135.32 170.815C135.092 170.761 134.864 170.734 134.636 170.734C134.294 170.734 134.039 170.785 133.871 170.887C133.709 170.989 133.628 171.118 133.628 171.274C133.628 171.418 133.682 171.526 133.79 171.598C133.898 171.67 134.039 171.727 134.213 171.769C134.387 171.811 134.579 171.847 134.789 171.877C135.005 171.901 135.218 171.94 135.428 171.994C135.638 172.048 135.829 172.123 136.003 172.219C136.183 172.309 136.327 172.438 136.435 172.606C136.543 172.773 136.597 172.992 136.597 173.262C136.597 173.562 136.507 173.823 136.327 174.045C136.153 174.267 135.904 174.441 135.581 174.567C135.257 174.687 134.87 174.747 134.42 174.747Z" fill="#525252"/>
<path d="M224.117 171.283H227.257V172.273H224.117V171.283ZM224.216 174.684H223.047V168.386H227.644V169.367H224.216V174.684ZM230.568 174.747C230.16 174.747 229.8 174.672 229.489 174.522C229.177 174.366 228.934 174.132 228.76 173.82C228.586 173.502 228.499 173.103 228.499 172.624V169.88H229.624V172.471C229.624 172.902 229.719 173.226 229.911 173.442C230.109 173.652 230.388 173.757 230.748 173.757C231.012 173.757 231.24 173.703 231.432 173.595C231.63 173.487 231.783 173.325 231.891 173.109C232.004 172.893 232.061 172.627 232.061 172.309V169.88H233.186V174.684H232.115V173.388L232.304 173.784C232.142 174.096 231.905 174.336 231.594 174.504C231.282 174.666 230.94 174.747 230.568 174.747ZM237.384 169.826C237.768 169.826 238.11 169.901 238.41 170.051C238.715 170.201 238.955 170.431 239.129 170.743C239.303 171.049 239.39 171.445 239.39 171.931V174.684H238.266V172.075C238.266 171.649 238.164 171.331 237.96 171.121C237.762 170.911 237.483 170.806 237.123 170.806C236.859 170.806 236.625 170.86 236.421 170.968C236.218 171.076 236.059 171.238 235.945 171.454C235.837 171.664 235.783 171.931 235.783 172.255V174.684H234.658V169.88H235.729V171.175L235.54 170.779C235.708 170.473 235.951 170.24 236.269 170.078C236.592 169.91 236.964 169.826 237.384 169.826ZM242.859 174.747C242.397 174.747 241.98 174.645 241.608 174.441C241.242 174.231 240.954 173.943 240.744 173.577C240.535 173.211 240.43 172.779 240.43 172.282C240.43 171.784 240.535 171.352 240.744 170.986C240.954 170.62 241.242 170.336 241.608 170.132C241.98 169.928 242.397 169.826 242.859 169.826C243.26 169.826 243.62 169.916 243.938 170.096C244.256 170.27 244.508 170.536 244.694 170.896C244.88 171.256 244.973 171.718 244.973 172.282C244.973 172.839 244.883 173.301 244.703 173.667C244.523 174.027 244.274 174.297 243.956 174.477C243.638 174.657 243.272 174.747 242.859 174.747ZM242.993 173.784C243.263 173.784 243.503 173.724 243.713 173.604C243.929 173.484 244.1 173.31 244.226 173.082C244.358 172.854 244.424 172.588 244.424 172.282C244.424 171.97 244.358 171.703 244.226 171.481C244.1 171.253 243.929 171.079 243.713 170.959C243.503 170.839 243.263 170.779 242.993 170.779C242.724 170.779 242.481 170.839 242.265 170.959C242.055 171.079 241.884 171.253 241.752 171.481C241.626 171.703 241.563 171.97 241.563 172.282C241.563 172.588 241.626 172.854 241.752 173.082C241.884 173.31 242.055 173.484 242.265 173.604C242.481 173.724 242.724 173.784 242.993 173.784ZM244.451 174.684V173.55L244.496 172.273L244.406 170.995V168.009H245.521V174.684H244.451ZM249.259 174.747C248.726 174.747 248.258 174.642 247.856 174.432C247.46 174.216 247.151 173.922 246.929 173.55C246.714 173.178 246.606 172.755 246.606 172.282C246.606 171.802 246.711 171.379 246.92 171.013C247.136 170.641 247.43 170.351 247.802 170.141C248.18 169.931 248.609 169.826 249.088 169.826C249.556 169.826 249.973 169.928 250.339 170.132C250.705 170.336 250.993 170.623 251.203 170.995C251.412 171.367 251.517 171.805 251.517 172.309C251.517 172.357 251.514 172.411 251.508 172.471C251.508 172.531 251.505 172.588 251.499 172.641H247.496V171.895H250.906L250.465 172.129C250.471 171.853 250.414 171.61 250.294 171.4C250.174 171.19 250.009 171.025 249.799 170.905C249.595 170.785 249.358 170.725 249.088 170.725C248.813 170.725 248.57 170.785 248.36 170.905C248.156 171.025 247.994 171.193 247.874 171.409C247.76 171.619 247.703 171.868 247.703 172.156V172.336C247.703 172.624 247.769 172.878 247.901 173.1C248.033 173.322 248.219 173.493 248.459 173.613C248.699 173.733 248.975 173.793 249.286 173.793C249.556 173.793 249.799 173.751 250.015 173.667C250.231 173.583 250.423 173.451 250.591 173.271L251.194 173.964C250.978 174.216 250.705 174.411 250.375 174.549C250.051 174.681 249.679 174.747 249.259 174.747ZM254.631 174.747C254.169 174.747 253.752 174.645 253.38 174.441C253.014 174.231 252.727 173.943 252.517 173.577C252.307 173.211 252.202 172.779 252.202 172.282C252.202 171.784 252.307 171.352 252.517 170.986C252.727 170.62 253.014 170.336 253.38 170.132C253.752 169.928 254.169 169.826 254.631 169.826C255.032 169.826 255.392 169.916 255.71 170.096C256.028 170.27 256.28 170.536 256.466 170.896C256.652 171.256 256.745 171.718 256.745 172.282C256.745 172.839 256.655 173.301 256.475 173.667C256.295 174.027 256.046 174.297 255.728 174.477C255.41 174.657 255.044 174.747 254.631 174.747ZM254.766 173.784C255.035 173.784 255.275 173.724 255.485 173.604C255.701 173.484 255.872 173.31 255.998 173.082C256.13 172.854 256.196 172.588 256.196 172.282C256.196 171.97 256.13 171.703 255.998 171.481C255.872 171.253 255.701 171.079 255.485 170.959C255.275 170.839 255.035 170.779 254.766 170.779C254.496 170.779 254.253 170.839 254.037 170.959C253.827 171.079 253.656 171.253 253.524 171.481C253.398 171.703 253.335 171.97 253.335 172.282C253.335 172.588 253.398 172.854 253.524 173.082C253.656 173.31 253.827 173.484 254.037 173.604C254.253 173.724 254.496 173.784 254.766 173.784ZM256.223 174.684V173.55L256.268 172.273L256.178 170.995V168.009H257.293V174.684H256.223Z" fill="#525252"/>
<defs>
<filter id="filter0_d_1312_3009" x="92.6591" y="0.157168" width="136.738" height="205.108" filterUnits="userSpaceOnUse" color-interpolation-filters="sRGB">
<feFlood flood-opacity="0" result="BackgroundImageFix"/>
<feColorMatrix in="SourceAlpha" type="matrix" values="0 0 0 0 0 0 0 0 0 0 0 0 0 0 0 0 0 0 127 0" result="hardAlpha"/>
<feOffset/>
<feGaussianBlur stdDeviation="7.19681"/>
<feComposite in2="hardAlpha" operator="out"/>
<feColorMatrix type="matrix" values="0 0 0 0 0 0 0 0 0 0 0 0 0 0 0 0 0 0 0.09 0"/>
<feBlend mode="normal" in2="BackgroundImageFix" result="effect1_dropShadow_1312_3009"/>
<feBlend mode="normal" in="SourceGraphic" in2="effect1_dropShadow_1312_3009" result="shape"/>
</filter>
<linearGradient id="paint0_linear_1312_3009" x1="3.12214" y1="120.239" x2="140.887" y2="120.239" gradientUnits="userSpaceOnUse">
<stop stop-color="#FA9600"/>
<stop offset="1" stop-color="#FAC20B"/>
</linearGradient>
<linearGradient id="paint1_linear_1312_3009" x1="215.904" y1="119.793" x2="265.859" y2="119.793" gradientUnits="userSpaceOnUse">
<stop stop-color="#FED965"/>
<stop offset="1" stop-color="#FFEAA0"/>
</linearGradient>
<linearGradient id="paint2_linear_1312_3009" x1="107.951" y1="123.373" x2="214.106" y2="121.738" gradientUnits="userSpaceOnUse">
<stop stop-color="#FAC003"/>
<stop offset="1" stop-color="#FEDA68"/>
</linearGradient>
</defs>
</svg>
