<svg width="85" height="85" viewBox="0 0 85 85" fill="none" xmlns="http://www.w3.org/2000/svg">
<circle cx="83.1305" cy="83.2106" r="1.61756" transform="rotate(-180 83.1305 83.2106)" fill="#D9D9D9"/>
<circle cx="66.9547" cy="83.2106" r="1.61756" transform="rotate(-180 66.9547 83.2106)" fill="#D9D9D9"/>
<circle cx="50.7789" cy="83.2106" r="1.61756" transform="rotate(-180 50.7789 83.2106)" fill="#D9D9D9"/>
<circle cx="34.6031" cy="83.2106" r="1.61756" transform="rotate(-180 34.6031 83.2106)" fill="#D9D9D9"/>
<circle cx="18.4274" cy="83.2106" r="1.61756" transform="rotate(-180 18.4274 83.2106)" fill="#D9D9D9"/>
<circle cx="2.25158" cy="83.2106" r="1.61756" transform="rotate(-180 2.25158 83.2106)" fill="#D9D9D9"/>
<circle cx="83.1305" cy="67.0348" r="1.61756" transform="rotate(-180 83.1305 67.0348)" fill="#D9D9D9"/>
<circle cx="66.9547" cy="67.0348" r="1.61756" transform="rotate(-180 66.9547 67.0348)" fill="#D9D9D9"/>
<circle cx="50.7789" cy="67.0348" r="1.61756" transform="rotate(-180 50.7789 67.0348)" fill="#D9D9D9"/>
<circle cx="34.6031" cy="67.0348" r="1.61756" transform="rotate(-180 34.6031 67.0348)" fill="#1245C7"/>
<circle cx="18.4274" cy="67.0348" r="1.61756" transform="rotate(-180 18.4274 67.0348)" fill="#D9D9D9"/>
<circle cx="2.25158" cy="67.0348" r="1.61756" transform="rotate(-180 2.25158 67.0348)" fill="#D9D9D9"/>
<circle cx="83.1305" cy="50.859" r="1.61756" transform="rotate(-180 83.1305 50.859)" fill="#D9D9D9"/>
<circle cx="66.9547" cy="50.859" r="1.61756" transform="rotate(-180 66.9547 50.859)" fill="#D9D9D9"/>
<circle cx="50.7789" cy="50.859" r="1.61756" transform="rotate(-180 50.7789 50.859)" fill="#D9D9D9"/>
<circle cx="34.6031" cy="50.859" r="1.61756" transform="rotate(-180 34.6031 50.859)" fill="#D9D9D9"/>
<circle cx="18.4274" cy="50.859" r="1.61756" transform="rotate(-180 18.4274 50.859)" fill="#D9D9D9"/>
<circle cx="2.25158" cy="50.859" r="1.61756" transform="rotate(-180 2.25158 50.859)" fill="#D9D9D9"/>
<circle cx="83.1305" cy="34.6832" r="1.61756" transform="rotate(-180 83.1305 34.6832)" fill="#D9D9D9"/>
<circle cx="66.9547" cy="34.6832" r="1.61756" transform="rotate(-180 66.9547 34.6832)" fill="#1245C7"/>
<circle cx="50.7789" cy="34.6832" r="1.61756" transform="rotate(-180 50.7789 34.6832)" fill="#D9D9D9"/>
<circle cx="34.6031" cy="34.6832" r="1.61756" transform="rotate(-180 34.6031 34.6832)" fill="#D9D9D9"/>
<circle cx="18.4274" cy="34.6832" r="1.61756" transform="rotate(-180 18.4274 34.6832)" fill="#D9D9D9"/>
<circle cx="2.25158" cy="34.6832" r="1.61756" transform="rotate(-180 2.25158 34.6832)" fill="#D9D9D9"/>
<circle cx="83.1305" cy="18.5074" r="1.61756" transform="rotate(-180 83.1305 18.5074)" fill="#D9D9D9"/>
<circle cx="66.9547" cy="18.5074" r="1.61756" transform="rotate(-180 66.9547 18.5074)" fill="#D9D9D9"/>
<circle cx="50.7789" cy="18.5074" r="1.61756" transform="rotate(-180 50.7789 18.5074)" fill="#D9D9D9"/>
<circle cx="34.6031" cy="18.5074" r="1.61756" transform="rotate(-180 34.6031 18.5074)" fill="#D9D9D9"/>
<circle cx="18.4274" cy="18.5074" r="1.61756" transform="rotate(-180 18.4274 18.5074)" fill="#D9D9D9"/>
<circle cx="2.25158" cy="18.5074" r="1.61756" transform="rotate(-180 2.25158 18.5074)" fill="#D9D9D9"/>
<circle cx="83.1305" cy="2.33166" r="1.61756" transform="rotate(-180 83.1305 2.33166)" fill="#D9D9D9"/>
<circle cx="66.9547" cy="2.33166" r="1.61756" transform="rotate(-180 66.9547 2.33166)" fill="#D9D9D9"/>
<circle cx="50.7789" cy="2.33166" r="1.61756" transform="rotate(-180 50.7789 2.33166)" fill="#D9D9D9"/>
<circle cx="34.6031" cy="2.33166" r="1.61756" transform="rotate(-180 34.6031 2.33166)" fill="#D9D9D9"/>
<circle cx="18.4274" cy="2.33166" r="1.61756" transform="rotate(-180 18.4274 2.33166)" fill="#1245C7"/>
<circle cx="2.25158" cy="2.33166" r="1.61756" transform="rotate(-180 2.25158 2.33166)" fill="#D9D9D9"/>
</svg>
