<svg width="246" height="187" viewBox="0 0 246 187" fill="none" xmlns="http://www.w3.org/2000/svg">
<g filter="url(#filter0_bd_1312_3984)">
<rect x="36" y="18.0039" width="175" height="150" rx="4" fill="white" fill-opacity="0.01" shape-rendering="crispEdges"/>
<path d="M36 22.0039C36 19.7948 37.7909 18.0039 40 18.0039H207C209.209 18.0039 211 19.7948 211 22.0039V40.4398H36V22.0039Z" fill="#F9F9F9"/>
<path d="M36 22.0039C36 19.7948 37.7909 18.0039 40 18.0039H207C209.209 18.0039 211 19.7948 211 22.0039V40.4398H36V22.0039Z" fill="white" fill-opacity="0.2"/>
<path d="M54.9868 28.9757L50.3762 24.7695L45.7656 28.9757L46.2506 29.5074L46.6698 29.125V32.9034C46.6698 33.4986 47.1541 33.9828 47.7493 33.9828H53.0031C53.5983 33.9828 54.0826 33.4986 54.0826 32.9034V29.125L54.5017 29.5074L54.9868 28.9757ZM53.3629 32.9034C53.3629 33.1018 53.2015 33.2632 53.0031 33.2632H47.7493C47.551 33.2632 47.3895 33.1018 47.3895 32.9034V28.4684L50.3762 25.7437L53.3629 28.4684V32.9034Z" fill="#6C6C6C"/>
<mask id="path-4-inside-1_1312_3984" fill="white">
<rect x="48.8398" y="28.9961" width="3.07373" height="3.07373" rx="0.46106"/>
</mask>
<rect x="48.8398" y="28.9961" width="3.07373" height="3.07373" rx="0.46106" stroke="#6C6C6C" stroke-width="1.5676" mask="url(#path-4-inside-1_1312_3984)"/>
<path d="M67.2593 31.8017C66.8913 31.8017 66.5391 31.7501 66.2026 31.6469C65.866 31.5392 65.599 31.4023 65.4016 31.2363L65.7045 30.5565C65.8929 30.7046 66.1263 30.828 66.4045 30.9267C66.6827 31.0254 66.9676 31.0748 67.2593 31.0748C67.5061 31.0748 67.7058 31.0478 67.8583 30.994C68.0109 30.9401 68.1231 30.8683 68.1949 30.7786C68.2667 30.6844 68.3026 30.5789 68.3026 30.4623C68.3026 30.3187 68.251 30.2042 68.1477 30.119C68.0445 30.0292 67.9099 29.9597 67.7439 29.9103C67.5824 29.8565 67.4006 29.8071 67.1987 29.7623C67.0013 29.7174 66.8016 29.6658 66.5997 29.6075C66.4022 29.5446 66.2205 29.4661 66.0545 29.3719C65.8929 29.2732 65.7606 29.143 65.6574 28.9815C65.5542 28.82 65.5026 28.6135 65.5026 28.3623C65.5026 28.1065 65.5699 27.8732 65.7045 27.6623C65.8436 27.4469 66.0522 27.2764 66.3304 27.1507C66.6131 27.0206 66.9699 26.9555 67.4006 26.9555C67.6833 26.9555 67.9638 26.9914 68.242 27.0632C68.5202 27.135 68.7625 27.2382 68.9689 27.3728L68.6929 28.0526C68.482 27.927 68.2644 27.835 68.0401 27.7767C67.8157 27.7139 67.6003 27.6825 67.3939 27.6825C67.1516 27.6825 66.9542 27.7116 66.8016 27.77C66.6535 27.8283 66.5436 27.9046 66.4718 27.9988C66.4045 28.093 66.3708 28.2007 66.3708 28.3219C66.3708 28.4655 66.4202 28.5821 66.5189 28.6719C66.6221 28.7571 66.7545 28.8244 66.916 28.8738C67.082 28.9232 67.266 28.9725 67.4679 29.0219C67.6699 29.0667 67.8695 29.1183 68.067 29.1767C68.2689 29.235 68.4506 29.3113 68.6122 29.4055C68.7782 29.4998 68.9106 29.6276 69.0093 29.7892C69.1125 29.9507 69.1641 30.1549 69.1641 30.4017C69.1641 30.653 69.0945 30.8863 68.9554 31.1017C68.8208 31.3126 68.6122 31.4831 68.3295 31.6132C68.0468 31.7389 67.6901 31.8017 67.2593 31.8017ZM70.9218 31.7344V27.7632H69.3602V27.0228H73.3583V27.7632H71.7968V31.7344H70.9218ZM73.112 31.7344L75.2322 27.0228H76.0937L78.2207 31.7344H77.3053L75.4812 27.4873H75.8312L74.0139 31.7344H73.112ZM74.088 30.644L74.3235 29.9575H76.8678L77.1034 30.644H74.088ZM80.9551 31.8017C80.5871 31.8017 80.2484 31.7433 79.9387 31.6267C79.6336 31.5055 79.3666 31.3373 79.1378 31.1219C78.9089 30.902 78.7317 30.644 78.606 30.3478C78.4804 30.0517 78.4176 29.7286 78.4176 29.3786C78.4176 29.0286 78.4804 28.7055 78.606 28.4094C78.7317 28.1132 78.9089 27.8575 79.1378 27.6421C79.3711 27.4222 79.6426 27.2539 79.9522 27.1373C80.2618 27.0161 80.6006 26.9555 80.9685 26.9555C81.3679 26.9555 81.7269 27.0206 82.0455 27.1507C82.3685 27.2808 82.64 27.4716 82.8599 27.7228L82.308 28.2613C82.124 28.0773 81.9243 27.9427 81.7089 27.8575C81.498 27.7677 81.2647 27.7228 81.0089 27.7228C80.7621 27.7228 80.5333 27.7632 80.3224 27.844C80.1115 27.9248 79.9298 28.0392 79.7772 28.1873C79.6246 28.3353 79.5057 28.5103 79.4205 28.7123C79.3397 28.9142 79.2993 29.1363 79.2993 29.3786C79.2993 29.6164 79.3397 29.8363 79.4205 30.0382C79.5057 30.2401 79.6246 30.4174 79.7772 30.57C79.9298 30.718 80.1093 30.8325 80.3157 30.9132C80.5221 30.994 80.7509 31.0344 81.0022 31.0344C81.2355 31.0344 81.4599 30.9985 81.6753 30.9267C81.8951 30.8504 82.1038 30.7248 82.3012 30.5498L82.7993 31.2026C82.5525 31.4001 82.2653 31.5504 81.9378 31.6536C81.6147 31.7523 81.2871 31.8017 80.9551 31.8017ZM81.9714 31.0882V29.3248H82.7993V31.2026L81.9714 31.0882ZM84.7611 28.9815H87.1034V29.7017H84.7611V28.9815ZM84.8284 31.0007H87.487V31.7344H83.9534V27.0228H87.3928V27.7565H84.8284V31.0007ZM91.1236 29.1901H93.4726V29.9305H91.1236V29.1901ZM91.1976 31.7344H90.3226V27.0228H93.7621V27.7565H91.1976V31.7344ZM94.6082 31.7344V27.0228H95.4832V31.7344H94.6082ZM96.7576 31.7344V27.0228H98.6961C99.1134 27.0228 99.4701 27.0901 99.7663 27.2248C100.067 27.3594 100.298 27.5523 100.46 27.8036C100.621 28.0549 100.702 28.3533 100.702 28.6988C100.702 29.0443 100.621 29.3427 100.46 29.594C100.298 29.8408 100.067 30.0315 99.7663 30.1661C99.4701 30.2962 99.1134 30.3613 98.6961 30.3613H97.2422L97.6326 29.9642V31.7344H96.7576ZM99.8403 31.7344L98.649 30.0248H99.5845L100.783 31.7344H99.8403ZM97.6326 30.0584L97.2422 29.6411H98.6557C99.0416 29.6411 99.331 29.5581 99.524 29.3921C99.7214 29.226 99.8201 28.995 99.8201 28.6988C99.8201 28.3982 99.7214 28.1671 99.524 28.0055C99.331 27.844 99.0416 27.7632 98.6557 27.7632H97.2422L97.6326 27.3325V30.0584ZM103.141 31.8017C102.773 31.8017 102.421 31.7501 102.085 31.6469C101.748 31.5392 101.481 31.4023 101.284 31.2363L101.587 30.5565C101.775 30.7046 102.008 30.828 102.287 30.9267C102.565 31.0254 102.85 31.0748 103.141 31.0748C103.388 31.0748 103.588 31.0478 103.74 30.994C103.893 30.9401 104.005 30.8683 104.077 30.7786C104.149 30.6844 104.185 30.5789 104.185 30.4623C104.185 30.3187 104.133 30.2042 104.03 30.119C103.927 30.0292 103.792 29.9597 103.626 29.9103C103.464 29.8565 103.283 29.8071 103.081 29.7623C102.883 29.7174 102.684 29.6658 102.482 29.6075C102.284 29.5446 102.103 29.4661 101.937 29.3719C101.775 29.2732 101.643 29.143 101.539 28.9815C101.436 28.82 101.385 28.6135 101.385 28.3623C101.385 28.1065 101.452 27.8732 101.587 27.6623C101.726 27.4469 101.934 27.2764 102.213 27.1507C102.495 27.0206 102.852 26.9555 103.283 26.9555C103.565 26.9555 103.846 26.9914 104.124 27.0632C104.402 27.135 104.645 27.2382 104.851 27.3728L104.575 28.0526C104.364 27.927 104.147 27.835 103.922 27.7767C103.698 27.7139 103.482 27.6825 103.276 27.6825C103.034 27.6825 102.836 27.7116 102.684 27.77C102.536 27.8283 102.426 27.9046 102.354 27.9988C102.287 28.093 102.253 28.2007 102.253 28.3219C102.253 28.4655 102.302 28.5821 102.401 28.6719C102.504 28.7571 102.637 28.8244 102.798 28.8738C102.964 28.9232 103.148 28.9725 103.35 29.0219C103.552 29.0667 103.752 29.1183 103.949 29.1767C104.151 29.235 104.333 29.3113 104.494 29.4055C104.66 29.4998 104.793 29.6276 104.891 29.7892C104.995 29.9507 105.046 30.1549 105.046 30.4017C105.046 30.653 104.977 30.8863 104.838 31.1017C104.703 31.3126 104.494 31.4831 104.212 31.6132C103.929 31.7389 103.572 31.8017 103.141 31.8017ZM106.804 31.7344V27.7632H105.242V27.0228H109.24V27.7632H107.679V31.7344H106.804Z" fill="#82878E"/>
<g filter="url(#filter1_d_1312_3984)">
<rect x="40.4863" y="62.875" width="166.026" height="22.4359" rx="2.24359" fill="white"/>
<path fill-rule="evenodd" clip-rule="evenodd" d="M51.704 78.5837C54.1822 78.5837 56.1912 76.5748 56.1912 74.0966C56.1912 71.6184 54.1822 69.6094 51.704 69.6094C49.2258 69.6094 47.2168 71.6184 47.2168 74.0966C47.2168 76.5748 49.2258 78.5837 51.704 78.5837Z" fill="#BCC5D0"/>
<path d="M52.2654 73.5352H53.3872C53.697 73.5352 53.9481 73.7863 53.9481 74.0961C53.9481 74.4058 53.697 74.657 53.3872 74.657H52.2654H51.1436H50.0218C49.7121 74.657 49.4609 74.4058 49.4609 74.0961C49.4609 73.7863 49.7121 73.5352 50.0218 73.5352H51.1436H52.2654Z" fill="white"/>
<path d="M60.6441 76.6055L62.7643 71.8939H63.6258L65.7527 76.6055H64.8373L63.0133 72.3584H63.3633L61.546 76.6055H60.6441ZM61.62 75.5151L61.8556 74.8285H64.3998L64.6354 75.5151H61.62ZM68.3106 72.9709C68.5978 72.9709 68.8535 73.0269 69.0779 73.1391C69.3067 73.2513 69.4862 73.4241 69.6164 73.6574C69.7465 73.8862 69.8115 74.1824 69.8115 74.5459V76.6055H68.9702V74.6535C68.9702 74.335 68.8939 74.0971 68.7414 73.9401C68.5933 73.783 68.3846 73.7045 68.1154 73.7045C67.918 73.7045 67.743 73.7449 67.5904 73.8257C67.4378 73.9064 67.3189 74.0276 67.2337 74.1891C67.1529 74.3462 67.1125 74.5459 67.1125 74.7882V76.6055H66.2712V73.0112H67.0721V73.9805L66.9308 73.6843C67.0564 73.4555 67.2381 73.2805 67.476 73.1593C67.7183 73.0337 67.9965 72.9709 68.3106 72.9709ZM73.0933 76.6055V75.8785L73.0462 75.7237V74.4516C73.0462 74.2048 72.9721 74.0141 72.824 73.8795C72.676 73.7404 72.4516 73.6709 72.151 73.6709C71.949 73.6709 71.7494 73.7023 71.5519 73.7651C71.359 73.8279 71.1952 73.9154 71.0606 74.0276L70.7308 73.4151C70.9237 73.267 71.1526 73.1571 71.4173 73.0853C71.6865 73.009 71.9647 72.9709 72.2519 72.9709C72.7724 72.9709 73.174 73.0965 73.4567 73.3478C73.7439 73.5946 73.8875 73.9782 73.8875 74.4987V76.6055H73.0933ZM71.9625 76.6526C71.6933 76.6526 71.4577 76.6077 71.2558 76.518C71.0538 76.4237 70.8968 76.2959 70.7846 76.1343C70.6769 75.9683 70.6231 75.7821 70.6231 75.5757C70.6231 75.3737 70.6702 75.192 70.7644 75.0305C70.8631 74.8689 71.0224 74.741 71.2423 74.6468C71.4622 74.5526 71.7538 74.5055 72.1173 74.5055H73.1606V75.0641H72.1779C71.8907 75.0641 71.6978 75.1112 71.599 75.2055C71.5003 75.2952 71.451 75.4074 71.451 75.542C71.451 75.6946 71.5115 75.8157 71.6327 75.9055C71.7538 75.9952 71.9221 76.0401 72.1375 76.0401C72.3439 76.0401 72.5279 75.993 72.6894 75.8987C72.8554 75.8045 72.9744 75.6654 73.0462 75.4814L73.1875 75.9862C73.1067 76.1971 72.9609 76.3609 72.75 76.4776C72.5436 76.5943 72.2811 76.6526 71.9625 76.6526ZM74.9673 76.6055V71.6112H75.8086V76.6055H74.9673ZM77.209 77.9584C77.034 77.9584 76.859 77.9292 76.684 77.8709C76.509 77.8125 76.3632 77.7318 76.2465 77.6285L76.5831 77.0093C76.6683 77.0856 76.7648 77.1462 76.8725 77.191C76.9802 77.2359 77.0901 77.2584 77.2023 77.2584C77.3549 77.2584 77.4783 77.2202 77.5725 77.1439C77.6667 77.0676 77.7542 76.9398 77.835 76.7603L78.0436 76.2891L78.111 76.1882L79.4706 73.0112H80.2783L78.5956 76.8949C78.4834 77.1641 78.3577 77.3773 78.2186 77.5343C78.084 77.6914 77.9315 77.8013 77.761 77.8641C77.5949 77.9269 77.411 77.9584 77.209 77.9584ZM77.9494 76.7334L76.3273 73.0112H77.2023L78.5215 76.1141L77.9494 76.7334ZM80.4422 76.6055V76.0737L82.6566 73.3949L82.8114 73.6843H80.4826V73.0112H83.4845V73.543L81.2701 76.2218L81.1018 75.9324H83.5451V76.6055H80.4422ZM85.9575 76.6526C85.5581 76.6526 85.2081 76.5741 84.9075 76.417C84.6114 76.2555 84.3803 76.0356 84.2142 75.7574C84.0527 75.4792 83.9719 75.1628 83.9719 74.8084C83.9719 74.4494 84.0505 74.133 84.2075 73.8593C84.369 73.5811 84.5889 73.3635 84.8671 73.2064C85.1498 73.0494 85.4706 72.9709 85.8296 72.9709C86.1796 72.9709 86.4915 73.0471 86.7652 73.1997C87.0389 73.3523 87.2543 73.5676 87.4114 73.8459C87.5684 74.1241 87.6469 74.4516 87.6469 74.8285C87.6469 74.8644 87.6447 74.9048 87.6402 74.9497C87.6402 74.9946 87.638 75.0372 87.6335 75.0776H84.6383V74.5189H87.1892L86.8594 74.6939C86.8639 74.4875 86.8213 74.3058 86.7315 74.1487C86.6418 73.9917 86.5184 73.8683 86.3614 73.7785C86.2088 73.6888 86.0315 73.6439 85.8296 73.6439C85.6232 73.6439 85.4415 73.6888 85.2844 73.7785C85.1319 73.8683 85.0107 73.9939 84.921 74.1555C84.8357 74.3125 84.7931 74.4987 84.7931 74.7141V74.8487C84.7931 75.0641 84.8424 75.2548 84.9412 75.4209C85.0399 75.5869 85.179 75.7148 85.3585 75.8045C85.538 75.8943 85.7444 75.9391 85.9777 75.9391C86.1796 75.9391 86.3614 75.9077 86.5229 75.8449C86.6844 75.7821 86.828 75.6834 86.9537 75.5487L87.4046 76.067C87.2431 76.2555 87.0389 76.4013 86.7921 76.5045C86.5498 76.6032 86.2716 76.6526 85.9575 76.6526ZM89.7297 76.6055L91.8499 71.8939H92.7114L94.8383 76.6055H93.9229L92.0989 72.3584H92.4489L90.6316 76.6055H89.7297ZM90.7056 75.5151L90.9412 74.8285H93.4854L93.721 75.5151H90.7056ZM95.4375 76.6055V71.8939H97.376C97.7933 71.8939 98.15 71.9612 98.4462 72.0959C98.7468 72.2305 98.9779 72.4234 99.1395 72.6747C99.301 72.926 99.3818 73.2244 99.3818 73.5699C99.3818 73.9154 99.301 74.2138 99.1395 74.4651C98.9779 74.7164 98.7468 74.9093 98.4462 75.0439C98.15 75.1785 97.7933 75.2459 97.376 75.2459H95.9221L96.3125 74.8353V76.6055H95.4375ZM96.3125 74.9295L95.9221 74.5055H97.3356C97.7215 74.5055 98.0109 74.4247 98.2039 74.2632C98.4013 74.0971 98.5 73.866 98.5 73.5699C98.5 73.2693 98.4013 73.0382 98.2039 72.8766C98.0109 72.7151 97.7215 72.6343 97.3356 72.6343H95.9221L96.3125 72.2035V74.9295ZM100.256 76.6055V71.8939H102.194C102.611 71.8939 102.968 71.9612 103.264 72.0959C103.565 72.2305 103.796 72.4234 103.957 72.6747C104.119 72.926 104.2 73.2244 104.2 73.5699C104.2 73.9154 104.119 74.2138 103.957 74.4651C103.796 74.7164 103.565 74.9093 103.264 75.0439C102.968 75.1785 102.611 75.2459 102.194 75.2459H100.74L101.131 74.8353V76.6055H100.256ZM101.131 74.9295L100.74 74.5055H102.154C102.54 74.5055 102.829 74.4247 103.022 74.2632C103.219 74.0971 103.318 73.866 103.318 73.5699C103.318 73.2693 103.219 73.0382 103.022 72.8766C102.829 72.7151 102.54 72.6343 102.154 72.6343H100.74L101.131 72.2035V74.9295ZM107.8 74.0612H110.149V74.8016H107.8V74.0612ZM107.874 76.6055H106.999V71.8939H110.439V72.6276H107.874V76.6055ZM113.44 76.6728C113.072 76.6728 112.733 76.6122 112.424 76.491C112.114 76.3699 111.845 76.2016 111.616 75.9862C111.387 75.7664 111.21 75.5106 111.084 75.2189C110.959 74.9228 110.896 74.5997 110.896 74.2497C110.896 73.8997 110.959 73.5789 111.084 73.2872C111.21 72.991 111.387 72.7353 111.616 72.5199C111.845 72.3 112.114 72.1295 112.424 72.0084C112.733 71.8872 113.07 71.8266 113.433 71.8266C113.801 71.8266 114.138 71.8872 114.443 72.0084C114.753 72.1295 115.022 72.3 115.251 72.5199C115.48 72.7353 115.657 72.991 115.782 73.2872C115.908 73.5789 115.971 73.8997 115.971 74.2497C115.971 74.5997 115.908 74.9228 115.782 75.2189C115.657 75.5151 115.48 75.7709 115.251 75.9862C115.022 76.2016 114.753 76.3699 114.443 76.491C114.138 76.6122 113.804 76.6728 113.44 76.6728ZM113.433 75.9055C113.671 75.9055 113.891 75.8651 114.093 75.7843C114.295 75.7035 114.47 75.5891 114.618 75.441C114.766 75.2885 114.881 75.1135 114.961 74.916C115.047 74.7141 115.089 74.492 115.089 74.2497C115.089 74.0074 115.047 73.7875 114.961 73.5901C114.881 73.3882 114.766 73.2132 114.618 73.0651C114.47 72.9125 114.295 72.7959 114.093 72.7151C113.891 72.6343 113.671 72.5939 113.433 72.5939C113.196 72.5939 112.976 72.6343 112.774 72.7151C112.576 72.7959 112.401 72.9125 112.249 73.0651C112.101 73.2132 111.984 73.3882 111.899 73.5901C111.818 73.7875 111.778 74.0074 111.778 74.2497C111.778 74.4875 111.818 74.7074 111.899 74.9093C111.984 75.1112 112.101 75.2885 112.249 75.441C112.397 75.5891 112.572 75.7035 112.774 75.7843C112.976 75.8651 113.196 75.9055 113.433 75.9055ZM116.898 76.6055V71.8939H118.837C119.254 71.8939 119.611 71.9612 119.907 72.0959C120.208 72.2305 120.439 72.4234 120.6 72.6747C120.762 72.926 120.843 73.2244 120.843 73.5699C120.843 73.9154 120.762 74.2138 120.6 74.4651C120.439 74.7119 120.208 74.9026 119.907 75.0372C119.611 75.1673 119.254 75.2324 118.837 75.2324H117.383L117.773 74.8353V76.6055H116.898ZM119.981 76.6055L118.79 74.8959H119.725L120.923 76.6055H119.981ZM117.773 74.9295L117.383 74.5122H118.797C119.182 74.5122 119.472 74.4292 119.665 74.2632C119.862 74.0971 119.961 73.866 119.961 73.5699C119.961 73.2693 119.862 73.0382 119.665 72.8766C119.472 72.7151 119.182 72.6343 118.797 72.6343H117.383L117.773 72.2035V74.9295ZM121.822 76.6055V71.8939H122.542L124.601 75.3334H124.225L126.25 71.8939H126.971L126.977 76.6055H126.15L126.143 73.193H126.318L124.595 76.067H124.204L122.454 73.193H122.656V76.6055H121.822Z" fill="#525252"/>
</g>
<g filter="url(#filter2_d_1312_3984)">
<rect x="40.4883" y="122.234" width="166.026" height="22.4359" rx="2.24359" fill="white"/>
<path fill-rule="evenodd" clip-rule="evenodd" d="M51.7059 137.943C54.1841 137.943 56.1931 135.934 56.1931 133.456C56.1931 130.978 54.1841 128.969 51.7059 128.969C49.2277 128.969 47.2188 130.978 47.2188 133.456C47.2188 135.934 49.2277 137.943 51.7059 137.943Z" fill="#BCC5D0"/>
<path fill-rule="evenodd" clip-rule="evenodd" d="M51.7065 131.211C52.0163 131.211 52.2674 131.462 52.2674 131.772V132.894H53.3892C53.6989 132.894 53.9501 133.145 53.9501 133.455C53.9501 133.764 53.6989 134.015 53.3892 134.015H52.2674V135.137C52.2674 135.447 52.0163 135.698 51.7065 135.698C51.3967 135.698 51.1456 135.447 51.1456 135.137V134.015H50.0238C49.714 134.015 49.4629 133.764 49.4629 133.455C49.4629 133.145 49.714 132.894 50.0238 132.894H51.1456V131.772C51.1456 131.462 51.3967 131.211 51.7065 131.211Z" fill="white"/>
<path opacity="0.5" d="M63.3383 136.032C62.6922 136.032 62.1851 135.85 61.8172 135.487C61.4537 135.123 61.272 134.598 61.272 133.912V131.253H62.147V133.878C62.147 134.363 62.2502 134.715 62.4566 134.935C62.6675 135.155 62.9637 135.265 63.3451 135.265C63.7265 135.265 64.0204 135.155 64.2268 134.935C64.4332 134.715 64.5364 134.363 64.5364 133.878V131.253H65.398V133.912C65.398 134.598 65.214 135.123 64.846 135.487C64.4826 135.85 63.98 136.032 63.3383 136.032ZM68.5349 136.012C68.2432 136.012 67.9763 135.945 67.734 135.81C67.4961 135.675 67.3054 135.473 67.1618 135.204C67.0227 134.931 66.9532 134.585 66.9532 134.168C66.9532 133.746 67.0205 133.4 67.1551 133.131C67.2942 132.862 67.4827 132.662 67.7205 132.532C67.9583 132.398 68.2298 132.33 68.5349 132.33C68.8894 132.33 69.2013 132.407 69.4705 132.559C69.7442 132.712 69.9596 132.925 70.1166 133.198C70.2782 133.472 70.359 133.795 70.359 134.168C70.359 134.54 70.2782 134.865 70.1166 135.144C69.9596 135.417 69.7442 135.631 69.4705 135.783C69.2013 135.936 68.8894 136.012 68.5349 136.012ZM66.5426 137.271V132.371H67.3436V133.219L67.3166 134.174L67.384 135.13V137.271H66.5426ZM68.4407 135.292C68.6426 135.292 68.8221 135.247 68.9791 135.157C69.1407 135.067 69.2686 134.937 69.3628 134.767C69.457 134.596 69.5041 134.397 69.5041 134.168C69.5041 133.934 69.457 133.735 69.3628 133.569C69.2686 133.398 69.1407 133.268 68.9791 133.178C68.8221 133.089 68.6426 133.044 68.4407 133.044C68.2388 133.044 68.057 133.089 67.8955 133.178C67.734 133.268 67.6061 133.398 67.5118 133.569C67.4176 133.735 67.3705 133.934 67.3705 134.168C67.3705 134.397 67.4176 134.596 67.5118 134.767C67.6061 134.937 67.734 135.067 67.8955 135.157C68.057 135.247 68.2388 135.292 68.4407 135.292ZM71.1569 135.965V130.971H71.9982V135.965H71.1569ZM74.7179 136.012C74.3499 136.012 74.0224 135.933 73.7352 135.776C73.448 135.615 73.2214 135.395 73.0554 135.117C72.8893 134.839 72.8063 134.522 72.8063 134.168C72.8063 133.809 72.8893 133.492 73.0554 133.219C73.2214 132.94 73.448 132.723 73.7352 132.566C74.0224 132.409 74.3499 132.33 74.7179 132.33C75.0903 132.33 75.4201 132.409 75.7073 132.566C75.999 132.723 76.2256 132.938 76.3871 133.212C76.5531 133.486 76.6361 133.804 76.6361 134.168C76.6361 134.522 76.5531 134.839 76.3871 135.117C76.2256 135.395 75.999 135.615 75.7073 135.776C75.4201 135.933 75.0903 136.012 74.7179 136.012ZM74.7179 135.292C74.9243 135.292 75.1082 135.247 75.2698 135.157C75.4313 135.067 75.557 134.937 75.6467 134.767C75.7409 134.596 75.7881 134.397 75.7881 134.168C75.7881 133.934 75.7409 133.735 75.6467 133.569C75.557 133.398 75.4313 133.268 75.2698 133.178C75.1082 133.089 74.9265 133.044 74.7246 133.044C74.5182 133.044 74.3342 133.089 74.1727 133.178C74.0156 133.268 73.89 133.398 73.7957 133.569C73.7015 133.735 73.6544 133.934 73.6544 134.168C73.6544 134.397 73.7015 134.596 73.7957 134.767C73.89 134.937 74.0156 135.067 74.1727 135.157C74.3342 135.247 74.5159 135.292 74.7179 135.292ZM79.6091 135.965V135.238L79.562 135.083V133.811C79.562 133.564 79.4879 133.373 79.3399 133.239C79.1918 133.1 78.9674 133.03 78.6668 133.03C78.4649 133.03 78.2652 133.062 78.0677 133.124C77.8748 133.187 77.711 133.275 77.5764 133.387L77.2466 132.774C77.4395 132.626 77.6684 132.516 77.9331 132.445C78.2024 132.368 78.4806 132.33 78.7677 132.33C79.2882 132.33 79.6899 132.456 79.9725 132.707C80.2597 132.954 80.4033 133.338 80.4033 133.858V135.965H79.6091ZM78.4783 136.012C78.2091 136.012 77.9735 135.967 77.7716 135.877C77.5697 135.783 77.4126 135.655 77.3004 135.494C77.1927 135.328 77.1389 135.141 77.1389 134.935C77.1389 134.733 77.186 134.551 77.2802 134.39C77.379 134.228 77.5382 134.1 77.7581 134.006C77.978 133.912 78.2697 133.865 78.6331 133.865H79.6764V134.423H78.6937C78.4065 134.423 78.2136 134.471 78.1149 134.565C78.0161 134.655 77.9668 134.767 77.9668 134.901C77.9668 135.054 78.0274 135.175 78.1485 135.265C78.2697 135.355 78.4379 135.399 78.6533 135.399C78.8597 135.399 79.0437 135.352 79.2052 135.258C79.3713 135.164 79.4902 135.025 79.562 134.841L79.7033 135.346C79.6225 135.557 79.4767 135.72 79.2658 135.837C79.0594 135.954 78.7969 136.012 78.4783 136.012ZM83.0108 136.012C82.6653 136.012 82.3534 135.936 82.0752 135.783C81.8015 135.626 81.5861 135.411 81.4291 135.137C81.272 134.863 81.1935 134.54 81.1935 134.168C81.1935 133.795 81.272 133.472 81.4291 133.198C81.5861 132.925 81.8015 132.712 82.0752 132.559C82.3534 132.407 82.6653 132.33 83.0108 132.33C83.3114 132.33 83.5807 132.398 83.8185 132.532C84.0563 132.662 84.2448 132.862 84.3839 133.131C84.523 133.4 84.5925 133.746 84.5925 134.168C84.5925 134.585 84.5252 134.931 84.3906 135.204C84.256 135.473 84.0698 135.675 83.832 135.81C83.5941 135.945 83.3204 136.012 83.0108 136.012ZM83.1118 135.292C83.3137 135.292 83.4932 135.247 83.6502 135.157C83.8118 135.067 83.9396 134.937 84.0339 134.767C84.1326 134.596 84.182 134.397 84.182 134.168C84.182 133.934 84.1326 133.735 84.0339 133.569C83.9396 133.398 83.8118 133.268 83.6502 133.178C83.4932 133.089 83.3137 133.044 83.1118 133.044C82.9098 133.044 82.7281 133.089 82.5666 133.178C82.4095 133.268 82.2816 133.398 82.1829 133.569C82.0887 133.735 82.0416 133.934 82.0416 134.168C82.0416 134.397 82.0887 134.596 82.1829 134.767C82.2816 134.937 82.4095 135.067 82.5666 135.157C82.7281 135.247 82.9098 135.292 83.1118 135.292ZM84.2021 135.965V135.117L84.2358 134.161L84.1685 133.205V130.971H85.0031V135.965H84.2021ZM89.0072 135.965V131.994H87.4456V131.253H91.4437V131.994H89.8822V135.965H89.0072ZM94.059 132.33C94.3462 132.33 94.602 132.386 94.8264 132.498C95.0552 132.611 95.2347 132.783 95.3648 133.017C95.4949 133.246 95.56 133.542 95.56 133.905V135.965H94.7187V134.013C94.7187 133.694 94.6424 133.457 94.4898 133.299C94.3417 133.142 94.1331 133.064 93.8639 133.064C93.6664 133.064 93.4914 133.104 93.3389 133.185C93.1863 133.266 93.0674 133.387 92.9821 133.548C92.9014 133.706 92.861 133.905 92.861 134.148V135.965H92.0196V130.971H92.861V133.34L92.6792 133.044C92.8049 132.815 92.9866 132.64 93.2244 132.519C93.4667 132.393 93.7449 132.33 94.059 132.33ZM98.3233 136.012C97.9239 136.012 97.5739 135.933 97.2733 135.776C96.9771 135.615 96.7461 135.395 96.58 135.117C96.4185 134.839 96.3377 134.522 96.3377 134.168C96.3377 133.809 96.4162 133.492 96.5733 133.219C96.7348 132.94 96.9547 132.723 97.2329 132.566C97.5156 132.409 97.8364 132.33 98.1954 132.33C98.5454 132.33 98.8573 132.407 99.131 132.559C99.4047 132.712 99.6201 132.927 99.7771 133.205C99.9342 133.483 100.013 133.811 100.013 134.188C100.013 134.224 100.01 134.264 100.006 134.309C100.006 134.354 100.004 134.397 99.9993 134.437H97.0041V133.878H99.555L99.2252 134.053C99.2297 133.847 99.1871 133.665 99.0973 133.508C99.0076 133.351 98.8842 133.228 98.7271 133.138C98.5746 133.048 98.3973 133.003 98.1954 133.003C97.989 133.003 97.8073 133.048 97.6502 133.138C97.4977 133.228 97.3765 133.353 97.2868 133.515C97.2015 133.672 97.1589 133.858 97.1589 134.073V134.208C97.1589 134.423 97.2082 134.614 97.307 134.78C97.4057 134.946 97.5448 135.074 97.7243 135.164C97.9037 135.254 98.1102 135.298 98.3435 135.298C98.5454 135.298 98.7271 135.267 98.8887 135.204C99.0502 135.141 99.1938 135.043 99.3195 134.908L99.7704 135.426C99.6089 135.615 99.4047 135.761 99.1579 135.864C98.9156 135.963 98.6374 136.012 98.3233 136.012ZM102.762 135.965V131.253H104.97C105.535 131.253 105.966 131.365 106.262 131.59C106.558 131.81 106.706 132.106 106.706 132.478C106.706 132.73 106.648 132.945 106.531 133.124C106.414 133.299 106.257 133.436 106.06 133.535C105.867 133.629 105.656 133.676 105.427 133.676L105.548 133.434C105.813 133.434 106.051 133.483 106.262 133.582C106.473 133.676 106.639 133.815 106.76 133.999C106.886 134.183 106.948 134.412 106.948 134.686C106.948 135.09 106.794 135.404 106.484 135.628C106.174 135.853 105.714 135.965 105.104 135.965H102.762ZM103.637 135.278H105.05C105.378 135.278 105.629 135.224 105.804 135.117C105.979 135.009 106.067 134.836 106.067 134.598C106.067 134.365 105.979 134.195 105.804 134.087C105.629 133.975 105.378 133.919 105.05 133.919H103.57V133.239H104.875C105.18 133.239 105.414 133.185 105.575 133.077C105.741 132.97 105.824 132.808 105.824 132.593C105.824 132.373 105.741 132.209 105.575 132.101C105.414 131.994 105.18 131.94 104.875 131.94H103.637V135.278ZM110.016 135.965V135.238L109.969 135.083V133.811C109.969 133.564 109.895 133.373 109.747 133.239C109.599 133.1 109.374 133.03 109.074 133.03C108.872 133.03 108.672 133.062 108.475 133.124C108.282 133.187 108.118 133.275 107.983 133.387L107.653 132.774C107.846 132.626 108.075 132.516 108.34 132.445C108.609 132.368 108.887 132.33 109.175 132.33C109.695 132.33 110.097 132.456 110.379 132.707C110.666 132.954 110.81 133.338 110.81 133.858V135.965H110.016ZM108.885 136.012C108.616 136.012 108.38 135.967 108.178 135.877C107.976 135.783 107.819 135.655 107.707 135.494C107.6 135.328 107.546 135.141 107.546 134.935C107.546 134.733 107.593 134.551 107.687 134.39C107.786 134.228 107.945 134.1 108.165 134.006C108.385 133.912 108.676 133.865 109.04 133.865H110.083V134.423H109.1C108.813 134.423 108.62 134.471 108.522 134.565C108.423 134.655 108.374 134.767 108.374 134.901C108.374 135.054 108.434 135.175 108.555 135.265C108.676 135.355 108.845 135.399 109.06 135.399C109.266 135.399 109.45 135.352 109.612 135.258C109.778 135.164 109.897 135.025 109.969 134.841L110.11 135.346C110.029 135.557 109.883 135.72 109.673 135.837C109.466 135.954 109.204 136.012 108.885 136.012ZM113.929 132.33C114.216 132.33 114.472 132.386 114.697 132.498C114.925 132.611 115.105 132.783 115.235 133.017C115.365 133.246 115.43 133.542 115.43 133.905V135.965H114.589V134.013C114.589 133.694 114.513 133.457 114.36 133.299C114.212 133.142 114.003 133.064 113.734 133.064C113.537 133.064 113.362 133.104 113.209 133.185C113.057 133.266 112.938 133.387 112.852 133.548C112.772 133.706 112.731 133.905 112.731 134.148V135.965H111.89V132.371H112.691V133.34L112.549 133.044C112.675 132.815 112.857 132.64 113.095 132.519C113.337 132.393 113.615 132.33 113.929 132.33ZM117.184 135.164L117.204 134.107L119.082 132.371H120.092L118.497 133.973L118.052 134.343L117.184 135.164ZM116.498 135.965V130.971H117.339V135.965H116.498ZM119.21 135.965L117.898 134.343L118.429 133.67L120.233 135.965H119.21ZM120.023 136.638L122.244 130.298H122.998L120.777 136.638H120.023ZM125.404 136.032C125.045 136.032 124.711 135.974 124.402 135.857C124.096 135.736 123.829 135.568 123.601 135.352C123.376 135.132 123.201 134.874 123.076 134.578C122.95 134.282 122.887 133.959 122.887 133.609C122.887 133.259 122.95 132.936 123.076 132.64C123.201 132.344 123.378 132.088 123.607 131.873C123.836 131.653 124.103 131.484 124.408 131.368C124.713 131.247 125.048 131.186 125.411 131.186C125.797 131.186 126.149 131.253 126.468 131.388C126.786 131.518 127.056 131.713 127.276 131.973L126.71 132.505C126.54 132.321 126.349 132.184 126.138 132.095C125.927 132 125.698 131.953 125.452 131.953C125.205 131.953 124.978 131.994 124.772 132.074C124.57 132.155 124.393 132.27 124.24 132.418C124.092 132.566 123.975 132.741 123.89 132.943C123.809 133.145 123.769 133.367 123.769 133.609C123.769 133.851 123.809 134.073 123.89 134.275C123.975 134.477 124.092 134.652 124.24 134.8C124.393 134.948 124.57 135.063 124.772 135.144C124.978 135.224 125.205 135.265 125.452 135.265C125.698 135.265 125.927 135.22 126.138 135.13C126.349 135.036 126.54 134.895 126.71 134.706L127.276 135.245C127.056 135.5 126.786 135.696 126.468 135.83C126.149 135.965 125.795 136.032 125.404 136.032ZM128.033 135.965V132.371H128.834V133.36L128.74 133.071C128.848 132.828 129.016 132.644 129.245 132.519C129.478 132.393 129.767 132.33 130.113 132.33V133.131C130.077 133.122 130.043 133.118 130.012 133.118C129.981 133.113 129.949 133.111 129.918 133.111C129.599 133.111 129.346 133.205 129.157 133.394C128.969 133.578 128.875 133.854 128.875 134.222V135.965H128.033ZM132.483 136.012C132.084 136.012 131.734 135.933 131.433 135.776C131.137 135.615 130.906 135.395 130.74 135.117C130.578 134.839 130.498 134.522 130.498 134.168C130.498 133.809 130.576 133.492 130.733 133.219C130.895 132.94 131.115 132.723 131.393 132.566C131.676 132.409 131.996 132.33 132.355 132.33C132.705 132.33 133.017 132.407 133.291 132.559C133.565 132.712 133.78 132.927 133.937 133.205C134.094 133.483 134.173 133.811 134.173 134.188C134.173 134.224 134.17 134.264 134.166 134.309C134.166 134.354 134.164 134.397 134.159 134.437H131.164V133.878H133.715L133.385 134.053C133.39 133.847 133.347 133.665 133.257 133.508C133.168 133.351 133.044 133.228 132.887 133.138C132.735 133.048 132.557 133.003 132.355 133.003C132.149 133.003 131.967 133.048 131.81 133.138C131.658 133.228 131.536 133.353 131.447 133.515C131.361 133.672 131.319 133.858 131.319 134.073V134.208C131.319 134.423 131.368 134.614 131.467 134.78C131.566 134.946 131.705 135.074 131.884 135.164C132.064 135.254 132.27 135.298 132.503 135.298C132.705 135.298 132.887 135.267 133.049 135.204C133.21 135.141 133.354 135.043 133.479 134.908L133.93 135.426C133.769 135.615 133.565 135.761 133.318 135.864C133.076 135.963 132.797 136.012 132.483 136.012ZM136.502 136.012C136.157 136.012 135.845 135.936 135.566 135.783C135.293 135.626 135.077 135.411 134.92 135.137C134.763 134.863 134.685 134.54 134.685 134.168C134.685 133.795 134.763 133.472 134.92 133.198C135.077 132.925 135.293 132.712 135.566 132.559C135.845 132.407 136.157 132.33 136.502 132.33C136.803 132.33 137.072 132.398 137.31 132.532C137.548 132.662 137.736 132.862 137.875 133.131C138.014 133.4 138.084 133.746 138.084 134.168C138.084 134.585 138.016 134.931 137.882 135.204C137.747 135.473 137.561 135.675 137.323 135.81C137.085 135.945 136.812 136.012 136.502 136.012ZM136.603 135.292C136.805 135.292 136.984 135.247 137.141 135.157C137.303 135.067 137.431 134.937 137.525 134.767C137.624 134.596 137.673 134.397 137.673 134.168C137.673 133.934 137.624 133.735 137.525 133.569C137.431 133.398 137.303 133.268 137.141 133.178C136.984 133.089 136.805 133.044 136.603 133.044C136.401 133.044 136.219 133.089 136.058 133.178C135.901 133.268 135.773 133.398 135.674 133.569C135.58 133.735 135.533 133.934 135.533 134.168C135.533 134.397 135.58 134.596 135.674 134.767C135.773 134.937 135.901 135.067 136.058 135.157C136.219 135.247 136.401 135.292 136.603 135.292ZM137.693 135.965V135.117L137.727 134.161L137.66 133.205V130.971H138.494V135.965H137.693ZM139.602 135.965V132.371H140.443V135.965H139.602ZM140.026 131.778C139.869 131.778 139.739 131.729 139.635 131.63C139.537 131.532 139.487 131.413 139.487 131.273C139.487 131.13 139.537 131.011 139.635 130.917C139.739 130.818 139.869 130.769 140.026 130.769C140.183 130.769 140.311 130.816 140.409 130.91C140.513 131 140.564 131.114 140.564 131.253C140.564 131.401 140.515 131.527 140.416 131.63C140.317 131.729 140.187 131.778 140.026 131.778ZM142.9 136.012C142.505 136.012 142.2 135.911 141.985 135.709C141.769 135.503 141.662 135.2 141.662 134.8V131.576H142.503V134.78C142.503 134.951 142.546 135.083 142.631 135.177C142.721 135.272 142.844 135.319 143.001 135.319C143.19 135.319 143.347 135.269 143.472 135.171L143.708 135.77C143.609 135.85 143.488 135.911 143.344 135.951C143.201 135.992 143.053 136.012 142.9 136.012ZM141.069 133.071V132.398H143.466V133.071H141.069ZM148.522 136.032C148.163 136.032 147.828 135.974 147.519 135.857C147.214 135.736 146.947 135.568 146.718 135.352C146.493 135.132 146.318 134.874 146.193 134.578C146.067 134.282 146.004 133.959 146.004 133.609C146.004 133.259 146.067 132.936 146.193 132.64C146.318 132.344 146.496 132.088 146.725 131.873C146.953 131.653 147.22 131.484 147.526 131.368C147.831 131.247 148.165 131.186 148.528 131.186C148.914 131.186 149.267 131.253 149.585 131.388C149.904 131.518 150.173 131.713 150.393 131.973L149.827 132.505C149.657 132.321 149.466 132.184 149.255 132.095C149.044 132 148.816 131.953 148.569 131.953C148.322 131.953 148.095 131.994 147.889 132.074C147.687 132.155 147.51 132.27 147.357 132.418C147.209 132.566 147.093 132.741 147.007 132.943C146.927 133.145 146.886 133.367 146.886 133.609C146.886 133.851 146.927 134.073 147.007 134.275C147.093 134.477 147.209 134.652 147.357 134.8C147.51 134.948 147.687 135.063 147.889 135.144C148.095 135.224 148.322 135.265 148.569 135.265C148.816 135.265 149.044 135.22 149.255 135.13C149.466 135.036 149.657 134.895 149.827 134.706L150.393 135.245C150.173 135.5 149.904 135.696 149.585 135.83C149.267 135.965 148.912 136.032 148.522 136.032ZM153.332 135.965V135.238L153.285 135.083V133.811C153.285 133.564 153.211 133.373 153.063 133.239C152.915 133.1 152.69 133.03 152.39 133.03C152.188 133.03 151.988 133.062 151.791 133.124C151.598 133.187 151.434 133.275 151.299 133.387L150.97 132.774C151.162 132.626 151.391 132.516 151.656 132.445C151.925 132.368 152.204 132.33 152.491 132.33C153.011 132.33 153.413 132.456 153.695 132.707C153.983 132.954 154.126 133.338 154.126 133.858V135.965H153.332ZM152.201 136.012C151.932 136.012 151.696 135.967 151.495 135.877C151.293 135.783 151.136 135.655 151.023 135.494C150.916 135.328 150.862 135.141 150.862 134.935C150.862 134.733 150.909 134.551 151.003 134.39C151.102 134.228 151.261 134.1 151.481 134.006C151.701 133.912 151.993 133.865 152.356 133.865H153.399V134.423H152.417C152.129 134.423 151.937 134.471 151.838 134.565C151.739 134.655 151.69 134.767 151.69 134.901C151.69 135.054 151.75 135.175 151.871 135.265C151.993 135.355 152.161 135.399 152.376 135.399C152.583 135.399 152.767 135.352 152.928 135.258C153.094 135.164 153.213 135.025 153.285 134.841L153.426 135.346C153.345 135.557 153.2 135.72 152.989 135.837C152.782 135.954 152.52 136.012 152.201 136.012ZM155.206 135.965V132.371H156.007V133.36L155.913 133.071C156.02 132.828 156.189 132.644 156.418 132.519C156.651 132.393 156.94 132.33 157.286 132.33V133.131C157.25 133.122 157.216 133.118 157.185 133.118C157.153 133.113 157.122 133.111 157.091 133.111C156.772 133.111 156.519 133.205 156.33 133.394C156.142 133.578 156.047 133.854 156.047 134.222V135.965H155.206ZM159.488 136.012C159.142 136.012 158.83 135.936 158.552 135.783C158.279 135.626 158.063 135.411 157.906 135.137C157.749 134.863 157.671 134.54 157.671 134.168C157.671 133.795 157.749 133.472 157.906 133.198C158.063 132.925 158.279 132.712 158.552 132.559C158.83 132.407 159.142 132.33 159.488 132.33C159.788 132.33 160.058 132.398 160.296 132.532C160.533 132.662 160.722 132.862 160.861 133.131C161 133.4 161.07 133.746 161.07 134.168C161.07 134.585 161.002 134.931 160.868 135.204C160.733 135.473 160.547 135.675 160.309 135.81C160.071 135.945 159.797 136.012 159.488 136.012ZM159.589 135.292C159.791 135.292 159.97 135.247 160.127 135.157C160.289 135.067 160.417 134.937 160.511 134.767C160.61 134.596 160.659 134.397 160.659 134.168C160.659 133.934 160.61 133.735 160.511 133.569C160.417 133.398 160.289 133.268 160.127 133.178C159.97 133.089 159.791 133.044 159.589 133.044C159.387 133.044 159.205 133.089 159.044 133.178C158.887 133.268 158.759 133.398 158.66 133.569C158.566 133.735 158.519 133.934 158.519 134.168C158.519 134.397 158.566 134.596 158.66 134.767C158.759 134.937 158.887 135.067 159.044 135.157C159.205 135.247 159.387 135.292 159.589 135.292ZM160.679 135.965V135.117L160.713 134.161L160.646 133.205V130.971H161.48V135.965H160.679ZM165.989 136.032C165.621 136.032 165.269 135.981 164.932 135.877C164.596 135.77 164.329 135.633 164.131 135.467L164.434 134.787C164.623 134.935 164.856 135.058 165.134 135.157C165.412 135.256 165.697 135.305 165.989 135.305C166.236 135.305 166.436 135.278 166.588 135.224C166.741 135.171 166.853 135.099 166.925 135.009C166.996 134.915 167.032 134.809 167.032 134.693C167.032 134.549 166.981 134.435 166.877 134.349C166.774 134.26 166.64 134.19 166.474 134.141C166.312 134.087 166.13 134.038 165.928 133.993C165.731 133.948 165.531 133.896 165.329 133.838C165.132 133.775 164.95 133.697 164.784 133.602C164.623 133.504 164.49 133.373 164.387 133.212C164.284 133.05 164.232 132.844 164.232 132.593C164.232 132.337 164.3 132.104 164.434 131.893C164.573 131.677 164.782 131.507 165.06 131.381C165.343 131.251 165.7 131.186 166.13 131.186C166.413 131.186 166.694 131.222 166.972 131.294C167.25 131.365 167.492 131.469 167.699 131.603L167.423 132.283C167.212 132.157 166.994 132.065 166.77 132.007C166.545 131.944 166.33 131.913 166.124 131.913C165.881 131.913 165.684 131.942 165.531 132C165.383 132.059 165.273 132.135 165.202 132.229C165.134 132.323 165.101 132.431 165.101 132.552C165.101 132.696 165.15 132.813 165.249 132.902C165.352 132.988 165.484 133.055 165.646 133.104C165.812 133.154 165.996 133.203 166.198 133.252C166.4 133.297 166.599 133.349 166.797 133.407C166.999 133.465 167.18 133.542 167.342 133.636C167.508 133.73 167.64 133.858 167.739 134.02C167.842 134.181 167.894 134.385 167.894 134.632C167.894 134.883 167.824 135.117 167.685 135.332C167.551 135.543 167.342 135.714 167.059 135.844C166.777 135.969 166.42 136.032 165.989 136.032ZM170.034 136.012C169.639 136.012 169.334 135.911 169.118 135.709C168.903 135.503 168.795 135.2 168.795 134.8V131.576H169.636V134.78C169.636 134.951 169.679 135.083 169.764 135.177C169.854 135.272 169.978 135.319 170.135 135.319C170.323 135.319 170.48 135.269 170.606 135.171L170.841 135.77C170.743 135.85 170.621 135.911 170.478 135.951C170.334 135.992 170.186 136.012 170.034 136.012ZM168.203 133.071V132.398H170.599V133.071H168.203ZM173.748 135.965V135.238L173.701 135.083V133.811C173.701 133.564 173.627 133.373 173.479 133.239C173.331 133.1 173.106 133.03 172.806 133.03C172.604 133.03 172.404 133.062 172.206 133.124C172.014 133.187 171.85 133.275 171.715 133.387L171.385 132.774C171.578 132.626 171.807 132.516 172.072 132.445C172.341 132.368 172.619 132.33 172.906 132.33C173.427 132.33 173.829 132.456 174.111 132.707C174.398 132.954 174.542 133.338 174.542 133.858V135.965H173.748ZM172.617 136.012C172.348 136.012 172.112 135.967 171.91 135.877C171.708 135.783 171.551 135.655 171.439 135.494C171.331 135.328 171.278 135.141 171.278 134.935C171.278 134.733 171.325 134.551 171.419 134.39C171.518 134.228 171.677 134.1 171.897 134.006C172.117 133.912 172.408 133.865 172.772 133.865H173.815V134.423H172.832C172.545 134.423 172.352 134.471 172.254 134.565C172.155 134.655 172.106 134.767 172.106 134.901C172.106 135.054 172.166 135.175 172.287 135.265C172.408 135.355 172.577 135.399 172.792 135.399C172.998 135.399 173.182 135.352 173.344 135.258C173.51 135.164 173.629 135.025 173.701 134.841L173.842 135.346C173.761 135.557 173.615 135.72 173.405 135.837C173.198 135.954 172.936 136.012 172.617 136.012ZM176.975 136.012C176.58 136.012 176.275 135.911 176.059 135.709C175.844 135.503 175.736 135.2 175.736 134.8V131.576H176.578V134.78C176.578 134.951 176.62 135.083 176.705 135.177C176.795 135.272 176.919 135.319 177.076 135.319C177.264 135.319 177.421 135.269 177.547 135.171L177.782 135.77C177.684 135.85 177.563 135.911 177.419 135.951C177.275 135.992 177.127 136.012 176.975 136.012ZM175.144 133.071V132.398H177.54V133.071H175.144ZM178.809 136.012C178.657 136.012 178.527 135.96 178.419 135.857C178.311 135.749 178.258 135.615 178.258 135.453C178.258 135.283 178.311 135.148 178.419 135.049C178.527 134.946 178.657 134.895 178.809 134.895C178.962 134.895 179.092 134.946 179.2 135.049C179.308 135.148 179.361 135.283 179.361 135.453C179.361 135.615 179.308 135.749 179.2 135.857C179.092 135.96 178.962 136.012 178.809 136.012ZM180.453 136.012C180.3 136.012 180.17 135.96 180.062 135.857C179.955 135.749 179.901 135.615 179.901 135.453C179.901 135.283 179.955 135.148 180.062 135.049C180.17 134.946 180.3 134.895 180.453 134.895C180.605 134.895 180.735 134.946 180.843 135.049C180.951 135.148 181.005 135.283 181.005 135.453C181.005 135.615 180.951 135.749 180.843 135.857C180.735 135.96 180.605 136.012 180.453 136.012ZM182.096 136.012C181.943 136.012 181.813 135.96 181.706 135.857C181.598 135.749 181.544 135.615 181.544 135.453C181.544 135.283 181.598 135.148 181.706 135.049C181.813 134.946 181.943 134.895 182.096 134.895C182.249 134.895 182.379 134.946 182.486 135.049C182.594 135.148 182.648 135.283 182.648 135.453C182.648 135.615 182.594 135.749 182.486 135.857C182.379 135.96 182.249 136.012 182.096 136.012Z" fill="#525252"/>
</g>
<g filter="url(#filter3_d_1312_3984)">
<rect x="18" y="90.0039" width="209.513" height="28.3126" rx="2.83126" fill="white"/>
<path fill-rule="evenodd" clip-rule="evenodd" d="M32.1547 109.821C35.282 109.821 37.8172 107.286 37.8172 104.159C37.8172 101.031 35.282 98.4961 32.1547 98.4961C29.0274 98.4961 26.4922 101.031 26.4922 104.159C26.4922 107.286 29.0274 109.821 32.1547 109.821Z" fill="#37AEB4"/>
<path fill-rule="evenodd" clip-rule="evenodd" d="M32.1547 109.821C35.282 109.821 37.8172 107.286 37.8172 104.159C37.8172 101.031 35.282 98.4961 32.1547 98.4961C29.0274 98.4961 26.4922 101.031 26.4922 104.159C26.4922 107.286 29.0274 109.821 32.1547 109.821Z" fill="white" fill-opacity="0.4"/>
<path d="M32.8633 103.449H34.2789C34.6698 103.449 34.9867 103.766 34.9867 104.157C34.9867 104.548 34.6698 104.865 34.2789 104.865H32.8633H31.4477H30.032C29.6411 104.865 29.3242 104.548 29.3242 104.157C29.3242 103.766 29.6411 103.449 30.032 103.449H31.4477H32.8633Z" fill="white"/>
<path d="M47.0309 107.581C46.5779 107.581 46.156 107.507 45.7653 107.36C45.3802 107.207 45.0433 106.995 44.7545 106.723C44.4714 106.446 44.2506 106.12 44.092 105.746C43.9335 105.373 43.8542 104.965 43.8542 104.523C43.8542 104.082 43.9335 103.674 44.092 103.3C44.2506 102.926 44.4742 102.604 44.763 102.332C45.0518 102.054 45.3887 101.842 45.7738 101.695C46.1588 101.542 46.5807 101.466 47.0394 101.466C47.5263 101.466 47.9708 101.55 48.3729 101.72C48.7749 101.885 49.1147 102.131 49.3921 102.459L48.6787 103.13C48.4635 102.898 48.2228 102.725 47.9567 102.612C47.6905 102.493 47.4018 102.434 47.0903 102.434C46.7789 102.434 46.4929 102.485 46.2324 102.587C45.9776 102.689 45.754 102.833 45.5614 103.02C45.3746 103.207 45.2274 103.428 45.1198 103.682C45.0178 103.937 44.9669 104.217 44.9669 104.523C44.9669 104.829 45.0178 105.109 45.1198 105.364C45.2274 105.619 45.3746 105.84 45.5614 106.027C45.754 106.214 45.9776 106.358 46.2324 106.46C46.4929 106.562 46.7789 106.613 47.0903 106.613C47.4018 106.613 47.6905 106.556 47.9567 106.443C48.2228 106.324 48.4635 106.146 48.6787 105.908L49.3921 106.587C49.1147 106.91 48.7749 107.156 48.3729 107.326C47.9708 107.496 47.5235 107.581 47.0309 107.581ZM50.4501 107.496V101.55H51.5543V106.562H54.663V107.496H50.4501ZM54.7022 107.496L57.3777 101.55H58.4649L61.149 107.496H59.9938L57.692 102.137H58.1337L55.8404 107.496H54.7022ZM55.9338 106.12L56.2311 105.254H59.4417L59.739 106.12H55.9338ZM63.7483 107.581C63.2839 107.581 62.8394 107.516 62.4147 107.386C61.99 107.25 61.6531 107.077 61.404 106.868L61.7862 106.01C62.024 106.197 62.3185 106.352 62.6696 106.477C63.0206 106.601 63.3802 106.664 63.7483 106.664C64.0597 106.664 64.3117 106.63 64.5042 106.562C64.6967 106.494 64.8383 106.403 64.9289 106.29C65.0195 106.171 65.0648 106.038 65.0648 105.891C65.0648 105.71 64.9997 105.565 64.8694 105.458C64.7392 105.344 64.5693 105.257 64.3598 105.194C64.156 105.126 63.9266 105.064 63.6718 105.007C63.4227 104.951 63.1707 104.886 62.9159 104.812C62.6667 104.733 62.4374 104.634 62.2279 104.515C62.024 104.39 61.857 104.226 61.7267 104.022C61.5965 103.818 61.5314 103.558 61.5314 103.241C61.5314 102.918 61.6163 102.624 61.7862 102.357C61.9617 102.086 62.225 101.87 62.5761 101.712C62.9329 101.548 63.383 101.466 63.9266 101.466C64.2834 101.466 64.6373 101.511 64.9883 101.601C65.3394 101.692 65.6452 101.822 65.9057 101.992L65.5574 102.85C65.2913 102.691 65.0167 102.575 64.7335 102.502C64.4504 102.422 64.1786 102.383 63.9181 102.383C63.6124 102.383 63.3632 102.42 63.1707 102.493C62.9838 102.567 62.8451 102.663 62.7545 102.782C62.6696 102.901 62.6271 103.037 62.6271 103.19C62.6271 103.371 62.6894 103.518 62.8139 103.631C62.9442 103.739 63.1112 103.824 63.3151 103.886C63.5246 103.949 63.7568 104.011 64.0116 104.073C64.2664 104.13 64.5184 104.195 64.7675 104.268C65.0223 104.342 65.2517 104.438 65.4555 104.557C65.665 104.676 65.8321 104.838 65.9566 105.041C66.0869 105.245 66.152 105.503 66.152 105.814C66.152 106.131 66.0642 106.426 65.8887 106.698C65.7188 106.964 65.4555 107.179 65.0988 107.343C64.742 107.502 64.2919 107.581 63.7483 107.581ZM69.09 107.581C68.6257 107.581 68.1812 107.516 67.7565 107.386C67.3318 107.25 66.9949 107.077 66.7458 106.868L67.128 106.01C67.3658 106.197 67.6603 106.352 68.0113 106.477C68.3624 106.601 68.722 106.664 69.09 106.664C69.4015 106.664 69.6535 106.63 69.846 106.562C70.0385 106.494 70.1801 106.403 70.2707 106.29C70.3613 106.171 70.4066 106.038 70.4066 105.891C70.4066 105.71 70.3415 105.565 70.2112 105.458C70.081 105.344 69.9111 105.257 69.7016 105.194C69.4977 105.126 69.2684 105.064 69.0136 105.007C68.7645 104.951 68.5125 104.886 68.2577 104.812C68.0085 104.733 67.7792 104.634 67.5697 104.515C67.3658 104.39 67.1988 104.226 67.0685 104.022C66.9383 103.818 66.8732 103.558 66.8732 103.241C66.8732 102.918 66.9581 102.624 67.128 102.357C67.3035 102.086 67.5668 101.87 67.9179 101.712C68.2746 101.548 68.7248 101.466 69.2684 101.466C69.6252 101.466 69.9791 101.511 70.3301 101.601C70.6812 101.692 70.987 101.822 71.2475 101.992L70.8992 102.85C70.6331 102.691 70.3584 102.575 70.0753 102.502C69.7922 102.422 69.5204 102.383 69.2599 102.383C68.9541 102.383 68.705 102.42 68.5125 102.493C68.3256 102.567 68.1869 102.663 68.0963 102.782C68.0113 102.901 67.9689 103.037 67.9689 103.19C67.9689 103.371 68.0312 103.518 68.1557 103.631C68.286 103.739 68.453 103.824 68.6569 103.886C68.8664 103.949 69.0985 104.011 69.3534 104.073C69.6082 104.13 69.8601 104.195 70.1093 104.268C70.3641 104.342 70.5934 104.438 70.7973 104.557C71.0068 104.676 71.1738 104.838 71.2984 105.041C71.4287 105.245 71.4938 105.503 71.4938 105.814C71.4938 106.131 71.406 106.426 71.2305 106.698C71.0606 106.964 70.7973 107.179 70.4406 107.343C70.0838 107.502 69.6336 107.581 69.09 107.581ZM72.5887 107.496V101.55H73.6929V107.496H72.5887ZM76.3118 104.285H79.2761V105.22H76.3118V104.285ZM76.4052 107.496H75.301V101.55H79.6414V102.476H76.4052V107.496ZM82.1701 107.496V105.143L82.4164 105.823L79.8343 101.55H81.015L83.0874 104.99H82.4249L84.5144 101.55H85.6016L83.0195 105.823L83.2743 105.143V107.496H82.1701ZM89.8782 107.496V102.485H87.9077V101.55H92.953V102.485H90.9824V107.496H89.8782ZM97.9606 101.55H99.0648V107.496H97.9606V101.55ZM94.8858 107.496H93.7816V101.55H94.8858V107.496ZM98.0455 104.948H94.7924V104.005H98.0455V104.948ZM100.658 107.496V101.55H101.762V107.496H100.658ZM105.213 107.581C104.749 107.581 104.305 107.516 103.88 107.386C103.455 107.25 103.118 107.077 102.869 106.868L103.251 106.01C103.489 106.197 103.784 106.352 104.135 106.477C104.486 106.601 104.845 106.664 105.213 106.664C105.525 106.664 105.777 106.63 105.969 106.562C106.162 106.494 106.303 106.403 106.394 106.29C106.485 106.171 106.53 106.038 106.53 105.891C106.53 105.71 106.465 105.565 106.335 105.458C106.204 105.344 106.035 105.257 105.825 105.194C105.621 105.126 105.392 105.064 105.137 105.007C104.888 104.951 104.636 104.886 104.381 104.812C104.132 104.733 103.903 104.634 103.693 104.515C103.489 104.39 103.322 104.226 103.192 104.022C103.062 103.818 102.997 103.558 102.997 103.241C102.997 102.918 103.082 102.624 103.251 102.357C103.427 102.086 103.69 101.87 104.041 101.712C104.398 101.548 104.848 101.466 105.392 101.466C105.749 101.466 106.102 101.511 106.454 101.601C106.805 101.692 107.11 101.822 107.371 101.992L107.023 102.85C106.756 102.691 106.482 102.575 106.199 102.502C105.916 102.422 105.644 102.383 105.383 102.383C105.078 102.383 104.828 102.42 104.636 102.493C104.449 102.567 104.31 102.663 104.22 102.782C104.135 102.901 104.092 103.037 104.092 103.19C104.092 103.371 104.155 103.518 104.279 103.631C104.409 103.739 104.576 103.824 104.78 103.886C104.99 103.949 105.222 104.011 105.477 104.073C105.732 104.13 105.984 104.195 106.233 104.268C106.488 104.342 106.717 104.438 106.921 104.557C107.13 104.676 107.297 104.838 107.422 105.041C107.552 105.245 107.617 105.503 107.617 105.814C107.617 106.131 107.529 106.426 107.354 106.698C107.184 106.964 106.921 107.179 106.564 107.343C106.207 107.502 105.757 107.581 105.213 107.581ZM111.059 107.496V101.55H113.659C114.304 101.55 114.87 101.675 115.357 101.924C115.844 102.173 116.224 102.519 116.495 102.96C116.767 103.402 116.903 103.923 116.903 104.523C116.903 105.118 116.767 105.639 116.495 106.086C116.224 106.528 115.844 106.873 115.357 107.122C114.87 107.372 114.304 107.496 113.659 107.496H111.059ZM112.164 106.562H113.608C114.055 106.562 114.44 106.477 114.763 106.307C115.091 106.137 115.343 105.899 115.519 105.593C115.7 105.288 115.791 104.931 115.791 104.523C115.791 104.11 115.7 103.753 115.519 103.453C115.343 103.147 115.091 102.909 114.763 102.74C114.44 102.57 114.055 102.485 113.608 102.485H112.164V106.562ZM119.096 104.022H122.052V104.931H119.096V104.022ZM119.181 106.57H122.536V107.496H118.077V101.55H122.417V102.476H119.181V106.57ZM122.926 107.496L125.602 101.55H126.689L129.373 107.496H128.218L125.916 102.137H126.358L124.064 107.496H122.926ZM124.158 106.12L124.455 105.254H127.666L127.963 106.12H124.158ZM130.129 107.496V101.55H131.233V106.562H134.342V107.496H130.129Z" fill="#525252"/>
</g>
<path d="M54.6474 159.398L56.7676 154.687H57.6291L59.756 159.398H58.8406L57.0166 155.151H57.3666L55.5493 159.398H54.6474ZM55.6233 158.308L55.8589 157.622H58.4031L58.6387 158.308H55.6233ZM61.7627 159.446C61.4172 159.446 61.1054 159.369 60.8272 159.217C60.5534 159.06 60.3381 158.844 60.181 158.571C60.0239 158.297 59.9454 157.974 59.9454 157.601C59.9454 157.229 60.0239 156.906 60.181 156.632C60.3381 156.358 60.5534 156.145 60.8272 155.993C61.1054 155.84 61.4172 155.764 61.7627 155.764C62.0634 155.764 62.3326 155.831 62.5704 155.966C62.8082 156.096 62.9967 156.296 63.1358 156.565C63.2749 156.834 63.3445 157.18 63.3445 157.601C63.3445 158.019 63.2772 158.364 63.1425 158.638C63.0079 158.907 62.8217 159.109 62.5839 159.244C62.3461 159.378 62.0723 159.446 61.7627 159.446ZM61.8637 158.725C62.0656 158.725 62.2451 158.68 62.4022 158.591C62.5637 158.501 62.6916 158.371 62.7858 158.2C62.8845 158.03 62.9339 157.83 62.9339 157.601C62.9339 157.368 62.8845 157.168 62.7858 157.002C62.6916 156.832 62.5637 156.702 62.4022 156.612C62.2451 156.522 62.0656 156.477 61.8637 156.477C61.6618 156.477 61.48 156.522 61.3185 156.612C61.1614 156.702 61.0336 156.832 60.9348 157.002C60.8406 157.168 60.7935 157.368 60.7935 157.601C60.7935 157.83 60.8406 158.03 60.9348 158.2C61.0336 158.371 61.1614 158.501 61.3185 158.591C61.48 158.68 61.6618 158.725 61.8637 158.725ZM62.9541 159.398V158.55L62.9877 157.595L62.9204 156.639V154.404H63.755V159.398H62.9541ZM66.3836 159.446C66.038 159.446 65.7262 159.369 65.448 159.217C65.1743 159.06 64.9589 158.844 64.8018 158.571C64.6448 158.297 64.5663 157.974 64.5663 157.601C64.5663 157.229 64.6448 156.906 64.8018 156.632C64.9589 156.358 65.1743 156.145 65.448 155.993C65.7262 155.84 66.038 155.764 66.3836 155.764C66.6842 155.764 66.9534 155.831 67.1913 155.966C67.4291 156.096 67.6175 156.296 67.7566 156.565C67.8957 156.834 67.9653 157.18 67.9653 157.601C67.9653 158.019 67.898 158.364 67.7634 158.638C67.6288 158.907 67.4425 159.109 67.2047 159.244C66.9669 159.378 66.6932 159.446 66.3836 159.446ZM66.4845 158.725C66.6864 158.725 66.8659 158.68 67.023 158.591C67.1845 158.501 67.3124 158.371 67.4066 158.2C67.5054 158.03 67.5547 157.83 67.5547 157.601C67.5547 157.368 67.5054 157.168 67.4066 157.002C67.3124 156.832 67.1845 156.702 67.023 156.612C66.8659 156.522 66.6864 156.477 66.4845 156.477C66.2826 156.477 66.1009 156.522 65.9393 156.612C65.7823 156.702 65.6544 156.832 65.5557 157.002C65.4614 157.168 65.4143 157.368 65.4143 157.601C65.4143 157.83 65.4614 158.03 65.5557 158.2C65.6544 158.371 65.7823 158.501 65.9393 158.591C66.1009 158.68 66.2826 158.725 66.4845 158.725ZM67.5749 159.398V158.55L67.6086 157.595L67.5413 156.639V154.404H68.3759V159.398H67.5749ZM72.3799 159.398V155.427H70.8184V154.687H74.8165V155.427H73.2549V159.398H72.3799ZM77.4162 159.398V158.672L77.3691 158.517V157.245C77.3691 156.998 77.295 156.807 77.147 156.672C76.9989 156.533 76.7745 156.464 76.4739 156.464C76.272 156.464 76.0723 156.495 75.8748 156.558C75.6819 156.621 75.5181 156.708 75.3835 156.821L75.0537 156.208C75.2466 156.06 75.4755 155.95 75.7402 155.878C76.0095 155.802 76.2877 155.764 76.5748 155.764C77.0954 155.764 77.497 155.889 77.7796 156.141C78.0668 156.388 78.2104 156.771 78.2104 157.292V159.398H77.4162ZM76.2854 159.446C76.0162 159.446 75.7806 159.401 75.5787 159.311C75.3768 159.217 75.2197 159.089 75.1075 158.927C74.9998 158.761 74.946 158.575 74.946 158.369C74.946 158.167 74.9931 157.985 75.0873 157.823C75.1861 157.662 75.3454 157.534 75.5652 157.44C75.7851 157.346 76.0768 157.298 76.4402 157.298H77.4835V157.857H76.5008C76.2136 157.857 76.0207 157.904 75.922 157.998C75.8232 158.088 75.7739 158.2 75.7739 158.335C75.7739 158.488 75.8345 158.609 75.9556 158.698C76.0768 158.788 76.245 158.833 76.4604 158.833C76.6668 158.833 76.8508 158.786 77.0123 158.692C77.1784 158.597 77.2973 158.458 77.3691 158.274L77.5104 158.779C77.4296 158.99 77.2838 159.154 77.0729 159.271C76.8665 159.387 76.604 159.446 76.2854 159.446ZM80.4008 159.446C80.1001 159.446 79.8107 159.407 79.5325 159.331C79.2588 159.25 79.0411 159.154 78.8796 159.042L79.2027 158.402C79.3642 158.505 79.5572 158.591 79.7815 158.658C80.0059 158.725 80.2302 158.759 80.4546 158.759C80.7193 158.759 80.9101 158.723 81.0267 158.651C81.1479 158.58 81.2084 158.483 81.2084 158.362C81.2084 158.263 81.1681 158.189 81.0873 158.14C81.0065 158.086 80.9011 158.046 80.7709 158.019C80.6408 157.992 80.495 157.967 80.3334 157.945C80.1764 157.922 80.0171 157.893 79.8556 157.857C79.6985 157.817 79.5549 157.761 79.4248 157.689C79.2947 157.613 79.1892 157.512 79.1084 157.386C79.0277 157.26 78.9873 157.094 78.9873 156.888C78.9873 156.659 79.0524 156.462 79.1825 156.296C79.3126 156.125 79.4943 155.995 79.7277 155.905C79.9655 155.811 80.2459 155.764 80.569 155.764C80.8113 155.764 81.0559 155.791 81.3027 155.845C81.5495 155.898 81.7536 155.975 81.9152 156.073L81.5921 156.713C81.4216 156.61 81.2488 156.54 81.0738 156.504C80.9033 156.464 80.7328 156.444 80.5623 156.444C80.3065 156.444 80.1158 156.482 79.9902 156.558C79.869 156.634 79.8084 156.731 79.8084 156.847C79.8084 156.955 79.8488 157.036 79.9296 157.09C80.0104 157.144 80.1158 157.186 80.2459 157.218C80.3761 157.249 80.5197 157.276 80.6767 157.298C80.8383 157.316 80.9976 157.346 81.1546 157.386C81.3117 157.426 81.4552 157.482 81.5854 157.554C81.72 157.622 81.8277 157.718 81.9084 157.844C81.9892 157.969 82.0296 158.133 82.0296 158.335C82.0296 158.559 81.9623 158.755 81.8277 158.921C81.6976 159.087 81.5113 159.217 81.269 159.311C81.0267 159.401 80.7373 159.446 80.4008 159.446ZM83.4407 158.597L83.4609 157.541L85.3388 155.804H86.3484L84.7532 157.406L84.309 157.776L83.4407 158.597ZM82.7542 159.398V154.404H83.5955V159.398H82.7542ZM85.4667 159.398L84.1542 157.776L84.6859 157.103L86.4897 159.398H85.4667Z" fill="#626262"/>
<path fill-rule="evenodd" clip-rule="evenodd" d="M47.2185 154.082C47.5283 154.082 47.7794 154.333 47.7794 154.643V156.326H49.4621C49.7719 156.326 50.023 156.577 50.023 156.887C50.023 157.196 49.7719 157.447 49.4621 157.447H47.7794V159.13C47.7794 159.44 47.5283 159.691 47.2185 159.691C46.9088 159.691 46.6577 159.44 46.6577 159.13V157.447H44.975C44.6652 157.447 44.4141 157.196 44.4141 156.887C44.4141 156.577 44.6652 156.326 44.975 156.326H46.6577V154.643C46.6577 154.333 46.9088 154.082 47.2185 154.082Z" fill="#626262"/>
<path d="M45.5439 54.2392C45.185 54.2392 44.8507 54.1808 44.541 54.0642C44.2359 53.943 43.9689 53.7748 43.7401 53.5594C43.5157 53.3395 43.3407 53.0815 43.2151 52.7853C43.0894 52.4892 43.0266 52.1661 43.0266 51.8161C43.0266 51.4661 43.0894 51.143 43.2151 50.8469C43.3407 50.5507 43.518 50.295 43.7468 50.0796C43.9757 49.8597 44.2426 49.6914 44.5478 49.5748C44.8529 49.4536 45.1872 49.393 45.5507 49.393C45.9366 49.393 46.2888 49.4603 46.6074 49.595C46.926 49.7251 47.1952 49.9203 47.4151 50.1805L46.8497 50.7123C46.6792 50.5283 46.4885 50.3914 46.2776 50.3017C46.0667 50.2075 45.8378 50.1603 45.591 50.1603C45.3443 50.1603 45.1176 50.2007 44.9112 50.2815C44.7093 50.3623 44.5321 50.4767 44.3795 50.6248C44.2314 50.7728 44.1148 50.9478 44.0295 51.1498C43.9487 51.3517 43.9084 51.5738 43.9084 51.8161C43.9084 52.0584 43.9487 52.2805 44.0295 52.4825C44.1148 52.6844 44.2314 52.8594 44.3795 53.0075C44.5321 53.1555 44.7093 53.27 44.9112 53.3507C45.1176 53.4315 45.3443 53.4719 45.591 53.4719C45.8378 53.4719 46.0667 53.427 46.2776 53.3373C46.4885 53.243 46.6792 53.1017 46.8497 52.9132L47.4151 53.4517C47.1952 53.7075 46.926 53.9026 46.6074 54.0373C46.2888 54.1719 45.9343 54.2392 45.5439 54.2392ZM48.2535 54.1719V49.4603H49.1285V53.4315H51.5919V54.1719H48.2535ZM54.405 54.2392C54.037 54.2392 53.6983 54.1786 53.3886 54.0575C53.079 53.9363 52.8098 53.768 52.581 53.5526C52.3521 53.3328 52.1749 53.077 52.0492 52.7853C51.9236 52.4892 51.8608 52.1661 51.8608 51.8161C51.8608 51.4661 51.9236 51.1453 52.0492 50.8536C52.1749 50.5575 52.3521 50.3017 52.581 50.0863C52.8098 49.8664 53.079 49.6959 53.3886 49.5748C53.6983 49.4536 54.0348 49.393 54.3983 49.393C54.7662 49.393 55.1027 49.4536 55.4079 49.5748C55.7175 49.6959 55.9867 49.8664 56.2156 50.0863C56.4444 50.3017 56.6217 50.5575 56.7473 50.8536C56.8729 51.1453 56.9358 51.4661 56.9358 51.8161C56.9358 52.1661 56.8729 52.4892 56.7473 52.7853C56.6217 53.0815 56.4444 53.3373 56.2156 53.5526C55.9867 53.768 55.7175 53.9363 55.4079 54.0575C55.1027 54.1786 54.7685 54.2392 54.405 54.2392ZM54.3983 53.4719C54.6361 53.4719 54.856 53.4315 55.0579 53.3507C55.2598 53.27 55.4348 53.1555 55.5829 53.0075C55.731 52.8549 55.8454 52.6799 55.9261 52.4825C56.0114 52.2805 56.054 52.0584 56.054 51.8161C56.054 51.5738 56.0114 51.3539 55.9261 51.1565C55.8454 50.9546 55.731 50.7796 55.5829 50.6315C55.4348 50.4789 55.2598 50.3623 55.0579 50.2815C54.856 50.2007 54.6361 50.1603 54.3983 50.1603C54.1604 50.1603 53.9406 50.2007 53.7386 50.2815C53.5412 50.3623 53.3662 50.4789 53.2136 50.6315C53.0656 50.7796 52.9489 50.9546 52.8636 51.1565C52.7829 51.3539 52.7425 51.5738 52.7425 51.8161C52.7425 52.0539 52.7829 52.2738 52.8636 52.4757C52.9489 52.6776 53.0656 52.8549 53.2136 53.0075C53.3617 53.1555 53.5367 53.27 53.7386 53.3507C53.9406 53.4315 54.1604 53.4719 54.3983 53.4719ZM59.3238 54.2392C58.9559 54.2392 58.6036 54.1876 58.2671 54.0844C57.9305 53.9767 57.6636 53.8398 57.4661 53.6738L57.769 52.994C57.9575 53.1421 58.1908 53.2655 58.469 53.3642C58.7472 53.4629 59.0321 53.5123 59.3238 53.5123C59.5706 53.5123 59.7703 53.4853 59.9229 53.4315C60.0754 53.3776 60.1876 53.3058 60.2594 53.2161C60.3312 53.1219 60.3671 53.0164 60.3671 52.8998C60.3671 52.7562 60.3155 52.6417 60.2123 52.5565C60.1091 52.4667 59.9745 52.3972 59.8084 52.3478C59.6469 52.294 59.4652 52.2446 59.2632 52.1998C59.0658 52.1549 58.8661 52.1033 58.6642 52.045C58.4668 51.9821 58.285 51.9036 58.119 51.8094C57.9575 51.7107 57.8251 51.5805 57.7219 51.419C57.6187 51.2575 57.5671 51.051 57.5671 50.7998C57.5671 50.544 57.6344 50.3107 57.769 50.0998C57.9081 49.8844 58.1168 49.7139 58.395 49.5882C58.6777 49.4581 59.0344 49.393 59.4652 49.393C59.7479 49.393 60.0283 49.4289 60.3065 49.5007C60.5847 49.5725 60.827 49.6757 61.0334 49.8103L60.7575 50.4901C60.5466 50.3645 60.3289 50.2725 60.1046 50.2142C59.8802 50.1514 59.6648 50.12 59.4584 50.12C59.2161 50.12 59.0187 50.1491 58.8661 50.2075C58.718 50.2658 58.6081 50.3421 58.5363 50.4363C58.469 50.5305 58.4354 50.6382 58.4354 50.7594C58.4354 50.903 58.4847 51.0196 58.5834 51.1094C58.6866 51.1946 58.819 51.2619 58.9805 51.3113C59.1466 51.3607 59.3305 51.41 59.5325 51.4594C59.7344 51.5042 59.9341 51.5558 60.1315 51.6142C60.3334 51.6725 60.5152 51.7488 60.6767 51.843C60.8427 51.9373 60.9751 52.0651 61.0738 52.2267C61.177 52.3882 61.2286 52.5924 61.2286 52.8392C61.2286 53.0905 61.1591 53.3238 61.02 53.5392C60.8854 53.7501 60.6767 53.9206 60.394 54.0507C60.1113 54.1764 59.7546 54.2392 59.3238 54.2392ZM62.904 51.419H65.2463V52.1392H62.904V51.419ZM62.9713 53.4382H65.6299V54.1719H62.0963V49.4603H65.5357V50.194H62.9713V53.4382ZM66.6053 54.1719V49.4603H68.5438C68.9611 49.4603 69.3178 49.5276 69.614 49.6623C69.9146 49.7969 70.1457 49.9898 70.3073 50.2411C70.4688 50.4924 70.5496 50.7908 70.5496 51.1363C70.5496 51.4818 70.4688 51.7802 70.3073 52.0315C70.1457 52.2783 69.9146 52.469 69.614 52.6036C69.3178 52.7337 68.9611 52.7988 68.5438 52.7988H67.09L67.4803 52.4017V54.1719H66.6053ZM69.688 54.1719L68.4967 52.4623H69.4323L70.6303 54.1719H69.688ZM67.4803 52.4959L67.09 52.0786H68.5034C68.8893 52.0786 69.1787 51.9956 69.3717 51.8296C69.5691 51.6635 69.6678 51.4325 69.6678 51.1363C69.6678 50.8357 69.5691 50.6046 69.3717 50.443C69.1787 50.2815 68.8893 50.2007 68.5034 50.2007H67.09L67.4803 49.77V52.4959Z" fill="#525252"/>
</g>
<defs>
<filter id="filter0_bd_1312_3984" x="0" y="0.00390625" width="245.514" height="186" filterUnits="userSpaceOnUse" color-interpolation-filters="sRGB">
<feFlood flood-opacity="0" result="BackgroundImageFix"/>
<feGaussianBlur in="BackgroundImageFix" stdDeviation="7"/>
<feComposite in2="SourceAlpha" operator="in" result="effect1_backgroundBlur_1312_3984"/>
<feColorMatrix in="SourceAlpha" type="matrix" values="0 0 0 0 0 0 0 0 0 0 0 0 0 0 0 0 0 0 127 0" result="hardAlpha"/>
<feOffset/>
<feGaussianBlur stdDeviation="9"/>
<feComposite in2="hardAlpha" operator="out"/>
<feColorMatrix type="matrix" values="0 0 0 0 0 0 0 0 0 0 0 0 0 0 0 0 0 0 0.08 0"/>
<feBlend mode="normal" in2="effect1_backgroundBlur_1312_3984" result="effect2_dropShadow_1312_3984"/>
<feBlend mode="normal" in="SourceGraphic" in2="effect2_dropShadow_1312_3984" result="shape"/>
</filter>
<filter id="filter1_d_1312_3984" x="38.2427" y="60.6314" width="170.513" height="26.9247" filterUnits="userSpaceOnUse" color-interpolation-filters="sRGB">
<feFlood flood-opacity="0" result="BackgroundImageFix"/>
<feColorMatrix in="SourceAlpha" type="matrix" values="0 0 0 0 0 0 0 0 0 0 0 0 0 0 0 0 0 0 127 0" result="hardAlpha"/>
<feOffset/>
<feGaussianBlur stdDeviation="1.12179"/>
<feColorMatrix type="matrix" values="0 0 0 0 0 0 0 0 0 0 0 0 0 0 0 0 0 0 0.12 0"/>
<feBlend mode="normal" in2="BackgroundImageFix" result="effect1_dropShadow_1312_3984"/>
<feBlend mode="normal" in="SourceGraphic" in2="effect1_dropShadow_1312_3984" result="shape"/>
</filter>
<filter id="filter2_d_1312_3984" x="38.2447" y="119.991" width="170.513" height="26.9247" filterUnits="userSpaceOnUse" color-interpolation-filters="sRGB">
<feFlood flood-opacity="0" result="BackgroundImageFix"/>
<feColorMatrix in="SourceAlpha" type="matrix" values="0 0 0 0 0 0 0 0 0 0 0 0 0 0 0 0 0 0 127 0" result="hardAlpha"/>
<feOffset/>
<feGaussianBlur stdDeviation="1.12179"/>
<feColorMatrix type="matrix" values="0 0 0 0 0 0 0 0 0 0 0 0 0 0 0 0 0 0 0.12 0"/>
<feBlend mode="normal" in2="BackgroundImageFix" result="effect1_dropShadow_1312_3984"/>
<feBlend mode="normal" in="SourceGraphic" in2="effect1_dropShadow_1312_3984" result="shape"/>
</filter>
<filter id="filter3_d_1312_3984" x="2" y="74.0039" width="241.514" height="60.3125" filterUnits="userSpaceOnUse" color-interpolation-filters="sRGB">
<feFlood flood-opacity="0" result="BackgroundImageFix"/>
<feColorMatrix in="SourceAlpha" type="matrix" values="0 0 0 0 0 0 0 0 0 0 0 0 0 0 0 0 0 0 127 0" result="hardAlpha"/>
<feOffset/>
<feGaussianBlur stdDeviation="8"/>
<feColorMatrix type="matrix" values="0 0 0 0 0 0 0 0 0 0 0 0 0 0 0 0 0 0 0.1 0"/>
<feBlend mode="normal" in2="BackgroundImageFix" result="effect1_dropShadow_1312_3984"/>
<feBlend mode="normal" in="SourceGraphic" in2="effect1_dropShadow_1312_3984" result="shape"/>
</filter>
</defs>
</svg>
